<?xml version="1.0" encoding="iso-8859-1"?>
<!-- Generator: Adobe Illustrator 19.0.0, SVG Export Plug-In . SVG Version: 6.00 Build 0)  -->
<svg xmlns:xlink="http://www.w3.org/1999/xlink" version="1.1" id="Layer_1"
     xmlns="http://www.w3.org/2000/svg" x="0px" y="0px"
     width="16px" height="16px"
     viewBox="-48 -48 620 620"
     xml:space="preserve">
    <g transform="translate(-50 -50)" fill="#3949AB">
        <polygon points="392.538,163.392 392.538,132.877 217.621,236.233 255.322,246.447 "/>
        <path d="M194.617,230.004l197.922-116.949V96.713c0-6.656-2.398-12.706-6.246-17.553l-235.29,139.034L194.617,230.004z"/>
        <polygon points="359.834,292.434 119.467,227.334 119.467,262.184 316.604,316.609 "/>
        <path d="M370.063,68.926c-1.928-0.418-3.917-0.657-5.965-0.657h-39.825V28.452c0-15.684-12.757-28.45-28.442-28.45h-79.65
c-15.684,0-28.442,12.766-28.442,28.45v39.817h-39.825c-15.684,0-28.442,12.766-28.442,28.45V158.5l130.654-73.165h34.918
l-165.572,92.723v31.59l8.525,2.313L370.063,68.926z"/>
        <path d="M202.104,400.634l-0.478-0.162l-69.12,38.665c4.446,2.884,9.719,4.599,15.403,4.599h39.825v39.825
c0,15.684,12.766,28.442,28.442,28.442h79.65c15.684,0,28.442-12.757,28.442-28.442v-39.825h39.825
c15.684,0,28.442-12.757,28.442-28.442V354.75l-122.266,71.919h-33.655l155.921-91.716v-41.259L202.275,400.113L202.104,400.634z
"/>
        <polygon points="236,361.693 119.469,329.574 119.469,355.097 199.879,381.9 "/>
        <polygon points="381.137,280.519 392.538,274.145 392.538,236.428 338.795,269.05 "/>
        <path d="M119.471,373.09v42.206c0,3.686,0.759,7.194,2.048,10.436l58.206-32.555L119.471,373.09z"/>
        <path d="M477.871,85.338c-18.825,0-34.133,15.309-34.133,34.133c0,6.118,1.749,11.785,4.574,16.751l-55.774,49.579v-2.458
l-114.449,69.265l37.973,10.283l76.476-46.43v-7.825l67.635-60.117c5.18,3.166,11.196,5.086,17.698,5.086
c18.825,0,34.133-15.309,34.133-34.133S496.695,85.338,477.871,85.338z"/>
        <path d="M131.78,315.264l125.423,34.577l38.212-21.376l-175.949-48.58v23.492l-67.635,60.117
c-5.171-3.166-11.196-5.094-17.698-5.094C15.309,358.4,0,373.718,0,392.534c0,18.825,15.309,34.133,34.133,34.133
c18.833,0,34.133-15.309,34.133-34.133c0-6.11-1.741-11.776-4.574-16.751L131.78,315.264z"/>
    </g>
    <g transform="translate(50 50)" fill="#82AAFF">
        <polygon points="392.538,163.392 392.538,132.877 217.621,236.233 255.322,246.447 "/>
        <path d="M194.617,230.004l197.922-116.949V96.713c0-6.656-2.398-12.706-6.246-17.553l-235.29,139.034L194.617,230.004z"/>
        <polygon points="359.834,292.434 119.467,227.334 119.467,262.184 316.604,316.609 "/>
        <path d="M370.063,68.926c-1.928-0.418-3.917-0.657-5.965-0.657h-39.825V28.452c0-15.684-12.757-28.45-28.442-28.45h-79.65
c-15.684,0-28.442,12.766-28.442,28.45v39.817h-39.825c-15.684,0-28.442,12.766-28.442,28.45V158.5l130.654-73.165h34.918
l-165.572,92.723v31.59l8.525,2.313L370.063,68.926z"/>
        <path d="M202.104,400.634l-0.478-0.162l-69.12,38.665c4.446,2.884,9.719,4.599,15.403,4.599h39.825v39.825
c0,15.684,12.766,28.442,28.442,28.442h79.65c15.684,0,28.442-12.757,28.442-28.442v-39.825h39.825
c15.684,0,28.442-12.757,28.442-28.442V354.75l-122.266,71.919h-33.655l155.921-91.716v-41.259L202.275,400.113L202.104,400.634z
"/>
        <polygon points="236,361.693 119.469,329.574 119.469,355.097 199.879,381.9 "/>
        <polygon points="381.137,280.519 392.538,274.145 392.538,236.428 338.795,269.05 "/>
        <path d="M119.471,373.09v42.206c0,3.686,0.759,7.194,2.048,10.436l58.206-32.555L119.471,373.09z"/>
        <path d="M477.871,85.338c-18.825,0-34.133,15.309-34.133,34.133c0,6.118,1.749,11.785,4.574,16.751l-55.774,49.579v-2.458
l-114.449,69.265l37.973,10.283l76.476-46.43v-7.825l67.635-60.117c5.18,3.166,11.196,5.086,17.698,5.086
c18.825,0,34.133-15.309,34.133-34.133S496.695,85.338,477.871,85.338z"/>
        <path d="M131.78,315.264l125.423,34.577l38.212-21.376l-175.949-48.58v23.492l-67.635,60.117
c-5.171-3.166-11.196-5.094-17.698-5.094C15.309,358.4,0,373.718,0,392.534c0,18.825,15.309,34.133,34.133,34.133
c18.833,0,34.133-15.309,34.133-34.133c0-6.11-1.741-11.776-4.574-16.751L131.78,315.264z"/>
    </g>
    <path d="M21,7L9,19L3.5,13.5L4.91,12.09L9,16.17L19.59,5.59L21,7Z" fill="#FF8A65"
          transform="scale(20) translate(6 6)"/>

</svg>
