<svg xmlns:xlink="http://www.w3.org/1999/xlink" version="1.1" xmlns="http://www.w3.org/2000/svg" x="0px" y="0px"
     width="16px" height="16px" viewBox="0 0 512 512" fill="#9C27B0">
    <path d="M0,302.6098633l51.236824-59.0530548c0,0,40.9140091,47.400589,90.0395432,65.5400543l-52.7012329,59.4484253C88.5751343,368.5452881,42.2346764,352.3914185,0,302.6098633z M148.0234833,301.4150085l51.111084-57.8582001c-52.5665131-20.923996-90.1653519-66.599472-90.1653519-66.599472l-51.371582,59.3135223C103.399025,287.1123657,148.0234833,301.4150085,148.0234833,301.4150085z M206.016449,236.0103912l48.1911774-54.5521851c-50.9673157-20.2593994-90.5606079-67.2646255-90.5606079-67.2646255l-48.1912155,55.4772568C161.1314545,221.7071991,206.016449,236.0103912,206.016449,236.0103912z M368.2978516,191.4305267l45.900238-51.3712006c-73.0863953-27.1861725-134.3046265,26.0357208-134.3046265,26.0357208l-27.5365601,32.5770111C312.6946716,166.544693,368.2978516,191.4305267,368.2978516,191.4305267z M194.2830963,263.8611755c58.2894135-30.1955261,115.3300629-7.1335144,115.3300629-7.1335144l51.5782166-57.4535217c0,0-54.0937805-24.1049805-118.4655457,12.1646271L194.2830963,263.8611755z M132.1124878,333.434906c58.289444-30.1960754,115.3210754-7.1335144,115.3210754-7.1335144l55.0461731-61.1373291c0,0-51.1560211-22.6491241-117.8636322,11.2121277L132.1124878,333.434906z M240.5786285,334.0638428c-59.0890198-21.9576111-116.6417465,11.3739319-116.6417465,11.3739319l-25.5959473,26.4672546C185.4606323,399.9268799,240.5786285,334.0638428,240.5786285,334.0638428z M465.3989868,263.1066284L512,210.3245239c-40.5996094-48.7303467-88.0899963-66.734375-88.0899963-66.734375l-46.0709534,51.5510712C430.9715576,218.7965546,465.3989868,263.1066284,465.3989868,263.1066284z M408.0169373,328.421875l50.8505554-57.9031677c-41.4890137-50.841507-87.7395935-67.6062469-87.7395935-67.6062469l-52.0813904,58.0736847C372.5383911,283.9407043,408.0169373,328.421875,408.0169373,328.421875z M257.4329529,330.012085c51.730957,20.8340759,89.6801758,67.794342,89.6801758,67.794342l54.372345-61.9637146c-44.1303711-51.5516052-88.9704285-67.2646179-88.9704285-67.2646179L257.4329529,330.012085z"/>
</svg>