<?xml version="1.0" encoding="UTF-8"?><!DOCTYPE svg PUBLIC "-//W3C//DTD SVG 1.1//EN"
        "http://www.w3.org/Graphics/SVG/1.1/DTD/svg11.dtd">
<svg version="1.1" xmlns="http://www.w3.org/2000/svg"
     xmlns:xlink="http://www.w3.org/1999/xlink" x="0px" y="0px"
     viewBox="0 0 369 512" width="16px" height="16px">
    <path fill="#00ACC1"
          d="M118.8347473,391.8314514c-11.0463791,2.9020386-30.8727112,10.20224-25.4985275,25.1454468c10.2657928,16.2324829,32.2333145,18.5989685,49.5846481,22.1087646c43.9986115,6.1643982,89.6991577-0.4361572,129.8277893-19.565979c-13.7843018-4.3330078-26.6967163-12.5171509-39.4153748-17.5175171c-37.0448914,7.5523071-76.5756073,10.7302246-113.4392471,0.8476257c1.886116-4.4017639,18.7827988-14.5131226,4.6802292-11.4407043C122.6610413,391.5495911,120.7478333,391.6901245,118.8347473,391.8314514z M106.964592,338.0658875c-11.0428543,4.4443665-30.7042847,9.7420044-28.8187332,25.1456604c6.8268356,15.418457,27.3534775,16.8304138,41.7882004,20.1987305c54.8505478,7.9640503,111.1017227,0.9543457,163.7583618-15.4662476c-11.6207581-4.3516235-24.0296326-8.4572144-32.6334991-17.870636c-46.6656952,9.2505188-95.9490356,13.9017639-142.6123657,4.0263062c-6.5641327-3.4587402,6.7220764-9.9211731,7.4588852-13.4144897C129.080307,329.40625,111.3105392,339.0346069,106.964592,338.0658875z M292.5256653,112.0490875c-38.8645325,11.7290421-80.969223,27.7937775-104.0384216,62.9931488c-16.4302063,25.6138611-4.5041351,58.4992371,14.7626343,78.8990021c13.353775,13.1353302,8.0883484,34.6885223-5.5801544,45.4180756c-14.3238525,12.5110168,2.2148438,10.3175659,10.5245056,4.3087463c20.3131256-12.5423279,43.0028687-35.4559326,34.3283844-61.5947418c-6.8266144-19.7382965-32.4475403-36.0962372-23.3964081-59.1630554c17.582016-31.7272034,54.2102509-45.6840668,81.799118-67.223175C311.537384,108.6017914,296.6333923,113.0118713,292.5256653,112.0490875z M40.4912758,451.5814209c16.9685745-11.2787476,37.8758583-14.2047729,57.9201622-11.4427795c-9.3910446-6.807312-17.9786682-14.5080872-30.3689423-12.7851868c-23.2782326,2.2700806-48.2075577,8.3582153-65.1916656,25.4277649c-8.4207268,9.9065857,3.5251145,21.223877,13.6324844,22.3912354c86.1140213,16.2096252,175.8414001,18.5883484,262.3297424,3.4610901c22.5798035-5.8760681,49.5704956-8.4633484,65.9025574-26.6990662c7.6173096-12.914978-10.2987366-22.3733215-20.7990112-23.1882935c-4.3379517,1.0841675,7.7060852,8.7731018,7.3783875,14.4295654c-10.5741882,11.6734619-29.2931824,11.3467407-44.0762939,15.0453491C177.5,472.5,69.1221924,466.7949829,40.4912758,451.5814209z M275.505188,315.8980103c8.3691711-4.5243835,17.2249451-8.0758362,24.1567688-14.833252c-27.1533813-1.6239624-53.7112274,7.3096313-80.7257233,8.265625c-43.8738403,2.6915588-88.8258209,7.7044067-132.3088989-0.6369629c-6.724678-1.5560303,5.468811-5.0622559,7.2046509-6.4278564c15.6399765-6.9520569,32.918335-8.5035706,47.9603882-16.9523315c-6.2371521-1.4189758-12.2854004-4.0568848-18.7899857-3.2489929c-28.1797333,1.5705261-57.2032547,8.4977112-80.7361908,24.2276001c-8.3256264,7.8776245,2.0441666,18.0975342,10.6659737,19.1419983C112.7521286,341.9960938,248.5,333.6666565,275.505188,315.8980103z M320.5681458,277.4030457c-14.2689819-0.0597839-27.9729309,6.7670593-33.7684937,20.4739075c-6.6846313,9.065033,11.1994019-4.1524353,17.1698608-4.0154419c19.0513916-7.9066162,42.1271667,12.8203735,33.0571899,32.3510132c-9.3682251,23.7306519-34.7591553,35.1193542-53.8241882,48.7372131c-15.8569946,12.9924316-10.7930908,13.5957642,6.1331177,7.4459229c30.6443787-8.963562,67.3738403-23.3135071,77.4277649-56.6795959C374.0092163,298.2519531,347.3074646,274.8536682,320.5681458,277.4030457z M224.7153015,0c1.2240601,5.6507764,2.4481659,11.305665,3.6722412,16.9564419c21.279129,84.3768921-84.720871,103.7102203-110.0494919,163.5247192c-10.4239807,30.5713806,13.7318192,58.4686279,33.0548782,79.341568c13.2946777,13.4771118,26.795578,27.1580811,42.3131409,38.3348694c-7.078476-35.874939-47.0305634-58.9912109-43.4407196-97.5544434c7.1279144-37.0378418,45.9594879-53.2945557,68.2353821-80.0289307C255.5,79.5,263.7047424,36.5491676,224.7153015,0z M54.1986313,487.1745911c22.1386642,21.4512939,55.1589203,20.0031128,83.6328964,23.3801575c64.998642,2.807373,131.7580719,3.3970337,194.2473602-16.1755371c17.8270874-5.7960205,40.5970764-19.8230286,35.604248-42.0212402c1.4787292-13.2836304-5.2355347,4.1975098-8.0593872,6.4917603C321.0131531,497.125,149.0128784,502.3786621,54.1986313,487.1745911z"/>
</svg>