<?xml version="1.0" encoding="UTF-8"?><!DOCTYPE svg PUBLIC "-//W3C//DTD SVG 1.1//EN" "http://www.w3.org/Graphics/SVG/1.1/DTD/svg11.dtd">
<svg xmlns="http://www.w3.org/2000/svg" xmlns:xlink="http://www.w3.org/1999/xlink" version="1.1" width="16px" height="16px"
     viewBox="0 0 24 24" fill="#C792EA">
    <path d="M5,9.5L7.5,14H2.5L5,9.5M3,4H7V8H3V4M5,20A2,2 0 0,0 7,18A2,2 0 0,0 5,16A2,2 0 0,0 3,18A2,2 0 0,0 5,20M9,5V7H21V5H9M9,19H21V17H9V19M9,13H21V11H9V13Z"/>
    <path transform="scale(.5) translate(24 24)" fill="#4CAF50"
          d="M19,2L14,6.5V17.5L19,13V2M6.5,5C4.55,5 2.45,5.4 1,6.5V21.16C1,21.41 1.25,21.66 1.5,21.66C1.6,21.66 1.65,21.59 1.75,21.59C3.1,20.94 5.05,20.5 6.5,20.5C8.45,20.5 10.55,20.9 12,22C13.35,21.15 15.8,20.5 17.5,20.5C19.15,20.5 20.85,20.81 22.25,21.56C22.35,21.61 22.4,21.59 22.5,21.59C22.75,21.59 23,21.34 23,21.09V6.5C22.4,6.05 21.75,5.75 21,5.5V7.5L21,13V19C19.9,18.65 18.7,18.5 17.5,18.5C15.8,18.5 13.35,19.15 12,20V13L12,8.5V6.5C10.55,5.4 8.45,5 6.5,5V5Z"/>
    <path transform="scale(.5) translate(0 24)" fill="#F44336"
          d="M20.71,7.04C21.1,6.65 21.1,6 20.71,5.63L18.37,3.29C18,2.9 17.35,2.9 16.96,3.29L15.12,5.12L18.87,8.87M3,17.25V21H6.75L17.81,9.93L14.06,6.18L3,17.25Z"/>
    <path transform="scale(0.5) translate(24 0)" fill="#FFCB6B"
          d="M5.68,19.74C7.16,20.95 9,21.75 11,21.95V19.93C9.54,19.75 8.21,19.17 7.1,18.31M13,19.93V21.95C15,21.75 16.84,20.95 18.32,19.74L16.89,18.31C15.79,19.17 14.46,19.75 13,19.93M18.31,16.9L19.74,18.33C20.95,16.85 21.75,15 21.95,13H19.93C19.75,14.46 19.17,15.79 18.31,16.9M15,12A3,3 0 0,0 12,9A3,3 0 0,0 9,12A3,3 0 0,0 12,15A3,3 0 0,0 15,12M4.07,13H2.05C2.25,15 3.05,16.84 4.26,18.32L5.69,16.89C4.83,15.79 4.25,14.46 4.07,13M5.69,7.1L4.26,5.68C3.05,7.16 2.25,9 2.05,11H4.07C4.25,9.54 4.83,8.21 5.69,7.1M19.93,11H21.95C21.75,9 20.95,7.16 19.74,5.68L18.31,7.1C19.17,8.21 19.75,9.54 19.93,11M18.32,4.26C16.84,3.05 15,2.25 13,2.05V4.07C14.46,4.25 15.79,4.83 16.9,5.69M11,4.07V2.05C9,2.25 7.16,3.05 5.68,4.26L7.1,5.69C8.21,4.83 9.54,4.25 11,4.07Z"/>

</svg>
