<?xml version="1.0" encoding="UTF-8"?><!DOCTYPE svg PUBLIC "-//W3C//DTD SVG 1.1//EN" "http://www.w3.org/Graphics/SVG/1.1/DTD/svg11.dtd">
<svg xmlns="http://www.w3.org/2000/svg" xmlns:xlink="http://www.w3.org/1999/xlink" version="1.1" width="16px" height="16px"
     viewBox="0 0 24 24" fill="#C792EA">
    <path d="M5,9.5L7.5,14H2.5L5,9.5M3,4H7V8H3V4M5,20A2,2 0 0,0 7,18A2,2 0 0,0 5,16A2,2 0 0,0 3,18A2,2 0 0,0 5,20M9,5V7H21V5H9M9,19H21V17H9V19M9,13H21V11H9V13Z"/>
    <path transform="scale(.5) translate(0 24)" fill="#F44336"
          d="M20.71,7.04C21.1,6.65 21.1,6 20.71,5.63L18.37,3.29C18,2.9 17.35,2.9 16.96,3.29L15.12,5.12L18.87,8.87M3,17.25V21H6.75L17.81,9.93L14.06,6.18L3,17.25Z"/>

</svg>
