<?xml version="1.0" encoding="UTF-8"?><!--
  - The MIT License (MIT)
  -
  - Copyright (c) 2015-2021 Elior "Mallowigi" Boukhobza
  -
  - Permission is hereby granted, free of charge, to any person obtaining a copy
  - of this software and associated documentation files (the "Software"), to deal
  - in the Software without restriction, including without limitation the rights
  - to use, copy, modify, merge, publish, distribute, sublicense, and/or sell
  - copies of the Software, and to permit persons to whom the Software is
  - furnished to do so, subject to the following conditions:
  -
  - The above copyright notice and this permission notice shall be included in all
  - copies or substantial portions of the Software.
  -
  - THE SOFTWARE IS PROVIDED "AS IS", WITHOUT WARRANTY OF ANY KIND, EXPRESS OR
  - IMPLIED, INCLUDING BUT NOT LIMITED TO THE WARRANTIES OF MERCHANTABILITY,
  - FITNESS FOR A PARTICULAR PURPOSE AND NONINFRINGEMENT. IN NO EVENT SHALL THE
  - AUTHORS OR COPYRIGHT HOLDERS BE LIABLE FOR ANY CLAIM, DAMAGES OR OTHER
  - LIABILITY, WHETHER IN AN ACTION OF CONTRACT, TORT OR OTHERWISE, ARISING FROM,
  - OUT OF OR IN CONNECTION WITH THE SOFTWARE OR THE USE OR OTHER DEALINGS IN THE
  - SOFTWARE.
  -
  -
  -->

<!DOCTYPE svg PUBLIC "-//W3C//DTD SVG 1.1//EN"
        "http://www.w3.org/Graphics/SVG/1.1/DTD/svg11.dtd">
<svg big="true" xmlns="http://www.w3.org/2000/svg" version="1.1" width="16px" height="16px"
     viewBox="0 0 24 24">
    <path fill="#26A69A"
          d="M22,22H10V20H22V22M2,22V20H9V22H2M18,18V10H22V18H18M18,3H22V9H18V3M2,18V3H16V18H2M9,14.56A3,3 0 0,0 12,11.56C12,9.56 9,6.19 9,6.19C9,6.19 6,9.56 6,11.56A3,3 0 0,0 9,14.56Z" />
</svg>
