<?xml version="1.0" encoding="UTF-8"?><!--
  - The MIT License (MIT)
  -
  - Copyright (c) 2015-2021 Elior "Mallowigi" Boukhobza
  -
  - Permission is hereby granted, free of charge, to any person obtaining a copy
  - of this software and associated documentation files (the "Software"), to deal
  - in the Software without restriction, including without limitation the rights
  - to use, copy, modify, merge, publish, distribute, sublicense, and/or sell
  - copies of the Software, and to permit persons to whom the Software is
  - furnished to do so, subject to the following conditions:
  -
  - The above copyright notice and this permission notice shall be included in all
  - copies or substantial portions of the Software.
  -
  - THE SOFTWARE IS PROVIDED "AS IS", WITHOUT WARRANTY OF ANY KIND, EXPRESS OR
  - IMPLIED, INCLUDING BUT NOT LIMITED TO THE WARRANTIES OF MERCHANTABILITY,
  - FITNESS FOR A PARTICULAR PURPOSE AND NONINFRINGEMENT. IN NO EVENT SHALL THE
  - AUTHORS OR COPYRIGHT HOLDERS BE LIABLE FOR ANY CLAIM, DAMAGES OR OTHER
  - LIABILITY, WHETHER IN AN ACTION OF CONTRACT, TORT OR OTHERWISE, ARISING FROM,
  - OUT OF OR IN CONNECTION WITH THE SOFTWARE OR THE USE OR OTHER DEALINGS IN THE
  - SOFTWARE.
  -
  -
  -->

<!DOCTYPE svg PUBLIC "-//W3C//DTD SVG 1.1//EN"
        "http://www.w3.org/Graphics/SVG/1.1/DTD/svg11.dtd">
<svg big="true" xmlns="http://www.w3.org/2000/svg"
     version="1.1" width="16px" height="16px" fill="#CDDC39"
     viewBox="0 0 24 24">
    <path d="M4,2C2.89,2 2,2.89 2,4V14H4V4H14V2H4M8,6C6.89,6 6,6.89 6,8V18H8V8H18V6H8M12,10C10.89,10 10,10.89 10,12V20C10,21.11 10.89,22 12,22H20C21.11,22 22,21.11 22,20V12C22,10.89 21.11,10 20,10H12Z" />
</svg>
