<?xml version="1.0" encoding="UTF-8"?><!DOCTYPE svg PUBLIC "-//W3C//DTD SVG 1.1//EN"
        "http://www.w3.org/Graphics/SVG/1.1/DTD/svg11.dtd">
<svg xmlns="http://www.w3.org/2000/svg" xmlns:xlink="http://www.w3.org/1999/xlink" version="1.1" width="16px"
     height="16px"
     viewBox="0 0 24 24" fill="#4FC3F7">
    <g transform="scale(1.5)">
        <rect width="1" height="12" x="1" y="2"/>
        <rect width="2" height="1" x="2" y="2"/>
        <rect width="2" height="1" x="2" y="13"/>
        <rect width="1" height="12" x="14" y="2"/>
        <rect width="3" height="1" x="12" y="2"/>
        <rect width="2" height="1" x="12" y="13"/>
    </g>
    <path transform="scale(0.75) translate(4 4)"
          d="M21,16.5C21,16.88 20.79,17.21 20.47,17.38L12.57,21.82C12.41,21.94 12.21,22 12,22C11.79,22 11.59,21.94 11.43,21.82L3.53,17.38C3.21,17.21 3,16.88 3,16.5V7.5C3,7.12 3.21,6.79 3.53,6.62L11.43,2.18C11.59,2.06 11.79,2 12,2C12.21,2 12.41,2.06 12.57,2.18L20.47,6.62C20.79,6.79 21,7.12 21,7.5V16.5M12,4.15L6.04,7.5L12,10.85L17.96,7.5L12,4.15Z"/>
</svg>
