<?xml version="1.0" encoding="UTF-8"?>
<svg clip-rule="evenodd" fill-rule="evenodd" stroke-linejoin="round"
     stroke-miterlimit="1.4142" version="1.1" viewBox="0 0 24 24" width="16px" height="16px"
     xml:space="preserve" xmlns="http://www.w3.org/2000/svg" fill="#C792EA">
    <g transform="scale(1.5)">
        <rect width="1" height="12" x="1" y="2"/>
        <rect width="2" height="1" x="2" y="2"/>
        <rect width="2" height="1" x="2" y="13"/>
        <rect width="1" height="12" x="14" y="2"/>
        <rect width="3" height="1" x="12" y="2"/>
        <rect width="2" height="1" x="12" y="13"/>
    </g>
    <g transform="scale(0.75) translate(4 4)">
    <path d="m10 4h-6c-1.11 0-2 0.89-2 2v12c0 1.097 0.903 2 2 2h16c1.097 0 2-0.903 2-2v-10c0-1.11-0.9-2-2-2h-8l-2-2z"
          fill-rule="nonzero"/>
        <rect width="8px" height="8px" fill="#80cbc4" stroke="#000000" stroke-width="1px"
              stroke-linecap="round" stroke-linejoin="bevel" x="14px" y="14px"></rect>
    </g>
</svg>
