<?xml version="1.0" encoding="UTF-8"?><!DOCTYPE svg PUBLIC "-//W3C//DTD SVG 1.1//EN"
        "http://www.w3.org/Graphics/SVG/1.1/DTD/svg11.dtd">
<svg xmlns="http://www.w3.org/2000/svg" version="1.1" width="16px"
     height="16px"
     viewBox="0 0 24 24" fill="#FFCB6B">
    <path
            d="M5.68,19.74C7.16,20.95 9,21.75 11,21.95V19.93C9.54,19.75 8.21,19.17 7.1,18.31M13,19.93V21.95C15,21.75 16.84,20.95 18.32,19.74L16.89,18.31C15.79,19.17 14.46,19.75 13,19.93M18.31,16.9L19.74,18.33C20.95,16.85 21.75,15 21.95,13H19.93C19.75,14.46 19.17,15.79 18.31,16.9M15,12A3,3 0 0,0 12,9A3,3 0 0,0 9,12A3,3 0 0,0 12,15A3,3 0 0,0 15,12M4.07,13H2.05C2.25,15 3.05,16.84 4.26,18.32L5.69,16.89C4.83,15.79 4.25,14.46 4.07,13M5.69,7.1L4.26,5.68C3.05,7.16 2.25,9 2.05,11H4.07C4.25,9.54 4.83,8.21 5.69,7.1M19.93,11H21.95C21.75,9 20.95,7.16 19.74,5.68L18.31,7.1C19.17,8.21 19.75,9.54 19.93,11M18.32,4.26C16.84,3.05 15,2.25 13,2.05V4.07C14.46,4.25 15.79,4.83 16.9,5.69M11,4.07V2.05C9,2.25 7.16,3.05 5.68,4.26L7.1,5.69C8.21,4.83 9.54,4.25 11,4.07Z"/>
    <path fill="#4DB6AC" transform="scale(.5) translate(24 24)"
          d="M20.5,11H19V7C19,5.89 18.1,5 17,5H13V3.5A2.5,2.5 0 0,0 10.5,1A2.5,2.5 0 0,0 8,3.5V5H4A2,2 0 0,0 2,7V10.8H3.5C5,10.8 6.2,12 6.2,13.5C6.2,15 5,16.2 3.5,16.2H2V20A2,2 0 0,0 4,22H7.8V20.5C7.8,19 9,17.8 10.5,17.8C12,17.8 13.2,19 13.2,20.5V22H17A2,2 0 0,0 19,20V16H20.5A2.5,2.5 0 0,0 23,13.5A2.5,2.5 0 0,0 20.5,11Z"/>

</svg>
