<?xml version="1.0" encoding="UTF-8"?><!DOCTYPE svg PUBLIC "-//W3C//DTD SVG 1.1//EN"
        "http://www.w3.org/Graphics/SVG/1.1/DTD/svg11.dtd">
<svg id="svg" version="1.1"
     width="16px" height="16px" viewBox="0 0 400 400"
     xmlns="http://www.w3.org/2000/svg"
     xmlns:xlink="http://www.w3.org/1999/xlink">
    <g id="svgg" stroke="none" fill="#F5A623" fill-rule="evenodd">
        <path id="path0"
              d="M95.614 11.974 C 95.333 12.498,95.200 34.087,95.200 78.973 L 95.200 145.198 85.200 155.192 C 79.700 160.689,75.200 165.370,75.200 165.593 C 75.200 165.817,75.021 166.000,74.801 166.000 C 74.051 166.000,42.399 197.969,42.432 198.694 C 42.455 199.213,42.523 199.250,42.687 198.833 C 43.070 197.865,50.708 190.443,51.027 190.729 C 51.193 190.878,51.219 190.807,51.085 190.571 C 50.794 190.059,52.202 188.749,52.630 189.133 C 52.794 189.280,52.819 189.207,52.685 188.971 C 52.404 188.478,54.001 186.951,54.600 187.140 C 54.820 187.210,54.880 187.146,54.733 187.000 C 54.338 186.604,55.671 185.200,56.171 185.485 C 56.407 185.619,56.480 185.594,56.333 185.430 C 55.949 185.002,57.259 183.594,57.771 183.885 C 58.007 184.019,58.078 183.993,57.930 183.827 C 57.579 183.436,67.686 173.257,68.162 173.522 C 68.361 173.633,68.415 173.548,68.282 173.333 C 67.986 172.854,69.415 171.561,69.830 171.933 C 69.994 172.080,70.019 172.007,69.885 171.771 C 69.604 171.278,71.201 169.751,71.800 169.940 C 72.020 170.010,72.080 169.946,71.933 169.800 C 71.538 169.404,72.871 168.000,73.371 168.285 C 73.607 168.419,73.678 168.393,73.530 168.227 C 73.179 167.836,83.286 157.657,83.762 157.922 C 83.961 158.033,84.015 157.948,83.882 157.733 C 83.593 157.265,85.017 155.950,85.400 156.333 C 85.546 156.480,85.607 156.405,85.533 156.167 C 85.360 155.602,88.402 152.560,88.967 152.733 C 89.205 152.807,89.280 152.746,89.133 152.600 C 88.738 152.204,90.071 150.800,90.571 151.085 C 90.807 151.219,90.874 151.189,90.720 151.018 C 90.566 150.847,91.601 149.563,93.020 148.165 L 95.600 145.623 95.600 79.061 C 95.600 26.294,95.704 12.414,96.100 12.092 C 96.375 11.869,96.960 11.598,97.400 11.489 C 98.016 11.338,97.951 11.282,97.114 11.246 C 96.417 11.217,95.880 11.477,95.614 11.974 M162.299 11.482 C 162.807 11.580,163.291 12.035,163.410 12.528 C 163.921 14.634,163.410 50.602,162.870 50.490 C 162.579 50.430,162.455 50.565,162.594 50.790 C 162.765 51.067,158.424 51.200,149.224 51.200 L 135.600 51.200 135.600 106.024 L 135.600 160.848 116.335 180.119 C 103.712 192.745,97.035 199.703,96.970 200.297 C 96.915 200.796,97.002 201.122,97.164 201.022 C 97.566 200.774,98.800 202.267,98.467 202.600 C 98.320 202.746,98.395 202.807,98.633 202.733 C 99.155 202.573,102.246 205.580,102.090 206.096 C 102.030 206.296,102.120 206.375,102.290 206.271 C 102.722 206.009,114.395 217.864,114.067 218.231 C 113.920 218.394,113.993 218.419,114.229 218.285 C 114.741 217.994,116.051 219.402,115.667 219.830 C 115.520 219.994,115.593 220.019,115.829 219.885 C 116.288 219.623,117.854 221.181,117.683 221.730 C 117.626 221.911,117.720 221.975,117.890 221.871 C 118.322 221.609,129.995 233.464,129.667 233.831 C 129.520 233.994,129.593 234.019,129.829 233.885 C 130.341 233.594,131.651 235.002,131.267 235.430 C 131.120 235.594,131.193 235.619,131.429 235.485 C 131.818 235.263,132.892 236.166,133.110 236.900 C 133.160 237.065,133.245 237.162,133.300 237.116 C 133.355 237.069,133.895 237.462,134.500 237.988 L 135.600 238.944 135.600 293.872 L 135.600 348.800 148.826 348.800 C 157.179 348.800,162.338 348.953,162.826 349.214 C 164.036 349.862,164.036 387.738,162.826 388.386 C 161.238 389.236,97.041 388.930,96.262 388.069 C 95.652 387.394,95.600 382.160,95.600 320.912 L 95.600 254.487 69.263 228.143 C 54.777 213.654,42.822 201.530,42.694 201.200 C 42.516 200.736,42.456 200.766,42.432 201.333 C 42.412 201.792,52.266 211.937,68.800 228.479 L 95.200 254.891 95.200 321.246 C 95.200 387.252,95.204 387.604,96.007 388.407 C 97.097 389.497,162.920 389.490,163.609 388.400 C 164.115 387.598,164.116 350.003,163.609 349.200 C 163.286 348.690,161.196 348.583,149.615 348.485 L 136.000 348.370 136.000 293.592 L 136.000 238.815 124.604 227.408 C 118.336 221.133,113.026 216.000,112.804 216.000 C 112.582 216.000,112.400 215.815,112.400 215.590 C 112.400 215.364,109.070 211.856,105.000 207.795 C 100.930 203.733,97.600 200.246,97.600 200.046 C 97.600 199.847,106.240 191.039,116.800 180.475 L 136.000 161.266 136.000 106.433 L 136.000 51.600 149.586 51.600 C 162.609 51.600,163.189 51.568,163.586 50.826 C 164.214 49.652,164.152 12.312,163.520 11.680 C 163.256 11.416,162.671 11.225,162.220 11.254 C 161.478 11.304,161.486 11.325,162.299 11.482 M189.680 78.880 C 189.313 79.247,189.200 89.164,189.200 121.080 C 189.200 157.026,189.121 162.800,188.627 162.800 C 188.312 162.800,187.940 163.160,187.800 163.600 C 187.660 164.040,187.300 164.400,187.000 164.400 C 186.700 164.400,186.340 164.760,186.200 165.200 C 186.060 165.640,185.792 166.000,185.605 166.000 C 185.160 166.000,181.600 169.560,181.600 170.005 C 181.600 170.192,181.240 170.460,180.800 170.600 C 180.360 170.740,180.000 171.003,180.000 171.185 C 180.000 171.618,171.618 180.000,171.185 180.000 C 171.003 180.000,170.740 180.360,170.600 180.800 C 170.460 181.240,170.192 181.600,170.005 181.600 C 169.560 181.600,166.000 185.160,166.000 185.605 C 166.000 185.792,165.640 186.060,165.200 186.200 C 164.760 186.340,164.400 186.700,164.400 187.000 C 164.400 187.300,164.040 187.660,163.600 187.800 C 163.160 187.940,162.800 188.204,162.800 188.387 C 162.800 188.822,156.022 195.600,155.587 195.600 C 155.404 195.600,155.140 195.960,155.000 196.400 C 154.860 196.840,154.507 197.200,154.216 197.200 C 153.504 197.200,153.200 198.107,153.200 200.227 C 153.200 201.957,156.278 206.000,157.595 206.000 C 157.818 206.000,158.000 206.194,158.000 206.431 C 158.000 206.991,160.209 209.200,160.769 209.200 C 161.006 209.200,161.200 209.348,161.200 209.528 C 161.200 210.059,163.430 212.400,163.936 212.400 C 164.191 212.400,164.400 212.658,164.400 212.973 C 164.400 213.288,164.760 213.660,165.200 213.800 C 165.640 213.940,166.000 214.228,166.000 214.440 C 166.000 214.918,172.717 221.600,173.198 221.600 C 173.389 221.600,173.660 221.960,173.800 222.400 C 173.940 222.840,174.312 223.200,174.627 223.200 C 174.942 223.200,175.200 223.435,175.200 223.723 C 175.200 224.011,175.916 224.776,176.791 225.423 C 177.665 226.070,178.385 226.749,178.391 226.931 C 178.405 227.423,180.671 229.600,181.169 229.600 C 181.406 229.600,181.600 229.770,181.600 229.977 C 181.600 230.185,183.310 232.062,185.400 234.149 L 189.200 237.943 189.206 279.271 C 189.209 302.002,189.353 320.822,189.526 321.094 C 190.144 322.067,192.248 322.152,193.158 321.242 C 193.621 320.779,194.425 320.400,194.944 320.400 C 195.551 320.400,196.370 319.831,197.244 318.802 C 198.108 317.784,198.939 317.203,199.535 317.202 C 200.337 317.200,204.800 313.269,204.800 312.563 C 204.800 312.227,202.826 313.777,202.813 314.124 C 202.806 314.302,202.592 314.319,202.338 314.162 C 202.082 314.004,201.984 314.050,202.118 314.267 C 202.407 314.735,200.983 316.050,200.600 315.667 C 200.454 315.520,200.393 315.670,200.467 316.000 C 200.558 316.409,200.219 316.643,199.400 316.735 C 198.740 316.809,198.054 317.128,197.875 317.443 C 197.697 317.759,197.337 317.894,197.075 317.744 C 196.814 317.594,196.724 317.610,196.876 317.778 C 197.340 318.295,195.300 320.000,194.218 320.000 C 193.658 320.000,193.200 320.184,193.200 320.409 C 193.200 321.179,191.375 321.722,190.451 321.227 L 189.600 320.772 189.600 278.986 C 189.600 249.843,189.472 237.200,189.176 237.200 C 188.943 237.200,188.867 237.016,189.006 236.790 C 189.145 236.565,189.096 236.430,188.896 236.490 C 188.380 236.646,185.373 233.555,185.533 233.033 C 185.607 232.795,185.546 232.720,185.400 232.867 C 185.017 233.250,183.593 231.935,183.882 231.467 C 184.015 231.252,183.961 231.169,183.762 231.281 C 183.304 231.541,171.576 219.757,171.935 219.399 C 172.081 219.253,172.005 219.193,171.767 219.267 C 171.245 219.427,168.154 216.420,168.310 215.904 C 168.370 215.704,168.280 215.619,168.110 215.714 C 167.667 215.961,156.001 204.138,156.329 203.774 C 156.478 203.608,156.407 203.581,156.171 203.715 C 155.671 204.000,154.338 202.596,154.733 202.200 C 154.880 202.054,154.730 201.993,154.400 202.067 C 152.803 202.422,153.456 198.308,155.237 196.800 C 156.146 196.030,157.275 194.978,157.745 194.461 C 160.349 191.604,173.211 178.799,173.481 178.796 C 173.656 178.794,174.250 178.222,174.800 177.525 C 175.350 176.828,178.905 173.145,182.700 169.341 L 189.600 162.424 189.600 120.799 L 189.600 79.174 190.500 78.812 C 191.052 78.591,191.160 78.441,190.780 78.425 C 190.439 78.411,189.944 78.616,189.680 78.880 M192.300 78.812 C 192.795 79.011,193.200 79.360,193.200 79.587 C 193.200 79.814,193.650 80.000,194.200 80.000 C 194.833 80.000,195.787 80.587,196.800 81.600 C 197.715 82.515,198.785 83.201,199.300 83.202 C 199.875 83.203,201.033 84.069,202.507 85.602 C 203.777 86.921,205.082 88.000,205.407 88.000 C 206.048 88.000,206.746 88.545,209.208 90.965 C 210.084 91.826,210.800 92.359,210.800 92.149 C 210.800 91.939,210.080 91.105,209.200 90.296 C 208.320 89.487,207.600 88.659,207.600 88.455 C 207.600 88.035,206.638 87.600,205.708 87.600 C 205.364 87.600,204.012 86.520,202.704 85.200 C 201.092 83.572,200.013 82.800,199.351 82.800 C 198.814 82.800,198.271 82.530,198.145 82.200 C 198.018 81.870,197.664 81.600,197.357 81.600 C 197.051 81.600,196.800 81.336,196.800 81.014 C 196.800 80.331,195.595 79.600,194.469 79.600 C 194.038 79.600,193.582 79.330,193.455 79.000 C 193.329 78.670,192.814 78.411,192.313 78.425 L 191.400 78.451 192.300 78.812 M211.970 92.688 C 212.284 92.812,213.145 93.518,213.883 94.257 C 214.651 95.024,215.632 95.600,216.173 95.600 C 217.063 95.600,218.509 96.799,220.697 99.353 C 221.201 99.940,222.015 100.400,222.551 100.400 C 223.159 100.400,224.033 100.983,224.952 102.000 C 225.747 102.880,226.762 103.600,227.208 103.600 C 227.657 103.600,229.009 104.592,230.246 105.829 C 231.472 107.055,232.576 107.958,232.699 107.835 C 233.127 107.407,228.618 103.219,227.718 103.209 C 226.865 103.200,224.800 101.513,224.800 100.825 C 224.800 100.404,223.794 100.000,222.748 100.000 C 221.983 100.000,220.000 98.226,220.000 97.542 C 220.000 97.354,219.742 97.200,219.427 97.200 C 219.112 97.200,218.742 96.846,218.604 96.414 C 218.447 95.918,217.852 95.533,216.993 95.372 C 216.209 95.225,215.072 94.542,214.315 93.763 C 213.592 93.018,212.640 92.421,212.200 92.436 C 211.659 92.454,211.585 92.536,211.970 92.688 M233.938 108.278 C 234.235 108.396,235.478 109.462,236.701 110.646 C 238.008 111.913,239.284 112.800,239.797 112.800 C 240.308 112.800,241.263 113.462,242.105 114.400 C 242.895 115.280,243.905 116.000,244.350 116.000 C 245.310 116.000,247.315 117.738,246.893 118.204 C 246.732 118.382,246.793 118.419,247.029 118.285 C 247.541 117.994,248.851 119.402,248.467 119.830 C 248.320 119.994,248.426 119.998,248.703 119.839 C 248.997 119.670,249.305 119.809,249.446 120.175 C 249.581 120.527,250.155 120.800,250.759 120.800 C 251.500 120.800,252.289 121.296,253.304 122.400 C 254.294 123.476,255.114 124.000,255.811 124.000 C 256.527 124.000,256.758 124.155,256.559 124.500 C 256.401 124.775,256.410 124.875,256.580 124.723 C 256.750 124.570,257.768 125.363,258.844 126.485 C 259.920 127.607,260.800 128.318,260.800 128.066 C 260.800 127.813,260.440 127.382,260.000 127.107 C 259.560 126.832,259.200 126.442,259.200 126.239 C 259.200 125.578,256.677 123.600,255.828 123.596 C 255.367 123.594,254.379 122.886,253.600 122.000 C 252.727 121.008,251.850 120.406,251.271 120.404 C 250.664 120.401,249.527 119.565,248.000 118.000 C 246.626 116.591,245.316 115.600,244.829 115.600 C 244.373 115.600,243.280 114.880,242.400 114.000 C 241.520 113.120,240.436 112.400,239.992 112.400 C 239.532 112.400,238.282 111.451,237.094 110.200 C 235.848 108.889,234.680 108.013,234.202 108.032 C 233.709 108.051,233.608 108.146,233.938 108.278 M262.505 128.677 C 262.893 128.778,263.107 129.027,262.981 129.230 C 262.856 129.434,262.927 129.600,263.140 129.600 C 263.352 129.600,264.360 130.410,265.379 131.400 C 266.494 132.484,267.600 133.200,268.159 133.200 C 268.749 133.200,269.582 133.783,270.444 134.798 C 271.190 135.677,272.160 136.398,272.600 136.400 C 273.390 136.404,274.920 137.657,276.730 139.782 C 277.241 140.383,277.773 140.761,277.911 140.622 C 278.050 140.483,277.407 139.657,276.482 138.786 C 275.557 137.914,274.800 137.040,274.800 136.844 C 274.800 136.381,273.793 136.000,272.567 136.000 C 272.035 136.000,271.600 135.822,271.600 135.603 C 271.600 134.841,269.073 132.800,268.128 132.800 C 267.604 132.800,267.071 132.530,266.945 132.200 C 266.818 131.870,266.476 131.600,266.184 131.600 C 265.893 131.600,265.540 131.240,265.400 130.800 C 265.260 130.360,264.932 130.000,264.669 130.000 C 264.407 130.000,263.968 129.640,263.693 129.200 C 263.418 128.760,262.880 128.421,262.497 128.446 C 261.843 128.490,261.844 128.504,262.505 128.677 M279.170 141.088 C 279.483 141.212,280.357 141.930,281.110 142.683 C 281.864 143.437,282.580 143.954,282.701 143.832 C 283.104 143.429,280.216 140.808,279.400 140.836 C 278.859 140.854,278.785 140.936,279.170 141.088 M283.738 144.283 C 284.636 144.514,285.645 145.321,287.513 147.300 C 288.297 148.131,289.313 148.800,289.790 148.800 C 290.332 148.800,291.456 149.683,292.826 151.186 C 294.268 152.769,295.314 153.577,295.931 153.586 C 296.479 153.594,297.483 154.245,298.369 155.167 C 299.295 156.132,300.322 156.786,301.037 156.867 C 301.824 156.957,302.157 157.194,302.067 157.600 C 301.993 157.930,302.058 158.075,302.211 157.922 C 302.364 157.769,303.294 158.460,304.277 159.457 C 305.260 160.454,306.156 161.177,306.269 161.064 C 306.679 160.654,302.084 156.400,301.231 156.400 C 300.744 156.400,299.740 155.710,298.904 154.800 C 298.046 153.867,297.067 153.200,296.556 153.200 C 296.019 153.200,294.742 152.269,293.264 150.800 C 291.844 149.388,290.502 148.400,290.006 148.400 C 289.196 148.400,287.200 146.651,287.200 145.942 C 287.200 145.754,286.973 145.600,286.696 145.600 C 286.419 145.600,285.968 145.240,285.693 144.800 C 285.374 144.290,284.796 144.017,284.097 144.046 C 283.351 144.078,283.236 144.154,283.738 144.283 M307.600 161.483 C 307.930 161.604,308.785 162.310,309.499 163.052 C 310.214 163.793,311.069 164.400,311.399 164.400 C 311.730 164.400,312.334 164.715,312.742 165.100 C 313.151 165.485,314.040 166.239,314.719 166.776 C 315.398 167.313,315.846 167.926,315.715 168.138 C 315.583 168.351,315.685 168.395,315.941 168.236 C 316.201 168.076,316.511 168.225,316.646 168.575 C 316.778 168.919,317.311 169.200,317.831 169.200 C 318.453 169.200,319.592 170.019,321.168 171.600 C 322.632 173.068,323.899 174.000,324.433 174.000 C 324.915 174.000,325.908 174.639,326.653 175.428 C 327.394 176.214,328.000 176.728,328.000 176.571 C 328.000 175.767,325.307 173.608,324.300 173.604 C 323.614 173.602,323.200 173.384,323.200 173.027 C 323.200 172.712,322.840 172.340,322.400 172.200 C 321.960 172.060,321.600 171.749,321.600 171.509 C 321.600 170.811,319.132 168.800,318.275 168.800 C 317.846 168.800,316.900 168.170,316.174 167.400 C 315.448 166.630,314.674 166.000,314.454 166.000 C 314.234 166.000,313.944 165.653,313.809 165.228 C 313.667 164.780,313.036 164.340,312.310 164.180 C 311.621 164.029,310.483 163.296,309.781 162.552 C 309.080 161.809,308.167 161.214,307.753 161.232 C 307.189 161.255,307.151 161.318,307.600 161.483 M329.200 177.094 C 329.530 177.221,330.091 177.657,330.447 178.063 C 330.803 178.468,331.231 178.800,331.400 178.800 C 331.568 178.800,332.300 179.430,333.026 180.200 C 333.752 180.970,334.716 181.600,335.168 181.600 C 335.620 181.600,336.667 182.320,337.495 183.199 C 338.323 184.079,339.300 184.799,339.667 184.799 C 340.315 184.800,342.906 186.874,344.539 188.700 C 344.982 189.195,345.668 189.600,346.063 189.600 C 346.458 189.600,347.805 190.591,349.055 191.802 C 350.306 193.013,351.417 193.916,351.525 193.808 C 351.930 193.404,347.384 189.218,346.532 189.209 C 345.712 189.201,342.000 185.925,342.000 185.211 C 342.000 184.777,340.961 184.400,339.767 184.400 C 339.235 184.400,338.800 184.228,338.800 184.018 C 338.800 183.279,336.716 181.563,335.530 181.326 C 334.871 181.194,334.237 180.842,334.123 180.543 C 334.008 180.244,333.748 180.000,333.545 180.000 C 333.341 180.000,332.513 179.280,331.704 178.400 C 330.861 177.483,329.884 176.813,329.416 176.832 C 328.830 176.854,328.769 176.928,329.200 177.094 M352.573 194.290 C 352.998 194.398,353.988 195.096,354.773 195.840 C 355.558 196.584,356.595 197.195,357.077 197.197 C 357.560 197.198,358.235 197.600,358.577 198.089 C 359.077 198.802,359.200 198.845,359.200 198.303 C 359.200 197.576,358.061 196.800,356.992 196.800 C 356.629 196.800,355.774 196.170,355.092 195.400 C 354.240 194.438,353.532 194.015,352.826 194.046 C 352.030 194.082,351.973 194.137,352.573 194.290 M358.495 201.996 C 358.219 202.438,357.574 202.800,357.061 202.800 C 356.487 202.800,355.560 203.414,354.648 204.400 C 353.752 205.368,352.807 206.000,352.253 206.000 C 351.697 206.000,350.882 206.549,350.172 207.400 C 349.530 208.170,348.845 208.800,348.649 208.800 C 348.454 208.800,348.000 209.139,347.641 209.553 C 347.282 209.966,346.631 210.396,346.194 210.506 C 345.548 210.670,345.589 210.716,346.416 210.754 C 347.125 210.786,347.878 210.316,348.904 209.200 C 349.713 208.320,350.541 207.600,350.745 207.600 C 350.948 207.600,351.208 207.356,351.323 207.057 C 351.437 206.758,352.071 206.406,352.730 206.274 C 353.916 206.037,356.000 204.321,356.000 203.582 C 356.000 203.372,356.518 203.200,357.151 203.200 C 358.330 203.200,359.385 202.355,359.137 201.610 C 359.060 201.380,358.771 201.554,358.495 201.996 M344.346 211.512 C 342.773 213.281,340.366 215.200,339.717 215.202 C 339.323 215.203,338.390 215.923,337.644 216.802 C 336.669 217.950,335.977 218.400,335.186 218.400 C 334.557 218.400,333.983 218.668,333.846 219.025 C 333.711 219.375,333.401 219.524,333.141 219.364 C 332.885 219.206,332.773 219.239,332.892 219.438 C 333.167 219.900,330.555 222.411,330.164 222.061 C 330.003 221.918,329.990 222.006,330.134 222.258 C 330.402 222.727,329.602 223.200,328.540 223.200 C 328.214 223.200,327.373 223.808,326.671 224.552 C 325.970 225.295,325.037 225.994,324.598 226.105 C 323.866 226.291,323.873 226.311,324.687 226.354 C 325.205 226.381,326.136 225.837,326.929 225.044 C 327.674 224.299,328.842 223.566,329.524 223.417 C 330.238 223.260,330.868 222.817,331.009 222.372 C 331.144 221.947,331.427 221.600,331.639 221.600 C 331.851 221.600,332.603 220.970,333.310 220.200 C 334.016 219.430,334.968 218.800,335.425 218.800 C 336.338 218.800,338.800 216.804,338.800 216.064 C 338.800 215.809,339.235 215.600,339.767 215.600 C 340.993 215.600,342.000 215.219,342.000 214.756 C 342.000 214.560,342.757 213.686,343.682 212.814 C 344.607 211.943,345.272 211.139,345.160 211.027 C 345.049 210.915,344.682 211.134,344.346 211.512 M321.400 228.181 C 320.520 229.132,319.661 229.827,319.490 229.725 C 319.320 229.624,319.230 229.779,319.290 230.070 C 319.357 230.392,318.945 230.652,318.243 230.732 C 317.487 230.818,316.416 231.552,315.156 232.845 C 314.095 233.935,313.086 234.838,312.913 234.853 C 312.741 234.868,312.645 235.042,312.700 235.240 C 312.755 235.438,312.305 235.604,311.700 235.609 C 310.921 235.615,310.198 236.083,309.224 237.209 C 308.416 238.143,307.493 238.800,306.988 238.800 C 306.513 238.800,305.495 239.471,304.713 240.300 C 302.845 242.279,301.836 243.086,300.938 243.317 C 300.436 243.446,300.551 243.522,301.297 243.554 C 301.996 243.583,302.574 243.310,302.893 242.800 C 303.168 242.360,303.619 242.000,303.896 242.000 C 304.173 242.000,304.400 241.846,304.400 241.658 C 304.400 240.953,306.394 239.200,307.197 239.200 C 307.656 239.200,308.758 238.480,309.647 237.600 C 310.536 236.720,311.627 236.000,312.071 236.000 C 312.526 236.000,313.919 234.953,315.264 233.600 C 316.614 232.242,318.001 231.200,318.459 231.200 C 319.132 231.200,323.600 227.186,323.600 226.582 C 323.600 226.072,322.841 226.623,321.400 228.181 M298.310 244.917 C 297.557 245.670,296.684 246.388,296.370 246.512 C 295.985 246.664,296.059 246.746,296.600 246.764 C 297.416 246.792,300.304 244.171,299.901 243.768 C 299.780 243.646,299.064 244.163,298.310 244.917 M292.703 248.984 C 291.493 250.203,290.178 251.200,289.780 251.200 C 289.382 251.200,288.290 251.965,287.355 252.900 C 284.894 255.358,284.076 256.000,283.400 256.000 C 283.070 256.000,282.080 256.720,281.200 257.600 C 280.320 258.480,279.778 259.200,279.997 259.200 C 280.215 259.200,280.618 258.840,280.893 258.400 C 281.168 257.960,281.600 257.600,281.853 257.600 C 282.107 257.600,282.408 257.356,282.523 257.057 C 282.637 256.758,283.263 256.407,283.914 256.277 C 285.045 256.051,288.800 252.740,288.800 251.968 C 288.800 251.766,289.235 251.600,289.767 251.600 C 290.993 251.600,292.000 251.219,292.000 250.756 C 292.000 250.560,292.757 249.686,293.682 248.814 C 294.607 247.943,295.260 247.126,295.132 246.999 C 295.005 246.872,293.912 247.765,292.703 248.984 M275.800 261.436 C 274.524 262.792,273.462 263.569,272.866 263.581 C 272.258 263.593,271.141 264.437,269.662 266.000 C 268.250 267.493,267.066 268.400,266.528 268.400 C 266.052 268.400,264.936 269.120,264.047 270.000 C 263.158 270.880,262.072 271.600,261.633 271.600 C 261.193 271.600,259.881 272.571,258.717 273.757 C 257.553 274.943,256.240 276.003,255.800 276.111 C 255.098 276.283,255.115 276.313,255.935 276.354 C 256.572 276.385,257.532 275.721,258.955 274.263 C 260.103 273.088,261.547 272.000,262.165 271.844 C 262.783 271.689,263.875 270.941,264.592 270.181 C 265.308 269.422,266.256 268.800,266.699 268.800 C 267.551 268.800,271.600 265.203,271.600 264.446 C 271.600 264.201,272.035 264.000,272.567 264.000 C 273.948 264.000,274.800 263.602,274.800 262.957 C 274.800 262.651,275.070 262.400,275.400 262.400 C 275.730 262.400,276.000 262.227,276.000 262.016 C 276.000 261.805,276.486 261.181,277.081 260.630 C 277.675 260.079,278.080 259.557,277.981 259.469 C 277.881 259.382,276.900 260.267,275.800 261.436 M253.093 277.734 C 252.330 278.497,251.367 279.208,250.953 279.314 C 250.380 279.461,250.439 279.517,251.200 279.549 C 252.192 279.591,255.180 277.047,254.701 276.568 C 254.580 276.446,253.856 276.971,253.093 277.734 M247.535 281.757 C 246.112 283.268,245.111 284.000,244.466 284.000 C 243.850 284.000,243.009 284.570,242.106 285.600 C 241.185 286.651,240.367 287.200,239.722 287.200 C 239.153 287.200,238.373 287.639,237.870 288.240 C 237.391 288.813,236.658 289.578,236.240 289.940 C 235.822 290.303,235.147 290.915,234.740 291.300 C 234.333 291.685,233.644 292.000,233.209 292.000 C 232.773 292.000,231.452 292.966,230.272 294.146 C 229.092 295.326,227.873 296.392,227.563 296.514 C 227.192 296.661,227.272 296.744,227.800 296.759 C 228.258 296.772,229.503 295.863,230.713 294.633 C 232.144 293.178,233.267 292.401,234.191 292.228 C 235.052 292.067,235.647 291.682,235.804 291.186 C 235.942 290.754,236.312 290.400,236.627 290.400 C 236.942 290.400,237.200 290.246,237.200 290.058 C 237.200 289.374,239.183 287.600,239.948 287.600 C 240.994 287.600,242.000 287.196,242.000 286.775 C 242.000 286.087,244.065 284.400,244.918 284.391 C 245.836 284.381,250.323 280.189,249.884 279.751 C 249.753 279.620,248.696 280.523,247.535 281.757 M224.970 298.202 C 224.247 299.069,223.449 299.600,222.868 299.600 C 222.243 299.600,221.179 300.397,219.662 302.000 C 218.202 303.544,217.073 304.400,216.496 304.400 C 215.984 304.400,214.915 305.085,214.000 306.000 C 213.120 306.880,212.032 307.600,211.583 307.600 C 211.121 307.600,209.849 308.538,208.660 309.756 C 207.503 310.941,206.206 312.000,205.778 312.109 C 205.115 312.278,205.137 312.314,205.931 312.354 C 206.869 312.400,209.200 310.459,209.200 309.631 C 209.200 309.394,209.476 309.200,209.813 309.200 C 210.149 309.200,210.522 308.948,210.640 308.639 C 210.759 308.331,211.463 307.965,212.205 307.825 C 213.053 307.666,213.648 307.280,213.804 306.786 C 213.942 306.354,214.293 306.000,214.584 306.000 C 214.876 306.000,215.218 305.730,215.345 305.400 C 215.471 305.070,216.006 304.800,216.533 304.800 C 217.476 304.800,221.600 301.200,221.600 300.378 C 221.600 300.170,222.035 300.000,222.567 300.000 C 223.825 300.000,224.800 299.616,224.800 299.121 C 224.800 298.905,225.205 298.400,225.700 297.999 C 226.195 297.597,226.496 297.164,226.368 297.036 C 226.241 296.908,225.612 297.432,224.970 298.202 ">

        </path>
        <path id="path1"
              d="M97.400 11.485 C 96.960 11.596,96.375 11.869,96.100 12.092 C 95.704 12.414,95.600 26.294,95.600 79.061 L 95.600 145.623 93.020 148.165 C 91.601 149.563,90.566 150.847,90.720 151.018 C 90.874 151.189,90.807 151.219,90.571 151.085 C 90.071 150.800,88.738 152.204,89.133 152.600 C 89.280 152.746,89.205 152.807,88.967 152.733 C 88.402 152.560,85.360 155.602,85.533 156.167 C 85.607 156.405,85.546 156.480,85.400 156.333 C 85.017 155.950,83.593 157.265,83.882 157.733 C 84.015 157.948,83.961 158.033,83.762 157.922 C 83.286 157.657,73.179 167.836,73.530 168.227 C 73.678 168.393,73.607 168.419,73.371 168.285 C 72.871 168.000,71.538 169.404,71.933 169.800 C 72.080 169.946,72.020 170.010,71.800 169.940 C 71.201 169.751,69.604 171.278,69.885 171.771 C 70.019 172.007,69.994 172.080,69.830 171.933 C 69.415 171.561,67.986 172.854,68.282 173.333 C 68.415 173.548,68.361 173.633,68.162 173.522 C 67.686 173.257,57.579 183.436,57.930 183.827 C 58.078 183.993,58.007 184.019,57.771 183.885 C 57.259 183.594,55.949 185.002,56.333 185.430 C 56.480 185.594,56.407 185.619,56.171 185.485 C 55.671 185.200,54.338 186.604,54.733 187.000 C 54.880 187.146,54.820 187.210,54.600 187.140 C 54.001 186.951,52.404 188.478,52.685 188.971 C 52.819 189.207,52.794 189.280,52.630 189.133 C 52.202 188.749,50.794 190.059,51.085 190.571 C 51.219 190.807,51.193 190.878,51.027 190.729 C 50.861 190.580,48.901 192.281,46.672 194.509 C 40.485 200.691,37.811 196.700,69.109 227.997 L 95.600 254.487 95.600 320.981 C 95.600 384.892,95.628 387.502,96.331 388.138 C 97.214 388.937,161.350 389.176,162.826 388.386 C 164.036 387.738,164.036 349.862,162.826 349.214 C 162.338 348.953,157.179 348.800,148.826 348.800 L 135.600 348.800 135.598 293.900 L 135.597 239.000 133.710 237.200 C 132.672 236.210,131.638 235.460,131.412 235.533 C 131.185 235.607,131.120 235.546,131.267 235.400 C 131.662 235.004,130.329 233.600,129.829 233.885 C 129.593 234.019,129.520 233.994,129.667 233.831 C 129.995 233.464,118.322 221.609,117.890 221.871 C 117.720 221.975,117.626 221.911,117.683 221.730 C 117.854 221.181,116.288 219.623,115.829 219.885 C 115.593 220.019,115.520 219.994,115.667 219.830 C 116.051 219.402,114.741 217.994,114.229 218.285 C 113.993 218.419,113.920 218.394,114.067 218.231 C 114.395 217.864,102.722 206.009,102.290 206.271 C 102.120 206.375,102.030 206.296,102.090 206.096 C 102.246 205.580,99.155 202.573,98.633 202.733 C 98.395 202.807,98.320 202.746,98.467 202.600 C 98.800 202.267,97.566 200.774,97.164 201.022 C 97.002 201.122,96.915 200.796,96.970 200.297 C 97.035 199.703,103.712 192.745,116.335 180.119 L 135.600 160.848 135.600 106.024 L 135.600 51.200 149.120 51.200 C 159.102 51.200,162.766 51.074,163.120 50.720 C 163.721 50.119,163.806 12.945,163.209 12.000 C 162.834 11.408,99.672 10.913,97.400 11.485 M190.485 78.847 L 189.600 79.174 189.600 120.799 L 189.600 162.424 182.700 169.341 C 178.905 173.145,175.350 176.828,174.800 177.525 C 174.250 178.222,173.656 178.794,173.481 178.796 C 173.211 178.799,160.349 191.604,157.745 194.461 C 157.275 194.978,156.151 196.030,155.249 196.800 C 153.113 198.622,152.876 201.220,154.700 202.822 C 155.305 203.353,155.980 203.731,156.200 203.661 C 156.420 203.591,156.478 203.655,156.329 203.805 C 155.993 204.140,167.680 215.954,168.110 215.714 C 168.280 215.619,168.370 215.704,168.310 215.904 C 168.154 216.420,171.245 219.427,171.767 219.267 C 172.005 219.193,172.081 219.253,171.935 219.399 C 171.576 219.757,183.304 231.541,183.762 231.281 C 183.961 231.169,184.015 231.252,183.882 231.467 C 183.593 231.935,185.017 233.250,185.400 232.867 C 185.546 232.720,185.607 232.795,185.533 233.033 C 185.373 233.555,188.380 236.646,188.896 236.490 C 189.096 236.430,189.145 236.565,189.006 236.790 C 188.867 237.016,188.943 237.200,189.176 237.200 C 189.472 237.200,189.600 249.850,189.600 279.009 L 189.600 320.817 190.549 321.250 C 191.550 321.706,193.200 321.168,193.200 320.386 C 193.200 320.174,193.664 320.000,194.231 320.000 C 194.904 320.000,195.814 319.443,196.847 318.400 C 197.774 317.464,198.810 316.800,199.343 316.800 C 200.294 316.800,202.282 314.897,202.061 314.200 C 201.991 313.980,202.058 313.924,202.210 314.076 C 202.362 314.228,202.962 313.908,203.543 313.364 C 204.124 312.820,205.050 312.260,205.600 312.120 C 206.150 311.979,207.537 310.905,208.683 309.732 C 209.856 308.531,211.122 307.600,211.583 307.600 C 212.032 307.600,213.120 306.880,214.000 306.000 C 214.915 305.085,215.984 304.400,216.496 304.400 C 217.073 304.400,218.202 303.544,219.662 302.000 C 221.179 300.397,222.243 299.600,222.868 299.600 C 223.445 299.600,224.242 299.075,224.944 298.233 C 225.571 297.481,226.525 296.755,227.064 296.620 C 227.603 296.484,229.028 295.390,230.230 294.187 C 231.433 292.984,232.758 292.000,233.175 292.000 C 233.930 292.000,235.492 290.879,236.740 289.440 C 238.365 287.568,238.859 287.200,239.752 287.200 C 240.362 287.200,241.207 286.625,242.106 285.600 C 243.009 284.570,243.850 284.000,244.466 284.000 C 245.108 284.000,246.101 283.280,247.479 281.816 C 248.610 280.614,250.034 279.506,250.643 279.353 C 251.253 279.200,252.351 278.476,253.083 277.743 C 253.816 277.011,254.907 276.294,255.508 276.150 C 256.108 276.006,257.553 274.923,258.717 273.744 C 259.881 272.565,261.193 271.600,261.633 271.600 C 262.072 271.600,263.158 270.880,264.047 270.000 C 264.936 269.120,266.052 268.400,266.528 268.400 C 267.066 268.400,268.250 267.493,269.662 266.000 C 271.081 264.500,272.258 263.600,272.801 263.600 C 273.327 263.600,274.517 262.732,275.817 261.400 C 277.036 260.152,278.319 259.200,278.783 259.200 C 279.232 259.200,280.320 258.480,281.200 257.600 C 282.080 256.720,283.070 256.000,283.400 256.000 C 284.076 256.000,284.894 255.358,287.355 252.900 C 288.290 251.965,289.387 251.200,289.791 251.200 C 290.196 251.200,291.420 250.283,292.512 249.162 C 293.604 248.042,295.051 246.931,295.729 246.695 C 296.407 246.459,297.558 245.668,298.288 244.939 C 299.018 244.209,300.091 243.492,300.673 243.346 C 301.884 243.042,302.718 242.413,304.713 240.300 C 305.495 239.471,306.513 238.800,306.988 238.800 C 307.493 238.800,308.416 238.143,309.224 237.209 C 310.113 236.181,310.943 235.615,311.570 235.609 C 312.228 235.603,313.278 234.828,314.831 233.200 C 316.328 231.632,317.440 230.800,318.038 230.800 C 318.626 230.800,319.697 230.020,321.033 228.619 C 322.177 227.419,323.627 226.311,324.256 226.156 C 324.885 226.002,325.973 225.273,326.673 224.538 C 327.373 223.802,328.311 223.200,328.758 223.200 C 329.694 223.200,333.310 219.859,332.884 219.387 C 332.728 219.214,332.826 219.202,333.103 219.361 C 333.397 219.530,333.705 219.391,333.846 219.025 C 333.983 218.668,334.557 218.400,335.186 218.400 C 335.977 218.400,336.669 217.950,337.644 216.802 C 338.390 215.923,339.323 215.203,339.717 215.202 C 340.112 215.201,341.167 214.525,342.061 213.700 C 342.956 212.875,344.128 211.795,344.665 211.300 C 345.202 210.805,345.952 210.400,346.332 210.400 C 346.712 210.400,347.283 210.040,347.600 209.600 C 347.917 209.160,348.363 208.800,348.591 208.800 C 348.818 208.800,349.530 208.170,350.172 207.400 C 350.882 206.549,351.697 206.000,352.253 206.000 C 352.807 206.000,353.752 205.368,354.648 204.400 C 355.543 203.433,356.490 202.800,357.042 202.800 C 358.134 202.800,359.200 201.417,359.200 200.000 C 359.200 198.602,358.139 197.201,357.077 197.197 C 356.595 197.195,355.570 196.595,354.799 195.865 C 354.028 195.134,352.936 194.421,352.372 194.279 C 351.808 194.137,350.320 193.027,349.064 191.811 C 347.809 190.595,346.458 189.600,346.063 189.600 C 345.668 189.600,344.982 189.195,344.539 188.700 C 342.906 186.874,340.315 184.800,339.667 184.799 C 339.300 184.799,338.323 184.079,337.495 183.199 C 336.667 182.320,335.620 181.600,335.168 181.600 C 334.716 181.600,333.752 180.970,333.026 180.200 C 332.300 179.430,331.568 178.800,331.400 178.800 C 331.231 178.800,330.803 178.466,330.447 178.057 C 330.091 177.649,329.361 177.176,328.825 177.007 C 328.289 176.837,327.278 176.092,326.578 175.349 C 325.878 174.607,324.913 174.000,324.433 174.000 C 323.899 174.000,322.632 173.068,321.168 171.600 C 319.592 170.019,318.453 169.200,317.831 169.200 C 317.311 169.200,316.778 168.919,316.646 168.575 C 316.511 168.225,316.201 168.076,315.941 168.236 C 315.685 168.395,315.583 168.351,315.715 168.138 C 315.846 167.926,315.398 167.313,314.719 166.776 C 314.040 166.239,313.151 165.485,312.742 165.100 C 312.334 164.715,311.730 164.400,311.399 164.400 C 311.069 164.400,310.214 163.783,309.499 163.029 C 308.785 162.276,307.670 161.527,307.022 161.366 C 306.374 161.206,304.920 160.112,303.791 158.937 C 302.502 157.596,301.402 156.800,300.837 156.800 C 300.310 156.800,299.300 156.137,298.400 155.200 C 297.490 154.253,296.483 153.594,295.931 153.586 C 295.314 153.577,294.268 152.769,292.826 151.186 C 291.456 149.683,290.332 148.800,289.790 148.800 C 289.313 148.800,288.297 148.131,287.513 147.300 C 285.518 145.187,284.684 144.558,283.473 144.254 C 282.891 144.108,281.812 143.385,281.074 142.647 C 280.336 141.909,279.073 141.088,278.266 140.822 C 277.460 140.556,276.800 140.200,276.800 140.031 C 276.800 139.363,273.392 136.400,272.621 136.398 C 272.158 136.397,271.209 135.699,270.444 134.798 C 269.582 133.783,268.749 133.200,268.159 133.200 C 267.600 133.200,266.494 132.484,265.379 131.400 C 264.360 130.410,263.352 129.600,263.140 129.600 C 262.927 129.600,262.855 129.435,262.980 129.233 C 263.105 129.030,262.620 128.739,261.903 128.585 C 261.066 128.406,259.868 127.537,258.551 126.153 C 257.308 124.846,256.163 124.000,255.639 124.000 C 255.143 124.000,254.149 123.319,253.304 122.400 C 252.289 121.296,251.500 120.800,250.759 120.800 C 250.155 120.800,249.581 120.527,249.446 120.175 C 249.305 119.809,248.997 119.670,248.703 119.839 C 248.426 119.998,248.320 119.994,248.467 119.830 C 248.851 119.402,247.541 117.994,247.029 118.285 C 246.793 118.419,246.732 118.382,246.893 118.204 C 247.315 117.738,245.310 116.000,244.350 116.000 C 243.905 116.000,242.895 115.280,242.105 114.400 C 241.263 113.462,240.308 112.800,239.797 112.800 C 239.284 112.800,238.011 111.916,236.711 110.656 C 235.494 109.477,233.932 108.315,233.240 108.074 C 232.549 107.833,231.098 106.728,230.017 105.618 C 228.908 104.478,227.692 103.600,227.225 103.600 C 226.768 103.600,225.752 102.885,224.952 102.000 C 224.033 100.983,223.159 100.400,222.551 100.400 C 222.015 100.400,221.201 99.940,220.697 99.353 C 218.509 96.799,217.063 95.600,216.173 95.600 C 215.631 95.600,214.648 95.022,213.872 94.246 C 213.127 93.501,212.086 92.757,211.559 92.593 C 211.032 92.430,209.929 91.644,209.108 90.848 C 206.703 88.514,206.035 88.000,205.407 88.000 C 205.082 88.000,203.777 86.921,202.507 85.602 C 201.033 84.069,199.875 83.203,199.300 83.202 C 198.785 83.201,197.715 82.515,196.800 81.600 C 195.825 80.625,194.826 80.000,194.243 80.000 C 193.716 80.000,193.192 79.755,193.077 79.456 C 192.798 78.730,191.577 78.443,190.485 78.847 "></path>
    </g>
</svg>