<?xml version="1.0" encoding="UTF-8"?><!DOCTYPE svg PUBLIC "-//W3C//DTD SVG 1.1//EN"
        "http://www.w3.org/Graphics/SVG/1.1/DTD/svg11.dtd">
<svg xmlns:xlink="http://www.w3.org/1999/xlink" version="1.1" id="Layer_1"
     xmlns="http://www.w3.org/2000/svg" x="0px" y="0px"
     viewBox="-128 -128 768 768" xml:space="preserve" fill="#52811B" width="16px" height="16px">
<g>
    <path d="M411.815,255.999l67.915-67.915c42.958-42.958,42.958-112.857,0-155.814C458.92,11.46,431.252,0,401.823,0
            s-57.097,11.46-77.908,32.271l-67.915,67.915l-67.915-67.915C167.274,11.46,139.607,0,110.177,0S53.08,11.46,32.27,32.271
            c-42.958,42.958-42.958,112.856,0,155.814l67.916,67.915L32.27,323.914c-42.958,42.958-42.958,112.857,0,155.814
            c20.809,20.809,48.478,32.271,77.908,32.271s57.097-11.46,77.908-32.271L256,411.814l67.915,67.915
            c20.809,20.809,48.478,32.271,77.908,32.271s57.097-11.46,77.908-32.271c42.958-42.958,42.958-112.856,0-155.814L411.815,255.999z
             M345.423,53.779c15.549-15.549,35.974-23.324,56.4-23.324c20.425,0,40.85,7.775,56.4,23.324c31.099,31.099,31.099,81.7,0,112.798
            l-67.915,67.915l-112.8-112.798L345.423,53.779z M53.778,166.577c-31.099-31.099-31.099-81.7,0-112.798
            c15.549-15.549,35.974-23.324,56.4-23.324s40.85,7.775,56.4,23.324l67.915,67.915L121.693,234.491L53.778,166.577z
             M166.577,458.221c-31.099,31.099-81.701,31.099-112.799,0c-31.099-31.099-31.099-81.7,0-112.798l67.916-67.915l112.799,112.799
            L166.577,458.221z M143.2,255.999L256,143.2l112.799,112.799L256,368.799L143.2,255.999z M458.222,458.221
            c-31.099,31.099-81.701,31.099-112.799,0l-67.915-67.915l112.799-112.799l67.915,67.915
            C489.32,376.522,489.32,427.123,458.222,458.221z"/>
</g>
    <g>
        <rect x="240.794" y="177.161" transform="matrix(0.7071 -0.7071 0.7071 0.7071 -61.7615 237.6615)"
              width="30.417" height="32.445"/>
</g>
    <g>
        <rect x="303.405" y="239.774" transform="matrix(0.7071 -0.7071 0.7071 0.7071 -87.6967 300.2732)"
              width="30.417" height="32.444"/>
</g>
    <g>
        <rect x="178.177" y="239.777" transform="matrix(0.7071 -0.7071 0.7071 0.7071 -124.377 211.7241)"
              width="30.417" height="32.444"/>
    </g>
    <g>
        <rect x="240.8" y="302.383" transform="matrix(0.7071 -0.7071 0.7071 0.7071 -150.3047 274.3424)"
              width="30.417" height="32.445"/>
    </g>
    <g>
        <rect x="240.793" y="239.781" transform="matrix(0.7071 -0.7071 0.7071 0.7071 -106.0401 256.0016)"
              width="30.417" height="32.444"/>
    </g>
</svg>
