<svg width="16px" height="16px" xmlns="http://www.w3.org/2000/svg">
    <g>
        <rect fill="none" id="canvas_background" height="402" width="582" y="-1" x="-1"/>
    </g>
    <g>
        <path id="svg_1"
              fill="#FF5370"
              d="m14,12l-4,0l0,-2l4,0m0,6l-4,0l0,-2l4,0m6,-6l-2.81,0c-0.45,-0.78 -1.07,-1.45 -1.82,-1.96l1.63,-1.63l-1.41,-1.41l-2.17,2.17c-0.46,-0.11 -0.92,-0.17 -1.42,-0.17c-0.5,0 -0.96,0.06 -1.41,0.17l-2.18,-2.17l-1.41,1.41l1.62,1.63c-0.74,0.51 -1.36,1.18 -1.81,1.96l-2.81,0l0,2l2.09,0c-0.05,0.33 -0.09,0.66 -0.09,1l0,1l-2,0l0,2l2,0l0,1c0,0.34 0.04,0.67 0.09,1l-2.09,0l0,2l2.81,0c1.04,1.79 2.97,3 5.19,3c2.22,0 4.15,-1.21 5.19,-3l2.81,0l0,-2l-2.09,0c0.05,-0.33 0.09,-0.66 0.09,-1l0,-1l2,0l0,-2l-2,0l0,-1c0,-0.34 -0.04,-0.67 -0.09,-1l2.09,0l0,-2z"/>
        <g id="svg_6">
            <path id="svg_5"
                  d="m17.871675,13.407391c1.197105,0 2.38837,0.449644 3.299337,1.360612c1.827774,1.827774 1.821935,4.7709 -0.00584,6.604513c-1.068635,1.086153 -2.534358,1.518279 -3.930007,1.331414l0.309495,-1.144549c0.99856,0.093433 2.037998,-0.24526 2.802977,-1.010239c1.366451,-1.366451 1.366451,-3.585474 0,-4.951925c-0.689065,-0.689065 -1.582514,-1.021919 -2.475963,-1.021919l0,2.674507l-2.896409,-2.89057l2.896409,-2.89057l0,1.938725m-3.305176,7.970965c-1.541637,-1.547477 -1.775218,-3.88329 -0.718263,-5.670188l0.864251,0.858412c-0.636509,1.302216 -0.397088,2.908088 0.677386,3.982562c0.303656,0.303656 0.654028,0.543077 1.021919,0.712423l-0.291977,1.138709c-0.583953,-0.233581 -1.097832,-0.566435 -1.553316,-1.021919z"
                  fill="#4DB6AC"/>
        </g>
    </g>
</svg>