<svg width="16px" height="16px" xmlns="http://www.w3.org/2000/svg">
    <svg xmlns="http://www.w3.org/2000/svg"
         version="1.1" width="16px" height="16px"
         viewBox="0 0 24 24">
        <path fill="#FF5370"
              d="M14,12H10V10H14M14,16H10V14H14M20,8H17.19C16.74,7.22 16.12,6.55 15.37,6.04L17,4.41L15.59,3L13.42,5.17C12.96,5.06 12.5,5 12,5C11.5,5 11.04,5.06 10.59,5.17L8.41,3L7,4.41L8.62,6.04C7.88,6.55 7.26,7.22 6.81,8H4V10H6.09C6.04,10.33 6,10.66 6,11V12H4V14H6V15C6,15.34 6.04,15.67 6.09,16H4V18H6.81C7.85,19.79 9.78,21 12,21C14.22,21 16.15,19.79 17.19,18H20V16H17.91C17.96,15.67 18,15.34 18,15V14H20V12H18V11C18,10.66 17.96,10.33 17.91,10H20V8Z"/>
        <path fill="#66BB6A" transform="scale(0.7) translate(12 12)"
              d="M17.65,6.35C16.2,4.9 14.21,4 12,4A8,8 0 0,0 4,12A8,8 0 0,0 12,20C15.73,20 18.84,17.45 19.73,14H17.65C16.83,16.33 14.61,18 12,18A6,6 0 0,1 6,12A6,6 0 0,1 12,6C13.66,6 15.14,6.69 16.22,7.78L13,11H20V4L17.65,6.35Z"/>
    </svg>

</svg>