<?xml version="1.0" encoding="iso-8859-1"?>
<!-- Generator: Adobe Illustrator 16.0.0, SVG Export Plug-In . SVG Version: 6.00 Build 0)  -->
<!DOCTYPE svg PUBLIC "-//W3C//DTD SVG 1.1//EN" "http://www.w3.org/Graphics/SVG/1.1/DTD/svg11.dtd">
<svg xmlns:xlink="http://www.w3.org/1999/xlink" version="1.1" id="Capa_1" xmlns="http://www.w3.org/2000/svg" x="0px"
     y="0px"
     width="16px" height="16px" viewBox="0 0 494.575 494.575"
     fill="#9CCC65"
     xml:space="preserve">
<g>
<path d="M487.428,452.934L292.366,257.873c46.654-63.372,41.5-153.181-15.799-210.485c-63.187-63.183-165.996-63.183-229.179,0
s-63.183,165.992,0,229.175c57.311,57.311,147.119,62.459,210.488,15.812L452.933,487.43c9.521,9.527,24.967,9.527,34.495,0
C496.956,477.901,496.956,462.45,487.428,452.934z M242.072,242.07c-44.163,44.156-116.022,44.156-160.191,0
c-44.165-44.162-44.165-116.025,0-160.185c44.168-44.165,116.028-44.165,160.191,0C286.231,126.045,286.231,197.908,242.072,242.07
z M120.886,194.69h6.511v16.189H94.072V194.69h7.74v-69.449l-10.894,8.595l-4.261-16.778l18.751-13.399h15.478V194.69z
 M176.498,198.278c0,7.338-5.139,12.602-12.214,12.602c-6.872,0-12.052-5.378-12.052-12.516c0-7.335,5.139-12.667,12.22-12.667
C171.34,185.696,176.291,190.872,176.498,198.278z M176.498,144.259c0,7.335-5.139,12.602-12.214,12.602
c-6.872,0-12.052-5.382-12.052-12.517c0-7.344,5.139-12.669,12.22-12.669C171.34,131.669,176.291,136.844,176.498,144.259z
 M238.312,194.69v16.189h-33.325V194.69h7.093v-69.449l-10.903,8.595l-4.258-16.778l18.749-13.399h15.478v91.032H238.312z"/>
</g>
</svg>
