<?xml version="1.0" encoding="iso-8859-1"?>
<svg xmlns:xlink="http://www.w3.org/1999/xlink" version="1.1" id="Capa_1"
     xmlns="http://www.w3.org/2000/svg" x="0px" y="0px" width="32px" height="32px"
     viewBox="0 0 512 512" xml:space="preserve">
<g>
    <path fill="#8BC34A" d="M286,346c-7.383,0-14.473,2.725-19.995,7.661c-4.409,3.955-10.723,4.937-16.128,2.52
c-5.405-2.417-8.877-7.779-8.877-13.697V271c-17.183,0-29.046,0-46.904,0c1.26,4.863,1.904,9.902,1.904,15
c0,33.091-26.909,60-60,60s-60-26.909-60-60c0-5.098,0.645-10.137,1.904-15H15c-8.284,0-15,6.716-15,15v181
c0,24.853,21.147,45,46,45h195V409.516v-0.044v-0.015c0,0,0-0.015,0-0.029v-0.015c0-0.029,0-0.044,0-0.073
c0.104-8.681,7.498-14.795,13.989-14.795c0,0,5.964-0.751,11.03,3.809C271.542,403.29,278.632,406,286,406
c16.538,0,30-13.462,30-30C316,359.462,302.538,346,286,346z"/>
</g>
    <g>
        <path fill="#EF5350" d="M467,0H286c-8.284,0-15,6.716-15,15v87.455c0,5.918-3.472,11.279-8.877,13.696c-5.376,2.402-11.704,1.436-16.128-2.52
C240.502,108.71,233.397,106,226,106c-16.538,0-30,13.462-30,30c0,16.538,13.462,30,30,30c7.397,0,14.502-2.71,19.995-7.632
c4.453-3.94,10.767-4.922,16.128-2.52c5.405,2.417,8.877,7.778,8.877,13.696V241c17.183,0,29.046,0,46.904,0
c-1.26-4.863-1.904-9.902-1.904-15c0-33.091,26.909-60,60-60s60,26.909,60,60c0,5.098-0.645,10.137-1.904,15
c39.664,0,58.638,0,77.904,0V46C512,21.147,491.853,0,467,0z"/>
    </g>
    <g>
        <path fill="#FFEE58" d="M409.516,271c-5.918,0-11.28-3.472-13.697-8.877s-1.421-11.719,2.52-16.128C403.275,240.473,406,233.383,406,226
c0-16.538-13.462-30-30-30c-16.538,0-30,13.462-30,30c0,7.383,2.725,14.473,7.661,19.995c3.94,4.409,4.937,10.723,2.52,16.128
c-2.417,5.405-7.779,8.877-13.697,8.877H271v46.904c4.863-1.26,9.902-1.904,15-1.904c33.091,0,60,26.909,60,60s-26.909,60-60,60
c-5.098,0-10.137-0.645-15-1.904V512h196c24.853,0,45-20.147,45-45V271H409.516z"/>
    </g>
</svg>
