<?xml version="1.0" encoding="iso-8859-1"?>
<!-- Generator: Adobe Illustrator 19.0.0, SVG Export Plug-In . SVG Version: 6.00 Build 0)  -->
<svg version="1.1" id="Capa_1" xmlns="http://www.w3.org/2000/svg" x="0px" y="0px"
     viewBox="-32 -32 576 576" width="13px" height="13px" xml:space="preserve" fill="#9575CD">
    <g>
		<path d="M295.254,257.264H271v25.538h24.255c7.041,0.001,12.769-5.728,12.769-12.769S302.295,257.264,295.254,257.264z"/>
    </g>
    <g>
		    <path d="M171.741,257.266c-10.207,0-18.512,8.304-18.512,18.512v7.026h37.024v-7.026
			    C190.253,265.569,181.948,257.266,171.741,257.266z"/>
    </g>
    <g>
		    <path d="M0,177.964V393.44c0,24.813,20.187,45,45,45h422c24.813,0,45-20.187,45-45V177.964H0z M220.253,341.239
			c0,8.284-6.716,15-15,15s-15-6.716-15-15v-28.435H153.23v28.435c0,8.284-6.716,15-15,15s-15-6.716-15-15v-65.461h-0.001
			c0-26.75,21.763-48.512,48.512-48.512c26.749,0,48.512,21.762,48.512,48.512V341.239z M295.255,312.803H271v28.435
			c0,8.284-6.716,15-15,15s-15-6.716-15-15v-98.974c0-8.284,6.716-15,15-15h39.255c23.583,0,42.77,19.186,42.77,42.769
			S318.838,312.803,295.255,312.803z M388.771,341.237c0,8.284-6.716,15-15,15s-15-6.716-15-15v-98.973c0-8.284,6.716-15,15-15
			s15,6.716,15,15V341.237z"/>
    </g>
    <g>
		    <path d="M467,73.56H45c-24.813,0-45,20.187-45,45v29.405h512V118.56C512,93.747,491.813,73.56,467,73.56z"/>
    </g>
</svg>
