<svg xmlns="http://www.w3.org/2000/svg" width="16" height="16" viewBox="0 0 16 16">
    <g>
        <rect width="16" height="16" fill="#F06292" opacity="0"/>
        <g>
            <path d="M9,4,6.409,13H4.589L1.929,4H3.843s1.3,4.755,1.753,7.161h.341C6.429,8.765,7.715,4,7.715,4ZM13.5,8.367V8.342a2.114,2.114,0,0,0,1.222-2.133A2.184,2.184,0,0,0,12.239,4H9.4v9h2.984A2.457,2.457,0,0,0,15,10.314,1.813,1.813,0,0,0,13.5,8.367Zm-2.316-3.2h1.287q1.151,0,1.151,1.219c0,.919-.428,1.405-1.048,1.405h-1.39Zm1.427,6.623H11.179V8.97h1.437c.666,0,1.184.426,1.184,1.371C13.8,11.315,13.287,11.787,12.606,11.787Z"
                  fill="#F06292"/>
        </g>
    </g>
</svg>
