<?xml version="1.0" encoding="UTF-8"?>
<svg clip-rule="evenodd" fill-rule="evenodd" stroke-linejoin="round"
     stroke-miterlimit="1.4142" version="1.1" viewBox="0 0 24 24" width="16px" height="16px"
     xml:space="preserve" xmlns="http://www.w3.org/2000/svg">
   <path id="svg_1"
              d="m20,18l-16,0l0,-10l16,0m0,-2l-8,0l-2,-2l-6,0c-1.11,0 -2,0.89 -2,2l0,12a2,2 0 0 0 2,2l16,0a2,2 0 0 0 2,-2l0,-10c0,-1.11 -0.9,-2 -2,-2z"
              fill="#C792EA"/>
    <path fill="#80CBC4" d="m11.185 9.6129h5.3457v2.9001l3.7821-3.7754 3.7754 3.7754-3.7754 3.7821h2.9v5.3457h-5.3457v-5.3457h2.4457l-3.7821-3.7821v2.4457h-5.3457v-5.3457m0 6.6821h5.3457v5.3457h-5.3457z" stroke-width=".66821"/>
</svg>
