<?xml version="1.0" encoding="UTF-8"?><!DOCTYPE svg PUBLIC "-//W3C//DTD SVG 1.1//EN"
        "http://www.w3.org/Graphics/SVG/1.1/DTD/svg11.dtd">
<svg xmlns:xlink="http://www.w3.org/1999/xlink" xmlns="http://www.w3.org/2000/svg"
     version="1.1" width="16px" height="16px"
     viewBox="0 0 24 24">
    <path fill="#8E24AA"
          d="M20.5,11H19V7C19,5.89 18.1,5 17,5H13V3.5A2.5,2.5 0 0,0 10.5,1A2.5,2.5 0 0,0 8,3.5V5H4A2,2 0 0,0 2,7V10.8H3.5C5,10.8 6.2,12 6.2,13.5C6.2,15 5,16.2 3.5,16.2H2V20A2,2 0 0,0 4,22H7.8V20.5C7.8,19 9,17.8 10.5,17.8C12,17.8 13.2,19 13.2,20.5V22H17A2,2 0 0,0 19,20V16H20.5A2.5,2.5 0 0,0 23,13.5A2.5,2.5 0 0,0 20.5,11Z"/>
    <path fill="#4DB6AC" transform="scale(.6) translate(-2 19)"
          d="M11,4C13.05,4 15.09,4.77 16.65,6.33C19.78,9.46 19.77,14.5 16.64,17.64C14.81,19.5 12.3,20.24 9.91,19.92L10.44,17.96C12.15,18.12 13.93,17.54 15.24,16.23C17.58,13.89 17.58,10.09 15.24,7.75C14.06,6.57 12.53,6 11,6V10.58L6.04,5.63L11,0.68V4M5.34,17.65C2.7,15 2.3,11 4.11,7.94L5.59,9.41C4.5,11.64 4.91,14.39 6.75,16.23C7.27,16.75 7.87,17.16 8.5,17.45L8,19.4C7,19 6.12,18.43 5.34,17.65Z"/>
</svg>