<svg clip-rule="evenodd" fill-rule="evenodd" stroke-linejoin="round"
     stroke-miterlimit="1.4142" version="1.1" viewBox="0 0 24 24"
     width="16px" height="16px" fill="#7986cb"
     xml:space="preserve" xmlns="http://www.w3.org/2000/svg">
    <path d="m12.839 14.958-2.4473-2.4184.0289-.0289c1.6765-1.8692 2.8711-4.0178 3.5744-6.2915h2.823v-1.9269h-6.7444v-1.9269h-1.9269v1.9269h-6.7444v1.9269h10.762c-.64553 1.8498-1.6669 3.613-3.0542 5.1546-.89603-.99239-1.6379-2.0811-2.2257-3.2277h-1.9269c.70334 1.5705 1.6669 3.0542 2.8711 4.3934l-4.904 4.8367 1.3681 1.3681 4.8174-4.8174 2.9965 2.9965.73224-1.9655m5.4244-4.8849h-1.9269l-4.3357 11.562h1.9269l1.0791-2.8905h4.5765l1.0887 2.8905h1.9269l-4.3357-11.562m-2.5244 6.7444 1.5608-4.1719 1.5608 4.1719z"/>
</svg>
