<svg xmlns:xlink="http://www.w3.org/1999/xlink" version="1.1"
     xmlns="http://www.w3.org/2000/svg" x="0px" y="0px" viewBox="0 0 338 512"
     width="16px" height="16px" fill="#0064A6">
    <path d="M176.0477295,281.787262c0,0,23.5603943-38.7206116,26.7799072-84.4373169c3.2194824-45.7167053-6.653717-73.4042816-6.653717-73.4042816l55.3752441-42.4972153l35.1997375-38.2045708c0,0-75.5506287,6.8683434-85.8529663,14.1656342c12.0193176-11.160675,46.7897644-22.750824,100.0187988-27.4728432c0,0,17.3809814-3.8034439,7.9371643,6.498909c-1.0351257,1.1292152-14.7654724,14.6634445-18.5952148,19.5637283l47.5746155-34.648037l-0.4291687-9.4437218c0,0-88.3365173-43.1272812-212.4860687,34.7704506C89.3146362,33.897831,55.3805084,17.1618481,0,22.6390629c0,0,101.681366,41.4974136,84.5652771,57.0924301c-11.206665,10.2104721-47.3157425,70.3605652-27.2362366,133.6843109c28.9894104,91.4225464,79.8427124,144.0948486,121.1031189,193.300415C171.8725891,448.0413208,189.9952698,512,189.9952698,512s-0.8548889-48.1898804,20.8774414-64.2529297c21.7323303-16.0630188,63.1061707-19.1220093,63.1061707-19.1220093c-25.7832336-22.4528809-49.5709534-29.4755554-55.7127075-28.5306702c-15.9590759,2.4552307-38.685791-66.8711243-56.3707123-107.2148743c-7.5590668-19.8425598-7.0704956-102.3589478-2.9913788-105.4480286c1.0666962-0.8078003,7.0751038-2.7873077,8.9763947,6.6141968C173.2498779,220.5962219,176.0477295,281.787262,176.0477295,281.787262z"/>
</svg>