<svg xmlns="http://www.w3.org/2000/svg" clip-rule="evenodd" fill-rule="evenodd" stroke-linejoin="round"
     stroke-miterlimit="1.414" viewBox="0 0 24 24" width="16px" height="16px">
    <path fill="#607D8B"
          d="M10 4H4c-1.11 0-2 .89-2 2v12c0 1.097.903 2 2 2h16c1.097 0 2-.903 2-2V8a2 2 0 0 0-2-2h-8l-2-2z"
          fill-rule="nonzero"/>
    <path fill="#CFD8DC"
          d="M13.065 12.56H11.25a.607.607 0 0 0-.605.605v7.264c0 .333.272.605.605.605h1.816a.607.607 0 0 0 .605-.605v-7.264a.607.607 0 0 0-.605-.605zm8.474 0h-1.816a.607.607 0 0 0-.605.605v7.264c0 .333.272.605.605.605h1.816a.607.607 0 0 0 .605-.605v-7.264a.607.607 0 0 0-.605-.605zm-4.237 0h-1.816a.607.607 0 0 0-.605.605v7.264c0 .333.272.605.605.605h1.816a.607.607 0 0 0 .605-.605v-7.264a.607.607 0 0 0-.605-.605z"/>
</svg>