<?xml version="1.0" encoding="UTF-8"?><!DOCTYPE svg PUBLIC "-//W3C//DTD SVG 1.1//EN"
        "http://www.w3.org/Graphics/SVG/1.1/DTD/svg11.dtd">
<svg xmlns="http://www.w3.org/2000/svg"
     version="1.1" width="16px" height="16px" fill="#4DB6AC"
     viewBox="0 0 24 24">
    <path d="M12,19A1,1 0 0,1 11,18A1,1 0 0,1 12,17A1,1 0 0,1 13,18A1,1 0 0,1 12,19M4,5H20V16H4M20,18A2,2 0 0,0 22,16V5C22,3.89 21.1,3 20,3H4C2.89,3 2,3.89 2,5V16A2,2 0 0,0 4,18H0A2,2 0 0,0 2,20H22A2,2 0 0,0 24,18H20Z"/>
    <path id="file_type_cpp.svg" class="i-color" fill="#FF8A65"
          d="M9.559,3.009V4.522a5.069,5.069,0,0,0-1.55-1.008A4.564,4.564,0,0,0,6.267,3.18,3.489,3.489,0,0,0,3.481,4.295,4.741,4.741,0,0,0,2.514,7.5a4.758,4.758,0,0,0,.967,3.209,3.5,3.5,0,0,0,2.787,1.108,4.565,4.565,0,0,0,1.742-.334,5.067,5.067,0,0,0,1.55-1.008v1.5a5.851,5.851,0,0,1-1.6.767A6.065,6.065,0,0,1,6.182,13a4.967,4.967,0,0,1-3.8-1.47A5.648,5.648,0,0,1,1,7.5,5.632,5.632,0,0,1,2.386,3.478,4.954,4.954,0,0,1,6.182,2a6.116,6.116,0,0,1,1.792.256,5.6,5.6,0,0,1,1.585.753M8,5V7h2V8H8v2H7V8H5V7H7V5H8m6,0V7h2V8H14v2H13V8H11V7h2V5h1"
          transform="translate(6 5) scale(0.7)"/>
</svg>