<?xml version="1.0" encoding="UTF-8"?><!DOCTYPE svg PUBLIC "-//W3C//DTD SVG 1.1//EN"
        "http://www.w3.org/Graphics/SVG/1.1/DTD/svg11.dtd">
<svg xmlns="http://www.w3.org/2000/svg"
     version="1.1" width="16px" height="16px" fill="#4DB6AC"
     viewBox="0 0 24 24">
    <path d="M12,19A1,1 0 0,1 11,18A1,1 0 0,1 12,17A1,1 0 0,1 13,18A1,1 0 0,1 12,19M4,5H20V16H4M20,18A2,2 0 0,0 22,16V5C22,3.89 21.1,3 20,3H4C2.89,3 2,3.89 2,5V16A2,2 0 0,0 4,18H0A2,2 0 0,0 2,20H22A2,2 0 0,0 24,18H20Z"/>
    <path id="file_type_ai.svg" class="i-color" fill="#FFCA28"
          transform="scale(0.4) translate(16 10)"
          d="M6.789 10.152l-6.114 6.12 12.262 12.262v-6.131l-6.131-6.131 6.131-6.131-0.011-3.054-0.016-3.049-6.12 6.114zM10.73 14.099l-2.173 2.173 4.379 4.379v-4.368c0-2.398-0.005-4.363-0.016-4.363-0.005 0-0.991 0.98-2.19 2.179zM20.178 22.419l6.114-6.12-12.262-12.262v6.131l6.131 6.131-6.131 6.131 0.011 3.054 0.016 3.049 6.12-6.114z"></path>
</svg>