<?xml version="1.0" encoding="UTF-8"?><!DOCTYPE svg PUBLIC "-//W3C//DTD SVG 1.1//EN"
        "http://www.w3.org/Graphics/SVG/1.1/DTD/svg11.dtd">
<svg xmlns="http://www.w3.org/2000/svg"
     version="1.1" width="16px" height="16px" fill="#4DB6AC"
     viewBox="0 0 24 24">
    <path d="M12,19A1,1 0 0,1 11,18A1,1 0 0,1 12,17A1,1 0 0,1 13,18A1,1 0 0,1 12,19M4,5H20V16H4M20,18A2,2 0 0,0 22,16V5C22,3.89 21.1,3 20,3H4C2.89,3 2,3.89 2,5V16A2,2 0 0,0 4,18H0A2,2 0 0,0 2,20H22A2,2 0 0,0 24,18H20Z"/>
    <path d="M9,4,6.409,13H4.589L1.929,4H3.843s1.3,4.755,1.753,7.161h.341C6.429,8.765,7.715,4,7.715,4ZM13.5,8.367V8.342a2.114,2.114,0,0,0,1.222-2.133A2.184,2.184,0,0,0,12.239,4H9.4v9h2.984A2.457,2.457,0,0,0,15,10.314,1.813,1.813,0,0,0,13.5,8.367Zm-2.316-3.2h1.287q1.151,0,1.151,1.219c0,.919-.428,1.405-1.048,1.405h-1.39Zm1.427,6.623H11.179V8.97h1.437c.666,0,1.184.426,1.184,1.371C13.8,11.315,13.287,11.787,12.606,11.787Z"
          fill="#FFCA28" transform="translate(3 2)"/>
</svg>