<svg version="1.1" width="16px" height="16px" viewBox="0 0 24 24" xmlns="http://www.w3.org/2000/svg">
    <path d="m11.5 15.97l.41 2.44c-.26.14-.68.27-1.24.39-.57.13-1.24.2-2.01.2-2.21-.04-3.87-.7-4.98-1.96-1.12-1.27-1.68-2.88-1.68-4.83.05-2.31.72-4.08 2-5.32 1.32-1.25 2.96-1.89 4.94-1.89.75 0 1.4.07 1.94.19s.94.25 1.2.4l-.58 2.49-1.06-.34c-.4-.1-.86-.15-1.39-.15-1.16-.01-2.12.36-2.87 1.1-.76.73-1.15 1.85-1.18 3.34 0 1.36.37 2.42 1.08 3.2.71.77 1.71 1.17 2.99 1.18l1.33-.12c.43-.08.79-.19 1.1-.32m2.39 3.03l.61-4h-1.5l.34-2h1.5l.32-2h-1.5l.34-2h1.5l.61-4h2l-.61 4h1l.61-4h2l-.61 4h1.5l-.34 2h-1.5l-.32 2h1.5l-.34 2h-1.5l-.61 4h-2l.61-4h-1l-.61 4h-2m2.95-6h1l.32-2h-1l-.32 2z"
          fill="#0277bd"/>
</svg>
