<svg xmlns="http://www.w3.org/2000/svg" clip-rule="evenodd" fill-rule="evenodd" stroke-linejoin="round"
     stroke-miterlimit="1.414" viewBox="0 0 24 24" width="16px" height="16px">
    <path fill="#607D8B"
          d="M20,18H4V8H20M20,6H12L10,4H4C2.89,4 2,4.89 2,6V18A2,2 0 0,0 4,20H20A2,2 0 0,0 22,18V8C22,6.89 21.1,6 20,6Z"/>
    <path fill="#CFD8DC"
          d="M13.065 12.56H11.25a.607.607 0 0 0-.605.605v7.264c0 .333.272.605.605.605h1.816a.607.607 0 0 0 .605-.605v-7.264a.607.607 0 0 0-.605-.605zm8.474 0h-1.816a.607.607 0 0 0-.605.605v7.264c0 .333.272.605.605.605h1.816a.607.607 0 0 0 .605-.605v-7.264a.607.607 0 0 0-.605-.605zm-4.237 0h-1.816a.607.607 0 0 0-.605.605v7.264c0 .333.272.605.605.605h1.816a.607.607 0 0 0 .605-.605v-7.264a.607.607 0 0 0-.605-.605z"/>
</svg>