<svg clip-rule="evenodd" fill-rule="evenodd" stroke-linejoin="round" stroke-miterlimit="1.414" version="1.1"
     viewBox="0 0 24 24" xmlns="http://www.w3.org/2000/svg" width="16px" height="16px">
    <path fill="#00BCD4"
          d="M20,18H4V8H20M20,6H12L10,4H4C2.89,4 2,4.89 2,6V18A2,2 0 0,0 4,20H20A2,2 0 0,0 22,18V8C22,6.89 21.1,6 20,6Z"/>

    <path d="m17.51 14.937h3.9322v.96533h-3.9322zm0-1.6082h3.9322v.96533h-3.9322zm0 3.2163h3.9322v.96533h-3.9322zm4.4944-6.7541h-10.114c-.6181 0-1.1233.57941-1.1233 1.2867v8.3633c0 .70733.50523 1.2857 1.1233 1.2857h10.115c.61702 0 1.1233-.57834 1.1233-1.2867v-8.3633c0-.70626-.50523-1.2857-1.1244-1.2857zm0 9.649h-5.0566v-8.3633h5.0566z"
          style="fill:#b2ebf2;stroke-width:1.075"/>
</svg>
