<svg xmlns="http://www.w3.org/2000/svg" clip-rule="evenodd" fill-rule="evenodd" stroke-linejoin="round"
     stroke-miterlimit="1.414" viewBox="0 0 24 24" width="16px" height="16px">
    <path fill="#4DB6AC"
          d="M20,18H4V8H20M20,6H12L10,4H4C2.89,4 2,4.89 2,6V18A2,2 0 0,0 4,20H20A2,2 0 0,0 22,18V8C22,6.89 21.1,6 20,6Z"/>
    <path fill="#E0F2F1"
          d="M11.542 12.1h1.278v-1.278c-.703 0-1.278.575-1.278 1.278zm0 5.11h1.278v-1.277h-1.278zm2.556 5.112h1.278v-1.278h-1.278zm-2.556-7.667h1.278v-1.277h-1.278zm6.39-3.833h-1.279V12.1h1.278zm3.833 0V12.1h1.277c0-.703-.575-1.278-1.277-1.278zm-8.945 11.5v-1.278h-1.278c0 .703.575 1.278 1.278 1.278zm-1.278-2.556h1.278V18.49h-1.278zm3.834-8.944h-1.278V12.1h1.278zm1.277 11.5h1.278v-1.278h-1.278zm5.112-5.111h1.277v-1.278h-1.277zm0 5.111c.702 0 1.277-.575 1.277-1.278h-1.277zm0-7.667h1.277v-1.277h-1.277zm0 5.111h1.277V18.49h-1.277zm-2.556 2.556h1.278v-1.278h-1.278zm0-10.222h1.278v-1.278h-1.278zm-5.111 7.666h6.389v-6.388h-6.39zm1.278-5.11h3.833v3.833h-3.833z"/>
</svg>