<svg clip-rule="evenodd" fill-rule="evenodd" stroke-linejoin="round"
     width="16px" height="16px" stroke-miterlimit="1.4142"
     version="1.1" viewBox="0 0 24 24" xml:space="preserve" xmlns="http://www.w3.org/2000/svg">
    <path fill="#689f38"
          d="M20,18H4V8H20M20,6H12L10,4H4C2.89,4 2,4.89 2,6V18A2,2 0 0,0 4,20H20A2,2 0 0,0 22,18V8C22,6.89 21.1,6 20,6Z"/>
    <path d="m16.955 17.786-2.367-2.367.83438-.83438 1.5327 1.5267 3.8997-3.8997.83438.8403m-3.5506-4.7341-5.3259 2.367v3.5506c0 3.2843 2.2724 6.3555 5.3259 7.1011 3.0535-.74562 5.3259-3.8169 5.3259-7.1011v-3.5506z"
          style="fill:#dcedc8;stroke-width:.59176"/>
</svg>
