<?xml version="1.0" encoding="UTF-8"?>
<svg clip-rule="evenodd" fill-rule="evenodd" stroke-linejoin="round" stroke-miterlimit="1.4142" version="1.1"
     viewBox="0 0 24 24" xml:space="preserve" xmlns="http://www.w3.org/2000/svg" width="16px" height="16px">

    <path fill="#42a5f5"
          d="M20,18H4V8H20M20,6H12L10,4H4C2.89,4 2,4.89 2,6V18A2,2 0 0,0 4,20H20A2,2 0 0,0 22,18V8C22,6.89 21.1,6 20,6Z"/>

    <g transform="matrix(.67606 0 0 .67606 9.1073 7.3873)" fill="#bbdefb"><path d="m5 3l-0.65 3.34h13.59l-0.44 2.16h-13.58l-0.66 3.33h13.59l-0.76 3.81-5.48 1.81-4.75-1.81 0.33-1.64h-3.34l-0.79 4 7.85 3 9.05-3 1.2-6.03 0.24-1.21 1.54-7.76h-16.94z" fill="#bbdefb" fill-rule="nonzero"/></g></svg>
