<svg clip-rule="evenodd" fill-rule="evenodd" stroke-linejoin="round" stroke-miterlimit="1.414" version="1.1"
     viewBox="0 0 24 24" xmlns="http://www.w3.org/2000/svg" width="16px" height="16px">
    <path fill="#ff7043"
          d="M20,18H4V8H20M20,6H12L10,4H4C2.89,4 2,4.89 2,6V18A2,2 0 0,0 4,20H20A2,2 0 0,0 22,18V8C22,6.89 21.1,6 20,6Z"/>

    <path d="m18.755 10.609c-.1328 0-.26392.05267-.36808.15683l-7.1664 7.1664v2.5734h2.5734l7.176-7.1567c.20832-.20832.20832-.53104 0-.73936l-1.8436-1.8436c-.10416-.10416-.23848-.15683-.37128-.15683zm-.76496 7.8129-2.0837 2.0837h7.8129v-2.0837z"
          fill="#ffccbc"/>
</svg>
