<?xml version="1.0" encoding="UTF-8"?>
<svg clip-rule="evenodd" fill-rule="evenodd" stroke-linejoin="round" stroke-miterlimit="1.4142"
     version="1.1" viewBox="0 0 24 24" width="16px" height="16px"
     xml:space="preserve" xmlns="http://www.w3.org/2000/svg">
    <path d="M20,18H4V8H20M20,6H12L10,4H4C2.89,4 2,4.89 2,6V18A2,2 0 0,0 4,20H20A2,2 0 0,0 22,18V8C22,6.89 21.1,6 20,6Z"
          fill="#7CB342"
          fill-rule="nonzero"/>
    <path d="m17.761 8.8588c-3.1558 0-5.7119 1.278-5.7119 2.8559 0 1.5779 2.5561 2.8559 5.7119 2.8559 3.1558 0 5.7119-1.278 5.7119-2.8559 0-1.5779-2.5561-2.8559-5.7119-2.8559m-5.7119 4.2839v2.1419c0 1.5779 2.5561 2.8559 5.7119 2.8559 3.1558 0 5.7119-1.278 5.7119-2.8559v-2.1419c0 1.5779-2.5561 2.8559-5.7119 2.8559-3.1558 0-5.7119-1.278-5.7119-2.8559m0 3.5699v2.1419c0 1.5779 2.5561 2.8559 5.7119 2.8559 3.1558 0 5.7119-1.278 5.7119-2.8559v-2.1419c0 1.5779-2.5561 2.8559-5.7119 2.8559-3.1558 0-5.7119-1.278-5.7119-2.8559z"
          fill="#C5E1A5" stroke-width=".71398"/>
</svg>
