<?xml version="1.0" encoding="UTF-8"?>
<svg clip-rule="evenodd" fill-rule="evenodd" stroke-linejoin="round"
     stroke-miterlimit="1.4142" version="1.1" viewBox="0 0 24 24" width="16px" height="16px"
     xml:space="preserve" xmlns="http://www.w3.org/2000/svg">
<path fill="#e57373"
      d="M20,18H4V8H20M20,6H12L10,4H4C2.89,4 2,4.89 2,6V18A2,2 0 0,0 4,20H20A2,2 0 0,0 22,18V8C22,6.89 21.1,6 20,6Z"/>
    <path d="m18.575 11.113h-2.5763v-1.2881h2.5763m3.8644 1.2881h-2.5763v-1.2881l-1.2881-1.2881h-2.5763l-1.2881 1.2881v1.2881h-2.5763c-0.71492 0-1.2881 0.57322-1.2881 1.2881v7.0847a1.2881 1.2881 0 0 0 1.2881 1.2881h10.305a1.2881 1.2881 0 0 0 1.2881 -1.2881v-7.0847c0-0.71492-0.57966-1.2881-1.2881-1.2881z"
          fill="#ffcdd2" stroke-width=".64407"/>
</svg>
