<svg clip-rule="evenodd" fill-rule="evenodd" stroke-linejoin="round" stroke-miterlimit="1.414" version="1.1"
     viewBox="0 0 24 24" xmlns="http://www.w3.org/2000/svg" width="16px" height="16px">
    <path fill="#616161"
          d="M20,18H4V8H20M20,6H12L10,4H4C2.89,4 2,4.89 2,6V18A2,2 0 0,0 4,20H20A2,2 0 0,0 22,18V8C22,6.89 21.1,6 20,6Z"/>

    <path d="M20.182 9.703h-7.667c-.71 0-1.278.575-1.278 1.278v8.945c0 .702.569 1.277 1.278 1.277h8.945c.702 0 1.277-.575 1.277-1.277v-7.667zm-3.195 10.223a1.914 1.914 0 0 1-1.916-1.917c0-1.06.856-1.917 1.916-1.917s1.917.856 1.917 1.917c0 1.06-.856 1.917-1.917 1.917zm1.917-6.39h-6.389v-2.555h6.389z"
          fill="#9E9E9E" style="fill:#bdbdbd"/>
</svg>
