<svg clip-rule="evenodd" fill-rule="evenodd" stroke-linejoin="round" stroke-miterlimit="1.414" version="1.1"
     viewBox="0 0 24 24" xmlns="http://www.w3.org/2000/svg" width="16px" height="16px">
    <path fill="#009688"
          d="M20,18H4V8H20M20,6H12L10,4H4C2.89,4 2,4.89 2,6V18A2,2 0 0,0 4,20H20A2,2 0 0,0 22,18V8C22,6.89 21.1,6 20,6Z"/>

    <path d="M21.524 10.3h-8.556c-.672 0-1.222.55-1.222 1.222v8.556c0 .672.55 1.222 1.222 1.222h8.556c.672 0 1.222-.55 1.222-1.222v-8.556c0-.672-.55-1.222-1.222-1.222zm-8.556 1.216h1.834c0 1.015-.82 1.84-1.834 1.84zm0 4.284v-1.222a3.062 3.062 0 0 0 3.056-3.062h1.222a4.28 4.28 0 0 1-4.278 4.284zm0 3.667l2.14-2.75 1.527 1.84 2.139-2.757 2.75 3.667z"
          fill="#80CBC4" style="fill:#b2dfdb"/>
</svg>
