<svg clip-rule="evenodd" fill-rule="evenodd" stroke-linejoin="round"
     stroke-miterlimit="1.4142" version="1.1" viewBox="0 0 24 24" width="16px" height="16px"
     xml:space="preserve" xmlns="http://www.w3.org/2000/svg">
<path fill="#607D8B"
      d="M20,18H4V8H20M20,6H12L10,4H4C2.89,4 2,4.89 2,6V18A2,2 0 0,0 4,20H20A2,2 0 0,0 22,18V8C22,6.89 21.1,6 20,6Z"/>
    <path d="m15.32 16.342 2.064-5.4897 2.0554 5.4897m-2.9226-7.8052-4.7698 12.141h1.9513l.97131-2.6017h5.4203l.97999 2.6017h1.9513l-4.7698-12.141z"
          style="fill:#CFD8DC;stroke-width:.86724"/>
</svg>
