<svg clip-rule="evenodd" fill-rule="evenodd"
     width="16px" height="16px"
     stroke-linejoin="round" stroke-miterlimit="1.414" version="1.1"
     viewBox="0 0 24 24" xmlns="http://www.w3.org/2000/svg">
    <path fill="#ef5350"
          d="M20,18H4V8H20M20,6H12L10,4H4C2.89,4 2,4.89 2,6V18A2,2 0 0,0 4,20H20A2,2 0 0,0 22,18V8C22,6.89 21.1,6 20,6Z"/>
    <path d="m14.516 16.093c-0.26645-2.6987-0.48293-4.9411-0.48106-4.9831 0.0019-0.04195-0.22543-0.07627-0.50509-0.07627h-0.50848v-1.9322h3.9661v-3.7508l1.8714-1.1246c1.1397-0.68492 1.9778-1.1246 2.1434-1.1246 0.4 0 0.86652 0.50545 0.86652 0.93884 0 0.18938-0.0572 0.42213-0.12712 0.51724-0.06991 0.095108-0.72203 0.52958-1.4492 0.96549l-1.322 0.79257-0.05658 2.7858h3.9718v1.9322h-0.97966l-0.98984 9.9662h-5.9158l-0.48445-4.9068z"
          fill="#ffcdd2"/>
</svg>