<svg clip-rule="evenodd" fill-rule="evenodd" stroke-linejoin="round" stroke-miterlimit="1.4142" version="1.1"
     viewBox="0 0 24 24" xml:space="preserve" xmlns="http://www.w3.org/2000/svg" width="16px" height="16px">

    <path fill="#afb42b"
          d="M20,18H4V8H20M20,6H12L10,4H4C2.89,4 2,4.89 2,6V18A2,2 0 0,0 4,20H20A2,2 0 0,0 22,18V8C22,6.89 21.1,6 20,6Z"/>

    <path d="m20.671 9.434c-.32465 0-.63704.11638-.87594.35527l-3.5589 3.565 3.4609 3.4609 3.565-3.5589c.47166-.47778.47166-1.2496 0-1.7335l-1.7396-1.7335c-.23889-.23889-.54516-.35527-.85143-.35527m-5.0228 4.5022-3.6508 3.6507c-.47778.47778-.47778 1.2496.01225 1.7457-.7473.75343-1.5069 1.5069-2.2603 2.2603h3.467l.52679-.52679c.47778.46553 1.2435.45941 1.7212-.01225l3.6446-3.6507"
          fill="#f0f4c3"/></svg>
