<?xml version="1.0" encoding="UTF-8"?>
<svg clip-rule="evenodd" fill-rule="evenodd" stroke-linejoin="round" stroke-miterlimit="1.4142"
     version="1.1" viewBox="0 0 24 24" width="16px" height="16px"
     xml:space="preserve" xmlns="http://www.w3.org/2000/svg">
<path fill="#039be5"
      d="M20,18H4V8H20M20,6H12L10,4H4C2.89,4 2,4.89 2,6V18A2,2 0 0,0 4,20H20A2,2 0 0,0 22,18V8C22,6.89 21.1,6 20,6Z"/>
    <path d="m20.788 15.981h-2.4338v2.4338h-1.2169v-2.4338h-2.4338v-1.217h2.4338v-2.4338h1.2169v2.4338h2.4338m-3.0423-5.4761a6.0845 6.0845 0 0 0 -6.0845 6.0845 6.0845 6.0845 0 0 0 6.0845 6.0845 6.0845 6.0845 0 0 0 6.0845 -6.0845 6.0845 6.0845 0 0 0 -6.0845 -6.0845z"
          fill="#b3e5fc" stroke-width=".60845"/>
</svg>
