<svg clip-rule="evenodd" fill-rule="evenodd" stroke-linejoin="round" stroke-miterlimit="1.4142" version="1.1"
     viewBox="0 0 24 24" xml:space="preserve" xmlns="http://www.w3.org/2000/svg" width="16px" height="16px">
    <path fill="#78909c"
          d="M20,18H4V8H20M20,6H12L10,4H4C2.89,4 2,4.89 2,6V18A2,2 0 0,0 4,20H20A2,2 0 0,0 22,18V8C22,6.89 21.1,6 20,6Z"/>
    <path d="m23.395 13.464v-1.8011h-3.6023a1.8011 1.8011 0 0 0 -1.8011 1.8011v1.8011a1.8011 1.8011 0 0 0 1.8011 1.8011h1.8011v1.8011h-3.6023v1.8011h3.6023a1.8011 1.8011 0 0 0 1.8011 -1.8011v-1.8011a1.8011 1.8011 0 0 0 -1.8011 -1.8011h-1.8011v-1.8011m-4.5028 5.4034h-1.8011v-5.4034h1.8011m0-1.8011h-1.8011a1.8011 1.8011 0 0 0 -1.8011 1.8011v5.4034a1.8011 1.8011 0 0 0 1.8011 1.8011h1.8011a1.8011 1.8011 0 0 0 1.8011 -1.8011v-5.4034a1.8011 1.8011 0 0 0 -1.8011 -1.8011m-6.3039 9.0056h1.8011v-5.4034h-1.8011m0-1.8011h1.8011v-1.8011h-1.8011z"
          style="fill:#cfd8dc;stroke-width:.90056"/></svg>