<svg xmlns="http://www.w3.org/2000/svg" clip-rule="evenodd" fill-rule="evenodd" stroke-linejoin="round"
     stroke-miterlimit="1.414" viewBox="0 0 24 24" width="16px" height="16px">
    <path fill="#AB47BC"
          d="M20,18H4V8H20M20,6H12L10,4H4C2.89,4 2,4.89 2,6V18A2,2 0 0,0 4,20H20A2,2 0 0,0 22,18V8C22,6.89 21.1,6 20,6Z"/>

    <path fill="#E1BEE7"
          d="M21.3 12.46H19v-1.15c0-.317-.127-.604-.34-.811a1.124 1.124 0 0 0-.81-.34h-2.3c-.633 0-1.15.518-1.15 1.15v1.15h-2.3c-.633 0-1.15.518-1.15 1.15v6.326c0 .632.517 1.15 1.15 1.15h9.2c.632 0 1.15-.518 1.15-1.15V13.61c0-.633-.518-1.15-1.15-1.15zm-5.75-1.15h2.3v1.15h-2.3zm.574 7.762l-.575-.575 1.725-1.725-1.725-1.725.575-.575 2.3 2.3z"/>
</svg>