<svg xmlns="http://www.w3.org/2000/svg" clip-rule="evenodd" fill-rule="evenodd" stroke-linejoin="round"
     stroke-miterlimit="1.414" viewBox="0 0 24 24" width="16px" height="16px">
    <path fill="#303F9F"
          d="M20,18H4V8H20M20,6H12L10,4H4C2.89,4 2,4.89 2,6V18A2,2 0 0,0 4,20H20A2,2 0 0,0 22,18V8C22,6.89 21.1,6 20,6Z"/>
    <path fill="#7986CB"
          d="M15.29 20.492h3.265v-3.918h-3.264zm-3.917 0h3.265v-8.489h-3.265zm7.835 0h3.265v-3.918h-3.265zm-3.917-8.489v3.918h7.182v-3.918z"/>
</svg>