<svg clip-rule="evenodd" fill-rule="evenodd" stroke-linejoin="round" stroke-miterlimit="1.414" version="1.1"
     viewBox="0 0 24 24" xmlns="http://www.w3.org/2000/svg" width="16px" height="16px">
    <path fill="#afb42b"
          d="M20,18H4V8H20M20,6H12L10,4H4C2.89,4 2,4.89 2,6V18A2,2 0 0,0 4,20H20A2,2 0 0,0 22,18V8C22,6.89 21.1,6 20,6Z"/>

    <path d="m21.589 10.926v8.2791h-8.28v-8.2791h8.28m.65088-1.1832h-9.5808a.53024 .53024 0 0 0 -.53226 .53227v9.5808c0 .23622.23622.53226.53226.53226h9.5808c.23622 0 .53226-.29604.53226-.53226v-9.5808c0-.29604-.29604-.53227-.53226-.53227zm-5.3825 2.3653h3.5484v1.1832h-3.5484zm0 2.3663h3.5484v1.1821h-3.5484zm0 2.3653h3.5484v1.1832h-3.5484zm-2.3653-4.7316h1.1832v1.1832h-1.1832zm0 2.3663h1.1832v1.1821h-1.1832zm0 2.3653h1.1832v1.1832h-1.1832z"
          style="fill:#f0f4c3;stroke-width:1.0138"/>
</svg>
