<svg clip-rule="evenodd" fill-rule="evenodd" stroke-linejoin="round"
     stroke-miterlimit="1.4142" version="1.1" viewBox="0 0 24 24"
     width="16px" height="16px"
     xml:space="preserve" xmlns="http://www.w3.org/2000/svg">
<path fill="#00796B"
      d="M20,18H4V8H20M20,6H12L10,4H4C2.89,4 2,4.89 2,6V18A2,2 0 0,0 4,20H20A2,2 0 0,0 22,18V8C22,6.89 21.1,6 20,6Z"/>
    <path d="m13.814 8.7103a1.3544 1.2753 0 0 0 -1.355 1.2758v10.201a1.3544 1.2753 0 0 0 1.355 1.2777h8.1259a1.3544 1.2753 0 0 0 1.355 -1.2777v-10.201a1.3544 1.2753 0 0 0 -1.355 -1.2758zm0 4.4644h8.1259v3.1887h-8.1259zm0 4.4626h8.126v2.5498h-8.1259v-2.5497z"
          fill="#80CBC4" stroke-width=".65714"/>
</svg>
