<?xml version="1.0" encoding="UTF-8"?>
<svg clip-rule="evenodd" fill-rule="evenodd" stroke-linejoin="round"
     stroke-miterlimit="1.4142" version="1.1" viewBox="0 0 24 24" width="16px" height="16px"
     xml:space="preserve" xmlns="http://www.w3.org/2000/svg">
<path fill="#8bc34a"
      d="M20,18H4V8H20M20,6H12L10,4H4C2.89,4 2,4.89 2,6V18A2,2 0 0,0 4,20H20A2,2 0 0,0 22,18V8C22,6.89 21.1,6 20,6Z"/>
    <g transform="matrix(.69444 0 0 .69444 8.9167 7.1181)" fill="#f1f8e9">
<path d="m12 1.85c-0.27 0-0.55 0.07-0.78 0.2l-7.44 4.3c-0.48 0.28-0.78 0.8-0.78 1.36v8.58c0 0.56 0.3 1.08 0.78 1.36l1.95 1.12c0.95 0.46 1.27 0.47 1.71 0.47 1.4 0 2.21-0.85 2.21-2.33v-8.47c0-0.12-0.1-0.22-0.22-0.22h-0.93c-0.13 0-0.23 0.1-0.23 0.22v8.47c0 0.66-0.68 1.31-1.77 0.76l-2.05-1.17c-0.07-0.05-0.11-0.13-0.11-0.21v-8.58c0-0.09 0.04-0.17 0.11-0.21l7.44-4.29c0.06-0.04 0.16-0.04 0.22 0l7.44 4.29c0.07 0.04 0.11 0.12 0.11 0.21v8.58c0 0.08-0.04 0.16-0.11 0.21l-7.44 4.29c-0.06 0.04-0.16 0.04-0.23 0l-1.88-1.14c-0.08-0.03-0.16-0.04-0.21-0.01-0.53 0.3-0.63 0.36-1.12 0.51-0.12 0.04-0.31 0.11 0.07 0.32l2.48 1.47c0.24 0.14 0.5 0.21 0.78 0.21s0.54-0.07 0.78-0.21l7.44-4.29c0.48-0.28 0.78-0.8 0.78-1.36v-8.58c0-0.56-0.3-1.08-0.78-1.36l-7.44-4.3c-0.23-0.13-0.5-0.2-0.78-0.2m2 6.15c-2.12 0-3.39 0.89-3.39 2.39 0 1.61 1.26 2.08 3.3 2.28 2.43 0.24 2.62 0.6 2.62 1.08 0 0.83-0.67 1.18-2.23 1.18-1.98 0-2.4-0.49-2.55-1.47-0.02-0.1-0.11-0.18-0.22-0.18h-0.96c-0.12 0-0.21 0.09-0.21 0.22 0 1.24 0.68 2.74 3.94 2.74 2.35 0 3.7-0.93 3.7-2.55 0-1.61-1.08-2.03-3.37-2.34-2.31-0.3-2.54-0.46-2.54-1 0-0.45 0.2-1.05 1.91-1.05 1.5 0 2.09 0.33 2.32 1.36 0.02 0.1 0.11 0.17 0.21 0.17h0.97c0.05 0 0.11-0.02 0.15-0.07 0.04-0.04 0.07-0.1 0.05-0.16-0.14-1.78-1.32-2.6-3.7-2.6z"
      fill="#f1f8e9" fill-rule="nonzero"/>
</g>
</svg>
