<svg xmlns="http://www.w3.org/2000/svg" clip-rule="evenodd" fill-rule="evenodd" stroke-linejoin="round"
     stroke-miterlimit="1.414" viewBox="0 0 24 24" height="16px" width="16px">
    <path fill="#00B0FF"
          d="M20,18H4V8H20M20,6H12L10,4H4C2.89,4 2,4.89 2,6V18A2,2 0 0,0 4,20H20A2,2 0 0,0 22,18V8C22,6.89 21.1,6 20,6Z"/>

    <path fill="#B3E5FC"
          d="M21.706 11.619h-9.2c-.633 0-1.144.517-1.144 1.15l-.006 10.35 2.3-2.3h8.05c.632 0 1.15-.518 1.15-1.15v-6.9c0-.633-.518-1.15-1.15-1.15zm-4.025 6.9h-1.15v-1.15h1.15zm0-2.3h-1.15v-2.3h1.15z"/>
</svg>
