<svg clip-rule="evenodd" fill-rule="evenodd" stroke-linejoin="round" stroke-miterlimit="1.4142" version="1.1"
     viewBox="0 0 24 24" xml:space="preserve" xmlns="http://www.w3.org/2000/svg" width="16px" height="16px">

    <path fill="#00897b"
          d="M20,18H4V8H20M20,6H12L10,4H4C2.89,4 2,4.89 2,6V18A2,2 0 0,0 4,20H20A2,2 0 0,0 22,18V8C22,6.89 21.1,6 20,6Z"/>

    <path d="m23.284 16.949h-1.2881v1.2881h-3.8642v-1.9321h1.2881v-1.2881h-1.2881v-3.2202a1.2881 1.2881 0 0 0-1.2881-1.2881h-5.1523v-1.2881h-1.2881v5.1523h1.2881v-1.2881h3.8642v1.9321h-1.2881v1.2881h1.2881v3.2202a1.2881 1.2881 0 0 0 1.2881 1.2881h5.1523v1.2881h1.2881"
          fill="#b2dfdb"/>
</svg>
