<svg clip-rule="evenodd" fill-rule="evenodd" stroke-linejoin="round" stroke-miterlimit="1.414" version="1.1"
     viewBox="0 0 24 24" xmlns="http://www.w3.org/2000/svg" width="16px" height="16px">
    <path fill="#00BFA5"
          d="M20,18H4V8H20M20,6H12L10,4H4C2.89,4 2,4.89 2,6V18A2,2 0 0,0 4,20H20A2,2 0 0,0 22,18V8C22,6.89 21.1,6 20,6Z"/>
    <g id="prisma" transform="translate(-1.4436)" style="fill:#a7ffeb">
        <path d="m23.036 18.979-6.134 1.768c-.187.054-.367-.104-.328-.288l2.191-10.225c.041-.191.312-.222.398-.045l4.058 8.395c.076.158-.011.344-.185.395zm1.051-.417-4.698-9.72c-.118-.243-.364-.403-.642-.418-.286-.016-.542.118-.687.347l-5.095 8.041c-.158.251-.155.56.009.807l2.491 3.759c.148.224.406.354.673.354.076 0 .152-.01.227-.032l7.23-2.083c.221-.064.403-.216.497-.419.095-.203.093-.435-.005-.636z"
              style="clip-rule:evenodd;fill-rule:evenodd;fill:#a7ffeb"/>
    </g>
</svg>
