<svg clip-rule="evenodd" fill-rule="evenodd" stroke-linejoin="round"
     stroke-miterlimit="1.4142" version="1.1" viewBox="0 0 24 24"
     width="16px" height="16px"

     xml:space="preserve" xmlns="http://www.w3.org/2000/svg">
<path fill="#FFCB6B"
      d="M20,18H4V8H20M20,6H12L10,4H4C2.89,4 2,4.89 2,6V18A2,2 0 0,0 4,20H20A2,2 0 0,0 22,18V8C22,6.89 21.1,6 20,6Z"/>
    <g transform="matrix(.6453 0 0 .64533 9.5434 7.2458)">
        <g>
            <path d="m9.8594 2.0009c-1.58 0-2.8594 1.2794-2.8594 2.8594v1.6797h4.2891c.39 0 .71094.57094.71094.96094h-7.1406c-1.58 0-2.8594 1.2794-2.8594 2.8594v3.7812c0 1.58 1.2794 2.8594 2.8594 2.8594h1.1797v-2.6797c0-1.58 1.2716-2.8594 2.8516-2.8594h5.25c1.58 0 2.8594-1.2716 2.8594-2.8516v-3.75c0-1.58-1.2794-2.8594-2.8594-2.8594zm-.71875 1.6094c.4 0 .71875.12094.71875.71094s-.31875.89062-.71875.89062c-.39 0-.71094-.30062-.71094-.89062s.32094-.71094.71094-.71094z"
                  style="fill:#3c78aa"/>
            <path d="m17.959 7v2.6797c0 1.58-1.2696 2.8594-2.8496 2.8594h-5.25c-1.58 0-2.8594 1.2696-2.8594 2.8496v3.75a2.86 2.86 0 0 0 2.8594 2.8613h4.2812a2.86 2.86 0 0 0 2.8594 -2.8613v-1.6797h-4.291c-.39 0-.70898-.56898-.70898-.95898h7.1406a2.86 2.86 0 0 0 2.8594 -2.8613v-3.7793a2.86 2.86 0 0 0 -2.8594 -2.8594zm-9.6387 4.5137-.0039.0039c.01198-.0024.02507-.0016.03711-.0039zm6.5391 7.2754c.39 0 .71094.30062.71094.89062a.71 .71 0 0 1 -.71094 .70898c-.4 0-.71875-.11898-.71875-.70898s.31875-.89062.71875-.89062z"
                  style="fill:#3c78aa"/>
        </g>
    </g>
</svg>
