<svg clip-rule="evenodd" fill-rule="evenodd" stroke-linejoin="round" stroke-miterlimit="1.4142" version="1.1"
     viewBox="0 0 24 24" xml:space="preserve" xmlns="http://www.w3.org/2000/svg" width="16px" height="16px">
    <path fill="#2196f3"
          d="M20,18H4V8H20M20,6H12L10,4H4C2.89,4 2,4.89 2,6V18A2,2 0 0,0 4,20H20A2,2 0 0,0 22,18V8C22,6.89 21.1,6 20,6Z"/>
    <path d="m17.22 14.68a1.7651 1.7651 0 0 0 -1.7651 1.7651 1.7651 1.7651 0 0 0 1.7651 1.7651 1.7651 1.7651 0 0 0 1.7651 -1.7651 1.7651 1.7651 0 0 0 -1.7651 -1.7651m0 4.707a2.9419 2.9419 0 0 1 -2.9419 -2.9419 2.9419 2.9419 0 0 1 2.9419 -2.9419 2.9419 2.9419 0 0 1 2.9419 2.9419 2.9419 2.9419 0 0 1 -2.9419 2.9419m0-7.3547c-2.9419 0-5.4542 1.8298-6.4721 4.4128 1.0179 2.583 3.5302 4.4128 6.4721 4.4128 2.9419 0 5.4542-1.8298 6.4721-4.4128-1.0179-2.583-3.5302-4.4128-6.4721-4.4128z"
          style="fill:#bbdefb;stroke-width:.58837"/>
</svg>
