<svg clip-rule="evenodd" fill-rule="evenodd" stroke-linejoin="round"
     stroke-miterlimit="1.4142" version="1.1" viewBox="0 0 24 24"
     width="16px" height="16px"
     xml:space="preserve" xmlns="http://www.w3.org/2000/svg">
<path fill="#607D8B"
      d="M20,18H4V8H20M20,6H12L10,4H4C2.89,4 2,4.89 2,6V18A2,2 0 0,0 4,20H20A2,2 0 0,0 22,18V8C22,6.89 21.1,6 20,6Z"/>
    <path d="m11.373 9.0951v5.9193l2.0892-2.0892 2.0892 2.4373c.69638.69638.69638 1.3928.69638 1.3928v4.1783h2.7855v-4.8747s0-.69638-.36908-1.3928-1.0237-1.3928-1.0237-1.3928l-2.0892-2.3816 1.741-1.7967m4.5265 0-3.1059 3.1128.32034.36908s.64764.69638 1.0237 1.3928c.14624.27855.22981.55014.27855.78691l3.5724-3.5724"
          fill="#ECEFF1" stroke-width=".69638"/>
</svg>
