<?xml version="1.0" encoding="UTF-8"?>
<svg clip-rule="evenodd" fill-rule="evenodd" stroke-linejoin="round" stroke-miterlimit="1.4142"
     version="1.1" viewBox="0 0 24 24" width="16px" height="16px"
     xml:space="preserve" xmlns="http://www.w3.org/2000/svg">
<path fill="#D14748"
      d="M20,18H4V8H20M20,6H12L10,4H4C2.89,4 2,4.89 2,6V18A2,2 0 0,0 4,20H20A2,2 0 0,0 22,18V8C22,6.89 21.1,6 20,6Z"/>
    <g transform="translate(8 8)">
        <!--<circle cx="7" cy="7" r="6" fill="#F6DCDD">
</circle>-->
        <path id="file_type_ruby.svg" class="i-color" fill="#FFCDD2"
              d="M13,6L8,11V4h3Zm3,0L8,14,0,6,4,2h8ZM8,12.5L14.5,6l-3-3h-7l-3,3Z"/>
    </g>
</svg>
