<svg clip-rule="evenodd" fill-rule="evenodd" stroke-linejoin="round"
     stroke-miterlimit="1.4142" version="1.1" width="16px" height="16px"
     viewBox="0 0 24 24" xml:space="preserve" xmlns="http://www.w3.org/2000/svg">
    <path fill="#ef5350"
          d="M20,18H4V8H20M20,6H12L10,4H4C2.89,4 2,4.89 2,6V18A2,2 0 0,0 4,20H20A2,2 0 0,0 22,18V8C22,6.89 21.1,6 20,6Z"/>
    <path d="m17.345 18.448-2.3198-2.3198.81772-.81772 1.5021 1.4963 3.8218-3.8218.81772.82352m-3.4797-3.4797a.57994 .57994 0 0 1 .57994 .57994 .57994 .57994 0 0 1 -.57994 .57994 .57994 .57994 0 0 1 -.57994 -.57994 .57994 .57994 0 0 1 .57994 -.57994m4.0596 0h-2.4242c-.24358-.67273-.88152-1.1599-1.6354-1.1599s-1.3919.48715-1.6354 1.1599h-2.4242a1.1599 1.1599 0 0 0 -1.1599 1.1599v8.1192a1.1599 1.1599 0 0 0 1.1599 1.1599h8.1192a1.1599 1.1599 0 0 0 1.1599 -1.1599v-8.1192a1.1599 1.1599 0 0 0 -1.1599 -1.1599z"
          fill="#ffcdd2"/>
</svg>
