<svg xmlns="http://www.w3.org/2000/svg" clip-rule="evenodd" fill-rule="evenodd" stroke-linejoin="round"
     stroke-miterlimit="1.414" viewBox="0 0 24 24" width="16px" height="16px">
    <path fill="#009688"
          d="M20,18H4V8H20M20,6H12L10,4H4C2.89,4 2,4.89 2,6V18A2,2 0 0,0 4,20H20A2,2 0 0,0 22,18V8C22,6.89 21.1,6 20,6Z"/>
    <path d="M12.375 11.124V9.549h1.05v1.575H15v1.05h-1.575v1.575h-1.05v-1.575H10.8v-1.05zm1.575 3.15v-1.575h1.575v-1.575H19.2l.96 1.05h1.665c.578 0 1.05.473 1.05 1.05v6.3c0 .578-.472 1.05-1.05 1.05h-8.4c-.578 0-1.05-.473-1.05-1.05v-5.25zm3.675 4.725a2.626 2.626 0 0 0 0-5.25 2.626 2.626 0 0 0 0 5.25zm-1.68-2.625c0 .93.75 1.68 1.68 1.68.93 0 1.68-.75 1.68-1.68 0-.93-.75-1.68-1.68-1.68-.93 0-1.68.75-1.68 1.68z"
          fill-rule="nonzero" fill="#b2dfdb"/>
</svg>
