<svg xmlns="http://www.w3.org/2000/svg" clip-rule="evenodd" fill-rule="evenodd" stroke-linejoin="round"
     stroke-miterlimit="1.414" viewBox="0 0 24 24" width="16px" height="16px">
    <path fill="#66BB6A"
          d="M20,18H4V8H20M20,6H12L10,4H4C2.89,4 2,4.89 2,6V18A2,2 0 0,0 4,20H20A2,2 0 0,0 22,18V8C22,6.89 21.1,6 20,6Z"/>

    <path fill="#C8E6C9"
          d="M21.355 19.603c.61 0 1.103-.498 1.103-1.108l.006-5.542c0-.615-.499-1.108-1.109-1.108h-8.867c-.615 0-1.108.493-1.108 1.108v5.542c0 .61.493 1.108 1.108 1.108h-2.216v1.109h13.3v-1.109zm-3.88-1.956v-1.213c-1.54 0-2.554.47-3.325 1.507.31-1.48 1.17-2.954 3.326-3.253v-1.18l2.216 2.067z"/>
</svg>