<?xml version="1.0" encoding="UTF-8"?>
<svg clip-rule="evenodd" fill-rule="evenodd" stroke-linejoin="round" stroke-miterlimit="1.4142"
     version="1.1" viewBox="0 0 24 24" width="16px" height="16px"
     xml:space="preserve" xmlns="http://www.w3.org/2000/svg">
<path fill="#795774"
      d="M20,18H4V8H20M20,6H12L10,4H4C2.89,4 2,4.89 2,6V18A2,2 0 0,0 4,20H20A2,2 0 0,0 22,18V8C22,6.89 21.1,6 20,6Z"/>
    <path id="file_type_shell.svg" class="i-color" fill="#CE93D8"
          d="M13.992,2H2a0.961,0.961,0,0,0-1,.916v9.165a0.961,0.961,0,0,0,1,.917h12a0.961,0.961,0,0,0,1-.917V2.912A0.961,0.961,0,0,0,13.992,2ZM3,8.411L5,6.578,3,4.745l1-.916,3,2.75L4,9.327Zm8,0.917h-4V8.411h4V9.327Z"
          transform="translate(8 9)"/>
</svg>
