<svg clip-rule="evenodd" fill-rule="evenodd" stroke-linejoin="round" stroke-miterlimit="1.414" version="1.1"
     viewBox="0 0 24 24" xmlns="http://www.w3.org/2000/svg" width="16px" height="16px">
    <path fill="#7CB342"
          d="M20,18H4V8H20M20,6H12L10,4H4C2.89,4 2,4.89 2,6V18A2,2 0 0,0 4,20H20A2,2 0 0,0 22,18V8C22,6.89 21.1,6 20,6Z"/>
    <path d="m13.314 11.766h-1.1222v7.8554c0 .61774.50446 1.1222 1.1222 1.1222h7.8554v-1.1222h-7.8554zm8.9776-2.2444h-6.7332c-.61668 0-1.1222.50446-1.1222 1.1222v6.7332c0 .61774.50552 1.1222 1.1222 1.1222h6.7332c.61774 0 1.1222-.50446 1.1222-1.1222v-6.7332c0-.61774-.50446-1.1222-1.1222-1.1222zm-.5611 5.0499h-2.2444v2.2444h-1.1222v-2.2444h-2.2444v-1.1222h2.2444v-2.2444h1.1222v2.2444h2.2444z"
          style="fill:#dcedc8;stroke-width:1.0688"/>
</svg>
