<svg fill="none" version="1.1" viewBox="0 0 24 24" xmlns="http://www.w3.org/2000/svg">
    <path fill="#009688"
          d="M20,18H4V8H20M20,6H12L10,4H4C2.89,4 2,4.89 2,6V18A2,2 0 0,0 4,20H20A2,2 0 0,0 22,18V8C22,6.89 21.1,6 20,6Z"/>

    <g transform="matrix(.73408 0 0 .73408 12.08 9.0017)">
        <path d="m.2 15.99 6.32-12.75 1.58 3.11v3.27l-3.14 6.37zm15.8.01-6.32-12.75-1.58 3.11v3.27l3.13 6.37z"
              style="fill:#41b883"/>
        <path d="m.2.04 3.95 7.98 2.37-4.78-1.58-3.2zm15.8 0-3.95 7.98-2.37-4.78 1.58-3.2z" style="fill:#35495e"/>
    </g>
</svg>
