<svg xmlns="http://www.w3.org/2000/svg" width="16px" height="16px" viewBox="-1 -1 16 16">
    <path id="file_type_access.svg" class="i-color" fill="#D52A29"
          d="M15,11.591V4.082a1.414,1.414,0,0,0-1.11-1.314A9.84,9.84,0,0,0,9.268,2.42V1H8.317L1,2.306V13.7L8.277,15H9.268V13.247a9.885,9.885,0,0,0,4.6-.339A1.42,1.42,0,0,0,15,11.591Zm-9.172-1L5.519,9.372,4.056,9.33,3.769,10.484l-0.932-.068L4.247,5.28,5.358,5.2l1.565,5.481ZM9.268,2.914a9.8,9.8,0,0,1,4.281.238,1.285,1.285,0,0,1,.975.783,1.08,1.08,0,0,1-.756.687,9.412,9.412,0,0,1-4.5.314V2.914Zm0,5.144a12.4,12.4,0,0,0,3.267-.008,3.966,3.966,0,0,0,1.987-.724c-0.032.7,0.049,1.4-.044,2.1a2.131,2.131,0,0,1-1.136.591,11.169,11.169,0,0,1-4.074.156V8.059Zm5.206,3.972a3.1,3.1,0,0,1-1.783.723,11.425,11.425,0,0,1-3.429.013l0.006-2.1a12.357,12.357,0,0,0,3.261-.008,3.978,3.978,0,0,0,1.993-.724C14.489,10.629,14.575,11.337,14.475,12.031Zm0-5.208a2.181,2.181,0,0,1-1.144.589,11.144,11.144,0,0,1-4.063.151V5.454a12.471,12.471,0,0,0,3.258-.007,3.991,3.991,0,0,0,2-.726C14.487,5.421,14.577,6.13,14.475,6.823ZM4.255,8.451s0.4-1.506.506-2.279C4.9,6.943,5.125,7.7,5.306,8.457Z"
          transform="translate(-1 -1)"/>
</svg>
