<svg version="1.1" xmlns="http://www.w3.org/2000/svg" xmlns:xlink="http://www.w3.org/1999/xlink" x="0px" y="0px"
     width="16px" height="16px"
     viewBox="-48 -48 608 608" fill="#7A8387">

    <path class="st0 i-color"
          d="M312.9724121,207.5424805c0,0,2.2106934-24.5756073,50.743927-26.2846832c40.9171448,2.4359589,69.5848389,42.068634,79.3115845,54.743515c0,0-35.4652405,23.5021057-71.9954834-17.3129883C328.9055481,180.8916931,312.9724121,207.5424805,312.9724121,207.5424805z"/>
    <path class="st1 i-color"
          d="M312.9724121,207.5424805c0,0,2.2106934-24.5756073,50.743927-26.2846832c40.9171448,2.4359589,69.5848389,42.068634,79.3115845,54.743515c0,0-35.4652405,23.5021057-71.9954834-17.3129883C328.9055481,180.8916931,312.9724121,207.5424805,312.9724121,207.5424805z"/>
    <path class="st0 i-color"
          d="M312.5106812,220.849411c0,0-4.1448059,17.9983521,19.9196472,31.9161987c16.7887878,9.7099762,7.3470154,12.3740692,7.3470154,12.3740692s7.7943115,1.4107971,20.8937988-10.5087738c18.6053162-16.9296417,9.1490479-30.3481903,9.1490479-30.3481903s-19.6157532-27.821991-37.2114868-6.5060883C332.6087036,217.7766266,327.0419312,224.3078156,312.5106812,220.849411z"/>
    <path class="st1 i-color"
          d="M312.5106812,220.849411c0,0-4.1448059,17.9983521,19.9196472,31.9161987c16.7887878,9.7099762,7.3470154,12.3740692,7.3470154,12.3740692s7.7943115,1.4107971,20.8937988-10.5087738c18.6053162-16.9296417,9.1490479-30.3481903,9.1490479-30.3481903s-19.6157532-27.821991-37.2114868-6.5060883C332.6087036,217.7766266,327.0419312,224.3078156,312.5106812,220.849411z"/>
    <path class="st0 i-color"
          d="M376.7386475,229.5398254c0,0,2.5874023,26.7101135-34.1583862,37.9992981c0,0,37.6686707-14.2524109,78.7260437,20.8288574c0,0,4.297699-32.1835632,23.8536987-48.692749C442.9347839,240.3193207,412.3831482,260.4619751,376.7386475,229.5398254z"/>
    <path class="st1 i-color"
          d="M376.7386475,229.5398254c0,0,2.5874023,26.7101135-34.1583862,37.9992981c0,0,37.6686707-14.2524109,78.7260437,20.8288574c0,0,4.297699-32.1835632,23.8536987-48.692749C442.9347839,240.3193207,412.3831482,260.4619751,376.7386475,229.5398254z"/>
    <path class="st0 i-color"
          d="M314.9327393,215.4008484c0,0,12.2541809,11.7436829,23.467865-10.8352966C338.4006042,204.5655518,324.4667664,194.8516388,314.9327393,215.4008484z"/>
    <path class="st2 i-color"
          d="M314.9327393,215.4008484c0,0,12.2541809,11.7436829,23.467865-10.8352966C338.4006042,204.5655518,324.4667664,194.8516388,314.9327393,215.4008484z"/>
    <path class="st0 i-color"
          d="M324.9747925,210.5650482c0.4594727,1.5313263-0.2626343,3.0895844-1.6140747,3.4810181c-1.3516541,0.3914185-2.8198853-0.5325012-3.2802124-2.063797c-0.4594727-1.5306854,0.2634277-3.0889587,1.6148987-3.4803925C323.0470581,208.1106262,324.5153198,209.0343475,324.9747925,210.5650482z"/>
    <path class="st0 i-color"
          d="M501.8789368,352.2329407c2.398407-51.9615173,1.5143127-90.7306519-34.1318665-114.7909851c-45.8412781-52.1859894-99.7305603-123.3065262-88.4009399-209.4473724c8.1882019-62.2542343,12.6838074-1.2432098,12.6838074-1.2432098s10.1352234,88.776207,43.5310974,117.2900238C520.6446533,219.1534119,520.7435303,260.3680115,501.8789368,352.2329407z"/>
    <path class="st1 i-color"
          d="M501.8789368,352.2329407c2.398407-51.9615173,1.5143127-90.7306519-34.1318665-114.7909851c-45.8412781-52.1859894-99.7305603-123.3065262-88.4009399-209.4473724c8.1882019-62.2542343,12.6838074-1.2432098,12.6838074-1.2432098s10.1352234,88.776207,43.5310974,117.2900238C520.6446533,219.1534119,520.7435303,260.3680115,501.8789368,352.2329407z"/>
    <path class="st0 i-color"
          d="M363.3312988,73.1527557c0,0,12.2542114,60.1196899,44.8375244,97.4278107c34.2328796,39.1976776,25.7497253,30.5249023,54.4223938,66.4100037c0,0-3.1885071-2.8804779-12.884613,0.0713654c0,0-26.2149353-39.6847534-52.0920105-51.7744446c0,0-32.4381104-33.2377625-37.4929504-69.0394974C351.9132996,58.1110191,359.394989,51.1942101,363.3312988,73.1527557z"/>
    <path class="st1 i-color"
          d="M363.3312988,73.1527557c0,0,12.2542114,60.1196899,44.8375244,97.4278107c34.2328796,39.1976776,25.7497253,30.5249023,54.4223938,66.4100037c0,0-3.1885071-2.8804779-12.884613,0.0713654c0,0-26.2149353-39.6847534-52.0920105-51.7744446c0,0-32.4381104-33.2377625-37.4929504-69.0394974C351.9132996,58.1110191,359.394989,51.1942101,363.3312988,73.1527557z"/>
    <path class="st0 i-color"
          d="M391.1433716,181.8396759c0,0-29.217041-32.7743378-32.0547791-41.8084869c-5.0108643-15.954895-6.881134-20.5403061-8.5001831-6.8412933c-0.8977966,7.6021729,4.6171265,42.6633148,20.0308228,44.2651672C380.8492432,178.5181885,391.1433716,181.8396759,391.1433716,181.8396759z"/>
    <path class="st3 i-color"
          d="M391.1433716,181.8396759c0,0-29.217041-32.7743378-32.0547791-41.8084869c-5.0108643-15.954895-6.881134-20.5403061-8.5001831-6.8412933c-0.8977966,7.6021729,4.6171265,42.6633148,20.0308228,44.2651672C380.8492432,178.5181885,391.1433716,181.8396759,391.1433716,181.8396759z"/>
    <path class="st0 i-color"
          d="M0.2306412,130.9200745c-1.8937013,25.2636871,8.0925703,68.6708832,21.9178982,86.9911957c27.1191959,55.4651642,102.2880859,120.9363251,205.9583282,101.2077179c32.2225647-9.194458,60.2738037,5.7759399,80.3894653,22.935791c19.3469238,19.7138977,26.1282654,23.0967712,39.3769226,15.2936096c-13.7388611-13.3067627-28.4457703-28.8590088-28.1396179-49.3613281c0.9652405-14.8861694,6.3909912-29.475708,15.9412231-37.4263916c-9.4286804-33.0855103-62.2614746-34.6834106-85.8023529-32.3182068c-30.4853058,2.059845-61.0952759,17.7902832-88.3223267,20.793396c-75.6030655-6.1924591-130.4073486-58.2334595-148.209671-138.3499298C5.7932978,83.7856216,2.1235127,105.656456,0.2306412,130.9200745z"/>
    <path class="st4 i-color"
          d="M0.2306412,130.9200745c-1.8937013,25.2636871,8.0925703,68.6708832,21.9178982,86.9911957c27.1191959,55.4651642,102.2880859,120.9363251,205.9583282,101.2077179c32.2225647-9.194458,60.2738037,5.7759399,80.3894653,22.935791c19.3469238,19.7138977,26.1282654,23.0967712,39.3769226,15.2936096c-13.7388611-13.3067627-28.4457703-28.8590088-28.1396179-49.3613281c0.9652405-14.8861694,6.3909912-29.475708,15.9412231-37.4263916c-9.4286804-33.0855103-62.2614746-34.6834106-85.8023529-32.3182068c-30.4853058,2.059845-61.0952759,17.7902832-88.3223267,20.793396c-75.6030655-6.1924591-130.4073486-58.2334595-148.209671-138.3499298C5.7932978,83.7856216,2.1235127,105.656456,0.2306412,130.9200745z"/>
    <path class="st0 i-color"
          d="M69.2523117,303.0021057c53.4331131,31.787384,107.0193253,42.2460022,151.2206116,25.8648376c0,0,40.3547668-24.5237427,96.87854,26.9905701c0,0-63.4582062,33.7296143-124.1192932,31.4996643c-21.9519043-0.8069458-90.7306671-15.2442017-135.5275269-61.0645447c-40.691864-41.6228638-41.3473701-85.0755157-23.0749893-57.536438C52.6313438,295.8859253,69.2523117,303.0021057,69.2523117,303.0021057z"/>
    <path class="st1 i-color"
          d="M69.2523117,303.0021057c53.4331131,31.787384,107.0193253,42.2460022,151.2206116,25.8648376c0,0,40.3547668-24.5237427,96.87854,26.9905701c0,0-63.4582062,33.7296143-124.1192932,31.4996643c-21.9519043-0.8069458-90.7306671-15.2442017-135.5275269-61.0645447c-40.691864-41.6228638-41.3473701-85.0755157-23.0749893-57.536438C52.6313438,295.8859253,69.2523117,303.0021057,69.2523117,303.0021057z"/>
    <path class="st0 i-color"
          d="M162.7688751,396.4431763c77.9358978,7.3584595,124.4293671-19.3508606,158.3301544-35.1113586c5.6811218,40.5323486-61.9590454,71.0240479-110.2126312,66.6719971c-32.2736206-1.5680237-77.4320374-8.6791992-105.4936218-37.8955688c-2.7056122-2.8165894-21.2308655-26.4394531,8.3858871-8.1929932C132.9625244,391.0302734,146.6470032,393.208374,162.7688751,396.4431763z"/>
    <path class="st5 i-color"
          d="M162.7688751,396.4431763c77.9358978,7.3584595,124.4293671-19.3508606,158.3301544-35.1113586c5.6811218,40.5323486-61.9590454,71.0240479-110.2126312,66.6719971c-32.2736206-1.5680237-77.4320374-8.6791992-105.4936218-37.8955688c-2.7056122-2.8165894-21.2308655-26.4394531,8.3858871-8.1929932C132.9625244,391.0302734,146.6470032,393.208374,162.7688751,396.4431763z"/>
    <path class="st0 i-color"
          d="M329.8178406,364.2788696c14.7080078,29.7285767,26.6590881,36.0643616,67.6760254,53.9915466c25.0099487,11.4358521,33.2102051,18.0056152,27.3751831,28.4204407c0,0,31.0955505-16.6444092,45.6137085-38.5071106c0,0-78.7890625-13.9632568-119.7346191-48.8817139C340.3859863,367.8281555,329.8178406,364.2788696,329.8178406,364.2788696z"/>
    <path class="st1 i-color"
          d="M329.8178406,364.2788696c14.7080078,29.7285767,26.6590881,36.0643616,67.6760254,53.9915466c25.0099487,11.4358521,33.2102051,18.0056152,27.3751831,28.4204407c0,0,31.0955505-16.6444092,45.6137085-38.5071106c0,0-78.7890625-13.9632568-119.7346191-48.8817139C340.3859863,367.8281555,329.8178406,364.2788696,329.8178406,364.2788696z"/>
    <path class="st0 i-color"
          d="M326.6683044,367.2236633c0,0,1.2770081,34.7888184-48.2875977,57.620697c-35.6729126,16.4330139,9.2276611,10.2382812,32.118042-0.8855896c23.5417175-11.4408264,28.6676941-27.5180664,25.2918396-40.7202759C333.2131958,373.1599426,329.249054,370.0134888,326.6683044,367.2236633z"/>
    <path class="st6 i-color"
          d="M326.6683044,367.2236633c0,0,1.2770081,34.7888184-48.2875977,57.620697c-35.6729126,16.4330139,9.2276611,10.2382812,32.118042-0.8855896c23.5417175-11.4408264,28.6676941-27.5180664,25.2918396-40.7202759C333.2131958,373.1599426,329.249054,370.0134888,326.6683044,367.2236633z"/>
    <path class="st0 i-color"
          d="M501.0935974,355.6216736c0,0-14.3464355,40.2688904-27.5357666,51.4535217c0,0,8.4305115,2.0046692,11.4269714,19.9343872C493.5772705,405.9641418,501.0935974,355.6216736,501.0935974,355.6216736z"/>
    <path class="st1 i-color"
          d="M501.0935974,355.6216736c0,0-14.3464355,40.2688904-27.5357666,51.4535217c0,0,8.4305115,2.0046692,11.4269714,19.9343872C493.5772705,405.9641418,501.0935974,355.6216736,501.0935974,355.6216736z"/>
    <path class="st0 i-color"
          d="M472.3544617,412.0561829c0,0,14.0508423,48.1011353-50.0346375,101.3390808c-28.1546936,23.3902588-57.3597107,34.6858521-91.0351868,41.4234619c0,0-66.6742859,10.9473877-81.9348755-36.2651367c0,0,13.6738892,8.0853271,49.1652832,5.6696777C398.441864,517.4224854,463.4168091,462.3354187,472.3544617,412.0561829z"/>
    <path class="st1 i-color"
          d="M472.3544617,412.0561829c0,0,14.0508423,48.1011353-50.0346375,101.3390808c-28.1546936,23.3902588-57.3597107,34.6858521-91.0351868,41.4234619c0,0-66.6742859,10.9473877-81.9348755-36.2651367c0,0,13.6738892,8.0853271,49.1652832,5.6696777C398.441864,517.4224854,463.4168091,462.3354187,472.3544617,412.0561829z"/>
    <path class="st0 i-color"
          d="M286.1434326,494.3547058c0,0,8.8702698,21.3887634,37.1314087,20.9545593c48.838562-0.7513428,128.14151-44.0643921,142.7527771-96.1596985c0,0-41.0532227,48.7771606-115.8895569,66.2853088C301.5262146,496.8074341,286.1434326,494.3547058,286.1434326,494.3547058z"/>
    <path class="st1 i-color"
          d="M286.1434326,494.3547058c0,0,8.8702698,21.3887634,37.1314087,20.9545593c48.838562-0.7513428,128.14151-44.0643921,142.7527771-96.1596985c0,0-41.0532227,48.7771606-115.8895569,66.2853088C301.5262146,496.8074341,286.1434326,494.3547058,286.1434326,494.3547058z"/>
    <path class="st0 i-color"
          d="M477.3477173,414.4060669c15.7929077,15.356842,11.5119934,133.6994019-105.8031006,163.7664185c0,0-46.8089905,14.960083-82.349762-12.8577881c46.7337036,5.833313,115.8786011-24.6973877,143.4109802-52.8035278C463.2492371,481.2301025,481.7817078,449.1098328,477.3477173,414.4060669z"/>
    <path class="st1 i-color"
          d="M477.3477173,414.4060669c15.7929077,15.356842,11.5119934,133.6994019-105.8031006,163.7664185c0,0-46.8089905,14.960083-82.349762-12.8577881c46.7337036,5.833313,115.8786011-24.6973877,143.4109802-52.8035278C463.2492371,481.2301025,481.7817078,449.1098328,477.3477173,414.4060669z"/>
    <path class="st0 i-color"
          d="M158.5941925,219.4450531c58.4900208-24.3836975,109.9080963-23.889389,152.9635162-11.7501068c0,0-1.8903809,4.1267853-5.6591187,3.2306366c-1.3265686-0.3153076,0.3872681,2.8132782,6.1582031,9.4423676C268.1911316,202.6353302,215.8219604,205.8020782,158.5941925,219.4450531z"/>
    <path class="st7 i-color"
          d="M158.5941925,219.4450531c58.4900208-24.3836975,109.9080963-23.889389,152.9635162-11.7501068c0,0-1.8903809,4.1267853-5.6591187,3.2306366c-1.3265686-0.3153076,0.3872681,2.8132782,6.1582031,9.4423676C268.1911316,202.6353302,215.8219604,205.8020782,158.5941925,219.4450531z"/>
    <path class="st0 i-color"
          d="M419.9691467,292.2574463c0,0-9.4570923-9.2504883-24.4735413-16.0716858c-7.5075989-3.4104614-17.1712952-6.744812-26.2068481-6.9506226c-11.0873718-0.2520142-20.9147644-1.925415-32.5151062,7.0576477c-37.6134644,46.2140808,11.3232117,102.7312012,128.8140259,126.2511292C453.1065369,401.4693909,317.6520386,266.7118835,419.9691467,292.2574463z"/>
    <path class="st8 i-color"
          d="M419.9691467,292.2574463c0,0-9.4570923-9.2504883-24.4735413-16.0716858c-7.5075989-3.4104614-17.1712952-6.744812-26.2068481-6.9506226c-11.0873718-0.2520142-20.9147644-1.925415-32.5151062,7.0576477c-37.6134644,46.2140808,11.3232117,102.7312012,128.8140259,126.2511292C453.1065369,401.4693909,317.6520386,266.7118835,419.9691467,292.2574463z"/>
    <path class="st0 i-color"
          d="M423.787262,290.4448547c0,0,1.538147-11.0193176,7.2190552-24.4857788c5.6810913-13.4672699,16.1129456-28.4619446,31.4349365-25.1883545c23.0063171,8.9862061,46.0196838,47.0786743,33.6503906,117.1213379c-6.3090515,22.3166199-21.5905762,43.3277893-21.5905762,43.3277893C477.2359619,401.7311707,471.0507507,196.6374817,423.787262,290.4448547z"/>
    <path class="st8 i-color"
          d="M423.787262,290.4448547c0,0,1.538147-11.0193176,7.2190552-24.4857788c5.6810913-13.4672699,16.1129456-28.4619446,31.4349365-25.1883545c23.0063171,8.9862061,46.0196838,47.0786743,33.6503906,117.1213379c-6.3090515,22.3166199-21.5905762,43.3277893-21.5905762,43.3277893C477.2359619,401.7311707,471.0507507,196.6374817,423.787262,290.4448547z"/>
    <path class="st0 i-color"
          d="M424.8634338,297.5925293c-41.9729919-15.3584595-57.5202637,19.0000916,47.9084473,108.0702209C470.546875,356.5235901,461.5727234,223.2494812,424.8634338,297.5925293z"/>
    <path class="st8 i-color"
          d="M424.8634338,297.5925293c-41.9729919-15.3584595-57.5202637,19.0000916,47.9084473,108.0702209C470.546875,356.5235901,461.5727234,223.2494812,424.8634338,297.5925293z"/>
</svg>
