<svg xmlns="http://www.w3.org/2000/svg" width="16px" height="16px" viewBox="0 0 16 16">
    <path id="file_type_ae.svg" class="i-color" fill="#7963E6"
          d="M11.642,6.861a1.578,1.578,0,0,1,.167.772H9.961a1.067,1.067,0,0,1,1-1.151A0.668,0.668,0,0,1,11.642,6.861Zm-6.8.984H6.417L5.6,4.756C5.5,5.455,5.136,6.645,4.842,7.845ZM15,1V15H1V1H15ZM8.5,11L6.338,3.7h-1.5a2.057,2.057,0,0,1-.03.409,0.716,0.716,0,0,0-.03.2L2.869,11H4l0.539-2.06h2.12L7.252,11H8.5Zm4.426-3.3a2.866,2.866,0,0,0-.424-1.454,1.6,1.6,0,0,0-1.514-.727,1.909,1.909,0,0,0-1.651.833,3.606,3.606,0,0,0-.03,3.907,2.078,2.078,0,0,0,1.863.833,3.212,3.212,0,0,0,1.333-.242,0.173,0.173,0,0,0,.06-0.151V9.875c0-.057-0.032-0.059-0.091-0.061a2.3,2.3,0,0,1-1.885.028,1.414,1.414,0,0,1-.629-1.3h1.726q0.454,0,.727-0.015a2.312,2.312,0,0,0,.394-0.045,0.062,0.062,0,0,0,.046-0.015L12.9,8.421c0-.061,0-0.156.015-0.288S12.929,7.856,12.929,7.694Z"/>
</svg>
