<?xml version="1.0" encoding="UTF-8"?><!DOCTYPE svg PUBLIC "-//W3C//DTD SVG 1.1//EN"
        "http://www.w3.org/Graphics/SVG/1.1/DTD/svg11.dtd">
<svg version="1.1" xmlns="http://www.w3.org/2000/svg" xmlns:xlink="http://www.w3.org/1999/xlink" x="0px" y="0px"
     width="16px" height="16px" viewBox="-48 -48 608 608">
    <path class="i-color" fill="#009688"
          d="M421.4154358,309.5281982c-7.2089539,0-14.1868896,0.9381104-20.9093018,2.5398254l-0.6360474-1.0049133l-83.5416565-131.8939972c18.5275879-16.6985321,30.256134-40.8878632,30.256134-67.8939896c0-50.3664207-40.5557556-91.1966934-90.5845642-91.1966934c-50.028183,0-90.5845642,40.8302689-90.5845642,91.1966934c0,27.0061264,11.727951,51.1954575,30.256134,67.8939896l-83.5416641,131.8939972l-0.6360321,1.0049133c-6.7224274-1.6017151-13.7003708-2.5398254-20.909317-2.5398254C40.5563736,309.5281982,0,350.3584595,0,400.724884s40.5563736,91.1966858,90.5845566,91.1966858c50.028801,0,90.5845566-40.8302612,90.5845566-91.1966858c0-34.5073547-19.0447235-64.525116-47.121933-80.0159302l81.1378632-128.098053C227.4613953,198.8682556,241.2990265,202.471817,256,202.471817c14.7009888,0,28.5392151-3.6035614,40.8155518-9.8609161l81.1372681,128.098053c-28.0772095,15.4908142-47.1219482,45.5085754-47.1219482,80.0159302c0,50.3664246,40.5557556,91.1966858,90.5845642,91.1966858C471.443634,491.9215698,512,451.0913086,512,400.724884S471.443634,309.5281982,421.4154358,309.5281982z M90.352951,443.7911072c-23.3189163,0-42.2224655-18.9035645-42.2224655-42.2224731s18.9035492-42.2224731,42.2224655-42.2224731s42.2224731,18.9035645,42.2224731,42.2224731S113.6718597,443.7911072,90.352951,443.7911072z"/>
</svg>
