<svg version="1.1" viewBox="0 0 24 24" width="16px" height="16px" xmlns="http://www.w3.org/2000/svg">
    <path d="m1.6992 1.5469v20.904h3.3828v-2.0879h-1.6914v-16.727h1.6914v-2.0898zm17.219 0v2.0898h1.6934v16.727h-1.6934v2.0898h3.3828v-20.906z"
          fill="#ff6e40"/>
    <path d="m15.165 4.0077c-.4999 0-.9297.075595-1.2894.22496-.35969.14936-.65231.37249-.87788.67121-.22556.30177-.39017.67243-.49381 1.1083-.10364.43589-.15546.94859-.15546 1.5399 0 .57306.04938 1.0821.14997 1.5271.10059.44199.26458.81143.49015 1.1101.22252.29872.5127.52429.87239.6767.35968.15241.79496.23044 1.304.23044.51819 0 .95408-.0756 1.3077-.22496.35359-.15241.64317-.37554.86873-.67121.21947-.28958.38102-.66084.48466-1.112.10364-.45418.15546-.96688.15546-1.5399s-.05121-1.0784-.1518-1.5143c-.10059-.43894-.26214-.80777-.48466-1.1065-.22557-.30482-.51514-.53343-.86873-.68584-.35359-.15546-.79009-.2341-1.3113-.2341zm-6.8145.12071c-.012193.18289-.057916.3353-.13717.45723-.079253.12193-.19813.22008-.35664.29628-.13412.064012-.30177.10973-.50295.13717-.20118.024385-.4115.036578-.63097.036578v1.1101h1.4357v3.5993h-1.4357v1.1888h4.5448v-1.1888h-1.4046v-5.6367zm6.8145 1.1376c.37493 0 .64317.17618.80472.52673.16155.34749.24142.93274.24142 1.7558 0 .81386-.0823 1.3991-.2469 1.7558-.1646.35664-.4304.53404-.79923.53404s-.63646-.1774-.80106-.53404-.2469-.94067-.2469-1.7484c0-.82911.08169-1.4156.24325-1.7631.16155-.35054.42979-.52673.80472-.52673zm-6.3299 7.6394c-.4999 0-.9297.07377-1.2894.22313-.35969.14936-.65231.37432-.87788.67304-.22557.30177-.39017.6706-.49381 1.1065s-.15546.94859-.15546 1.5399c0 .57306.04938 1.0821.14997 1.5271.10059.44199.26458.81325.49015 1.112.22252.29872.51453.52429.87422.6767s.79314.22861 1.3022.22861c.51819 0 .95408-.0756 1.3077-.22496.35359-.15241.64317-.37553.86873-.67121.21947-.28958.38102-.66084.48466-1.112.10364-.45418.15546-.96688.15546-1.5399s-.04938-1.0784-.14997-1.5143c-.10059-.43894-.26397-.80777-.48649-1.1065-.22556-.30482-.51331-.53343-.8669-.68584-.35359-.15546-.79192-.23227-1.3132-.23227zm5.8452.11888c-.01219.18289-.05792.3353-.13717.45723-.07926.12193-.19813.22008-.35664.29628-.13412.06401-.30177.10973-.50295.13717-.20118.02438-.4115.03658-.63097.03658v1.112h1.4357v3.5975h-1.4357v1.1888h4.5448v-1.1888h-1.4046v-5.6367h-1.5125zm-5.8452 1.1376c.37493 0 .64317.17618.80472.52673.16155.34749.24142.93274.24142 1.7558 0 .81386-.080471 1.3991-.24507 1.7558-.1646.35664-.43223.53404-.80106.53404s-.63646-.1774-.80106-.53404-.24507-.93884-.24507-1.7466c0-.82911.079862-1.4174.24142-1.7649.16155-.35054.42979-.52673.80472-.52673z"
          fill="#ff6e40"/>
</svg>
