<svg version="1.1" id="Capa_1" xmlns="http://www.w3.org/2000/svg"
     xmlns:xlink="http://www.w3.org/1999/xlink" x="0px" y="0px"
     width="16px" height="16px" viewBox="0 0 439.875 439.875"
     xml:space="preserve">
<g fill="#1E9CEF">
    <path d="M114.75,172.125H95.625c-11.475,0-19.125,7.65-19.125,19.125v19.125h57.375V191.25
C133.875,179.775,126.225,172.125,114.75,172.125z"/>
    <path d="M344.25,172.125H306v38.25h38.25c11.475,0,19.125-7.65,19.125-19.125S355.725,172.125,344.25,172.125z"/>
    <path d="M382.5,95.625H57.375C24.862,95.625,0,120.487,0,153v133.875c0,32.513,24.862,57.375,57.375,57.375H382.5
c32.513,0,57.375-24.862,57.375-57.375V153C439.875,120.487,415.013,95.625,382.5,95.625z M153,229.5v57.375h-19.125V229.5H76.5
v57.375H57.375v-66.938V191.25c0-21.038,17.212-38.25,38.25-38.25h19.125c21.038,0,38.25,17.212,38.25,38.25V229.5z
 M210.375,210.375H229.5c21.037,0,38.25,17.213,38.25,38.25s-17.213,38.25-38.25,38.25h-19.125
c-21.038,0-38.25-17.213-38.25-38.25l0,0h19.125l0,0c0,9.562,7.65,19.125,19.125,19.125H229.5c11.475,0,19.125-7.65,19.125-19.125
S239.062,229.5,229.5,229.5h-19.125c-21.038,0-38.25-17.213-38.25-38.25c0-21.038,17.212-38.25,38.25-38.25H229.5
c21.037,0,38.25,17.212,38.25,38.25h-19.125c0-9.562-7.65-19.125-19.125-19.125h-19.125c-11.475,0-19.125,7.65-19.125,19.125
S200.812,210.375,210.375,210.375z M344.25,229.5H306v57.375h-19.125V191.25V153h57.375c21.037,0,38.25,17.212,38.25,38.25
C382.5,212.287,365.287,229.5,344.25,229.5z"/>
</g>
</svg>
