<svg xmlns="http://www.w3.org/2000/svg" width="16px" height="16px" viewBox="0 -1 16 16">
    <path id="file_type_audio.svg" class="i-color" fill="#D52A29"
          d="M7.462,3.409v9.181a0.535,0.535,0,0,1-.917.38l-2.8-2.81h-2.2A0.547,0.547,0,0,1,1,9.62V6.38a0.547,0.547,0,0,1,.538-0.54h2.2l2.8-2.81A0.538,0.538,0,0,1,7.462,3.409ZM10.692,8a2.157,2.157,0,0,1-.358,1.194,1.989,1.989,0,0,1-.946.789,0.466,0.466,0,0,1-.21.042A0.524,0.524,0,0,1,8.8,9.869a0.516,0.516,0,0,1-.16-0.384,0.455,0.455,0,0,1,.1-0.3,0.987,0.987,0,0,1,.244-0.211q0.143-.089.286-0.194a0.851,0.851,0,0,0,.244-0.3,1.2,1.2,0,0,0,0-.962,0.851,0.851,0,0,0-.244-0.3Q9.127,7.114,8.984,7.025A0.987,0.987,0,0,1,8.74,6.814a0.455,0.455,0,0,1-.1-0.3A0.516,0.516,0,0,1,8.8,6.131a0.524,0.524,0,0,1,.379-0.156,0.467,0.467,0,0,1,.21.042,1.934,1.934,0,0,1,.946.785A2.177,2.177,0,0,1,10.692,8Zm2.154,0a4.267,4.267,0,0,1-.715,2.384,4.153,4.153,0,0,1-1.893,1.591,0.584,0.584,0,0,1-.21.042,0.526,0.526,0,0,1-.387-0.16,0.52,0.52,0,0,1-.16-0.38,0.535,0.535,0,0,1,.328-0.5,5.216,5.216,0,0,0,.639-0.371,3.232,3.232,0,0,0,0-5.215,5.224,5.224,0,0,0-.639-0.371,0.535,0.535,0,0,1-.328-0.5,0.547,0.547,0,0,1,.538-0.54,0.6,0.6,0,0,1,.219.042,4.153,4.153,0,0,1,1.893,1.591A4.267,4.267,0,0,1,12.846,8ZM15,8a6.5,6.5,0,0,1-3.912,5.958,0.6,0.6,0,0,1-.219.042,0.547,0.547,0,0,1-.538-0.54,0.571,0.571,0,0,1,.328-0.5,1.884,1.884,0,0,1,.189-0.089,1.906,1.906,0,0,0,.189-0.089,6.388,6.388,0,0,0,.69-0.43,5.416,5.416,0,0,0,0-8.709,6.4,6.4,0,0,0-.69-0.43,1.9,1.9,0,0,0-.189-0.089,1.875,1.875,0,0,1-.189-0.089,0.571,0.571,0,0,1-.328-0.5A0.547,0.547,0,0,1,10.869,2a0.6,0.6,0,0,1,.219.042A6.5,6.5,0,0,1,15,8Z"
          transform="translate(0 -1)"/>
</svg>
