<svg version="1.1" xmlns="http://www.w3.org/2000/svg" xmlns:xlink="http://www.w3.org/1999/xlink" x="0px" y="0px"
     width="16px" height="16px" viewBox="-48 -48 608 608" preserveAspectRatio="xMidYMid meet">
    <path id="file_type_ai.svg" class="i-color" fill="#F13C6F"
          d="M287.7641907,130.6092072l-48.9529724-73.3616104l47.5188599-31.714777l48.9529724,73.3616104L287.7641907,130.6092072z M455.1073914,440.9534302l-96.7179565,64.5438843l-95.3555603-142.8899536l96.7198792-64.5438538L455.1073914,440.9534302z M269.9737244,427.3663635l-73.6174164,49.1273804l-32.0403595-48.0111084l73.6193695-49.1273804L269.9737244,427.3663635z M434.7859192,247.9923553l32.0384216,48.0110931l-47.5246887,31.7147827l-32.0384216-48.0111084L434.7859192,247.9923553z M138.4402924,230.2619019l-73.6174316,49.1254578L15.866024,206.0257263l73.6174164-49.1273651L138.4402924,230.2619019z M260.258728,148.9682159l-96.7198792,64.543869L68.4681702,71.0465698L165.1880646,6.502696L260.258728,148.9682159z M53.4715576,109.4981842L71.7271957,136.85466l-27.3564796,18.2556305l-18.2556343-27.3564682L53.4715576,109.4981842z M152.0578461,437.4501648l18.2556305,27.3564758l-27.3564758,18.2556458l-18.2556381-27.3564758L152.0578461,437.4501648z M0,344.0073242L428.0158691,57.7312851L512,176.7943115L80.0912323,465.0009766L0,344.0073242z"/>
</svg>
