<svg version="1.1" viewBox="0 0 24 24" width="16px" height="16px" xmlns="http://www.w3.org/2000/svg">
    <path d="m15.787 13.71c-.27458 0-.58704 0-.91844.04734 1.0983.79535 1.8653 1.8463 1.8653 3.2666v2.3671h5.681v-2.3671c0-2.2061-4.4217-3.3139-6.6279-3.3139m-7.5747 0c-2.2061 0-6.6279 1.1078-6.6279 3.3139v2.3671h13.256v-2.3671c0-2.2061-4.4217-3.3139-6.6279-3.3139m0-1.8937a2.8405 2.8405 0 0 0 2.8405 -2.8405 2.8405 2.8405 0 0 0 -2.8405 -2.8405 2.8405 2.8405 0 0 0 -2.8405 2.8405 2.8405 2.8405 0 0 0 2.8405 2.8405m7.5747 0a2.8405 2.8405 0 0 0 2.8405 -2.8405 2.8405 2.8405 0 0 0 -2.8405 -2.8405 2.8405 2.8405 0 0 0 -2.8405 2.8405 2.8405 2.8405 0 0 0 2.8405 2.8405z"
          stroke-width=".94684" fill="#F78AE0"/>
</svg>
