<svg width="16px" height="16px" version="1.1" viewBox="0 0 24 24"
     xmlns="http://www.w3.org/2000/svg">
    <g transform="matrix(.0555 0 0 .0555 -59.538 -26.404)">
        <path d="m1289 511.79a180.18 180.18 0 0 0 -180.17 180.17 180.18 180.18 0 0 0 180.17 180.17 180.18 180.18 0 0 0 180.2 -180.17 180.18 180.18 0 0 0 -180.2 -180.17zm2.5074 79.61c7.7094 0 14.132 1.7855 19.3 5.3117 5.1681 3.5302 9.5527 7.9149 13.164 13.164l102.87 148.86h-191.45l30.749-42.329h56.746c5.3293 0 9.9521.16723 13.89.49494-2.2996-2.9532-4.9504-6.6698-7.984-11.184-3.0379-4.5106-5.9554-8.7314-8.7429-12.669l-29.528-43.549-77.3 109.24h-60.276l105.57-148.86c3.4453-4.7567 7.7789-9.0251 13.032-12.801 5.2484-3.7723 11.92-5.6746 19.96-5.6746z"
              fill="#1976d2" stroke-width=".43946"/>
    </g>
</svg>
