<svg version="1.1" xmlns="http://www.w3.org/2000/svg" xmlns:xlink="http://www.w3.org/1999/xlink" x="0px" y="0px"
     width="16px" height="16px" viewBox="-48 -48 608 608">
    <path id="file_type_ai.svg" class="i-color" fill="#FBC02D"
          d="M259.7146301,244.2533264l-81.9879913,35.2151184l75.9353485,32.4642944l88.0406189-32.4642944L259.7146301,244.2533264z M135.0479431,287.8944702l0.0375519,158.8444824l118.5744629,52.8226929V335.042572L135.0479431,287.8944702z M382.9681702,288.2742004l-108.3990479,41.2661133v155.1685181l108.3990479-44.0191956V288.2742004z M124.6301346,18.292799L42.6466293,53.5079346l75.9308548,32.4637299l88.0406342-32.4637299L124.6301346,18.292799z M0,220.7840271L118.5754623,273.60672V109.0876541L0,62.3148079V220.7840271z M247.8836517,62.3136711l-108.3990479,41.2661171v155.1685333l108.3990479-44.0191956V62.3136711z M388.74646,12.4383488l-81.9879761,35.2151413l75.9353333,32.4614868l88.0350342-32.4614868L388.74646,12.4383488z M264.1155396,56.4572754v158.4667053l118.5726624,52.8226929V103.2276077L264.1155396,56.4572754z M512,56.4592209L403.6009521,97.7253342v155.1685486L512,208.8746643V56.4592209z"/>
</svg>
