<svg enable-background="new 0 0 40 40" version="1.1" viewBox="0 0 40 40" xml:space="preserve"
     xmlns="http://www.w3.org/2000/svg" width="16px" height="16px">
    <g transform="matrix(.94356 0 0 .94356 1.1289 1.1289)"><path id="Flame" d="m4.0749 27.963h2.3888v5.5738h5.5738v2.3888h-7.9626z" style="fill:#64b5f6;stroke-width:.79626"/>
        <path
                id="Wings"
                d="m4.0749 13.365v7.2993l4.6446 4.7831 1.9906-2.1284 5.9719 5.9719-1.9906 1.9906 4.6454 4.6438h7.2993c.73256 0 1.3266-.59401 1.3266-1.3274v-10.616l-11.944-11.944h-10.616c-.73335 0-1.3274.59401-1.3274 1.3274z"
                style="fill:#1565c0;stroke-width:.79626"/>
        <path id="Body"
              d="m9.8214 23.232c-.4475-.4475-.51677-1.149-.16562-1.6753l10.883-16.301c.49209-.73813 1.321-1.1808 2.2072-1.1808h11.851c.73335 0 1.3274.59401 1.3274 1.3274v11.851c0 .88703-.44272 1.7151-1.1808 2.2072l-16.301 10.883c-.52633.35115-1.2278.28188-1.6753-.16562z"
              style="fill:#1e88e5;stroke-width:.79626"/>
        <g id="Wing_shadow"
           transform="matrix(.79626 0 0 .79626 4.0749 4.0749)"><path d="m8.313 29.222 12.725-12.725 2.464 2.464-12.725 12.725z" style="fill:#0a44c2"/></g>
        <path
                id="Wing" d="m10.694 27.343 10.132-10.132 1.962 1.962-10.132 10.132z"
                style="fill:#64b5f6;stroke-width:.79626"/>
        <path
                id="Intersect" d="m14.276 27.686-1.962-1.962 8.5128-8.5128 1.962 1.962z"
                style="fill:#42a5f5;stroke-width:.79626"/>
        <g id="Window_shadow"
           transform="matrix(.79626 0 0 .79626 4.0749 4.0749)"><path d="m30 15c2.761 0 5-2.239 5-5s-2.239-5-5-5-5 2.239-5 5 2.239 5 5 5z" style="fill:#0a44c2"/></g>
        <path
                id="Window"
                d="m27.963 16.019c2.1985 0 3.9813-1.7828 3.9813-3.9813 0-2.1985-1.7828-3.9813-3.9813-3.9813-2.1985 0-3.9813 1.7828-3.9813 3.9813 0 2.1985 1.7828 3.9813 3.9813 3.9813z"
                style="fill:#90caf9;stroke-width:.79626"/></g>
</svg>
