<svg version="1.1" xmlns="http://www.w3.org/2000/svg" xmlns:xlink="http://www.w3.org/1999/xlink" x="0px" y="0px"
     width="16px" height="16px" viewBox="-98 -48 608 608" preserveAspectRatio="xMidYMid meet">
    <path id="file_type_ai.svg" class="i-color" fill="#6AAB20"
          d="M83.6978149,228.824295c36.3322296,7.4014587,61.1593933,5.9598083,61.1593933,5.9598083c-94.3032761-13.4781799-110.1357498-41.320816-121.6382904-62.9264832C8.0514946,143.3680878,2.6641622,0,2.6641622,0s-5.9186449,89.671524-0.1125021,141.8856964C8.3593454,194.1137238,47.357235,221.4211426,83.6978149,228.824295z M274.063324,195.7407837c-38.0500336,9.7766266-69.0756073,66.3207092-69.0756073,66.3207092s31.9804688,14.5921936,60.5530243-8.5007019c30.9768982-25.0361481,34.6283264-79.9442902,34.6283264-79.9442902s-66.8310852-0.6063995-88.8181763,19.2705841c-21.9889221,19.8786316-15.4016876,49.390686-15.4016876,49.390686l-13.4342499,19.2349243c-2.0222778-30.0514832-7.5787048-52.6724396-17.9315796-71.4244385C133.2236176,133.2867737,90.2476349,101.961586,27.4281731,77.9576645c12.2708435,4.9637375,100.968277,43.5324173,124.6949768,138.8482056c14.7856598,59.3974915-7.2576904,175.3479614-7.2576904,175.3479614c-7.9875641,58.3248901,31.5249786,110.8381653,89.8416748,118.8175354c58.7404633,8.0373535,111.3265839-31.8817139,119.2400665-89.8005371c12.3120422-92.3569641-94.5181885-157.2965698-171.3170166-97.2639465c0.537796-12.3614197,0.801239-23.8008118,0.776535-34.458252C216.6356812,198.3008728,274.063324,195.7407837,274.063324,195.7407837z M18.5241413,12.8636665c25.7809772,50.7039032,76.0863037,30.4903183,138.0764313,90.8517303c19.9111938,19.3880539,29.3041077,52.4884872,32.1512909,86.4058914c2.0496979-34.3911285-6.1924133-71.02491-29.8105316-95.0125351C103.3910141,38.6893082,47.9636803,55.8845825,18.5241413,12.8636665z M210.6614838,473.4238892c-51.4693909-29.6726685-51.4694061-104.2571411-0.0000153-133.9298401c51.4693909-29.6726685,116.1554565,7.6195679,116.1554565,66.9649353S262.1308899,503.0965576,210.6614838,473.4238892z"/>
</svg>
