<svg version="1.1" xmlns="http://www.w3.org/2000/svg"
     xmlns:xlink="http://www.w3.org/1999/xlink" x="0px" y="0px"
     viewBox="-118 -48 608 608" width="16px" height="16px">
    <path fill="#39ADB5"
          d="M293.9050903,258.7761536c76.0763245-104.8619385,14.8681335-212.5954742-71.8444214-247.7832031C127.4793091-27.3878956,4.797689,37.7224617,0,159.7195435V512h205.992157c99.3687439-30.1321106,93.7600403-113.459137,64.559082-157.9785461c-76.8193207-95.1522827-217.7774963-9.2522583-173.1016388,98.9132996l28.3041458-15.8527527l-29.3446732,68.06427l-72.6477737-11.1148682l25.5855808-14.2438965c-34.2686081-65.1103516-15.078186-156.6075439,59.5071564-200.59552C5.9399481,236.0234985-0.4848305,55.3357391,153.5234528,34.5240021c84.5292511-11.422842,191.4145966,99.8018036,110.5406952,207.1767426l15.9288635,12.0437927l-56.5615997,0.0985565l-14.7948151-54.4900208l18.9070435,13.8246613c63.3969421-93.553299-64.4249878-180.5955658-128.8499756-100.4070206c-22.5617218,28.0821915-30.4990616,86.0141983,22.9599686,121.3108749c16.9320221,10.8190613,63.7808533,17.6641541,101.7559357,27.1869659c20.1403351,5.0505066,46.1753235,19.7509766,55.5369873,27.3001099C353.6521301,351.6229248,367.4298401,435.4832764,309.5250854,512h44.8124084C412.5941162,429.0699768,383.1231384,308.444458,293.9050903,258.7761536z"/>
</svg>