<svg enable-background="new 0 0 400 444" fill-opacity=".05" version="1.1" viewBox="0 0 400 400" xml:space="preserve"
     xmlns="http://www.w3.org/2000/svg" width="16px" height="16px">
    <g transform="matrix(.88 0 0 .88 24.698 4.003)" fill="#e53935" fill-opacity="1">
        <path d="m370.5 207c-1.5-14.8-4.8-29.9-9.5-44-13.5-40.3-38.6-81.6-70.3-110.1-1.4-1.2-6.7-4.4-8.7-3.3-5.2 2.9 4.6 22.8 5.8 26.4 7.4 22 12.1 45.3 6.8 68.3-7.1 30.4-30.4 51.7-61.5 54.3-17.1 1.4-34.3-.5-51.4 1.5-25.6 3-51.7 11.8-68 32.8-1.9 2.4-3.6 5.1-5.2 7.9h-.4c-6.3.7-12.6-2-15.7-3.7-.8-.5-1.6-.9-2.2-1.2-19-10.5-33-34-41.6-53.4-3.9-9-7.2-18.4-9.3-27.9-1-4.3-1.1-8.8-1.3-13.2-.1-2.7.3-6.5-1.2-8.9-3.3-5.2-7.5-.2-8.2 4-1.1 6.9-2.1 13.7-1.8 20.7.5 11.8 3.8 23.5 8 34.5 6.2 16.2 14.9 31.1 26.2 44.4 4.7 5.5 9.7 10.6 15.1 15.3 4.8 4.3 10.9 7.7 14.5 13.2 4.2 6.3 4.9 14.1 4.5 21.4-1 19.3-1.6 37.4 3.9 56.2 4.8 16.7 10.8 33.8 20.8 48.1 5 7.1 11.2 14.6 18 19.9 4.6 3.6 13.3 4 8.3-9.2-11.1-29.3-12.1-59.7 5.2-87.1 14.5-22.8 40.1-43.1 69-39.5 42.5 5.3 72.1 44.3 70 86-.6 11.7-1 21.7-4.7 32.7-1.5 4.4-2.6 10-1.5 14.6 1.8 7.8 10.5 4.9 14.3-.2 10.3-14 21.1-27.6 30.8-42 31.6-47.2 47-101.8 41.3-158.5z"/>
        <path
                d="m132.4 92.1c.7 2.3 1.4 4.8 1.9 7.5.1 1.1.4 2.3 1 3.4 2.6 6.8 8.9 10.5 14.8 14 3.6 2.2 10.1 4.3 14.1 5.9 5.2 2.1 16.4-.6 21.7-1 12.2-1 23.5-5.3 34.7 1.2-57.4 67.3-3.2 82.3 38.8 49.9 48-37 2.8-124.3 2.8-124.3s-1-6.8-19.2-10.8c-1.7-.9-3.4-1.7-5.1-2.4-18-8.3-34.2 5.3-47.2 16.4-3.8 3.2-7.5 6.4-11.5 9.4-5.4 4-11.2 7.3-17.3 10.2-6.4 3-14 6.4-21.1 6.7-1 0-2.9.2-4.9.6-3.1.3-4.7 1.1-5.4 2.5-1.2 1-2 2.4-1.8 4.2.2 2.5 1.4 4.6 2.7 6.2.4.1.7.3 1 .4z"/></g>
</svg>
