<?xml version="1.0" encoding="UTF-8"?>
<svg enable-background="new 0 0 256 256" version="1.1" viewBox="0 0 256 256" xml:space="preserve"
     xmlns="http://www.w3.org/2000/svg" width="16px" height="16px">
    <g transform="matrix(.90185 0 0 .90185 9.8555 13.463)">
		<path class="st0"
              d="m134.3 11c64.1 1.8 114.5 55.2 112.7 119.3s-55.2 114.5-119.3 112.7c-64-1.8-114.4-55-112.7-119 1.7-64.1 55-114.7 119.1-113h0.2zm-0.6 12c-57.4-1.5-105.2 43.9-106.6 101.4-1.5 57.4 43.9 105.2 101.3 106.6 57.4 1.5 105.2-43.9 106.6-101.3 1.6-57.5-43.8-105.2-101.3-106.7 0.1 0 0 0 0 0z"
              fill="#f9a825"/></g>
    <path class="st0"
          d="m137.9 93.403c-4.1485 3.9681-2.5252 12.806 3.878 19.57s15.241 8.8381 19.209 4.7798c3.9681-4.0583 2.7056-12.987-3.7878-19.751-6.4933-6.7639-15.422-8.7479-19.57-4.7798zm52.217-25.162c8.2068 8.5676 14.43 18.758 18.398 29.851 0 0 2.7056 7.3952-5.862 7.3952h-20.923s-6.6737-0.54111-6.9442 5.1405c-0.45093 7.0344-0.27056 12.987-0.27056 12.987 0.27056 4.0583 1.8037 8.0265 4.3289 11.183l21.554 22.727c3.5172 3.2467 3.9681 8.5676 1.0822 12.355-10.912 18.578-28.408 32.286-49.061 38.509-6.3129 1.8939-6.9442-3.2466-6.7639-6.7639 0-2.2546 2.6154-52.397 2.6154-52.397 0.72148-5.4111-0.99204-10.912-4.7798-14.881-6.7639-7.2148-11.003-11.814-11.003-11.814s-4.7798-4.7798-11.634-11.904c-3.7878-3.878-9.0185-5.862-14.43-5.5013h-52.397c-3.427 0-8.6578-0.81166-6.4031-7.0344 7.305-20.292 21.915-37.066 41.124-46.896 3.878-2.7055 9.1989-1.9841 12.265 1.7135l21.554 22.727c3.0663 2.7055 6.9442 4.3289 11.003 4.7798 0 0 5.862 0.45092 12.987 0.36074 5.5915 0 5.5013-6.7639 5.5013-6.7639s0.90185-13.888 1.1724-20.923c-0.27056-2.9761 1.8939-5.5915 4.7798-5.862 0.99203-0.09018 1.8939 0.09019 2.7957 0.45092 11.003 4.6896 21.013 11.634 29.22 20.292z"
          fill="#f9a825" stroke-width=".90185"/>
</svg>
