<svg version="1.1" xmlns="http://www.w3.org/2000/svg" width="16px" height="16px"
     viewBox="0 0 512 512" fill="#F06292">
    <path transform="scale(0.9) translate(30 30)"
          d="M225.2159882,45.7210274c0.2816925,29.0043678-17.0248413,11.2176399-16.788559,27.5085487c0.1079865,7.4454575,9.2934113,14.08638,14.2642212,23.7033844c5.9055023,11.4253235,7.6196289,26.0800781,5.7197113,37.6673813c-1.2356873,7.5362701-3.7400055,15.1233368-7.0956879,22.0560913c-9.1159973,18.8336029-23.6427002,29.1549988-46.8188324,27.3173981c-22.0244598-1.7462769-44.2102203-1.5618591-66.3019943-2.6522064c-7.9632797-0.3930206-31.3641586-8.2371216-32.0647812-3.4059296c-1.0383911,7.1599579,3.0366592,12.1947937,9.3078384,14.1282196c11.0049515,3.392807,22.3411789,6.7154083,33.7692719,7.7535858c21.9985428,1.9984436,44.2528152,1.5361176,66.2122116,3.7791138c11.6215973,1.1870422,23.5634766,4.5002136,34.0883026,9.3634796c17.358139,8.020813,21.8888245,22.0647278,20.1445923,43.8630676c-1.6797028,20.9918213-11.9619751,35.3814697-30.884201,45.0611877c-4.2278137,2.1627197-8.2506866,4.7441406-12.1573029,7.4136963c-6.6222992,4.5252686-6.1441803,9.8085022,1.0932922,13.1076965c4.2131195,1.9206238,8.5552368,3.5819397,12.785965,5.4689941c19.6029968,8.7432556,32.4858246,33.6818848,27.5678101,53.2876892c-2.4592285,9.803833-15.0198364,14.078186-23.2164154,7.9810791c-12.5345001-9.3236694-26.0852051-16.5849304-42.2667236-18.1642761c-13.2255096-1.2909241-24.4771423,2.6402893-33.0430756,12.4161377c-1.6866913,1.9248962-3.1774902,5.7227173-2.2808075,7.5462646c1.0469055,2.1292419,4.6806488,3.9211731,7.4244995,4.2920532c5.2660065,0.7118225,10.7008667,0.4902649,16.0572662,0.354248c33.9937134-0.8627319,55.8503265,14.0010681,67.3911133,44.6801758c13.5861053,36.1161804-15.681076,64.4891357-45.8338623,70.4054565c-20.8648376,4.0939331-38.6809387-3.047699-55.0223694-14.5898438c-15.3460999-10.8391418-27.9182358-24.2563477-39.6537781-39.6134033c11.2360153,0.4912109,21.6426697,0.4163818,31.9091949,1.5245972c13.8807068,1.4984436,27.6687775,3.8193054,41.460083,5.9979858c2.6487274,0.418396,5.2346039,1.6105652,7.6665344,2.7897644c6.8093567,3.3016052,6.8818665,7.2421875,0.9395752,11.9456787c-3.4250183,1.1829834-7.9077148,4.0914307-5.0529633,7.0717773c3.0311737,2.890564,5.3176422,3.1524963,8.2119598,3.934906c2.411911,0.6520691,5.2238617,0.4159546,7.7757111,0.0484924c7.4260406-1.0692749,14.5121307-3.2037964,17.613739-10.5469055c3.1337433-7.4190979-0.7348328-13.5295715-5.336731-19.1568604c-12.26297-14.9956055-29.7388-18.8483582-48.2596588-20.2114563c-26.1492691-1.92453-52.3289948-3.5003357-78.4523773-5.6952209c-5.9022331-0.4959717-11.8427773-2.4169922-17.3896637-4.5664978c-14.1498604-5.4832764-19.3296261-17.8074951-13.9475937-31.359314c8.7929764,2.3816833,17.4156036,5.532074,26.3408737,6.9677429c19.5034714,3.1373596,37.5085144-0.7348633,52.772789-13.3206177c7.600853-6.2670593,11.7448883-14.1162109,10.065979-24.0691223c-0.9169769-5.4358521-4.2601013-7.1141357-8.9287872-3.9325562c-4.6833496,3.1914978-9.1350327,6.7506714-13.3587952,10.4880371c-11.7050171,10.3571167-25.321167,13.2050476-40.5294037,9.624939c-16.2003555-3.8136292-30.7725925-10.3350525-39.2191086-25.0505371c-9.2284861-16.0779114-3.3473034-38.0974731,13.7995491-52.8841858c3.5254059-3.0401306,7.5100441-5.5947876,10.3408813-7.6795044c6.7265511,4.8759155,12.5218582,9.3977051,18.6753807,13.4199219c3.83741,2.5082703,7.9666824,2.4298401,10.5851593-1.9683228c2.6434784-4.4402161,1.9999237-8.4150391-2.2551956-11.9112244c-3.9276428-3.2272034-8.1918793-6.3574219-11.1653214-10.3132019c-7.9588776-10.5880127-6.0845718-24.717041,3.9425278-33.5550537c1.089798-0.9605255,2.8156662-1.7773438,4.2526016-1.7864227c16.8945694-0.1071472,33.7982559-0.3269501,50.6815948,0.1122742c6.3564529,0.1653748,12.9429932,1.192749,18.9427643,3.1638947c14.6922455,4.8268738,22.9326324,17.837738,20.6823578,31.2031555c-2.0634003,12.2554321-14.1044769,21.4403687-29.2563019,22.2422485c-2.7418518,0.1450806-5.5541382-0.2799683-8.2294769,0.150177c-6.4908142,0.2044373-5.2452087,6.7753601-4.0995789,8.103302c10.5635223,12.2442932,27.195694,15.3071594,41.6333313,7.9318542c34.0735931-17.4061584,36.6888428-61.7038879,4.8765106-82.2669067c-11.7944489-7.623764-24.9383392-11.8473969-38.9900513-12.5249939c-17.138382-0.8263855-34.3593597-0.1308136-51.4915466-1.0225677c-16.5840721-0.8632507-31.4197617-6.5377808-42.5882225-18.8451843c-8.6569786-9.5397949-10.4965057-20.5106354-5.9042492-32.3756714c8.8240528-22.7987518,31.7849216-34.597702,59.108078-29.5829926c18.4517593,3.3865051,36.5542831,8.6372986,55.0771408,11.492981c11.6208191,1.7915802,23.888382,1.9428253,35.5856171,0.6021271c18.8496704-2.1604004,30.0780029-13.5447693,34.1348724-31.169632c4.0901184-17.7692337-0.6543121-32.7973938-16.0394592-44.0899048c-12.6835022-9.3095322-27.5332794-13.4037094-43.1111145-15.4335098c-16.9571228-2.209549-33.7283707-1.4813919-50.1544876,3.4381027c-9.3426895,3.3747635-10.3262405,9.2349472-9.7778778,12.1516647c0.3645859,1.9391098,5.2030716,4.335762,8.0975342,4.4086685c13.7159271,0.3453827,27.4887924-0.6885147,41.1708755,0.0161743c14.5349121,0.7486191,29.1643982,2.2895737,40.5980988,12.7248154c8.3233185,7.5965271,11.7063904,17.2327118,8.4709778,25.0306244c-3.5269165,8.5004654-12.7049255,13.9649734-24.4566498,13.3363876c-8.4568634-0.4523621-16.910614-1.8684235-25.2354584-3.4714508c-17.7595444-3.4198151-35.3691177-7.5752258-53.1746521-10.7393036c-7.6026993-1.3510513-15.5419006-0.9761887-23.5556297-1.3975525c-8.0588837-20.0427704-12.8122177-32.0987473,8.1299248-50.7273941c19.3673553-17.2278748,42.3068542-29.2536125,69.8330688-28.6020546c9.4649963,0.2240219,18.804306,4.1845932,28.2606964,6.1806374c7.948288,1.6777534,15.9663544,3.0771103,23.9950409,4.3636818c1.4634399,0.23452,8.2224884,1.6062584,6.4003448-1.4528809c-2.8866577-4.2146339-4.7375641-8.3750267-7.8781738-11.2522659c-14.2566681-13.0609074-31.8744202-18.5296402-51.2750854-19.4716778c-2.6070251-0.126564-5.2245941-0.0507317-7.8369446-0.0895977c-0.2465057-0.0036545-0.4905853-0.1583271-1.4525909-0.4900665c7.0433502-10.6239996,15.7592468-19.1681385,28.6381378-22.1676636c17.1155243-3.9861984,33.4481964-0.8194992,48.0817719,8.3374367C222.7170105,19.3071518,225.0334473,26.9259415,225.2159882,45.7210274z M31.1201801,235.5106049c-3.9552498-2.2012329-6.4330597-1.9313354-9.6910591,0.6607513C4.3423233,249.7655487-0.6765762,267.8886719,0.0710689,288.0647583c0.2644747,7.1372375,2.5242033,13.717865,8.976634,18.0270386c5.5253353-4.4932556,10.3967152-9.1824646,16.0148354-12.8205566c5.7224979-3.7058105,12.1798058-6.3774719,18.5576859-9.6252747c-2.6566772-13.9138489,1.5484772-26.5993958,9.4186745-38.2051086C45.4477005,242.0761719,37.963089,239.3188782,31.1201801,235.5106049z"/>
    <path transform="scale(0.9) translate(30 30)"
          d="M288.188446,47c0.461731-17.296257,2.2533875-25.1084595,8.9290466-31.853014c21.9786377-22.2054119,60.7659607-19.6059113,78.9013367,5.2351265c0.7556763,1.0350609,1.3993835,2.1479282,2.367981,3.6464272c-26.8566589,0.9636173-51.4421692,5.5969105-66.3024902,29.5095425c0.233551,0.9244003,0.4671936,1.8488045,0.7007446,2.7732048c5.1925049,0,10.4882812,0.6231842,15.5486145-0.1745567c5.1025391-0.8044243,10.1316223-2.6585159,14.9144287-4.6797333c19.2042847-8.115818,38.3340454-7.3021965,57.1755371,0.6294365c14.9902039,6.3103638,29.263092,13.9566574,40.4436035,26.0058975c10.0354614,10.8152313,13.520813,22.9965363,8.0079651,37.0647583c-1.3803101,3.5223999-2.3766479,7.1879807-3.5600891,10.8203049c-30.6083984-2.1756744-58.5007935,10.1167831-87.8226013,13.9285965c-6.586853,0.856308-13.4900818,1.2953949-20.0100098,0.3563538c-14.4607239-2.0827484-21.4401855-16.4942627-14.4628906-29.0310822c7.0623779-12.6898956,19.0254517-18.6263428,33.0281677-19.6490555c17.3743591-1.2689896,34.8577881-1.1778412,52.2974854-1.4924774c4.1794739-0.0754242,8.4993591,0.4161453,9.6473389-4.7537155c1.1201782-5.0448837-0.9856567-8.9485168-6.0713196-10.5511322c-31.771637-10.0120544-62.7210083-8.5614166-91.7015076,8.3637238c-17.7368164,10.3585968-23.910553,27.5800781-18.9187927,47.3559113c4.7773132,18.9262848,17.4222107,29.1227875,38.5976257,31.1136627c22.4586792,2.1114502,43.75177-3.7753906,65.0768127-9.1997681c14.0057678-3.5626526,27.9703979-6.6365662,42.5316467-3.5424805c22.1139526,4.6989136,39.0727539,27.1103363,35.2426147,46.8686523c-2.2149963,11.4265289-9.877533,19.0390167-19.6422424,24.7524261c-11.8461609,6.9313202-24.8141479,9.4244232-38.6247559,9.1822052c-19.7322998-0.3460693-39.5923767-1.6968231-58.9440613,3.8266144c-12.1328735,3.4630432-22.8687439,9.3920746-31.4753113,18.4153442c-18.124176,19.0017395-13.5301819,51.5465088,9.526947,69.2577209c15.0338745,11.5481873,32.3728638,10.6641235,45.7165222-2.6851807c1.6331177-1.6338501,2.3439636-4.8232727,2.1412659-7.1821289c-0.0781555-0.9090271-3.8430481-1.879303-6.0209961-2.1784363c-4.5066833-0.618988-9.1922607-0.3008728-13.5968933-1.2673035c-12.9753723-2.8468933-20.8983765-11.5400696-22.3359375-23.7844543c-1.213501-10.3359375,5.9915466-21.7820435,17.1408081-27.2192383c10.8053589-5.2694702,22.425415-4.6568298,34.0014343-4.5691681c11.9615784,0.0905914,23.927124-0.1455688,35.8850708,0.0713043c2.2624207,0.0409698,5.0705872,0.9561615,6.6524048,2.4499359c10.8871155,10.2802887,10.4573975,26.8297882-0.8203735,37.6229706c-2.1949463,2.1006165-4.8188477,3.7712097-7.2135925,5.6775818c-4.1289062,3.2868347-4.4581604,7.4196167-2.0480347,11.6314392c2.4708557,4.3179626,6.5149231,4.6305847,10.3544312,2.0534058c6.0202942-4.0409851,11.723999-8.5307312,18.0378723-13.1809998c15.0055542,6.2641602,28.456604,26.989563,28.0551147,44.4403687c-0.3937683,17.1171875-12.1558533,30.695282-33.2082825,38.3220825c-19.3087463,6.9951172-36.9059143,5.5029297-51.9957275-9.6105957c-3.069519-3.0743408-6.7109985-5.6871033-10.3811951-8.0871582c-4.0970764-2.6792603-7.1309204-1.665802-8.2213135,3.3381042c-2.4814453,11.3869019,2.8112488,19.8300171,11.47229,26.3170471c21.3692627,16.0053406,44.6761169,15.8146362,68.7722473,6.8132324c2.1174011-0.7910461,4.1752625-1.7338867,6.2376404-2.5965271c6.0644226,10.8391724,1.9004517,26.0352783-10.2236633,30.3818359c-12.3031921,4.4107361-25.5674744,7.0833435-38.6388245,8.4643555c-23.3682556,2.468811-46.9473267,2.9850159-70.3600464,5.1296387c-12.9097595,1.1825256-24.3399963,6.6065979-33.0253296,16.4309692c-5.6673279,6.4104614-10.7986145,13.2915039-6.576416,22.3469849c3.2008362,6.8648682,14.2332764,11.0786438,24.393219,9.3821411c2.8423157-0.4746399,5.3995056-2.5737305,8.0875244-3.9276123c-1.6566162-2.3890991-2.8655701-5.309906-5.0561523-7.0648499c-5.9298401-4.7505798-6.0259094-9.7084351,1.3130798-11.9495239c11.2042847-3.4213562,22.7982788-6.1329956,34.4315796-7.5845947c14.4474792-1.8026733,29.1036377-2.0139771,45.7006531-3.0379944c-8.4762878,9.4092407-15.4072876,17.8859863-23.1754456,25.5559998c-14.1556091,13.976593-29.8746948,25.6250916-50.4280396,29.4306641c-35.9985352,6.6652527-72.60495-25.3241272-68.0383301-59.6134033c4.4928589-33.7350159,32.327179-56.960083,67.0425415-56.0264282c5.780304,0.155426,11.630249,0.4412842,17.3298035-0.2542725c2.7713013-0.3381958,6.3222351-2.2547607,7.5444336-4.4863892c0.9073486-1.6567383-0.6671448-5.5613098-2.3390198-7.4531555c-11.1125183-12.5745544-25.7128601-15.7322998-41.0017395-10.515625c-11.5909119,3.9548645-22.4223022,10.4456482-32.9442444,16.8242188c-7.6868896,4.6599731-19.6106567,1.3395996-22.1420288-7.3904419c-5.3448486-18.4324951,6.1590576-43.7339172,24.2903442-53.0594788c4.7476807-2.4418945,9.7890015-4.3352051,14.6512756-6.5718079c7.2006531-3.3122864,7.7764893-8.919281,1.1972656-13.4005737c-5.1783142-3.5270691-10.4258118-7.0584412-16.010376-9.900238c-28.3195496-14.4108276-29.200531-48.5137024-23.3443604-68.7012634c3.0172424-10.4011993,11.9676514-15.9367523,21.444458-20.1269073c18.4978638-8.1787872,38.4302673-7.7587738,58.1551208-8.9719849c19.5315247-1.2013245,39.0400696-3.1115875,58.4560242-5.5039368c5.0357971-0.6204987,10.0503845-3.6982269,14.3740234-6.6303864c2.4390259-1.654068,4.4502563-5.1969147,4.8020325-8.1023254c0.3076172-2.5406036-1.2754517-6.5027313-3.3384094-7.7250671c-1.5982971-0.9470215-5.2148743,1.4064026-7.9560242,2.2233276c-6.4239502,1.9144745-12.7754211,5.0167847-19.3084106,5.4489136c-20.520813,1.3573761-41.1202393,1.5311584-61.6737366,2.4819336c-31.6331177,1.4633636-49.6853638-12.3889008-55.6901855-44.6393738c-1.9131775-10.275116-1.6528931-21.1212387-0.9598083-31.6164017c0.6119995-9.2681503,5.7196655-16.7953339,14.2139893-21.7397919c2.5350342-1.4755707,5.1781006-2.9685287,7.2324524-4.9779892c1.8450012-1.8046799,6.1164551-7.8729706-1.9767456-11.4717865C302.667511,69.2125549,287.7267151,64.296257,288.188446,47z M503.3618469,305.3171387c17.7607117-12.995575,6.2630005-61.2657166-17.4942932-71.6766357c-8.9683533,3.9916229-17.5307312,7.802536-26.5289307,11.8074493c8.2146912,11.6204681,11.6870422,24.6106415,9.5821533,36.8349762C481.0104675,290.3684998,492.0539551,297.7543945,503.3618469,305.3171387z"/>
</svg>