<svg version="1.1" xmlns="http://www.w3.org/2000/svg" fill="#81C784" viewBox="0 0 512 512" width="16px" height="16px">
    <path transform="scale(0.9) translate(30 30)"
          d="M486.8605957,219.843338c-13.8193359-5.0038757-34.0536499-26.8134766-73.4764709-40.2521515c-33.0364075-11.2618713-80.4906311-18.214035-130.9795837-20.4456482C51.1138916,148.9227295,0,261.3735046,0,261.3735046s63.8923073,61.3367004,185.2881775,76.0320435c22.8226471,2.7627563,92.464325,17.6619873,118.8398132,15.9729004c45.1422729-2.8905029,47.2805176-0.638916,94.5610352-33.2240601c43.5541687-30.0170288,68.2791138-5.9442139,100.3110657-26.8348389C528.390564,274.1519165,500.6796875,224.847229,486.8605957,219.843338z M227.1195984,238.2575684c-12.0819244,0-21.8762665-9.4733887-21.8762665-21.1590881c0-11.6859589,9.794342-21.1590881,21.8762665-21.1590881c12.0821533,0,21.8764954,9.4731293,21.8764954,21.1590881C248.9960938,228.7841797,239.2017517,238.2575684,227.1195984,238.2575684z M285.9680786,283.9762268c-6.9103699,0-12.5120544-5.4182129-12.5120544-12.1018982s5.6016846-12.1018982,12.5120544-12.1018982c6.9101257,0,12.5120239,5.4182129,12.5120239,12.1018982S292.8782043,283.9762268,285.9680786,283.9762268z M217.0051117,187.3731384c-23.9452972,13.5840607-37.9707489,38.7674408-37.9707489,67.5531158c0,31.6924286,19.5252838,58.9204559,47.5459595,71.2144012c-18.825058,1.335144-37.4940643,1.5936279-55.5973206,0.2921448C71.0040207,319.245636,7.0281053,258.817688,7.0281053,258.817688S73.9668427,181.1924896,217.0051117,187.3731384z M483.0269775,291.4028625c-2.7852783,0.4458923-41.1044922-7.6245117-88.8144226,3.9555359c-24.8961182,6.0426941-52.4676514,12.7607422-81.1588135,18.4755249c16.9924622-14.3409424,27.7803345-35.3845825,27.7803345-58.9076691c0-19.983017-7.8135681-38.1577911-20.5631714-51.9850159c6.1474304,1.8105621,12.4825439,3.7609253,19.4026489,5.8522644c60.9911499,18.4318695,105.273407,39.070282,122.5547485,35.6140594c6.5146179-1.3031158,8.7453003-5.8831482,12.3780518-5.8634186c10.7976074,0.0587616,14.8276978,11.8838196,20.5647888,20.4893036C502.8381348,270.5340576,494.447937,289.5744019,483.0269775,291.4028625z"/>
</svg>