<svg version="1.1" xmlns="http://www.w3.org/2000/svg"
     xmlns:xlink="http://www.w3.org/1999/xlink" x="0px" y="0px"
     width="16px" height="16px" viewBox="-48 -48 608 608">
    <path fill="#FFCA28"
          d="M508.3414917,232.8860474c-11.0145264-21.8434448-40.4367065-24.8875732-55.9993286-7.3396606c-41.7814331-32.0037231-83.3617249-99.250946-59.1081238-179.2748718c-42.8317261-5.0551147-89.3642273,8.0195618-129.8733826,31.8263855c-10.4859009-21.8599243-16.0704956-45.2226562-16.0704956-77.4660034c-38.2890015,20.5960693-69.0977783,58.7826538-88.6008911,101.921814c-21.7574463-11.9546509-40.0651245-28.0080566-58.9193115-54.9230347C80.4376221,85.9879761,76.9536743,134.284729,85.3560791,180.3271484c-24.4898682,2.5958252-48.5699463-0.102478-79.2421265-11.2715454c6.284729,43.0366821,31.6627197,85.1170044,65.5797119,118.2484131C53.0786133,303.6306763,31.7310181,315.3120117,0,323.8169556c29.5108643,31.321106,73.7771606,51.1316528,119.9904175,58.9534302c-5.9090576,23.7384644-16.7023315,45.3251343-37.5717163,70.1907959c42.3535767,8.7439575,90.1721191-0.5123901,132.6281128-20.7669067c8.8123169,22.8845825,12.364502,46.7938232,9.5637207,79.1738281C284.8401184,485.4215088,343.7063904,408.75,353.7495117,318.4724731c50.0682983-8.3631592,88.3758545-24.3250732,113.5764771-37.6817627C494.8179016,289.7723694,521.9423218,260.5614624,508.3414917,232.8860474z M348.6261597,229.7224731c23.9017334,7.0859375,47.6358643-13.5025024,43.302063-38.5460815c-4.0892334-23.6303711-30.3787842-35.1149902-50.244812-23.9835815c0.0862427-25.6868286,6.4883423-51.6590576,27.9923096-86.762085c-4.2344971,66.6164551,29.9144287,130.1673584,74.4818115,161.8581543c-1.7702637,9.9154053,1.0883789,19.9849243,7.2161255,27.5626221c-28.7134399,14.4224854-61.0848389,25.416626-96.9399414,31.6769409C354.3113403,277.7943726,352.2725525,253.847641,348.6261597,229.7224731z"/>
</svg>