<svg version="1.1" viewBox="0 0 24 24" xmlns="http://www.w3.org/2000/svg" width="16px" height="16px">
    <path d="m2.9995 2.9995v18.001h18.001v-18.001zm14.101 8.8586c.42564 0 .8457.04755 1.2598.14465.41696.09375.77812.21308 1.0822.35706v1.723h-.17944c-.2606-.24108-.58016-.4417-.95947-.60242-.37642-.16407-.7616-.24719-1.1554-.24719-.13899 0-.27666.01135-.41565.03479-.13609.02009-.2681.06058-.39551.12085-.11293.05022-.21006.12692-.29114.23071-.08108.10045-.12268.21732-.12268.3479 0 .19755.06562.34879.19592.45593.1303.1038.37597.20042.73792.28748.23743.05692.46582.11122.68298.1648.22006.05357.45488.1278.70679.22156.49514.18751.86043.44425 1.095.76904.23744.32144.35706.73863.35706 1.2543 0 .73663-.27152 1.336-.81299 1.7981-.53857.45872-1.2707.68848-2.1973.68848-.53567 0-1.003-.05399-1.4026-.16113-.39669-.1105-.76948-.24823-1.1169-.41565v-1.7944h.18311c.34457.31809.72975.56349 1.1554.73425.42854.17076.83851.25635 1.2323.25635.10134 0 .23596-.01104.401-.03113s.29859-.05383.40283-.10071c.1274-.06027.23204-.13481.31311-.22522.08397-.09041.12634-.22354.12634-.401 0-.16407-.06149-.30578-.18311-.42297-.11872-.12054-.29387-.21287-.52551-.27649-.24322-.06697-.50052-.12802-.77271-.18494-.26928-.06027-.52245-.13664-.75989-.22705-.54436-.20425-.93704-.47941-1.1774-.82764-.23743-.35158-.35706-.78655-.35706-1.3055 0-.69645.27076-1.2642.80933-1.7029.54147-.44198 1.2353-.66284 2.0837-.66284zm-8.9813.1355h2.5104c.5212 0 .90225.02024 1.1426.06042.24322.04018.484.12822.72144.2655.24612.14398.42877.33785.54748.58228.12161.24108.18128.51807.18128.82947 0 .36162-.08215.68156-.24719.95947-.16505.27456-.39833.48868-.69946.6427v.04028c.42275.0971.7573.29772 1.0034.60242.24902.3047.37354.70593.37354 1.2048 0 .36162-.06303.68585-.19043.97046-.12451.28461-.2963.51928-.51636.70679-.25481.22099-.53719.37866-.84412.47241-.30403.09375-.68998.14099-1.1591.14099h-2.8235zm1.6589 1.3715v1.582h.26184c.2635 0 .48668-.0064.672-.01648.18531-.01004.33232-.04379.43945-.10071.15057-.07701.24847-.17426.2948-.2948.04633-.12389.06958-.26592.06958-.42664 0-.12389-.02738-.24782-.0824-.3717-.05212-.12389-.14589-.21622-.28198-.27649-.12161-.05357-.27351-.08271-.45593-.08606-.17952-.0067-.43269-.0092-.75989-.0092zm0 2.8729v1.8622h.12268c.46908 0 .80439-.0021 1.0071-.0055.20269-.0033.38947-.0463.5603-.13.17373-.08371.29335-.19414.35706-.33142.0666-.14063.09888-.30076.09888-.48157 0-.23773-.03977-.42025-.12085-.54748-.07818-.13058-.21356-.22752-.40466-.29114-.1303-.04353-.30958-.06806-.53833-.07141-.22875-.0033-.46693-.0037-.71594-.0037z"
          fill="#26a69a"/>
</svg>
