<svg version="1.1" xmlns="http://www.w3.org/2000/svg" xmlns:xlink="http://www.w3.org/1999/xlink" x="0px" y="0px"
     width="16px" height="16px" viewBox="-48 -48 608 608" preserveAspectRatio="xMidYMid meet">
    <path id="file_type_ai.svg" class="i-color" fill="#7963E6"
          d="M170.353714,327.2450256c-1.9151459-0.500824-41.0368958-21.3684082-61.3585281-32.7029114c-7.9510574-2.9520569-17.8081894,1.1704712-23.1583786,8.7043762L4.4586911,257.0587158L0,248.3719177c17.2839088-32.7332153,44.9000664-42.6820984,79.065361-23.1392212c-1.3894806-11.9888611-0.0288544-24.0905914,5.4580917-36.3615875c1.8741379-3.4238739-1.9385147-4.0983276-6.457489-5.57341l-4.5740051-8.1102295c3.4429779-6.9611816,4.6555557-5.8213806,4.3441772-7.2875214c-1.7523193-8.9773712,1.2511826-14.9728546,7.3022766-19.5801239c2.4984436-1.72966,33.7478943-19.1801605,37.7068863-21.0251541c9.3117447-4.4321671,21.8075027,0.9536057,24.1769943,14.2602158c3.1492767,3.4713287,31.4416504,17.6759338,46.4321899,25.7529297c1.8446503-0.6051025,4.8778076-3.2944794,7.918045-5.9961853c10.3134766-25.0926666,11.0287628-64.2219543,24.0309906-94.9272156C243.6022644,23.4073544,276.604126-7.5262041,332.5587463,1.6049854c15.250946,4.0346708,58.1519775,28.0087547,97.6689453,51.621212c54.6843262,48.6331024,25.9051514,117.6242828-6.5727539,146.5226593c24.9697266,9.8899231,15.7727966,18.7751312,12.9148865,20.832962l-46.4325256,26.2434387c0.4358826,15.269928,85.4649658,155.4277649,89.9532471,198.1148376c0.6699829,14.6999207-12.6237183,24.7915039-31.5603027,39.3141174c-43.151825,32.1643066-53.8582458,35.7561035-91.8617859,13.927887l-28.4977417-29.443573c-3.0927734-13.0464478,0.6556091-14.128418-1.7537537-22.6213989c-15.7639771-31.3310547-29.8357239-61.5786438-39.2918701-77.4408569c-7.290802-10.7786255-13.4584656-5.4976501-20.7493591-15.7640381c-7.3361511-9.5437927-9.4952698-20.0375671-8.3097229-31.6826477c-14.4887238,7.8924866-27.2259521,16.3133545-31.7261047,16.2902222c-3.7136383-0.2944031-19.8238068-9.5350342-35.8450623-18.6540833C170.6135559,315.0731506,182.6053772,326.2283325,170.353714,327.2450256z M381.6657104,57.5489273c-65.2191162,8.4075851-92.4552307,102.8619156-39.1882019,135.6416626c38.4225769,23.6348114,93.0365601-7.6278076,102.479126-58.6688995C453.3075562,89.4212036,422.739624,52.2888451,381.6657104,57.5489273z M305.1001892,165.9250031c-2.8261719,22.1202545-8.743927,30.7633209-9.7599487,40.8200684l34.509491,18.8381042C332.8751526,216.0768127,321.0785522,223.2015076,305.1001892,165.9250031z M362.4194336,46.1120567c-15.1973267-8.6703453-39.7680359-22.0622616-65.4881897-36.0331573c-69.4866943,28.6476669-64.8587341,97.2957687-81.4489441,154.1968842l66.1091309,36.1955872C305.3104858,136.1867371,292.462677,84.7955246,362.4194336,46.1120567z M377.3552551,256.7669678c-2.59729-4.536087-5.973938-6.6768951-10.6089172-4.9500122c-38.8661499,18.3907471-73.9237976,33.9671021-78.2456665,63.0071411c-2.0001831,11.0465698-1.3203735,15.6026001,6.6556702,20.6158142c50.8777771,38.9372559,30.9442139,149.9734192,103.5470886,147.7861938c22.0036621,0.3184814,61.131073-19.4204407,66.4043274-40.9514465C466.3414307,423.286499,415.7486572,331.4532471,377.3552551,256.7669678z M376.6661072,263.5252686c-4.1556091,4.9481201-21.7436829,12.4412231-29.0187988,18.3808899c-17.1558533,14.0065613-20.9638367,27.7693481-11.3251343,46.932373c18.401947,39.8490295,25.473877,81.0500793,33.1409607,124.342926c-22.8508606-29.2770386-17.4781189-88.6105347-59.4967651-121.6314697C294.8335266,323.232666,317.7674866,280.4840088,376.6661072,263.5252686z M403.2767334,468.1374512c15.0942993-2.112854,49.4329529-23.3701172,44.3935547-38.5111389c-4.9798584-12.8240967-12.135498-27.4284668-20.5194092-43.0378113C435.7350159,449.7507324,411.4410095,456.2914124,403.2767334,468.1374512z M356.32901,323.6542664c-9.9442749-5.7330017-9.9442749-20.14328,0-25.8762817s22.4421387,1.472168,22.4421387,12.9381409S366.2732849,329.3872375,356.32901,323.6542664z M389.8527832,433.7463074c-9.9443054-5.7329712-9.9443054-20.14328-0.0000305-25.8762817c9.9443054-5.7329712,22.4421387,1.472168,22.4421387,12.9381409C412.2948914,432.2741699,399.7970581,439.4793091,389.8527832,433.7463074z M383.1778259,76.2161789c-48.2116089,6.2151031-68.3452454,76.0380936-28.9689026,100.2697067c28.4029236,17.4714355,68.7749634-5.6386719,75.7551575-43.3695221C436.1372681,99.7769623,413.5406799,72.3277969,383.1778259,76.2161789z"/>
</svg>
