<svg version="1.1" xmlns="http://www.w3.org/2000/svg" xmlns:xlink="http://www.w3.org/1999/xlink" x="0px" y="0px"
     width="16px" height="16px" viewBox="-48 -48 608 608">
    <path class="i-color" fill="#C792EA"
          d="M301.1155701,0.519735L133.9832458,31.3643169c-13.7455826,2.5367718-18.0658035,13.644949-9.6495361,24.8107738L287.705658,272.9198608c8.4162598,11.165802,26.381958,18.1610107,40.127533,15.6242371l167.1323547-30.844574c13.745575-2.5367889,18.0658264-13.6448822,9.6495667-24.8107147L341.2431641,16.1440544C332.8268738,4.978229,314.861145-2.0170369,301.1155701,0.519735z M491.4828186,276.9204712L315.279541,307.489502c-11.963501,2.075531-28.3692627,12.8955688-36.6434631,24.1673279L158.7298431,495.0019836c-8.2742157,11.271759-5.2835693,18.7267761,6.6799164,16.6512451l176.2032776-30.5690308c11.963501-2.075531,28.3692627-12.8955688,36.6434631-24.1673279l119.90625-163.3451538C506.4369507,282.2999573,503.4463196,274.8449402,491.4828186,276.9204712z M56.0490837,241.0556335c-2.7610016,7.2282715-54.07164,47.8122559-52.9448471,56.0988159c1.1268487,8.2866211,61.3104134,32.953125,65.8945923,39.132782c4.5842133,6.1796875,21.6857224,85.6962891,27.9763031,87.4086304c6.2905655,1.7123413,38.7224579-64.3209839,44.3165894-67.730011c5.5941772-3.4090881,67.4742126,5.1509399,70.2351532-2.0773315c2.7609558-7.228363-37.3785706-72.705719-38.5054169-80.992218c-1.1268005-8.2866211,20.015625-82.5128632,15.431427-88.6925507c-4.5841827-6.179657-61.8236847,19.3864288-68.1142807,17.674118c-6.2905655-1.7123566-55.1038437-56.1467133-60.6980057-52.7377167C54.0464554,152.5492706,58.8100319,233.8272705,56.0490837,241.0556335z"/>
</svg>
