<svg version="1.1" xmlns="http://www.w3.org/2000/svg" xmlns:xlink="http://www.w3.org/1999/xlink" x="0px" y="0px"
     width="16px" height="16px" viewBox="-48 -48 608 608" preserveAspectRatio="xMidYMid meet">
    <path id="file_type_ai.svg" class="i-color" fill="#AB7967"
          d="M255.9595032,216.0984344l200.2527771,49.7150116C491.0614014,252.2106476,512,234.8670654,512,216.0984344v-79.9650879c0-44.079567-114.6522522-79.9164886-256.0404968-79.9164886C114.587471,56.2168541,0,92.0537796,0,136.1333466v79.9650879c0,44.0957794,114.5793686,79.8841095,255.9514008,79.8841095L255.9595032,216.0984344z M0,295.9825439v79.9164734c0,44.1119995,114.587471,79.8841248,255.9595032,79.8841248l-0.0081024-79.8922119C114.5793686,375.8909302,0,340.0945129,0,295.9825439z M456.1960754,345.7461548l-200.2446747-49.7636108v79.9083862l200.2446747,49.771698C491.0613708,411.9950562,512,394.7162476,512,375.882843v-79.9002991C512.0161743,314.8159485,491.0613708,332.0947571,456.1960754,345.7461548z"/>
</svg>
