<svg xmlns="http://www.w3.org/2000/svg" width="16px" height="16px" viewBox="0 -1 16 16">
    <path id="file_type_circleci.svg" class="i-color" fill="#7A8387"
          d="M4.513,6.44a3.7,3.7,0,1,1,3.367,5.2A3.723,3.723,0,0,1,4.513,9.52a0.315,0.315,0,0,0-.3-0.22H1.348a0.322,0.322,0,0,0-.325.42A7.108,7.108,0,0,0,15,8,7.058,7.058,0,0,0,7.9,1,7.15,7.15,0,0,0,1.014,6.28a0.314,0.314,0,0,0,.335.38h2.86A0.328,0.328,0,0,0,4.513,6.44Zm2.544,3a1.649,1.649,0,0,1,0-2.873A1.672,1.672,0,1,1,7.057,9.437Z"
          transform="translate(0 -1)"/>
</svg>
