<svg version="1.1" xmlns="http://www.w3.org/2000/svg"
     fill="#7E57C2" viewBox="0 0 512 512" width="16px" height="16px">
    <path transform="scale(0.9) translate(30 30)"
          d="M104.3177032,290.7459106c0,0-29.8046341,30.6935425-62.9034615,2.7713013c-37.7002373-31.8439026-14.9546013-80.5770721-14.9546013-80.5770721s-49.5175095,31.373291-13.0722046,97.6232147c36.7590714,66.8251343,101.6495056,34.8243713,101.6495056,34.8243713c-5.4452362,19.8999939,0.41008,11.8237-9.9348831,24.0528564c13.1914139,30.5247803-2.9219055,35.3460999-0.2614365,47.478241c1.2549362,5.072052,7.6864624,6.3269348,7.6864624,6.3269348c4.3814926,9.436554,8.8995743,10.4456482,19.869751,5.8040771c11.6711731,5.0342407,17.5355225,4.9397278,25.6738129-5.8040466c6.3403015,0.1665649,13.8438416,1.5005493,14.9023132-9.1505127l-17.4121704-15.7389526l-0.8366241-24.0005798c10.2113647-13.6472168,29.4761963-32.5979309,24.8371887-61.2302246c22.1726227-12.5508423,24.1859283,19.9717407,48.8900604,19.0854492c-1.2119751,11.1442871-1.5628662,21.5572205,1.6209412,28.9680176c13.0429535,9.7205505,9.315918,21.9181213,19.8697662,34.458313c4.241806,5.0977173,10.4387054,4.5269775,18.9135284,9.9572754c13.2437439,8.4860535,16.8406677,22.6742554,13.2775269,32.8248901c-3.4799805,9.9137878-10.8730164,14.8027344-4.8962708,27.9123535c8.9963684-0.2866211,15.2156982,2.4087524,22.3796387,9.934845c8.2320862-5.4174805,18.2703247-9.7912598,33.0988159-2.5098572c18.2002869-2.7803345,3.8810425-15.2862244,24.0005493-15.7389221c13.1263733-19.0023193-10.4966431-14.1948242-17.4121399-33.9354553l9.0982361-10.7714844c9.0046997,4.183136,16.5207214,6.3117371,24.0005798,3.3464966l0.8366089-5.8040466c-33.7456055-66.1448364,7.9407349-99.493927-9.9871826-162.3045197c16.9274597-30.5668182,115.307251,33.7969208,125.0748596-19.9220276c-13.7563171,6.6407776-25.7403564-4.512085-40.5761719-22.3796234c14.109375-5.6515198,40.1331482-5.4100037,50.5110168,22.3796234c15.0637817-14.6016846,20.5696411-29.086319,1.8301086-68.7075653c12.5240784-13.7937927,11.4702148-35.3353653,9.934845-57.1516953c-7.8471375,21.1412659-14.0463257,28.6230392-29.8046265,37.2296371c-30.1762695,0.614975-59.8808899,4.4493103-59.661499-24.8371811c18.3132935-23.2374954,45.993042-40.9125061,48.0534363-62.9034538c-37.254425,18.2255058-63.8948975,37.4288521-77.0214844,53.8574944l-4.1307983-6.640686c18.9937744-21.4724884,19.9371338-42.1545563,14.1179504-63.7400703c-5.2016602,20.4810486-15.0930786,36.6203346-32.262207,47.2168083c-11.7359314,1.6857224-15.7799683-13.292305-19.0853882-21.5430031c-12.3225403,6.6291389-18.4504395-1.3746414-25.6737976-9.9348717c-13.1308289,8.8416023-23.5574036,10.5565033-38.1185913,9.098259c-7.933197,9.8418732-22.9402771,10.5922241-35.6086884,10.771492c6.0402679,16.7037048-6.4656219,24.5824203-23.1639557,30.6412506l14.0657043,14.0656967c-30.5047913,16.7153702-34.9633179,36.8848953-58.772644,51.3476181C122.0569534,180.5677032,90.9961395,220.7024536,104.3177032,290.7459106z M303.4858398,357.4141541l-3.6079407-30.2229309l11.7127075-3.6079407l2.2484131,42.8768311L303.4858398,357.4141541z"/>
</svg>