<svg version="1.1" viewBox="0 0 24 24" width="16px" height="16px"
     xmlns="http://www.w3.org/2000/svg">
    <path d="m12.006 2.3746c-5.5282.0039897-10.028 4.4714-10.032 9.9591v.02487l1.7061.99543.023264-.01563a4.9082 4.9082 0 0 1 3.6408-.77324 4.7501 4.7501 0 0 1 2.3983 1.1931l.29277.27272.16564-.36256c.16042-.35053.34571-.6802.55105-.97979.08262-.12032.17366-.24224.27753-.37258l.17125-.21457-.21096-.17646a6.9985 6.9985 0 0 0-3.2486-1.5164 7.1601 7.1601 0 0 0-3.3589.19652c.81134-3.5566 3.9384-6.0359 7.6309-6.0387 2.0835 0 4.0419.80492 5.5154 2.2668 1.0504 1.0419 1.7735 2.3402 2.0951 3.7587a7.1822 7.1822 0 0 0-2.0887-.31684l-.12754-4e-4a7.2576 7.2576 0 0 0-.82899.06136l-.03489.0048c-.12152.01604-.2286.03249-.32606.05053-.04772.008-.09505.01805-.14238.02727-.11229.02287-.22219.04772-.32727.0742l-.1155.02927c-.13476.0361-.27072.07659-.40346.12032l-.02447.008c-.29678.10068-.59276.22379-.87832.36657l-.02287.01164c-.12674.06337-.25507.13355-.39224.21417l-.03008.01806a6.806 6.806 0 0 0-1.7703 1.516l-.06295.0766c-.12714.15802-.2274.29157-.31563.42031-.0738.10829-.14799.2246-.24063.3778l-.05053.08703c-.07381.12754-.13957.24946-.19532.36095l-.01324.02446c-.14197.28515-.2651.58354-.36777.88794l-.01442.04451a6.8701 6.8701 0 0 0-.34291 2.2636l.0012.09385a9.4509 9.4509 0 0 0 .01724.32967c.004.05214.0093.10389.01444.15561.006.06337.01364.12674.02126.1889l.0044.0353.01128.08583c.01485.10588.03209.21056.05213.31563.20174 1.0576.70586 2.1152 1.4578 3.0581l.03408.04251.03489-.04171c.3-.35453 1.044-1.4787 1.1069-2.1533l.0012-.01243-.006-.01128a4.7068 4.7068 0 0 1-.53468-2.1684c0-2.5203 1.9812-4.613 4.5091-4.7646l.16604-.006c1.0271-.02327 2.031.26991 2.8997.85666l.02327.01563 1.6832-.97858.02206-.01323v-.02484c.002333-2.6599-1.0397-5.1597-2.9335-7.0391-1.8914-1.8765-4.408-2.9096-7.0875-2.9096"
          style="fill-rule:evenodd;fill:#ec407a;stroke-width:.40106"/>
</svg>