<svg xmlns="http://www.w3.org/2000/svg" width="16px" height="16px" viewBox="0 0 16 16"
     style="enable-background:new 0 0 16 16;">
    <path d="M0.98,0h14.04C15.56,0,16,0.44,16,0.98v14.04c0,0.54-0.44,0.98-0.98,0.98H0.98C0.44,16,0,15.56,0,15.02V0.98
	C0,0.44,0.44,0,0.98,0z"/>
    <path d="M9.41,9.06h2.67v0.39H9.41C9.41,9.45,9.41,9.06,9.41,9.06z M10.98,9.84l0.8,1.17h-0.45l-0.58-0.76l-0.59,0.76 H9.71l0.8-1.17H10.98z"
          fill="#CE3D40"/>
    <text transform="matrix(1 0 0 1 3.2529 9.4219)"
          font-family="'SFMono-Regular', Consolas, 'Liberation Mono', Menlo, Courier, monospace" font-size="4.4444px"
          fill="#50B2DD">cl
    </text>
</svg>
