<svg version="1.1" xmlns="http://www.w3.org/2000/svg" xmlns:xlink="http://www.w3.org/1999/xlink" x="0px" y="0px"
     width="16px" height="16px" viewBox="-48 -48 608 608">
    <path class="i-color" fill="#D52A29"
          d="M511.8293762,0C64.7906265,32.1296654,2.1623318,154.6232452,0.1706178,283.0787354C9.4293785,513.0505981,259.8665466,574.3694458,387.209137,446.0241699C475.2019958,357.3384094,509.538208,114.1312943,511.8293762,0z M213.5317688,252.2159424c6.2400055-147.3513794,21.200058-125.5913086,27.0580902-0.2762756c90.9580231-78.5704041,98.0677948-74.2962036,14.6874542,19.3848877c185.8268127,7.249115,89.0664978,22.7909241,1.7641907,25.8677979c79.4650574,90.3144531,78.5452271,100.7242432-16.7491913,17.3230896c-10.2036743,152.1105347-19.1413879,126.5304871-27.3556519-0.5951843c-93.4477615,82.7210388-98.4612503,74.6994629-15.8777618-16.4516602c-141.9933167-6.1105347-137.8738556-20.1515808-2.3381042-27.0367737C122.0492249,186.3244324,115.2730408,166.8874817,213.5317688,252.2159424z"/>
</svg>
