<?xml version="1.0" encoding="UTF-8"?>
<svg width="16px" height="16px" version="1.1" viewBox="0 0 200 200"
     xml:space="preserve" xmlns="http://www.w3.org/2000/svg">
<g transform="translate(3.5034 -2.3208)" fill="#FFCB6B">
    <path d="m175.86 123.99-57.623 57.508c-0.23049 0.23049-0.57623 0.34575-0.80672 0.23049l-78.713-21.09c-0.34574-0.11524-0.57623-0.34574-0.57623-0.57623l-21.205-78.597c-0.11524-0.34574 0-0.57623 0.23049-0.80672l57.623-57.508c0.23049-0.23049 0.57623-0.34574 0.80672-0.23049l78.713 21.09c0.34573 0.11524 0.57622 0.34574 0.57622 0.57623l21.09 78.597c0.23049 0.34573 0.11525 0.57623-0.11525 0.80672zm-77.215-62.578-77.33 20.629c-0.11524 0-0.23049 0.23049-0.11524 0.34574l56.586 56.47c0.11524 0.11525 0.34574 0.11525 0.34574-0.11524l20.744-77.215c0.11525 0-0.11524-0.23049-0.23049-0.11525z"
          stroke-width="1.1525"/>
</g>
</svg>
