<svg version="1.1" width="16px" height="16px" viewBox="0 0 33 33" xmlns="http://www.w3.org/2000/svg">
    <path d="m16.633 2.0881c-7.0281 0-12.714 5.6857-12.714 12.714 0 6.1865 4.4349 11.327 10.288 12.471v3.6398c7.6089-1.1475 14.346-7.1873 14.848-15.117.3028-4.7718-2.0761-9.6439-6.0894-12.01a10.575 10.575 0 0 0 -1.4558 -.72828l-.24302-.097052c-.22283-.0823-.44799-.17469-.67936-.24224a12.614 12.614 0 0 0 -3.9543 -.63123zm2.6204 4.7066a1.3875 1.3875 0 0 0 -1.2135 .48526c-.23292.31057-.37889.61104-.53417.92238-.46585 1.087-.31057 2.2516.38821 3.1057 1.087-.23293 2.0094-.92704 2.4752-2.014.15528-.31057.24302-.70887.24302-1.0194.04814-.82455-.63433-1.4053-1.3587-1.4798zm-5.6539.07298c-.70887.06755-1.3828.63045-1.3828 1.4069 0 .31057.08774.70887.24302 1.0194.46585 1.087 1.4597 1.7803 2.5466 2.014.62113-.85406.78185-2.0187.316-3.1057-.15528-.31057-.30047-.61648-.53417-.8494a1.3642 1.3642 0 0 0 -1.1879 -.48526zm-3.8091 3.7353c-1.2244.06289-1.771 1.6017-.75235 2.4022.31057.23292.61182.40296.92238.55824 1.087.46584 2.344.3059 3.2749-.31523-.23293-1.0093-1.0233-1.9364-2.1103-2.4022-.38821-.15528-.70343-.24302-1.0916-.24302-.08773-.0093-.16149-.0039-.24302 0zm11.961 4.7074a3.5513 3.5513 0 0 0 -2.0132 .58231c.23292 1.0093 1.0233 1.9356 2.1103 2.4015.38821.15528.70421.24302 1.0924.24302 1.3975.07765 2.0808-1.6499.99381-2.4263-.31057-.23292-.61104-.37889-.92161-.53417a3.3541 3.3541 0 0 0 -1.2617 -.26632zm-10.603.0722c-.42703.0086-.85406.09317-1.2617.26709-.38821.15528-.68946.32532-.92238.55824-1.0093.85406-.32998 2.4799 1.0676 2.4022.38821 0 .78185-.08774 1.0924-.24302 1.087-.46584 1.8587-1.3921 2.014-2.4014a3.4745 3.4745 0 0 0 -1.99 -.58231zm3.931 2.3782c-1.087.23293-2.0094.92704-2.4752 2.014-.15528.31057-.24302.68402-.24302.99459-.07765 1.3199 1.7236 2.0288 2.5001 1.0194.23292-.31057.37811-.61182.5334-.92238.46585-1.0093.30591-2.174-.31522-3.1057zm2.8867.07298c-.62113.85406-.78107 2.0187-.31522 3.1057.15528.31056.30047.6157.53417.84862.85406.9317 2.6491.24302 2.5715-.92161 0-.31057-.08774-.70887-.24302-1.0194-.46585-1.087-1.4597-1.7803-2.5466-2.0132z"
          fill="#6AAB20" fill-rule="evenodd" stroke-width=".77642"/>
</svg>
