<?xml version="1.0" encoding="UTF-8"?>
<svg width="16px" height="16px" viewBox="0 0 200 200" version="1.1" xmlns="http://www.w3.org/2000/svg"
>
    <g id="image" stroke="none" stroke-width="1" fill="none" fill-rule="evenodd">
        <g id="Logo" transform="translate(10.000000, 10.000000)" fill="#616161">
            <circle cx="90" cy="90" r="86">

            </circle>
            <path d="M64,56 C71.5490744,56 78.4876056,58.7774238 83.9597969,63.4229874 L75.9013457,74.4302155 C73.151103,71.0556355 69.5027384,69 65.5,69 C56.9395864,69 50,78.4020203 50,90 C50,101.59798 56.9395864,111 65.5,111 C69.8072991,111 73.7042455,108.619645 76.5132895,104.776905 L84.2559877,116.322496 C78.739004,121.120951 71.6859434,124 64,124 C46.326888,124 32,108.777681 32,90 C32,71.2223185 46.326888,56 64,56 Z"
                  id="C" fill="#FFFFFF">

            </path>
            <path d="M85.5,58.5874023 L103.203613,58.5874023 L115.477051,109.667969 L129.157715,58.5874023 L147.118652,58.5874023 L123.617188,128.739258 C122.775391,130.755859 121.020508,133.252604 118.352539,136.229492 C114.350586,140.694824 113.276198,140.816073 109.259277,143.235352 C105.242356,145.65463 104.953681,145.72072 100.856934,146.766602 C98.1257683,147.463856 95.3404493,147.712879 92.5009766,147.513672 L90,136.229492 C94.2547967,135.295813 97.6177524,134.291744 100.088867,133.217285 C102.559982,132.142827 104.939214,130.650151 107.226562,128.739258 L85.5,58.5874023 Z"
                  id="Y" fill="#FFFFFF">

            </path>
        </g>
    </g>
</svg>