<svg version="1.1"
     xmlns="http://www.w3.org/2000/svg" x="0px" y="0px"
     viewBox="0 0 512 512"
     width="16px" height="16px" fill="#5C6BC0">
    <path d="M269.9508972,102.0225906c-12.5597839,0.0583725-24.5541077,1.1295242-35.1078491,2.9970169c-31.0900421,5.4925919-36.734787,16.9890518-36.734787,38.1904907v28.0006409h73.4696198v9.3335571h-73.4696045h-27.5725098c-21.3522949,0-40.048996,12.8339691-45.8970795,37.2485657c-6.7456894,27.9848022-7.044899,45.4477692,0,74.6684113c5.2224884,21.7507019,17.6944733,37.2485657,39.0467682,37.2485657h25.2605286v-33.5665283c0-24.2498474,20.9815216-45.640213,45.8970947-45.640213h73.3839722c20.4274902,0,36.7348022-16.8193207,36.7348022-37.334198v-69.9588013c0-19.910675-16.796936-34.867485-36.7348022-38.1904907C295.6060486,102.9186859,282.5106812,101.9642334,269.9508972,102.0225906z M230.219101,124.5429916c7.5888977,0,13.7862396,6.2985764,13.7862396,14.0431442c0,7.7171173-6.1973419,13.9575043-13.7862396,13.9575043c-7.6161041,0-13.7862549-6.2404022-13.7862549-13.9575043C216.4328461,130.841568,222.6029968,124.5429916,230.219101,124.5429916z M354.1240845,180.5442963v32.6246033c0,25.2934113-21.4439392,46.5821381-45.8970947,46.5821381h-73.3839569c-20.1010895,0-36.7348022,17.2037964-36.7348022,37.334198v69.9587708c0,19.910675,17.3137207,31.6219177,36.7348022,37.334198c23.2563629,6.8382874,45.5579681,8.0741272,73.3839569,0c18.4962769-5.3552856,36.7348022-16.1327515,36.7348022-37.334198v-28.0006409h-73.3839722v-9.3335571h73.3839722h36.7348022c21.3523254,0,29.3090515-14.8937073,36.7347412-37.2485657c7.6705322-23.0140076,7.3441467-45.1456909,0-74.668396c-5.2768555-21.2563477-15.3552856-37.2485809-36.7347412-37.2485809C381.6965942,180.5442657,354.1240845,180.5442657,354.1240845,180.5442963z M312.8509521,357.7104492c7.6161194,0,13.7862549,6.2404175,13.7862549,13.9575195c-0.0000305,7.7445679-6.1701355,14.0431519-13.7862549,14.0431519c-7.5888977,0-13.7862549-6.298584-13.7862549-14.0431519C299.0646973,363.9508667,305.2620239,357.7104492,312.8509521,357.7104492z M266.0452881,13.5224876c-80.6682739,0-145.9398193,23.7207413-195.5738068,70.9351044C23.4946728,128.9642944,0,183.5988312,0,248.581955c0,69.1292877,21.6702271,126.6790924,65.1397552,172.6241913c47.9334106,51.4450378,114.3534546,77.2713623,199.5919037,77.2713623c85.9825745,0,153.3582764-25.8263245,202.1418762-77.2713623c13.058136-13.5369873,24.1639404-28.1087341,33.3812256-43.6582947h-99.3709717c-25.7392883,47.7108765-70.4682007,71.7677917-134.2203369,72.1714478c-56.967392,0.7614441-99.7093658-21.7739258-128.1931763-67.3806458c-22.3192444-35.7915039-33.3812332-80.3655396-33.3812332-133.7566986c0-116.4281158,53.1476517-177.220932,159.6426086-182.1285858c57.6051941,2.1153641,100.2315063,22.5305481,127.6522827,61.1989136c5.2201843,7.181778,9.7887573,14.8312836,13.8315735,22.8723145H512c-11.6217957-24.0899582-27.9768677-46.085495-49.0673218-66.067009C412.3421021,37.2432289,346.7137451,13.5224876,266.0452881,13.5224876z"/>
</svg>