<?xml version="1.0" encoding="utf-8"?>
<svg version="1.1" xmlns="http://www.w3.org/2000/svg"
     viewBox="0 0 16 16" enable-background="new 0 0 16 16" xml:space="preserve">
    <g>
        <path fill="#01579B" d="M3.1,10.8c0-0.1,0-0.2,0-0.2c0,0,0,0,0-0.1V3L0.9,7.6C0.8,7.8,0.7,8.1,0.7,8.3c0,0.4,0.2,0.8,0.5,1.1
            l2.1,2.1C3.2,11.3,3.2,11.1,3.1,10.8z"/>

        <path fill="#40C4FF" d="M10.4,3L10.4,3c0.3,0,0.5,0,0.6,0c0.2,0,0.4,0.1,0.5,0.2L9.4,1.1c-0.2-0.2-0.6-0.5-1-0.5
            c-0.3,0-0.6,0.1-0.8,0.2L3.1,3h0.1H10.4z"/>
        <polygon fill="#40C4FF" points="11.8,3.5 11.8,3.5 11.8,3.5 		"/>

        <path fill="#01579B" d="M12,3.7C12,3.7,12,3.7,12,3.7c-0.4-0.4-1.1-0.4-1.4-0.4H3.4l0,0v0l9,9H15V6.6L12,3.7z"/>

        <path fill="#29B6F6" d="M12.5,12.3L8.2,8L3.4,3.3v7.4c0,0.5,0.1,0.9,0.3,1.2c0,0,0.1,0.1,0.1,0.1l0.4,0.4h0l2.5,2.5h5.8L12.5,12.3
            L12.5,12.3z"/>
    </g>
</svg>
