<svg xmlns="http://www.w3.org/2000/svg" width="16px" height="16px" viewBox="0 -1 16 16">
    <path id="file_type_dart.svg" class="i-color" fill="#26A2C1"
          d="M12.915,12.808a0.038,0.038,0,0,1-.025.012,0.318,0.318,0,0,1-.138.076c-0.515.225-1.029,0.453-1.543,0.68a0.161,0.161,0,0,1-.123,0c-0.266-.089-0.529-0.184-0.794-0.277L9.325,12.96,7.384,12.28C7,12.143,6.606,12.008,6.217,11.872c-0.577-.2-1.155-0.4-1.731-0.607a1.231,1.231,0,0,1-.272-0.105L4.2,11.147a0.224,0.224,0,0,1-.032-0.088,2.41,2.41,0,0,1-.053-0.471c-0.028-2.12,0-4.24-.012-6.36a0.589,0.589,0,0,1,.011-0.1,0.014,0.014,0,0,1,.009-0.013,0.015,0.015,0,0,1,.016,0,0.348,0.348,0,0,1,.08.072l8.6,8.538a0.381,0.381,0,0,0,.086.075,0.047,0.047,0,0,1,.012.013h0Zm0-.057a0.039,0.039,0,0,1-.034-0.013l-0.04-.04L4.214,4.126a0.373,0.373,0,0,1-.061-0.065,0.112,0.112,0,0,1,.071-0.022h0.07q3.132,0,6.264,0a2.6,2.6,0,0,1,.557.053,0.22,0.22,0,0,1,.1.042l0.014,0.01a1.425,1.425,0,0,1,.111.282c0.273,0.773.55,1.544,0.822,2.317,0.175,0.5.354,1,.53,1.493q0.43,1.209.859,2.419c0.037,0.1.07,0.208,0.112,0.31a0.177,0.177,0,0,1-.008.146c-0.193.425-.381,0.853-0.572,1.279-0.045.1-.089,0.2-0.135,0.3a0.157,0.157,0,0,1-.037.058h0ZM3.992,11.238a0.4,0.4,0,0,1,.119.038l0.558,0.193,1.139,0.4,1.008,0.351,0.669,0.235,1.183,0.413,0.644,0.226,1.2,0.42q0.332,0.116.663,0.235a0.138,0.138,0,0,0,.114-0.006c0.177-.08.356-0.156,0.534-0.235l0.4-.178,0.65-.284,0.17-.074-0.32.986q-0.1.3-.192,0.6c-0.043.134-.087,0.268-0.129,0.4-0.019.06-.019,0.062-0.083,0.062H11.465c-0.808,0-1.615.006-2.422,0-0.621-.007-1.241,0-1.862-0.006a0.119,0.119,0,0,1-.093-0.038C7.045,14.927,7,14.885,6.955,14.841L4.993,12.9c-0.074-.073-0.147-0.147-0.222-0.219a2.486,2.486,0,0,1-.436-0.6,3.759,3.759,0,0,1-.34-0.83,0.1,0.1,0,0,1,0-.02h0Zm9.066,1.718a0.724,0.724,0,0,1,.075-0.182c0.063-.15.131-0.3,0.2-0.447l0.173-.385,0.238-.536c0.027-.06.054-0.12,0.083-0.179a0.123,0.123,0,0,0,.009-0.107q-0.139-.384-0.276-0.77c-0.047-.132-0.092-0.266-0.139-0.4Q13.25,9.475,13.082,9l-0.228-.64q-0.166-.466-0.33-0.932L12.3,6.794c-0.116-.327-0.231-0.655-0.347-0.982l-0.228-.64C11.612,4.861,11.5,4.55,11.392,4.24A2.4,2.4,0,0,1,11.3,3.972a2.39,2.39,0,0,1,.392.124,3.44,3.44,0,0,1,.895.5,4.255,4.255,0,0,1,.342.324c0.162,0.16.321,0.322,0.483,0.483q0.778,0.774,1.555,1.549a0.138,0.138,0,0,1,.045.109q0,1.718,0,3.437,0,0.885,0,1.772v0.02c0,0.053.01,0.053-.053,0.073l-0.3.1-1.538.488-0.045.011-0.015,0h0ZM11.328,4l-0.234-.043a1.706,1.706,0,0,0-.2-0.023c-0.448-.024-0.9-0.011-1.343-0.012q-2.758,0-5.516,0l-0.08,0-0.013,0c0.116-.085.238-0.161,0.358-0.24,0.31-.205.621-0.408,0.932-0.613L7.169,1.793C7.5,1.575,7.832,1.359,8.162,1.14a0.766,0.766,0,0,1,.181-0.109,0.7,0.7,0,0,1,.425.006,1.3,1.3,0,0,1,.515.293c0.056,0.05.108,0.1,0.162,0.157q0.737,0.726,1.475,1.453a0.312,0.312,0,0,1,.08.125c0.105,0.3.215,0.607,0.322,0.91A0.165,0.165,0,0,1,11.328,4h0Zm-7.4-.064a0.132,0.132,0,0,1,.009.083q0,3.212,0,6.423c0,0.134.012,0.268,0.016,0.4a1.749,1.749,0,0,0,.057.356,0.083,0.083,0,0,1,.006.063L3.54,11.1c-0.161-.056-0.321-0.113-0.483-0.168a0.234,0.234,0,0,1-.093-0.06q-0.8-.8-1.6-1.6a1.25,1.25,0,0,1-.351-0.627A0.648,0.648,0,0,1,1.02,8.323a0.416,0.416,0,0,1,.061-0.131c0.191-.265.366-0.541,0.547-0.812Q2.683,5.8,3.734,4.222l0.193-.285h0Z"
          transform="translate(0 -1)"/>
</svg>
