<svg version="1.1" xmlns="http://www.w3.org/2000/svg" xmlns:xlink="http://www.w3.org/1999/xlink" x="0px" y="0px"
     width="16px" height="16px" viewBox="-48 -48 570 612" fill="#79919D">
    <path d="M8.4680052,174.1060028c8.3255835,19.2559814,46.7862816,26.7483368,160.8391113,82.0335541c0,0-138.2648315,61.3529663-142.0308075,63.6340942c-65.4265747,49.1589355,1.5050316,117.3392639,47.8816071,89.5440063c56.2685394-37.6378784,121.9360962-87.95224,130.1949005-91.0718689c-7.2445068,92.8936768-21.7913361,153.0290833-10.2219086,168.1343994c22.9569855,39.6418457,82.3962555,32.1495361,91.3085785-14.6549683c1.3557434-7.811676-14.8056335-155.0718079-14.5473938-155.3515625c56.5022278,39.9590454,130.146698,99.2402344,146.1841125,99.0127258c32.9403381,6.5753479,77.8944092-34.0498047,50.9804688-78.0308533c-9.3688049-15.4259033-16.6842957-17.6853333-161.6783752-80.6993103c0,0,145.6676331-65.9152069,154.6844482-74.2433624c34.04422-29.5803223,7.518158-103.9334717-57.6946106-81.3664322c-3.8951111,2.0228653-132.4760132,94.6872025-132.4760132,94.6872025s23.0351868-154.1286621,10.0928345-170.1356964c-24.2171631-41.8839188-83.9985657-29.2983551-90.9858551,15.4940605l14.396759,153.4578247L73.1780853,100.9386292C28.7813396,83.9737701-19.1696625,125.4314041,8.4680052,174.1060028z"/>
</svg>