<svg version="1.1" xmlns="http://www.w3.org/2000/svg" viewBox="0 0 440 512" fill="#FFB74D" width="16px" height="16px">
    <path transform="scale(0.9) translate(30 30)"
          d="M188.1004791,318.8625488l-4.0398407-19.0517883l176.0726929-121.4681244l17.3147583,102.6493988L188.1004791,318.8625488z M339.2928162,467.1235046C336.5715942,494.3225708,288.9780884,512,288.9780884,512l-84.314743-183.4303894l25.8386536-4.0796814C271.3333435,374.3333435,315.6666565,375,339.2928162,467.1235046z M234.4889221,468.641449c-35.8336639-7.26297-63.1075745-9.7310791-83.6493988-9.7310791c-23.0547867,0-37.6205215,3.1135254-46.2320786,6.0557556l25.6025925-58.7689209l0.0926208-0.2350464c0.0973663-0.2375488,10.4832001-22.7426758,96.5505524-9.5808105l21.53685,46.8543396L234.4889221,468.641449z M80.648407,223.8579407l-49.3716393-97.3878174l53.0358543-53.0358582l24.4780884,108.111557C98.2358398,192.7902527,88.9040375,207.0135651,80.648407,223.8579407z M305.9759827,146.8685303L439.2449036,35.356575L339.2926941,0l-94.769165,129.4729767C264.7970886,131.6237946,287.6186218,139.7413483,305.9759827,146.8685303z M235.9621582,128.8286896L310.0556641,0h-96.5516815l-39.4383698,138.0278931C193.4523315,131.2307587,214.1116943,128.2458191,235.9621582,128.8286896z M167.2668152,140.0677338l14.2788696-118.9900436l-76.8346558,31.958168l10.8396454,121.9294128C128.9520569,162.2933502,145.4363861,150.4564819,167.2668152,140.0677338z M69.5775681,330.4672546L4.0796814,310.0557861l14.9580421,44.8764954h58.2959404C74.1226349,347.0056152,71.5263977,338.8266907,69.5775681,330.4672546z M80.6887436,362.6426697l-49.4119759,7.2477722l23.458168,34.6772766l39.5992241-18.0282593C89.1150436,378.956665,84.5606308,370.9569092,80.6887436,362.6426697z M65.2749023,277.3406372L4.0796814,237.9800873L0,293.7370605l66.9849319,22.9837952C65.3240433,304.0552979,64.7944183,290.9114685,65.2749023,277.3406372z M74.1134186,233.9004059l-48.2747726-68.2510071L4.0796814,218.9422302l61.1952209,52.2789001L74.1134186,233.9004059z M121.4516907,405.8724976c8.0367737-25.6908264,61.7771606-23.8327942,101.3284454-18.3523254l-28.3192291-61.6096802l-12.6692047,2.5337219l-6.8406372-32.2629395L338.7863464,183.158371C234.3333282,93,146.2482452,154.4185638,115,187.666687C73.3333359,232,42.3333321,325.6666565,121.4516907,405.8724976z"/>
</svg>