<svg version="1.1" xmlns="http://www.w3.org/2000/svg" xmlns:xlink="http://www.w3.org/1999/xlink" x="0px" y="0px"
     width="16px" height="16px" viewBox="-48 -48 608 608" preserveAspectRatio="xMidYMid meet">
    <path class="i-color" fill="#B2CCD6"
          d="M296.8922729,0v270.8111572l48.5891724,130.8978271h32.5286255c11.0651245-17.0986328,30.2905884-28.4238892,52.1730957-28.4238892c34.3060913,0,62.1166992,27.8106079,62.1166992,62.1166992s-27.8106079,62.1166992-62.1166992,62.1166992c-20.7470093,0-39.1054077-10.1813354-50.3865967-25.8095093h-82.9042969V512H512V0H296.8922729z M482.0996094,124.9291992h-62.6533203v62.6538086h-30v-62.6538086h-62.6542969v-30h62.6542969V32.2753906h30v62.6538086h62.6533203V124.9291992z M81.3110352,20c21.6721191,0,40.7420654,11.1056519,51.855957,27.9291992h67.9685059V0H0v511.999939h201.135498V213.9963379l-35.6599121-96.0671387h-33.4262085c-11.2486572,15.9074097-29.7735596,26.3041992-50.7383423,26.3041992c-34.3060913,0-62.1166992-27.8106079-62.1166992-62.1166992S47.0049438,20,81.3110352,20z M33.5410156,421.7089844h134.0537109v30H33.5410156V421.7089844z M466.8527832,435.4017944c0,20.2521362-16.4175415,36.6696777-36.6696167,36.6696777c-14.392334,0-26.8409424-8.2956543-32.8439941-20.3624878h-86.6311646L179.3847656,97.9291992h-64.9815674c-5.9052124,12.3359985-18.5027466,20.8571777-33.0921631,20.8571777c-20.2520752,0-36.6696777-16.4175415-36.6696777-36.6696777c0-20.2520752,16.4176025-36.6696167,36.6696777-36.6696167c15.2217407,0,28.2753906,9.2756348,33.8218994,22.4821167h85.1160889l131.3222656,353.7797852h64.5949707c5.4263916-13.4671021,18.6071777-22.9768066,34.0169067-22.9768066C450.4352417,398.7321777,466.8527832,415.1497192,466.8527832,435.4017944z"/>
</svg>
