<svg width="16px" height="16px" viewBox="0 0 5 6" version="1.1" xmlns="http://www.w3.org/2000/svg"
     xmlns:xlink="http://www.w3.org/1999/xlink">
    <g id="Page-1" stroke="none" stroke-width="1" fill="none" fill-rule="evenodd">
        <g id="django" transform="translate(0.000000, 0.187500)" fill="#EA7130" fill-rule="nonzero">
            <path d="M2.75765753,4.05972195 L2.75765753,0.0221099844 L1.875,0.0221099844 L1.875,1.34591818 C1.51654863,1.27873039 1.20041573,1.30499172 0.924538316,1.39695072 C0.313667059,1.60107994 -0.0289059281,2.14222383 0.001915575,2.85566521 C0.0165684,3.17550087 0.0807376875,3.39579868 0.219181628,3.60346412 C0.416742147,3.90106868 0.736577959,4.07791233 1.20445791,4.1516819 C1.54854667,4.20625019 2.2578125,4.16935539 2.75765753,4.05972195 Z M1.875,3.45794582 C1.41927087,3.50919914 1.21102643,3.44076729 1.06449819,3.27907944 C0.949801922,3.15377331 0.89119065,2.97490787 0.89119065,2.75511456 C0.89119065,2.36555147 1.07662475,2.10180044 1.40302909,2.02702093 C1.49751449,2.00579929 1.76395988,2.00730467 1.875,2.0512743 L1.875,3.45794582 Z M3.27808523,0.914922716 L4.15826559,0.914922716 L4.15828132,0.0221157094 L3.27808523,0.0221157094 L3.27808523,0.914922716 Z M3.23109555,5.35876942 C3.748492,5.09097576 4.04296875,4.80086517 4.13148642,4.00262451 C4.14058065,3.91470813 4.16230774,1.36915827 4.16230774,1.36915827 L3.27808523,1.36915827 L3.27808547,2.38500404 C3.27808547,3.89576149 3.25939059,4.09307003 3.09517789,4.41290474 C2.99260807,4.61299228 2.80313182,4.77973079 2.51917028,4.92221737 C2.44691658,4.95809078 2.424685,4.97426033 2.43933773,4.98234367 C2.44994831,4.98891258 3.23109555,5.35876942 3.23109555,5.35876942 Z"
                  id="Shape"></path>
        </g>
    </g>
</svg>