<svg version="1.1" xmlns="http://www.w3.org/2000/svg" xmlns:xlink="http://www.w3.org/1999/xlink" x="0px" y="0px"
     width="16px" height="16px" viewBox="0 0 512 512">
    <path fill="#EA7130"
          d="M88.2450409,295.9111023V166.7075195H60v42.3618622c-11.4704437-2.1500092-21.5866966-1.3096466-30.4147739,1.6330414c-19.5478802,6.532135-30.5102158,23.8487396-29.5239277,46.6788635c0.4688904,10.2347412,2.5223076,17.2842712,6.9525137,23.9295654c6.3219366,9.5233459,16.5566826,15.1823425,31.528841,17.5429688C49.5534935,300.6000061,72.25,299.4193726,88.2450409,295.9111023z M60,276.6542664c-14.5833321,1.6401062-21.2471542-0.5497131-25.936058-5.7237244c-3.6702805-4.0097961-5.5458412-9.73349-5.5458412-16.7668762c0-12.4660187,5.9338913-20.9060516,16.37883-23.298996C47.9204636,230.1855774,56.4467163,230.2337494,60,231.6407776V276.6542664z M104.898735,195.2775269h28.1657639l0.0005035-28.5698242h-28.166275L104.898735,195.2775269z M217.9660187,297.1399231l-0.4203796-67.9729614C216.5,200.5027008,169.5,205.3777008,149.7020264,216.1512451l-0.0000305,21.245575c15.0691681-6.4512787,23.0726624-8.2298279,33.5822906-7.938797c9.9657745-0.2914124,9.3982239,4.6745605,8.8765869,12.7570496c-1.2288208,0-9.5556488,1.0671234-13.5331421,1.7462006c-20.437149,3.4115906-31.0276031,10.4125977-33.8409424,22.2318726c-0.8084412,3.5409241-0.8084412,12.0779724,0,15.6188965c1.3743286,5.7236938,4.2685089,9.992218,8.8765717,12.934906C163.2190247,300.9395142,178.5,301.6276855,217.9660187,297.1399231z M193.6402893,260.550293v18.7070923l-3.7106934,0.5497437c-5.8045349,0.8569336-13.5654755,0.7599487-16.0069427-0.1778564c-4.4463654-1.7138672-6.1925964-6.6937866-3.9289856-11.0593262c1.2288208-2.3929749,4.2685242-4.3493652,8.7957458-5.6752014C181.0045166,262.2479858,190.7580872,260.5651855,193.6402893,260.550293z M231.6285095,214.0978088v84.4487915h28.2708435v-66.33992c15.4955444-4.0789795,23.850647-0.9956512,25.3605042,5.4164734l0.0001526,60.9395905h28.7476807c0,0-0.388031-67.0836487-1.0347595-69.5089417C304.5565796,201.7720642,270.2698975,205.338623,231.6285095,214.0978088z M448.4499207,298.3363647c11.8192749,4.0583191,28.1172485,3.3792725,38.8693848-1.6168518c13.7433472-6.3057556,22.1510315-18.6909485,24.1882935-35.5063477c2.3929749-19.4508667-4.0583191-37.0423431-16.6860352-45.7410736c-5.497345-3.7996216-9.8952026-5.5943451-17.1064148-7.0010071c-4.9476013-0.9862823-16.2171631-1.0671387-21.0354004-0.1778107c-16.4273376,2.9912109-28.1980896,12.8378906-33.1456909,27.8585663C416.1854553,264.4941711,423.25,288.8776855,448.4499207,298.3363647z M459.9135132,277.1554565c-4.5952759-2.1616516-7.3728943-5.5943298-9.2969971-11.3988647c-1.4551697-4.4302063-1.8432312-14.7134552-0.7599182-19.9682617c1.2773132-6.0955658,3.8319397-10.5419464,7.7286072-13.1936035c4.1391907-2.8618469,9.6705933-3.3865051,14.8023682-1.4794312c4.521698,1.6803589,7.9306946,6.0713348,9.8062744,12.5872955c0.8569336,2.942688,0.8569641,17.9633636,0,20.8252106c-1.8755493,6.5644836-4.603302,10.7251587-9.3939514,12.5953369C468.2100525,278.9149475,463.7210693,278.9465637,459.9135132,277.1554565z M325.0831604,313.9553223V339.80896c38.8782043,13.4042053,78.8374939,2.6286926,82.4439087-36.6866455c0.5982361-4.7859192,0.7275696-54.100235,0.1778564-65.5314636l-0.2910461-6.1117401l6.6129456,0.3072052l9.1352844-19.6772308c-14.3315125-3.3472137-30.0736389-4.2646332-46.6464844-3.7511292c-11.2229004,1.1788788-19.6448975,3.2337189-26.9854126,6.5968018c-17.4944763,8.0196381-26.5812683,22.6199188-26.5812683,42.6205292c0,19.6287231,8.957428,33.8409729,24.7541809,39.3382874c8.957428,3.120575,21.0354004,3.2499084,29.5724487,0.2910461c2.0857544-0.7276001,3.8481445-1.2288513,3.9289856-1.1479797c0.1174011,27.2244873-21.009491,25.5385437-33.7106018,24.7532043C340.322052,320.366394,332.7909851,317.7062683,325.0831604,313.9553223z M351.6321411,256.4272766c-0.9417114-17.4427338,9.1576843-25.516098,28.8448486-26.1608276l0.9701233,44.7547607C365.8475647,279.7492065,351.9230347,275.3577576,351.6321411,256.4272766z M103.3950577,337.4806213c16.5566864-8.569397,25.9799423-17.8529358,28.8125076-43.396637c0.2910156-2.813324,0.9862823-84.2709198,0.9862823-84.2709198h-28.2951202l0.0000076,32.5070648c0,48.3442383-0.5982361,54.6581116-5.8530426,64.8928223c-3.2822342,6.4028015-9.3454742,11.7384338-18.4322433,16.2980042c-2.3121185,1.1479492-3.0235291,1.6653748-2.5546417,1.9240417C78.3983459,325.6452026,103.3950577,337.4806213,103.3950577,337.4806213z"/>
</svg>