<svg version="1.1" xmlns="http://www.w3.org/2000/svg" xmlns:xlink="http://www.w3.org/1999/xlink" x="0px" y="0px"
     width="16px" height="16px" viewBox="-88 -48 608 608" fill="#FF5370">
    <path d="M365.4685669,69.5971985C301.5520325,5.0184612,222.0100555,0,199.1539307,0H0v511.9960632h117.9324036V117.9324036h81.2215271c22.2466888,0,57.2002869,9.0685501,82.4950867,34.6244049c25.7075195,25.9743042,38.4739075,65.217926,37.9441528,116.6406097c-0.5317078,51.4073181-23.2371521,85.0921326-71.4562225,106.0086365c-42.8205566,18.5747375-88.2461853,18.8588257-88.6991882,18.8588257v117.930481c6.8102875,0.0690918,67.677124-0.2802429,131.4708099-26.8304138c93.5166931-38.9172974,145.5823975-115.1837158,146.609314-214.7505798C438.5985413,165.6956024,398.9326477,103.4087143,365.4685669,69.5971985z"/>
</svg>