<svg clip-rule="evenodd" fill-rule="evenodd"
     stroke-linejoin="round" stroke-miterlimit="1.414" version="1.1"
     viewBox="0 0 500 500" width="16px" height="16px" xmlns="http://www.w3.org/2000/svg">
    <g transform="translate(-3,-5)" fill="#0288d1">
        <path d="m457 459h-408v-408h408zm-388-388v368h368v-368z"/>
        <path d="m352.8 242.85c-2.3473-.007-4.5031.0525-6.1139.20494-12.593 1.0948-24.356 6.5951-32.407 15.153-4.0336 4.2878-7.6869 10.436-9.4719 15.939-1.9673 6.0654-1.9531 5.9489-1.943 15.451.01 12.138.6271 15.145 4.757 23.218 4.1524 8.1182 10.479 14.749 19.608 20.55 4.0005 2.5424 14.245 7.651 22.611 11.275 18.211 7.8886 23.972 11.528 26.645 16.835l1.1036 2.1907v4.5892c0 4.4272-.0175 4.6548-.91789 6.4802-2.0542 4.2242-6.9029 7.6825-13.112 9.3538-2.3476.63061-3.4235.71994-8.671.7217-5.1361 0-6.3831-.10511-8.7371-.69191-4.1102-1.0388-7.5727-2.478-10.28-4.2708-3.3144-2.1949-9.8319-8.7747-12.483-12.603-1.1701-1.6904-2.345-3.0747-2.6084-3.0747-.43618 0-22.907 12.847-26.829 15.338-1.3225.84082-1.6571 1.2227-1.6571 1.8962 0 1.3961 5.2502 9.3316 9.363 14.152 8.3785 9.8214 25.182 18.481 40.066 20.649 5.8834.85658 15.657 1.1334 22.485.63061 4.4736-.32756 8.9956-1.1771 13.855-2.602 17.58-5.1566 29.575-16.112 34.02-31.074 1.8125-6.1034 2.5461-13.61 1.947-19.943-1.2279-12.994-5.2221-22.18-13.106-30.137-7.3213-7.3883-17.372-13.341-37.209-22.039-17.199-7.5414-21.688-10.47-24.167-15.768-2.14-4.5731-1.7324-10.867.95992-14.778 3.1497-4.5782 9.5805-6.8398 16.751-5.8902 6.6678.88109 10.98 3.5237 15.205 9.3128 2.1936 3.0066 3.7166 4.5724 4.447 4.5724.71995 0 3.822-1.9144 13.451-8.3065 9.8017-6.5068 12.884-8.7143 13.095-9.3799.32756-1.0317-1.2087-3.4457-5.7021-8.9586-9.0231-11.067-19.631-16.942-33.25-18.416-3.3445-.3626-7.7899-.56404-11.702-.5763zm-108.35 1.8778c-8.0854-.005-17.321-.00034-27.583.01-53.219.0525-65.571.14013-65.904.48347-.32406.32406-.40814 3.5866-.40814 15.766v15.357l24.201.0876 24.201.0876.005 68.503c.002 37.677.0875 68.822.20495 69.212l.18217.71119h17.588c15.747 0 17.607-.035 17.779-.49749.1051-.27502.18217-31.42.18217-69.212v-68.714l24.201-.0875 24.201-.0876v-15.542c0-13.471-.0526-15.581-.47296-15.842-.22246-.14014-14.127-.22422-38.383-.23648z"
              clip-rule="evenodd" fill-rule="evenodd" stroke-linejoin="round" stroke-miterlimit="1.414"
              stroke-width=".31533"/>
    </g>
</svg>
