<?xml version="1.0" encoding="UTF-8"?><!DOCTYPE svg PUBLIC "-//W3C//DTD SVG 1.1//EN"
        "http://www.w3.org/Graphics/SVG/1.1/DTD/svg11.dtd">
<svg version="1.1" xmlns="http://www.w3.org/2000/svg"
     xmlns:xlink="http://www.w3.org/1999/xlink" x="0px" y="0px" viewBox="-48 -48 608 608"
     width="16px" height="16px">
    <path fill="#7963E6"
          d="M41.7313004,262.690033c-3.2484741-120.0117035,86.5728836-225.9277649,203.3361206-245.05513C153.2924347,19.1341915,80.2359085,56.6846962,34.2121162,136.9650879c-48.5907669,84.7101288-45.2514343,171.1694336,8.9276161,252.4266968c47.6366653,71.420929,117.5356064,104.405426,202.8818054,104.9733276C125.8735428,473.8065796,44.6390266,370.457489,41.7313004,262.690033z M65.788147,183.443222c-2.4988251,6.6332397-2.1807938,6.7468262,5.0430832,6.7468262h432.7687683c-0.4406738-1.3052979-0.4987793-1.6540375-2.1531982-6.22435c-17.1737366-51.1577454-49.4085388-90.798172-93.9103699-120.3978882c-50.4989624-33.5978241-106.6997986-43.2296524-165.4902954-32.2121162C154.451004,47.7570686,97.0007629,100.8457184,65.788147,183.443222z M61.4493027,215.9733887c-2.9531555-0.4543457-3.7255402,0.9994965-4.0890121,3.6573639c-0.8859482,6.6559601-1.6583099,13.3119202-2.1126404,20.0360107c-0.1817284,2.7487183,0.340744,3.5210724,3.1348877,3.4983673l450.1063843,0.0227203c3.3620911,0.0227356,3.6800842-1.408432,3.4075012-3.9526825c-0.6815186-6.1107483-1.7264709-12.2215118-1.9536438-18.3549805c-0.1590271-4.3161469-1.8400269-4.9749298-5.7927246-4.9749298L61.4493027,215.9733887z M508.5343323,268.8348389c-23.170929,0.136322-450.038208,0-450.038208,0c-2.5896873-0.0227051-3.4756355,0.4316101-3.2484741,3.3620911c0.4997597,6.8830872,1.1585503,13.7207947,2.2262268,20.5585022c0.3180313,2.0444946,0.6815033,3.2939148,3.2939034,3.2939148l445.5175781-0.0454407c1.885498,0,3.1803284-0.2953186,3.3847961-2.6351013c0.6587524-7.0648804,1.4311218-14.1070251,2.2716675-21.1491394C512.2825317,269.4255371,511.124054,268.8121948,508.5343323,268.8348389z M130.6894379,285.6905518c-0.0227356-0.0454407-0.0227356-0.0908508-0.0454407-0.1362915c0.0227356,0.0227051,0.0454407,0.0454407,0.068161,0.0454407C130.7121582,285.622406,130.6894379,285.6451416,130.6894379,285.6905518z M65.1122437,323.035553c-0.5996246,2.3255615,0.2896957,3.999176,0.9711914,6.0891418c30.2812042,90.6164551,129.8479919,179.2110901,268.578125,149.9294434c56.0872192-11.8353577,99.4077454-43.7294006,133.8460999-88.5265198c15.1065369-19.6725464,27.5500793-41.0722046,33.4842529-65.2874451c0.7397156-3.0184937-2.5215454-3.4302063-4.2025452-3.4302368l-428.1166992-0.0681458C69.6726532,321.7417908,65.4813614,321.6039734,65.1122437,323.035553z"/>
</svg>