<svg version="1.1" xmlns="http://www.w3.org/2000/svg" xmlns:xlink="http://www.w3.org/1999/xlink" x="0px" y="0px"
     width="16px" height="16px" viewBox="-48 -48 608 608" fill="#7A8387">
    <path d="M148.7434387,77.3362274c0,16.8612823,8.1194,31.8380661,20.6572266,41.2354279c-53.15728,8.1588821-112.9549637,48.4623566-126.8272705,83.5488739C23.4681168,191.7642975,0.0069703,202.828186,0.0069703,221.024765c-0.4999932,17.261261,25.9996471,32.6360474,47.1423607,15.6387939c5.146431,6.5579224,12.6313286,12.1708221,21.6827011,16.7067719c-0.2234955,7.5623779-0.3194962,29.3780823,2.8129654,33.4430237c4.0994415,5.3219604,48.681839,4.9014587,50.5333099,0.0855103c1.0279846-2.674469,1.664978-14.2243042,2.0564728-20.4737244c14.4478073,0.5859985,29.2690964-0.6924744,43.1629105-4.0754395c-2.4454651,5.4659119-4.4194489,14.6798096-2.7649536,25.3296509c-46.6633987,31.1257935-72.6270218,97.4796753-25.4596558,155.2278748c-29.3066025,10.3643799-57.7577209,25.2121887-56.6812363,43.5784302c42.0439301-0.8764954,194.5203552,0,194.5203552,0c9.3258667,0,18.1827393-1.2174988,26.5201416-3.4999695C685.1946411,433.557373,299.7818909,138.2208862,512,48.2936211c-246.4151306,44.3403969,92.1537476,353.0061951-162.3268127,398.4656067c63.3594666-55.3053894,41.6233215-224.2262115-62.3576355-300.1264648c26.8766479-4.6989136,47.3343506-28.174118,47.3343506-56.3912277c0.7992249-41.2291374-49.3719177-79.0293121-93.5527039-44.2494011C212.770401,8.4631271,150.5719299,24.614109,148.7434387,77.3362274z"/>
</svg>