<svg version="1.1" xmlns="http://www.w3.org/2000/svg" fill="#4FC3F7" viewBox="0 0 512 512" width="16px" height="16px">
    <path transform="scale(0.9) translate(30 30)"
          d="M406.1833191,429.4691772l-19.8201599,63.2780151h-45.933136l-8.5809326-24.494812L406.1833191,429.4691772z M334.7277222,177.9112244l-100.8925018,71.2855988l42.1779327,68.4828949L334.7277222,177.9112244z M426.1637573,24.5161858l20.7915649,83.1656952l60.1013184-27.6027756L426.1637573,24.5161858z M265.1584167,324.0152283l-41.6058655-67.5531921l-129.2542419,91.324585L265.1584167,324.0152283z M438.4393005,125.4201965l-74.0397339,34.0039673l97.9527588,61.6494293L438.4393005,125.4201965z M361.3511658,172.3502808l25.7119141,97.8525696l72.3150024-36.1573792L361.3511658,172.3502808z M378.8430786,288.3611755l-85.092865,42.5455322l114.7473145,70.3103943L378.8430786,288.3611755z M348.4089661,145.3433685l51.2325745-121.9575729l-95.4483948,68.8111191L348.4089661,145.3433685z M227.2653046,238.5291901l101.644577-71.7700195l-138.5992737,11.767868L227.2653046,238.5291901z M216.9803467,245.7913513l-37.9613647-61.635376L92.1177979,333.9553528L216.9803467,245.7913513z M203.4869843,164.7984924l135.2121735-11.4805298l-44.7234802-53.7551041L203.4869843,164.7984924z M413.0571594,23.8906631L361.3396912,147.002655l73.9988403-33.9855576L413.0571594,23.8906631z M349.256897,175.7649689l-60.2723694,143.4771576l86.5959473-43.2978516L349.256897,175.7649689z M390.3256531,282.6199951l28.2175598,107.3883057l45.1220398-144.0574493L390.3256531,282.6199951z M287.5706482,341.8558044l40.0807495,114.4134521l79.2019348-41.3223572L287.5706482,341.8558044z M320.5935059,474.1249084l-35.6926575,18.6222839h42.2163086L320.5935059,474.1249084z M48.6471405,491.3402405l71.9464035-52.5375671l-49.214119-69.0984497L0,492.7471924h49.6750221L48.6471405,491.3402405z M450.0560913,120.0849762l23.5400696,94.1600189L512,91.6360703L450.0560913,120.0849762z M159.014267,492.7471924l-31.1324921-43.7114563l-59.85952,43.7114563H159.014267z M316.3955688,462.1418152l-39.7614746-113.4996033l-60.536438,144.1049805h41.6372986L316.3955688,462.1418152z M285.9200439,89.8804092l-30.761322-36.9733467l-58.9819489,101.6724396L285.9200439,89.8804092z M259.3001709,337.5141907L81.4949036,362.2506104l49.2453003,69.1424255L259.3001709,337.5141907z M261.9633179,351.1253967l-123.9346313,90.500946l36.4099426,51.1208496h28.0314636L261.9633179,351.1253967z M296.1375122,82.5142212l87.7493591-63.2614288L264.2437744,44.1783676L296.1375122,82.5142212z"/>
</svg>