<svg version="1.1" xmlns="http://www.w3.org/2000/svg"
     xmlns:xlink="http://www.w3.org/1999/xlink" x="0px" y="0px"
     width="16px" height="16px" viewBox="-48 -48 608 608" fill="#7A8387">
    <path d="M189.3493042,120.4835815v58.8653259L64.5898361,236.4528351l124.7594681,59.1477203v57.6854858L0,263.4552307v-52.5425415L189.3493042,120.4835815z M318.1947327,173.7742462c0-15.0402374-13.82901-24.4914246-24.832489-16.9712982c-11.0034485,7.5201111-11.0034485,26.4225006,0,33.9426117C304.3657227,198.265686,318.1947327,188.8144989,318.1947327,173.7742462z M273.0758362,219.9854126c-37.3124695-20.4545593-37.3124847-71.8686066-0.0000305-92.3231583c37.3125-20.454567,84.2062988,5.252449,84.2062988,46.1615677S310.3883057,240.4399567,273.0758362,219.9854126z M472.9125977,339.9120789c0-15.0402527-13.82901-24.4914246-24.8324585-16.9713135c-11.003479,7.5201416-11.0034485,26.4225159,0,33.942627C459.0836182,364.4035034,472.9125977,354.9523315,472.9125977,339.9120789z M427.7937012,386.12323c-37.3124695-20.4545593-37.3124695-71.8685913,0-92.3231506S512,299.0525513,512,339.9616699S465.1061707,406.5777893,427.7937012,386.12323z M313.1390686,393.3019104l194.40979-274.6038208h-66.4275208L243.4711914,393.3019104H313.1390686z"/>
</svg>