<svg version="1.1" xmlns="http://www.w3.org/2000/svg" xmlns:xlink="http://www.w3.org/1999/xlink" x="0px" y="0px"
     width="16px" height="16px" viewBox="-48 -48 608 608" preserveAspectRatio="xMidYMid meet">
    <path id="file_type_ai.svg" class="i-color" fill="#E79627"
          d="M207.3001251,507.2270203C90.6534042,484.2805481,2.5893788,380.5510559,2.5893788,255.999649C2.5893788,114.6150208,116.0450287,0,256,0c107.9807739,0,200.128418,68.2562332,236.6234741,164.3653259c-14.6213379,4.6752014-46.3552856,26.7032471-113.530365,108.3215942l-0.2137146,2.0274963c-29.8545227,34.4298401-61.5598145,73.1584167-82.9173889,99.6011658c-9.0661621-2.0700989-18.8600464-4.3092346-29.6107788-6.8626404c-68.7933197-17.2955933-89.3518982-33.8578186-99.622818-45.8440552c-9.7373199-12.0127563,1.8277588-36.960907,57.260376-49.1999512c28.0665588-6.8298035,132.5971527-8.0848694,132.5971527-8.0848694c-29.9893188-23.8097076-86.290741-66.4368591-97.7992554-75.5023041c-10.0928192-7.9507599-26.3582306-20.1520996-28.106369-31.0550842c-2.358551-10.6138306,14.3482666-15.7241364,23.1930084-16.3135986c28.4995728-1.9653473,67.416748,1.3758698,102.0093079,8.2552795c17.3884583,3.4578552,20.4412537,2.9480133,20.4412537,2.9480133c24.7651367,1.1796265,44.0274658-11.7927704,43.0447998-39.1134186c-0.1969604-27.7138596-27.9052429-49.9360733-58.571991-50.9068718c-28.8795166-0.9135284-100.0446777,4.127636-100.0446777,4.127636c82.9446411,17.100029,96.5043945,21.4637375,100.8303833,31.4482956c2.5555115,5.8967361-4.2680054,11.7592392-27.1236877,10.6138382c-24.8824768-1.2473755-75.8682861-7.2726135-75.8682861-7.2726135c-48.5483246-7.4688644-82.3544617-14.5445175-97.0959473,4.7171097c-9.6304626,12.5840607,1.375885,27.9101181,5.6997833,36.9518204c19.2623291,33.6098785,52.5697937,56.668808,73.7066803,72.9202576c7.9528656,6.1146393,32.2340088,19.6548309,32.2340088,19.6548309c-75.4750671-20.6375122-135.6199036-9.0417023-173.7506409,11.0070496c-43.8305206,25.9440765-36.3330193,69.7263947,33.2173767,110.6577911c41.0787659,24.1756897,61.5325928,35.7889404,128.7914734,44.0470276c4.1486206,0.6614075,7.8474121,1.2732239,11.2829285,1.8570862c-1.2969666,1.6343079-8.6121826,12.0791016-11.7305908,16.6628113c-5.8220062,0.339447-10.834549,0.6027527-13.8852234,0.8129578c-32.2444916,2.2237549-115.633316,2.7796936-116.0502777,2.7796936c0,0,22.5365143,6.5434875,52.5348816,10.2842102c8.9306641,1.1139526,36.2792511,4.2638245,64.2180023,5.8031311C228.1513367,469.5314026,214.1774292,493.2761536,207.3001251,507.2270203z M501.7287292,193.3174744c-21.6180725,40.3684692-84.832428,109.66745-84.832428,109.66745l-2.4416809-0.7536011c-25.6060486,30.9042358-51.3985596,60.4263-71.9054565,83.4342346c17.5449219,4.9741211,31.0264587,10.3505249,42.8157043,18.5750732c9.6905518,6.7599792,6.1013794,13.769989,5.8967285,15.9211121c-7.8599548,9.0186462-21.9840393,13.5387878-46.9140015,17.0797729c-14.9140015,2.1182861-37.4009094,2.8921204-52.1395874,3.1742859c-16.6509399,16.5867004-51.9349518,50.8845215-72.9468079,68.8729553C231.2599945,511.049469,243.5186005,512,256,512c139.9549561,0,253.410614-114.6150208,253.410614-256.0003662C509.410614,234.3710938,506.7279968,213.3787842,501.7287292,193.3174744z"/>
</svg>
