<svg version="1.1" xmlns="http://www.w3.org/2000/svg" xmlns:xlink="http://www.w3.org/1999/xlink" x="0px" y="0px"
     width="16px" height="16px" viewBox="-48 -48 608 608" fill="#7963E6">
    <path d="M305.3358154,507.2943726c0,0-55.4294586-125.8898315-41.346405-241.4430237c14.0830078-115.5531921,105.2166138-168.1615295,156.8770142-173.803772c51.6604004-5.6422501,79.8490906,26.3154449,79.8490906,26.3154449L512,101.4588623c0,0-74.2068176-75.1547241-168.1615295-66.6913605s-158.7728119,70.4603729-199.1487427,145.6151123c-40.3984756,75.1547241-63.8927994,127.7630157-79.8490677,206.6868134s-9.3886986,120.2475281-9.3886986,120.2475281L305.3358154,507.2943726z M5.664814,381.4045715l48.8392868,3.7690125l-8.4633713,48.8392944L0,428.3706055L5.664814,381.4045715z M82.6927567,278.0611877l13.1577225-36.6294861l-43.2196083-16.9041595L38.547821,263.9781189L82.6927567,278.0611877z M143.7644348,152.1713715l25.3675385-30.0618896l-32.8830109-21.5985184l-26.2928696,29.1139908L143.7644348,152.1713715z M210.4557953,35.6928329l22.546402,27.2407722l31.0097961-17.852066l-22.546402-25.3675442L210.4557953,35.6928329z M320.3667603,4.6830425l5.6422424,27.2407608l38.5252686-0.9478931l-3.7690125-24.4196377L320.3667603,4.6830425z M450.0029907,50.7012062l26.3154602,14.0830498l5.6422424-8.4633713l-30.9872131-22.5464172L450.0029907,50.7012062z M445.3086548,106.1532135v14.0830383l25.3675537,2.8211212v-11.2844925L445.3086548,106.1532135z M364.5342712,118.3630219l12.2098389,22.546402l17.8520813-14.0830307l-3.74646-15.0309525L364.5342712,118.3630219z M326.0090027,147.477005l18.7774048,28.1886597l-11.2619324,19.7252808l-27.2407837-30.0618744L326.0090027,147.477005z M288.4316711,225.4528503l-12.2098389,24.4196472l31.9351501,27.2407837l7.5154724-31.0097809L288.4316711,225.4528503z M273.4006958,343.82724l39.450592,16.9041748l-1.87323-31.0097961l-35.7041626-18.7999878L273.4006958,343.82724z M295.969696,461.2536621l49.7871704,2.821106l-17.8520813-36.6294556h-41.346405L295.969696,461.2536621z"/>
</svg>