<svg version="1.1" xmlns="http://www.w3.org/2000/svg" xmlns:xlink="http://www.w3.org/1999/xlink" x="0px" y="0px"
     width="16px" height="16px" viewBox="0 0 465 512" fill="#26A2C1">
    <path class="i-color"
          d="M248.8715973,63.1644936H0v381.677063h261.9104919c-5.933197-22.006012-9.4257202-44.8300476-10.3822021-68.4467468c-68.3475647,4.0029297-133.7666626-13.7792358-180.3869019-34.2103882l8.3654556-19.5436096c57.2397156,24.5092773,114.6763153,35.29953,171.8119202,32.4326782c0.4463043-20.1008301,2.5921478-40.7199707,6.5299988-61.8518982h-80.660202C175.9396973,203.6516876,206.8832855,130.3375397,248.8715973,63.1644936z M114.2712097,123.7848358h21.256134v51.4070587h-21.256134V123.7848358z"/>
    <path class="i-color"
          d="M275.3353882,353.0103149c37.0756226-4.3585205,73.9965515-14.4205933,110.6210632-30.3435669l8.4796143,19.4916992c-39.4044189,17.1340942-79.1341858,27.8899536-119.0273743,32.341217c0.9250183,24.412323,4.7966919,47.8623352,11.4266052,70.3418884h177.7156067V63.1644936H277.2648926c-48.149353,73.0469055-72.0462952,138.576828-75.561203,206.1439514h85.6836395C282.898407,287.3989868,276.421936,317.6225586,275.3353882,353.0103149z M336.1217957,175.1918945h-21.256134v-51.4070587h21.256134V175.1918945z"/>
    <path class="i-color"
          d="M277.2648926,63.1644936c10.430542-15.8240433,21.9473267-31.9844322,34.6998291-48.6131706L292.9919739,0c-16.6433411,21.7014618-31.2465515,42.6689377-44.1203766,63.1644936H277.2648926z"/>
    <path class="i-color"
          d="M261.887146,444.8415527C268.1985474,468.1838684,277.2519226,490.6066589,289.1672974,512l20.8928833-11.6348267c-9.8759155-17.7311707-17.5845642-36.2722473-23.2754822-55.5236206H261.887146z"/>
</svg>
