<svg version="1.1" viewBox="0 0 24 24" width="16px" height="16px"
     xmlns="http://www.w3.org/2000/svg"
     xmlns:xlink="http://www.w3.org/1999/xlink" fill="#d92f3c">
    <g>
        <rect transform="rotate(90)" x="2.2563" y="-21.744"
              width="19.487" height="19.487" ry="0"
        />
        <path d="m16.56 5.9994c-.0046.000383-.0087.00127-.01324.00165-.42659.03629-.83051.09268-1.1813.19192-.55415.166-1.0532.40447-1.494.71803-.4282.32278-.81705.72086-1.1697 1.1912-.34004.47956-.6824 1.0323-1.0224 1.6594-.12109.22868-.23331.42505-.35074.63696v.0017c-1e-4.000183-.0032-.000183-.0033 0l-1.3401 2.394-.005-.0017c-.23782.4425-.46149.84702-.66509 1.1978-.2141.36889-.45189.6815-.71637.93972-.26448.25822-.56659.45561-.90663.59394-.071945.02731-.1614.04195-.24155.06287-.0005144.000134-.00114-.000134-.00165 0h-.9877v2.4138h.98935v-.0017c.42844-.03628.83244-.09229 1.1846-.19192.55415-.166 1.0532-.40447 1.494-.71803.4282-.32278.8187-.72086 1.1713-1.1912.34005-.47956.68074-1.0323 1.0208-1.6594.12084-.22819.23523-.42557.3524-.63696l.0066.0017.0033-.005.0364-.06618h2.5296v.0017h1.125v-2.4072h-.33089v-.0017h-1.9787c.21975-.40713.43079-.78837.62041-1.1151.2141-.36889.45189-.6815.71637-.93972.26448-.25822.56659-.45561.90663-.59394.07046-.026754.15931-.041111.23824-.061214h.99266v-.00331h-.0017v-2.4105h-.97777v-.00165z"
              fill="#fff"/>
    </g>
</svg>
