<svg version="1.1" xmlns="http://www.w3.org/2000/svg" xmlns:xlink="http://www.w3.org/1999/xlink" x="0px" y="0px"
     width="16px" height="16px" viewBox="0 0 410 512">
    <path class="i-color" fill="#7A8387"
          d="M409.7710571,422.7492065c0,0-23.6609497,89.2507935-215.5336609,89.2507935C2.367429,512-0.2199719,438.6148987,0.0090652,432.5357056c2.35835-62.5004883,103.091301-38.9825745,103.091301-38.9825745s-39.3347168,1.9591064-39.3347168,37.2357483c0,29.3952332,46.0829544,52.2997742,139.1089478,54.8668213C392.18927,490.8834534,409.7710571,422.7492065,409.7710571,422.7492065z M262.3662109,0c0,0,68.6009216,6.7867179,58.7605896,81.1178741c0,0,43.5322266,28.2735367,40.3500061,67.4692841c-3.1867371,39.1930542-32.5778503,85.5245209-126.2891693,101.0624847c0,0,54.4390411-14.9028778,56.425766-45.2111359c2.1275024-32.3370667-53.7220306-46.0544434-53.7220306-76.428772c0-30.3756943,69.1934662-34.671875,63.6348114-85.7698441C297.8460693,8.4683466,262.3662109,0,262.3662109,0z M207.5052795,154.5178986c4.365387-2.2547913-3.7054596-8.1116638-3.2419434-18.4340973c0.5296021-11.6677322,5.3726196-18.8491669-1.4702301-18.6681061c-5.3572235,0.1416779-13.2855377,10.2056503-11.9827881,20.4520416C192.1125946,148.1132355,201.914032,157.4058685,207.5052795,154.5178986z M200.2509613,186.2053986c-5.4812775,3.601059,8.6000824,7.3158722,11.9805145,18.1294556c3.8195343,12.222702-0.4177856,21.0662994,9.4909058,18.8835754c7.7585754-1.7051544,15.3636932-14.4239655,9.4325104-24.6436768C225.2259827,188.3541718,207.2726135,181.5923462,200.2509613,186.2053986z M177.387619,163.3397827c3.8018799-3.140625-5.3006592-7.1325531-6.9736786-17.3223724c-1.8930206-11.5192566,1.3593445-19.5856552-5.2938385-17.935257c-5.2028809,1.2959595-10.8769531,12.8374176-7.4897156,22.5736542C161.0162964,160.3902588,172.5156403,167.3643646,177.387619,163.3397827z M396.2813416,362.2893372c-27.4388428-47.4550476-110.8878784-60.5983887-170.702713-62.4782715c-52.0304413-1.634552-118.2092361-5.2245789-118.2092361-23.9040222c0-25.4158936,73.966774-10.7330017,73.0139084-42.0814209c-0.8541718-28.0802612-69.9208832-28.9828644-60.3127594-98.4239349c4.4568863-32.2134933,44.1763611-49.7006149,79.022049-57.4075928c34.8466034-7.7056122,79.162384-22.8144684,80.0043335-41.9243774c0.8464661-19.110815-19.6200562-25.6413269-19.6200562-25.6413269s12.0520325,7.1868687,7.3041077,21.2283535c-4.7484131,14.0451069-21.0604248,15.023756-69.1844482,16.0843372c-40.7714386,0.9003372-99.9326401,5.8003731-138.8703766,46.9488983c-40.7986221,43.1193924-34.293457,113.668129,56.3117027,141.9271851c0,0-97.7820587,16.8000031-95.944725,71.2001038c1.8214931,54.0542603,64.7872925,67.04245,162.6730042,69.0766907c99.290802,2.0623169,136.9067688,11.9402161,136.9067688,35.3445129c0,18.9754639-30.0973206,29.6536865-75.8272095,31.2828064c-48.0447693,1.7205811-81.8656616-5.2232361-82.1843414-18.6174316c-0.4286804-17.9837036,45.7294312-9.1437073,45.7294312-9.1437073c-28.273407-11.3512878-65.3678589-9.1387939-66.8364868,12.5744019c-1.0253601,15.1595764,13.1252899,27.9974365,50.2071381,34.1350403c57.2432861,9.4696655,131.432312,8.8178101,179.5137329-20.5778809C405.1443787,419.965332,409.2862244,384.7810669,396.2813416,362.2893372z"/>
</svg>
