<svg version="1.1" xmlns="http://www.w3.org/2000/svg"
     xmlns:xlink="http://www.w3.org/1999/xlink" x="0px" y="0px"
     width="16px" height="16px" viewBox="-48 -48 608 608">
    <path d="M337.2174377,504.2731934c141.4747009-47.3608398,220.8829651-214.6595154,146.0966492-359.3669128C393.331665-29.2045479,147.0076141-40.5344696,40.9949989,124.5613861c-92.9263611,144.7162628-19.280138,332.2263184,134.5387421,379.6889648c12.7788849,2.3462219,17.4485779-5.5580139,17.4485779-12.3005371c0-6.0819092-0.2277985-26.2411499-0.3644562-47.5620117c-71.0697784,15.4439697-86.0809937-30.1363831-86.0809937-30.1363831C94.8969498,384.7301636,78.1545181,376.87146,78.1545181,376.87146c-23.2343178-15.8540039,1.7539444-15.5350647,1.7539444-15.5350647c25.6489487,1.7766724,39.1795349,26.3322449,39.1795349,26.3322449c22.8015594,39.0655518,59.8397675,27.7673035,74.3726501,21.2070007c2.3234253-16.4689941,8.929306-27.7673035,16.2184601-34.1225891c-56.7191162-6.4463196-116.3994446-28.3822937-116.3994446-126.308197c0-27.9267426,9.9770508-50.682785,26.2866669-68.586853c-2.5967407-6.4919434-11.4121704-32.4824982,2.5284424-67.6529617c0,0,21.4348602-6.8564072,70.2724915,26.1955795c41.7310028-11.2334137,84.340744-11.614624,127.9255524,0.045578c48.7465515-33.0975647,70.2269287-26.1955795,70.2269287-26.1955795c13.9634094,35.1931839,5.1707458,61.1609573,2.551178,67.6301193c16.3779602,17.8813324,26.263916,40.6600952,26.263916,68.5868988c0,98.1764374-59.7714539,119.7934723-116.6956177,126.1259918c9.2026367,7.927002,17.3346558,23.4621582,17.3346558,47.2887573c0,34.1680908-0.3416748,61.7076416-0.3416748,70.1357727C319.6322021,498.8290405,324.2791138,506.7788391,337.2174377,504.2731934z"/>
</svg>