<svg version="1.1" xmlns="http://www.w3.org/2000/svg"
     xmlns:xlink="http://www.w3.org/1999/xlink" x="0px" y="0px"
     width="16px" height="16px" viewBox="0 0 512 512" fill="#82AAFF">
    <path d="M37.4353638,218.1991882l7.265358-9.2706146l92.3047104-0.0437622l-5.9430084,9.2706146L37.4353638,218.1991882z M121.1525116,241.0051422l3.0618439-9.2706146l-116.9489975,0.080719L0,241.0858765L121.1525116,241.0051422z M117.7918701,263.8918152l0.8838425-9.2706146l-53.1967468,0.0437622l-5.1631699,9.2706146L117.7918701,263.8918152z M457.0930786,336.4914551c-51.1795654,28.1930542-121.1036682,16.253479-139.7984009-44.8755798c-11.047821,21.741333-29.0864868,39.5604553-50.583313,49.7214966c-50.9333038,24.0750122-120.0850525,3.0805054-128.9793243-62.896698c-6.5131073-63.2374115,44.6686096-102.3140564,74.9248657-112.1797485c48.084671-14.9787292,95.508255,2.6219635,111.9070587,46.4269714l-51.6507568,13.5379028c-5.4868469-15.2711792-35.3119354-26.268158-58.2382355-9.6925201c-36.0574646,22.2469788-35.3910217,78.2315826,8.1730957,86.5452118c22.6175537,2.8996582,37.8105316-8.2763062,49.1994781-25.4665222l-56.0868073,0.1200256l18.0216522-38.8605042h84.0563354c36.4062195-102.7062836,178.3916626-98.2090759,192.8215332-5.9193268C515.9889526,265.7539368,504.7913208,310.216217,457.0930786,336.4914551z M410.4469299,209.4202423c-38.8612366,8.3619385-48.5465698,42.6897278-42.5482178,64.68367c6.3834839,23.4061584,31.1098328,38.7536316,62.4820557,24.0765686C480.6612549,274.6574402,467.4814453,197.1478729,410.4469299,209.4202423z"/>
</svg>