<svg version="1.1" xmlns="http://www.w3.org/2000/svg" xmlns:xlink="http://www.w3.org/1999/xlink" x="0px" y="0px"
     width="16px" height="16px" viewBox="-48 -48 608 608">
    <style type="text/css">.st0{fill-rule:evenodd;clip-rule:evenodd;}</style>
    <path class="st0 i-color" fill="#82AAFF"
          d="M478.4598389,347.9648743v30.210968c0,2.9888916-1.9159851,5.6252747-4.7592773,6.5296021l-47.6232605,15.3737183c-2.0922241,0.6974182-4.3684082,0.3218994-6.1311035-0.980957c-1.7780151-1.2875366-2.8356323-3.3491211-2.8356323-5.5256653v-32.9929504l-44.5883789,8.4915771v33.5754089c0,3.4257507-2.5444031,6.315033-5.9394836,6.7825317l-64.453125,8.8287659c-0.2988892,0.0229797-0.6207886,0.0613098-0.9273376,0.0613098c-1.6400757,0-3.2494812-0.5977783-4.5063477-1.6860352c-1.4944458-1.3182068-2.3451538-3.1881714-2.3451538-5.1807861v-35.5450134l-33.2688293,0.1379395v0.0076599l-2.4371338-0.0076599l-2.4447632,0.0076599v-0.0076599l-33.2611847-0.1379395v35.5450134c0,1.9926147-0.8583527,3.8625793-2.3528137,5.1807861c-1.2568817,1.0882568-2.8662872,1.6860352-4.498703,1.6860352c-0.314209,0-0.6284332-0.0383301-0.9426575-0.0613098l-64.453125-8.8287659c-3.3874359-0.4674988-5.9318237-3.356781-5.9318237-6.7825317V369.071167l-44.5960464-8.4915771v32.9929504c0,2.1765442-1.0499573,4.2381287-2.8203049,5.5256653c-1.7780075,1.3028564-4.0541763,1.6783752-6.1464081,0.980957l-47.6309395-15.3737183c-2.827961-0.9043274-4.743927-3.5407104-4.743927-6.5296021v-30.210968l-29.4062462-9.8863831c-1.4561243,6.2153931-2.2608266,12.5840759-2.2608266,19.0140381c0,78.9454956,111.2180557,139.8809204,248.6772003,140.317749h0.1685944h0.1762695c137.459137-0.4368286,248.6772156-61.3722534,248.6772156-140.317749c0-5.8705139-0.6744385-11.6567383-1.8929749-17.3663025L478.4598389,347.9648743z M31.2839069,207.9720612v122.9821014l16.5769482,5.5869446c2.7896461,0.9349976,4.6749573,3.5407104,4.6749573,6.4913025v30.1650085l33.9202805,10.9440002v-31.8357239c0-2.0692444,0.904335-3.985199,2.4754257-5.2803955c1.5787582-1.3181763,3.6326752-1.8469849,5.6636047-1.4714661l58.3067017,11.1279602c3.2341614,0.6054382,5.5792999,3.4334106,5.5792999,6.7211914v33.2458801l50.734787,6.9281311v-34.5563965c0-1.8469849,0.7357483-3.57901,2.0232697-4.8665466c1.2798615-1.2722168,3.0195465-1.9849548,4.8512268-1.9849548h0.0153198l42.5421295,0.1686096l42.526825-0.1686096c1.8776245,0.0076599,3.5866699,0.712738,4.8665161,1.9849548c1.2951965,1.2875366,2.0232849,3.0195618,2.0232849,4.8665466v34.5563965l50.7424316-6.9281311v-33.2458801c0-3.2877808,2.329834-6.1157532,5.5639954-6.7211914l58.3143921-11.1279602c2.0079346-0.3755188,4.0848389,0.1532898,5.6559143,1.4714661c1.571106,1.2951965,2.4907532,3.2111816,2.4907532,5.2803955v31.8357239l33.9126282-10.9440002v-30.1650085c0-2.950592,1.8776245-5.5563049,4.6672974-6.4913025l11.3041992-3.8089294V207.9720764h0.3065491c11.01297-14.0555267,21.2059021-28.8697815,30.977356-44.6650238c-12.982605-22.0949249-28.8774719-41.8370514-45.8759155-60.1306992c-15.7645569,7.932106-31.0769958,16.9218216-45.5386963,26.4863358c-7.2347107-7.1887131-15.3890686-13.0745621-23.3901672-19.2286453c-7.8707886-6.315033-16.7301941-10.9440002-25.1451111-16.3393707c2.506073-18.6461945,3.7476196-37.0011444,4.2457886-56.1531525c-21.6964417-10.9133472-44.8336182-18.1557007-68.2314148-23.3518143c-9.3422852,15.6956034-17.8874817,32.701725-25.3214417,49.3246613c-8.8287659-1.4714584-17.6958618-2.023262-26.5706177-2.1228943v-0.0153351c-0.0613098,0-0.1149597,0.0153351-0.1686096,0.0153351c-0.0612946,0-0.1149445-0.0153351-0.1685944-0.0153351v0.0153351c-8.8900757,0.0996323-17.7495117,0.6514206-26.5782928,2.1228943c-7.4339447-16.6229362-15.9714966-33.6290588-25.3290863-49.3246613c-23.3901062,5.196084-46.5273285,12.4384375-68.2160645,23.3517838c0.4904785,19.1520081,1.7320251,37.5069733,4.2457733,56.1531677c-8.4225922,5.3953629-17.2820206,10.0243378-25.1528168,16.3393631c-7.9934158,6.1540909-16.155426,12.0399323-23.3901215,19.2286377c-14.4693832-9.5644989-29.7741241-18.5542145-45.5387001-26.4863205C28.8774529,121.4699936,12.9825907,141.2121124,0,163.3070374c9.77143,15.7952423,19.9643745,30.6094971,30.9773521,44.6650238H31.2839069z M191.3008728,266.9922791c0,27.6742249-22.4244843,50.0986938-50.0987091,50.0986938c-27.6512375,0-50.0833817-22.424469-50.0833817-50.0986938c0-27.658905,22.4321442-50.0680542,50.0833817-50.0680542C168.8763885,216.9242249,191.3008728,239.333374,191.3008728,266.9922791 M179.2471466,269.963562c0,18.3626404-14.8755798,33.2381897-33.2535248,33.2381897c-18.3626328,0-33.2535324-14.8755493-33.2535324-33.2381897s14.8908997-33.2535248,33.2535324-33.2535248C164.3715668,236.7100372,179.2471466,251.6009369,179.2471466,269.963562 M259.0402527,321.6502075c-8.9054108,0-16.1247864-6.5602722-16.1247864-14.6532898v-46.1211853c0-8.0776978,7.2193756-14.6533051,16.1247864-14.6533051c8.905426,0,16.1401062,6.5756073,16.1401062,14.6533051v46.1211548C275.1803589,315.0899353,267.9456787,321.6502075,259.0402527,321.6502075 M338.8448792,269.963562c0,18.3626404,14.8755798,33.2381897,33.2305298,33.2381897c18.3779602,0,33.25354-14.8755493,33.25354-33.2381897s-14.8755798-33.2535248-33.25354-33.2535248C353.720459,236.7100372,338.8448792,251.6009369,338.8448792,269.963562 M326.7880859,266.9922791c0,27.6742249,22.424469,50.0986938,50.0986938,50.0986938c27.658905,0,50.083374-22.424469,50.083374-50.0986938c0-27.658905-22.424469-50.0680542-50.083374-50.0680542C349.2125549,216.9242249,326.7880859,239.333374,326.7880859,266.9922791"/>
</svg>
