<svg version="1.1" xmlns="http://www.w3.org/2000/svg" xmlns:xlink="http://www.w3.org/1999/xlink" x="0px" y="0px"
     width="16px" height="16px" viewBox="-48 -48 608 608" preserveAspectRatio="xMidYMid meet">
    <path id="file_type_ai.svg" class="i-color" fill="#7963E6"
          d="M448.8439636,316.8224487V195.2007751c4.1664429-0.9976196,8.261322-2.5892639,12.1588745-4.8298035c21.8334961-12.6817932,29.2857056-40.5293884,16.7347107-62.3629761c-12.6817932-21.8335114-40.5293884-29.2856979-62.3629761-16.7346954c-3.9276428,2.2813263-7.3816528,5.0595474-10.3458252,8.199173L299.7269287,58.6746483c6.6014709-22.0191994-4.2705994-45.8786011-25.93573-55.0507469c-23.2362671-9.8371754-49.9692535,0.9930778-59.8065186,24.2293434c-4.2989197,10.1543674-4.6501923,20.976244-1.7446899,30.7642651l-105.3036652,60.7988625c-14.1323471-14.8911362-37.0941086-18.8992767-55.6967049-8.2790527c-21.8707733,12.4861298-29.594038,40.3907852-17.1079903,62.2616348c6.5032425,11.3911438,17.1919365,18.9331055,29.0294724,21.7921753V316.843689c-21.1422234,5.1567993-36.1582489,24.7825623-34.7811852,47.2064209c1.5436802,25.1366272,23.1808853,44.1854553,48.4346657,42.6998596c11.9412766-0.7872009,22.4965439-6.0666504,30.1384964-14.0744019l105.2865143,60.7889709c-6.179657,20.8371582,3.254303,43.6761169,23.3864441,53.7241821c22.5769043,11.2682495,49.9920044,2.0106506,61.2019348-20.4494324c5.6194763-11.2592163,6.1613159-23.706665,2.4940491-34.7550659l104.6708069-60.4334717c8.4454346,9.4900513,20.7602234,15.4396667,34.4360657,15.3096619c25.1828308-0.2393799,45.5301208-20.8381042,45.290741-46.0209656C483.6122131,339.418335,468.8146667,321.6131592,448.8439636,316.8224487z M118.2862167,350.396698c-2.1131897-8.6637573-6.6496735-16.2986755-12.8217545-22.1973877L243.3044586,89.4605408c8.539032,2.4894333,17.3392487,2.3663864,25.4445038,0.0061417L406.5761108,328.183197c-6.2328186,5.9347534-10.7914734,13.5970764-12.8850403,22.213501H118.2862167z M398.6398621,173.6362762c6.4229736,11.1732941,16.8890381,18.5683594,28.5012817,21.455658v121.7996063c-0.5890503,0.1454773-1.1730042,0.3025208-1.7528992,0.4704895L287.5503235,78.6268539c0.4143982-0.3965149,0.8177795-0.805954,1.2182007-1.2193069l105.5436096,60.9374695C391.0511475,149.8006439,392.2377319,162.4992828,398.6398621,173.6362762z M224.4852142,78.6515884L86.6713104,317.3453674c-0.5980835-0.1741333-1.2000732-0.3384399-1.8074112-0.4884338V195.1277618c3.9461441-0.9847717,7.8250885-2.5061035,11.5292816-4.6208191c18.6504745-10.6475983,26.9533005-32.4238892,21.2955933-52.2387695l105.4884872-60.9055481C223.6018524,77.8017502,224.0415497,78.2284241,224.4852142,78.6515884z M289.7375793,435.6283264c-3.6878357-4.0439148-8.162323-7.497467-13.3588867-10.091095c-18.3183594-9.1427917-39.7821503-4.8483276-53.2470856,9.1560974l-105.338295-60.8189087c0.1706009-0.5874634,0.3323517-1.1784363,0.47966-1.7749329h275.4713135c0.2489624,1.0110474,0.5194092,2.0136108,0.8342896,2.9970398L289.7375793,435.6283264z"/>
</svg>
