<svg viewBox="0 0 24 24" xmlns="http://www.w3.org/2000/svg" fill-rule="evenodd" clip-rule="evenodd"
     stroke-linejoin="round" stroke-miterlimit="2">
    <path fill="#00a672" d="M22 12c0-5.519-4.481-10-10-10S2 6.481 2 12s4.481 10 10 10 10-4.481 10-10z"/>
    <path d="M14.514 12.068c0-.663.543-1.2 1.212-1.2l1.765-.001c.669 0 1.228.538 1.228 1.201s-.559 1.2-1.228 1.2h-1.765c-.669 0-1.212-.537-1.212-1.2zM10.811 12.07c0-.664.539-1.203 1.202-1.203.664 0 1.203.539 1.203 1.203 0 .663-.539 1.202-1.203 1.202-.663 0-1.202-.539-1.202-1.202z"
          fill="#fff" fill-rule="nonzero"/>
    <path d="M13.183 6.453c.027.647-.476 1.194-1.123 1.22-2.793.116-4.498 2.305-4.415 4.384.026.647-.467 1.192-1.114 1.218-.647.026-1.216-.496-1.242-1.143-.136-3.387 2.693-6.736 6.674-6.801.647-.027 1.193.476 1.22 1.122z"
          fill="#fff"/>
    <path fill="#ffffff"
          d="M5.285 12.006c.016 4.092 3.374 6.796 6.77 6.713 4.009-.143 6.905-3.625 6.664-6.733-.056-.646-.629-1.146-1.275-1.115-.647.031-1.147.58-1.115 1.227.09 1.889-1.652 4.202-4.331 4.277-2.129.052-4.26-1.619-4.353-4.22-.025.603-.5 1.095-1.114 1.12-.647.026-1.216-.496-1.242-1.143-.002-.042-.003-.084-.004-.126z"
    />
</svg>