<svg width="16px" height="16px" version="1.1" viewBox="0 0 300 300.00001"
     xmlns="http://www.w3.org/2000/svg">
    <g transform="matrix(2.1985 0 0 2.1985 16.994 11.498)" style="fill:#000000">
        <path d="m59.595 125.11c-.90254-.62553-1.9708-2.7016-2.579-5.0119-.5411-2.0555-.74632-7.4735-.38373-10.131.13481-.98807.21141-1.8302.17024-1.8715-.04117-.0412-.88105-.17216-1.8664-.29093-5.6769-.6843-11.736-2.6139-16.349-5.2065-.97848-.54991-1.8949-.99984-2.0365-.99984-.1416 0-.63996.73644-1.1075 1.6365-2.1733 4.1843-5.9689 8.3388-8.8542 9.6915-1.0534.49386-2.4567.61406-3.1059.26603-.97881-.52471-1.2688-2.6021-.68438-4.902.40029-1.5752 2.009-4.8889 3.3138-6.8256.57602-.85503 1.714-2.3052 2.5288-3.2226l1.4815-1.668-.77229-.73792c-2.0348-1.9443-5.8565-6.4417-5.8565-6.8921 0-.16124 5.2141-3.7835 5.594-3.8862.19331-.05226.66073.41024 1.2929 1.2793 1.3704 1.8839 5.0344 5.5067 7.1898 7.1091 16.435 12.218 39.6 9.1491 52.072-6.898.66258-.8525 1.3078-1.55 1.4338-1.55.24995 0 5.4107 3.4988 5.5905 3.7901.16079.26059-2.0948 3.1837-4.0216 5.2118-.91459.96266-1.6619 1.8285-1.6607 1.9242.0012.09564.71977.93041 1.5968 1.855 2.784 2.935 5.5238 7.5173 6.2846 10.511.58446 2.3.29443 4.3773-.68438 4.902-.21128.11326-.77192.20505-1.2459.20398-2.9996-.007-7.9744-4.8243-10.927-10.581-.5689-1.1094-1.1185-2.017-1.2214-2.017s-.68196.31713-1.2869.70473c-4.2898 2.7487-10.694 5.1199-16.234 6.0104-1.1781.18939-2.2391.41926-2.3576.51081-.15326.11835-.13355.6734.0682 1.9202.35985 2.224.22107 7.5064-.25334 9.6423-.48972 2.2049-1.2419 3.9137-2.1693 4.9281-1.066 1.1661-1.8955 1.3329-2.9598.59529zm-58.97-44.958c-.05324-.13974-.07358-7.4541-.04521-16.254l.05159-16h8.3861l.053 5.8901c.03965 4.4064.11509 5.9296.2995 6.0469.13558.08626 2.2347.15821 4.6647.1599 3.4417.0024 4.4671-.05589 4.6392-.26367.14747-.17798.23865-2.191.27404-6.05l.05303-5.7833h8.3861v32.4h-8.3861l-.05285-6.183c-.03552-4.155-.1254-6.2706-.27404-6.45-.17232-.20797-1.203-.26695-4.6649-.26695s-4.4925.05898-4.6649.26695c-.14864.17939-.23852 2.295-.27404 6.45l-.05285 6.183-4.1479.05407c-3.2097.04184-4.1698-.0034-4.2447-.2zm33.943-.0023c-.05275-.13847-.0727-7.4518-.04432-16.252l.05159-16h20.766l.05451 3.5471.05451 3.5471-6.1444.0529-6.1444.0529-.05655 2.3841c-.04205 1.7729.0091 2.4258.19967 2.5469.14092.08956 2.527.16422 5.3025.16591l5.0463.0031-.05453 3.55-.05452 3.55-5.1914.1-5.1914.1v5.6l6.3894.1 6.3894.1v7l-10.638.05176c-8.4041.04089-10.658-.0012-10.734-.2zm27.954 4.6e-5c-.05276-.13849-.07272-7.4518-.04434-16.252l.05159-16h8.3861l.09983 12.6.09983 12.6 6.0899.1 6.0899.1v7l-10.338.0518c-8.1645.04091-10.359-.0012-10.434-.2zm26.555-.0018c-.05238-.1375-.07202-7.45-.04365-16.25l.05159-16 4.3927-.04908c2.416-.02699 4.492.018 4.6133.1.29606.20012 4.7308 12.279 5.7089 15.549 1.0175 3.402.93835 3.2008 1.1688 2.97.1081-.10828.58031-1.4508 1.0494-2.9834 1.0336-3.3774 5.1223-15.086 5.392-15.44.14787-.19448 1.2243-.2412 4.608-.2l4.4151.05375v32.4l-3.7389.05439-3.7389.0544-.13258-.52912c-.27547-1.0994.0941-12.674.51028-15.98.65488-5.2023.55547-5.2828-.98835-.8-1.6696 4.8479-4.9886 13.762-5.3056 14.25-.27223.41883-.43568.45-2.36.45-1.4168 0-2.1289-.07868-2.2626-.25-.24718-.3167-4.3232-11.41-5.4372-14.798-.7858-2.3898-1.2134-3.2505-1.1993-2.4138.0034.19899.18682 1.8468.40768 3.6618.41367 3.3995.77906 14.796.50894 15.874l-.13168.5255h-3.6964c-2.7732 0-3.7201-.06244-3.7916-.25zm2.6414-36.94c-.78664-1.3339-2.7658-3.824-4.4399-5.5859-5.3921-5.6753-11.886-9.2624-19.858-10.97-2.2826-.48883-2.8884-.53537-7.0883-.5445-4.9449-.01076-6.0338.11237-9.8637 1.1153-5.1845 1.3577-9.9116 3.767-14.097 7.1848-2.0121 1.6432-5.2171 5.0232-6.5866 6.9461-.84338 1.1842-1.2679 1.6227-1.4895 1.5384-.72786-.27661-5.601-3.5527-5.5979-3.7634.0068-.47339 3.289-4.59 5.5161-6.9185l2.3038-2.4086-1.5234-1.6521c-2.7837-3.0188-5.4529-7.5178-6.1966-10.444-.58446-2.3-.29443-4.3773.68438-4.9021.21128-.11326.77192-.20505 1.2459-.20398 2.9996.0068 7.9744 4.8243 10.927 10.581.5689 1.1094 1.1049 2.017 1.1912 2.017.08625 0 .86659-.40515 1.7341-.90033 4.4592-2.5454 11.619-4.8137 16.493-5.2251.8414-.07102 1.6352-.19439 1.7641-.27415.17681-.10946.15066-.64573-.10664-2.187-.4741-2.84-.32693-8.4019.28349-10.713.96708-3.662 2.5201-5.7132 4.1009-5.4162 1.4744.27706 2.9045 2.6836 3.6484 6.1396.48548 2.2555.49819 8.5991.02139 10.677-.17673.77-.26249 1.462-.19059 1.5377.0719.07575 1.0292.27907 2.1274.45183 6.3631 1.001 11.189 2.7769 17.104 6.2944.40216.23914.78073.35452.84127.2564s.60602-1.1707 1.2122-2.3836c2.3402-4.6824 6.1076-8.9371 9.1956-10.385 1.0534-.49386 2.4567-.61405 3.1059-.26603.97881.52471 1.2688 2.6021.68438 4.9021-.4267 1.6792-2.0686 4.9958-3.5398 7.1503-.68688 1.0059-2.0817 2.6707-3.0996 3.6995l-1.8508 1.8706 1.821 1.9358c1.8404 1.9565 5.0912 6.1065 5.6864 7.2593.26943.52189.27872.66729.05574.87275-.45654.42067-5.3664 3.3037-5.6263 3.3037-.13518 0-.40232-.26542-.59363-.58982z"
              style="fill:#00acc1;stroke-width:.19983"/>
    </g>
</svg>
