<svg width="16px" height="16px" version="1.1" viewBox="0 0 24 23.999999" xmlns="http://www.w3.org/2000/svg">
    <defs>
        <radialGradient id="a" cx="205.45" cy="208.29" r="225.35"
                        gradientTransform="matrix(.045559 0 0 .045602 2.8884 2.8796)" gradientUnits="userSpaceOnUse">
            <stop stop-color="#ffd104" offset="0"/>
            <stop stop-color="#faa60e" offset=".35"/>
            <stop stop-color="#f05023" offset="1"/>
        </radialGradient>
    </defs>
    <g transform="translate(1e-4,-2e-4)" stroke-width=".045581">
        <path class="a"
              d="m19.97 3h-15.94a1.0301 1.0311 0 0 0 -1.0301 1.0311v4.1352c1.5481-1.1893 3.5627-1.9577 5.9478-1.9577 5.1076.00319 8.3501 3.5747 8.3487 8.0816 0 3.1306-1.4606 5.485-3.7459 6.7094h6.4193a1.0301 1.0311 0 0 0 1.0301 -1.0311v-15.937a1.0301 1.0311 0 0 0 -1.0296 -1.0311z"
              fill="#f05223"/>
        <path class="b"
              d="m3 17.722v2.2473a1.0301 1.0311 0 0 0 1.0301 1.0311h1.8369c-1.3932-.79165-2.3773-1.9996-2.867-3.2783z"
              fill="url(#a)"/>
        <path class="a"
              d="m8.9478 8.231c-2.5859-.089374-4.5983.86005-5.9478 2.2641v3.1625c.91756-2.6536 3.4466-3.8702 5.5651-3.8493 2.647.026442 4.6885 2.0247 4.7003 4.2834.01134 2.1588-.89205 3.748-3.3308 4.1397-1.3299.21342-3.4106-.56683-3.3176-2.5774.045561-1.037.85424-1.6221 1.7768-1.5801-.90435 1.213.29295 2.1022 1.139 1.9212 1.0479-.22436 1.4752-1.156 1.4752-1.8783 0-.76201-.71756-1.9937-2.4985-1.9513-2.2037.05243-3.5905 1.6394-3.6374 3.6026-.056496 2.468 2.2534 4.0914 4.6224 4.121 3.4789.0456 5.5427-2.2409 5.5382-5.5862-.005-3.0289-2.4338-5.9456-6.0849-6.0719z"
              fill="#f05223"/>
    </g>
</svg>
