<svg version="1.1" xmlns="http://www.w3.org/2000/svg"
     xmlns:xlink="http://www.w3.org/1999/xlink" x="0px" y="0px"
     width="16px" height="16px" viewBox="0 0 229 512">
    <path fill="#C55461"
          d="M119.4475555,34.3323021C74.4954529,82.0261002,32.7584534,170.3720245,19.7797623,237.8494873c6.2101078,12.2523499,12.4576721,34.8269043,15.1089478,48.285553c-2.728714-11.5440979-10.1588497-24.0269775-18.4423962-38.6402588l-8.0081415,25.0698242c10.3158979,18.8565674,16.5882797,51.1849976,16.5882797,51.1849976c-2.772768-11.7883606-10.3283825-24.2322388-19.6061401-40.6324158c-4.6352463,17.140564-6.4893451,28.6991272-4.8127823,31.5197144c10.7645073,22.0186157,18.4895954,67.8961792,19.7244797,82.1130066C18.9925976,438.7782898,22.2413311,482.511261,32.1864357,512l3.2939873-1.7948914C-2.4990261,373.5537109,83.4674683,129.1489716,196.491333,36.4625397c-63.0433502,63.1979294-139.5702057,236.28508-158.4664764,354.9420166c14.221344-43.4332886,60.1596451-62.1123962,60.1596451-62.1123962s22.5450745-27.7918091,48.8772812-67.4971313c-27.0683975,5.9363098-47.725502,11.297821-66.6095734,20.6120605c0,0,41.4608612-25.247345,77.0240936-36.6875153c48.9167023-77.0438232,102.2122345-186.514679,48.5419922-234.4057617C180.892746-12.0014248,147.942337,3.1980665,119.4475555,34.3323021z"/>
</svg>