<?xml version="1.0" encoding="iso-8859-1"?>
<!-- Generator: Adobe Illustrator 19.0.0, SVG Export Plug-In . SVG Version: 6.00 Build 0)  -->
<svg version="1.1" id="Capa_1" xmlns="http://www.w3.org/2000/svg" x="0px" y="0px"
     viewBox="0 0 512 512" width="16px" height="16px" xml:space="preserve" fill="#29B6F6">
   <g>
<g>
<path d="M467,73.56H45c-24.813,0-45,20.187-45,45v274.881c0,24.813,20.187,45,45,45h422c24.813,0,45-20.187,45-45V118.56
C512,93.746,491.813,73.56,467,73.56z M482,393.441c0,8.271-6.729,15-15,15H45c-8.271,0-15-6.729-15-15V177.965h452V393.441z
 M482,147.965H30V118.56c0-8.271,6.729-15,15-15h422c8.271,0,15,6.729,15,15V147.965z"/>
</g>
</g>
    <g>
<g>
<path d="M171.741,217.264c-26.749,0-48.512,21.763-48.512,48.512v65.461c0,8.284,6.716,15,15,15s15-6.716,15-15v-28.435h37.023
v28.435c0,8.284,6.716,15,15,15s15-6.716,15-15v-65.461C220.253,239.027,198.49,217.264,171.741,217.264z M190.253,272.803H153.23
v-7.026h-0.001c0-10.208,8.305-18.512,18.512-18.512c10.207,0,18.512,8.304,18.512,18.512V272.803z"/>
</g>
</g>
    <g>
<g>
<path d="M295.255,217.264H256c-8.284,0-15,6.716-15,15v98.973c0,8.284,6.716,15,15,15s15-6.716,15-15v-28.435h24.255
c23.583,0,42.77-19.187,42.77-42.77C338.025,236.45,318.838,217.264,295.255,217.264z M295.255,272.803H271v-25.538h24.255
c7.041,0,12.77,5.729,12.77,12.77C308.025,267.077,302.296,272.803,295.255,272.803z"/>
</g>
</g>
    <g>
<g>
<path d="M373.771,217.264c-8.284,0-15,6.716-15,15v98.973c0,8.284,6.716,15,15,15s15-6.716,15-15v-98.973
C388.771,223.98,382.055,217.264,373.771,217.264z"/>
</g>
</g>
</svg>
