<svg version="1.1" xmlns="http://www.w3.org/2000/svg" viewBox="0 0 512 512" width="16px" height="16px">
    <path transform="scale(0.9) translate(30 30)" fill="#BA68C8"
          d="M0,465.9664001h20.8463135c20.5153809,0,32.8135796-4.8565674,36.8946953-14.5697632c4.080925-9.7131042,6.1214333-56.2283936,6.1215286-139.5458984V202.0918884c-0.0000954-86.3389359-1.7648582-133.9334412-5.2942886-142.7836304c-3.5296211-8.8493423-14.1181984-13.2742233-31.7658253-13.2746658H0V25.6359253c36.6189003,1.5113964,72.7966309,2.2668686,108.533287,2.2664165c29.7803116,0.0004635,56.8033218-0.7550564,81.0690994-2.2664165v20.3976631h-25.4788513c-15.6624908,0.0004425-25.4790192,1.8351517-29.4496002,5.5041313c-3.9708557,3.669857-6.2871399,12.9513168-6.9487686,27.844429c-1.1031036,23.096138-1.6546249,64.2151871-1.65448,123.3572617V314.440918c-0.000145,83.9650574,1.8749237,130.2105103,5.625206,138.7364502c3.7499542,8.5260315,15.7724609,12.789032,36.0674744,12.7889709h21.8390198v20.397644c-27.1334991-1.5108948-56.6933441-2.2663879-88.6796417-2.2663879c-37.2808151,0-70.9216843,0.7554016-100.9227448,2.2663879V465.9664001z M208.2769928,294.2287292c3.7031097-31.1654663,13.6378021-58.3547668,29.8041382-81.5679474c16.1661835-23.2127228,36.982254-40.1572876,62.4482574-50.833725c25.4657898-10.6759033,53.3284912-13.7538757,83.5881958-9.2339478c43.8452148,6.5500641,77.2515259,26.0207214,100.2191162,58.4120331c22.96698,32.3918152,31.6329651,72.3006439,25.9980774,119.7264862c-6.6552734,56.0079651-29.1298828,97.9304199-67.4238892,125.7675476c-34.1867981,25.0029907-72.6881104,34.3065796-115.5041199,27.910614c-41.1695557-6.1500244-72.8665161-26.3421631-95.0910339-60.5765076C210.091095,389.598999,202.0782013,346.397522,208.2769928,294.2287292z M269.1837769,278.8484497c-5.5279846,46.5227966-1.5605164,87.625946,11.9024353,123.3095093c13.462677,35.6836853,36.5589294,55.9701538,69.2887878,60.859375c24.9073181,3.7207031,46.2632446-3.6619873,64.0678711-22.1482544c17.8041077-18.4862061,29.2153015-48.8451538,34.2336426-91.0769958c4.0516968-34.1014404,3.0316772-64.3062134-3.0600891-90.6145325c-6.0923462-26.3078766-15.8713074-46.2713318-29.3368835-59.8904114c-13.466095-13.6185455-29.3591919-21.7963409-47.6793823-24.5333557c-16.262146-2.4289856-31.4653931-0.1031799-45.6099243,6.9774933c-14.1448059,7.0811768-25.2037964,17.7259369-33.1769714,31.9343567C278.931488,232.9564056,272.0549927,254.68396,269.1837769,278.8484497z"/>
</svg>