<svg version="1.1" viewBox="0 0 512 512" xmlns="http://www.w3.org/2000/svg" width="16px" height="16px">
    <path d="m455.53 83.986-11.783 65.043c-3.2089 1.9451-3.4321 5.2876-1.0612 6.3905h24.253c4.3397.48163 5.6149-6.4524.59932-5.5903zm-12.513 72.299v52.416l-7.4319.0496c-.9644 5.6606.84949 11.824 4.8712 14.493l-.16674 124.36c-4.8391 1.1251-6.397 6.7807-.68086 8.2061l-4.3274 38.45-4.5794.002v-39.26h-13.145l-.31362-79.706c4.3575-3.6511 2.8983-7.6532 3.2931-11.87h-4.2102l-.32952-36.048c1.9182-1.4331 3.0992-5.216-.22033-5.5541l-8.1227-44.691c-.7127-.97066-1.3527-.57226-1.7568 0l-7.4736 44.587c-4.0723 1.2846-3.4277 3.0757-.95083 4.4663l.18859 37.713s-3.624.0342-4.9586.0993c-.80594 6.7991 2.8048 10.348 2.8048 10.348l-.30967 53.933-13.675.1568v-7.4319h-9.4526l.0516-22.149h2.8981s.3138-2.19-.68483-2.2212c-.55163-.0172-1.278-.0119-2.2073-.014l.0595-25.293-17.313.0794v-3.6941h-6.098c-14.785-30.857-44.131-50.285-82.68-52.758h-.0535l.0337-5.6355c-.47685-2.2681-1.4882-4.4056-4.0355-6.6736 0 0-.0149-.79568 0-1.985.19547-.0352.9313-.0122 1.2148-.52603l-.0814-2.2272s-.13915-.8928-1.2049-1.195c.54272-3.7297-.76225-3.6584-.76225-3.6584l.0675-1.4352c.92009-.90728 1.2222-2.7383-.1727-2.7056 0 0 .0486-4.0879-.59947-4.2499-.64802-.16201-.90121 3.4301-.90121 3.4301-.99741.59298-1.3917 2.4786-.25011 3.6346l-.30768 4.9228c-.99345 1.079-1.4966 2.3759-.20446 3.7596l.12903 1.9354c-2.3153.88384-4.2558 5.0132-4.3651 6.7709l-.0476 5.6831c-34.286 2.2152-68.12 20.402-82.092 52.837l-6.4731.0477.0237 3.7279-17.885.0555v25.325c-.75393-.006-1.3343-.0181-1.9116 0-.9986.0311-1.3736 2.247-1.3736 2.247h3.2852v22.349l-8.3847-.11712v7.1441l-23.741-.0952-.49228-52.688c3.3976-4.3156 3.0974-6.7933 3.0649-12.013h-3.835l-.5836-37.795c3.1656-.9725 3.3695-4.7493.0654-5.3119l-8.5455-44.105c-.0863-.36797-.26706-.73212-.54192-.67491-.16492.0344-.36416.22113-.59749.64712l-7.6443 44.379c-4.6786 2.1129-2.9365 4.0016-1.2406 5.1094l.0833 37.751h-5.2841c.04472 3.494-1.2967 7.7709 3.5294 11.866l.1589 79.496h-14.354l.27395 39.381-4.6132.002-3.6405-38.807c6.4472-1.7268 3.9079-6.4861-.20446-7.9976 0 0 .24048-119.26-.1191-122.98-.35959-3.7157 4.4325-4.1957 4.4325-12.107.93903-5.4733-4.698-3.8554-7.1064-3.968v-52.101h-25.239v52.113c-2.6686-.0386-4.686-.05-5.0499.002-1.6781.23973-2.0385 2.9962-1.4391 7.551.59931 4.5548 4.1388 7.5232 4.1388 7.5232l.64712 121.23c.29704 4.0823-1.291 3.5457-2.8664 3.9343-3.1066.49812-2.3388 6.4711 1.7964 6.4711.65924 5.7534-7.9103 72.398-7.9103 72.398l446.22.38508-8.474-72.55c7.005-.82767 4.1829-7.8227-1.0342-7.7039l-.11315-124.01c2.2186-1.2109 6.7094-7.2351 4.4246-15.251l-6.5148.0436v-52.254zm-184.67 117.54c2.2896.0672 4.513 1.6566 5.1789 4.4762v16.378h-11.106l.3573-16.202c.92502-3.2667 3.2804-4.7202 5.57-4.6529zm-39.291.0219c2.45-.0469 4.9977 1.817 5.6831 5.0082v15.821l-10.588-.0456.28783-16.93c.86597-2.6225 2.7116-3.8165 4.6172-3.8529zm102.95.0873c1.9706.18074 3.7493 1.8678 4.2638 4.8911v15.956h-9.6432l-.0317-16.704c1.2787-2.9987 3.4405-4.3235 5.4112-4.1427zm-50.463.004c2.3001.0981 4.5061 1.6535 5.1154 4.4901v16.319l-10.943-.0456.14292-16.503c.98967-2.9971 3.385-4.3579 5.6851-4.2598zm-64.88.0158c2.2043-.1157 4.5112 1.3872 5.2603 4.1328v16.593h-9.7226l.28584-17.341c.80939-2.2264 2.462-3.2945 4.1765-3.3844zm150.05.0278c1.692.1227 3.362 1.5339 4.3551 4.7998l-.0794 4.6092c-6.4047-.0794-6.1135.99777-9.3415 3.1959l-.16675-7.9004c.84773-2.8918 3.0572-4.8623 5.2325-4.7045zm-162.29.0219c2.2043-.1157 4.5112 1.3872 5.2603 4.1328v16.595h-9.7226l.28584-17.343c.80939-2.2265 2.462-3.2945 4.1765-3.3845zm50.326 0c2.3718-.1157 4.7922 1.3872 5.1809 4.1328v16.595h-9.937l.28784-17.343c.80939-2.2265 2.6236-3.2945 4.4682-3.3845zm38.839 0c2.3179-.1157 4.7445 1.3872 5.5322 4.1328v16.595h-10.225l.30172-17.343c.85113-2.2265 2.588-3.2945 4.3909-3.3845zm49.681.0317c2.2067-.0937 4.4368 1.4348 4.8256 4.1805v16.595l-9.3395-.0794.28584-17.343c.80939-2.2265 2.5118-3.2799 4.2281-3.3527zm-161.8.012c1.8995.13671 3.6831 1.6753 4.4742 4.4127l.0873 16.444h-3.3448c-.27018-2.142-.84858-7.5799-4.5278-8.3986-.23906-1.0614-1.2356-1.6789-1.8798-2.114l.0237-6.3421c1.2521-2.8725 3.2675-4.1385 5.167-4.0018zm11.011.006c2.2043-.1157 4.5112 1.3872 5.2603 4.1328v16.595h-9.7226l.28784-17.341c.80939-2.2264 2.4601-3.2964 4.1745-3.3864zm48.784 0c2.2043-.1157 4.5112 1.3872 5.2603 4.1328v16.595h-9.7226l.28782-17.341c.8094-2.2264 2.4601-3.2964 4.1745-3.3864zm113.53.0397c2.1345-.13039 4.2291 1.4693 5.1908 3.9561l.0238 10.407c-.64425.43519-1.7201 2.0473-1.7349 4.7343-.70845.53843-1.3599.91635-1.3498 1.7131h-6.6677v-16.974c1.1942-2.5883 2.8776-3.7356 4.5378-3.837zm-47.549.0317c1.9813.10314 3.779 1.6803 4.3651 4.5199l-.2402 16.035h-9.7226l.12704-16.224c1.324-3.0632 3.4894-4.4344 5.4707-4.3313zm-137.41.1233c1.8914-.12757 3.8048.82907 4.5775 3.1502v6.4414h-9.1172l.0873-6.2349c.69042-2.0172 2.561-3.2291 4.4524-3.3567zm149.47.0734c2.2354.0101 4.4754 1.5395 4.8851 4.5358v15.819l-9.7424-.0456v-15.733c.39116-3.0769 2.622-4.5856 4.8573-4.5755zm-136.23 24.745h3.3725v22.063h-3.3725zm170.74 0h3.3726v22.063h-3.3726zm-184.15 13.778h2.3781v15.205h-2.3781zm198.94 0h2.38v15.205h-2.38zm-175.74 8.6944h2.6818v98.544h-2.6818zm151.75.004h3.3428v98.534h-3.3428zm-75.589 17.262c3.9233-.0794 7.8691 2.4769 7.9778 7.9083v25.114h-15.733l-.0873-25.115c.0191-5.1137 3.9195-7.8289 7.8428-7.9083zm-19.29 11.146c2.9419-.0248 5.9008 1.8974 5.9828 5.9094v15.555h-11.864v-15.69c.0144-3.7774 2.9397-5.7496 5.8816-5.7744zm38.62 0c2.9419-.0248 5.9008 1.8974 5.9828 5.9094v15.555h-11.864v-15.69c.0144-3.7774 2.9397-5.7496 5.8816-5.7744zm-118.69.999h2.39v7.8527h-2.39zm198.94 0h2.39v7.8527h-2.39zm-198.91 29.184h2.388v8.1445h-2.388zm198.94 0h2.39v8.1445h-2.39zm-158.72 4.1904c2.5393-.0248 5.0942 1.898 5.165 5.9114v15.561h-10.241v-15.696c.0123-3.7787 2.5364-5.7516 5.0757-5.7764zm19.951.2501c2.5393-.0248 5.0923 1.898 5.163 5.9114v15.561h-10.241v-15.696c.0124-3.7787 2.5384-5.7516 5.0777-5.7764zm19.733.12705c2.7561-.0248 5.5269 1.8984 5.6037 5.9114v15.559h-11.114v-15.694c.0134-3.7783 2.7543-5.7516 5.5104-5.7764zm19.699 0c2.7561-.0248 5.5269 1.8984 5.6037 5.9114v15.559h-11.114v-15.694c.0134-3.7783 2.7543-5.7516 5.5104-5.7764zm19.197 0c2.7561-.0248 5.5289 1.8984 5.6057 5.9114v15.559h-11.116v-15.694c.0134-3.7783 2.7544-5.7516 5.5104-5.7764zm20.327 0c2.7561-.0248 5.5289 1.8984 5.6057 5.9114v15.559h-11.116v-15.694c.0134-3.7783 2.7543-5.7516 5.5104-5.7764zm19.548 0c2.7561-.0248 5.5289 1.8984 5.6057 5.9114v15.559h-11.116v-15.694c.0134-3.7783 2.7543-5.7516 5.5104-5.7764zm-261.43-299.58-11.783 64.213c-3.2089 1.9203-3.4321 5.2201-1.0612 6.309h24.253c4.3397.47552 5.4229-6.37.40732-6.287z"
          style="fill:#fdd835;stroke-width:1.0163"/>
</svg>
