<svg version="1.1" fill="#5C6BC0" xmlns="http://www.w3.org/2000/svg" viewBox="0 0 512 512" width="16px" height="16px">
    <path transform="scale(0.9) translate(30 30)"
          d="M213.3743439,0H494.405365v73.3734207c0,0-26.9004822,0-46.0123291,0s-29.3222656,12.8657455-29.3222656,27.9338608s0,198.5084839,0,274.3424683s-55.3650818,106.9038391-55.3650818,106.9038391s-37.866394,29.1279907-104.8607483,29.1279907s-158.2481689,7.3029785-207.7657471-48.0401917c-21.6639252-24.212616-34.2429581-46.0027161-33.4491119-81.1450806c0.7178402-31.7776489,12.8330898-54.7562256,46.0573654-71.797821c59.2144928-30.3726196,149.9420319-3.077301,126.7630615,74.2755432c-6.462204,21.5656128-29.637207,28.8114014-30.5455322,37.5622864c-1.5986481,15.4015808,3.9101257,30.5747986,16.2986755,30.5747986c39.1466827,0,58.8456726,8.0525513,79.0013885-0.1238708c36.7332764-14.9013672,33.7388-60.7304077,33.7388-60.7304077s0-278.757019,0-295.1635742s-15.5349121-23.7198563-27.1860962-23.7198563c-11.6511993,0-48.3834076,0-48.3834076,0V0z"/>
</svg>