<svg version="1.1" xmlns="http://www.w3.org/2000/svg"
     xmlns:xlink="http://www.w3.org/1999/xlink" width="16px" viewBox="-48 -48 608 608"
     height="16px" fill="#92AA5D">
    <path d="M468.992 313.856c3.072 3.072 4.096 8.704 0 11.776-9.216 6.144-21.504 5.632-33.28 4.096-19.456-2.56-41.984-3.072-51.712-20.992 0 0 0 0-1.024-1.024-12.288-7.168 8.704-11.776 14.848-12.288 13.312-1.536 28.16 1.536 40.96 4.608 11.264 2.048 21.504 5.12 30.208 13.824v0zM487.424 202.24c-5.632-34.816-9.216-71.168-20.992-105.472-5.632-13.824-7.68-29.696-24.064-31.744-21.504-4.096-14.848 14.848-11.776 31.744 4.096 26.112 6.144 53.248 13.312 78.848 4.608 17.92 13.312 39.424-10.752 25.6-40.448-23.552-54.272-77.312-69.632-116.736-7.168-17.92-28.16-60.416-43.008-71.168-7.168-5.632-40.96-12.288-47.104-7.68-13.824 9.216 29.696 76.8 35.84 89.088 13.312 27.136 27.136 53.248 44.032 77.312 12.288 16.896 31.744 32.768 4.096 43.52-28.16 10.752-41.984-5.632-61.44-19.456-15.36-11.776-34.816-13.312-54.272-15.36-52.736-6.144-102.912 0-144.896 34.816-19.968 16.896-33.28 40.448-44.032 64.512-3.072 6.144-19.968 58.88-17.92 58.88-10.752-1.536-4.096-27.136-17.92-12.288-12.288 12.8 3.584 50.176 9.216 62.464 12.288 28.672 24.576 56.832 34.816 87.040 9.216 30.208 11.776 29.696 39.424 31.744 34.816 3.072 69.632-7.68 103.936-11.776 0 0-61.44-37.888 59.904 4.096 27.136 9.216 54.784 7.168 83.968 7.68 19.968-4.608 20.992-39.424 31.232-54.784 4.096-6.144 23.040-36.352 29.696-38.912 8.704-3.072 20.992 5.632 29.696 7.168 50.176 7.68 66.048-33.28 58.368-73.728-7.168-35.84-3.072-75.264 2.56-102.4 0-11.264-10.752-33.792-12.288-43.008v0z"></path>
</svg>