<svg version="1.1" xmlns="http://www.w3.org/2000/svg" xmlns:xlink="http://www.w3.org/1999/xlink" x="0px" y="0px"
     width="16px" height="16px" viewBox="-158 -48 608 608">
    <path class="i-color" fill="#FF4081"
          d="M100.7600861,484.9421082c3.266098-5.7012939,40.195694-100.4748535,81.9957428-210.6906128c70.3352356-185.1636047,86.829834-201.2075195,96.5994568-211.2349548c5.987793-6.2456665,0.867157-12.4913063,0.867157-14.1243515C263.545105,21.4346695,193.2742767-5.8743677,160.2084198,1.1043274c-4.0682831,1.0886953-4.8991089,4.3547812-4.8991089,16.8460884c0,15.7573929-2.7217102,25.5269623-18.994812,66.7826843C131.7019043,96.6800613,1.3739519,451.5651245,1.3739519,451.5651245C-10.7478275,493.3118286,60.2254066,544.3988037,100.7600861,484.9421082z M221.8628082,17.3917789c27.3987427,11.4485302,41.5422211,25.2547741,30.1395721,29.6095562c-10.8582764,4.0682755-59.448349-13.293499-72.2261353-26.07131c-4.8991089-4.8991013-5.1569824-6.5035105-2.4352112-10.0560741C181.9536285,5.716979,199.8729858,8.2033567,221.8628082,17.3917789z M176.7966003,51.871788c9.769577,10.3139191,29.5953217,17.6769257,51.3118591,18.4791183c10.8582611,0.5443497,19.5391388,1.0886993,19.5391388,1.6330414c0,0.257843-1.8908844,3.5239334-4.0682831,6.7900162c-2.1773834,3.2660904-11.1447601,25.2404633-20.0835114,48.5900574c-14.1243439,36.9295731-17.6482544,43.9774399-27.4178772,52.9448166c-14.9265442,13.5800323-38.5626373,26.8735046-55.6665802,30.9417725c-7.3343658,1.8908844-18.7369461,5.4434814-25.2404785,8.4230652c-6.5034866,2.7217102-15.5569382,5.9127045-16.6456299,5.9127045c0,0,53.3173828-141.3976288,58.4456635-155.2641296c5.4434814-13.579998,10.6004486-24.9826126,11.6891022-24.9826126C169.748642,45.3396301,173.5305176,48.3478584,176.7966003,51.871788z M154.0201111,279.9241943c0,0,22.0030518-56.2108765,23.3496094-58.6461487c2.7217102-5.1569672,3.2660828-13.0356445,1.0886993-13.0356445c-0.8021851,0-4.8991089,1.8908844-8.9673767,4.3547821c-6.5321808,3.8103943-6.5321808,3.8103943,0.8021851-1.8908844c4.6125946-3.5239105,12.491333-10.3139496,17.6482544-15.2130585c8.6808777-8.1365509,15.75737-11.9469604,12.7491455-6.789978l-0.0000458,0.0286255c-0.8022003,1.0886993-26.0713196,66.7826691-55.9243927,145.7988434C96.4339752,462.1369324,89.0996399,479.5273743,80.6766052,487.1195374c-5.1569748,4.8991089-11.6604538,8.9673767-14.1243515,8.6808777c-3.2660828,0-2.1773911-1.0886841,2.7217407-2.9795837c4.3547821-1.6329956,7.3343353-4.6125793,7.3343353-7.5921631c0-2.7217102,1.0886917-5.7012939,2.4352341-6.789978c1.3465347-0.8022156,3.5239258-5.4434814,4.6126251-10.0560913c0.8021927-4.8991089,2.7217331-10.5717468,3.8104324-13.0356445c0,0,49.163063-127.6062012,52.1712875-135.7713928c3.2660828-8.1365662,6.789978-16.0152588,8.1365509-17.3904724C151.3285675,295.1610107,148.2241669,291.5213928,154.0201111,279.9241943z M11.4873476,455.9198608c0-3.2660828,35.2965622-104.2566223,35.2965622-104.2566223c0-1.8908997,8.9673767-12.2334595,19.5391655-23.0917358c10.8582611-10.8582458,17.9061203-19.8256226,15.7573929-19.8256226s-7.878685,3.8103943-12.7491531,8.6808472c-4.8704681,4.8704834-8.9673767,7.3343811-8.9673767,5.4434814c0-8.1651917,25.5269623-67.8713379,32.0304718-74.9478302c5.9591675-6.5034943,29.3087387-23.3496094,32.3169556-23.3496094c0.5443192,0,0.8021622,1.0886993,0.8021622,2.7217102c0,1.3465729-1.919548,2.7217102-4.3834457,2.7217102c-5.1569672,0-12.7491531,17.6482544-12.7491531,29.0508881c0.2578735,4.8991089-0.8021851,8.9673767-2.1773834,8.9673767c-4.3547821,0-13.8378525,22.2609253-15.2130508,36.6430664c-1.3465347,12.4913635-0.8021927,14.6686707,3.8104324,17.3904419c7.3343353,3.8104248,9.2252274,12.204834,4.3547821,18.994812c-4.0682755,5.9878235-15.4708862,7.5921936-18.45047,2.9795837c-4.0682755-6.5321655-7.0478592-2.1773682-5.4434509,7.5921936c1.3465424,9.2252502,0.8308563,10.8582764-4.8704681,13.2935181c-4.3547745,2.1773987-8.423027,7.8786926-11.402607,16.3017578l-23.349575,61.9121704c-2.9795799,7.3343811-6.2456665,19.5678406-7.0478573,26.6156921c-1.3465385,11.1447754-0.5443478,13.8378601,4.8991299,20.0835266l6.5035133,7.3343506C26.4643478,490.6630554,13.2261248,472.4917297,11.4873476,455.9198608z"/>
</svg>
