<?xml version="1.0" encoding="utf-8"?>
<!-- Generator: Adobe Illustrator 17.0.0, SVG Export Plug-In . SVG Version: 6.00 Build 0)  -->
<!DOCTYPE svg PUBLIC "-//W3C//DTD SVG 1.1//EN" "http://www.w3.org/Graphics/SVG/1.1/DTD/svg11.dtd">
<svg version="1.1" id="Layer_1" xmlns="http://www.w3.org/2000/svg" xmlns:xlink="http://www.w3.org/1999/xlink" x="0px" y="0px"
	 width="16px" height="16px" viewBox="0 0 16 16" enable-background="new 0 0 16 16" xml:space="preserve">
<path fill="#D24A39" d="M6.114,6.196C6.068,6.112,5.922,6.26,5.798,6.331C5.433,6.453,5.095,6.059,5.004,5.603
	c-0.07-0.347,0.107-0.657,0.314-0.737C5.693,4.72,5.952,4.815,6.054,5.371c0.2,0.001,0.353-0.02,0.422-0.122
	C6.463,4.977,6.343,4.742,6.348,4.534C6.359,3.992,6.607,3.613,6.43,3.049c0.011-0.156,0.365-0.555,0.842-0.866
	C7.621,1.956,7.938,1.78,8.431,1.775c0.428-0.004,0.83,0.079,1.51,0.401c0.167,0.079,0.502,0.502,0.729,0.798
	c0.006,0.014,0.003,0.015-0.034,0.01c-0.323-0.058-0.505,0.099-0.492,0.313c0.175-0.137,0.508-0.107,0.739,0.134
	c0.546,0.501,0.185,3.002-0.254,3.562C10.266,7.688,9.866,7.93,9.104,8.104c-0.329,0.05-0.677-0.017-1.009-0.211
	C7.719,7.672,7.317,7.271,7.028,6.792C7.031,7.16,7.695,7.869,8.076,8.079C7.91,8.084,7.639,8.009,7.524,8.211
	C6.465,8.184,6.366,7.874,6.067,7.152C6.007,7.008,5.939,6.8,5.933,6.673C5.852,6.441,6.179,6.397,6.114,6.196z M6.363,2.921
	C6.231,2.999,6.166,2.894,5.924,2.972C5.661,3.056,5.613,3.063,5.616,3.047c0.202-0.542,1.409-1.122,1.528-1.014h0.001
	c0.045,0.036,0.01,0.096-0.069,0.124C7.028,2.173,6.763,2.389,6.688,2.468C6.607,2.555,6.522,2.778,6.363,2.921z M5.207,4.654
	C5.163,4.117,5.149,3.696,5.476,3.432c0.329-0.267,0.788-0.36,0.802-0.285l0,0c0.126,0.421-0.056,0.876-0.046,1.404
	c0.003,0.171,0.12,0.421,0.087,0.537c-0.021,0.038-0.056,0.051-0.116,0.06C6.18,4.725,5.746,4.396,5.207,4.654z M10.94,10.812
	c0.186-0.558,0.748-2.09,0.718-2.357c0.007-0.295-0.452-0.473-0.942-1.025c-0.04-0.07,0.022-0.195,0.099-0.329
	c0.345-0.55,0.483-1.523,0.535-2.318c1.765,1.931,1.382,4.474,0.556,5.726C11.315,10.583,10.939,10.869,10.94,10.812z M10.236,7.913
	c0.014-0.028,0.223-0.202,0.262-0.235c0.076,0.048,0.244,0.221,0.421,0.379c0.196,0.175,0.401,0.339,0.452,0.437
	c0.027,0.054,0.027,0.055,0.022,0.15c-0.148,0.885-0.541,1.885-0.711,2.183c-0.05,0.089-0.206,0.091-0.433,0.099
	c-0.209,0.009-0.279,0.019-0.343,0.051c-0.04,0.02-0.051,0.021-0.051,0.004c0-0.018,0.815-1.365,0.849-1.431
	c0.05-0.041-0.153-0.189-0.155-0.269c0.1-0.264,0.124-0.659,0.032-0.968C10.467,7.928,10.317,8.017,10.236,7.913z M4.415,8.978
	C4.938,8.518,5.5,8.186,6.089,7.939c0.089,0.015,0.221,0.223,0.373,0.38c0.169,0.176,0.546,0.36,0.979,0.558
	c0.189,0.714,0.246,1.212,0.577,1.071C8.05,9.936,8.081,9.927,8.086,9.927c0.084,0.036-0.258,0.282-0.15,0.455
	c0.164,0.175,0.689,0.378,1.107,0.573c-0.77,0.039-1.717,0.149-2.232,0.185C6.75,11.081,6.71,10.86,6.784,9.968
	c0-0.213-0.102-0.212-0.141,0.003c-0.062,0.146,0.131,0.9-0.036,1.108c-0.127-0.027-0.292-0.207-0.348-0.178
	c-0.02,0.032-0.001,0.084,0.054,0.149c0.085,0.11,0.063,0.179-0.081,0.201c-0.111,0.024-0.159,0.059-0.159,0.118
	c-0.025,0.067,0.309-0.05,0.624,0.039c0.043,0.411,0.128,1.067,0.214,1.734c-0.165,0.028-0.475-0.026-0.948-0.226
	c-0.24-0.102-0.524-0.274-0.846-0.428C5.082,11.387,4.934,10.162,4.415,8.978z M10.303,8.238c0.19,0.121,0.228,0.829,0.099,0.987
	c-0.294-0.02-0.633-0.056-0.818-0.115l0.003-0.268c0.041-0.043,0.139-0.057,0.258-0.06c0.03-0.005,0.011-0.02-0.127-0.046
	C9.66,8.728,9.663,8.726,9.622,8.733C9.57,8.743,9.557,8.735,9.543,8.686C9.5,8.569,9.489,8.581,9.53,8.565
	C9.831,8.386,10.066,8.159,10.303,8.238z M9.319,8.514C8.933,8.538,8.812,8.436,8.695,8.353c-0.033-0.027-0.007-0.047,0.05-0.034
	c0.265,0.1,0.53-0.037,0.901-0.092c0.019,0,0.021,0.017-0.002,0.034L9.319,8.514z M7.414,8.579C7.409,8.621,7.406,8.624,7.386,8.624
	C7.031,8.562,6.715,8.383,6.755,8.279c0.016-0.052,0.008-0.042,0.117,0.002c0.22,0.076,0.602,0.04,0.582,0.1L7.414,8.579z
	 M7.695,8.345c0.093-0.09,0.232-0.043,0.59,0.082C8.666,8.56,8.7,8.689,8.931,8.716c0.01,0.05,0.024,0.062-0.027,0.09
	C8.785,8.855,8.729,8.859,8.648,8.883C8.604,8.896,8.593,8.917,8.637,8.908c0.049-0.01,0.296,0.059,0.321,0.091
	c0.009,0.035,0.003,0.11-0.001,0.18c-0.18,0.123-0.282,0.25-0.439,0.346C8.222,9.706,7.915,9.803,7.831,9.733
	C7.602,9.204,7.49,8.717,7.695,8.345z M9.211,9.073c-0.068,0-0.09,0.001-0.105-0.033L9.052,8.774
	C9.045,8.728,9.053,8.72,9.075,8.709c0.143-0.087,0.266-0.053,0.311,0.052C9.442,8.892,9.397,9.076,9.211,9.073z M9.686,10.764
	c-0.26-0.437-0.405-0.966-0.717-1.39l0.087-0.115c0.193,0.037,0.22-0.076,0.387-0.067c0.095,0.006,0.186,0.164,0.396,0.18
	C9.814,10.076,9.77,10.616,9.686,10.764z M9.97,9.393c0.234-0.131,0.496,0.006,0.597,0.196c-0.284,0.522-0.615,1.06-0.774,1.223
	C9.891,10.396,9.959,9.877,9.97,9.393z M8.121,10.234C8.22,9.868,8.487,9.717,8.812,9.505c0.252,0.279,0.462,0.794,0.672,1.316
	C9.431,10.864,8.519,10.489,8.121,10.234z M12.202,12.527c-0.235,0.099-0.707,0.089-0.739,0.023
	c0.013-0.063,0.555-0.129,0.554-0.153c-0.108-0.067-0.49-0.054-0.967-0.014c-0.048-0.471-0.095-0.946-0.173-1.183
	c0.129-0.152,0.6-0.264,0.798-0.349c0.144-0.062,0.373-0.238,0.601,0.146C12.447,11.502,12.756,12.209,12.202,12.527z
	 M10.543,12.502c-0.025-0.256-0.106-0.762-0.171-1.267c0.002-0.013-0.026-0.034,0.276-0.018c0.172,0.29,0.222,0.715,0.219,1.2
	C10.71,12.479,10.616,12.495,10.543,12.502z M7.457,14.538c-0.329-1.05-0.541-2.096-0.633-3.138
	c0.788-0.153,1.774-0.272,2.682-0.114c0.127,1.485,0.134,2.81,0.238,3.3C9.134,14.753,8.406,14.779,7.457,14.538z M9.746,12.776
	c-0.039-0.524-0.069-1.034-0.057-1.486c0.117-0.029,0.238-0.051,0.402-0.031c0.095,0.368,0.117,0.976,0.157,1.403
	c0.001,0.008,0.001,0.025-0.004,0.034C10.042,12.734,9.774,12.793,9.746,12.776z M10.24,13.985
	c-0.157,0.059-0.302,0.095-0.426,0.088c-0.029-0.389-0.036-0.783-0.045-1.057c0.196-0.005,0.336-0.117,0.327,0.011
	C10.141,13.329,10.242,13.617,10.24,13.985z M10.392,4.624c-0.033,0.009-0.037,0.012-0.037,0.035c0,0.081,0.058,0.156,0.14,0.18
	c0.133,0.038,0.361-0.032,0.481-0.145c0.074-0.071,0.073-0.066,0.013-0.166c-0.049-0.08-0.147-0.277-0.25-0.499
	c-0.023-0.051-0.044-0.092-0.047-0.092c-0.004,0-0.006,0.03-0.006,0.065c0,0.115,0.028,0.229,0.103,0.417
	c0.023,0.057,0.041,0.112,0.039,0.123C10.819,4.595,10.525,4.592,10.392,4.624z M8.837,4.504C8.73,4.392,8.707,4.355,8.624,4.158
	C8.592,4.084,8.529,3.95,8.529,3.95C8.466,4.189,8.732,4.569,8.763,4.675C8.737,4.738,8.604,4.759,8.465,4.738
	C8.257,4.707,8.169,4.677,8.156,4.721c-0.028,0.056-0.032,0.1,0.012,0.151C8.257,4.976,8.523,5.011,8.71,4.974
	c0.088-0.018,0.131-0.06,0.182-0.103c0.073-0.061,0.093-0.17,0.05-0.246C8.919,4.586,8.879,4.552,8.837,4.504z M9.269,6.318
	c0.619,0.035,0.95-0.203,1.307-0.416c0.013-0.081,0.056-0.186,0.081-0.283c0.017-0.081,0.01-0.094-0.133-0.234
	c-0.368-0.361-0.769-0.918-0.817-1.137c-0.029-0.145-0.12-0.146-0.105-0.037C9.6,4.618,9.977,5.092,10.322,5.472
	c0.103,0.103,0.147,0.248,0.026,0.399c-0.228,0.107-0.455,0.214-0.59,0.252C9.277,6.201,9.304,6.14,9.221,5.844
	c0-0.002-0.003-0.004-0.009-0.004C9.17,5.867,9.069,6.117,9.269,6.318z M5.928,5.658c0.09-0.58-0.571-0.842-0.674-0.362
	c0.012,0.039,0.057-0.109,0.198-0.065C5.38,5.497,5.397,5.703,5.49,5.858c0.031,0.039,0.012-0.352,0.042-0.435
	C5.57,5.32,5.649,5.279,5.713,5.324C5.771,5.367,5.84,5.556,5.928,5.658z M9.809,6.818c0.001-0.12-0.001-0.232-0.018-0.305
	C9.346,6.506,8.836,6.504,8.532,6.36C8.519,6.354,8.52,6.359,8.541,6.4C8.659,6.634,9.155,6.853,9.809,6.818z M8.341,6.725
	C8.448,6.824,8.559,7,8.658,7.119C8.94,7.467,9.684,7.381,9.904,7.233C9.93,7.211,9.991,7.126,9.991,7.112
	C9.265,7.108,8.704,7.15,8.465,6.702c-0.028-0.069-0.042-0.063-0.1-0.05C8.31,6.665,8.316,6.691,8.341,6.725z M11.845,11.142
	c-0.125-0.014-0.519,0.058-0.679,0.292C11.366,11.465,11.611,11.224,11.845,11.142z M12.001,11.568
	c0.032-0.01-0.244-0.072-0.455-0.061c-0.121,0.006-0.244,0.07-0.217,0.097C11.463,11.618,11.712,11.599,12.001,11.568z
	 M12.067,11.93c-0.227-0.071-0.63-0.136-0.759-0.015C11.344,11.939,12.143,11.953,12.067,11.93z M4.871,4.552
	c0.073-0.099,0.087,0.137,0.059,0.21c-0.4,0.501-0.113,1.759,0.732,1.905C5.653,7.055,5.976,7.387,5.978,7.56
	C5.981,7.724,5.512,7.866,4.53,8.521C4.351,8.64,4.147,8.697,4.13,8.878c-0.025,0.319,0.576,1.323,0.665,2.497
	C3.428,10.201,2.447,6.91,4.871,4.552z M6.873,13.434c0.137,0.481,0.276,0.985,0.449,1.397c0.74,0.218,1.476,0.186,2.184,0.117
	c0.307-0.044,0.415-0.142,0.471-0.289c0.013-0.034-0.026-0.174-0.021-0.33c0.238-0.049,0.443-0.055,0.515-0.296
	c0.066-0.218-0.2-0.857-0.105-1.093c0.14-0.033,0.234-0.1,0.219-0.247c0.159-0.089,0.394-0.121,0.673-0.119
	c0.021,0.04,0.048,0.08,0.08,0.119c0.032,0.037,0.033,0.037,0.12,0.052c0.266,0.046,0.422,0.04,0.747,0.003
	c0.524-0.058,0.643-0.9,0.495-1.294c-0.074-0.258-0.171-0.52-0.243-0.66c-0.122-0.207-0.206-0.198-0.239-0.244
	c1.088-1.809,0.918-4.504-0.885-6.205c-0.026-1.166-0.518-1.935-1.506-2.588C9.281,1.397,7.643,1.371,6.869,1.83
	c-0.681,0.369-1.324,0.617-1.51,1.285C5.004,3.318,4.91,3.707,4.888,4.147c-2.414,2.078-2.322,5.678-0.061,7.676
	c0.034,0.387-0.016,0.868,0.123,0.96c0.245,0.141,0.496,0.216,0.703,0.323C6.003,13.287,6.313,13.457,6.873,13.434z M8.268,3.356
	C8.321,3.323,8.332,3.11,8.006,3.081c-0.088-0.008-0.259,0.073-0.4,0.192c-0.17,0.143-0.24,0.281-0.277,0.403
	c-0.017,0.052-0.02,0.097-0.016,0.133C7.317,3.846,7.359,3.895,7.37,3.894C7.451,3.886,7.537,3.246,8.268,3.356z M9.939,6.502
	C9.931,6.515,9.93,6.719,9.937,6.764c0.005,0.032,0.007,0.032,0.041,0.032c0.416-0.033,0.666-0.34,0.816-0.643
	C10.061,6.564,10.028,6.441,9.939,6.502z M9.594,9.584c0-0.074-0.08-0.121-0.144-0.084s-0.064,0.13,0,0.167
	C9.514,9.704,9.594,9.658,9.594,9.584z M9.692,10.044c0-0.073-0.08-0.119-0.143-0.083c-0.063,0.037-0.063,0.129,0,0.165
	C9.612,10.163,9.692,10.117,9.692,10.044z"/>
</svg>
