<?xml version="1.0" encoding="utf-8"?>
<!-- Generator: Adobe Illustrator 17.0.0, SVG Export Plug-In . SVG Version: 6.00 Build 0)  -->
<!DOCTYPE svg PUBLIC "-//W3C//DTD SVG 1.1//EN" "http://www.w3.org/Graphics/SVG/1.1/DTD/svg11.dtd">
<svg version="1.1" id="Layer_1" xmlns="http://www.w3.org/2000/svg" xmlns:xlink="http://www.w3.org/1999/xlink" x="0px" y="0px"
	 width="16px" height="16px" viewBox="0 0 16 16" enable-background="new 0 0 16 16" xml:space="preserve">
<path fill="#D24A39" d="M8.344,4.325c-0.72-0.168-1.078,0.301-1.296,0.788C6.853,5.065,6.93,4.8,6.979,4.665
	c0.129-0.354,0.648-0.826,1.073-0.762C8.235,3.93,8.482,4.097,8.344,4.325 M11.851,5.145c0.011,0,0.023,0.001,0.034,0.001
	c0.163,0.338,0.304,0.696,0.509,0.994c-0.137,0.32-1.041,0.604-1.027,0.029c0.195-0.085,0.533-0.017,0.706-0.127
	C11.973,5.767,11.828,5.533,11.851,5.145 M8.712,5.153c0.154,0.283,0.205,0.58,0.424,0.794c0.099,0.096,0.291,0.214,0.196,0.481
	C9.31,6.492,9.147,6.633,9.053,6.661C8.71,6.762,7.911,6.682,8.181,6.254c0.284,0.013,0.665,0.184,0.877-0.022
	C8.896,5.972,8.605,5.457,8.712,5.153 M11.723,8.03c-0.517,0.332-1.092,0.693-1.939,0.609C9.603,8.481,9.534,8.131,9.71,7.9
	c0.091,0.157,0.034,0.446,0.289,0.49c0.48,0.082,1.039-0.294,1.385-0.425c0.214-0.361-0.018-0.494-0.211-0.726
	c-0.395-0.476-0.925-1.066-0.906-1.779c0.16-0.116,0.173,0.177,0.196,0.23c0.206,0.483,0.725,1.1,1.104,1.513
	c0.093,0.102,0.246,0.199,0.263,0.267C11.879,7.665,11.702,7.899,11.723,8.03 M12.052,8.367c-0.24,0.458-0.581,0.962-1.286,0.976
	c-0.014-0.148-0.025-0.373,0.001-0.462C11.306,8.83,11.639,8.555,12.052,8.367 M8.671,8.664C9.121,8.9,9.948,8.926,10.56,8.908
	c0.033,0.134,0.032,0.3,0.033,0.463C9.807,9.41,8.878,9.216,8.671,8.664 M8.586,9.105c0.311,0.781,1.381,0.691,2.283,0.67
	c-0.04,0.101-0.126,0.221-0.233,0.265c-0.289,0.118-1.086,0.207-1.487-0.006C8.894,9.898,8.73,9.592,8.591,9.413
	C8.524,9.327,8.188,9.106,8.586,9.105 M10.99,2.221c0.424,0.321,1.102,0.998,1.345,1.488c0.64,1.295,0.595,3.458,0.147,5.033
	c-0.363,1.264-1.119,2.169-1.385,2.293c-1.968,0.92-2.581,0.436-3.034,0.203c-0.499-0.257-1.561-1.28-1.554-1.941
	c0.585,0.812,1.069,1.521,2.133,1.878c0.805,0.27,2.127-0.191,2.547-0.72c1.221-1.539,1.403-3.023,1.341-4.311
	c-0.027-0.561-0.028-1.119-0.216-1.496c-0.197-0.394-0.861-0.747-1.25-0.39c-0.072-0.383,0.324-0.621,0.788-0.483
	c-0.331-0.428-0.679-0.942-1.15-1.207c-0.82-0.463-2.208-0.811-3.081-0.376c-0.704,0.351-1.655,0.932-1.98,1.668
	c0.303,0.71-0.09,1.361-0.115,2.082C5.514,6.326,5.708,6.661,5.723,7.079c-0.104,0.171-0.421,0.192-0.64,0.18
	C5.009,6.89,4.88,6.475,4.5,6.433C3.961,6.374,3.568,6.82,3.543,7.285C3.514,7.833,3.964,8.74,4.601,8.677
	c0.246-0.024,0.307-0.271,0.575-0.268c0.145,0.29-0.224,0.381-0.262,0.588C4.904,9.051,4.944,9.26,4.968,9.358
	c0.116,0.478,0.374,1.097,0.628,1.461l0.172,0.845l0,0c-0.072-0.051-0.558-0.683-0.624-0.657c-0.117-0.098-0.613-1.602-0.629-1.854
	c-1.06-0.127-1.742-1.84-1.053-2.828C3.24,5.073,3.591,4.173,4.118,3.939C4.352,3.006,5.19,2.696,5.979,2.232
	C7.922,1.174,10.039,1.499,10.99,2.221z M9.358,12.936c-0.018,0.195,0.028,0.258,0.067,0.481
	C10.065,13.618,9.953,12.54,9.358,12.936z M8.649,12.704c-0.276-0.151-0.69-0.314-1.045-0.382c-0.441-0.084-0.4,0.602-0.381,1.011
	c0.015,0.324,0.183,0.667,0.256,0.882c0.034,0.101,0.042,0.207,0.128,0.227c0.152,0.035,0.653-0.165,0.796-0.243
	c0.302-0.165,0.536-0.426,0.793-0.602c0.003-0.085,0.007-0.171,0.01-0.256c-0.154-0.077-0.332-0.131-0.559-0.141
	c0.154-0.077,0.38-0.076,0.519-0.168c0.001-0.034,0.003-0.068,0.004-0.102C8.915,12.909,8.818,12.796,8.649,12.704z M11.42,13.119
	c-0.012-0.258-0.08-0.788-0.24-0.881c-0.335-0.195-0.93,0.394-1.182,0.484c0.027,0.079,0.073,0.141,0.076,0.242
	c0.149-0.037,0.331-0.012,0.46,0.052c-0.149,0.017-0.315,0.016-0.414,0.087c-0.036,0.105,0.009,0.247-0.015,0.393
	c0.355,0.1,0.76,0.153,1.208,0.166C11.401,13.549,11.431,13.333,11.42,13.119z M4.81,7.884C4.648,7.792,4.61,7.385,4.42,7.373
	C4.148,7.357,4.198,7.901,4.199,8.22c-0.187-0.17-0.22-0.692-0.082-0.961C3.96,7.182,3.89,7.344,3.803,7.401
	C3.915,6.59,4.989,7.025,4.81,7.884"/>
</svg>
