<svg version="1.1" xmlns="http://www.w3.org/2000/svg" xmlns:xlink="http://www.w3.org/1999/xlink" x="0px" y="0px"
     width="16px" height="16px" viewBox="-48 -48 608 608">
    <path class="st0" fill="#D52A29"
          d="M298.8006897,497.7409058l-46.3027039-1.2137451l2.3889313-28.0602417l1.5006561-25.6575317h-6.1847229v-21.0286255h-3.7516632l-0.3061981-9.0481262l11.1611938-2.2730713l0.9268799-77.10495l-8.3777924-0.4551697l0.4275818-20.8768921l-4.0027008-0.4579468l0.3227539-10.7777405h11.2522278l0.0993042-18.2645264l-11.1694641-0.140686v-8.5708923h-5.233017v-1.9199829l-2.9820251,0.217926l-5.5088654-9.5970764l42.3662109-9.0922699l42.9151611,10.0439606l-6.2012634,8.3060913l-3.2385864,0.1792908l0.2151794,1.2275696l-5.7268066,0.8634338l-0.5793152,7.9695435l-12.2618713,0.4468689l0.1268921,21.7155151l28.162323,0.4992981l1.3158264-36.0656128l3.2633972-41.8338165l-0.7172241-14.1763153l-88.652359,5.1061249l-74.3381042,3.8013153l-1.0399933,24.6423645l0.0027618,25.7237244l-2.3696136,38.5345459l32.5511932,0.7475586l-0.11586-14.3776855l-8.7171021,0.4165344l-0.7254944-9.3763733l-6.2371521,0.4661865l-6.0854187-9.9915771l36.4545898-8.0798645l38.9648895,8.0109253l-10.9046478,8.2784729l-3.6716766,0.5406799l-0.4330902,7.522644l-9.1943359,0.9075623l-0.8661957,17.1942139l7.7736664-0.5848083v25.2189026h-6.3171387l-1.0289459,29.3015747l2.8192596,27.4230042l1.2468872,7.150238h5.1254272l-1.4096222,29.698822l-3.7489166-0.590332l1.1365356,49.0888672h-34.815979l2.8413239-48.6750793l-28.1926422,2.5047913l-0.5627594,48.6254272l-55.6570282-0.6758728l5.3737106-22.1954956l2.9185715-23.014801l-42.2724228,1.039978l6.8274765,49.1192322l-38.4462738-0.711731l1.1310158-49.9688416l-7.1060905-1.1861877l-2.0854836-26.5871582l12.1018753-1.8537598v-70.3161011h-7.3681564v-17.6135254l-2.2151375-1.426178l-4.077177-8.6453857l13.0728931-3.3240662v-16.3004456l-10.5598297-0.5875549l-0.5489578-7.1253967h-3.5089073l-9.9391499-8.2785034l36.3856201-10.7777405l45.0420341,10.8467102l-4.7723389,6.6784973l-9.8950119,2.2289429l-1.2137756,8.962616H73.9270782l0.4165497,16.2700806l47.84198,2.714447l4.7723389-85.9710388l-62.5976105,2.4082489l-1.2606659-23.6989288h-3.1309853l0.9792938-9.5005341l2.6096153-2.791687l1.2330856,0.0055237c0.2537842,0,2.8302994,0.0606842,15.1363068,1.8537598c8.7557144,1.2689362,27.1747284,0.3530884,36.6035461-0.2427521l-3.6109772-0.6317139l17.036972-15.1528625v-6.6840363l-6.1074982-1.169632l-0.5213699-8.4109039c-5.2247391,0.3393097-16.3666306,1.0096436-22.8520432,1.0096436c-8.5157242,0-36.4269943-2.3337555-37.6131859-2.4330597l-1.9227257-0.1600037l-6.8109245-22.9789429l-13.5556412-1.2192841l-3.4399452-10.9515457l-22.5458431-2.7971954l-9.296402-0.6979218L0,109.5292664l19.6465797-17.249382l-7.3736744-24.9816589l5.3792229,2.1130676c0.21241,0.082756,21.7403393,8.4908981,51.2074432,15.6135406c29.6271133,7.1557465,180.5101929-3.1171951,259.5737305-13.3625412c77.9656372-10.1046677,174.9157715-56.1315079,175.8840332-56.5949478l1.6937866-0.8082628l5.348877,4.758544l-6.3254089,19.3183098l-7.3157654,3.8344193l-0.9820557,5.0426788L512,80.5642166l-7.1253967,5.5392227l-37.3814697,10.350174l-1.4068604,3.9144211l-17.152832,4.9875031l-8.7281494,23.6272049l-1.6192627,0.2675781c-0.1820679,0.0303497-18.3252258,3.0399475-30.9732971,6.0054169c-11.0563965,2.5930634-37.1387329,4.5985565-45.4723816,5.1916504l-0.4331055,14.2921753l-5.7929993,0.1710358l-0.1213684,5.8785248l16.7528381,8.7722778l0.3144531,3.7957916l4.0661621-0.4358521c13.3570251-1.426178,54.1177368-7.4398804,58.7218018-8.1212463h0.7641296l1.1613464,0.3420563l4.4219971,2.5820312l0.513092,8.0522919l-4.2785339,1.0979156l-0.2675781,28.0905762l-82.0814514,6.2288666l-1.6082458,16.2176666l3.0979004,31.1912231l3.7957764,17.3707581l4.4937439,31.188446l35.6573486,0.2703552l-0.7337952-16.5211182l-11.6549683,0.1434326l-0.2675781-9.0950012h-4.3392639l-0.2593079-1.6165466l-4.7640381,0.3944702l-4.9461365-9.1998291l40.1152039-8.1350403l43.8779297,8.8274231l-12.3666992,6.1902466l0.4855042,2.4882507l-5.5392151,0.4827576l0.6951599,7.7157288l-12.1405029,1.0786133l-0.1241455,17.7955627l7.0812683,0.6234436v9.817749l-2.0027161-0.3117065v19.246582l-4.7806091,0.140686l0.5379333,57.5521851l1.0289307,11.1087952h6.452301l0.6013794,9.1750183l-1.7185974,0.3503418l-0.1379089,19.1169128l-5.3516541,0.5793152l1.0951538,18.485199l3.9723511,30.2726135l-9.2660522,2.8082581L413.973999,487.23349l-15.928009-1.4454651l0.1434326-32.225708l1.1889343-15.9390564l-26.2919617,0.9682617l1.7047729,12.3198242l1.1227417,21.4892883l5.3378601,16.1707764l-11.7073975,3.3599548l-26.1899109,1.053772l-22.2313843-1.7185974l0.1765442-28.3305664l0.8689575-21.4424133l-28.272644,0.4965515l0.480011,12.8494263l2.9295959,17.770752L298.8006897,497.7409058z M292.497345,409.7285461l28.5678101,0.9903259l-3.8564758-32.691864l1.0344543-41.5386658l-26.8106079-1.7351379L292.497345,409.7285461z M369.2878113,337.5062561l3.382019,33.869812l1.0730896,36.8545837l27.5692139-2.0165405v-69.4747314L369.2878113,337.5062561z M73.2760544,336.5352478l0.2731018,69.0306091l44.5703125-2.1158142l-2.9020233-11.5336304v-25.417511l4.1130371-27.5719604L73.2760544,336.5352478z M156.1161041,338.3614197l0.8717041,22.4410095l0.1351624,22.4631042l1.6165314,19.6824341l30.5236511-0.5296326l-0.3696594-63.9355164L156.1161041,338.3614197z M159.1588135,176.5874939l13.9170074,7.5585022l-0.4192963,3.2220154l39.4172821-1.5503235l-0.5213623-0.7530975l0.9930878-7.0040131l-3.7240753-5.7516327l0.2593079-8.2591858l-4.2509766-5.0095673l0.9186096-5.6357727l-40.2476196,2.7475433l-0.5627594,12.7584076l-6.2288666,0.3006897L159.1588135,176.5874939z M266.2825928,176.5378418l-0.1765442,3.9420013l39.6517639-1.9309998l1.815155-5.5226746l16.8466187-11.0370636l0.3448181-6.8357544l-8.6950378-0.3668823l0.2041321-11.213623l-43.5689392,5.4040527l-1.7130737,6.8412781v1.7047882l-0.7834473,3.9696045l-1.2799683,3.0509796l-0.2593079,8.1433105L266.2825928,176.5378418z"/>
</svg>