<svg version="1.1" xmlns="http://www.w3.org/2000/svg" xmlns:xlink="http://www.w3.org/1999/xlink" x="0px" y="0px"
     width="16px" height="16px" viewBox="-48 -48 608 608">
    <path class="i-color" fill="#82AAFF"
          d="M272.7290649,502.7518005c-75.5636139,0-206.0195618-48.1199036-258.5076599-190.4415894c-27.0405273-73.3205109-18.934124-155.1040192,54.1519279-232.099884c-52.5806885,106.8581314-3.6868439,221.1808472,76.5239258,290.4226074c92.0293579,79.4441528,264.7321167,106.3658447,354.859314-6.1199036C447.7875977,472.3488159,358.0158691,502.7518005,272.7290649,502.7518005z M512,236.558609c-51.2243042,73.8462677-163.1376953,81.6151886-239.0086975,28.0532074c-148.9173279-105.1298676-72.733902-232.1941528-72.733902-232.1941528c-41.1634521,50.0404358-74.2813187,113.1433945-32.1873627,197.871582c24.4834747,49.2812195,73.3322754,91.6229858,130.2084351,105.9232788C376.5977478,355.9042358,474.079834,332.3626404,512,236.558609z M498.4163513,142.2680511c-30.8227539,47.9741211-111.9047546,37.8388672-149.9113464,7.8903503C263.6264038,83.2755966,306.2462463,9.2481918,306.2462463,9.2481918C263.927124,56.257,264.583313,123.4370193,317.8704834,170.8033905C383.8012695,229.4085236,472.374939,203.435791,498.4163513,142.2680511z"/>
</svg>
