<svg version="1.1" xmlns="http://www.w3.org/2000/svg"
     xmlns:xlink="http://www.w3.org/1999/xlink" x="0px" y="0px"
     viewBox="-40 -40 586 586"
     width="16px" height="16px" fill="#E79627">
    <path d="M412.2263184,385.5626221c28.0650024,37.5115662-46.8929749,64.7707214-77.1100159,10.5594177l-41.0502014,23.8221436l2.5158386,4.1665955c15.4639893,26.0400085,39.6192932,41.2938538,72.2692871,45.6733704C440.3333435,478.3333435,487,432.75,461.6690979,368.017334C443.6666565,331,396.5,324,369,305.75c-16.171875-9.421875-12.8056641-29.3642578,0.1829834-37.3647156C379.2852478,262.1626892,402.5,261.375,414.4567261,286.1706848l39.2803345-25.3166199C422.75,205,349.5,216.25,327.5438538,241.6274719C297.6879883,276.7024841,306.2280579,315.8501282,332.5,341C352.9337463,360.5610046,385.0014343,367.2024841,412.2263184,385.5626221z M226.6380463,464.6317749c22.6299286-9.1522827,35.9041595-28.073822,39.4159088-56.2019043c0.3050537-2.8473816,0.5084534-184.5985107,0.5084534-184.5985107h-49.7884827l-0.3593292,179.7782593C215.25,415.25,208.2915955,423.5926514,198.1250763,425.2286377c-17.3468018,2.7914429-28.9113312-2.2597351-40.96315-24.8257141l-40.534523,24.507843C134,465.75,186.3723602,480.7486877,226.6380463,464.6317749z M44.8733864-0.0000016h422.2532043C491.9869385-0.0000016,512,20.0130253,512,44.8733864v422.2532043C512,491.9869385,491.9869385,512,467.1265869,512H44.8733864C20.0130291,512,0,491.9869385,0,467.1265869V44.8733864C0.0000016,20.013031,20.0130291-0.0000016,44.8733864-0.0000016z"/>
</svg>