<svg version="1.1" xmlns="http://www.w3.org/2000/svg"
     xmlns:xlink="http://www.w3.org/1999/xlink" x="0px" y="0px"
     width="16px" height="16px" viewBox="-68 -48 608 608" fill="#C792EA">
    <path d="M62.3487167,430.5785217l158.6674194,77.8649902c9.1515503,4.0780334,19.3070374,5.3626404,31.8514557,0l158.0775757-77.8591003c12.9706116-6.4882507,20.6444397-20.0546265,20.0487366-34.204895l38.9354248-356.8601074C473.8796082,19.4993362,454.710022,0.8194701,433.9490051,0H36.3956757C16.3335152,1.5959702-3.1041319,16.2494469,0.4153335,40.6990738l40.1092415,359.8034363C43.1277809,415.386261,47.6672783,422.2862244,62.3487167,430.5785217z M156.1335602,348.5905457l-87.8864136-87.8746033c-17.7773361-13.179184-11.4640236-34.2235718,0.0000076-44.8338776l88.476265-88.4762573c31.1184082-27.2560272,69.6646271,13.3394012,43.0584259,43.0584259l-67.2419434,68.4216309l66.6520996,66.6521301C226.8287201,339.332489,182.8076324,374.4323425,156.1335602,348.5905457z M411.5350037,260.1201782l-88.4763184,88.4703674c-30.1729126,26.6466675-70.5512238-12.5691223-43.0584106-43.0525513l66.6520996-66.6520996l-67.2419739-67.2419586c-26.0377197-26.4658051,9.9841003-70.963356,43.0643311-43.0584412l87.8805542,87.8864136C423.0378418,229.6770477,422.3813782,249.2415009,411.5350037,260.1201782z"/>
</svg>