<svg version="1.1" xmlns="http://www.w3.org/2000/svg"
     xmlns:xlink="http://www.w3.org/1999/xlink" x="0px" y="0px"
     width="16px" height="16px" viewBox="-110 -48 608 608">
    <path fill="#F78C6C"
          d="M363.1749878,34.3386345c0.8400269,19.7925911-14.3702087,36.5211449-33.9805298,37.3691826c-19.6002808,0.8480377-36.1755371-14.5075035-37.015564-34.3000946S306.5491333,0.8815286,326.1544189,0.033491S362.3349609,14.5460396,363.1749878,34.3386345 M193.5356445,384.5007019c-78.2163391,0-146.3281555-28.4102173-181.7874756-70.3781433c26.833786,75.240448,98.0906677,129.0350952,181.7874756,129.0350952s154.9537048-53.7946472,181.7874756-129.0350952C339.8638,356.0904846,271.7519836,384.5007019,193.5356445,384.5007019 M193.5356445,111.3343964c78.2163391,0,146.3281555,28.4065704,181.7874756,70.3781586c-26.8337708-75.2404785-98.0906677-129.0387421-181.7874756-129.0387421S38.581955,106.4720764,11.7481689,181.7125549C47.2074814,139.7409668,115.3193054,111.3343964,193.5356445,111.3343964 M101.3917084,467.5608215c0.996994,23.5126343-17.0774078,43.38797-40.3688049,44.3994751c-23.2914047,1.0064392-42.9797745-17.239624-43.9767761-40.7522583c-1.0019455-23.5126343,17.072464-43.3930054,40.3638611-44.3994751C80.7013855,425.802124,100.3946991,444.0481873,101.3917084,467.5608215 M26.9179688,95.017662C12.6761246,95.6327286,0.6337129,84.4763947,0.0244142,70.0946655c-0.6142578-14.3767166,10.4374084-26.5331802,24.6842041-27.1482506c14.2418442-0.6150742,26.2842484,10.5412636,26.8935547,24.9179802C52.2164307,82.2461243,41.1598053,94.4025803,26.9179688,95.017662z"/>
</svg>