<?xml version="1.0" encoding="UTF-8"?>
<svg width="16px" height="16px" version="1.1" viewBox="0 0 24 24" xmlns="http://www.w3.org/2000/svg">
    <path d="m12.033 1.7367c-0.25049-0.0024648-0.50058 0.10955-0.72878 0.33756-3.0792 3.0744-6.1546 6.1529-9.2262 9.2354-0.14352 0.14394-0.22878 0.34656-0.34113 0.52168v0.41002c0.16033 0.22309 0.29362 0.47374 0.48511 0.66567 2.9729 2.985 5.9515 5.964 8.9358 8.9373 0.19272 0.19152 0.44286 0.32478 0.66633 0.48554h0.41006c0.20502-0.14148 0.43548-0.25544 0.60852-0.42809 3.0459-3.0408 6.0903-6.0829 9.1334-9.1264 0.46951-0.46956 0.47238-1.0052 0.0057-1.4719-3.0718-3.0727-6.1444-6.1453-9.2179-9.2177-0.22963-0.22966-0.48051-0.34659-0.731-0.34905zm-1.0621 4.5455 1.3859 0.83209c0.70242 0.42158 1.4036 0.84528 2.1089 1.2619 1.9e-4 9.58e-5 2.85e-4 2.844e-4 4.74e-4 3.802e-4 0.01412 0.00837 0.02726 0.0168 0.03938 0.025482 0.0062 0.00434 0.01121 0.00888 0.01677 0.013341 0.0055 0.00434 0.01133 0.00857 0.0163 0.013058 0.06166 0.05536 0.08897 0.12223 0.08867 0.22368-0.0047 1.2645-0.0047 2.5289 0 3.7934 0 0.03661-0.0021 0.06794-0.0077 0.09424v9.5e-5c-0.01437 0.06896-0.05371 0.10317-0.14138 0.10916-0.01373 1e-3 -0.02777 0.0019-0.04401 0.0016-0.04525-0.0015-0.0907-0.0019-0.13601-3e-3 -0.3228-0.0058-0.64854-7.24e-4 -0.99783-7.24e-4v-0.52654c0-0.44651-8.22e-4 -0.89316-8.22e-4 -1.3398v-0.0011c-1e-6 -0.22349 2.37e-4 -0.44701 8.22e-4 -0.67049 3e-6 -0.0011-2e-6 -0.0022 0-0.0033 6.28e-4 -0.22274 0.0016-0.44547 0.0032-0.66817v-3.56e-4c-8e-6 -0.1461-0.03854-0.23016-0.16923-0.30719-0.89311-0.52783-1.7805-1.0662-2.6695-1.5993-0.05208-0.031166-0.10211-0.065684-0.17427-0.11203l0.0014-0.00232c-5.31e-4 -3.318e-4 -8.69e-4 -5.798e-4 -0.0014-9.59e-4zm0.36198 3.3902c0.0683-0.00323 0.11869 0.04216 0.17353 0.13751 0.08489 0.1477 0.1734 0.29323 0.26359 0.43939 0.0053 0.0085 0.0103 0.01686 0.01548 0.02529 1.4e-5 2.3e-5 -1.5e-5 4.7e-5 0 9.5e-5 0.09584 0.15469 0.1935 0.31028 0.29129 0.46979l-1.9145 1.1761c-0.33747 0.20751-0.67284 0.41754-1.0144 0.61767-0.11317 0.06645-0.15426 0.14308-0.15426 0.27678 0.0099 0.97727 0.01113 1.9546 0.01482 2.9319v0.2538h-1.3093c-2.52e-5 -2.84e-4 -4.79e-5 -5.8e-4 -9.52e-5 -8.2e-4h-0.00159c-0.00448-0.05331-0.013951-0.11152-0.01436-0.16976-0.00492-1.2504-0.00613-2.5016-0.015565-3.7516 0-0.14107 0.045577-0.22105 0.16408-0.29364 1.1208-0.68022 2.2385-1.3649 3.353-2.0542 0.0059-0.00363 0.01098-0.00605 0.01677-0.00938 0.01098-0.00645 0.02178-0.012614 0.03198-0.017788 0.0054-0.00262 0.01041-0.00484 0.01556-0.00726 0.01157-0.00534 0.02271-0.00968 0.03335-0.013159 4e-3 -0.00132 0.0081-0.00293 0.01203-0.00383 0.0043-0.00121 0.0087-0.00222 0.01288-0.00302 0.0049-9.589e-4 0.0097-0.00161 0.01454-0.00212 0.0037-4.275e-4 0.0076-0.00151 0.01121-0.00161zm5.6776 3.1254 0.31343 0.53974 0.34632 0.5946c-2.85e-4 1.9e-4 -5.32e-4 2.85e-4 -8.23e-4 4.74e-4l4.75e-4 7.26e-4c-0.15828 0.0935-0.29772 0.17723-0.43795 0.25843-1.0325 0.59874-2.0647 1.198-3.0967 1.7979-0.10579 0.06193-0.189 0.07174-0.29972 0.0098-0.29749-0.16536-0.59541-0.33012-0.89314-0.49514-0.50821-0.28107-1.0165-0.56203-1.5248-0.84293-0.29813-0.16437-0.59606-0.32905-0.89443-0.49305-0.03527-0.01969-0.06768-0.04428-0.12878-0.08488l6.28e-4 -0.0011c-4.8e-5 -4.5e-5 -9.5e-5 -4.5e-5 -1.9e-4 -9.5e-5l0.13731-0.2499 0.49456-0.90167c0.49206 0.27066 0.96973 0.53319 1.4466 0.79484 0.44203 0.2436 0.88569 0.48391 1.3232 0.73489 0.12056 0.06891 0.21162 0.07136 0.33382 0 0.8935-0.52575 1.7915-1.0438 2.6883-1.5634 0.05741-0.03364 0.11807-0.06152 0.19188-0.09925z"
          fill="#29b6f6" stroke-width=".041008"/>
</svg>
