<svg version="1.1" xmlns="http://www.w3.org/2000/svg" xmlns:xlink="http://www.w3.org/1999/xlink" x="0px" y="0px"
     width="16px" height="16px" viewBox="-48 -48 608 608" preserveAspectRatio="xMidYMid meet">
    <path id="file_type_ai.svg" class="i-color" fill="#D52A29"
          d="M73.9208984,168.8087921c3.5595627,45.5292511,38.5142212,38.9752502,49.3672104,53.3585815c17.2863998,14.7253723,4.925148,45.5736237-16.9937286,52.7967072C45.1959496,292.0150452-6.0223312,231.3298798,0.5736223,162.7794952C9.2225599,88.1394501,71.0898895,12.9662933,175.0246429,21.987484c111.575119,25.170105,97.0815582,114.130722,64.8917847,180.6975708c62.1574249-66.3602448,123.4748077-131.7427063,157.8478546-165.7601471c28.2782593-23.8355217,69.2556152-12.2573662,62.4474487,28.8065948c-11.6836548,31.4039612-99.144928,109.3694458-155.8923645,172.495575l62.62854,168.4941406c5.8301392,8.9624329,16.8928833,13.2173462,27.2494812,13.3803101l84.2268982-0.0180969c13.2166443,1.0253296,26.4122009,3.2409668,33.3693237,19.2285156c0.271637,7.007019,0.3077698,14.032135-0.0905151,21.057251c-4.575592,14.4616089-17.3619385,28.259613-44.1605225,30.363739l-100.612793,0.0180969c-23.9440002-0.7697144-45.0178528-6.6999207-56.4000549-30.0559387c-26.1868896-63.3103638-54.8686371-140.8405151-84.6092224-224.405365c-14.9547272,41.5188293-37.3023071,96.3718262-61.9767151,155.4216309c-21.6046753,40.9528809-61.4502945,35.7826843-72.7575073,11.7884827c-4.719902-10.0157471-2.5339584-23.1460571,3.9186096-38.4404602c34.7761383-87.7118225,78.3588867-189.4327698,87.6509857-222.9569092C202.3405457,64.8000717,77.0827103,79.3649368,73.9208984,168.8087921z"/>
</svg>
