<svg version="1.1" xmlns="http://www.w3.org/2000/svg" width="16px" height="16px" fill="#8D6E63" viewBox="0 0 512 512">
    <path d="M499.1863403,277.5397034c-1.7337952,1.7593994,0.8329468,3.7461548,3.1231079,2.9638672c-4.6739197,6.7775879-10.7445679,7.0514526-14.409668,4.4315186c-1.9793091-2.2176514,2.0637817-0.8122253,5.2854309-0.848999c3.6964111-0.0422058,6.6207275-1.8730774,6.2169495-2.7660217c-1.5612183-0.4519043-3.3797913,1.5321655-5.8746033,1.3282166c-5.4430847-0.4450378-12.3239746-1.7116699-12.4196472-3.8477478c-0.0665283-1.0908508,1.1303711-4.2825012,2.0362549-3.9560852c1.267395,0.8914795,1.4997864,2.6065979,2.3802185,2.8022461c0.566925,0.1259766,1.0183716-1.2178955,2.5833435-2.6631165c0.6200867-0.505188,0.6836548-0.1602478,0.6836548,0.2107544c0,0.240509,0.4055176,0.124176,1.1898193-1.1042786c1.5608215-2.5562134-0.5239868-8.1959839-2.9577637-10.7355957c-2.5106506-1.5428467,0.3877869-4.2586365,2.9577637-4.3818665c5.8514099-0.5158386,1.1728821-5.7876892-4.9295959-3.3959198c-5.0119629,1.7389984-6.4315491,4.5790253-9.8548889,6.0584869c-4.2631226,1.8424988-5.7541199,0.9172668-7.9881897,1.8056641c-6.0041199,2.3875122-9.5503235,5.8952637-15.7876587,2.8713989c-4.6138-1.9949646-2.2772522,0.6580505-0.5762939,2.8665466c1.2337952,1.6019592,2.2220764,2.7485046-0.1905518,3.7062378c-8.1340027,3.8522949-5.9430847-2.9487-9.3114319-3.1768799c-7.1754761-7.531311-1.9720459-38.3412476-32.6448364-46.885849c-15.288269-6.7136688-25.1293945-6.0317993-30.0157166-9.8591766c13.8574219-11.7214813,30.9740601,12.2417908,59.2646179,13.6932983c15.8765564,0.3465424,8.1832886,8.2397156,24.8669739,12.1596222c12.1248779,11.1481476,14.7409668,12.1608276,11.5023804-3.943634c-0.5544739-4.1288605-5.3277588-0.8060303-7.3395386-4.0532379c-1.152832-2.3171692,3.1985168-2.7654724,8.2159729,2.1909332c9.320343,8.9919128,14.0217285-1.0041962,16.2128601,2.5196228c1.5973206,2.4099579,4.1534424-2.0175629,9.5394287-3.8889618c3.2371216-1.1247406,6.705719-3.024826,6.4543152-3.7792969c-0.0184631-2.6565552-10.6991577-1.7892914-14.3506165-4.3818512c-3.834259-3.341217,1.1409912,4.2357635-2.6290894,5.6963654c-6.3173523,2.9668579-10.2883606-0.3651428-15.4460754-5.0391083c5.5684509-3.4964142,6.9022217-4.6055756,6.0250549-1.7527924c-1.0956116,5.9702911,6.6639709-2.0630798,8.4350891-7.6682434c-0.0006104-3.4297485,7.4701843-3.4568176,8.7637024-5.5868378c-0.2648926-1.4971008-14.0967407-3.8520508-15.8842163-3.2863922c-8.0244446,1.2871552-11.264679,3.2929382-13.364624,0.1095123c-2.3725891-3.4165649-11.0857544-5.8335571-17.4179077-2.7386475c-4.8297424,2.0113373-10.4870605,1.7474976-13.0045471,2.261261c-1.4302979,0.2919159-1.8681946,1.9558411-0.6887512,2.4492188c4.5460205,3.313797-11.5436096,2.9029999-18.4037781-0.876358c-4.026001-3.1357574-8.339386-0.9448242-9.6400757-8.4350891c-2.1226501-8.5993652-3.2181091-1.2734528-7.3395996-6.1345673c-3.17099-4.9359436-1.9819946-7.2319794,4.7104797-2.4100342c2.3005066,1.5336761,5.6964111,3.8341217,7.5587158,5.2582092c5.0407715,3.9218445,1.4009705,3.6564789,2.0813599,6.3536835c0.7052307,0.6848602,3.2296753-0.2471924,7.1842346-1.3510895c4.8486633-1.3534088,11.2672729-3.1094666,11.9863586-4.2357635c-0.6185913-1.4833832-4.6938782-1.738739-8.2434998-3.1586151c-2.5104675-1.0041199-4.8594666-1.5800018-6.1800537-1.6532898c-2.0437012,0.4394836-0.7705078,3.3130646-4.549408-0.8064117c0.7536621-1.5748749,8.4015808-0.3245544,15.7961121-3.6931152c4.4501648-2.7249603,27.5918579-3.2042236,30.8920898-0.2191162c8.133667,3.9300079,7.3815308,1.8399811,5.6964111-2.6290741c-1.8537292-4.9003601-2.8765869-7.3180237-5.6964111-7.4492035c-2.9921265,0.3492279,5.2922974,4.0464172,3.7787476,9.6438141c-0.5453186,0.8266754-1.1137695-5.3905334-4.8742065-5.1523743c-3.9848938,0.1711731-0.3904114-2.2251587-1.095459-6.2441559c-0.7669983-2.6564789,5.1896057,0.9380035,13.1454773-7.5587311c2.8618164-3.3822021,5.5662537,0.8284912,5.2582092-5.6964264c0.0894775-4.7137451,2.7854004-9.948761,4.3818665-13.0359802c-3.4459839-2.1164398-8.9631042,6.5354156-14.3505554,9.0923462c-3.6874084,1.6267395-2.3083191,3.5910797,1.6956787,4.576355c1.0134888,2.0777893-4.8726196,6.3372345-10.1102905,5.9948883c-5.4555969-0.3565674-10.1672668-1.4035492-10.0987549-3.8888702c-0.616272-3.710907,7.1889343-0.4587402,7.5587463,0.4381409c1.8895569,2.9372406,4.4913025-1.0338135-0.9859619-8.654129c-4.9981079-6.8603516-4.8611755-3.094696-5.4773254-6.0250549c0.2738037-2.341568,2.9097595-4.7721252,4.3818665-7.6682434c-1.1640015-1.5884399-3.7314758-0.6298981-8.5446167,4.4913788c-8.6405334,8.7089539-8.5720825,14.9394073-18.84198,20.0469818c-13.9787292-4.9152832-13.6249084-3.8067169-3.1768799,5.4773102c-7.2301025,3.3822784-9.1869507,1.4121246-11.0941772,2.2236328c-2.6110229,1.1109619-0.6464844,2.0908966,7.1505432,5.2255096c-12.7348328-1.1684723-17.710083-0.1186829-17.8926392-1.8987427c0.0912781-2.1453247,1.5701904-6.0296631,1.8988342-4.6740417c1.4997559,3.537796,7.0893555,0.3320312,2.8482361-11.2832642c-1.3073425-3.9615021-3.1567993-4.6190796,6.682312-10.4069061c1.3811035-0.5415192,1.6431885-0.4381409,1.6431885-1.095459c-0.7272644-1.4985809-4.9224243-1.3901978-8.977478-0.1480408c-3.4221191,1.0482635-5.4396667,3.3475037-8.9880981,3.434433c-7.2484131,1.8075409-17.1731873,10.9459381-20.4851685,10.4069061c-1.5221863-1.2799377-3.3808289-4.1213074-5.3677368-7.55867c-0.6415405,2.6322937-1.2614136,5.3785706-2.3005371,5.9154663c-2.7712097-1.7776489-5.7937622-6.6964722-7.3395386-6.2441559c-3.2728271,8.6678925,2.0675659,12.1596985,1.2049866,15.0078735c-0.9962463,3.2628479,5.7961731,2.7180023-0.6572571,6.7918854c-8.6132202,6.3810883-14.5092773,7.5838623-13.2551575,1.2050476c0.9814758-7.1703186,1.7275085,6.7908936,5.1486816-0.3286896c1.5700684-8.7819672-4.8201294-17.3630829,0.8763733-18.622879c7.7229309-3.7611237-7.8874207-4.3087769-13.802887-0.9858856c-4.6484375,2.0213623-6.1514893,2.3735962-12.3787231,2.1909332c4.8715515-3.883667,12.8291626-5.5769501,22.2860413-8.9060669c4.0332947-1.4198151,8.3039551-4.9694366,11.344696-5.6636658c5.249054-1.5792694,25.1043396,10.1513672,25.0861511,5.6964264c-0.052887-1.484726-1.968811-3.5379181-2.7989502-5.9212799c-0.9011841-2.5872803,0-4.4925079-1.802002-6.8956604c-2.111969-2.5999146,1.4276428,0.59935,5.6963501-4.0531616c7.4050293-8.2124329,2.0275879,5.7416229,7.6682739-1.5336761c1.5839539-3.9671783,0.7738342-6.8174973,1.561615-10.0070038c0.6766968-2.7401962,4.0033569-3.6127472,5.0111389-5.8772202c-6.5158081-3.1344147-10.9875793,4.5548935-17.3082886,9.3114395c-2.3258667,1.5642395-0.1078491,1.553009,0.2050476,2.2663574c0.4082031,0.9307709,0.947113,1.8124847-5.7919006,2.0059814c-6.6185303-0.4017029-8.1247253,0.4198914-8.7637024-3.9437103c0.3864441-3.1462479,1.414917-3.4872437,2.1451721-1.2049866c0.3729553,1.1652679-0.2737732,2.8755951,1.7985229,0.2191086c2.4431458-3.1755371,0.2279968-6.1205292,1.7527161-5.4773178c1.6164551,1.521904,0.3267517,4.6745758,2.0814209,4.3818512c3.3210144-4.5088272,3.6191711-9.7025833-0.4382324-16.8701706c-2.0957031-2.7137833,6.519043-6.0110092,3.7245483-7.6682434c-6.594635-2.4062271-14.3962097,9.6218109-22.7856445,15.2269745c-1.7109985-0.166954-2.191925-2.4949493-4.2722473-1.7527847c-5.1852722,6.7371292-1.3968201,15.7290344-16.0733948,12.7161789c-1.7324524,0.1211548,6.2199707,5.1333237,0.2986755,6.5640335c-1.711731-0.0137177-5.9337769,3.4780731-4.2723389,2.848175c0.8183899-0.2983398,1.8300171-0.4123993,4.7743225,1.2004395c1.6250916,0.8901978,4.1497192,1.2126007,4.1269226,1.691864c-0.0229187,0.4820709-0.7948608,0.8709412-1.561615,1.4895477c-21.6902466,4.464035-26.6198425,19.11586-33.6307678,20.9233398c-2.6558228-0.17659,0.1863403-1.692337-3.0673523-2.6290741c-3.8517151-0.9580688,0.980011,3.5420074-2.190918,4.8200073c-4.913269,0.2606812-11.4187927-5.257019-14.8982849-11.3927917c1.7477112-6.0699158,2.8646851-1.0193024,7.6682434-0.3286896c2.8694458,0.3292236,3.5493469,3.7286835,6.1345825,4.3818512c4.9906311-0.8474731,4.7478333-10.7058411,3.3959045-14.5696564c-1.3676758-2.6922607-2.727417,0.1244354-3.0672913-2.5195465c0-1.4241028,0.5477295-1.6432037,2.5195618-1.2049866c3.7450562,0.7408905,4.7648926-1.7844086,7.5587158-2.6291504c0.5477295,0,0.8763733,0.876358,0.8763733,1.8623047c0,0.9585419,0.0855713,1.3179779,0.6044312,0.9713745c5.04953-5.4369354,14.2280579-4.9512482,13.8282776-8.9682465c-1.0296631-0.7583466-16.4007874-3.1284637-19.5814209-2.0814056c-4.8395081,1.4638062,4.7326965,3.1681824,0.3287048,4.4913788c-5.5351562,0.7324066-8.3282471-0.3888092-7.0929565-6.1071625c0.1262207-0.5237274,0.3553467-1.2333984,0.8487854-1.6706085c0.6572571-0.3286285,1.0954895,0,1.0954895,0.7668381c0,0.985878,0.6572266,0.7667694,1.8622742-0.4382095c3.8888855-5.7785339-0.4587402-13.0017471,5.0391235-14.8982849c3.6287842-1.7767868,3.9005127-2.834343,0.7668457-3.8341217c-9.4940491-0.899231-10.7948608,4.4183578-13.9124146,4.7104797c-2.974884,0.2070694-8.0333862,2.9886551-12.6959229,7.2504959c-0.54953,0.2846985-0.6687622-0.0826416-0.6687622-1.00634c-0.84198-6.4833908-11.9313354,7.5222244-16.9796753,2.5195541c-1.6777649-1.821312-2.5622864-1.1853943-2.6599121,0.1814651c-0.1026917,1.4377975,0.8215942,3.7998886-0.2978516,3.5431366c-1.7408142-1.2531204-6.6303711,4.2644501-2.9577637,3.6150208c5.0870972-0.3970947,6.7302856,0.5614395-2.8482056,5.0391083c-10.1740723,5.1761017-15.4427185,4.9118042-14.5696411,6.5727844c1.1437988,1.2738495,3.6096039,1.1825104,6.654953,1.7527771c1.8272095,0.3421326,2.8755951,2.7386627,5.8332977,1.4240875c2.4075623-1.0499878,5.5746155-0.7408295,8.9828186,0c-0.6148071,5.1507111-0.905365,12.7162476,0,13.3646851c1.9142456,0.8569641,0.3484192-1.4206238,2.0813293-1.6432037c1.4087219,0.3569794,2.9036255,5.1438751,1.2050476,7.2300415c-2.104187,2.1029968,1.6579285,1.9403229,2.8482056,0.4382019c1.7997131-2.5837402,2.6991882,0.0223999,3.8341064,2.1909332c2.2056274,5.0276031,3.1174927,2.0641632,4.7104797,4.7104797c1.9420776,2.5164185,7.0424805,4.7903137,12.3787231,6.4631958c1.8623047,0.3286896,1.7528076,0.5477295-0.8763428,1.8623047c-4.8569031,2.6826324-1.8581543,4.1687622-4.491394,5.805954c-10.9682617,11.7625885-8.0233459,30.2748871,4.2997742,39.9023285c11.1985474,8.7487946,13.0304871,5.9704132,23.6346436,8.7362976c9.6400757,3.313797,29.7503662,3.8455505,33.302124,7.7777557c4.7947388,6.368988,2.0593567,17.7251434-4.1627502,20.4851837c-26.8024292,4.3088379-60.3966064-11.3927765-70.7669983-46.0094757c-2.0351562-2.9534912,1.4943542-5.8778839,0.1704102-12.9128876c-3.2139587-7.4861908-4.0207214,0.3794403-7.4005127,4.6969147c-12.5955658-8.000351-22.7657166-12.9682617-22.7856445-15.2269135c0.4417572-2.9435883,3.9098816,4.5082855,7.3396149,2.4100342c5.4645538-4.906723,2.9832306-13.0956879-8.5446014-25.8529968C215.2010193,136.8695526,136.4747772,86.0353165,96.7094421,74.715538c-2.1909256,0-3.1768723,0.4381485-2.9577637,1.3145752c9.4576035,8.4554062,20.8728485,10.4531097,31.5493469,24.647934c-0.9360657,2.1774216-7.2044907,3.2115097-7.668251,4.9295883c0.8060913,1.2772598,3.3299255,0.8450012,4.4818192,1.1805115c9.9630737,2.9018707,16.5890198,11.6074829,14.0315552,14.5941315c-3.1693878,2.871315-10.0808945-0.299408-10.9546432,3.9437103c0.5530777,1.5996017,2.6907196,0.0320282,9.6400681,3.6150208c15.8516693,9.3357849,17.6834106,20.4594421-2.848175,12.4882507c-24.1276245-8.2433319-49.0494308-14.4053192-60.2505188-8.654129c-10.2049179,4.619812,8.7260666,2.1036682,18.9515152,7.4491425c4.6074448,3.0890808,4.6356583,3.5413361,1.2049789,5.4773254c-10.0301437,2.4082184-26.2089615,1.4514923-37.4648781,3.6150055c-5.9695587,1.7535858-9.650032-0.206665-13.3646088,5.3677979c-0.0332298,3.7245483,13.1375427-0.5745392,21.690239,1.3145752c4.5672646,1.5013885-0.149971,5.5756073-6.6823692,7.3396301c-21.2033501,5.9320374-41.2381592,9.430191-45.5712738,14.0219116c-5.6019506,4.6229706-9.3815155,4.6765289-10.1878014,7.0110016c-0.4732479,1.1972961-2.9578328,0.9174194,20.320776-4.4229736c9.4755898-2.1738129,32.019989-2.7549744,33.9046936-1.4925537c-0.1813965,1.3859711-4.1580048,2.7025452-4.3818588,5.1486969c0,0.9329224,0.3310356,1.2037811,2.1288834,0.812439c17.5916748-5.3142548,45.5784912-3.5329132,55.802803,0.3012085c3.1931152,1.1974182,3.4814911,5.2640228,3.3047104,7.6500549c0.8538895,8.4915161-12.3941116,13.2924042-11.7214127,18.5133057c0.9240341,3.4199829,1.9756317-0.4023743,12.4882507-2.6290741c7.8872833-1.6706085,26.6471024,3.190506,33.6307602,11.0641632c18.8895874,20.9249268,2.470871,23.7803345-2.9577637,30.7825775c-0.7493896,1.4565125-1.0812225,3.1131439,0.1596527,4.7177582c1.5779419,0.8843231,4.9889679-4.6219482,16.8200989-4.9368744c8.3664856,1.1365204,27.5028687,12.1596375,29.3584137,15.3364868c-39.9273987,20.0245361-75.2933502,34.4291687-90.060112,31.9418945c-17.9356155-7.833313-48.7024803-17.0906067-61.6699295-30.2716064c-0.2839622-1.6520996,13.7745361,2.0907593,20.4934807,8.7366333c-2.0790024-18.0912781-23.0823708-16.3152771-30.1092129-29.5967865c-3.3845444-6.3972015-2.3987999-21.7805023-4.5074883-31.9683075c-0.6777782-1.0715179-1.5215073-1.7748413-1.885437-1.2945709c-2.5786591,3.4033356-6.2758493,25.9972687-6.4400625,36.6780548c-0.2431765,10.2778625,4.9568682,24.1001892,9.8591757,36.6980286c1.8041992-1.3928528,3.6607513-8.2518005,3.2863922-15.3364868c23.2602215,26.0172729,36.7709885,25.560791,43.8553314,32.4658813c-39.0238266,12.5091248-50.3032837,31.4057922-51.8522034,53.9662476c-5.4409466,24.3922729,22.8585815,55.2478638,76.6824799,42.2848816c7.494873-2.5817871,11.2656784,11.6581726,23.0929947,11.3935242c1.6870575,0.0227966,4.3190765-4.9234924,4.4031906,0.7661133c-0.3110428,3.8626709,4.22686,3.2727356,4.4913712,0.7668152c0.40979-5.5449829-1.3675232-6.7236023,2.7386627-6.0250549c5.8423157,1.2689209,4.8381805-6.627533,7.0110016,0.1095886c1.1926117,3.6593018,2.700882,3.661377,4.6008911-0.8763428c0.8326874-4.0025635-3.3718414-8.8125305-4.9295959-17.0892944c5.9571991,3.9711914,6.0045319,4.3501892,5.9155426,1.2049866c-0.2740021-3.5328369-4.3170776-8.4729919-12.6892395-6.8192139c-3.6971893,0.7302551-5.2639618,3.3656006-10.205986,5.0664978c-1.296051,0.0321045-1.1176682,1.0475464-1.3640518,1.3102417c-1.2372131,0.7990723-3.8377991-0.3575745-4.2227936-1.2007141c1.8256607-3.0307617,15.6102295-8.9645691,19.2617493-33.4299011c5.6664124-0.962677,13.4875031-0.0527649,19.1890106-0.4198914c7.1904602-0.4630127,9.3238068-2.7843323,12.8169403-3.3959656c3.4477386,1.3836975-1.2000275,6.1421204-0.4382172,8.5446472c2.1171265,0.3426819,10.8587036-2.9029846,10.482132-11.4955444c0.5819702-2.9098206,2.225296-1.8691101,3.320755-1.3213806c4.723587,2.3336792,16.0509186,0.6194763,20.6799622,7.6316833c2.0165558,2.4876404,0.9553223,4.0623779-0.4138794,4.3088989c-4.5531464,0.4039001-5.1351166,6.7370605-0.4382019,8.1063843c6.7027588,1.9855347,9.7495117,1.1639404,10.845108,6.4632568c0.3422089,4.491394,7.3257904,0.1095276,7.6682587,3.0672913c-0.5258789,3.3085938,1.1465454,4.2085571,1.4234161,6.3052063c0.1918335,1.4524536-2.5190125-0.019989-2.6284637,7.278595c-0.6049042,6.7652588,5.8630981,9.1555786,7.2301025,9.3114319c1.4669342,0.0565491,2.5073853-1.3594971,0.219101-2.5195618c-1.4516449-1.1160583,3.9914551,0.3559875,7.4491425-3.0672913c4.5560913-5.8962708,13.6856689,1.2886353,25.244873,8.0410767c3.7849121,1.598999,5.5193176,1.5441895,13.4249878,6.528595c9.4202881,6.7239685,10.7628174-8.1795349,13.0360413,3.3959045c0.6176758,3.1464539,2.7020264,1.7527161,3.1768188-4.1628113c0.543457-8.749939-3.2535095-6.2702942-0.3286438-11.5023804c0.7365723-1.678894,1.6225586-2.848175,2.4954834-2.7112427c1.335968,0.2095642,3.458313,1.7293091,4.2964172,3.2589722c2.5103149,4.683136,3.8339844-2.7112427,0.3286133-7.5586548c-8.6152039-8.4797363-11.8089294-4.9204102-13.6932983-7.3396301c-0.6861877-1.3354187,1.8074341-1.6211243,5.0391846,0c2.8630371,1.3253479,2.5996704-0.0270081,0.1095276-3.286377c-13.8303833-10.3384399-19.2392273,4.6557312-27.167511,2.848175c-19.3067322-8.3558655-30.8914185-18.4328613-24.3055878-42.7130737c1.501709-4.3881836,6.018158,1.2288513,7.1060638,1.2711182c2.3154907-0.2888489,0.216629-8.8919373-4.2715912-11.2498169c-5.1118622-2.5198975-8.1202393-8.2844543-12.707489-10.0645752c-1.7780609-0.690033-4.6557312-0.4108276-11.2831421-1.6569214c4.2310944-4.0258179,17.4451141-9.7770081,40.0162659-6.5248413c6.2909698,0.9064331,12.0957794,13.6932983,12.6755829,22.7377625c0.4993896,9.7635803,3.1600342,13.4625549,4.6151428,13.0779724c5.0323486-4.8142395-0.6990356-14.9676819,12.8027039-22.4989929c13.4995422,9.7827454,23.1166687,18.5719299,42.6135864,20.3756714c2.3004456,0.4381409,2.5195312,0.9858704,1.9718018,4.6008911c-3.5024109,16.9529419-0.7834167,8.1016541,2.7386169,11.7214661c2.5068359,3.657959-2.2642212,18.8187866,2.6291199,14.7887573c1.871521-2.0510254,2.2919006-1.0877686,3.7245483,2.3004456c1.9155273,5.4107361,0.2558899,10.6401978,2.8482361,10.8451233c2.0228577-0.0453796,2.4930725,5.9353333-0.1095886,4.8200073c-4.6160583,0.2119446-8.1104736,4.7662354-6.7064209,11.0627747c0.7460327,3.3456726,2.8723145,5.2596741,6.0491638,8.8746948c-0.5231934-3.8125916-1.3262024-8.4970093-0.8241272-9.1148682c1.0582886,0.1509094,2.2395325,2.1829529,4.9978027,2.7789612c3.077301,0.6649475,7.1129456-0.4321289,10.834137,2.1731567c4.6243591,4.4859009,6.312561,9.2566833,13.2550964,14.460144c2.5084534,1.8800659,6.8404236,5.4854736,10.0229187,8.6886902c3.3860168,3.5486145,8.6607361-3.4486084,11.4482117-1.1300354c1.6545715,1.3763428-1.0637817,5.0033875-0.7501831,6.0384827c0.3552856,1.1730957,1.6107483,0.7847595,4.3653259-2.2043762c2.6434021-3.9792786,2.9690857-6.2084961,1.2050476-10.2973633c-0.9859314-1.8622437-0.7668152-1.9718323,2.5195618-1.4241028c4.2628479,0.6098328,5.07547-0.1553955,7.4491272-4.0532227c1.0039368-1.6462097,4.0254211-0.3014221,4.1627502,2.9577637c0.2189331,4.0258789,1.2660522,2.9467163,3.7246094,0.2190857c4.6646118-5.7785034-1.0864868-12.3056946-5.6964111-13.1455383c-5.6839294-1.4981995-0.5477295-3.4787598-10.0782776-6.9014282c-8.3166199-3.4415588-8.3622131,1.1684875-16.2129211,1.6431885c-15.6184692-4.6497498-19.9349976-16.8146057-19.38974-46.4476929c0.5318909-6.9550781,4.3709717-5.5462341,4.3818665-1.095459c0.1651306,6.85495,4.7086182-0.928772,4.3818359,8.2159729c-0.6541748,9.2507324,4.6468506,1.1071777,6.5727844,8.4350891c2.2095337,5.7473755,2.6477356,1.7523193,6.0250549,5.0391846c2.5765381,2.5897522,3.0405579-0.3743591,4.9295959,1.6431885c0.9036255,2.8071289-7.8943176-2.0882263-10.9546509,8.5446167c-1.3215027,4.0189819,2.9576416,6.381073,6.5727844,6.9013977c3.5738525,0.0616455-0.1575928-1.581543-0.3286133-3.3959045c0.7187805-1.2666321,2.9781494,1.0612183,5.9154663-0.9859619c2.4715576-2.2662048,7.0930481,3.5192261,11.1737366,4.3818665c0.7668457,0,1.5336914,0.7667847,1.8623047,1.5335999c8.2980347,7.987793,19.289032,19.2707214,24.1002197,17.9656372c5.0551453-0.3500671,6.2875366-2.4422607,7.0109863,1.0954895c0.8815613,5.0603638,6.4703674,1.3058777,5.3677979-3.834137c-0.7757874-5.6653442-3.2994385-9.6086426,0.2190552-9.0923462c2.341156-0.1833191,4.1056519-2.3848877,6.5727844-5.9155273c1.0364685,2.7043762,2.0612183,5.1318359,3.0673523,7.1205139c1.4640503-0.0644531,2.0178833-2.058136,2.4099426-6.1346436c0.504364-5.3705444-13.345459-16.0023499-15.9937439-15.7746277c-4.6046143-0.2203064-6.5710449,4.1822815-12.4062805,3.341217c-6.5194702-0.9397583-17.3363953-10.4705505-18.1571655-13.0908203c-9.2294312-21.0054932-20.1840515-41.2715759-17.0892334-47.7621765c3.6768188-15.4338684,8.3559265-15.5985413,9.1739807-20.4413452c1.4801331-8.7622375-2.0389404-12.2957458,2.109375-17.2426453c14.3713379-10.046875,22.0916748-18.86026,24.9764709-28.0438538c2.7687683,4.6488953,7.2290344,17.6442261,14.0020752,28.7673645c-3.2151184,0.8165588-11.441803,1.3694458-11.3245239,2.5335083c0.086792,0.8606567,9.430481,1.6661377,16.4930725,0.5770874c5.5673828-1.0374756,1.9910889,1.1534424,5.1487122,1.6431885c4.8972168,0.3479614-2.4810486,4.6009827-6.3330994,9.4613647c-1.1526794,1.894928,4.1876831,1.5297852,10.386322-3.2171936c3.0813904-2.3526611,4.915741-2.9098206,5.6855164-2.6791382c0.7757263,0.2324524,1.4484253,0.5503845,2.3114319-2.1409302c0.3583679-7.0409546,14.6516113,1.1228638,29.6457825,9.6127319c1.6966858,1.1702881,2.6017151,3.4233093,4.204071,2.8755798c2.7795105-10.0645752-1.8762207-17.3220215,4.1627502-18.1846619c5.429718-1.9029541,8.1477051-6.7801208,9.0923462-4.6009827c0.4016418,2.0375671,3.5006714,0.0308228,3.6150208-4.0532227c0.3695984-4.52948,2.2954712-6.920929,3.286377-9.7495728C510.8862915,268.0724182,502.4966736,274.4665527,499.1863403,277.5397034z M326.7568665,215.8112793c-9.6674805-1.8348846-26.2363586-4.6648712-28.4820557-15.2269745c0.4888916-3.2266083,5.9775085-9.2474518,7.1205139-8.4350891c1.019104,1.3165131-1.7750549,6.4725037-1.095459,8.3255768c1.7994995,0.000061,4.709198-2.8177643,7.6682434-4.2723389c1.1159973,0.6573181-0.2875671,5.1076355,2.190918,5.4773254c0.8763733,0,1.643219,0.7668304,1.643219,1.6431885c0.594574,2.3307343,4.2996826,6.5796661,10.5164795,11.3928528C327.8523254,215.5921783,327.9526367,215.9607239,326.7568665,215.8112793z M76.9909592,357.6738586c2.1545563-0.1004333,7.1754074-0.1004333,3.1768723,5.6964417c-2.058075,3.5651855-2.5997925,5.9845276,0.876358,5.3677368c2.9852448-1.6249695,0.429184,8.3255615-1.0954666,9.5305481c-7.9237289,3.7245789-37.9915504-7.8216248-38.1221313-13.6932983c1.4095802-10.0781555,23.6567764-28.1111145,39.8748474-30.4538879c0.9328537-0.3034363,3.480957,12.6332703-2.957695,17.4178162C75.5976944,354.7225037,72.6664047,358.7798157,76.9909592,357.6738586z"/>
</svg>