<svg version="1.1" xmlns="http://www.w3.org/2000/svg"
     xmlns:xlink="http://www.w3.org/1999/xlink" x="0px" y="0px"
     width="16px" height="16px" viewBox="-48 -48 608 608" fill="#1E9CEF">
    <path d="M75.3651581,353.5397644v23.2966919c-12.30159-0.3070068-24.337101-0.8187561-35.3491669-6.7136536c-12.2606564-6.5704041-16.2308922-17.9595947-16.9888878-30.8051453c-0.5098705-8.6406555-0.5454731-28.7980652-0.5731163-47.2618713c-0.8801537-15.4332886-6.8978958-22.2288513-22.085556-24.8488159c-0.1228121-0.6959534-0.3479644-1.4532471-0.3479644-2.2310486L0,245.7968903l1.0848321-0.9824982c15.9859285-3.8685608,21.2258759-10.3775482,21.4100895-27.0798798c0.1228123-10.7050476-0.1842136-21.41008,0.1023464-32.1151428c0.1842117-7.2458649,0.4912472-14.5736084,1.7807598-21.6761932c2.8451252-15.6993713,14.266573-25.1967773,32.5449829-27.6529999c5.4036903-0.7163849,10.84832-1.1667023,16.2929611-1.2485657c12.6904907-0.1842194,25.3946304-0.0477753,38.9243393-0.0477753l0,0l-0.0136337,148.6698303c0,17.8894958,1.9854507,20.5299377,19.7521362,25.6266174l-4.2574539,24.9101868c-9.476944-2.1491699-18.6059113-3.1112061-26.8547287-6.3657227c-15.7403107-6.181488-18.2170029-20.4480896-18.2784119-35.1035461l-0.0818787-134.3555145c-7.2253952,0.5526581-13.8776703,0.4912567-20.2638512,1.7193604c-7.3482094,1.3918457-11.5442581,7.430069-11.7898827,16.2724915c-0.3479691,12.322052-0.1228142,24.644104-0.3274918,36.9661713c-0.1023483,5.6493225-0.3479691,11.3191071-1.0234337,16.9070282c-1.269043,10.5413055-6.0382156,19.1176147-14.9215622,24.8692474v1.5351562c13.3250198,9.3132019,15.6993713,23.2727051,15.9449959,38.0101013c0.1842117,11.7080078,0.1128082,23.4364319,0.0613976,35.1445007C50.0058098,348.1803284,55.4121017,352.8453979,75.3651581,353.5397644z M163.6596375,274.2003784c-1.8831024,15.5356445,10.0773468,29.8089905,26.6978149,32.8997192c15.7198334,2.927002,30.8870239,0.2251587,46.5863953-4.6872864l3.5205841,21.4305725c0.14328,1.0848389-1.7193451,3.1521301-3.0498047,3.5615234c-23.0271149,7.2049255-46.2589111,9.5792847-69.3678894,0.7164001c-14.246109-5.4651184-24.5417938-15.63797-30.0273438-29.8840637c-8.6991425-22.6586609-8.8014832-45.4606323,1.4532623-67.6485291c14.9829712-32.442627,52.3175812-40.8756714,80.2571411-27.8781433c16.8865356,7.8599243,25.03302,22.4744568,27.9395447,39.9955444c1.657959,10.0295868,1.514679,20.3457336,2.2515411,31.5010681L163.6596375,274.2003784z M219.4841766,252.3263092c0.3479614-18.9129181-10.3775482-30.7437439-27.1822357-30.6413879c-16.0677948,0.1023407-29.1267395,13.857193-28.7173615,30.6413879H219.4841766z M436.703125,377.0548096v-23.3887329l6.7068787-0.4707947c12.6290894-1.023407,18.2579346-6.6318054,18.5854187-19.2813721c0.3070068-12.1173401,0-24.2347412,0.2251282-36.3521423c0.1023254-5.8335266,0.4503174-11.7284546,1.3099976-17.5005798c1.4942017-9.988678,6.5908508-18.0122986,15.9654541-24.0914764c-16.5794983-10.5208282-17.1321716-26.5886383-17.2958984-42.7587891c-0.1228333-11.1144104,0.1228333-22.2288208-0.1023254-33.3227844c-0.3070068-15.0853271-5.8744812-20.5913391-21.0007324-21.2668304l-4.1755981-0.2865448V135.062027c13.1408081,0.2865601,26.158783,0.6959381,37.6825867,8.1464691c10.7254944,6.9388275,14.0823364,17.9304504,14.5940552,29.7612762c0.6345215,14.3279724,0.3070068,28.6764221,0.5731201,43.0043945c0.0818481,4.2165222,0.2865295,8.5558472,1.3713684,12.58815C493.9058228,238.9398651,501.0903015,244.3026276,512,244.671051v22.6996155c-10.4389648,0.4502869-17.9099731,5.4241638-20.7141418,15.8222046c-1.1053162,4.0323181-1.3918762,8.3511658-1.4737549,12.5472107c-0.2865601,14.1437683,0,28.2875366-0.5116882,42.4108276c-0.7982788,22.4130554-12.6086121,34.878418-34.919342,37.4779053C448.6498718,376.3042908,442.8437195,376.5635376,436.703125,377.0548096z M425.602417,260.9026184c-11.7462769-5.6058197-26.5678406-10.8558807-31.071228-13.3659058c-7.450592-3.6843719-10.4594727-9.1495056-9.354187-15.3105164c1.0029602-5.6902466,5.7926025-9.2517395,13.9186096-10.5617523c12.8952026-2.0673523,25.1967773,0.777771,37.6825562,4.9124603l5.3934937-23.456955c-15.1058044-4.5849457-29.8942871-7.7166901-45.1023865-5.5469971c-7.8394775,1.1053009-15.9040833,3.1521301-23.0066833,6.5499268c-23.9891357,11.4623413-24.1937866,49.1654053-2.6199646,61.3441925c7.3277588,4.1551208,15.2695618,7.2254028,22.8838196,10.8688049c6.3453064,3.0497742,12.8952332,5.7926025,18.8720398,9.4360046c4.8714905,2.967926,6.5090332,7.9827576,5.2399597,13.7548523c-1.2281494,5.6083984-5.4241638,8.1669617-10.4184875,8.6582336c-7.5733948,0.7573242-15.3719177,1.4736938-22.8634033,0.5731201c-9.0675354-1.0848389-17.9303894-3.848114-27.2435913-5.9768066l-4.7487183,23.6206665c21.6352234,8.1464233,43.1271973,9.4768982,64.8443298,4.7077332c18.21698-4.0118103,28.5740967-14.5940857,30.0273438-28.9629211C450.1237183,281.6372681,443.819397,269.9906616,425.602417,260.9026184z M273.3983459,265.4875183c-21.5943146-12.3834839-21.2463531-49.7999878,3.0907288-61.8968811c10.8278503-5.3832397,22.2902527-7.3891449,34.0596313-6.4680634c11.1144104,0.8801575,22.116272,3.1726685,33.8242798,4.9329681l-5.6390686,24.5623016c-12.5062866-4.2574615-24.6236267-6.9388428-37.3551025-4.994339c-8.5149231,1.3099823-13.2840881,4.9124451-14.3074951,10.8892517c-1.023407,6.0586853,2.0468445,11.3805084,9.7225647,15.1262665c8.2726746,3.8447571,19.5921936,7.7871704,30.5595398,13.0998383c18.8720093,9.39505,25.4628296,22.065094,22.4539795,42.9020996c-2.0673218,14.3688965-14.5940552,25.4014282-33.0567017,28.3079529c-18.749176,2.9474792-37.3551025,2.4562683-55.6539612-3.3977661c-4.482605-1.4328003-6.3657074-3.1726379-4.9942932-8.085083l3.9094849-17.6643677c0,0,18.1146545,4.871521,27.1821899,5.9358826c7.4914856,0.880127,15.2900085,0.1842346,22.8633728-0.5731201c5.3218384-0.5116882,9.4564819-3.5000916,10.5822449-9.2927246c1.0848389-5.5879211-0.8596802-10.4389648-5.4650879-13.1203613C298.7205505,276.7219849,279.9794922,269.770752,273.3983459,265.4875183z"/>
</svg>