<svg xmlns="http://www.w3.org/2000/svg" width="16px" height="16px" viewBox="0 0 24 24">
    <path d="M22.655,1.934l-2.793-0.91c-0.133-0.043-0.283-0.028-0.406,0.043  c-0.123,0.072-0.21,0.192-0.238,0.332c-0.106,0.517-1.497,3.341-2.381,4.316c-0.559,0.617-1.156,1.097-1.789,1.605  c-0.427,0.343-0.856,0.689-1.278,1.079c-0.764,0.707-1.632,2.346-2.179,3.485c-0.443-0.148-0.924-0.234-1.446-0.234  c-1.962,0-4.199,1.061-5.983,2.838c-0.029,0.03-0.055,0.063-0.075,0.099l-0.105,0.121c-1.258,1.462-1.449,2.825-1.618,4.028  c-0.154,1.104-0.288,2.058-1.216,2.983c-0.133,0.132-0.18,0.328-0.123,0.506c0.057,0.179,0.21,0.311,0.395,0.341  c1.554,0.256,3.186,0.059,4.418-0.541c0.789-0.385,1.438-0.864,1.923-1.286c0.011,0.052,0.016,0.104,0.015,0.16  c-0.005,0.482-0.441,1.003-0.609,1.164c-0.125,0.12-0.18,0.296-0.145,0.465c0.036,0.169,0.156,0.309,0.318,0.368  C7.389,22.912,7.653,23,8.081,23c0.717,0,1.832-0.246,3.085-1.408c0.024-0.017,0.045-0.035,0.066-0.056  c1.785-1.778,2.85-4.007,2.85-5.963c0-0.813-0.195-1.533-0.55-2.139c0.346-0.642,1.034-1.653,2.259-2.526  c0.717-0.512,1.407-0.933,2.015-1.305c1.178-0.72,2.194-1.341,2.816-2.261c0.85-1.256,2.251-3.937,2.374-4.869  C23.027,2.235,22.884,2.008,22.655,1.934z"
          style="fill:#713a27;"/>
</svg>
