<svg xmlns="http://www.w3.org/2000/svg" viewBox="0 0 32 32">
    <path d="M6.83 20c-1.45-3.08.84-5.32 2.45-5.32-.93-3.35 1.02-5.55 3.02-5.55.57 0-.11-.37-.11-1.32s1.36-2.53 1.36-3.2-.74-1.04-.42-1.36 7.7 2.67 6.46 7.28c0 0 4.28.28 2.94 4 0 0 4.59 1.23 2.41 5.55 0 0 3.44.41 3.44 3.66s-5.25 3.17-7.13 3.17c-5.25 0-5.4-.34-7.74-.34s-5.51.34-7.13.34c-3.51 0-3.91-6.24.45-6.91z"
          fill="#875430"/>
    <path d="M28.38 23.74c0-1.59-.82-2.5-1.66-3.01 1.89 3.45-4.42 5.31-12.1 5.87 1.46.08 2.35.3 6.62.3 1.9 0 7.14.08 7.14-3.16zm-22 3.17c.81 0 2.02-.09 3.32-.18-2.3-.37-4.99-1.37-5.93-3.97-.47 1.93.51 4.15 2.6 4.15zm17.84-11.52c1.1 3.24-.84 6.12-2.9 7.52.87-.54 2.32-1.58 3.62-2.83 1.22-2.42.31-3.88-.73-4.69zm-1.66-.95c.62-1.8-.11-2.78-1-3.3.68 4.47-2.8 5.71-9.39 8.6 0 0 6.81-1.39 10.39-5.3zm-12.67 5.3c-.72-.24-2.22.14-3.43-2.48a4.1 4.1 0 0 0 .3 2.57c1.48.15 3.13-.1 3.13-.1zm8.15-13.76c1.75 5.13-2.44 6.68-8.76 8.7 0 0 7.62-1.56 10.3-4.14.49-1.8-.33-3.35-1.54-4.56zM15.6 7.16s-2.7 2.9-2.26-1.89c-.39.78-1.14 1.84-1.14 2.54 0 .49.18.82.28 1.03 2.65-.25 3.12-1.68 3.12-1.68z"
          fill="#543119"/>
    <ellipse cx="12.05" cy="16.55" rx="2.71" ry="3.34" fill="#e9e8e5"/>
    <ellipse cx="11.98" cy="16.65" rx="1.36" ry="2.15" fill="#0a0a0a"/>
    <ellipse cx="20.22" cy="16.55" rx="2.71" ry="3.34" fill="#e9e8e5"/>
    <ellipse cx="20.15" cy="16.65" rx="1.36" ry="2.15" fill="#0a0a0a"/>
    <path d="M20.6 21.4c-.37-.53-1.5-.04-4.64-.04-3.13 0-4.27-.5-4.63.04-.46.66 1.65 2.64 4.63 2.7 2.98-.06 5.1-2.05 4.64-2.7z"
          fill="#ebebeb"/>
    <path d="M28.98 10.73A13.92 13.92 0 0 0 25.9 6.1 13.95 13.95 0 0 0 16 2a13.95 13.95 0 0 0-9.9 4.1A13.95 13.95 0 0 0 2 16a13.95 13.95 0 0 0 4.1 9.9 13.9 13.9 0 0 0 4.63 3.07C12.41 29.66 14.18 30 16 30a13.95 13.95 0 0 0 9.9-4.1 13.9 13.9 0 0 0 3.07-4.63 13.94 13.94 0 0 0 0-10.54zM16 26.68c-2.85 0-5.53-1.11-7.55-3.13S5.32 18.85 5.32 16c0-2.3.72-4.47 2.04-6.29L22.3 24.63A10.6 10.6 0 0 1 16 26.68zm8.63-4.4L9.71 7.37A10.6 10.6 0 0 1 16 5.33c2.85 0 5.53 1.11 7.55 3.13s3.13 4.7 3.13 7.55c0 2.3-.72 4.47-2.04 6.29z"
          fill="#bc2100"/>
    <linearGradient id="a" gradientUnits="userSpaceOnUse" x1="16" y1="3.54" x2="16" y2="28.41">
        <stop offset="0" stop-color="#fce7e2"/>
        <stop offset=".02" stop-color="#fad6ce"/>
        <stop offset=".07" stop-color="#f5b2a4"/>
        <stop offset=".13" stop-color="#f0917c"/>
        <stop offset=".19" stop-color="#ec745b"/>
        <stop offset=".26" stop-color="#e85c3e"/>
        <stop offset=".33" stop-color="#e64827"/>
        <stop offset=".42" stop-color="#e43916"/>
        <stop offset=".52" stop-color="#e22f09"/>
        <stop offset=".66" stop-color="#e12902"/>
        <stop offset="1" stop-color="#e12700"/>
    </linearGradient>
    <path d="M16 29.36a13.3 13.3 0 0 1-9.45-3.91A13.31 13.31 0 0 1 2.65 16a13.3 13.3 0 0 1 3.9-9.45A13.3 13.3 0 0 1 16 2.65a13.31 13.31 0 0 1 9.45 3.9 13.32 13.32 0 0 1 3.9 9.45 13.3 13.3 0 0 1-3.9 9.45 13.3 13.3 0 0 1-9.45 3.9zM6.85 9.34A11.21 11.21 0 0 0 4.68 16c0 3.02 1.18 5.87 3.32 8a11.28 11.28 0 0 0 14.66 1.15l.6-.44L7.3 8.73l-.44.6zM16 4.68c-2.42 0-4.73.75-6.67 2.17l-.6.44 15.98 15.98.44-.6A11.22 11.22 0 0 0 27.32 16c0-3.02-1.18-5.87-3.32-8s-4.98-3.32-8-3.32z"
          fill="url(#a)"/>
</svg>
