<svg version="1.1" xmlns="http://www.w3.org/2000/svg" xmlns:xlink="http://www.w3.org/1999/xlink" x="0px" y="0px"
     width="16px" height="16px" viewBox="-48 -48 608 608" fill="#FFCB6B">
    <polygon class="i-color"
             points="120.0389252,323.9796448 222.0101776,222.0101776 120.0389252,120.0371628 86.0473328,154.0269928 154.0287476,222.0101776 86.0473328,289.9898376 "/>
    <rect class="i-color" x="222.0101776" y="289.9898376" width="135.9593048" height="33.9898262"/>
    <path class="i-color"
          d="M387.5045776,33.9898262H52.0575104l-0.6740112,0.0141144c-14.0183334,0.5222702-26.4663296,5.8367119-36.0012665,15.3716469C5.8402371,58.9175835,0.5240334,71.3708725,0.012351,85.3874435L0,425.9491272l0.012351,0.6599121c0.5116824,14.0200806,5.8261218,26.4733887,15.3698807,36.0153809c9.5278788,9.5314026,21.9758759,14.8458252,35.9959755,15.3716431l408.9013062,0.0140991l0.3387451-0.0140991c14.0218811-0.5258179,26.4681091-5.8402405,35.9977417-15.3716431c9.5278931-9.5278931,14.8440857-21.9741211,15.3716431-35.9942322l0.0101624-218.2102509L512,208.4221344v-47.4267731L387.5045776,33.9898262z M475.864624,172.9465637l-94.8023987-0.0009918l-0.0004272-95.4660492L475.864624,172.9465637z M471.0636292,437.075592c-3.0771484,3.0771484-6.6359863,4.5627747-11.5075378,4.7992249H52.4403877c-4.8698044-0.2364502-8.4286423-1.7220764-11.5057945-4.7992249c-3.0842094-3.0842285-4.5698547-6.6412964-4.7992287-11.4969788V86.4178619c0.2293739-4.85569,1.7150192-8.4092331,4.7992287-11.4934464c3.0789146-3.0771484,6.6359901-4.5663223,11.5005035-4.7992249h294.6368713l0.0004578,136.8097534l128.7922058,0.0004425v218.6326294C475.6282043,430.4378357,474.1408081,433.9984436,471.0636292,437.075592z"/>
</svg>
