<?xml version="1.0" encoding="UTF-8"?>
<svg width="16px" height="16px" preserveAspectRatio="xMidYMid" version="1.1" viewBox="0 0 24 24"
     xmlns="http://www.w3.org/2000/svg">
    <g transform="translate(0,-115.5)">
        <g transform="translate(0 -5.4609)" stroke-width=".98413">
            <path d="m4.0017 126.48c-0.65506 1.0702-1.3205 2.1388-1.9755 3.209-0.65506 1.061-1.3085 2.1428-1.9636 3.213l2e-3 2e-3 -2e-3 2e-3c0.65506 1.0702 1.3085 2.15 1.9636 3.211 0.65506 1.0702 1.3205 2.1408 1.9755 3.211h3.3304c-0.66429-1.0703-1.3185-2.1408-1.9736-3.211-0.65386-1.0683-1.3078-2.1447-1.9616-3.213 0.65386-1.0683 1.3078-2.1467 1.9616-3.215 0.65506-1.0702 1.3093-2.1388 1.9736-3.209z"
                  fill="#2196f3"/>
            <path d="m3.9989 126.48-2e-3 2e-3c0.65506 1.0702 1.3094 2.1509 1.9644 3.2119 0.65506 1.0702 1.319 2.1397 1.974 3.21h3.3311c-0.66429-1.0702-1.319-2.1397-1.974-3.2099-0.65386-1.0683-1.3067-2.1455-1.9606-3.2138z"
                  fill="#26a69a"/>
            <path d="m15.203 126.48 0.0019 2e-3c-0.65506 1.0702-1.3094 2.1509-1.9644 3.2119-0.65506 1.0702-1.319 2.1397-1.974 3.21h-3.331c0.66429-1.0702 1.319-2.1397 1.974-3.21 0.65386-1.0683 1.3067-2.1455 1.9606-3.2138z"
                  fill="#8bc34a"/>
            <path d="m11.874 126.48c0.66429 1.0702 1.3185 2.1388 1.9736 3.209 0.65386 1.0683 1.3078 2.1467 1.9616 3.215-0.65386 1.0683-1.3078 2.1447-1.9616 3.213-0.65506 1.0702-1.3093 2.1388-1.9736 3.209h3.3304c0.65506-1.0702 1.3185-2.1388 1.9736-3.209 0.65506-1.061 1.3105-2.1408 1.9656-3.211l-2e-3 -2e-3 2e-3 -2e-3c-0.65506-1.0702-1.3105-2.152-1.9656-3.213-0.65506-1.0702-1.3185-2.1388-1.9736-3.209z"
                  fill="#ffc107"/>
            <path d="m16.74 126.48c0.66429 1.0702 1.3185 2.1388 1.9736 3.209 0.65386 1.0683 1.3058 2.1467 1.9596 3.215-0.65386 1.0683-1.3058 2.1447-1.9596 3.213-0.65506 1.0702-1.3093 2.1408-1.9736 3.211h3.3304c0.65506-1.0702 1.3185-2.1408 1.9736-3.211 0.65506-1.061 1.3105-2.1408 1.9656-3.211l-2e-3 -2e-3 2e-3 -2e-3c-0.65506-1.0702-1.3105-2.152-1.9656-3.213-0.65506-1.0702-1.3185-2.1388-1.9736-3.209z"
                  fill="#f44336"/>
        </g>
    </g>
</svg>
