<svg version="1.1" xmlns="http://www.w3.org/2000/svg" xmlns:xlink="http://www.w3.org/1999/xlink" x="0px" y="0px"
     width="16px" height="16px" viewBox="-48 -48 608 608">
    <path fill="#FF4081"
          class="i-color"
          d="M503.2432556,344.0202332l-69.283844-85.8476257l66.4789734-82.7305603l-94.8710938-22.2359772l6.4995728-100.5536804l-97.0671082,35.2455673L262.8469543,0l-55.0253448,85.7695847l-99.8095322-41.1102829l9.4527588,110.7011566l-99.1434402,18.3044891l73.0930481,75.5102234l-82.657692,84.4165955l109.7332382,19.5716248l-12.9965744,115.2076721l99.544136-53.0166626l42.5049133,77.3429565v1.0580139h0.5815277L258.1504822,512l10.3335266-18.2446289h0.3733521v-0.6592712l42.8796082-75.7070007l94.0280762,50.190979l-1.1656799-109.5823364L503.2432556,344.0202332z M349.3450623,325.3872681l44.0058899-14.592865l39.5930481,16.2746887l-48.2967834,6.8404236L349.3450623,325.3872681z M295.8912964,326.9906921l-37.4051514,51.260376l-38.7666168-54.7644958l40.1846466-46.0650024L295.8912964,326.9906921z M333.723175,151.8973083v68.9016876l-65.9898376,24.0752106V177.897934L333.723175,151.8973083z M246.4184418,175.6879272v64.7021942l-56.3061371-22.2372742l-4.1884308-66.8201599L246.4184418,175.6879272z M183.0809479,238.2933044l61.4862366,24.2850037l-41.8225708,47.9383545L138.995697,290.176178L183.0809479,238.2933044z M276.6985779,264.2939453l63.8968811-23.3118896l36.3247375,52.8003845l-62.3933411,20.6982422L276.6985779,264.2939453z M438.6018677,306.3500061l-37.8735046-15.5679016l-26.9385986-39.1569061l31.276001,13.1666718L438.6018677,306.3500061z M453.166748,191.7300568l-42.1409607,52.440979l-49.0038452-20.6279907l32.579895-45.5387573L453.166748,191.7300568z M378.1417847,164.3754425l-23.1037292,32.2946777v-59.7393646l26.8732605-30.7826309L378.1417847,164.3754425z M358.629364,100.4024429l-24.9813232,28.6158829l-49.9548645,19.6808929l24.132782-29.8527603L358.629364,100.4024429z M261.9622803,50.7217674l31.1202393,52.4569206l-34.4272766,42.5911026l-30.1148987-42.9501648L261.9622803,50.7217674z M211.9492188,116.2855225l22.0261993,31.4152222l-51.0912323-20.5701065l-26.4800415-33.7234497L211.9492188,116.2855225z M163.6823578,137.1951752l3.4979553,55.7961578l-22.0831146-27.2102051l-5.0083618-58.6328888L163.6823578,137.1951752z M72.0301666,190.842804l57.3631592-10.5891571l32.5746918,40.1410675l-46.1973495,15.6310272L72.0301666,190.842804z M121.4142227,256.6192627l25.4431686-8.6091003l-32.5811996,38.3467407l-33.3351135,11.5967407L121.4142227,256.6192627z M83.0681458,319.7788391l37.5902176-13.0769043l46.8127213,14.9363098l-30.5032501,7.7533875L83.0681458,319.7788391z M145.754837,349.1525269L199.7218323,335.4375v52.5616455l-62.0791321,33.0586548L145.754837,349.1525269z M221.0367432,389.1514587V362.240509l26.505722,37.4432068v37.6975403L221.0367432,389.1514587z M268.8573608,399.868103l27.0339355-35.7353516v27.1721191l-27.0339355,47.7263184V399.868103z M317.2061768,390.1070251v-50.5474548l60.7053528,14.6543274l0.7311096,68.6860657L317.2061768,390.1070251z"/>
</svg>
