<svg version="1.1" xmlns="http://www.w3.org/2000/svg" xmlns:xlink="http://www.w3.org/1999/xlink" x="0px" y="0px"
     width="16px" height="16px" viewBox="-128 -48 608 608">
    <path fill="#F13C6F"
          d="M70.8422852,91.1702881C55.843689,74.7624512,53.9046631,52.7462158,44.2553711,33.8062744C34.867981,22.3399048,28.5319214,4.4642334,13.2547607,0C-5.8599243,15.7384644,1.4462891,42.5808105,1.0450439,63.7676392c-0.480957,15.3880005,19.7106934,30.1970215,8.133667,35.0219116c-1.3444214,21.9306641,4.4389038,43.2974854,5.7515869,65.1013794c-0.7067261,7.6870117,5.321167,14.6171875,12.0731201,19.9018555c-7.0709839-4.4486694-12.1395874-5.5687256-9.3896484,9.3347168c8.2279053,20.7558594,12.7774658,38.312439,15.5394897,61.486084c-0.9908447,10.0826416,12.8423462,20.1210938,1.3060303,22.0404053c1.2675781,18.8921509,8.4639282,53.4690552,4.7752075,61.8683472c3.0830078,20.0181274,7.9544067,39.6204834,10.3406372,60.1077881c-3.1328125,9.1242065,9.2814941,17.9712524,13.7381592,19.8540039c-19.3442993,5.1941528,28.9726562,19.6915894,4.1535645,16.9492188c-19.9642334,2.2678833,12.927063,11.9716187-7.3468018,13.5900269c-14.4672241,8.8822021,33.1304321-8.7407227,9.2192383,7.0792236c-12.053894,11.097229,24.5638428-7.8700562,8.6452637,5.836853c-9.6615601,12.9082031-41.1399536,33.6271362-37.7105713,40.5331421c19.0174561-5.644043,38.9521484-35.597229,53.4827271-33.8460083C94.7012939,481.3969116,86.2468262,508.6986694,93.677063,512c4.9411011-9.9920044,7.625-42.6300659,13.4000244-37.7817383c1.5488281,13.8336792,12.2641602,20.758667,6.6328125,2.7886963c-0.519104-11.8986816-0.5070801-28.130188,1.7632446-6.6176758c-0.7494507,6.0136108,6.206665,19.8655396,6.2215576,5.267395c19.5498657,17.0748901-7.7260742-25.1254883,13.2377319-9.692688c17.6345825,1.7999268-27.7027588-27.1150513-5.3307495-14.8902588c13.1751099,10.8604736-0.5394287-7.1346436,12.2619629,0.100769c19.9055786-0.7549438,29.5895996-16.0579834,40.6376953-27.1497192c-12.3630981,0.1192627,18.1174316-8.6791992,19.6149902-19.0098267c2.7990723-9.9113159,28.170105-24.3800659,20.4730225-29.4836426c7.0083618-4.2649536,22.3372192-27.5477295,27.7705078-42.1526489c-1.6924438,0.878479-3.6662598,1.6455078-5.6011963,2.2863159c8.6654053-4.793396,22.1964111-23.2942505,19.6549683-27.9321289c-3.3717651,1.3684692-5.6065063,2.3373413-6.9703979,2.9559937c4.6345825-2.4767456,16.8106079-10.1027222,15.0774536-19.1229248c14.8258667-21.6530762,16.0441284-32.5065308,29.1609497-53.0270386c2.1384888-6.5324097,8.1127319-16.2891846,5.8858032-17.8690796c6.6516724-5.7837524,13.1221313-15.5874634,11.3134155-21.4089355c7.8139648-13.5961914,22.0784302-44.5274048,17.5317993-52.5700684c-13.7595825,10.6231689,15.2628784-11.7531128,12.9639893-21.6533203c5.8445435-11.8571777-1.3756714-10.2488403-3.0427856-9.479187c8.3499756-10.9927368,12.2097778-29.5064697,14.5921021-32.9477539c9.0338135-14.8449707,14.2667236-33.3856201,14.7493896-51.0662231c-12.140625,22.4423218,18.338562-33.322998-10.5183105-26.1749878c-16.7132568,9.6662598-33.206604,21.7625122-43.1881104,38.8220825c-9.59552,7.7678833-11.5185547,18.2521362-10.9033813,29.2930908c-1.4564209-7.2137451-3.8648682-9.3753052-9.0655518,4.164978c-0.9199829,2.0882568-1.107666,5.8499756-0.9260254,10.0762939c-1.2069092-4.7791138-3.6361694-6.133667-7.7846069,4.1889648c-21.0518799,13.1835938-28.2564697,38.8844604-45.2484741,55.9900513c-5.1338501,5.8391113-6.2913208,14.2801514-5.6646729,22.6863403c-0.8070679-4.3951416-1.7782593-7.6514893-3.4637451-8.2758789c-10.8856812,11.4144897-18.4693604,27.0004883-21.9749756,40.3648682c-2.7110596-4.1896973-13.3931885,21.9191895-19.7195435,29.3912964c-6.0801392,5.809021-11.6957397,18.2388306-13.7779541,27.4992065c-2.0285645-5.2306519-7.3485718-3.3236694-12.4279175,6.8150635c-7.2010498,7.3704834-13.2991333,16.2649536-13.6262817,26.1257935c-1.6113892-5.414978-3.7752686-6.5831299-9.1365967,5.809082c-10.8071289,17.6820068-11.0615234-15.067627-15.9459839-13.3956909c3.3508911-12.7646484-5.6611938-33.0438232-7.2479858-23.2591553c1.6274414-20.1395874-7.6974487-38.6194458-13.2074585-59.0842285C98.1222305,142.1433716,78.9754868,116.123436,70.8422852,91.1702881z"/>
</svg>
