<svg xmlns="http://www.w3.org/2000/svg" width="16px" height="16px" viewBox="0 -1 16 16">
    <path id="file_type_maya.svg" class="i-color" fill="#26A2C1"
          d="M13.924,5.537h0c0,0.241-.007.483-0.005,0.725,0,0.327,0,.655,0,0.983s0,0.649,0,.973c0,0.291,0,.583,0,0.876,0,0.128,0,.256-0.012.385-0.01.759,0,1.518-.009,2.278q0,0.571,0,1.142c-0.875,0-1.751.009-2.626-.006l-0.044,0a1.485,1.485,0,0,1-.2-0.639c0-.929-0.005-1.858.006-2.786A11.535,11.535,0,0,0,10.968,7.7q-0.115.208-.238,0.412l-0.04.075c-0.234.385-.447,0.781-0.663,1.174-0.194.366-.4,0.724-0.6,1.088q-0.1.19-.211,0.38c-0.01.018-.03,0.052-0.04,0.069-0.745-.045-1.492-0.041-2.238-0.052q-0.461-.8-0.916-1.6c-0.177-.3-0.337-0.6-0.522-0.9C5.426,8.242,5.354,8.13,5.29,8.014c-0.054-.091-0.109-0.18-0.166-0.269l-0.061.025a1.47,1.47,0,0,0-.151.314q0.021,1.094.057,2.189a17.322,17.322,0,0,1,0,2.18,3.036,3.036,0,0,1-1.484.48l-0.155.022h0L3.259,13H2V2.3L2.056,2.33q0.26-.03.522-0.054c0.986-.094,1.972-0.188,2.959-0.265,0.269,0.611.522,1.228,0.78,1.843C6.884,5.176,7.4,6.517,7.981,7.834c0.062-.151.125-0.3,0.191-0.451,0.172-.4.338-0.8,0.515-1.192,0.213-.5.426-1,0.645-1.5q0.247-.58.5-1.159c0.181-.4.338-0.82,0.534-1.219l0.093,0c0.466,0.007.932,0,1.4,0H12.7c0.166,0.422.365,0.833,0.5,1.267a1.955,1.955,0,0,1,.413-0.6h0a1.955,1.955,0,0,0-.413.6c-0.13-.434-0.33-0.845-0.5-1.267,0.153,0,.306,0,0.459,0,0.284,0,.567-0.005.85,0.018V5.625ZM2.086,9.9c0.005,0.871-.005,1.743.009,2.614-0.015-.871,0-1.742-0.009-2.614h0ZM2.065,2.35C2.077,2.377,2.093,2.41,2.1,2.429c-0.021.928-.013,1.855-0.01,2.783,0-.928-0.01-1.856.01-2.783C2.093,2.41,2.077,2.377,2.065,2.35ZM2.1,12.94h0c0.223,0.009.446,0.007,0.669,0.008C2.546,12.947,2.322,12.949,2.1,12.94ZM3.9,9.871a7.692,7.692,0,0,0,.67-1.564A7.692,7.692,0,0,1,3.9,9.871Zm7.927,1.714c0.045-.072.088-0.144,0.131-0.216,0.21-.521.419-1.043,0.6-1.575,0.093-.277.192-0.553,0.276-0.833s0.179-.581.262-0.873c-0.083.292-.175,0.582-0.262,0.873s-0.183.556-.276,0.833c-0.181.532-.39,1.054-0.6,1.575C11.917,11.442,11.874,11.514,11.829,11.585Zm0.363-4.891a1.035,1.035,0,0,1-.224-0.74,1.035,1.035,0,0,0,.224.74,2.683,2.683,0,0,0,1-1.155A2.683,2.683,0,0,1,12.192,6.695Zm1.726-2.634c0,0.3,0,.59,0,0.885,0-.145,0-0.29,0-0.435S13.918,4.211,13.918,4.061Z"
          transform="translate(0 -1)"/>
</svg>
