<svg version="1.1" xmlns="http://www.w3.org/2000/svg" xmlns:xlink="http://www.w3.org/1999/xlink" x="0px" y="0px"
     width="16px" height="16px" viewBox="-48 -48 608 608" preserveAspectRatio="xMidYMid meet">
    <path id="file_type_ai.svg" class="i-color" fill="#89DDFF"
          d="M104.3676376,236.3087616c0-40.0223846-43.6237679-65.1721191-78.3347168-45.1609344c-34.7105675,20.0112-34.7105675,70.3106689,0,90.3215027C60.7438698,301.4804993,104.3676376,276.33078,104.3676376,236.3087616z M47.2328262,238.619812c0.9316254-17.4195404,28.4773483-30.8073578,38.3612366-15.1646118c8.0138016,12.6981049-8.1260452,29.328598-20.3331146,32.5216064C52.3266258,259.3628235,46.3008194,256.0454407,47.2328262,238.619812z M56.0728455,274.9062195c2.0664902-1.866272,12.5426407-1.0996094,21.9980621-6.1877136c9.448967-5.081665,20.6747437-16.2206116,22.6813202-32.055603c1.1803665-9.2999573,1.5345154-6.9642487,2.0065842-1.9011688c-1.4662628,26.3217621-25.6756516,40.8649139-39.5169563,42.7846527C59.502079,278.0620728,52.9295082,277.7450867,56.0728455,274.9062195z M256.6015015,9.6756086C72.808754,32.3940926,69.8519669,225.8470154,231.826767,271.8000488c140.1693573,39.8085327,28.9558868,128.7198792,32.2046356,187.9238281c3.2677002,59.1975098,121.8617859,80.6734619,215.3887939-74.7970276C571.2886963,232.2136993,460.0190735-15.4908123,256.6015015,9.6756086z M286.4643555,278.6645813c-6.5725708-4.3858948-22.2649841-13.5493469-54.4946289-24.1165009c-26.6823578-8.7531891-40.2438354-16.2327423-46.8600159-21.8486633c20.7881317,9.1941681,37.4838409,12.6886292,58.22229,17.9659424c43.908905,13.1656342,54.0039673,17.0483551,54.9420471,33.8263397C297.8391418,293.7355347,293.4282227,283.3299255,286.4643555,278.6645813z M367.8400269,367.5634155c40.4610901,5.006958,83.9104309-78.8473511,93.725708-130.0371246c9.5733337-49.8729095,14.2390442,3.2119598,4.9576721,37.4728241c-11.0270996,40.6351318-49.1399841,103.5227661-74.6540833,132.6401367c-19.5626526,22.3336487-41.4238281,31.6521606-67.8077698,35.5656128C269.1691589,453.902832,327.3857727,362.5571899,367.8400269,367.5634155z M436.2878418,427.8855591c-25.1414185,30.1343384-62.0288086,57.1067505-103.5784912,60.3467712c-11.0832214,1.6585083-19.3157959,0.254425-18.711792-6.9145813c0.7951355-9.4364624,11.9651794-3.4538879,28.1417847-7.3802185c58.1104431-14.1082458,83.3079529-43.2006226,118.059845-97.8321228c27.0546875-42.5238037,38.8829651-89.7004089,39.777832-98.6833801C502.6482849,288.2997131,485.2969666,363.9476318,436.2878418,427.8855591z M103.3271866,335.897583c-53.0496101,30.5836792-53.0496101,107.4578247,0,138.0414734s119.7213669-7.8534241,119.7213669-69.0207214S156.3768005,305.3139343,103.3271866,335.897583z M153.6566162,418.6166687c23.7312622-7.8772888,36.541214-60.520813,39.5726929-37.0318604c5.9950867,46.3815002-25.9058075,59.3579102-36.3235626,62.0860596C121.7500305,452.877533,117.7118454,430.5443115,153.6566162,418.6166687z M215.5815125,414.2740173c-4.8458252,32.5712891-35.6281586,56.5944824-61.8255463,57.4893494c-5.3179016,0.5463867-12.294281-1.770752-5.7960358-3.1312256c7.8970184-1.6531677,53.8238831-13.5553894,64.6083069-51.3262634C215.9292145,405.526886,216.531723,407.8940735,215.5815125,414.2740173z"/>
</svg>
