<svg version="1.1" xmlns="http://www.w3.org/2000/svg" xmlns:xlink="http://www.w3.org/1999/xlink" width="16px"
     height="16px" viewBox="-48 -48 608 608" preserveAspectRatio="xMidYMid meet" fill="#AC7B69">
    <path class="i-color"
          d="M0 4.991l438.476 464.452c0 0 14.938 10.536 26.361-1.756s2.636-24.584 2.636-24.584l-467.473-438.113z"></path>
    <path
            class="i-color"
            d="M138.836 48.89l333.909 359.972c0 0 14.938 10.536 26.361-1.756s2.636-24.584 2.636-24.584l-362.907-333.633z"></path>
    <path
            class="i-color"
            d="M41.3 142.834l333.909 359.972c0 0 14.938 10.536 26.361-1.756s2.636-24.584 2.636-24.584l-362.906-333.633z"></path>
    <path
            class="i-color"
            d="M256.204 86.644l233.282 251.491c0 0 10.437 7.361 18.417-1.227s1.841-17.175 1.841-17.175l-253.542-233.089z"></path>
    <path
            class="i-color"
            d="M73.433 251.703l233.283 251.491c0 0 10.437 7.361 18.417-1.227s1.841-17.175 1.841-17.175l-253.542-233.089z"></path>
    <path
            class="i-color"
            d="M376.087 141.078l105.731 114.331c0 0 5.163 3.449 9.111-0.575s0.911-8.048 0.911-8.048l-115.753-105.708z"></path>
    <path
            class="i-color"
            d="M131.806 367.597l105.732 114.331c0 0 5.162 3.449 9.111-0.575s0.911-8.048 0.911-8.048l-115.753-105.708z"></path>
</svg>
