<svg id="Logo_" version="1.1" viewBox="0 0 120 120" width="16px" height="16px"
     xml:space="preserve" xmlns="http://www.w3.org/2000/svg" fill="#FF5722">
<g transform="matrix(.78524 0 0 .78524 11.024 15.241)">
    <g transform="matrix(1.0221 0 0 1.0221 -1.3771 -1.2585)">
        <path class="st0"
              d="m14.5 0h57.3c8 0 14.5 6.5 14.5 14.5s-6.5 14.5-14.5 14.5h-57.3c-8 0-14.5-6.5-14.5-14.5s6.5-14.5 14.5-14.5z"/>
        <ellipse class="st0" cx="109.2" cy="14.5" rx="14.8" ry="14.5"/>
        <path class="st0"
              d="m52.6 43.3h56.6c8-.6 14.9 5.5 15.5 13.5s-5.5 14.9-13.5 15.5h-1.4-57.2c-8 .6-14.9-5.5-15.5-13.5s5.5-14.9 13.5-15.5h1.4z"/>
        <path class="st1"
              d="m14.8 43c8.2 0 14.8 6.6 14.8 14.8s-6.6 14.8-14.8 14.8c-8.2-.1-14.8-6.7-14.8-14.8 0-8.2 6.6-14.8 14.8-14.8z"/>
        <path class="st0"
              d="m14.5 85h57.3c8 0 14.5 6.5 14.5 14.5s-6.5 14.5-14.5 14.5h-57.3c-8 0-14.5-6.5-14.5-14.5s6.5-14.5 14.5-14.5z"/>
        <ellipse class="st0" cx="109.2" cy="99.5" rx="14.8" ry="14.5"/>
    </g>
</g>
</svg>
