<svg version="1.1" xmlns="http://www.w3.org/2000/svg" width="16px" height="16px"
     viewBox="-160 -48 608 608">
    <path class="i-color" fill="#AB7967"
          d="M183.069809,153.3023682c79.6677704-58.6481247-17.7949982-112.0129852,0-153.3023682C109.7516403,74.2158737,185.5092163,95.3030319,183.069809,153.3023682z M123.5349274,157.7675323c54.0602264-40.5614624-16.1642151-78.5259399,0-102.6977005C75.4179459,107.1628647,122.7722397,112.2490692,123.5349274,157.7675323z M309.5814209,197.9535217c0-7.441864-5.9534912-14.8837128-14.883728-14.8837128H14.8837204C7.4418602,183.069809,0,189.0233154,0,197.9535217c0,50.6046753,7.4418602,224.7441711,81.8604584,309.5813293C84.8371582,510.5115356,87.8139725,512,92.2790222,512h125.0232697c4.4651642,0,7.441864-1.4883423,10.4185638-4.4651489C302.1394653,424.1860352,309.5812988,250.0464325,309.5814209,197.9535217z M199.4418793,468.8373108h-87.8139801c-4.4651566,0-7.4418564-1.4883728-10.4185562-4.4651794c-50.6046715-59.5348816-56.5581818-178.6046448-58.0465317-220.2790985c0-7.441864,5.9535103-14.8837128,14.8837204-14.8837128h196.4650574c7.441864,0,14.883728,5.9535065,14.883728,14.8837128c0,41.6744537-7.441864,159.2557526-58.0465393,220.2790985C206.8836212,467.3488464,203.9069214,468.8373108,199.4418793,468.8373108z M245.5814972,330.4186707c-5.9535065,40.1859741-17.8604126,86.3256226-43.1628113,116.0930481c-2.9766998,2.9767151-5.9535065,4.4651794-8.9302063,4.4651794h-74.418602c-2.9766998,0-7.441864-1.4883728-8.9302139-4.4651794c-17.8604126-22.325592-29.7674408-52.0930176-37.2092972-83.3488159C150.1417847,373.1480408,229.5355988,365.4741821,245.5814972,330.4186707z"/>
</svg>
