<svg width="16px" height="16px" version="1.1" viewBox="0 0 79.375 79.375" xmlns="http://www.w3.org/2000/svg">
    <g transform="translate(-25.4 -196.99)" style="fill:#ea2845">
        <path d="m71.192 202.44c-.497 0-.95849.10646-1.3845.2485.90524.6035 1.4022 1.4023 1.6507 2.3075.01777.12426.05324.21301.07102.33726.01777.10645.03547.21301.03547.3195.07103 1.562-.40826 1.7572-.7455 2.6802-.51475 1.1893-.37276 2.4673.2485 3.4968.05325.12424.12425.26624.213.39049-.6745-4.4907 3.0708-5.1652 3.763-6.5675.05325-1.2248-.95849-2.0412-1.7572-2.6092-.76325-.46149-1.4555-.6035-2.0945-.6035zm5.6445 1.0118c-.07103.40825-.01777.30174-.03547.51475-.01777.142-.01777.3195-.03547.4615-.03547.14201-.07104.28399-.12426.42601-.03547.14198-.08874.28398-.142.42599-.07104.142-.12425.26626-.19525.40824-.05325.0711-.08874.142-.142.21301-.03548.0532-.07103.10645-.1065.15975-.08874.12425-.17751.2485-.26625.35499-.1065.10646-.19525.23075-.31951.31952v.0177c-.1065.0887-.213.19525-.33724.28401-.37275.28399-.79875.49699-1.1893.76324-.12425.0887-.2485.15975-.355.26625-.12424.0887-.23075.1775-.33724.28399-.12426.10646-.21301.21301-.31951.33726-.08875.10644-.19525.23075-.26624.355-.08875.12425-.1775.24851-.24851.37275-.07103.14199-.12425.26625-.19525.40825-.05325.142-.1065.26625-.142.40825-.05325.15976-.08874.30174-.12425.44376-.01777.071-.01777.15974-.03547.23074-.01777.071-.01777.14199-.03547.213 0 .14199-.01777.30175-.01777.44374 0 .10646 0 .21301.01777.31951 0 .142.01777.284.05325.44375.01777.14199.05325.28399.08875.42599.05326.142.08875.28401.142.426.03547.0888.08874.17751.12426.2485l-4.0825-1.5797c-.69226-.19526-1.3668-.37275-2.059-.5325-.37274-.0887-.74549-.1775-1.1182-.26626-1.065-.21299-2.1477-.37273-3.2305-.47924-.03546 0-.05325-.0178-.08874-.0178-1.065-.10644-2.1122-.15974-3.1772-.15974-.78101 0-1.562.0355-2.3253.0887-1.0828.0711-2.1655.213-3.2482.3905-.26625.0355-.5325.0887-.79876.14202-.55025.10644-1.0827.23074-1.5975.35499-.26625.071-.5325.142-.79876.213-.26624.10644-.51474.23075-.76325.33724-.19525.0887-.3905.1775-.58574.26625-.03547.0178-.07103.0178-.08874.0355-.1775.0887-.33726.15975-.497.2485-.05325.0177-.08875.0355-.12426.0532-.19525.0887-.3905.19524-.55025.28399-.12425.0532-.2485.12425-.355.17751-.05325.0355-.12426.071-.15975.0887-.15975.0887-.3195.1775-.4615.26626-.15975.0887-.30175.1775-.426.26624-.12424.0887-.2485.15975-.355.24849-.01777.0178-.03548.0178-.05325.0355-.1065.0711-.23075.15976-.33725.24851 0 0-.01777.0177-.03547.0355-.08874.0711-.1775.14201-.26625.213-.03547.0178-.07102.0532-.1065.071-.08874.0711-.1775.15976-.26624.23075-.01777.0355-.05325.0532-.07103.0711-.1065.10644-.213.19524-.3195.30175-.01777 0-.01777.0177-.03548.0355-.1065.0887-.213.19526-.3195.30176-.01777.0178-.01777.0355-.03547.0355-.08874.0887-.1775.1775-.26625.28398-.03547.0355-.08874.0711-.12424.10646-.08874.10645-.19525.21301-.30175.3195-.01777.0355-.05325.0532-.07102.0887-.142.142-.26625.28401-.40825.426-.01777.0177-.03547.0355-.05325.0532-.284.30175-.58575.60349-.90525.86975-.3195.28398-.65675.55023-.994.78099-.355.2485-.69225.46149-1.065.6745-.355.19525-.72775.37274-1.1182.5325-.37275.15975-.76325.30176-1.1537.426-.7455.15975-1.5088.4615-2.1655.51474-.142 0-.30175.0355-.44375.0532-.15975.0355-.30175.0711-.44374.10645-.142.0532-.28401.10645-.426.15975-.142.0532-.284.12425-.426.19525-.12425.0887-.26625.15976-.3905.2485-.12425.0887-.2485.19524-.355.30175-.12425.0887-.2485.21299-.355.31949-.1065.12427-.213.23076-.30175.35501-.08874.142-.19525.26625-.26625.40825-.08874.12425-.1775.26625-.2485.40824-.07103.15976-.142.30176-.19525.46151-.05324.142-.1065.30174-.15975.46149-.03547.142-.07104.28401-.08874.426 0 .0177-.01777.0355-.01777.0532-.03547.15977-.03547.37278-.05325.47927-.01777.12425-.03547.23074-.03547.35501 0 .071 0 .15973.01777.23073.01777.12426.03547.23076.07103.33727.03547.10644.07103.21299.12424.31948v.0178c.05325.10644.12426.21299.19525.3195.07103.10644.14201.213.23075.3195.08874.0887.19525.19524.30175.284.1065.10645.213.19524.33725.28399.426.37275.5325.49701 1.0828.781.08874.0532.1775.0887.284.142.01777 0 .03548.0177.05325.0177 0 .0355 0 .0532.01777.0887.01777.14201.05325.284.08874.426.03547.15976.08875.30176.14201.426.05325.10644.08874.21299.142.31951.01777.0355.03547.071.05325.0887.07103.142.142.26626.21299.3905.08876.12425.1775.24849.26625.37275.08874.10646.19525.23074.30175.33725.1065.10644.213.19524.33726.30174 0 0 .01777.0177.03547.0177.1065.0888.213.17751.3195.24851.12425.0887.2485.15974.3905.23075.12425.0711.26625.142.40825.19524.1065.0532.23074.0887.355.12425.01777.0178.03547.0178.07103.0355.07103.0177.15974.0355.23074.0532-.05325.9585-.07102 1.8638.07103 2.1833.15974.35499.94074-.72776 1.7217-1.9703-.1065 1.2248-.1775 2.6625 0 3.0885.19525.44374 1.2602-.94076 2.1832-2.4672 12.585-2.911 24.069 5.7865 25.276 18.069-.23075-1.917-2.5915-2.982-3.6742-2.7157-.53251 1.3135-1.4378 2.9998-2.8933 4.047.12425-1.1715.07103-2.3785-.1775-3.55-.39051 1.633-1.1538 3.1595-2.201 4.473-1.6862.12425-3.3725-.69225-4.26-1.917-.07104-.0532-.08874-.15976-.142-.23075-.05325-.12425-.1065-.24849-.142-.37276-.05325-.12425-.08874-.2485-.1065-.37275-.01777-.12422-.01777-.24849-.01777-.39049v-.26624c.01777-.12426.05325-.24851.08874-.37276.03547-.12425.07103-.24851.12425-.37276.07103-.12423.12424-.24849.213-.37274.30175-.852.30175-1.5442-.2485-1.9525-.1065-.0711-.213-.12423-.33726-.17751-.07103-.0178-.15975-.0532-.23075-.071-.05325-.0177-.08874-.0355-.142-.0532-.12425-.0355-.24851-.0711-.37275-.0887-.12425-.0355-.2485-.0532-.37275-.0532-.12425-.0178-.26625-.0355-.3905-.0355-.08874 0-.1775.0177-.26625.0177-.142 0-.26625.0178-.3905.0532-.12425.0177-.2485.0355-.37275.071-.12425.0355-.2485.0711-.37275.12428-.12424.0532-.23075.10644-.355.15975-.1065.0532-.21299.12422-.33725.17748-4.1358 2.698-1.6685 9.017 1.1537 10.845-1.065.19524-2.1477.426-2.4495.65674-.01777.0178-.03547.0355-.03547.0355.76325.4615 1.562.852 2.3962 1.1892 1.136.37276 2.343.71 2.8755.85203v.0177c1.4732.30174 2.9643.40825 4.473.31949 7.8632-.55024 14.306-6.532 15.478-14.413.03547.15975.07103.30174.1065.4615.05325.31949.12425.65674.15974.99399v.0177c.03547.15975.05325.31949.07103.46149v.0711c.01777.15973.03547.31949.03547.46148.01777.19526.03547.39051.03547.58577v.28399c0 .0887.01777.19525.01777.284 0 .10646-.01777.213-.01777.3195v.24849c0 .12426-.01777.23076-.01777.355 0 .071 0 .14201-.01777.23077 0 .12424-.01777.24849-.01777.39049-.01777.0532-.01777.10646-.01777.15975-.01777.142-.03547.26624-.05325.40824 0 .0532 0 .10646-.01777.15976-.01777.1775-.05325.33725-.07103.51475v.0177.0177c-.03547.15976-.07104.33725-.10651.497v.0532c-.03546.15975-.07103.3195-.1065.47925 0 .0177-.01777.0532-.01777.071-.03547.15976-.07104.31951-.12424.47927v.0532c-.05325.1775-.10651.33725-.142.49699-.01777.0177-.01777.0355-.01777.0355-.05326.17751-.1065.355-.15974.5325-.07103.1775-.12425.33725-.19525.51474-.07103.17751-.12426.35501-.19526.51476-.07103.1775-.142.33725-.213.51475h-.01777c-.07103.15975-.14201.33725-.23076.497-.01777.0532-.03546.0887-.05325.12424-.01777.0177-.01777.0355-.03547.0532-1.1537 2.3252-2.8578 4.3665-4.9877 5.964-.142.0887-.284.19525-.42599.30174-.03548.0355-.08875.0532-.12426.0887-.12425.0887-.2485.1775-.39049.26625l.05325.10646h.01777c.24849-.0355.497-.0711.7455-.10646h.01777c.4615-.0711.923-.15975 1.3845-.24849.12424-.0177.26625-.0532.39049-.0887.08875-.0178.15976-.0355.24851-.0532.12425-.0177.2485-.0532.37275-.071.1065-.0355.213-.0532.3195-.0887 1.775-.42601 3.4967-1.0118 5.1475-1.704-2.8222 3.8517-6.603 6.958-11.023 8.9992 2.0413-.142 4.0825-.47924 6.0527-1.0472 7.1532-2.1123 13.17-6.9225 16.774-13.401-.72775 4.1003-2.3607 8.0053-4.7747 11.413 1.7217-1.136 3.3015-2.4495 4.7392-3.9405 3.976-4.1535 6.5852-9.4252 7.4727-15.087.6035 2.8045.781 5.6978.51475 8.5555 12.816-17.874 1.065-36.405-3.8517-41.286-.01778-.0355-.03547-.0532-.03547-.0887-.01777.0177-.01777.0177-.01777.0355 0-.0177 0-.0177-.01777-.0355 0 .21299-.01777.42598-.03547.639-.05326.40825-.1065.79875-.1775 1.1892-.08874.3905-.19525.78099-.30175 1.1715-.12425.37274-.26624.76324-.426 1.136-.15975.355-.33725.72775-.5325 1.0828-.19525.33726-.40825.69227-.639 1.0118-.23075.33726-.47925.65675-.72776.9585-.26625.31951-.55024.6035-.83425.88751-.17749.15973-.33724.30174-.51475.44374-.14199.12425-.26624.23076-.40825.355-.3195.24849-.639.47925-.99399.69223-.33725.21299-.69225.42601-1.0472.6035-.37275.17749-.74551.33725-1.1182.497-.37275.14198-.76325.26624-1.1538.37275-.39049.10645-.79874.19525-1.1892.26624-.40824.0711-.8165.10645-1.207.14202-.284.0178-.568.0355-.852.0355-.40825 0-.8165-.0355-1.207-.0711-.40825-.0355-.8165-.0887-1.207-.17751-.40825-.0711-.79875-.1775-1.1893-.30174h-.01777c.3905-.0355.781-.0711 1.1715-.14201.40824-.071.79874-.15972 1.1892-.26626.39049-.10645.78099-.23074 1.1537-.37274.3905-.14199.76325-.31948 1.1182-.49699.37275-.1775.71-.37275 1.065-.58575.33724-.23078.6745-.46151.994-.71.3195-.2485.62124-.51474.90525-.79874.30175-.26626.568-.56801.83425-.86975.26625-.31949.51475-.63902.7455-.95849.03547-.0532.07104-.12425.10651-.1775.17749-.28401.35499-.568.51474-.85201.19525-.35499.37276-.70999.53251-1.0828.15975-.37276.30175-.74551.426-1.136.12425-.37275.213-.76325.30175-1.1537.07103-.40826.142-.79878.1775-1.1893.03547-.40825.07103-.8165.07103-1.207 0-.28401-.01777-.568-.03547-.85201-.03547-.40824-.08875-.79876-.142-1.1892-.07103-.40826-.15975-.79879-.26626-1.1893-.12424-.37273-.24849-.76323-.39049-1.136-.14201-.37276-.3195-.7455-.497-1.1005-.19525-.35498-.3905-.70999-.6035-1.0472-.23075-.33724-.4615-.65675-.71-.97625-.26624-.30175-.5325-.6035-.8165-.90525-.14199-.14197-.30175-.30174-.4615-.44374-.79875-.62126-1.633-1.207-2.4672-1.7395-.12425-.071-.23075-.12424-.355-.17749-.58576-.37276-1.136-.56801-1.6862-.74549z"
              style="fill-rule:evenodd;fill:#e53935"/>
    </g>
</svg>
