<svg version="1.1" viewBox="0 0 40 40" width="16px" height="16px" xmlns="http://www.w3.org/2000/svg">
    <path d="m27.84 14.658-.01276-.0054c-.0072-.0028-.01457-.0054-.02095-.01184a.10019.10019 0 0 1-.02549-.08471l.70406-4.3045 3.3017 3.3026-3.4338 1.4609a.075597.075597 0 0 1-.03006.0054h-.01365c-.0045-.0028-.0092-.0063-.01821-.01549a1.563 1.563 0 0 0-.45086-.34701zm4.7891-.26231 3.5303 3.5303c.7332.73412 1.1003 1.1003 1.2342 1.5247.02004.06285.03644.12569.04919.19036l-8.4369-3.5731a.66307.66307 0 0 0-.01365-.0054c-.0337-.01365-.07287-.02914-.07287-.06376 0-.03461.04009-.05101.07378-.06466l.01093-.0045zm4.6697 6.3784c-.18216.34247-.53738.69768-1.1385 1.2997l-3.9803 3.9793-5.1479-1.072-.02733-.0054c-.04554-.0072-.0938-.01549-.0938-.05647a1.5538 1.5538 0 0 0-.59659-1.0867c-.02094-.02094-.01549-.05374-.0092-.08379 0-.0045 0-.0092.0018-.01276l.96819-5.944.0037-.02004c.0054-.04554.01365-.09837.05466-.09837a1.5757 1.5757 0 0 0 1.0565-.60569c.0083-.0092.01365-.01913.0246-.0246.02914-.01365.06376 0 .0938.01276l8.7893 3.7179zm-6.0341 6.1944-6.5451 6.5451 1.1203-6.8857.0018-.0092c.00091-.0092.0028-.01821.0054-.02641.0092-.02186.03279-.03097.05555-.04007l.01093-.0045a1.685 1.685 0 0 0 .63302-.47089c.02186-.02549.04827-.05009.08198-.05466a.081973.081973 0 0 1 .02641 0l4.6087.94725zm-7.9304 7.9304-.73776.73776-8.1563-11.788a.38618.38618 0 0 0-.0092-.01276c-.01276-.0173-.02641-.03461-.02368-.05466.000911-.01457.01007-.02733.02004-.03825l.0092-.01184c.0246-.03643.04554-.07287.06831-.11203l.01821-.03188.0028-.0028c.01276-.02186.0246-.04281.04645-.05466.01913-.0092.04554-.0054.0665-.000911l9.0362 1.8635a.14937.14937 0 0 1 .06923.03006c.01184.01184.01457.0246.0173.03917a1.6003 1.6003 0 0 0 .93632 1.0702c.02549.01276.01457.04098.0028.07104a.21677.21677 0 0 0-.01365.04098c-.11385.69222-1.0902 6.6471-1.3526 8.2547zm-1.5411 1.5402c-.54376.53829-.86436.82338-1.2269.93814a1.8216 1.8216 0 0 1-1.0984 0c-.42444-.1348-.7915-.50095-1.5247-1.2351l-8.1909-8.1909 2.1395-3.3181c.01007-.01639.02004-.03097.03643-.04281.02277-.01639.05555-.0092.08288 0a2.2169 2.2169 0 0 0 1.4919-.0756c.0246-.0092.04918-.01549.06831.0018a.17305.17305 0 0 1 .0255.02914l8.1964 11.894zm-12.831-9.2775-1.879-1.879 3.7107-1.583a.076508.076508 0 0 1 .03006-.0063c.03097 0 .04919.03097.06558.0592a2.6505 2.6505 0 0 0 .11841.16759l.01184.01457c.01093.01549.0037.03097-.0072.04554l-2.0493 3.1815zm-2.7106-2.7106-2.3772-2.3772c-.4044-.4044-.69768-.69768-.9017-.94998l7.2282 1.4992a.76508.76508 0 0 0 .02733.0045c.04463.0072.0938.01549.0938.05738 0 .04554-.05374.0665-.09928.0838l-.02094.0092zm-3.6943-4.5495a1.8216 1.8216 0 0 1 .081973-.45085c.1348-.42444.50095-.79058 1.2351-1.5247l3.0421-3.0421a1981.5 1981.5 0 0 0 4.2134 6.0906c.0246.03279.05192.06922.02368.09655-.13298.14664-.26596.30694-.35977.48091a.14573.14573 0 0 1-.04554.05647c-.01184.0072-.0246.0045-.03825.0018h-.0018l-8.1509-1.7096zm5.1734-5.8319 4.0905-4.0905c.38436.1685 1.7834.75962 3.0348 1.2879.94725.40076 1.8107.76508 2.0821.88349.02733.01092.05192.02186.06376.04919.0072.01639.0037.03734 0 .05466a1.8244 1.8244 0 0 0 .47636 1.665c.02733.02733 0 .0665-.02368.10019l-.01276.01913-4.1533 6.4331c-.01093.01821-.02095.0337-.03917.04554-.02186.01365-.05282.0073-.07833.00091a2.0712 2.0712 0 0 0-.49457-.06739c-.14937 0-.3115.02733-.47544.05738h-.000912c-.01821.0028-.03461.0063-.04918-.0045a.19127.19127 0 0 1-.04098-.04645zm4.9166-4.9166 5.2955-5.2955c.7332-.7332 1.1003-1.1003 1.5247-1.2342a1.8216 1.8216 0 0 1 1.0984 0c.42444.13389.7915.50095 1.5247 1.2342l1.1476 1.1476-3.7662 5.8328a.14118.14118 0 0 1-.03734.04371c-.02277.01549-.05466.0092-.08198 0a1.91 1.91 0 0 0-1.7488.337c-.0246.0255-.06102.01092-.09199-.0027-.49184-.21404-4.3173-1.8307-4.8646-2.063zm11.391-3.3481 3.4775 3.4775-.83795 5.1898v.01365a.12296.12296 0 0 1-.0072.03461c-.0092.01821-.02733.02186-.04554.02733a1.6668 1.6668 0 0 0-.49912.24865.14027.14027 0 0 0-.01822.01549c-.01007.01093-.02004.02094-.03643.02277a.10383.10383 0 0 1-.03917-.0063l-5.2991-2.2515-.01007-.0045c-.0337-.01365-.07378-.03006-.07378-.06466a2.002 2.002 0 0 0-.28235-.83339c-.02549-.0419-.05374-.08562-.03188-.12843zm-3.5813 7.8385 4.9676 2.104c.02733.01276.05738.0246.06922.05282a.096546.096546 0 0 1 0 .05192c-.01457.07287-.02733.15575-.02733.23954v.13935c0 .03461-.03552.04919-.06831.06285l-.01007.0037c-.78694.33609-11.048 4.7116-11.064 4.7116-.01549 0-.03188 0-.04736-.01549-.02733-.02733 0-.06558.0246-.10019a.69222.69222 0 0 0 .01276-.01822l4.0823-6.321.0073-.01093c.02368-.03825.05101-.08107.09472-.08107l.04098.0063c.09291.01276.17488.0246.25776.0246.61935 0 1.1932-.30148 1.5393-.817a.14573.14573 0 0 1 .03097-.03643c.02459-.01821.06103-.0092.08926.0037zm-5.6889 8.3658 11.185-4.7699s.0164 0 .03188.01549c.06103.06103.11294.10201.16304.14026l.0246.01549c.02277.01276.04554.02733.04736.05101 0 .0092 0 .01457-.0018.02277l-.95818 5.8857-.0037.02368c-.0063.04554-.01276.09745-.05555.09745a1.5748 1.5748 0 0 0-1.2505.77146l-.0045.0072c-.01276.02095-.0246.04098-.04554.05193-.01913.0092-.04371.0054-.06376.000909l-8.9196-1.8398c-.0092-.0018-.13844-.47271-.14846-.47362z"
          style="fill:#F06292;stroke-width:.91081"/>
</svg>
