<svg version="1.1" xmlns="http://www.w3.org/2000/svg" xmlns:xlink="http://www.w3.org/1999/xlink" x="0px" y="0px"
     width="16px" height="16px"
     viewBox="0 0 451 512">
    <path id="file_type_ai.svg" class="i-color" fill="#D52A29"
          d="M212.9792023,51.8745499l-90.1005096,51.8440857C45.9365273,107.2886353,7.6496258,0.0000106,7.6496258,0.0000106C-9.3584661,75.2000961,4.2208652,125.501503,26.8955536,158.9609985C6.5081935,168.6061859,0.0896265,176.075058,0,188.5319672l0.4431354,311.2001953c-0.4158516,7.7498474,9.0604267,15.7257385,18.1076202,10.4773865l119.3529892-68.3425293c7.5526886-4.4840088,12.1446838-12.3995056,12.1446838-21.0489502V275.4335938c0-8.6660461,4.5919952-16.7034302,12.1114502-20.9990692l50.8220978-29.2690887c6.3285065-4.1586914,16.9619293-4.3124542,24.2256622,0l50.805481,29.2690887c7.5194397,4.295639,12.1280518,12.3330231,12.1280518,20.9990692v145.387207c0,8.6494446,4.6529236,16.6231079,12.1612854,21.0489502l119.3197937,68.3425293c7.7077026,4.7694092,17.914032-0.4378967,18.1546631-10.4773865l0.3905334-311.2001953c0.0300293-12.7294312-6.1802979-19.1817474-26.8900146-29.5737152C445.9576416,125.5042572,459.5148315,75.2028503,442.5178528,0c0,0-38.2758484,107.2747879-115.2207642,103.7186203l-90.0950012-51.8440704C228.9164429,47.319912,220.5240479,47.7945213,212.9792023,51.8745499z"/>
</svg>
