<svg xmlns="http://www.w3.org/2000/svg" width="16px" height="16px" viewBox="-1 -1 16 16">
    <path id="file_type_onenote.svg" class="i-color" fill="#7963E6"
          d="M14.883,9.387a12.029,12.029,0,0,0,.029-3.052,15.189,15.189,0,0,0,.024-2.87c-0.059-.521-0.663-0.474-1.038-0.542-0.056-.171-0.111-0.342-0.164-0.514a39.358,39.358,0,0,0-4.471-.1l0-1.3H8.31L1,2.306,1,13.7,8.266,15h1l0-1.289h3.495a1.866,1.866,0,0,0,.96-0.163,2.47,2.47,0,0,0,.189-0.793c0.37-.072.957-0.036,1.025-0.542A11.062,11.062,0,0,0,14.883,9.387ZM6.867,10.613c-0.343-.015-0.684-0.034-1.024-0.054C5.21,9.314,4.525,8.1,3.913,6.839c0.035,1.2.014,2.411,0.018,3.616L3.067,10.4q0.007-2.481,0-4.963l0.983-.054C4.671,6.548,5.3,7.709,5.906,8.886c0,0,0-2.411.006-3.616,0.316-.018.634-0.036,0.954-0.05v5.393ZM13.4,5.771v7.16H9.261V11.905h3.021V11.257H9.261V10.44h3.021V9.792H9.261V8.975h3.021V8.327H9.261V7.51H12.28l0-.648H9.261V6.045h3.021V5.4H9.261V4.58h3.021V3.932H9.261V3.069H13.4V3.717c0.366,0,.54.008,0.907,0.024,0.021,0.856.029,1.153-.006,2.009C13.933,5.763,13.4,5.771,13.4,5.771ZM14.5,12.2l-0.625.039q0-1.314,0-2.626L14.5,9.651C14.519,10.5,14.517,11.354,14.5,12.2ZM14.487,9.12c-0.207.01-.412,0.02-0.617,0.028q0-1.311,0-2.621c0.207,0.008.413,0.018,0.622,0.028C14.519,7.411,14.524,8.265,14.487,9.12Z"
          transform="translate(-1 -1)"/>
</svg>
