<svg version="1.1" xmlns="http://www.w3.org/2000/svg" xmlns:xlink="http://www.w3.org/1999/xlink" x="0px" y="0px"
     width="16px" height="16px" viewBox="-48 -48 608 608">
    <path class="i-color" fill="#E79627"
          d="M256,0C114.6151123,0,0,114.6151123,0,256c0,18.2838135,1.9318237,36.1143188,5.5753784,53.3127441c62.7557983-16.3966064,127.8199463-9.012146,179.3203735,14.5925293c71.5306396-51.2613525,168.2053833-66.8375854,259.3532715-29.5065918c4.4672852,1.9760132,2.9085693,7.633728-1.2868652,7.7702026c-93.5064697-7.0023804-189.8070679,22.7463379-244.9641724,99.1021729c-2.5853882,3.734314-4.5327148,6.2510986-8.3532104,3.4077759c-44.1951294-43.072937-112.0732422-61.5391846-174.7293091-62.4135132C50.3225708,441.2042847,144.887146,512,256,512c141.3848877,0,256-114.6151123,256-256S397.3848877,0,256,0z M457.3101196,154.3053589c-54.5753174-9.109375-113.3005371,6.4708252-145.0402222,44.8895874c-1.3353271,1.3624878-2.5044556,1.4501343-3.8216553,0.0755005c-29.2226562-35.8633423-95.0339355-53.1299438-146.2697754-43.3609619c-3.0767212-0.2018433-3.2920532-3.6192627-1.6373291-4.7943726c39.9476318-21.8099976,97.6049805-27.1757202,149.5142822,2.069397c37.2907104-22.3599854,95.0499878-31.0869141,148.4901733-3.9212646C461.1032104,150.8447266,460.0067139,154.5112915,457.3101196,154.3053589z"/>
</svg>
