<svg version="1.1" xmlns="http://www.w3.org/2000/svg" xmlns:xlink="http://www.w3.org/1999/xlink" x="0px" y="0px"
     width="16px" height="16px" viewBox="-48 -48 608 608" preserveAspectRatio="xMidYMid meet">
    <path id="file_type_ai.svg" class="i-color" fill="#F07178"
          d="M467.4737549,367.8875732c13.0191956,34.6904907,3.5648499,66.2684631-32.3874817,85.0551758c-35.0380859,18.3089294-72.8146667,29.4268494-111.3230286,38.1004028c-23.8770447,5.3779297-48.0404968,8.7756042-72.3549805,11.0446167c-22.5357819,2.1029968-43.820343-1.9877319-61.9001007-16.4731445c-14.9541626-11.9811096-24.1098633-28.0256958-26.7610779-46.8471069c-1.6300201-11.5715332,2.7838135-21.9556274,13.800827-28.1355896c14.4741058-8.118988,24.7212677-19.618988,29.5219574-35.7485046c1.3014374-4.3724976,1.6236115-8.4480591,0.6118622-13.034729c-2.4154968-10.9501343-2.7866211-22.0353088,0.9292603-32.8622742c5.7349701-16.7099304,17.842041-27.7458191,33.378006-34.7033386c9.7427368-4.3631592,45.9575653-14.0627747,53.7223663-15.5892029c6.8130188-1.3394165,13.7765808-1.9130554,20.6737366-2.8249512c17.2919617-0.2083435,32.6777344,4.6428223,46.1411133,15.4588318c8.3589172,6.715271,14.4495239,15.2384644,18.5724182,24.9811096c2.4865723,5.875946,6.424408,10.0033875,11.3878784,13.6270752c12.4335938,9.0776367,26.1563416,14.1328125,41.6702881,13.9551392C450.3133545,343.6946106,461.8343201,352.8608093,467.4737549,367.8875732z M239.3811188,102.442482c4.7687683,6.6521149,6.9464417,13.4406662,6.5352325,21.2769928c-0.3316193,6.3182755-0.7436371,12.6590347-1.6356201,18.9163742c-3.0730286,21.5560608,8.9231262,41.6193542,29.4196472,45.8807983c26.2250977,5.4523926,49.9066162,0.1947021,67.9295044-21.3614807c9.5727234-11.4494171,14.2226562-24.4398499,11.9215698-39.6940613c-1.5500793-10.2750092-5.1926575-19.6305389-10.6449585-28.274826C331.09552,80.4608841,315.3440857,66.1110001,295.0702515,57.455761c-11.9427795-22.5488243-29.0940857-41.1186638-44.8802338-48.0600967c-2.7395325,7.2339039-1.7411804,12.9750481,3.2370911,17.8641834c7.1504669,7.0225334,9.8999176,15.7413902,10.6951752,25.3431358c-6.8569336,1.8670273-13.4777069,3.037838-19.5948639,5.473259c-11.1338959,4.4327202-16.1577301,13.7196198-13.2745209,25.2743835C232.9160156,90.0157852,235.4340515,96.9368286,239.3811188,102.442482z M100.4654999,166.7697144c3.2006226,26.8385773,19.0911636,46.8577118,46.2655487,54.2419281c25.640152,6.9670715,47.6850128,0.8929138,66.8311768-16.7901917c6.8934174-6.3666382,10.3664703-14.7361603,8.5496674-24.0901794c-1.2480621-6.425827-3.4125824-12.9912415-6.6719208-18.6235657c-3.6074066-6.2336731-8.7997284-11.5859833-13.5335388-17.1239166c-7.8298035-9.1595459-14.2241669-19.7851562-12.7815094-32.6361084C186.4119568,88.0059052,171.6284943,77.258522,148.3848419,83.6791c-3.28685,0.9079361-6.6342773,1.596817-10.0821686,2.4177094c-5.8528748-8.4811554-9.1445007-17.0653076-7.9416504-27.1365204c0.8482819-7.1028137-2.9245758-11.6571846-8.8156891-14.9751434c-8.1268082,12.3040009-10.7213974,39.7432404-5.7720184,59.9350662C102.7221756,123.3210831,97.7484436,143.9855194,100.4654999,166.7697144z M493.3644104,166.3739014c-2.0718689-2.7342987-4.4061584-4.9563751-4.9544983-8.8634644c-2.4884338-17.7342682-10.9751892-32.9461823-21.0734253-47.3522339c-1.1567078-1.650177-3.0499573-2.7841721-5.4510193-4.9092941c-3.7122498,6.489563-5.6914978,11.8280106-2.4464722,18.4607773c3.3904114,6.9297791,5.3574219,14.2595825,2.0089417,22.5726013c-20.0374451-2.2171783-31.9136658,4.1245117-38.2458191,22.6512451c-6.7185364,19.6572113-20.8336182,45.0745697-29.2418518,63.8908539c-7.8875732,17.6511841-2.006958,32.2002106,14.4109497,42.6007233c21.7243347,13.7619019,44.4521179,15.3277283,68.0140991,4.814209c16.7006226-7.4518127,28.2286987-19.8126831,32.6374207-37.4195709C515.9656982,215.0925751,510.7732239,189.3483734,493.3644104,166.3739014z M144.7319946,306.0085754c-5.7170105-5.3512878-12.5013733-9.7364502-19.2873764-13.7371216c-16.6662216-9.8258057-44.7642822-27.8323669-61.2183151-38.3216705c-12.7064667-8.100235-26.6810379-5.5317535-40.5914078,10.8026276c-4.7058468-3.9537048-7.5659904-8.9443359-8.185071-14.6941071c-0.8744955-8.120636-6.1973257-11.8558502-13.7369833-15.9138336c-0.7097341,3.3738861-1.8434908,5.9899139-1.7005186,8.5342865c0.9107341,16.2080536,2.8145831,32.2120819,10.5643291,46.934494c1.4233131,2.7038879,2.3046837,5.8799133,2.6584435,8.9282532c1.8235664,15.7157593,6.6551409,30.3753662,15.398118,43.5563965c17.2857685,26.0602112,40.3559113,40.7042236,72.9291077,36.4185486c22.8199692-3.0023193,39.6029434-14.3639832,49.6324387-35.2091675C157.9945068,329.1748352,156.1355133,316.6821899,144.7319946,306.0085754z"/>
</svg>
