<svg version="1.1" xmlns="http://www.w3.org/2000/svg" xmlns:xlink="http://www.w3.org/1999/xlink" x="0px" y="0px"
     width="16px" height="16px" viewBox="0 0 448 512">
    <path class="i-color" fill="#6AAB20"
          d="M124.1937866,355.7416077l-24.3870697,32.0646057v-14L124.1937866,355.7416077z M121.4841232,449.6773071l-1.8064041,30.7096558l10.8386536,6.774292l-8.1289902-34.3226929L121.4841232,449.6773071z M447.8826904,342.6448669l-13.5483093,12.1934814l-11.2904358-0.4515686l7.2258301-10.8387451l-3.7871704-9.7835693l-37.1914673-12.7971191l-23.8748474-0.0606384l-42.0000916,11.7420044l-44.1936951,37.630188l5.7458496,13.5509033l11.7641907,8.4394226l9.0100708-21.6243591l23.0322571,10.8387756l0.4516602,6.3225708l-16.7097473-7.2258301l-2.7096863,4.5161743l16.2580872,8.580658l5.8710327,14l-14.4516907-12.6451721l-2.7096558,1.806427l2.2580872,37.0323486l-18.5161743-23.0323792l-0.2762756-2.8321228l-38.1109009,15.9289856l-13.096756-30.0791321l-3.4144592-16.6950684l-2.7749176,1.8815002l2.5764618,52.6965637l24.1999664,23.7185974l8.7677917-17.9740295l23.4839172,10.387085v5.4193115l-15.3548279-6.7741699l-3.1613464,5.4194336l14.4516602,7.6774292l6.3226013,14.9032593L288.5812683,461.41922l-4.0644836,1.8065186l2.7096558,36.580658l-17.1613464-19.4194336l0.0464172-2.0402222l-23.5303345,8.8145142l-13.5484314-28.4215698l-0.3123627,16.9407959l13.6694031,32.124939L193.288269,438.341217l6.7766266,10.8844299L205.4843292,512l-38.8387604-71.8066101l-13.0968475,30.7097778v31.612915l-18.9677429-61.8711243l1.6251984-41.4429626l-0.9515839,0.5513306l-27.3188934,36.1227722l9.7236481-38.937561l30.0971375-41.2832947l70.8729095-47.870575l-49.7258453,6.8601074l17.8897247-12.1581421l-44.9865723-17.2655945l22.4581909,1.9588928l-56.3291931-31.2450256l30.7097626,5.4194336l12.1440887,7.5119629L67.59198,205.2861938l31.8096695,11.2310638l-62.0854301-56.8824615l31.22649,11.4052124l8.9219818,1.0368958l-22.9368706-17.6248169L7.8689108,87.6056213l49.7868195,29.7778931L0,38.2570877l163.4392242,86.660675L117.1540909,75.193634l-7.2353821-39.1333389l44.906517,39.3592377L126.0542068,0l194.79422,160.7745667l5.0849609,21.4804535l31.4846497,63.2928009l-21.5162354-21.183609l8.2166443,34.7095184l6.1184387,6.6811523l39.0542603,9.1478882l39.5026245,12.2237854l18.6445312,30.1865234L447.8826904,342.6448669z"/>
</svg>
