<svg version="1.1" xmlns="http://www.w3.org/2000/svg" xmlns:xlink="http://www.w3.org/1999/xlink" x="0px" y="0px"
     width="16px" height="16px" fill="#C792EA" viewBox="-48 -48 608 608">
    <path d="M498.0776672,206.9958191c-5.7255859,15.1022797-25.9035339,21.7076111-39.4497681,6.8805389c-42.6947327-49.2796631-126.3652954-49.7796936-149.6228943,24.6613159c-17.7734375,53.5591583,26.5077515,109.5618744,104.7848511,102.4774933c17.1747131-1.3561707,29.3148193,14.0282593,23.9190979,30.9689026l-38.9351196,106.4074707c-9.8706665,26.1786194-35.2270813,40.289978-65.2121887,30.4806519L35.3137474,400.1573486C8.4586363,390.675293-6.255074,361.4141541,2.554966,335.1231079L113.0189056,33.2234001c11.9117889-26.9347801,32.4677582-39.1120567,65.2112122-30.4826012l298.2089844,108.7022171c26.9173584,9.5365143,41.6023865,38.7742996,32.7991638,65.0478439L498.0776672,206.9958191z M441.1570435,260.1011963c0-40.2236481-43.8435059-65.4999084-78.7288818-45.388092s-34.885376,70.6643677,0,90.7761841S441.1570435,300.3248291,441.1570435,260.1011963z"/>
</svg>