<svg version="1.1" xmlns="http://www.w3.org/2000/svg"
     xmlns:xlink="http://www.w3.org/1999/xlink" x="0px" y="0px"
     width="16px" height="16px" viewBox="-72 -48 608 608" fill="#43C0C0">
    <path d="M0.3801592,40.7015572l40.1116867,359.8253479c2.0965805,13.538208,9.2626991,23.6380615,21.82547,30.0778503L220.9944,508.4745178c10.4808197,4.5377502,20.4982758,4.8607483,31.8534088,0l158.0872192-77.8638611c12.971405-6.4886475,20.6457214-20.0558472,20.0499573-34.2069702L469.922821,39.5218086C472.8915405,22.5614071,459.2008667,0.427229,433.9402161,0H36.3626976C20.6944523,0.0833356-3.3098602,11.7690163,0.3801592,40.7015572z M61.8416519,299.2036438l26.135704-132.3095551h60.4388733c26.1356964,1.6334839,39.2032776,14.7015228,39.2032776,37.5698853c0,39.2032623-31.0358276,62.0728302-58.8049011,60.4388885H99.4121552l-6.5340805,34.3031311L61.8416519,299.2036438z M114.1130676,191.3946686h21.2350006c11.4341888,0,19.6016388,4.9004059,19.6016388,14.7015076c-1.6334991,27.7690887-14.7015228,32.6697845-29.4024582,34.3031616H105.94561L114.1130676,191.3946686z M185.8175049,264.9022522l26.1356964-132.3095398h31.0358124l-6.5340881,34.3031464h29.4024658c26.1357117,1.6334991,35.9365234,14.7015228,32.6697693,31.0358124l-11.4341736,66.9747009h-32.6697845l11.4341888-60.4388428c1.6334839-8.16745,1.6334839-13.0675659-9.8008118-13.0675659h-24.5023499l-14.7015228,73.5046387L185.8175049,264.9022522z M289.7267456,297.3526917l25.9723511-131.4826355h60.0611267c25.9723511,1.6232758,38.958252,14.6096344,38.958252,37.335083c0,38.9582367-30.8418579,61.684845-58.4373779,60.0611267H327.062439l-6.4932556,34.0887756L289.7267456,297.3526917z M333.5550537,238.9153137l8.116394-48.6977997h21.1022949c11.3627319,0,19.479126,4.8697815,19.479126,14.6096191c-1.623291,27.5955353-14.6096497,32.4655914-29.218689,34.0887756L333.5550537,238.9153137z"/>
</svg>