<?xml version="1.0" standalone="no"?><!-- Generator: Gravit.io -->
<svg xmlns="http://www.w3.org/2000/svg" xmlns:xlink="http://www.w3.org/1999/xlink" style="isolation:isolate"
     viewBox="-4 -4 72 72" width="16px" height="16px" fill="#66BB6A">
    <defs>
        <clipPath id="_clipPath_idBXFJkLcgqO9e06MoQVpZAKj44tjOFm">
            <rect width="64" height="64"/>
        </clipPath>
    </defs>
    <g clip-path="url(#_clipPath_idBXFJkLcgqO9e06MoQVpZAKj44tjOFm)">
        <path d=" M 38.329 3.129 L 32 0 L 25.742 3.129 C 16.267 -3.941 5.511 1.985 8.533 11.733 L 0 16 L 0 48 L 32 64 L 64 48 L 64 16 L 55.467 11.733 C 58.556 2.244 48.01 -3.992 38.329 3.129 Z  M 48.071 22.542 L 37.689 17.351 L 47.36 17.351 C 49.493 17.351 51.627 16.569 53.191 15.076 L 58.098 17.564 L 48.071 22.542 Z  M 26.169 7.396 C 27.662 9.316 28.871 11.52 30.151 13.582 L 21.973 9.458 L 26.169 7.396 Z  M 37.831 7.396 L 42.027 9.529 L 33.849 13.582 C 35.129 11.52 36.338 9.316 37.831 7.396 Z  M 50.56 13.724 C 49.636 14.364 48.498 14.649 47.36 14.649 L 37.618 14.649 L 45.013 10.951 L 50.56 13.724 Z  M 18.987 10.951 L 26.311 14.649 L 16.64 14.649 C 15.502 14.649 14.436 14.293 13.44 13.724 L 18.987 10.951 Z  M 16.64 17.351 L 26.311 17.351 L 15.929 22.542 L 5.902 17.564 L 10.809 15.076 C 12.444 16.569 14.507 17.351 16.64 17.351 Z  M 32 30.507 L 18.916 23.964 L 28.444 19.271 L 26.738 23.538 L 29.227 24.533 L 32 17.636 L 34.773 24.533 L 37.262 23.538 L 35.556 19.271 L 45.084 24.036 L 32 30.507 Z  M 40.96 4.48 C 48.383 0.139 54.63 4.318 53.049 10.524 L 40.96 4.48 Z  M 35.413 6.187 C 34.204 7.893 33.138 9.742 32 11.52 C 30.862 9.742 29.796 7.893 28.587 6.187 L 32 4.48 L 35.413 6.187 Z  M 10.88 10.596 C 9.383 3.282 16.605 0.521 22.969 4.551 L 10.88 10.596 Z "/>
    </g>
</svg>