<svg version="1.1" xmlns="http://www.w3.org/2000/svg" fill="#FFD54F" viewBox="-60 -60 640 640" width="16px"
     height="16px">
    <path d="M295.3537903,26.5502739c14.0708923,3.8309212,21.7329712,7.0223961,30.0344849,13.4312363L156.0174561,237.471344c46.0175476,30.0335999,94.6043549,105.4709167,68.4029999,166.8158875c12.7592621-83.1004944-72.8735809-145.1076965-123.5606155-153.3835449L295.3537903,26.5502739z M159.8483734,483.5329285c31.9707489,1.3008118,63.2843323,1.9168091,95.8706207,1.9168091c70.9700623,0,139.3387756-3.1936951,203.2603455-9.5788574c22.9861755-1.9165649,42.1865845-20.4558411,45.3586121-44.1051636C509.4676514,388.9620056,512,344.2182922,512,298.1983337c0-46.0197449-2.5323486-90.785141-7.6620483-133.5897369c-3.1720276-24.2858734-22.3724365-42.1888123-45.3586121-44.7439423c-28.1416016-2.5518341-56.8991699-4.4900894-86.272522-6.4044113c0,0-121.456192,263.9862061-134.2391357,290.8269958C220.5656433,444.5595093,195.6500397,473.9543152,159.8483734,483.5329285z M212.2663422,389.5769043c0-81.1624756-137.3551636-116.3244934-184.2132568-93.9529419l216.821228-251.8115234c-13.4398651-3.1934662-28.7770538-0.63834-28.1396027-0.63834l-61.9835358,69.6681671c-34.9783401,1.2780075-68.9085693,3.8309174-101.7608185,7.0223923c-23.3835793,2.55513-42.430645,20.4580688-45.3822746,44.7439423C2.4460561,207.4131927,0,252.1785889,0,298.1983337c0,46.0199585,2.4460561,90.7636719,7.6080871,133.5673828c3.3361707,26.8646851,21.799778,40.274231,45.3822746,44.1051636C117.7266083,486.7483215,212.2663422,477.1479797,212.2663422,389.5769043z"/>
</svg>