<?xml version="1.0" encoding="UTF-8" standalone="no"?>
<svg width="16px" height="16px" viewBox="-50 -50 1100 1100" version="1.1"
     xmlns="http://www.w3.org/2000/svg">
    <g stroke="none" stroke-width="1" fill="none" fill-rule="evenodd">
        <g id="PostHTML-Logo" transform="matrix(1,0,0,1,12,266)">
            <path d="M 489 63.8 C 421.8 63.8 368.1 49.6 311 24.2 C 279.9 10.3 240.3 1 206 1 C 92.2 1 0 93.2 0 207 C 0 320.8 92.2 413 206 413 C 240.2 413 282.4 404.7 310.8 389.9 C 363.3 362.7 421.8 350.2 489 350.2 C 556.2 350.2 606 364.5 663.3 390 C 694.2 403.8 737.8 413 772 413 C 885.8 413 978 320.8 978 207 C 978 93.2 885.8 1 772 1 C 737.8 1 691.5 9.3 663.1 24.1 C 610.7 51.3 556.2 63.8 489 63.8 Z"
                  id="Oval-1-Copy-4" fill="#FFB74D"/>
            <path d="M 979 207 C 979 93.1 886.7 0.8 772.8 0.8 C 738.5 0.8 713 0.8 663.8 23.9 C 614.6 47 323.1 268.6 232.7 299.8 C 142.2 330.9 46.8 292 19.5 212.8 C 6.8 175.6 11.2 136.3 28.9 101.7 C 10.5 132.5 0 168.5 0 207 C 0 320.9 92.3 413.2 206.2 413.2 C 240.4 413.2 272.5 413.2 311.1 390.1 C 349.8 367 654 145.3 744.5 114.2 C 834.9 83 930.3 122 957.6 201.2 C 974 248.8 962 300.1 930.2 340.3 C 960.6 304.3 979 257.8 979 207 Z"
                  id="Oval-1-Copy-5" fill="#FF8A65"/>
        </g>
    </g>
</svg>