<svg xmlns="http://www.w3.org/2000/svg" width="16px" height="16px" viewBox="0 -1 16 16">
    <path id="file_type_powershell.svg" class="i-color" fill="#497CE3"
          d="M12.07,13H1.558a0.577,0.577,0,0,1-.544-0.713L3.079,2.876A0.966,0.966,0,0,1,4.009,2H14.461a0.556,0.556,0,0,1,.525.687l-2.112,9.644A0.833,0.833,0,0,1,12.07,13ZM4.554,11.529L9.389,7.9A0.662,0.662,0,0,0,9.478,6.94L6.284,3.4c-0.526-.583-1.425.3-0.9,0.883L8.1,7.287l-4.262,3.2A0.635,0.635,0,1,0,4.554,11.529Zm5.911-1.254H7.9a0.583,0.583,0,0,0,0,1.166h2.566A0.584,0.584,0,0,0,10.465,10.276Z"
          transform="translate(0 0)"/>
</svg>
