<svg version="1.1" xmlns="http://www.w3.org/2000/svg" xmlns:xlink="http://www.w3.org/1999/xlink" x="0px" y="0px"
     width="16px" height="16px" viewBox="-86 -48 608 608">
    <path class="i-color" fill="#EE6292"
          d="M304.804657,24.3809528H12.1450272c-16.5529213-0.7516956-15.8297806-24.246706,0-24.3809528H304.804657C320.7158508,0.2409473,321.2848816,23.565073,304.804657,24.3809528z M12.141367,121.9047623c-16.5479336-0.7517014-15.8250103-24.2467041,0-24.3809509h170.7621918c15.9063873,0.2409515,16.4752655,23.5650711,0,24.3809509H12.141367z M134.0461273,73.1428604c-16.5479355-0.7517014-15.8250122-24.2467079,0-24.3809547l243.9050446,0.0000038c15.9064026,0.2409477,16.4752808,23.5650711,0,24.3809509H134.0461273z M329.1869812,97.5238113c15.9063721,0.2409515,16.4775696,23.5650711,0.0022888,24.3809509h-97.619339c-16.5479279-0.7517014-15.8249969-24.2467041,0-24.3809509H329.1869812z M377.8556519,121.9047623c-16.5479431-0.7517014-15.8250122-24.2467041,0-24.3809509h24.4764709c15.9064026,0.2409515,16.4752808,23.5650711,0,24.3809509H377.8556519z M12.141367,170.6666718c-16.5479336-0.751709-15.8250103-24.2467194,0-24.3809662l48.8574371,0.0000153c15.9063797,0.2409515,16.4752655,23.5650635,0,24.3809509H12.141367z M304.7127991,170.6666718c-16.5479431-0.751709-15.8250122-24.2467194,0-24.3809662l122.0002747,0.0000153c15.9064026,0.2409515,16.4752808,23.5650635,0,24.3809509H304.7127991z M109.6651764,170.6666718c-16.5479355-0.751709-15.8250122-24.2467194,0-24.3809662l24.4764862,0.0000153c15.9063721,0.2409515,16.4752655,23.5650635,0,24.3809509H109.6651764z M12.141367,463.2380981c-16.5479336-0.751709-15.8250103-24.2467041,0-24.3809509h48.8574371c15.9063797,0.2409363,16.4752655,23.5650635,0,24.3809509H12.141367z M109.6651764,463.2380981c-16.5479355-0.751709-15.8250122-24.2467041,0-24.3809509h24.4764862c15.9063721,0.2409363,16.4752655,23.5650635,0,24.3809509H109.6651764z M304.7127991,219.4285736c-16.5479431-0.7516937-15.8250122-24.2467041,0-24.3809509h122.0002747c15.9064026,0.2409515,16.4752808,23.5650635,0,24.3809509H304.7127991z M12.141367,219.4285736c-16.5479336-0.7516937-15.8250103-24.2467041,0-24.3809509h122.0002975c15.9063721,0.2409515,16.4752655,23.5650635,0,24.3809509H12.141367z M12.141367,414.4761963c-16.5479336-0.751709-15.8250103-24.2467041,0-24.3809509h122.0002975c15.9063721,0.2409363,16.4752655,23.5650635,0,24.3809509H12.141367z M12.141367,512c-16.5479336-0.751709-15.8250103-24.2467041,0-24.3809509h122.0002975c15.9063721,0.2409363,16.4752655,23.5650635,0,24.3809509H12.141367z M12.141367,268.1904602c-16.5479336-0.7516785-15.8250103-24.2466888,0-24.3809357h24.4764843c15.9063797,0.2409515,16.4752617,23.5650787,0,24.3809662L12.141367,268.1904602z M85.2842255,268.1904602c-16.5479355-0.7516785-15.8250122-24.2466888,0-24.3809357h73.2383881c15.9063873,0.2409515,16.4752655,23.5650787,0,24.3809662L85.2842255,268.1904602z M207.1889801,268.1904602c-16.5479279-0.7516785-15.8250122-24.2466888,0-24.3809357h195.1431427c15.9064026,0.2409515,16.4752808,23.5650787,0,24.3809662L207.1889801,268.1904602z M304.7127991,316.9523926c-16.5479431-0.751709-15.8250122-24.2467041,0-24.3809509h73.2383728c15.9064026,0.2409363,16.4752808,23.5650635,0,24.3809509H304.7127991z M158.4270782,316.9523926c-16.5479279-0.751709-15.8250122-24.2467041,0-24.3809509h97.619339c15.9063721,0.2409363,16.4752808,23.5650635,0,24.3809509H158.4270782z M12.141367,316.9523926c-16.5479336-0.751709-15.8250103-24.2467041,0-24.3809509h97.6193466c15.9063797,0.2409363,16.4752579,23.5650635,0,24.3809509H12.141367z M12.141367,365.7142944c-16.5479336-0.751709-15.8250103-24.2467041,0-24.3809509h24.4764843c15.9063797,0.2409363,16.4752617,23.5650635,0,24.3809509H12.141367z M85.2842255,365.7142944c-16.5479355-0.751709-15.8250122-24.2467041,0-24.3809509h219.5240936c15.9064026,0.2409363,16.4752808,23.5650635,0,24.3809509H85.2842255z M12.141367,73.1428604c-16.5479336-0.7517014-15.8250103-24.2467079,0-24.3809547l73.1919708,0.0000038c15.967186,0.2409477,16.5382385,23.5650711,0,24.3809509H12.141367z"/>
</svg>
