<svg version="1.1" viewBox="0 0 24 24" xmlns="http://www.w3.org/2000/svg" width="16px" height="16px">
    <g id="prisma" transform="translate(-.5)" style="fill-rule:evenodd;fill:#00bfa5">
        <path d="m19.308 17.864-9.2184 2.6562c-.2816.08125-.55154-.15605-.49232-.4328l3.2931-15.366c.06164-.28734.46928-.33297.59794-.066875l6.0975 12.615c.11501.238-.01617.5186-.2779.5939zm1.5807-.62645-7.0601-14.607v-.000315c-.17706-.36516-.54656-.60609-.96534-.62844-.4296-.024375-.81456.1775-1.0317.5211l-7.657 12.083c-.2372.3766-.23255.84095.013472 1.213l3.7429 5.6488c.22309.3372.60959.53235 1.0113.53235.11387 0 .22837-.0156.34097-.0481l10.865-3.1306c.33282-.09595.60497-.3253.74738-.6294.14195-.3042.13969-.65235-.0064-.9545z"
              style="fill:#00bfa5"/>
    </g>
</svg>
