<svg version="1.1" xmlns="http://www.w3.org/2000/svg" xmlns:xlink="http://www.w3.org/1999/xlink" x="0px" y="0px"
     width="16px" height="16px" viewBox="0 0 456 512" fill="#4DB6AC">
    <path transform="scale(0.9) translate(30 30)"
          d="M455.9481506,245.6686707c0-62.2281799-24.9657288-118.5696411-65.3576965-159.7062378c-7.5068054-22.9028664-6.6414185-54.5603447,2.8779602-68.9702377c3.3207397-5.0313854,6.862793-9.9017687,10.6665344-15.3759127c-33.790802-5.7559052-62.5300598,3.9244797-81.7901917,28.0348854c-2.3345337,2.9383278-4.5081482,4.6691208-6.7823181,5.5144005c-58.7729492-23.4541836-117.3030243-23.2492466-175.5953217,0.1207542c-2.3949432-0.8050194-4.6691284-2.5559387-7.1244507-5.6351547C113.6026459,5.5608926,84.8633804-4.1396165,51.0524635,1.6162841c18.809803,21.6800785,23.6225395,49.005825,13.2224693,85.352417C-16.7010117,177.8465118-12.1066751,266.5,28.3307114,368.4848328c3.7562637,10.9020386,11.6720047,47.4024048,9.1772423,79.8782349l46.1881371-42.2636719c8.3722305,7.728241,19.7632904,14.6916504,33.4888916,20.6286926c-28.6880722,20.1931152-30.4931564,59.9533691-5.7760239,83.4807739c-6.3375626-24.7514038,9.4192123-47.4228516,35.8435745-48.2409668C173.7395172,461.566864,191.0515289,488.875946,182.472229,512c15.8942261-13.85849,26.6227875-39.2169189,13.0413666-66.2533264c21.5977631,2.2197266,43.2463837,2.5595703,64.9451141,1.0465393c-11.7488556,25.1863708-4.0604858,48.1784973,11.5923157,63.3954773c-6.849762-22.9681091,9.2174988-48.5505066,35.8435974-48.2409363c29.7170715,0.34552,42.8662415,28.3911743,35.219696,50.0321045c21.7887573-17.739624,29.3475342-57.4841003,0.1609802-82.2531128c14.2086182-5.4338989,26.3040771-11.9143066,35.6423645-19.1595154l39.9290466,36.5278931C412.8933105,364.5,456.8933105,322,455.9481506,245.6686707z M26.398634,313.7030945l-8.5533581-25.5996704l11.3508072,10.4451294l17.6098518-6.218811L26.398634,313.7030945z M30.7860012,332.017334l11.3508091,10.4451294l17.6098518-6.2187805l-20.407299,21.3733215L30.7860012,332.017334z M58.6800079,293.8995361l10.5457764,11.2702942l18.0123749-4.8905029L65.281189,320.0627136L58.6800079,293.8995361z M50.2272797,402.1950989l-8.55336-25.5997009l11.3508072,10.4451599l17.6098404-6.218811L50.2272797,402.1950989z M78.4835358,365.7879944l-8.55336-25.5997009l11.3508072,10.4451599l17.6098557-6.218811L78.4835358,365.7879944z M97.8241959,301.728363l10.545784,11.2702942l18.012352-4.8905029l-21.9569626,19.7834167L97.8241959,301.728363z M398.3186646,296.9586182l-6.6011658,26.163208l-21.9569702-19.7834167l18.0123596,4.8703918l10.5458069-11.2702942L398.3186646,296.9586182z M330.6163635,311.1672363l18.0123596,4.8905029l10.5457764-11.2702942l-6.6011353,26.163208L330.6163635,311.1672363z M378.5352478,368.8470764l-20.4072876-21.3733521l17.6098328,6.218811l11.3507996-10.4451294L378.5352478,368.8470764z M406.7713928,405.2541809l-20.4073181-21.3733215l17.6098633,6.2187805l11.350769-10.4451294L406.7713928,405.2541809z M417.6593018,360.6760864l-20.4072876-21.3733215l17.6098328,6.2187805l11.3507996-10.4451294L417.6593018,360.6760864z M430.6000366,316.7822876l-20.4073181-21.3733215l17.6098633,6.2187805l11.350769-10.4451294L430.6000366,316.7822876z M228.4792175,196.6629486c-23.3657684,0-42.3039093,18.9482269-42.3039093,42.3341064c0,18.6563568,13.1621094,34.7970428,21.4135895,50.5955963l20.9104309,38.8020325l31.9191284-59.9741516c5.1521301-9.7005005,10.3847961-18.052597,10.3847961-29.4436646C270.8032532,215.6110992,251.865097,196.6629486,228.4792175,196.6629486z M265.3290405,270.1916504c-6.1987,11.6929321-36.7291412,68.9702454-36.7291412,68.9702454l0.0000763,0.0201111c0,0-19.9444122-36.8297424-24.0299072-44.6384583c-7.8087158-14.9331665-19.3655701-29.8749695-23.2498016-46.7401886c-34.4941406,27.272171-87.5714111,27.8004608-121.9727173-7.7754059c-48.2650757-49.9129639-24.2078857-133.5648804,43.1990356-150.2120972c63.130188-15.5910034,120.2699738,38.4501038,111.5508575,100.0472717c10.4162292-3.1730804,20.6931-2.8757782,31.1000824,0.8101196c-8.7807007-51.9380493,30.2780609-104.4414978,87.9117279-105.120636c69.357605-0.8172607,113.9612427,74.0812378,80.0938721,134.4936523c-28.673584,51.1478271-95.5189514,59.7038879-136.8956604,24.9655457C274.4156799,254.0079498,269.8774414,261.6382751,265.3290405,270.1916504z M126.8466263,182.3126373c-5.1270676-2.9558105-5.1270676-10.3854675,0-13.3412781s11.5707016,0.7590179,11.5707016,6.670639S131.9736938,185.2684479,126.8466263,182.3126373z M129.4108429,209.1595764c-18.2593536-10.5267334-18.2593613-36.9864197,0-47.5131531c18.2593536-10.5267181,41.207489,2.703125,41.207489,23.7565765S147.6702118,219.6862946,129.4108429,209.1595764z M337.2468567,209.6225739c-18.2593689-10.5267181-18.2593689-36.9864197-0.0000305-47.5131378c18.2593689-10.5267334,41.207489,2.7031097,41.207489,23.7565613S355.5061951,220.149292,337.2468567,209.6225739z M119.2976074,223.551239c-30.1870422-17.4031677-30.1870499-61.1473083-0.0000076-78.5504761s68.1257248,4.4689026,68.1257248,39.275238S149.4846497,240.9543915,119.2976074,223.551239z M334.6626282,182.3326416c-5.1270752-2.9558105-5.1270752-10.3854675,0-13.3412781s11.5707092,0.7590179,11.5707092,6.670639S339.7897034,185.2884521,334.6626282,182.3326416z M329.8506165,225.3622437c-30.1870422-17.4031677-30.1870422-61.1473083-0.0000305-78.5504761c30.1870728-17.4031677,68.1257324,4.4689026,68.1257324,39.275238S360.0376587,242.7653961,329.8506165,225.3622437z"/>
</svg>