<svg version="1.1" xmlns="http://www.w3.org/2000/svg" viewBox="0 0 512 512" width="16px" height="16px" fill="#E57373">
    <path transform="scale(0.9) translate(30 30)"
          d="M87.7830582,447.7258606C33.9935265,401.0979309,0,332.4959412,0,255.9999695C0,159.7601624,53.8011208,76.0124054,133.1454468,32.8062668c12.0219116-3.2350197,25.4839935-6.7637348,39.9618835-10.4044571c24.0961914-6.059454,33.0280457,8.8935986,38.431839,16.9993095c12.4394073,18.6590233,27.7131348,51.2242928,29.2690887,92.197525C242.5815887,178.2972565,132.687561,344.0763855,87.7830582,447.7258606z M512,255.9999695C512,115.5243607,397.3848877,1.6462841,256,1.6462841c-16.1181641,0-31.8827515,1.4958544-47.1749268,4.3265829c30.418396-2.4527621,53.7193298,2.6367874,71.657135,40.6538277c5.5831299,11.8328514,16.0636902,40.5225906,33.6548157,81.5304718c6.1471252,14.3300323,35.453125,77.6600342,67.994873,151.2471619c22.1426086,50.0712585,49.4568481,92.916626,66.2535095,144.3818359C487.9804382,379.0038452,512,320.2926331,512,255.9999695z M390.3655701,472.525116l-11.7389221-6.8260193c-32.7939148-101.5075073-66.3761292-193.9092102-102.1467285-268.7938538c-9.5697327-23.1355438-19.7782593-24.7756195-29.5970001-2.9893036c-34.2461548,75.9790192-80.0781555,184.0390778-110.560318,263.1922607l-30.6744995,4.7557373C147.8659821,492.3551025,199.8135834,510.3537292,256,510.3537292C305.2846069,510.3537292,351.3074951,496.5031433,390.3655701,472.525116z"/>
</svg>