<svg version="1.1" xmlns="http://www.w3.org/2000/svg" xmlns:xlink="http://www.w3.org/1999/xlink" x="0px" y="0px"
     width="16px" height="16px" viewBox="-48 -48 608 608" preserveAspectRatio="xMidYMid meet">
    <path id="file_type_ai.svg" class="i-color" fill="#D52A29"
          d="M228.4079132,50.3201981l10.2600861,20.8250961l-36.3735809,13.672348l50.6557007,5.8160248l15.7830048,25.7968521l10.0138855-24.0145416l43.5810852-4.6014481l-33.3561096-13.2452621l8.2315369-21.1299706l-33.2310486,10.4125481L228.4079132,50.3201981z M298.7278137,124.8027878l69.3701172,27.8137283l77.6016846-30.7686081l-69.9095154-27.4853897L298.7278137,124.8027878z M21.8101215,197.2685242l204.147049,85.7628784c19.3867493,9.4212341,39.14534,8.86203,64.4921722-4.5027771C368.25,241.6990356,465.75,203.9490356,503.8363647,182.6815491c8.536438-6.0505524,8.1611938-4.5730743,8.1611938-34.0284271c0-14.0710297-0.0703735-25.562355-0.2345276-25.562355c-1.9319763,2.8040466-5.7601624,5.8947067-10.3421936,9.0992966C464.75,152.6990356,376.6666565,187.7823639,296.8047485,224.073822c-20.425293,9.9918518-40.8727417,19.0541382-61.7281647,10.9678497c-87.8235626-37.7087097-198.8301392-81.7327728-222.4222565-94.3990479c-4.6928158-2.3984528-8.9210491-5.8605194-12.607378-10.5632172v52.9070282C4.9661202,188.5084534,12.711916,193.1089478,21.8101215,197.2685242z M184.142807,169.1030426l81.3304901,34.1691284l35.9749146-51.7344666L184.142807,169.1030426z M213.2463074,365.0888977c37.2536926,18.6934814,52.4203491,13.3601379,81.0256042-0.9380798c77.3947449-35.5351257,172.5884094-74.6924133,207.4771423-92.5873108c3.5332947-2.58078,6.9596558-5.5829163,10.1780396-9.4041138c0,0-0.070343-52.0627594-0.2345276-52.0627594C502.9659424,228.7567902,390.5,266.6156921,298.3056335,310.8685608c-26.4677124,12.9187317-44.5664368,22.0342102-77.3671722,6.2146912c-83.531189-37.5495605-201.5835266-80.324173-217.2096405-95.4014893L0,218.1874695v52.0393066l4.1978517,3.9633484C15.7833824,287.1846313,117,321.4490356,213.2463074,365.0888977z M294.4595642,449.0694275c20.7313232-9.943512,36.0452881-16.7679749,103.7034302-45.9184265c93.9944153-40.4776306,104.1724548-45.3555908,111.3252258-53.6105652l2.4859009-2.790741c0,0-0.0703735-51.9689636-0.1641846-51.9689636c-0.1641541,0-1.2429199,1.2429199-2.4859009,2.790741c-6.1443176,7.6921387-18.4095764,13.6019897-113.8814697,54.6893921c-62.3111572,26.8756409-81.2601318,35.2713318-101.7569275,45.0506897c-30.0199585,14.5611267-43.1984406,15.8789673-67.6581421,6.2147217L18.2923527,315.605896c-7.3872862-3.7288208-14.9152842-9.0054626-16.6272583-11.7258606l-1.641623-2.4859009v26.5003967c0,30.3699646-0.5393835,28.1185913,7.621798,33.6297607c9.0054483,6.0505066,22.372921,11.9603577,111.2548676,48.849884c62.1469955,25.796875,84.5199356,35.2009888,95.5422134,40.1727295C249.6130066,469.0687866,267.5249023,461.5767822,294.4595642,449.0694275z M119.6154938,146.5650787c-42.2966461-9.3899078-42.2966614-32.9921646-0.0000153-42.3820801s95.4545288,2.4112015,95.4545288,21.19104S161.9121399,155.9550018,119.6154938,146.5650787z"/>
</svg>
