<svg version="1.1" xmlns="http://www.w3.org/2000/svg" xmlns:xlink="http://www.w3.org/1999/xlink" x="0px" y="0px"
     width="16px" height="16px" viewBox="-48 -48 608 608" preserveAspectRatio="xMidYMid meet">
    <path id="file_type_ai.svg" class="i-color" fill="#6AAB20"
          d="M290.5827332,477.715332c9.087616-6.4911194,22.0698853-16.8769531,29.2101135-23.368042c124.4559326,49.4433899,165.0598145-47.1943054,161.8180847-84.0771484c-3.5895996-40.8399353-54.298645-157.390976-226.728302-157.39328c-8.1076813,19.0032654-31.8166199,28.5365295-51.4269409,17.1775208c-24.0652771-13.9395142-24.0652771-48.9773712,0-62.9168243c18.6949158-10.8288269,41.1114502-2.667511,50.1887207,14.5818939c104.6848145-0.5327454,222.0458069,43.9302521,254.8640442,167.6486816C532.177063,438.5942993,432.8744812,542.6099243,290.5827332,477.715332z M354.9891663,351.5217896c17.3190308-2.0410767,32.3324585-16.4964905,32.3324585-36.0848083c0-27.8788757-30.4049072-45.3978577-54.5975037-31.4584045c-21.2230225,12.2284546-23.8233948,40.6903076-7.8106384,56.9048157C267.4715881,447.9807129,139.180481,489.8563232,71.4811935,449.20755C33.9913254,426.6974487-4.669035,346.1156616,85.4626617,271.9462585c-2.596489-8.4384766-6.4911652-22.7190094-8.4384766-33.1048584C-85.0232086,360.9573059,31.6251106,555.2648926,214.3358307,479.5959473C263.7343445,459.1376648,317.2936401,423.3825073,354.9891663,351.5217896z M157.3849945,392.9820862c24.2267151,13.9394531,54.6745605-3.5794373,54.6745605-31.4584045c0-23.2654114-21.2043915-39.2989502-42.3022614-35.8728027C35.7418594,75.3250809,317.8963318-73.329895,354.1958618,163.5441284l32.455719,9.7367249C363.0523987-17.2608185,220.5851746,0.1739823,174.9452362,38.7649002c-34.2060699,28.922966-125.6453094,130.6958313-31.1728516,305.0267029C134.6686707,360.1824341,139.2055969,382.5221252,157.3849945,392.9820862z"/>
</svg>
