<svg version="1.1" viewBox="0 0 300 300" xmlns="http://www.w3.org/2000/svg" width="16px" height="16px">
    <g transform="translate(0,3)">
        <g transform="matrix(1.3602 0 0 1.3602 33.252 15.767)" fill="none">
            <g id="Group">
                <path id="Shape"
                      d="m171.39 55.799c-.975-6.147-4.673-11.642-10.15-14.805l-64.859-37.448c-3.164-1.826-6.766-2.79-10.417-2.79s-7.253.964-10.415 2.788l-64.859 37.448c-6.427 3.713-10.418 10.625-10.418 18.043v74.89c0 7.418 3.991 14.331 10.416 18.042l64.859 37.446c3.165 1.827 6.767 2.791 10.417 2.791s7.252-.964 10.415-2.79l64.859-37.445c5.479-3.166 9.178-8.66 10.152-14.808zm-16.516 85.147-64.857 37.444c-1.254.724-2.654 1.087-4.054 1.087s-2.8-.363-4.054-1.087l-64.857-37.444c-2.508-1.449-4.053-4.125-4.053-7.021v-74.89c0-2.896 1.545-5.572 4.053-7.021l64.857-37.446c1.254-.725 2.654-1.086 4.054-1.086s2.8.361 4.054 1.086l64.857 37.446c2.508 1.448 4.053 4.124 4.053 7.021v74.89c0 2.896-1.545 5.572-4.053 7.021z"
                      fill="#83e8c2"/>
                <path d="m158.93 59.035c0-2.896-1.545-5.572-4.053-7.021l-64.857-37.446c-1.254-.725-2.654-1.086-4.054-1.086s-2.8.361-4.054 1.086l-64.857 37.446c-2.508 1.448-4.053 4.124-4.053 7.021v74.89c0 2.896 1.545 5.572 4.053 7.021l64.857 37.444c1.254.724 2.654 1.087 4.054 1.087s2.8-.363 4.054-1.087l64.857-37.444c2.508-1.449 4.053-4.125 4.053-7.021zm-46.766 31.681c.119-.069.242-.118.365-.149.044-.012.088-.01.131-.018.076-.012.152-.029.228-.029.005 0 .009.001.015.001.02.001.038.005.059.006.093.005.184.019.273.04.033.009.066.02.1.03.077.025.15.057.223.095.028.014.057.027.084.043.094.057.184.122.263.199.007.008.013.017.021.024.07.071.133.15.188.235.018.029.033.059.05.09.04.072.072.148.099.229.012.033.023.065.032.099.028.115.049.234.049.361v16.209l-3.278 1.893c-.325.188-.556.487-.678.83-.058.164-.098.334-.098.514v3.785l-14.038 8.104c-.003.002-.007.002-.01.004-.116.065-.235.114-.354.146-.045.012-.09.011-.135.018-.074.012-.15.029-.225.029-.004 0-.009-.001-.014-.001-.02-.001-.039-.005-.059-.006-.093-.005-.184-.019-.273-.041-.034-.008-.066-.019-.1-.03-.077-.024-.151-.056-.223-.094-.029-.015-.057-.027-.084-.044-.094-.057-.184-.121-.263-.198-.009-.008-.015-.019-.023-.027-.069-.07-.13-.148-.185-.232-.019-.029-.034-.06-.051-.09-.039-.072-.071-.148-.098-.229-.012-.034-.023-.066-.033-.101-.028-.114-.048-.232-.048-.358 0 0-.001-.001-.001-.002v-20.053c0-.389.156-.755.424-1.023.088-.089.189-.168.303-.232zm-26.924-59.347c.225-.13.475-.195.726-.195s.501.065.726.195l45.741 26.41c.967.558.967 1.954 0 2.512l-17.366 10.027c-.225.129-.475.193-.726.193s-.501-.064-.726-.193l-15.49-8.943 1.727-.996c1.035-.598 1.035-2.091 0-2.688l-13.111-7.57c-.239-.139-.508-.207-.775-.207s-.535.068-.775.207l-3.278 1.893-14.038-8.104c-.967-.559-.967-1.954 0-2.513zm-27.65 16.189c.251 0 .501.065.726.194l15.489 8.942-1.727.997c-1.034.597-1.034 2.09 0 2.688l1.727.996-15.488 8.943c-.225.129-.475.193-.726.193s-.501-.064-.726-.193l-17.366-10.027c-.968-.558-.968-1.954 0-2.512l17.366-10.027c.225-.129.475-.194.725-.194zm-9.56 92.328c-.241 0-.489-.062-.724-.196l-17.365-10.026c-.449-.259-.726-.738-.726-1.256v-52.818c0-.847.694-1.453 1.452-1.453.242 0 .49.062.724.197l17.366 10.025c.449.26.726.738.726 1.257v17.886l-1.727-.997c-.25-.145-.515-.21-.773-.21-.811-.001-1.554.647-1.554 1.554v15.139c0 .555.295 1.067.775 1.344l3.278 1.894v16.209c.001.845-.694 1.451-1.452 1.451zm29.828 14.929c0 .847-.694 1.453-1.452 1.453-.242 0-.49-.062-.725-.196l-17.365-10.026c-.449-.26-.726-.738-.726-1.257v-17.885l1.726.996c.25.145.515.211.773.211.811 0 1.554-.648 1.554-1.555v-1.993l15.489 8.942c.449.26.726.738.726 1.257zm0-32.768c0 .127-.02.246-.049.36-.009.035-.021.067-.032.101-.026.08-.059.157-.099.229-.017.03-.032.061-.05.09-.056.085-.117.164-.188.235-.008.008-.014.018-.021.025-.08.076-.169.142-.264.199-.026.016-.055.028-.082.043-.072.037-.147.069-.225.095-.033.011-.064.021-.099.029-.091.023-.183.037-.278.041-.018.001-.036.006-.055.006-.005 0-.01.001-.015.001-.077 0-.155-.018-.233-.03-.043-.007-.084-.005-.125-.017-.124-.032-.247-.081-.366-.149l-14.035-8.104v-3.784c0-.277-.074-.544-.208-.775-.134-.232-.328-.43-.568-.568l-3.276-1.892v-16.206c0-.127.02-.246.049-.361.009-.034.021-.066.032-.1.026-.08.059-.156.099-.229.017-.03.032-.062.051-.091.054-.084.116-.163.187-.234.008-.008.014-.018.021-.025.079-.076.168-.142.263-.199.027-.016.056-.029.084-.043.072-.038.146-.069.224-.095.033-.011.064-.021.099-.03.091-.022.184-.036.278-.041.019 0 .036-.005.055-.005.005 0 .01-.001.015-.001.078 0 .157.018.236.03.04.007.081.005.122.017.124.031.246.08.366.149l17.361 10.023c.226.13.407.314.532.532.125.217.194.467.194.727zm-9.984-45.373c-.241-.14-.423-.332-.544-.55-.242-.437-.242-.978 0-1.413.121-.219.303-.41.544-.55l14.038-8.104 3.277 1.892c.48.276 1.071.276 1.551 0l3.278-1.893 14.038 8.105c.968.558.968 1.954 0 2.513l-17.365 10.026c-.225.13-.475.194-.726.194s-.501-.064-.726-.194zm74.842 51.733c0 .518-.276.997-.726 1.256l-45.741 26.409c-.233.135-.481.196-.724.196-.758 0-1.453-.606-1.453-1.453v-20.053c0-.519.277-.997.727-1.257l15.488-8.941v1.992c0 .906.743 1.555 1.553 1.555.26 0 .523-.066.774-.21l13.11-7.57c.48-.276.776-.789.776-1.344v-3.784l14.038-8.105c.234-.135.482-.196.724-.196.758 0 1.453.606 1.453 1.453v20.052zm0-32.764c0 .519-.276.997-.726 1.256l-15.489 8.943v-1.993c0-.906-.744-1.554-1.554-1.554-.259-.001-.523.065-.773.21l-1.727.996v-17.885c0-.519.277-.997.727-1.257l17.365-10.025c.234-.135.482-.197.724-.197.758 0 1.453.606 1.453 1.453z"
                      fill="#111d5a"/>
                <g fill="#83e8c2">
                    <path d="m59.402 90.568c.123.031.247.08.366.149-.12-.069-.242-.117-.366-.149z"/>
                    <path d="m94.485 123.06c-.069-.07-.13-.148-.185-.232.055.084.116.162.185.232z"/>
                    <path d="m94.771 123.29c-.094-.057-.184-.121-.263-.198.08.077.17.141.263.198z"/>
                    <path d="m77.775 122.51c-.026.08-.059.157-.099.229.041-.072.073-.149.099-.229z"/>
                    <path d="m77.072 123.33c-.072.037-.147.069-.225.095.078-.026.153-.058.225-.095z"/>
                    <path d="m77.418 123.09c-.079.076-.169.142-.264.199.095-.058.184-.123.264-.199z"/>
                    <path d="m77.856 122.05c0 .127-.02.246-.049.36.03-.114.049-.233.049-.36z"/>
                    <path d="m76.749 123.45c-.091.022-.184.037-.278.041.095-.004.187-.017.278-.041z"/>
                    <path d="m94.119 122.41c-.028-.114-.048-.232-.048-.358 0 .126.02.244.048.358z"/>
                    <path d="m77.131 133.51-15.489-8.942v1.993c0 .906-.743 1.555-1.554 1.555-.259 0-.523-.066-.773-.211l-1.726-.996v17.885c0 .519.276.997.726 1.257l17.365 10.026c.234.135.482.196.725.196.758 0 1.452-.606 1.452-1.453v-20.053c-.001-.519-.277-.997-.726-1.257z"/>
                    <path d="m94.25 122.74c-.039-.072-.071-.148-.098-.229.027.081.059.157.098.229z"/>
                    <path d="m110.28 111.42c0-.18.04-.35.098-.514-.058.164-.098.334-.098.514z"/>
                    <path d="m94.494 100.98c.088-.089.189-.168.303-.232l17.365-10.026-17.365 10.026c-.113.064-.215.143-.303.232z"/>
                    <path d="m77.627 122.83c-.055.085-.117.164-.188.235.071-.071.132-.15.188-.235z"/>
                    <path d="m58.027 90.936c.079-.076.168-.142.263-.199-.095.057-.184.122-.263.199z"/>
                    <path d="m58.374 90.693c.072-.038.147-.07.224-.095-.077.026-.152.057-.224.095z"/>
                    <path d="m59.044 90.521c-.005 0-.01.001-.015.001.083-.001.167.015.251.029-.079-.012-.158-.03-.236-.03z"/>
                    <path d="m57.819 91.195c.054-.084.116-.163.187-.234-.07.071-.133.15-.187.234z"/>
                    <path d="m58.696 90.568c.091-.021.184-.036.278-.041-.094.005-.187.019-.278.041z"/>
                    <path d="m57.589 91.977c0-.127.02-.246.049-.361-.03.114-.049.234-.049.361z"/>
                    <path d="m76.043 123.46c-.124-.032-.247-.081-.366-.149.119.068.242.117.366.149z"/>
                    <path d="m57.67 91.516c.026-.08.059-.156.099-.229-.04.072-.073.149-.099.229z"/>
                    <polygon points="75.677 123.31 61.642 115.2"/>
                    <path d="m76.401 123.5c.005 0 .01-.001.015-.001-.082.001-.166-.016-.248-.029.078.012.156.03.233.03z"/>
                    <path d="m112.16 90.716c.119-.069.242-.118.365-.149-.123.031-.246.079-.365.149z"/>
                    <path d="m77.662 101.27c-.125-.218-.307-.402-.532-.532.225.13.407.315.532.532z"/>
                    <path d="m113.64 90.734c.094.057.184.122.263.199-.08-.077-.17-.142-.263-.199z"/>
                    <path d="m96.237 123.31c-.116.065-.235.114-.354.146.119-.032.238-.081.354-.146z"/>
                    <path d="m113.33 90.597c.076.025.15.057.223.095-.073-.039-.146-.07-.223-.095z"/>
                    <path d="m112.89 90.52c-.075 0-.151.018-.228.029.081-.014.162-.029.242-.028-.005 0-.009-.001-.014-.001z"/>
                    <path d="m141.26 74.137c-.241 0-.489.062-.724.197l-17.365 10.025c-.449.26-.727.738-.727 1.257v17.885l1.727-.996c.25-.145.515-.211.773-.21.81 0 1.554.647 1.554 1.554v1.993l15.489-8.943c.449-.259.726-.737.726-1.256v-20.053c0-.847-.695-1.453-1.453-1.453z"/>
                    <path d="m112.96 90.526c.092.005.184.019.273.04-.089-.021-.18-.035-.273-.04z"/>
                    <path d="m95.523 123.5c.074 0 .15-.018.225-.029-.08.013-.159.028-.238.028.005 0 .01.001.013.001z"/>
                    <path d="m95.451 123.5c-.093-.005-.184-.019-.273-.041.09.023.18.036.273.041z"/>
                    <path d="m85.238 86.7c.225.13.475.194.726.194-.251.001-.501-.064-.726-.194z"/>
                    <path d="m95.078 123.43c-.077-.024-.151-.057-.223-.094.072.038.146.069.223.094z"/>
                    <path d="m141.26 106.9c-.241 0-.489.062-.724.196l-14.038 8.105v3.784c0 .555-.296 1.067-.776 1.344l-13.11 7.57c-.251.144-.515.21-.774.21-.81 0-1.553-.648-1.553-1.555v-1.992l-15.488 8.941c-.449.26-.727.738-.727 1.257v20.053c0 .847.695 1.453 1.453 1.453.242 0 .49-.062.724-.196l45.741-26.409c.449-.259.726-.738.726-1.256v-20.053c-.001-.845-.696-1.452-1.454-1.452z"/>
                    <path d="m67.871 41.396c-.967.559-.967 1.954 0 2.513l14.038 8.104 3.278-1.893c.24-.139.508-.207.775-.207s.536.068.775.207l13.111 7.57c1.035.597 1.035 2.09 0 2.688l-1.727.996 15.49 8.943c.225.129.475.193.726.193s.501-.064.726-.193l17.366-10.027c.967-.558.967-1.954 0-2.512l-45.741-26.41c-.225-.13-.475-.195-.726-.195s-.501.065-.726.195z"/>
                    <path d="m39.497 57.779c-.968.558-.968 1.954 0 2.512l17.366 10.027c.225.129.475.193.726.193s.501-.064.726-.193l15.488-8.943-1.727-.996c-1.034-.598-1.034-2.091 0-2.688l1.727-.997-15.489-8.942c-.225-.129-.475-.194-.726-.194-.25 0-.5.065-.725.194z"/>
                    <path d="m49.481 138.43v-16.209l-3.278-1.894c-.48-.276-.775-.789-.775-1.344v-15.139c0-.906.743-1.555 1.554-1.554.259 0 .523.065.773.21l1.727.997v-17.886c0-.519-.276-.997-.726-1.257l-17.366-10.024c-.233-.135-.481-.197-.724-.197-.758 0-1.452.606-1.452 1.453v52.817c0 .518.276.997.726 1.256l17.365 10.026c.234.135.482.196.724.196.757.001 1.452-.605 1.452-1.451z"/>
                    <path d="m114.34 108.18-3.278 1.893 3.278-1.893v-16.209c0-.127-.021-.246-.049-.361.028.115.049.234.049.361z"/>
                    <path d="m114.11 91.193c-.055-.085-.117-.164-.188-.235.071.071.134.15.188.235z"/>
                    <path d="m114.16 91.283c.04.072.072.148.099.229-.027-.08-.059-.157-.099-.229z"/>
                </g>
                <g fill="#de5941">
                    <path d="m94.494 100.98c-.268.269-.424.635-.424 1.023v20.053c0 .001.001.002.001.002 0 .126.02.244.048.358.01.034.021.066.033.101.026.08.059.156.098.229.017.03.032.061.051.09.055.084.115.162.185.232.009.009.015.02.023.027.079.077.169.142.263.198.027.017.055.029.084.044.071.037.146.069.223.094.033.012.065.022.1.03.09.022.181.036.273.041.02.001.039.005.059.006.079 0 .158-.016.238-.028.045-.007.09-.006.135-.018.119-.031.238-.08.354-.146.003-.002.007-.002.01-.004l14.038-8.104v-3.785c0-.18.04-.35.098-.514.122-.343.353-.643.678-.83l3.278-1.893v-16.209c0-.127-.021-.246-.049-.361-.009-.033-.021-.065-.032-.099-.026-.081-.059-.157-.099-.229-.017-.031-.032-.061-.05-.09-.055-.085-.117-.164-.188-.235-.008-.008-.014-.017-.021-.024-.079-.077-.169-.143-.263-.199-.027-.016-.056-.029-.084-.043-.072-.038-.146-.069-.223-.095-.033-.011-.066-.021-.1-.03-.09-.021-.182-.035-.273-.04-.021-.001-.039-.005-.059-.006-.08-.001-.161.015-.242.028-.043.008-.087.006-.131.018-.123.031-.246.08-.365.149l-17.365 10.026c-.112.065-.214.144-.302.233z"/>
                    <path d="m77.13 100.74-17.361-10.023c-.119-.069-.243-.118-.366-.149-.041-.012-.082-.01-.122-.017-.084-.015-.168-.03-.251-.029-.019 0-.036.005-.055.005-.095.005-.188.02-.278.041-.034.009-.065.02-.099.03-.076.024-.151.057-.224.095-.028.014-.057.027-.084.043-.095.058-.184.123-.263.199-.008.008-.014.018-.021.025-.07.071-.133.15-.187.234-.019.029-.034.061-.051.091-.04.073-.072.149-.099.229-.012.033-.023.065-.032.1-.029.115-.049.234-.049.361v16.206l3.276 1.892c.24.139.435.336.568.568.134.231.208.498.208.775v3.784l14.035 8.104c.119.068.242.117.366.149.041.012.082.01.125.017.082.014.166.03.248.029.019 0 .037-.005.055-.006.095-.004.188-.019.278-.041.034-.008.065-.019.099-.029.077-.025.152-.058.225-.095.027-.015.056-.027.082-.043.095-.058.185-.123.264-.199.008-.008.014-.018.021-.025.07-.071.133-.15.188-.235.018-.029.033-.06.05-.09.04-.072.072-.149.099-.229.012-.033.023-.065.032-.101.029-.114.049-.233.049-.36v-20.047c0-.26-.069-.51-.194-.727s-.307-.402-.532-.532z"/>
                    <path d="m86.689 86.7 17.365-10.026c.968-.559.968-1.955 0-2.513l-14.038-8.105-3.278 1.893c-.479.276-1.07.276-1.551 0l-3.277-1.892-14.038 8.104c-.241.14-.423.331-.544.55-.242.436-.242.977 0 1.413.121.218.303.41.544.55l17.366 10.026c.225.13.475.194.726.194s.501-.064.725-.194z"/>
                </g>
            </g>
        </g>
    </g>
</svg>
