<svg width="16px" height="16px" viewBox="0 0 24 24" fill="none" xmlns="http://www.w3.org/2000/svg">
    <path d="M3 3.16527C3 3.07399 3.07369 3 3.16459 3H15.397C18.6401 3 21.2692 5.63998 21.2692 8.89655V10.0416C21.2692 10.1329 21.1955 10.2069 21.1046 10.2069H17.519C17.4281 10.2069 17.3544 10.1329 17.3544 10.0416V8.89655C17.3544 7.81103 16.478 6.93103 15.397 6.93103H7.07942C6.98852 6.93103 6.91483 7.00503 6.91483 7.0963V20.5244C6.91483 20.6157 6.84093 20.69 6.75011 20.6862C4.6644 20.5995 3 18.8743 3 16.7586V3.16527Z"
          fill="#ED1846"/>
    <path d="M10.3418 10.8621C10.2509 10.8621 10.1768 10.9363 10.1806 11.0275C10.2669 13.1218 11.9851 14.7931 14.092 14.7931H16.7019C17.0623 14.7931 17.3544 15.0864 17.3544 15.4483V20.5244C17.3544 20.6157 17.4283 20.69 17.5191 20.6862C19.6048 20.5995 21.2692 18.8743 21.2692 16.7586V15.4483C21.2692 12.9154 19.2244 10.8621 16.7019 10.8621H10.3418Z"
          fill="#ED1846"/>
</svg>