<svg version="1.1" xmlns="http://www.w3.org/2000/svg" xmlns:xlink="http://www.w3.org/1999/xlink" x="0px" y="0px"
     width="16px" height="16px" viewBox="-48 -48 608 608" preserveAspectRatio="xMidYMid meet">
    <path id="file_type_ai.svg" class="i-color" fill="#FFCB6B"
          d="M177.1687469,344.1768799l46.5603485-48.500824c2.2548676-2.3477173,5.4802094-3.504425,8.7176666-3.0996704c3.2319031,0.3966675,6.0878296,2.29422,7.7063141,5.1203918l56.7208557,99.0031128c4.4683533,6.9543457,8.1181335,9.4625549,9.8955688,9.4918518c1.8652649-0.0020447,5.8329773-2.5193176,10.8463745-9.7865601l26.7414551-43.198761c1.8844299-3.0431519,5.209198-4.8952942,8.7883301-4.8952942h145.8539124c10.837738-72.3942871,0.9122009-156.0681915,0.9122009-156.0681915s-5.601593-94.6366043-91.7649536-151.1110077C355.458313,88.6193619,302.9613953,93.0409622,253.5162354,93.0414658c-0.4108124,0-0.8140411-0.0005035-1.2248383-0.0010071c-43.4124146-0.0619507-97.161087-0.1474304-147.6242371-55.3487358C49.039463,72.5147705,13.3879967,130.3736725,7.9352264,206.7128296v132.2962341c0,0,0.0430231,1.8554688,0.3360472,5.1678162H177.1687469z M331.6830444,190.1758118h73.8917847v50.6446381h-73.8917847V190.1758118z M105.0902557,190.1758118h204.4599762v50.6446381H105.0902557V190.1758118z M133.1597595,22.63344C166.8100739,7.7989178,205.8840942,0,248.7556763,0c54.3482361,0,96.9620056,9.8759508,130.3692017,25.1507339c-42.0007935,33.9387436-82.5563965,36.9210892-126.7890778,36.8827972C205.9196625,61.9676094,169.4269714,58.8934746,133.1597595,22.63344z M495.2314758,368.9824219c1.7625122,16.2787476-9.7915649,48.3546753-24.1947937,63.5581055c-55.8124695,58.9131775-97.0588074,83.9667969-270.6975708,78.7989502C65.4039612,507.3235168,20.9661846,411.063324,11.3885565,364.8481445h170.1854553c2.8145447,0,5.506958-1.1476135,7.4559937-3.1773987l40.0501099-41.7190552l49.9830322,87.2423096c0.0807495,0.1412964,0.1645203,0.2796021,0.2513123,0.415863c8.0323181,12.6086731,17.1547546,19.0856018,27.1128845,19.2501221c0.1292114,0.0020142,0.2573853,0.0030212,0.3865967,0.0030212c9.9530945,0,19.3682251-6.3790283,27.986969-18.9674988c0.0898438-0.1312256,0.1766357-0.2634583,0.2604065-0.3987122l23.8416138-38.5143738H495.2314758z"/>
</svg>
