<svg version="1.1" xmlns="http://www.w3.org/2000/svg" xmlns:xlink="http://www.w3.org/1999/xlink" x="0px" y="0px"
     width="16px" height="16px" viewBox="-48 -48 608 608" preserveAspectRatio="xMidYMid meet">
    <path id="file_type_ai.svg" class="i-color" fill="#D52A29"
          d="M322.3841858,145.5756683l68.548645,70.2840576l-17.3540955,31.6712189L254.2693634,396.7760925L134.9600067,251.0017548l-17.3540802-35.1420288l68.5486603-70.2840576H322.3841858z M300.2753296,36.0098267l-25.675415,33.9448318C398.0108337,82.0305328,472.09729,207.9121399,433.0419312,318.339447l19.8748169,39.5286865l39.4950256-2.9891663C557.3461304,200.6106415,454.3111572,17.9335766,279.6802673,1.7554766L300.2753296,36.0098267z M17.5861988,348.6918945C-48.5365944,180.315567,80.158432-5.4326692,263.9243469,0.7554546l20.6960144,34.4221573l-25.6242065,33.8766632C124.322998,66.6426926,31.0979595,205.1722717,83.364296,328.7980347l-42.7707596-11.2215271L17.5861988,348.6918945z M486.2941284,368.3666382l-41.0731506,3.1086121l-18.6675415-37.1272278c-54.1093445,124.8833008-250.5884705,162.1810303-335.9082642,9.7871704l-44.8388557-11.7642212l-22.3011608,30.1600037C128.0107422,576.4527588,405.0795898,543.1512451,486.2941284,368.3666382z"/>
</svg>
