<svg version="1.1" xmlns="http://www.w3.org/2000/svg" xmlns:xlink="http://www.w3.org/1999/xlink" x="0px" y="0px"
     width="16px" height="16px" viewBox="-48 -48 608 608" fill="#AB7967">
    <path
            class="i-color"
            d="M142.1862793,244.0549316c-3.2392578-2.8183594-8.0996094-4.2294922-14.5800781-4.2294922H96.6462402v36.1796875h30.9599609c6.4804688,0,11.3408203-1.4404297,14.5800781-4.3203125c3.2402344-2.8798828,4.8603516-7.5595703,4.8603516-14.0400391C147.0466309,251.4064941,145.4265137,246.8762207,142.1862793,244.0549316z"/>
    <path
            class="i-color"
            d="M0,96v320h512V96H0z M150.8269043,346.3850098c-1.5615234-4.078125-2.5205078-8.9375-2.8798828-14.5800781c-0.3603516-5.6386719-0.9003906-11.0390625-1.6201172-16.1992188c-0.9619141-6.7207031-3.0009766-11.6386719-6.1201172-14.7597656c-3.1220703-3.1191406-8.2207031-4.6796875-15.2998047-4.6796875H96.6462402v50.21875H68.3864746V217.8654785h69.2998047c5.7607422,0,10.9492188,0.9306641,15.5703125,2.7890625c4.6181641,1.8623047,8.578125,4.4101562,11.8798828,7.6503906c3.2988281,3.2402344,5.8193359,6.9921875,7.5605469,11.25c1.7373047,4.2607422,2.609375,8.8505859,2.609375,13.7705078c0,7.5595703-1.5917969,14.1015625-4.7695312,19.6191406c-3.1816406,5.5214844-8.3701172,9.7207031-15.5703125,12.6005859v0.359375c3.4794922,0.9628906,6.359375,2.4316406,8.6396484,4.4101562c2.2783203,1.9804688,4.140625,4.3203125,5.5800781,7.0214844c1.4404297,2.6992188,2.4892578,5.6699219,3.1503906,8.9082031c0.6582031,3.2402344,1.1083984,6.4804688,1.3496094,9.7207031c0.1181641,2.0410156,0.2392578,4.4414062,0.3603516,7.1992188c0.1181641,2.7617188,0.3291016,5.5800781,0.6298828,8.4609375c0.2978516,2.8789062,0.7792969,5.6113281,1.4404297,8.1894531c0.6582031,2.5820312,1.6474609,4.7695312,2.9697266,6.5703125H150.8269043z M335.4460449,316.529541c-3.1269531,6.9082031-7.7714844,12.8730469-13.9414062,17.8886719c-6.1679688,5.0195312-13.8164062,8.9257812-22.9453125,11.7207031c-9.1308594,2.7949219-19.7011719,4.1933594-31.7060547,4.1933594c-9.7070312,0-19.1220703-1.1953125-28.2509766-3.578125c-9.1298828-2.3808594-17.1904297-6.125-24.1806641-11.2265625c-6.9931641-5.0957031-12.5449219-11.5957031-16.6542969-19.4921875c-4.1142578-7.8945312-6.0878906-17.2695312-5.921875-28.1269531h37.5039062c0,5.921875,1.0683594,10.9414062,3.2080078,15.0507812c2.1357422,4.1132812,4.9726562,7.4453125,8.5117188,9.9921875c3.5361328,2.5527344,7.6875,4.4414062,12.4609375,5.6757812c4.7685547,1.234375,9.703125,1.8496094,14.8037109,1.8496094c3.4550781,0,7.1552734-0.2851562,11.1025391-0.8632812c3.9472656-0.5742188,7.6484375-1.6835938,11.1035156-3.3300781c3.4550781-1.6425781,6.3300781-3.90625,8.6347656-6.7851562c2.3027344-2.8769531,3.4550781-6.5390625,3.4550781-10.9804688c0-4.7675781-1.5234375-8.6347656-4.5644531-11.5957031c-3.0449219-2.9609375-7.03125-5.4296875-11.9667969-7.4033203s-10.5292969-3.7011719-16.7773438-5.1816406c-6.2529297-1.4804688-12.5839844-3.1220703-18.9990234-4.9345703c-6.5810547-1.6425781-12.9960938-3.6582031-19.2451172-6.0449219c-6.2539062-2.3828125-11.84375-5.4667969-16.7783203-9.2529297c-4.9345703-3.7822266-8.9248047-8.5126953-11.9667969-14.1875c-3.0458984-5.6748047-4.5644531-12.5410156-4.5644531-20.6025391c0-9.0439453,1.9316406-16.9013672,5.7978516-23.5634766c3.8632812-6.6621094,8.9208984-12.2138672,15.1748047-16.6542969c6.2490234-4.4414062,13.3232422-7.7304688,21.2197266-9.8701172c7.8955078-2.1357422,15.7910156-3.2070312,23.6865234-3.2070312c9.2099609,0,18.0498047,1.0292969,26.5224609,3.0839844c8.4707031,2.0585938,15.9960938,5.3896484,22.578125,9.9931641c6.5761719,4.6064453,11.8007812,10.4863281,15.6679688,17.6416016c3.8613281,7.1552734,5.796875,15.8330078,5.796875,26.0302734h-37.5039062c-0.3320312-5.2617188-1.4414062-9.6220703-3.3300781-13.0771484c-1.8925781-3.4541016-4.4042969-6.1679688-7.5253906-8.1416016c-3.1269531-1.9746094-6.7050781-3.3701172-10.734375-4.1953125c-4.03125-0.8203125-8.4296875-1.2333984-13.1992188-1.2333984c-3.1259766,0-6.2529297,0.3320312-9.3759766,0.9873047c-3.1269531,0.6591797-5.9638672,1.8115234-8.5126953,3.4541016c-2.5517578,1.6464844-4.6494141,3.7011719-6.2910156,6.1679688c-1.6464844,2.4677734-2.4677734,5.5947266-2.4677734,9.3769531c0,3.4541016,0.6552734,6.2529297,1.9736328,8.3886719c1.3144531,2.1396484,3.9052734,4.1132812,7.7724609,5.921875c3.8632812,1.8115234,9.2099609,3.6201172,16.0380859,5.4277344c6.8242188,1.8125,15.7480469,4.1142578,26.7695312,6.9091797c3.2890625,0.6591797,7.8535156,1.8505859,13.6953125,3.5771484c5.8359375,1.7275391,11.6347656,4.484375,17.3945312,8.2666016c5.7558594,3.7851562,10.7324219,8.84375,14.9277344,15.1738281c4.1933594,6.3339844,6.2910156,14.4345703,6.2910156,24.3037109C340.1335449,302.138916,338.5690918,309.6213379,335.4460449,316.529541z M453.6940918,241.6252441h-38.5214844v104.7597656h-28.2597656V241.6252441h-38.5195312v-23.7597656h105.3007812V241.6252441z"/>
</svg>
