<svg enable-background="new 0 0 465 750" version="1.1" viewBox="0 0 300 300" xml:space="preserve"
     xmlns="http://www.w3.org/2000/svg" width="16px" height="16px">
    <g transform="matrix(1.0943 0 0 1.0943 -16.991 -8.4865)"><g><g transform="matrix(.43318 0 0 .43318 52.078 -17.73)"><polygon points="481.54 410.67 -17.453 511.76 -17.453 636.48 481.54 535.39" style="fill:#295892"/></g><g
            transform="matrix(.43318 0 0 .43318 52.078 -17.73)"><polygon points="481.54 212.46 -17.453 313.56 -17.453 438.27 481.54 337.18" style="fill:#295892"/></g><g
            transform="matrix(.43318 0 0 .43318 52.078 -17.73)"><polygon points="481.54 336.56 -17.453 238.75 -17.453 114.03 481.54 211.84" style="fill:#a1e0ff"/></g><g
            transform="matrix(.43318 0 0 .43318 52.078 -17.73)"><polygon points="481.54 534.77 -17.453 436.96 -17.453 312.24 481.54 410.05" style="fill:#a1e0ff"/></g></g></g></svg>
