<svg version="1.1" xmlns="http://www.w3.org/2000/svg" viewBox="0 0 512 512" width="16px" height="16px" fill="#90A4AE">
    <path transform="scale(0.9) translate(30 30)"
          d="M217.456192,512L0,396.1294861V109.7555695l22.7187653,12.1055908v253.8715363l172.0186615,91.6593628l0.0005646-221.3689117L63.2353783,175.9526062v158.4450684l92.121933,49.086731v-95.8002319l-50.6291275-26.9775085v33.1538391l28.4472733,15.1579895v32.5023804l-51.1660385-27.2635803v-98.1585693l96.066658,51.1886597v160.8049622L40.516613,354.7944336V131.3446503l176.9401398,94.281723L217.456192,512z M234.4448395,185.4579773l218.5460052-61.6528549L283.6829529,38.2189064L113.7776184,86.1499863l121.8419189,61.5918655l118.6558533-33.4733658l-74.3747253-37.5969086l-63.1972656,17.8282471l24.6270447,12.4491196l35.1363831-9.9121323l25.1206665,12.6986542l-62.5341187,17.6411591l-72.5878296-36.6936111L280.249115,58.584137l120.0538025,60.6879654l-162.4242401,45.8206406L70.147934,80.3032455l212.4673004-59.938015l192.3584595,97.2384338l28.0608826-7.9160995L286.0490723,0L17.4600124,75.7702255L234.4448395,185.4579773z M511.9993591,151.1255188l-256.2652283,74.5005798V512l26.7733459-7.7834473V250.3450012l202.7185364-58.9336548l0.0006409,221.368988l-154.9716492,45.0528259V299.3881226l108.5627747-31.5610046v95.8002319l-59.6648254,17.3455505v-33.1538391l33.5242004-9.7460327v-32.5023499l-60.2975464,17.52948v98.1585693l113.2115173-32.9124756V227.5413055L303.4816589,274.66922V498.118988L512,437.4992371L511.9993591,151.1255188z"/>
</svg>