<svg version="1.1" xmlns="http://www.w3.org/2000/svg" viewBox="0 0 350 512" width="16px" height="16px" fill="#BA68C8">
    <path transform="scale(0.9) translate(30 30)"
          d="M336.5694275,404.0977478h12.8625183c0,37.6347961-6.0739441,65.0271912-18.2218933,82.1772461c-12.1479492,17.1500244-27.5115356,25.7250671-46.0907288,25.7250671c-15.0062866,0-29.4170532-5.5975952-43.2323914-16.7927551c-13.8153076-11.1951599-26.201416-41.565033-37.1583862-91.1095581l-30.7271576-138.6294556L67.5282593,506.9979553H0l152.9211426-329.423584c-8.0986328-42.6368561-17.864624-74.1977463-29.2979736-94.6824875c-11.4333649-20.4847336-25.605957-30.7271423-42.5177917-30.7271423c-13.5771179,0-25.3677673,5.1211624-35.3719559,15.3635712s-15.7208633,26.3205719-17.150032,48.2344742H15.7208633c0.7145844-35.0146561,7.741333-63.0025291,21.0802536-83.9637146S66.8136749,0.2382736,86.822052,0.0000496c12.8625183,0,25.0104675,5.2403173,36.4438171,15.7208652c11.4333649,10.480547,21.4375458,28.5833912,30.012558,54.3084412c8.5750275,25.7250519,21.7948456,78.8425293,39.6594696,159.352417l25.3677673,113.2616577c10.2423706,46.924408,20.9611511,78.2470398,32.156311,93.9678955c11.1951294,15.7208862,24.7722473,23.7004089,40.7313232,23.9385986C317.8711243,460.5499268,332.996521,441.7325439,336.5694275,404.0977478z"/>
</svg>