<svg xmlns="http://www.w3.org/2000/svg" width="16px" height="16px" viewBox="0 0 300 300">
    <path d="m93.656 252.93c-30.929-17.946-57.303-33.656-58.608-34.91-2.1967-2.1114-2.3716-7.168-2.3523-68.012.01085-36.152.46908-66.413 1.017-67.248.83936-1.2778 114.93-68.32 116.26-68.32 1.3351 0 115.42 67.042 116.26 68.32 1.6977 2.5845 1.2528 132.52-.46088 134.58-1.178 1.4194-50.022 30.2-110.42 65.063l-5.4657 3.155zm74.879 11.529c9.9284-5.689 19.12-11.554 20.425-13.033 5.1669-5.8551 2.2202-22.428-7.9214-44.553-3.4338-7.4912-5.8896-13.974-5.4572-14.406 2.1654-2.1654 29.999 21.345 35.714 30.166 8.7948 13.576 5.9415 13.273 24.626 2.6105 9.0875-5.186 17.723-10.521 19.191-11.855 2.4398-2.2186 2.6678-4.2714 2.6678-24.017 0-24.644.38157-23.74-12.846-30.433-7.3317-3.7095-27.076-7.4522-39.621-7.5104-3.1258-.0145-6.0443-.6106-6.4856-1.3247-1.0173-1.6461 3.3496-3.8642 20.305-10.314 10.685-4.0643 16.148-5.321 25.765-5.9264l12.204-.76835v-46.043l-16.926-9.8627c-9.3094-5.4245-18.078-9.8627-19.485-9.8627-4.5869 0-18.396 9.5365-24.283 16.77-3.1638 3.8874-8.4984 11.144-11.855 16.125-3.3562 4.9813-6.6475 9.0762-7.314 9.0998-1.6986.0602.0553-16.855 3.2824-31.654 1.6763-7.6876 4.2349-14.848 6.7551-18.906 2.2312-3.5922 4.0568-7.3195 4.0568-8.2827 0-1.574-38.81-25.189-41.396-25.189-1.8026 0-38.26 21.675-40.016 23.79-1.1141 1.3425-1.4555 5.5989-1.0561 13.167.51965 9.8448 1.4444 13.13 7.7282 27.456 3.9258 8.9499 7.4632 17.035 7.8609 17.968 1.6046 3.7617-2.8404 1.1706-15.602-9.0947-15.36-12.355-19.889-17.167-24.644-26.181-1.8633-3.5325-3.9991-6.3756-4.7462-6.3181-.7471.0575-9.2913 4.8061-18.987 10.552l-17.629 10.448v47.348l7.4397 4.4457c9.7792 5.8437 13.866 6.9163 33.242 8.7248 8.9499.83537 16.8 1.9819 17.445 2.5479 1.5057 1.3211-3.3343 3.7605-20.158 10.16-10.685 4.0643-16.148 5.321-25.765 5.9264l-12.204.76835-.37221 21.952c-.4396 25.928-2.3756 22.64 21.282 36.139l16.252 9.2734 7.144-3.8492c9.0198-4.8599 15.585-11.572 25.982-26.563 4.526-6.526 8.7171-11.865 9.3135-11.865 1.6804 0 1.312 5.1552-1.6135 22.579-2.0302 12.092-3.88 18.401-7.4745 25.496-4.0458 7.9852-4.4923 9.7121-2.9178 11.287 1.9263 1.9263 37.461 23.046 39.11 23.245.51317.0618 9.0563-4.542 18.985-10.231zm-28.054-89.313c-7.3952-2.5933-15.058-11.41-16.73-19.25-4.5941-21.54 17.346-39.532 37.071-30.4 17.296 8.0076 21.43 29.242 8.3406 42.832-8.1063 8.4164-17.652 10.686-28.681 6.818zm16.04-7.9648c2.4348-1.0173 6.0766-3.8102 8.0928-6.2063 7.0738-8.4067 3.7258-22.934-6.3919-27.735-12.968-6.1539-26.556 2.6473-26.556 17.201 0 7.1063 4.4938 13.648 11.459 16.682 5.3236 2.3188 7.9568 2.3302 13.396.0578z"
          style="fill:#455a64;stroke-width:1.3561"/>
</svg>
