<svg preserveAspectRatio="xMidYMid" version="1.1" viewBox="0 0 250 250" xmlns="http://www.w3.org/2000/svg" width="16px"
     height="16px">
    <g transform="translate(-1.0045,-46.847)" stroke-width=".72458">
        <path d="m191.95 133.02v77.236l-65.63 38.829-.59344.53982v28.867l.59344.55938 92.43-53.39v-107.62l-.87312-.21375-26.058 14.568.13115.62821"
              fill="#01579b"/>
        <path d="m60.481 210.89 65.841 38.196v29.966l-93.063-53.601v-107.2l.955-.14419 25.983 15.106.28476.86515v76.814"
              fill="#0288d1"/>
        <path d="m60.481 134.07-27.223-15.827 92.852-53.601 92.641 53.39-26.8 14.983l-65.841-37.563-65.63 38.618"
              fill="#4fc3f7"/>
        <path d="m125.19 202.05-.71299-.72747v-29.002l.71299-.36809.17318-.71516 24.864-14.504.7608.17028v29.883l-25.798 15.263"
              fill="#2f406a"/>
        <path d="m98.963 187.72v-31.029l.72096-.0355 25.292 14.719.2152.57967v30.098l-26.228-14.332" fill="#2379bd"/>
        <path d="m124.76 141.43-25.798 15.264 26.228 15.263 25.798-15.049-26.228-15.479" fill="#03afef"/>
        <path d="m93.087 220.97-.71226-.72748v-29.003l.71226-.36737.1739-.71516 24.863-14.504.76081.17027v29.882l-25.798 15.264"
              fill="#01579b"/>
        <path d="m66.859 206.64v-31.03l.72024-.0355 25.292 14.72.2152.57967v30.098l-26.228-14.332" fill="#0288d1"/>
        <path d="m92.657 160.35-25.798 15.263 26.228 15.264 25.798-15.049-26.228-15.479" fill="#4fc3f7"/>
        <path d="m159.59 221.69-.71299-.72748v-29.003l.71299-.36737.17318-.71516 24.864-14.504.7608.17027v29.882l-25.798 15.264"
              fill="#01579b"/>
        <path d="m133.36 207.36v-31.03l.72096-.0355 25.292 14.72.2152.57968v30.098l-26.228-14.332" fill="#0288d1"/>
        <path d="m159.16 161.06-25.798 15.263 26.228 15.264 25.798-15.049-26.228-15.479" fill="#4fc3f7"/>
        <path d="m127.48 240.61-.71227-.72747v-29.003l.71227-.36736.17389-.71589 24.864-14.503.76009.17028v29.882l-25.798 15.264"
              fill="#01579b"/>
        <path d="m101.26 226.28v-31.03l.72024-.0355 25.293 14.719.21449.5804v30.098l-26.228-14.332" fill="#0288d1"/>
        <path d="m127.05 179.98-25.798 15.264 26.228 15.264 25.798-15.049-26.228-15.479" fill="#4fc3f7"/>
        <path d="m125.19 160.92-.71299-.72821v-29.002l.71299-.36736.17318-.71589 24.864-14.503.7608.17029v29.882l-25.798 15.264"
              fill="#01579b"/>
        <path d="m98.963 146.59v-31.03l.72096-.0355 25.292 14.719.2152.58038v30.098l-26.228-14.332" fill="#0288d1"/>
        <path d="m124.76 100.29-25.798 15.264 26.228 15.264 25.798-15.049-26.228-15.479" fill="#4fc3f7"/>
        <path d="m93.087 179.84-.71226-.72749v-29.002l.71226-.36809.1739-.71516 24.863-14.504.76081.17028v29.883l-25.798 15.263"
              fill="#01579b"/>
        <path d="m66.859 165.51v-31.029l.72024-.0355 25.292 14.719.2152.57966v30.098l-26.228-14.332" fill="#0288d1"/>
        <path d="m92.657 119.21-25.798 15.264 26.228 15.263 25.798-15.049-26.228-15.479" fill="#4fc3f7"/>
        <path d="m159.59 180.56-.71299-.72749v-29.002l.71299-.3681.17318-.71515 24.864-14.504.7608.17027v29.883l-25.798 15.263"
              fill="#01579b"/>
        <path d="m133.36 166.22v-31.029l.72096-.0355 25.292 14.719.2152.57967v30.098l-26.228-14.332" fill="#0288d1"/>
        <path d="m159.16 119.93-25.798 15.264 26.228 15.263 25.798-15.049-26.228-15.479" fill="#4fc3f7"/>
        <path d="m127.48 199.47-.71227-.72748v-29.003l.71227-.36737.17389-.71516 24.864-14.504.76009.17029v29.882l-25.798 15.264"
              fill="#01579b"/>
        <path d="m101.26 185.14v-31.03l.72024-.0355 25.293 14.72.21449.57966v30.098l-26.228-14.332" fill="#0288d1"/>
        <path d="m127.05 138.85-25.798 15.264 26.228 15.264 25.798-15.049-26.228-15.479" fill="#4fc3f7"/>
    </g>
</svg>
