<svg id="Layer_1" xmlns="http://www.w3.org/2000/svg" width="16px" height="16px" viewBox="-4 -4 24 24">
    <path fill="#89ddff"
          d="M6.509 10.688a2.748 2.748 0 0 0 .715-3.821L4.955 8.419A1.375 1.375 0 1 1 3.402 6.15l.002-.001 2.069-1.416 1.331-.912A2.748 2.748 0 0 0 7.52 0L5.252 1.553 1.853 3.879l-.004.003a4.125 4.125 0 0 0 4.66 6.806zM9.492 5.313l-.002.001a.174.174 0 0 0-.014.012l.017-.012a2.748 2.748 0 0 0-.716 3.821l2.268-1.553-.001-.001a1.374 1.374 0 1 1 1.553 2.268l-2.07 1.418-1.332.912A2.748 2.748 0 0 0 8.48 16l2.269-1.552 3.402-2.33a4.123 4.123 0 1 0-4.659-6.805z"/>
</svg>