<svg enable-background="new 0 0 24 24" version="1.1" viewBox="0 0 24 24"
     width="16px" height="16px" fill="#FFCE00"
     xml:space="preserve" xmlns="http://www.w3.org/2000/svg">
<path class="st0"
      d="m9.1409 20.577c0 .55593.39709.95303.95303.95303h3.8121c.55593 0 .95303-.39709.95303-.95303v-.95303h-5.7182zm2.8591-18.108c-3.6533 0-6.6712 3.0179-6.6712 6.6712 0 2.3031 1.1119 4.2886 2.8591 5.4799v2.1443c0 .55593.39709.95303.95303.95303h5.7182c.55593 0 .95303-.3971.95303-.95303v-2.1443c1.7472-1.1913 2.8591-3.1768 2.8591-5.4799 0-3.6533-3.0179-6.6712-6.6712-6.6712zm2.7002 10.563-.79419.55593v2.2237h-3.8121v-2.2237l-.79419-.55593c-1.2707-.87361-2.0649-2.3031-2.0649-3.8915 0-2.6208 2.1443-4.7651 4.7651-4.7651 2.6208 0 4.7651 2.1443 4.7651 4.7651 0 1.5884-.79419 3.0179-2.0649 3.8915z"/>
</svg>
