<?xml version="1.0" encoding="UTF-8"?>
<svg width="16px" height="16px" version="1.1" viewBox="0 0 120 120"
     xmlns="http://www.w3.org/2000/svg">
    <path d="m115.45 23.033s-17.489 10.237-17.916 10.379c-0.42654 0.28436-0.85236 0.56915-1.1367 0.85352-1.4218 1.4218-1.8484 3.4114-1.4219 5.2598 0.28436 0.85309 0.71097 1.8496 1.4219 2.5605 0.7109 0.71091 1.5633 1.1375 2.5586 1.4219 1.8484 0.42654 3.8399-6.4e-5 5.2617-1.4219 0.42655-0.42654 0.70938-0.85275 0.85156-1.2793l0.14258-0.42774 2.5606-4.6914zm-39.102 9.2422c-27.441 0-31.99 13.08-31.99 29.289 0 3.8389 0.56902 7.9623-1.9902 11.943-3.8389 5.9716-8.9567 5.8281-10.236 5.8281-1.7062 0-7.9617-0.99344-8.2461-2.8418h0.99414c6.6825 0 11.658-5.4031 11.658-12.654v-2.5605h-5.6855c-4.1233 0-7.8212 1.849-10.238 5.1191-2.4171-3.2702-6.1131-5.1191-10.236-5.1191h-5.8301v2.5605c0 7.1091 5.6878 12.795 12.797 12.795h1.8477c0 4.1233 5.6874 20.332 47.631 20.332 16.351 0 40.664-2.844 40.664-33.697 0-5.8294-1.8478-11.231-4.6914-15.781-0.99526 0.28436-1.9914 0.56836-3.1289 0.56836-4.9763 0-8.957-3.9807-8.957-8.957 0-0.99527 0.14142-1.9911 0.42578-2.9863-4.2654-2.7014-8.5311-3.8379-14.787-3.8379z"
          fill="#1e88e5" stroke-width="1.4218"/>
</svg>
