<svg version="1.1" xmlns="http://www.w3.org/2000/svg" xmlns:xlink="http://www.w3.org/1999/xlink" x="0px" y="0px"
     width="16px" height="16px" viewBox="-48 -48 608 608">
    <path fill="#C3E88D"
          class="i-color"
          d="M74.4993057,435.7876892C-150.7946777,191.3787689,182.8145142-156.3119202,439.3269348,77.9436417c3.6825256-1.4185333,16.1304321-23.3000793,27.3738098-44.5762978c36.309845,105.7029266,53.7702637,192.060318,41.2918701,262.6362915C470.1582947,509.9886475,232.0597534,567.109314,97.9858246,456.7940063c14.9607468-1.0458984,21.428421-8.2201538,24.5570602-15.8612671c4.3772736-10.6906433,0.0060501-21.9717102-5.3742294-26.5917053c-17.2122803-14.7799683-36.6307144-4.4700623-40.9740219,11.1358337C75.2900848,428.7270203,75.5342789,435.0517883,74.4993057,435.7876892z M464.1176758,57.1020699c-34.5325928,60.5304832-107.1665039,114.7130585-211.7944641,117.5695801c-67.0502625,1.8305817-109.8771973,14.7711487-143.5925293,52.6347656c-48.0560799,53.9688263-41.4087219,132.5626678-0.1613846,163.6244354c4.2402039,3.1931458,9.9751205,6.6921692,14.8658905,7.0089417c145.5565186-26.9353638,243.0777283-63.7767334,312.9572144-188.4403381c-23.7420654,78.3655396-78.7403564,126.877594-122.4298096,158.684845c-39.4682617,28.7341003-133.0680389,49.2301331-162.4623871,63.0679321c-1.087616,1.4708252,0.3208618,1.9802551,3.4803772,1.5770569c61.1685181-7.8062439,121.2760468,4.7203674,188.7475739-2.1051025C494.9474487,415.4267273,546.0834961,283.7061462,464.1176758,57.1020699z"/>
</svg>
