<svg version="1.1" xmlns="http://www.w3.org/2000/svg"
     xmlns:xlink="http://www.w3.org/1999/xlink" x="0px" y="0px"
     width="16px" height="16px" viewBox="0 0 486 512">
    <path fill="#39ADB5"
          d="M136.2124176,273.2075195c-4.8754883,8.1244507-12.0577698,14.6925049-15.8285599,24.2854004c-7.8770523,16.9889221-4.8291397,53.7670898-9.7979889,53.8301697c-5.8004456,2.7816467-14.9420929-13.9211121-18.8404694-23.8768311c-9.8684998-25.1801147-11.7018433-65.7271118-3.0186386-94.7103729C100.75,194.5,101.5,196.5,84.9593353,178.4974976c-15.2934799-22.3211823-22.5706406-58.5294876-32.4092369-84.1845169C37.4688683,60.7617455,1.9165834,32.5651054,20.8963585,19.8450928c6.8278065-5.7225742,29.7588959,5.6210194,46.808033,16.8628349c12.0435028,7.9412155,19.9204712,16.3708611,22.5300064,16.326004C119,52.25,130.25,53.5,176.9086151,81.3658981c43.4428711,29.4592743,78.9614258,71.3961105,103.2582855,121.4216995C286.2015991,223.7446899,315.3333435,292,335.1840515,326.6377258c5.1273193,7.3530884,24.9213867,11.2975769,33.9168701,15.3791199C390.5769348,349.2307739,394.75,352.75,424.8769226,376.0163879c5.348938,4.0461731,21.7919006,12.9174805,22.6112061,20.2309265c-26.5062561-0.7717285-46.7503357,1.8716125-64.0596924,9.7115479c-4.9191284,2.2286377-12.7629089,2.286377-13.5653992,8.9073792C374.125,419.5,370.25,426.25,392.4709473,448.0543823C415.078064,468.3322449,426,470,453.5220032,486.1000977C479.8942261,504.3739624,480.2381897,510.0495911,485.927887,512v-0.8078003c-5.6013184-13.2168579-5.2750549-11.3343811-15.0730286-21.8573608c-35.5215149-47.6681824-61.5970459-44.3995667-72.353302-67.1840515C427.3681335,411.0401306,442.3333435,415,469.3506165,405.151062v-3.2384033c-18.3308411-29.077301-70.68396-72.2460022-117.6462097-87.6099854c-30.0215759-57.2654724-42.5878906-97.993103-57.9720764-130.9429321C261.3990479,124.7247772,176,28,98.524765,34.4153061c-5.0601654-2.2719231-10.3251648-8.9218082-15.0730515-12.1421719C64.5474396,9.4468641,16.0578251-18.4519997,2.0559051,18.2269478c-8.8410196,23.1519852,13.212842,45.7450066,21.100256,57.4724617c5.5369701,8.2301331,12.6252346,17.4570236,16.5806904,26.7120514C43.6090546,112.4419632,42.5,119.875,62.3481064,168.7880554c14.6728668,31.7285919,17.4111328,22.4184875,20.348114,33.9984436c-4.6538696,6.994278-4.919136,17.8515625-7.5348434,26.7124176C54,300,87.1986313,383.3090515,119.6283798,369.5395813c16.6179276-7.2318115,11.0307846-35.2098083,17.8456039-53.8643494c9.692688,18.1581116,12.692688,41.6581116,56.7708588,77.3401794c7.8303375,6.3505859,16.2221222,17.9129639,26.2275238,21.5620117c-10.3585358-7.1803589-19.2585297-18.0041199-27.7351837-29.6579895c-13.7332916-20.0253906-25.8716583-41.9440002-36.9288025-64.7606201C137.6898956,284.037262,141.5485535,277.1875916,136.2124176,273.2075195z M111.137085,107.9672623C106,95.8333359,104.0288391,98.6219406,98.5886536,92.6389771c-5.4624786-0.1079941-9.4375381,0.7685471-13.5227814,1.7258911c-0.2242432,0.1437683-0.1683197,0.4379272,0.0174637,0.801796c2.6051254,5.7497635,7.9339905,9.4484711,11.1563873,14.4016342l7.4503403,16.7976913C109.221489,122.4016876,111.1915665,115.9044418,111.137085,107.9672623z"/>
</svg>