<svg version="1.1" viewBox="0 0 24 24" width="16px" height="16px"
     fill="#9C27B0"
     xmlns="http://www.w3.org/2000/svg">
    <path class="st0"
          d="m16.75 15.3c0 1.1-1.6 2-2.7 2h-4.3c-1.1 0-2.7-.9-2.7-2v-.1h9.7zm0-2.3h-7c-1.1 0-2.7-.9-2.7-2h7c1.1 0 2.7.9 2.7 2zm0-4.2h-9.6v-.1c0-1.1 1.6-2 2.7-2h4.4c1.1 0 2.7.9 2.7 2v.1z"
    />
    <path class="st0"
          d="m15.15 2.65c3.3 0 6.1 2.7 6.1 6.1v6.5c0 3.3-2.7 6.1-6.1 6.1h-6.4c-3.3 0-6.1-2.7-6.1-6.1v-6.5c0-3.3 2.7-6.1 6.1-6.1h6.4m0-1h-6.4c-3.9 0-7.1 3.2-7.1 7.1v6.5c0 3.9 3.2 7.1 7.1 7.1h6.5c3.9 0 7.1-3.2 7.1-7.1v-6.5c-.1-3.9-3.3-7.1-7.2-7.1z"
    />
</svg>
