<svg id="svelte" version="1.1" width="16px" height="16px" viewBox="0 0 300 300" xmlns="http://www.w3.org/2000/svg">
    <path fill="#ff5722"
          d="m175.94 24.328c-13.037.25172-26.009 3.8724-37.471 11.174l-58.557 37.316a67.134 67.134 0 0 0-30.355 44.906 70.794 70.794 0 0 0 6.959 45.445 67.224 67.224 0 0 0-10.035 25.102 71.535 71.535 0 0 0 12.236 54.156c23.351 33.41 69.468 43.311 102.81 22.07l58.559-37.158a67.359 67.359 0 0 0 30.355-44.906 70.771 70.771 0 0 0-6.9824-45.422 67.65 67.65 0 0 0 10.059-25.102 71.625 71.625 0 0 0-12.236-54.156v-.17969c-15.324-21.925-40.453-33.727-65.342-33.246zm5.1367 28.68a46.5 46.5 0 0 1 36.09 19.969 42.975 42.975 0 0 1 7.3652 32.557 45.242 45.242 0 0 1-1.3926 5.4551l-1.123 3.3691-2.9863-2.2461a75.846 75.846 0 0 0-22.902-11.451l-2.2441-.65039.20117-2.2461a13.157 13.157 0 0 0-2.3789-8.7109 13.988 13.988 0 0 0-14.953-5.4121 12.843 12.843 0 0 0-3.5938 1.5723l-58.578 37.25a12.237 12.237 0 0 0-5.502 8.1504 13.112 13.112 0 0 0 2.2461 9.834 14.033 14.033 0 0 0 14.93 5.5684 13.472 13.472 0 0 0 3.5937-1.5723l22.453-14.234a41.785 41.785 0 0 1 11.898-5.2324 46.477 46.477 0 0 1 49.914 18.502 43.02 43.02 0 0 1 7.3633 32.557 40.415 40.415 0 0 1-18.254 27.078l-58.58 37.316a43.065 43.065 0 0 1-11.898 5.2305 46.545 46.545 0 0 1-49.936-18.523 42.975 42.975 0 0 1-7.3418-32.557 38.17 38.17 0 0 1 1.3906-5.4102l1.1016-3.3691 3.0078 2.2461a75.846 75.846 0 0 0 22.836 11.361l2.2442.65039-.20118 2.2461a13.247 13.247 0 0 0 2.4473 8.6445 14.033 14.033 0 0 0 15.043 5.5684 13.135 13.135 0 0 0 3.5918-1.5723l58.467-37.316a12.169 12.169 0 0 0 5.502-8.1738 12.955 12.955 0 0 0-2.2461-9.8106 14.033 14.033 0 0 0-15.043-5.5684 12.843 12.843 0 0 0-3.5918 1.5703l-22.453 14.258a42.885 42.885 0 0 1-11.877 5.209 46.522 46.522 0 0 1-49.846-18.5 43.02 43.02 0 0 1-7.2969-32.557 40.415 40.415 0 0 1 18.254-27.078l58.646-37.316a42.773 42.773 0 0 1 11.811-5.209 46.5 46.5 0 0 1 13.822-1.4453z"
    />
</svg>
