<svg version="1.1" xmlns="http://www.w3.org/2000/svg" xmlns:xlink="http://www.w3.org/1999/xlink" x="0px" y="0px"
     width="16px" height="16px" viewBox="-48 -48 608 608" preserveAspectRatio="xMidYMid meet">
    <path id="file_type_ai.svg" class="i-color" fill="#7963E6"
          d="M127.7110825,34.4531364c-170.2814789,98.1692047-170.2814026,344.9245911,0,443.0937195S512,452.3383789,512,256.0000305S297.9924927-63.7160034,127.7110825,34.4531364z M176.3741302,408.5532532c-122.139801,0-19.929306-137.3335266-104.7761612-134.9657288v-36.7011261c80.0386734,9.9306183-15.3906517-146.2125549,104.1839828-132.5976257v28.4137802c-66.6934204,1.5785828-0.3946075,86.8199158-60.3792725,122.5344086c60.3792725,39.6608887-3.1571045,130.0325317,60.9714508,120.1665955V408.5532532z M172.0883179,275.1309204c-13.7811279-7.9449768-13.7811279-27.9151764,0-35.8600769c13.7810516-7.9449921,31.1009064,2.0401154,31.1009064,17.9299927S185.8693695,283.0758362,172.0883179,275.1309204z M245.6174622,275.1309204c-13.7810669-7.9449768-13.7810669-27.9151764,0-35.8600769c13.7810669-7.9449921,31.1008911,2.0401154,31.1008911,17.9299927S259.3985291,283.0758362,245.6174622,275.1309204z M319.1466064,275.1309204c-13.7810669-7.9449768-13.7810669-27.9151764,0-35.8600769c13.7810669-7.9449921,31.1009827,2.0401154,31.1009827,17.9299927S332.9276733,283.0758362,319.1466064,275.1309204z M335.6259155,408.5532532v-33.1496887c64.1285706,9.8659363,0.5921631-80.5057068,60.9714355-120.1665955c-59.9846497-35.7144928,6.3141479-120.9558258-60.3792725-122.5344086v-28.4137802c119.574646-13.6149292,24.1453247,142.5282288,104.1839905,132.5976257v36.7011261C355.5552063,271.2197266,457.7657166,408.5532532,335.6259155,408.5532532z"/>
</svg>
