<svg version="1.1" xmlns="http://www.w3.org/2000/svg" xmlns:xlink="http://www.w3.org/1999/xlink" x="0px" y="0px"
     width="16px" height="16px" viewBox="0 0 409 512" fill="#79919C">
    <path d="M371.800354,5.2350616c-62.9704285-0.889482-111.2810974,248.3269043-109.9483948,350.4456177c20.8622437-68.7286072,52.6396179-111.1575928,86.1695251-118.517807c-55.6105957,58.0640106-71.8428955,160.6646881-66.178894,258.4521484c-35.6755829,8.4100952-62.6334229,11.8451538-71.4187012,4.9094543l0.287674-35.957428c1.1000977,4.4288635,2.7260284,7.3119202,5.1778564,7.7667847c6.3285217-80.257019-12.8416748-150.1184082-81.4076691-167.4178772c43.4365997-2.3013,69.9248047,16.987915,91.1881104,63.8604126C227.0892944,175.8558502,290.719574-3.3342516,371.800354,0.0471038c12.6261597,0.5265548,24.6776428,8.9093084,36.3959351,24.6656628C397.8922119,13.7093258,382.0971069,5.380507,371.800354,5.2350616z M77.9214554,384.6711426C60.8788757,346.1529236,26.4016914,314.7783813,0,312.5782471c39.6025391,35.9356079,70.5560837,106.5516663,70.9649963,181.3820496c-7.7939682-18.4320374-6.7411423-20.2325745-10.6483803-30.3091431c-0.6169281,16.862793,3.4165497,21.6447754,3.2880135,46.6654968c22.3863144,3.0248413,43.4876251,2.6030884,61.33638-6.5425415c-3.9689713-57.7379761-3.4740753-111.1233826,45.797821-116.9480286c-25.6752472-2.1784668-37.611084,3.082489-55.5553207,15.8444519c-5.7769012-100.6494751-24.5908813-206.3961029-44.2185135-297.9917603C75.0309219,214.6932068,78.1401291,315.5716248,77.9214554,384.6711426z"/>
</svg>