<svg xmlns="http://www.w3.org/2000/svg" width="16px" height="16px" viewBox="0 0 16 16">
    <path id="file_type_ternjs.svg" class="i-color" fill="#7A8387"
          d="M4.4,15a18.663,18.663,0,0,0,1.8-1.224c0.462-.412,2.323-2.436,2.747-2.861A8.34,8.34,0,0,0,10.391,9.2a4.824,4.824,0,0,0,.624-1.4,3.046,3.046,0,0,0-.9-0.838,15.338,15.338,0,0,1,1.711-.271,2.473,2.473,0,0,1,.787.116,0.76,0.76,0,0,1,.3.258l0.712,0.812a7.451,7.451,0,0,0-1.062-1.533A6.538,6.538,0,0,1,14,7.539s-0.493-.7-0.744-0.967h0a1.763,1.763,0,0,0-.336-0.76c-0.734-.816-0.661-0.29-2-0.58a0.559,0.559,0,0,1-.493-0.378A1.757,1.757,0,0,1,11,2.926a0.966,0.966,0,0,0,.524-0.593c-0.163-1.044-2.222-1.17-3.759-1.3a7.361,7.361,0,0,0-2.31.155c0.572,0.025.306,0.124,0.387,0.18a11.917,11.917,0,0,1,1.461.271,4.365,4.365,0,0,1,1.4.889C8.652,2.76,8.157,3.249,7.883,3.84a12.129,12.129,0,0,1-.627,1.624,15.762,15.762,0,0,1-3.734.488C3.248,5.927,1.574,5.838,1.574,5.838L3.135,6.057A12.233,12.233,0,0,0,1,6.341a15.547,15.547,0,0,1,3.222.03c1.307,0.039,1.834.377,3.084,0.472C7.14,7.423,8.311,8.522,8.13,9.124A56.7,56.7,0,0,0,4.4,15Z"
          transform="translate(0 0)"/>
</svg>
