<?xml version="1.0" encoding="utf-8"?>
<svg xmlns="http://www.w3.org/2000/svg" version="1.1" viewBox="0 0 512 512" width="16px" height="16px">
    <path fill="#82AAFF"
          d="M158.7279663,389.1131897l-74.0367432-0.0001221l84.8234253-141.4821014h74.5700684l19.8955078,29.7441864C193.1090698,285.162262,159.9876099,338.8736877,158.7279663,389.1131897z M161.3778076,416.8182068H33.9144897l131.9580688-218.8084564V65.1816864h81.8540649v132.828064l50.1135254,78.9105682h32.4299316l-54.5804443-85.9611053V65.1816864h26.0755005c19.5045166,0,19.5045166-27.5949097,0-27.5949097H111.835083c-19.5045166,0-19.5045166,27.5949097-0.0004883,27.5949097h26.0749512v125.7775269L5.7651367,410.1037903c-12.4072876,21.1151123-4.6187134,34.3093262,21.729248,34.3093262h144.5474243C167.161499,436.0868225,163.5945435,426.7343445,161.3778076,416.8182068z M462.9741821,460.6809387c-45.6976929,26.7136536-108.1321716,15.4006042-124.8245239-42.520752c-9.8644714,20.6004639-25.9710083,37.4845581-45.1652832,47.1123962c-45.4778137,22.811676-107.2226868,2.9188538-115.1642914-59.5962524c-5.8154755-59.9190674,39.88414-96.9451904,66.8996277-106.2931824c42.9342804-14.192749,85.2783051,2.484375,99.920639,43.9907532l-46.1184387,12.8275146c-4.8991394-14.4698486-31.5296326-24.8897705-52.0002899-9.1839294c-32.1953278,21.0795898-31.6002655,74.1264343,7.2976685,82.0038147c20.1949615,2.7474976,33.7606354-7.8420105,43.9297028-24.130188l-50.0793304,0.113739l16.0913544-36.8213196h75.053009c32.5067139-97.316864,159.2840271-93.0556335,172.1683044-5.6087341C515.5617065,393.6553345,505.563446,435.7844849,462.9741821,460.6809387z M421.3243408,340.27771c-34.6987915,7.9231567-43.3467407,40.4496155-37.9908752,61.2894287c5.6997681,22.177948,27.7776489,36.7200623,55.7895813,22.8131714C484.0179749,402.0916138,472.2498474,328.6493225,421.3243408,340.27771z"/>
</svg>
