<?xml version="1.0" encoding="utf-8"?>
<svg xmlns="http://www.w3.org/2000/svg" version="1.1" viewBox="0 0 512 512" width="16px" height="16px">
    <path fill="#1E9DF1"
          d="M33.9144897,402.5473328h149.5499878v27.5949097H27.4943848c-26.3479614,0-34.1365356-13.1942139-21.729248-34.3093262l132.1444092-219.144577V50.9108047h-26.0749512c-19.5040283,0-19.5040283-27.5949078,0.0004883-27.5949078h189.9300537c19.5045166,0,19.5045166,27.5949078,0,27.5949078h-26.0755005v125.7775345l13.7144165,21.50354c-8.0905762,4.2161255-15.6835327,9.0811768-22.7441406,14.5089111l-18.9332886-28.9619141V50.9108047h-81.8540649v132.828064L33.9144897,402.5473328z M169.5146484,233.3600922L84.6912231,374.8421936h122.4030762c-11.3967285-51.901062,2.9623108-107.5151367,37.5395508-141.4821014H169.5146484z M275.9421997,320.1702576c4.0361328-1.7922668,5.859436-6.5227661,4.0671692-10.5673523l-3.8922119-8.8004761h15.3063049v68.9926147h-30.8807068c-3.8117981-13.3888245-4.9992828-27.3883057-3.4970398-41.2279053L275.9421997,320.1702576z M339.9700623,321.8665466v-20.3359375h36.4494934c1.8825684,0,13.2938538,2.1761475,13.2938538,10.7084656c0,7.0844116-8.7525024,9.6246643-15.9498291,9.6246643L339.9700623,321.8665466z M422.8972778,411.8753357c-4.321228-0.9257812-8.5718994,1.8233337-9.4976501,6.1530151l-4.4030457,20.5476379c-28.6530457,12.9790649-61.540802,12.8213806-90.0680542-0.4318542l-4.4002686-20.5476074c-0.9257507-4.3240356-5.1764221-7.0787964-9.494812-6.150177l-18.1400452,3.894989c-3.3704529-3.4709778-6.5038757-7.1644897-9.3790894-11.0556335h88.2644958c0.9991455,0,1.6652832-0.1806641,1.6652832-1.0895081V371.973999c0-0.908844-0.6661377-1.0895081-1.6652832-1.0895081H339.964447v-19.7911987h27.9199524c2.5487061,0,13.6269226,0.7282104,17.1691284,14.8885803c1.1092224,4.355072,3.5450134,18.5210876,5.2102661,23.0567932c1.6596375,5.0861206,8.4166565,15.2470398,15.6167908,15.2470398h45.5717163c-3.0563965,4.0908813-6.3990479,7.9598694-10.0028687,11.5777893L422.8972778,411.8753357z M471.9095459,329.43927c0.6196594,6.2314453,0.6961365,12.5049744,0.2286377,18.7496948h-11.0810547c-1.1092224,0-1.5551758,0.7282104-1.5551758,1.8148499v5.0889282c0,11.9786072-6.7542114,14.5837402-12.6729126,15.2470398c-5.6365051,0.6350403-11.885437-2.3595886-12.6560059-5.8086853c-3.3248901-18.7017212-8.865387-22.6955261-17.6150818-29.5964661c10.8580933-6.8953247,22.1564331-17.0675354,22.1564331-30.6831665c0-14.7022705-10.0790405-23.9628296-16.9489441-28.5041809c-9.6387634-6.3533936-20.3105469-7.6263428-23.1894531-7.6263428H283.9749451c15.8424683-17.7032623,37.0800171-29.6890717,60.423584-34.1011505l13.5083923,14.1716461c3.0539246,3.1978607,8.1118164,3.3164062,11.3068542,0.2596741l15.1143494-14.4567413c31.184021,5.8411102,58.2225037,25.0981598,73.9376221,52.6589508l-10.347229,23.3701172c-1.7866211,4.0445862,0.0367126,8.7750854,4.0700378,10.5673523L471.9095459,329.43927z M497.7154541,329.8174744l-0.3527832-3.6127625l10.6576538-9.9407654c2.1676636-2.020874,1.3576355-6.0880737-1.4140625-7.1210938l-13.624115-5.094574l-1.066864-3.5167847l8.4984741-11.8036194c1.7330017-2.3991089,0.1411133-6.229187-2.7773132-6.7090149l-14.3664246-2.3370056l-1.727356-3.2261047l6.0372925-13.2515259c1.2362366-2.6983032-1.0612488-6.150177-4.0305176-6.037262l-14.5809326,0.5080261l-2.3031311-2.7942505l3.3502808-14.202713c0.6773682-2.8845673-2.2495117-5.8143005-5.1340942-5.1369019l-14.1998901,3.3474579l-2.7998657-2.3031464l0.5108643-14.5809174c0.1128845-2.952301-3.3418274-5.2582703-6.0344849-4.0333252l-13.2486877,6.0401001l-3.2260742-1.7301788l-2.3426819-14.3692322c-0.4741516-2.9127808-4.3070679-4.5046692-6.7062073-2.7773132l-11.8120422,8.4984741l-3.5111694-1.0640717l-5.094574-13.6269073c-1.03302-2.7773132-5.1030273-3.5760803-7.1183167-1.4197083l-9.9407349,10.6661377l-3.6127625-0.3528137l-7.6771545-12.4047852c-1.5523987-2.5120087-5.7098999-2.5120087-7.2565918,0l-7.6771545,12.4047852l-3.6155701,0.3528137l-9.943573-10.6661377c-2.0152588-2.1563721-6.0852661-1.3576202-7.1183167,1.4197083l-5.0945435,13.6269073l-3.5139771,1.0640717l-11.8092651-8.4984741c-2.3991089-1.7330017-6.2348633-0.1354675-6.7090149,2.7773132l-2.3426514,14.3692322l-3.2261047,1.7301788l-13.2487183-6.0401001c-2.692627-1.2305908-6.1473694,1.0810089-6.0344543,4.0333252l0.5080566,14.5809174l-2.7998962,2.3031464l-14.1998901-3.3474579c-2.884552-0.6717529-5.8143005,2.2523346-5.1369019,5.1369019l3.344635,14.202713l-2.2974854,2.7942505l-14.5809174-0.5080261c-2.9410248-0.0846863-5.2582855,3.3389587-4.0333252,6.037262l6.0401001,13.2515259l-1.7301788,3.2261047l-14.3664093,2.3370056c-2.9184418,0.4741821-4.4990234,4.309906-2.7773132,6.7090149l8.4984741,11.8036194l-1.0668945,3.5167847l-13.6269226,5.094574c-2.7660217,1.03302-3.5760803,5.1002197-1.4140625,7.1210938l10.6605072,9.9407654l-0.3528137,3.6127625l-12.4019623,7.6771545c-2.5120087,1.5523682-2.5120087,5.7098694,0,7.2565613l12.4019623,7.6771545l0.3528137,3.6127625l-10.6605072,9.9436035c-2.1620178,2.0152283-1.3519592,6.0796204,1.4140625,7.1182861l13.6269226,5.094574l1.0668945,3.5168152l-8.4984741,11.806427c-1.727356,2.4047546-0.1383057,6.2376709,2.7801361,6.7062073l14.3635864,2.3370056l1.7301788,3.23172l-6.0401001,13.2459106c-1.2305908,2.692627,1.0923004,6.1558228,4.0333252,6.037262l14.5752716-0.5108643l2.3031311,2.7998962l-3.344635,14.2055054c-0.6773987,2.8789062,2.2523499,5.803009,5.1369019,5.1256104l14.1998901-3.3446045l2.7999268,2.2975159l-0.5080566,14.5837097c-0.112915,2.952301,3.3417969,5.2611084,6.0344543,4.0305176l13.2486877-6.0372925l3.2261047,1.7301941l2.3426819,14.3607483c0.4741516,2.9241028,4.309906,4.5046692,6.7090149,2.782959l11.8035889-8.5041199l3.5168152,1.0697021l5.094574,13.6212769c1.03302,2.7660217,5.1030273,3.5816956,7.1182861,1.4140625l9.943573-10.6605225l3.6156006,0.3612976l7.677124,12.401947c1.5467224,2.5007019,5.7042236,2.5063477,7.2565918,0l7.677124-12.401947l3.6127625-0.3612976l9.9407959,10.6605225c2.0152588,2.1676331,6.0852661,1.3519592,7.1182861-1.4140625l5.094574-13.6212769l3.5168152-1.0697327l11.806427,8.5041199c2.3990784,1.7217102,6.2320251,0.1354675,6.7062073-2.782959l2.3426514-14.3607483l3.2261047-1.7301636l13.2486877,6.037262c2.6926575,1.2305908,6.1416931-1.0725403,6.0344543-4.0304871l-0.5080566-14.5837708l2.7970886-2.2974854l14.1998596,3.344635c2.8845825,0.6773682,5.8114624-2.2467041,5.1340942-5.1256104l-3.344635-14.2055359l2.2975159-2.7998962l14.5809021,0.5108948c2.94104,0.1185303,5.2667236-3.344635,4.0304871-6.0372925l-6.037262-13.2458801l1.727356-3.2317505l14.366394-2.3370056c2.9241028-0.4685364,4.5103149-4.3014526,2.7773132-6.7062073l-8.4984741-11.806427l1.0668945-3.5167847l13.624115-5.094574c2.7716675-1.0386658,3.5816956-5.1030579,1.414032-7.1183167l-10.6576538-9.943573l0.3528137-3.6127625l12.401947-7.6771545c2.5119934-1.5467224,2.514801-5.7042236,0.0028381-7.2565918L497.7154541,329.8174744z"/>
</svg>
