<svg version="1.1" xmlns="http://www.w3.org/2000/svg" xmlns:xlink="http://www.w3.org/1999/xlink" x="0px" y="0px"
     width="16px" height="16px" viewBox="-48 -48 608 608" preserveAspectRatio="xMidYMid meet">
    <path id="file_type_ai.svg" class="i-color" fill="#82AAFF"
          d="M33.9144897,413.6114502h149.5499878v27.5949097H27.4943848c-26.3479614,0-34.1365356-13.1942139-21.729248-34.3093262l132.1444092-219.1445923V61.9749107h-26.0749512c-19.5040283,0-19.5040283-27.5949097,0.0004883-27.5949097h189.9300537c19.5045166,0,19.5045166,27.5949097,0,27.5949097h-26.0755005v125.7775269l23.8644409,37.418335h-31.9750977l-19.852356-30.3677979V61.9749107h-81.8540649v132.828064L33.9144897,413.6114502z M190.5549927,299.9488525v-55.5246582h-21.0403442L84.6912231,385.906311h165.361618v-85.9574585H190.5549927z M372.3924561,247.2123871H214.3067627v31.7719574h61.8987122V471.119873l34.1596069,0.0000305V278.9843445h62.0273743V247.2123871z M507.8104553,389.3451233c-21.5878296-43.4848633-72.8865967-46.184845-87.8046265-73.6443481c-16.4813538-44.4750977,51.4895325-52.5110779,84.1461792-22.5480652v-39.9230347c-13.9141235-8.9861145-36.0385437-9.9516754-51.5593262-9.1135559c-40.9595642,2.2118378-68.4836121,26.0106812-68.072998,61.4625854c-1.7645874,49.4866943,54.7452698,62.2289429,83.1210938,85.1308289c19.2713318,16.3526001,17.8919373,56.0098877-29.71698,52.0484314c-15.2397461-1.3996887-34.7991638-4.349884-53.7020264-24.9941711v42.4699707c34.7274475,22.5732422,94.4539795,18.4301147,115.2755432-8.7010193C511.8720093,435.4081116,516.9718628,413.8086243,507.8104553,389.3451233z"/>
</svg>
