<svg version="1.1" xmlns="http://www.w3.org/2000/svg" xmlns:xlink="http://www.w3.org/1999/xlink" x="0px" y="0px"
     width="16px" height="16px" viewBox="-48 -48 608 608" preserveAspectRatio="xMidYMid meet">
    <path id="file_type_ai.svg" class="i-color" fill="#E79627"
          d="M288.0419922,396.7871094l0.0001831-142.6271667h45.3258972l0.0000305,124.4122925c0.5644836,54.7559204-3.4126587,72.3702393-29.3063049,89.5075989c-38.5796204,21.3467712-91.3488922,5.2205811-106.2255402-31.9820862l36.7052612-22.4858398c12.9274139,23.3189087,25.3651276,26.5784607,41.4357758,21.146637C287.8615417,430.7416992,288.5563049,413.6851501,288.0419922,396.7871094z M354.283905,430.8233032l36.6589966-21.144104c9.8240051,15.0985107,18.9078369,23.395752,35.2401123,26.7886963c22.1619568,2.6988831,44.4627075-4.9043579,39.4658813-28.4388733c-5.1356812-19.23172-45.3726501-23.9046631-72.7627869-44.462738c-27.8065491-18.6764832-34.3148193-64.0491028-11.4742737-89.9741211c22.9567566-29.5599518,91.7070007-34.3709259,116.9942017,14.2348328l-35.3327026,22.6708984c-12.8893738-30.0537415-59.3575745-24.7170715-49.3053284,9.0375061c9.1540833,23.3833618,86.3537598,23.3833313,96.5748901,80.59729c6.3446045,30.3578186-6.0918579,53.9447327-27.6967773,66.12146C445.4293518,487.2298889,379.0040283,480.1626587,354.283905,430.8233032z M259.0534058,385.9067078V269.3184509l-14.968689-24.8938599h-74.5700684L84.6912231,385.9067078H259.0534058z M267.5789795,225.1711426h31.9750977l-23.8644409-37.418335V61.9752808h26.0755005c19.5045166,0,19.5045166-27.5949097,0-27.5949097H111.835083c-19.5045166,0-19.5045166,27.5949097-0.0004883,27.5949097h26.0749512v125.7775269L5.7651367,406.8973999c-12.4072876,21.1151123-4.6187134,34.3093262,21.729248,34.3093262h155.9700928v-27.5949097H33.9144897l131.9580688-218.8084717V61.9752808h81.8540649v132.828064L267.5789795,225.1711426z"/>
</svg>
