<svg version="1.1" xmlns="http://www.w3.org/2000/svg" viewBox="0 0 512 512" width="16px" height="16px" fill="#4DD0E1">
    <path transform="scale(0.9) translate(30 30)"
          d="M383.7738342,366.4366455c0-20.8970032-22.6277466-34.0285645-40.6321716-23.5800476c-18.0044556,10.4485168-18.0044556,36.7116089,0,47.1600952C361.1460876,400.46521,383.7738342,387.3336487,383.7738342,366.4366455z M448.013031,314.95755c17.9256897-85.6847534-23.7183228-113.89151-90.7603455-51.8686829c-63.0983582-59.1547241-110.2676544-39.2264862-91.1469116,51.4774475c-88.1719513,26.5809021-82.3542938,79.239563,0.6928101,104.7980347c-19.0012054,83.5336609,18.7308655,115.2565002,90.4335632,52.1581116c69.5516052,62.3813477,108.711792,31.8792725,89.724823-52.562439C537.5413818,388.247345,529.3955688,341.2485046,448.013031,314.95755z M432.178833,310.7398987c-14.2106323-3.2054443-25.4631042-5.0819702-39.4481812-6.3549805c-7.3682556-10.7739563-14.298645-19.6646118-24.1611633-29.6776428C421.1395874,223.4270935,446.6390991,244.5087585,432.178833,310.7398987z M295.0466919,387.6586304c5.3179626,11.3529053,8.4648438,14.6968994,13.7230225,23.4207458c-8.5622559-0.8757324-11.5586853-1.3759155-21.3777161-3.1140137C290.538269,399.1582947,291.5043335,396.5375977,295.0466919,387.6586304z M294.3650818,347.6221924c-3.9115295-9.3894043-5.1738281-12.5457458-8.0898438-20.9827576c10.1365356-2.1011658,13.8540344-3.171814,22.4655457-3.8236389C302.3316956,332.8840027,300.1526184,336.6677856,294.3650818,347.6221924z M303.8181458,367.8589172c8.7669983-17.5577393,16.9411621-32.3558655,27.2229004-47.2485962c18.2436523-1.0491333,34.2150879-0.9701538,52.057251,0.344574c10.0068665,13.9434204,18.2497253,28.7745361,27.2256775,46.9236145c-6.7170105,13.8804932-15.2175598,28.0326538-26.2097778,45.1206055c-18.3528442,1.38974-35.0002441,1.1844788-54.1152039-0.013092C320.3109131,398.1436768,312.2784424,384.3486328,303.8181458,367.8589172z M419.0244751,387.4121399c3.4813538,8.4476624,4.4268799,11.1397705,7.4082031,19.8949585c-9.2015991,1.937561-11.9985962,2.4301453-20.9668884,3.3829041C411.6044006,401.1790466,413.419342,397.9176941,419.0244751,387.4121399z M405.5133972,323.0212097c9.7753601,1.3381958,12.90271,1.9481506,22.0070801,3.9580994c-3.0457764,9.0509033-4.1339111,12.0441589-8.0244751,20.6774292C413.9467468,336.711792,411.9318542,333.0917358,405.5133972,323.0212097z M370.1334839,302.7228699c-11.165802-0.4380188-14.5805054-0.4174194-26.114563,0.0065613c5.0494385-6.6409607,6.74646-8.6482849,12.9190979-15.8640747C362.9535217,293.3586121,364.6397705,295.4113464,370.1334839,302.7228699z M345.5596008,274.7063293c-9.8625488,10.0130615-16.7919922,18.5460815-24.1602478,29.3200378c-13.9851074,1.2730103-25.5717773,3.1448669-39.7824707,6.3503113C267.352478,242.9723816,290.903717,224.5644531,345.5596008,274.7063293z M271.0265198,403.8513794c-66.9782715-20.4934998-71.0856476-52.7402039-0.6975098-73.4144897c4.3057556,13.0658569,8.6535034,23.9987793,14.551239,36.741333C279.1494751,380.3563232,274.9213562,391.4866638,271.0265198,403.8513794z M282.9885254,423.5866699c12.6674805,3.1071167,23.6411438,4.1119385,37.703064,5.6079712c8.460968,11.9406738,15.5714111,21.1704712,24.8782654,30.7532959C297.8295288,506.7794495,264.4270935,495.7078247,282.9885254,423.5866699z M356.8857117,448.2735291c-6.4858398-6.7162476-8.7962646-9.5687866-14.539093-17.8286133c12.8011169,0.2697144,17.624115,0.3117676,29.386322,0.0121155C366.036438,438.5384216,363.6105347,441.2897339,356.8857117,448.2735291z M368.5293274,459.9124756c9.9862671-10.8501282,17.1576843-19.9146729,24.8978882-31.0483704c13.210968-0.9720459,24.1270142-2.560791,37.6853027-5.6537476C447.7441101,490.6844482,419.9351807,508.9358521,368.5293274,459.9124756z M442.7477417,403.1211853c-3.840332-12.3646851-7.8539734-22.7658081-13.5045471-35.9439087c5.8152161-12.7425232,9.955658-23.2991943,14.2010803-36.3650208C503.5587158,348.6978455,517.677063,380.0567932,442.7477417,403.1211853z M187.0582275,385.906311H84.6912231l84.8234253-141.4821167l74.4081421,0.000061c-4.0958862,16.010376-4.1755371,26.744751,0.1622314,51.4733276C200.77742,311.3685303,174.0733795,336.7693787,187.0582275,385.906311z M301.7651367,61.9749146h-26.0755005v125.7778931l13.9993286,21.9502563c-9.6055908,0.902832-18.368103,4.3684692-25.6193237,10.0998535l-16.3430176-24.9995728V61.9749146h-81.8540649v132.828064L33.9144897,413.6114502h149.5495148v27.5949097H27.4943848c-26.3479614,0-34.1365356-13.1942139-21.729248-34.3093262l132.1444092-219.1445923V61.9749146h-26.0749512c-19.5040283,0-19.5040283-27.5949097,0.0004883-27.5949097h189.9300537C321.2696533,34.3800049,321.2696533,61.9749146,301.7651367,61.9749146z"/>
</svg>