<svg version="1.1" xmlns="http://www.w3.org/2000/svg" xmlns:xlink="http://www.w3.org/1999/xlink" x="0px" y="0px"
     width="16px" height="16px" viewBox="-48 -48 608 608" preserveAspectRatio="xMidYMid meet">
    <path id="file_type_ai.svg" class="i-color" fill="#90A959"
          d="M169.242157,244.4075623l-84.8909149,141.594696h132.3332062c-12.8378296-60.8940125,4.1453247-106.6446838,48.1190186-111.1238708l-18.5814667-30.4708252H169.242157z M302.0054626,61.8131256h-26.0964966v125.877594l23.8834534,37.4481049h-32.0005493l-19.8681488-30.3919525V61.8131256h-81.9191895v132.9337463L33.9414711,413.7294312h182.7425385v27.6168823H27.5162563c-26.3689232,0-34.1636963-13.2047119-21.7465363-34.3366394l132.2495575-219.3189545V61.8131256h-26.0957031c-19.5195465,0-19.5195465-27.6168633,0.0004883-27.6168633h190.0809174C321.5250244,34.1962624,321.5250244,61.8131256,302.0054626,61.8131256z M295.1679382,391.7620544v29.9468689h-22.5387268c-19.0460815,0-30.1764679-13.8253479-34.8292236-33.2340393c-6.284256-26.0675354-6.0183868-41.6452637,0-66.6130676c5.2207489-21.7894592,21.8981934-33.2340393,40.9443054-33.2340393h90.1427307v-11.2724304h-65.5374756V251.572998c0-18.9131927,5.0394897-25.4251862,32.7747803-30.3196411c21.4101868-3.5843353,43.2362366-3.5457764,65.4649658,0c17.7892456,2.9608459,32.7747803,16.3027954,32.7747803,34.0678864v62.4074554c0,18.3089294-14.5504761,33.3065491-32.7747803,33.3065491l-65.4710083,0.0060425C313.8937683,351.0412903,295.1679382,370.1296997,295.1679382,391.7620544z M353.542511,249.2840118c0-11.6731415-12.5328674-19.0084686-22.5050049-13.1718903c-9.972168,5.8365631-9.972168,20.5072021,0,26.3437805C341.0096436,268.2924805,353.542511,260.9571533,353.542511,249.2840118z M450.0180359,324.184967v-29.9468994l22.5386963,0.0000305c19.0461121,0,30.1764832,13.8253479,34.8292542,33.2340088c6.2842407,26.0675659,6.0183716,41.6452637-0.0000305,66.6130676c-5.2207642,21.7894287-21.8981934,33.2340088-40.9443054,33.2340088l-90.1427612-0.0000305l-0.0000305,10.2007751h65.5375366l-0.0000305,26.8540344c0,18.9131775-5.0394897,25.4251709-32.7747803,30.3196411c-21.4102173,3.5843201-43.2362671,3.5457458-65.4649963-0.0000305c-17.7892761-2.9608459-32.7747803-16.3027954-32.7747803-34.0679016v-62.4074402c0.0000305-18.3089294,14.5504761-33.3065186,32.7748108-33.3065186l65.4710388-0.0060425C431.2921448,364.9057007,450.0180054,345.8172913,450.0180359,324.184967z M391.6433716,466.6629333c0,11.6731262,12.5328674,19.0084534,22.5050354,13.1719055c9.972168-5.8365784,9.972168-20.5072327,0-26.3437805C404.1762695,447.65448,391.6433716,454.9898071,391.6433716,466.6629333z"/>
</svg>
