<svg version="1.1" xmlns="http://www.w3.org/2000/svg" xmlns:xlink="http://www.w3.org/1999/xlink" x="0px" y="0px"
     width="16px" height="16px" viewBox="-48 -48 608 608" preserveAspectRatio="xMidYMid meet">
    <path id="file_type_ai.svg" class="i-color" fill="#C792EA"
          d="M250.4050598,207.9624786c-5.3855286,1.4482574-13.5402985-1.0723114-18.8576508,3.902832c-0.003006-0.0058136-0.0062866-0.0115662-0.0092926-0.0173798C199.2826233,143.5717316,170.053894,31.3371906,208.3075104,1.9980919C269.6961975,24.1392155,258.1853638,171.587326,250.4050598,207.9624786z M279.0184326,215.4884796c1.7359314,0.3803864,4.0606079,1.0955963,6.3334961,2.4051208c51.399353-35.3435822,86.8453674-93.0803986,106.4616394-148.7783813c2.3197937-25.3272514-1.2628784-36.5529633-9.0984802-37.6180496C326.0231934,34.5493164,271.4985962,187.4572601,279.0184326,215.4884796z M256.3101807,204.9708862c-0.3710022,1.4134369-0.0809937,1.916214,0.9054565,2.5738373c7.6587524,5.105835,14.7788696,5.660675,15.512146,3.8546295c5.1971436-46.1635132,20.6933899-90.692894,48.0934448-133.3335876c5.2676086-45.8671036-9.6335754-71.396637-18.4058533-75.9717407c-9.5489807-4.9801798-33.6855164,17.3225746-44.0652161,67.0236664C261.8130798,102.6024246,268.7704163,146.4336853,256.3101807,204.9708862z M185.9223938,77.3627396c-24.5620575-35.9895134-57.23172-50.2286987-64.2925644-43.7590141c-7.7844772,7.1327057-12.9071121,36.8192101,24.9589157,100.9141083c23.6210785,20.6254578,57.8794708,55.7060547,76.5037384,84.3698578c0.9425049-2.2085266,2.8198242-4.0011444,5.3754272-5.4921875C212.2014008,181.7419891,198.4845734,138.631958,185.9223938,77.3627396z M302.3681335,243.008606c0.2693787,2.2120056,0.7106628,7.8878021-0.9966431,12.8424225c38.6891479,14.6989594,131.4859924,8.9191132,160.7996521,1.8814545c29.7377625-7.1394653,54.4094238-26.5788269,49.1071167-38.656311c-4.4680176-10.1771545-14.3353271-15.0223694-24.8739319-17.3226318C411.514679,199.1961365,349.6277466,216.6386566,302.3681335,243.008606z M298.2456665,228.9272003c1.5752258,2.119278,2.914856,4.494278,3.6980591,6.7727966c46.3991089-25.3132019,99.1088562-38.1158142,151.9753723-40.4182892c26.0537109-20.1785126,64.000885-59.1834412,8.3924866-59.8873444c-12.0874634-0.1530151-32.5427856,6.2563171-52.5162354,13.6693115C379.6086426,177.4680939,345.1560059,207.3987579,298.2456665,228.9272003z M417.1840515,132.8765869c11.4038086-14.6853409,20.8187256-31.0356369,23.567627-53.0265121c2.0463562-16.3711586-13.0707092-20.1828003-44.5050659-3.7465363c-22.5213623,61.6337814-61.0483704,111.3796768-107.8493652,144.0158386c1.9710693,0.5354614,3.710968,2.8265228,4.7235718,3.561142C323.9614868,216.2602692,387.8191223,163.3653107,417.1840515,132.8765869z M262.0451965,295.4433594l-7.4768066,2.1990967c-6.028244,25.1784058-8.9762726,62.7197876-10.8559723,104.5492249c7.9048615,84.8013611,34.3744659,110.0902405,43.9270782,108.3092346c20.9742126-2.3591614,25.9074402-51.6912537,22.3795776-72.9902344C301.5748901,386.5302124,284.3561707,326.3914185,262.0451965,295.4433594z M231.2635193,288.2705688c-1.0078125-0.5580444-2.0039825-1.1348877-2.9851074-1.7366638c-72.7768555,25.010376-168.8830566,134.637207-143.4485779,167.5091858C117.8630066,487.3126526,222.7393494,345.1631775,231.2635193,288.2705688z M225.804718,284.9346008c-4.4721985-3.0462036-8.5416565-6.7521362-11.8185425-11.7566528l-5.4610138,0.6204529c-33.411499,15.1134338-69.5126801,25.1222229-105.3218613,33.1760254c-35.9250717,19.9075623-81.3438721,57.7271423-72.0906219,76.5420227c10.2870159,20.9170227,55.3056793,3.000824,72.9211884-5.0120239C142.2942352,335.4276733,182.9603729,300.8830261,225.804718,284.9346008z M316.7011108,436.5598145c13.1291199,19.6897278,40.0397644,54.7483215,60.1929321,45.9200134c22.0041199-9.6390991,0.6181335-61.8572693-12.8192749-88.7598572c-29.4289246-27.6429749-57.1462097-58.5755005-78.7607727-101.2368164c-2.2041626-1.8419189-4.4478149-3.814209-5.8965149-5.3469238c-1.7401428,4.0942078-9.4553223,6.5776062-9.4553223,6.5776062l0.262085,2.2714844C298.7697754,343.9391174,308.248291,395.2261047,316.7011108,436.5598145z M394.6533203,324.1532898c30.5862732,8.3169556,96.8963318,23.7688904,110.6476746-4.4756775c3.9172363-8.0458374-13.8151245-34.037384-76.6722412-51.1080933c-52.3889771,5.3890686-91.703949,6.017395-129.9545288-6.8645935c-0.6954651,4.8129578-6.5377197,9.0245972-2.8127136,12.9612427C334.6155396,285.7520447,368.9084778,304.9666443,394.6533203,324.1532898z M458.1092529,420.6069031c23.8450928-26.6791077-88.6447754-123.5453796-168.0274353-140.697113c-0.594635,0.7351379-1.4277039,1.4905701-2.388855,2.3096313C324.509613,364.5305786,416.0480347,442.3656311,458.1092529,420.6069031z M169.6027527,416.1179199c-6.3178558,27.419281-13.103363,77.1280823,5.1210938,84.7906494c22.2982635,9.3754272,48.5401917-46.7677307,62.027771-89.9649353c2.2959747-45.9733887,4.963562-89.4167786,10.7232056-111.8068542l-11.3964691-3.8666687l-2.5130463,2.2338257C225.7081909,330.6552734,197.1223145,378.3882751,169.6027527,416.1179199z M41.3899231,246.40448c-22.0992222,3.5702667-42.555809,19.2033386-41.3381653,29.3122559c1.7907369,14.8676758,37.1427841,32.8918152,98.5764389,25.8974609c52.437767-9.4937439,89.9872513-22.6757812,113.2284775-31.7574463c2.0932312-4.1719666,2.3774109-9.1460571,0.1152191-15.0103302C171.2920685,254.4597321,143.0474243,229.9810486,41.3899231,246.40448z M142.4212494,139.0446625c-32.7646332-25.5794067-73.0681229-43.3739319-95.22995-35.4420776c-25.261816,9.0413513,9.3020859,48.9937897,47.206852,77.8143311c35.3706284,19.9115753,83.0287704,41.3296051,120.8774643,50.772934c1.2939148-2.0168304,5.148056-4.0105743,6.588974-7.2089844c-0.0358582-0.0070953-0.0847015-0.0016022-0.1150055-0.0137787C217.3493652,213.2455292,178.5479279,166.7685394,142.4212494,139.0446625z M210.5159149,250.7714844c-0.3344269-4.0328522,0.3430328-7.7424011,2.5685577-10.9572754l-11.5402527-7.8386078c-28.7774963-7.5791321-68.2912903-25.0487061-100.4067917-40.3044281c-83.0348511-16.7950439-138.9445496,11.3424988-62.3261185,48.5901337C130.8227844,226.1039429,172.3965302,246.9965973,210.5159149,250.7714844z"/>
</svg>
