<svg version="1.1" xmlns="http://www.w3.org/2000/svg" x="0px" y="0px"
     width="16px" height="16px" viewBox="0 0 512 512">
    <path class="st0" fill="#FFCB6B" fill-rule="nonzero"
          d="M373.1498108,249.1144104l20.6306763,12.7625122l-3.0561829,4.8542175l-22.2503967-14.5203857l-20.6117554,13.5884705l-3.15802-4.7907715l18.440918-12.1519775l-32.7561035-20.6194611c4.997345-8.4185944,8.8427124-18.0549316,11.9226074-28.500412h-24.7124634v-5.7358246h26.180603c13.128418-56.1106873-23.5205994-38.2024689-28.6607971-21.3614044l-5.3686829-2.0142822c8.0933838-24.4471436,53.4881592-37.3159332,39.9263611,23.3756866h45.93927c6.1026001-17.9302063,18.8462219-26.3842468,40.1380615-26.3842468v5.7341003c-23.0783997,0-29.5422668,9.7831268-34.1603394,20.6501465h25.0376892v5.7358246h-27.2202759c-2.8310547,9.7393188-0.691803,18.311554,6.1051025,28.3335724L373.1498108,249.1144104z M391.51828,230.1463165l-47.3491211-0.0117798l24.2287903,15.2542419L391.51828,230.1463165z M348.2529602,199.7366028c-2.4050903,8.8795624-5.6972046,17.551651-9.2486572,24.6643066h58.3650513c-5.013031-8.391571-5.8297729-18.1718292-3.7945557-24.6643066H348.2529602z M267.3063354,197.8878174c-66.0085907,16.3560638-137.8695221,59.5976257-178.065155,101.3865356c-61.17453-75.7586975-19.3613586-151.3889008,57.0237198-134.9729462c-5.8357544,23.731369,48.8878632,25.7303925,70.1775818,14.894989c-11.7942963-18.1506195-59.7711639-45.3874817-67.7822571-22.9821472c-89.691803-19.9065399-130.172287,68.3009338-65.5479279,149.5419159C46.4744339,345.9566345-3.957895,413.3730164,0.2467231,427.6301575h56.6814117c-9.0377159-30.0317688,13.6180305-75.3432617,58.5043907-85.5855103c19.0079193,18.5503845,43.2249451,38.2517395,70.181366,57.2596741h42.1215973c2.0756683-16.236969-13.2095795-24.2485657-33.3353577-18.4661255c-8.9955444-10.0175171-14.0393829-23.4007874-15.1283875-40.0229492c91.4189911,8.1010132,178.8565216,45.0185852,277.5218506,96.5569153h54.286377l0.7107849-3.5576172c1.023468-5.0662842-1.7501831-11.8521423-7.384552-18.1568298l0.0070801,0.0065308c-9.7181702-10.8746643-28.760376-16.0177307-44.6654968-15.6390686c-10.1258545-12.0545044-63.8486023-68.7728882-74.7728271-80.2918091c22.4514465-15.7565002,41.9464417-36.2340393,56.8948059-60.5462952h29.6789856v-6.3717499h-25.9184265c1.6574707-2.9237061,3.252655-5.8971863,4.7791443-8.9223938h21.1392822v-6.3738251h-18.0567932c13.4307251-29.0084229,20.839325-62.326889,20.1205444-98.774765c0.0234375,0.014389,0.0481262,0.0258636,0.0701599,0.0397797c-0.0369568-9.978653-3.1431274-52.1247787-8.8516846-63.7301407c-15.4788513,5.8820496-43.647583,24.9416428-50.0230103,44.4315796c-30.5524597-4.5621948-64.997345-4.0224152-95.164917,1.1987c-5.0405579-20.968956-30.3401184-37.0163956-49.4268494-46.0564728C255.6891632,107.7844391,255.9210205,153.4430847,267.3063354,197.8878174z M460.2440491,87.6070633c-3.438446,15.7552872-9.7349854,33.7893143-25.9728088,45.5953903c-15.9671021-4.4033356-34.2740784-6.8533249-52.9650574-7.4584427l-9.8454285,33.9686661l-15.3551331-33.6800461c-18.491394,1.0234299-36.4990234,3.8197556-52.1155701,8.289711c-17.6425476-7.5375671-25.7895203-22.9033279-30.2797241-47.4028702c-6.1416931,24.3857651-7.3564148,56.7906723-1.3003235,90.1781387l24.6986084,13.1051331l-21.5986023,1.4736481c1.1278076,4.6003265,2.4024048,9.1989441,3.8234253,13.7796173l14.0291748,5.6107635l-11.1272583,3.1153107c2.8039246,7.9028778,6.0675659,15.7133179,9.829895,23.3370209h21.8441467v6.3738251h-18.5562439c1.6203308,3.0103149,3.3191528,5.986969,5.1035156,8.9223938h13.4527283v6.3717499h-9.4017639c15.7192078,23.682251,37.1768188,44.3114624,65.5395508,58.444458c24.5429382-14.0247803,45.9972534-33.9152222,62.1947632-58.444458h-12.3185425v-6.3717499h16.3405151c1.760437-2.9151611,3.4504395-5.8887634,5.0631104-8.9223938h-21.4036255v-6.3738251h24.641449c2.4665833-5.0970306,4.7200928-10.3495026,6.7548523-15.7440033l-11.9190979-4.2910156l14.9453735-4.3405609c1.6101074-4.970993,3.0361328-10.0538635,4.2645874-15.2445984l-15.4690857-2.3432922l17.5271301-7.4488678C466.0221558,161.0457764,464.4587097,109.7522354,460.2440491,87.6070633z M108.2182846,334.8247375C101.0993423,327.5,94.6180344,320.235199,88.7994308,313.0431213c-42.2270203,45.3358765-70.8056488,90.2208862-77.9804153,105.7478943h35.7073326C44.5871773,383.4161987,69.327858,345.6531982,108.2182846,334.8247375z M457.4897156,408.4434814l-40.4931641-43.5963745l-30.0195923,7.7636719l21.8015747-16.6114502l-12.8988953-13.8873901l-22.2797852,10.1721497l13.0619507-20.096405l-7.7596741-8.3543701l-9.7428894,5.9471436c-29.660614-17.4456787-55.8771057-40.486145-75.2703247-70.5933838h-31.6048279v-6.3717499h27.6649475c-1.7249451-2.9106445-3.3874817-5.8847961-4.9858704-8.9223938h-22.6790771v-6.3738251h19.4661865c-4.6881104-9.7202301-8.7347412-20.0657654-12.0521545-31.0774841c-14.1300354,3.4928894-28.7377319,8.3200836-43.3835754,14.2228088l14.0922699,41.7564392l-42.9120483-28.7827606c-4.2608795,2.119339-8.4970703,4.3175507-12.7014618,6.5876312l14.4227295,24.8664246l-30.7152252-15.6086121c-6.6032562,3.9458466-13.0789032,8.0549622-19.3812256,12.3048706l6.7666473,24.1677856l-20.7247009-14.3110352c-14.9679947,11.0638733-28.6448746,22.8526917-40.2706757,34.9625549c6.5360336,8.1624146,14.2276382,16.7623901,23.2559357,25.7850037c9.2157135-1.8843994,22.9101257-3.1029663,52.0909729-1.1448364c0.2702026-13.5654602,2.6616821-28.7429199,7.200882-45.5032654l8.5431213,2.3147583c-4.4154816,16.3048706-6.7167358,30.9367981-6.9203796,43.8625793c92.8825226,7.9986267,180.3251801,44.6450195,279.9065552,96.6029358h43.421936C495.5858154,415.0038452,479.0502014,405.5707703,457.4897156,408.4434814z"/>
</svg>
