<svg version="1.1" xmlns="http://www.w3.org/2000/svg" width="16px" height="16px" viewBox="0 0 512 512">
    <path fill="#4DD0E1" transform="scale(0.9) translate(30 30)"
          d="M302.1640625,262.8487549C344.5,279.5779419,435.6853943,312.3843994,512,320.9387817v112.3058167H0V330.3956299c50.1189766-9.7731018,148.1865234-31.4856567,199.1640625-60.2421875C215.5403595,260.9138794,264.106781,248.8539734,302.1640625,262.8487549z M259.3541565,180.0896454c22.8307495,0,41.1458435,6.6510468,54.075531,19.7708435c13.6064453,13.8058167,21.5336914,34.5166016,23.7107849,61.669754C381.4764099,277.6132507,449.0857849,300.2467041,512,307.5250244v-94.1905823c-64.280426-9.966629-120.4884338,21.6087189-153.5786133,46.6499023c-2.5859375-32.3959961-12.559906-57.6083984-29.7989807-75.0991211c-17.1744995-17.4270782-40.6588745-26.233078-69.513031-26.1289062c-27.311203,0.0833282-50.8671875,10.1627655-68.1210938,29.1497345c-18.6246796,20.4949646-28.0284882,49.5073242-26.9829102,82.4539337C98.6276016,214.9187469,33.1227226,207.0383759,0,218.6980438v98.1658478c53.4350586-10.5335083,137.9270782-30.4859924,185.3115234-54.456543c0.5652618-24.2799377,7.9462891-45.2770081,21.4658203-60.1536407C219.8945312,187.8188171,238.1927032,180.1547546,259.3541565,180.0896454z"/>
</svg>