<svg version="1.1" xmlns="http://www.w3.org/2000/svg"
     xmlns:xlink="http://www.w3.org/1999/xlink" x="0px" y="0px"
     width="16px" height="16px" viewBox="-48 -48 608 608">
    <path fill="#7A8387"
          d="M374.8337708,462.8049622h-237.155304v26.3320618h237.155304V462.8049622z M418.6063843,421.3572388v-24.1283569H94.2580795v24.1283569H418.6063843z M434.2520142,388.8740845v-24.1230164H78.4630203v24.1230164H434.2520142z M402.8059692,453.8296814V429.706665H109.90905v24.1230164H402.8059692z M340.4688416,287.8569641l-36.3339233,0.0213928c-32.6349182-1.2727051-31.1349182-44.6060333,0-44.6302643l104.1086121,0.0000153l0.0426941-44.2401276H104.5835571l0.0320206,44.2401276l104.1086349-0.0000153c30.057312,0.4103851,33.5746765,42.9705658,0,44.6302643l-36.323288-0.0213928c-32.2779694-0.0000305-32.2779694,44.6195068,0,44.6195374h168.0679169C371.7792664,332.4765015,371.7792664,287.8569641,340.4688416,287.8569641z M109.4821701,23.9468803l0.101387,156.8860931h293.7133484l0.11203-156.8860931H109.4821701z M457.6137695,158.8496552h38.5217896c8.7566528,0,15.8644409,7.1192169,15.8644409,15.9019165v42.8544617c0,8.7827148-7.1077881,15.9019318-15.8644409,15.9019318h-38.5217896l-0.0106812,231.7948914c0,23.6202087-19.092804,42.7581482-42.646637,42.7581482H97.0435562c-23.5591888,0-42.6519966-19.1379395-42.6519966-42.7581482V233.5026245H15.8590918C7.0971036,233.5026245,0,226.3833923,0,217.6006927v-42.8544617c0-8.7826843,7.1024399-15.9019318,15.8590918-15.9019318h38.5217972l-0.021347-28.1243134l33.0148544,0.000412V3.9389844h337.2458496v126.7814102l33.0148621-0.000412L457.6137695,158.8496552z"/>
</svg>