<?xml version="1.0" encoding="UTF-8"?>
<svg width="16px" height="16px" viewBox="0 0 100 100" version="1.1" xmlns="http://www.w3.org/2000/svg">
    <g>
        <polygon id="L" fill="#F06292" transform="translate(2 2)"
                 points="52 51.6771881 64.9802401 45 64.9802401 72.6606997 82.9309238 63.4638635 83 73.8873864 52.0349946 90">

        </polygon>
        <polygon id="M" fill="#F06292" transform="translate(-2 2)"
                 points="25.9748301 78.5611499 25.9748301 55.3738974 30.3335381 80.4163366 37.4299544 84.0234248 41.9915108 63.2059631 41.9915108 85.9815932 50 90 50 51.5611499 37.8353533 45.6866449 33.9833194 64.030423 30.0976264 41.9082246 18 36 18 74.4734811">

        </polygon>
        <path d="M46.1038124,10 L36.9756967,18.1758452 C36.9756967,18.1758452 54.7855543,27.4495082 56.9490294,28.5454866 C59.1128071,29.6411584 62.1920292,31.748809 58.8631404,34.8684386 C55.5342516,37.9877616 51.872474,37.5662315 49.3758074,36.3016411 C46.8791408,35.0370507 28.4038082,25.5947756 28.4038082,25.5947756 L19,33.6878477 C19,33.6878477 37.1421412,43.0458167 40.1384437,44.6476312 C43.1344436,46.2497523 54.286221,50.211829 64.8554428,41.8655323 C75.4246647,33.5192356 73.9269673,30.4842186 73.9269673,29.8940764 C73.9269673,29.3039342 73.6773007,26.1846112 71.8464119,24.2455726 C70.0152204,22.306534 64.689301,19.5244351 62.4423011,18.3441507 C60.1953012,17.1638663 46.1038124,10 46.1038124,10 Z"
              id="U" fill="#F06292">

        </path>
    </g>
</svg>