<svg version="1.1" xmlns="http://www.w3.org/2000/svg" xmlns:xlink="http://www.w3.org/1999/xlink" x="0px" y="0px"
     width="16px" height="16px" viewBox="-48 -48 608 608" preserveAspectRatio="xMidYMid meet">
    <path class="i-color" fill="#D52A29"
          d="M284.00177,327.4552612c0,0,0.0000305-97.5122223,0.0000305-124.9859161s-16.6390076-37.1475372-16.6390076-37.1475372s20.5085449-1.1608582,29.0215149,8.1260223c32.1171265-38.695343,96.3513794-56.4951935,96.3513794-56.4951935l-44.4996033,59.9777832v150.5248413c16.2520142,27.8606873,56.8821106-12.3824768,69.6516113-29.0214844c-7.3521729,20.8954773-41.0170898,73.9081116-92.4819031,103.7035217l-34.4388428-29.7954102l-37.921402,38.695343c-40.0278625-5.0884094-83.5819702-15.8650818-118.7947235-53.7865295c17.0219421,4.9908447,25.4574127-1.2493286,25.4574127-10.0608215V221.7848206c-5.2344666-31.6560669-42.4017944-5.5836487-68.4092484,24.4102631c-21.652092,24.970932-33.3656998,52.1389923-32.92062,55.8091888c-8.4441566-78.4100037,103.1393127-180.3430176,170.0894012-197.2313232c-44.2999725,30.7534409-26.6935883,77.1878586-6.9589539,70.2226944V331.711792C241.9540253,359.1766357,262.9391479,346.219696,284.00177,327.4552612z"/>
    <path class="i-color2" fill="#D52A29"
          d="M482.0056458,256c0,124.8194885-101.1861877,226.0056763-226.0056458,226.0056763S29.9943447,380.8194885,29.9943447,256S131.1805267,29.9943371,256,29.9943371S482.0056458,131.1805267,482.0056458,256z M256-0.0000501C114.6151047-0.0000501,0,114.6150742,0,256s114.6151047,256.000061,256,256.000061S512,397.3849182,512,256S397.3848877-0.0000501,256-0.0000501z"/>
</svg>
