<svg version="1.1" xmlns="http://www.w3.org/2000/svg" xmlns:xlink="http://www.w3.org/1999/xlink" x="0px" y="0px"
     width="16px" height="16px" viewBox="0 0 512 512" preserveAspectRatio="xMidYMid meet">
    <path id="file_type_ai.svg" class="i-color" fill="#26A2C1"
          d="M466.3615417,164.7304535l-19.1654053,34.3806763h-31.1381531l19.318634-34.3806763H466.3615417z M71.6932831,164.7304535H44.3289566l18.4961624,34.6280212l28.3966904-0.1868134L71.6932831,164.7304535z M223.0652771,425.7135315l29.2245789,54.131897l29.8021545-53.7131958C263.3666077,430.2495422,242.6539764,430.1396484,223.0652771,425.7135315z M379.6715088,293.1014404c0,96.7464294-105.4529724,157.5411987-189.3597565,109.1679993c-76.026062-43.8298645-83.166481-147.7685852-21.4215088-202.8896179c-35.2328186-47.766037-24.5467987-120.4704514,32.0616608-153.105835c69.783783-40.2311592,157.4871521,10.3307991,157.4871521,90.7930908c0,24.0155487-7.8135681,45.3669281-20.631134,62.436142C363.0731201,221.9963531,379.6715088,254.719223,379.6715088,293.1014404z M241.4399719,158.5975952c16.8636475,9.7220764,38.0576172-2.4964905,38.0576172-21.9406128s-21.1940002-31.6627045-38.0576172-21.9406357S224.576355,148.8755646,241.4399719,158.5975952z M290.0096741,293.1014404c0-27.5063477-29.9817505-44.7911682-53.8376007-31.0379639c-23.8558655,13.7531738-23.8558502,48.3227539,0.0000305,62.0758972C260.0279236,337.8925476,290.0096741,320.6077881,290.0096741,293.1014404z M150.0682983,197.375351c-16.5585175-28.512558-21.3735809-64.7203522-10.249527-97.9708099l-9.9636993-17.7813416H0l38.2556305,71.7294769h40.0657578l46.5408096,82.0810699C131.2343445,221.1328278,139.6763458,208.4785156,150.0682983,197.375351z M382.3709106,235.8362732l46.3479614-82.4835968h43.9851685L512,82.8599167H378.4347839l-10.6200867,18.3437805c10.7254944,35.6403885,4.8701782,68.6543503-10.8298645,96.1715317C367.757843,209.4978027,376.4235229,222.2566833,382.3709106,235.8362732z"/>
</svg>
