<?xml version="1.0" encoding="UTF-8" standalone="no"?>
<svg xmlns="http://www.w3.org/2000/svg" height="16px" width="16px"
     viewBox="-8 -8 80 80" version="1.1">
    <path fill="#9575CD"
          d="M 25.174562,63.303243 23.830303,6.2782692 q -5.870624,2.2005633 -9.170549,6.8871188 -3.263094,4.688397 -3.263094,11.658382 0,1.589194 0.163891,2.609371 0.202562,0.977824 0.406966,1.589194 0.204404,0.570857 0.368295,0.896798 0.202562,0.325941 0.202562,0.570857 -2.16005,0 -3.8302687,-0.406966 -1.6720598,-0.44932 -2.8137747,-1.386631 -1.1012023,-0.935469 -1.7125722,-2.485992 -0.5708576,-1.54684 -0.5708576,-3.830269 0,-2.77142 1.180386,-5.461817 1.2227397,-2.688554 3.3017657,-5.095362 2.1195385,-2.4031264 4.9333125,-4.4416399 2.854287,-2.0385135 6.073187,-3.5061695 3.259412,-1.5081685 6.765563,-2.3221007 3.546682,-0.8581276 7.052852,-0.8581276 0.93731,0 1.712572,0.0405125 0.813932,0.0405125 1.627864,0.1215374 L 36.993152,52.215719 54.560829,1.1000399 h 5.82827 L 37.197556,63.305085 H 25.17272 Z"/>
</svg>