<svg version="1.1" xmlns="http://www.w3.org/2000/svg" xmlns:xlink="http://www.w3.org/1999/xlink" x="0px" y="0px"
     width="16px" height="16px" viewBox="-48 -48 608 608">
    <path fill="#7A8387"
          class="i-color"
          d="M378.0400085,424.2304993H133.9599304c-26.1040649,0-47.461937-21.3578796-47.461937-47.4619446V132.6884766c0-26.1040726,21.357872-47.4619446,47.461937-47.4619446h244.0800781c26.1040649,0,47.4619446,21.357872,47.4619446,47.4619446v244.0800781C425.5019531,402.8726196,404.1440735,424.2304993,378.0400085,424.2304993z M338.1930847,171.1712036H177.8994598v160.2936096h160.2936249V171.1712036z M182.3505402,0h-29.8509979v71.767746h29.8509979V0z M242.2298737,0h-29.8509979v71.767746h29.8509979V0z M302.1096802,0h-29.8509827v71.767746h29.8509827V0z M361.9885254,0h-29.8509827v71.767746h29.8509827V0z M73.0392303,329.6844482H0v29.8509827h73.0392303V329.6844482z M73.0392303,269.805603H0v29.8509827h73.0392303V269.805603z M73.0392303,209.9257812H0v29.8509979h73.0392303V209.9257812z M73.0392303,150.0464478H0v29.8509979h73.0392303V150.0464478z M512,329.6844482h-73.0392456v29.8509827H512V329.6844482z M512,269.805603h-73.0392456v29.8509827H512V269.805603z M512,209.9257812h-73.0392456v29.8509979H512V209.9257812z M512,150.0464478h-73.0392456v29.8509979H512V150.0464478z M182.3500519,440.2322693H152.499054V512h29.8509979V440.2322693z M242.2298737,440.2322693h-29.8509979V512h29.8509979V440.2322693z M302.1087036,440.2322693h-29.8509827V512h29.8509827V440.2322693z M361.9885254,440.2322693h-29.8509827V512h29.8509827V440.2322693z M151.5506897,128.9012756c0-12.2711411-13.375473-19.9822464-24.0180664-13.8466721c-10.6425934,6.1355667-10.6425858,21.5577774,0,27.6933517S151.5506897,141.1724243,151.5506897,128.9012756z"/>
</svg>
