<svg version="1.1" xmlns="http://www.w3.org/2000/svg"
     xmlns:xlink="http://www.w3.org/1999/xlink" x="0px" y="0px"
     width="16px" height="16px" viewBox="-48 -48 608 608" fill="#82AAFF">
    <path d="M493.6690674,54.5568657H291.6721191V13.6392803L0,65.0490494v381.9019165l291.6721191,51.4097595v-43.015686h201.9969482c10.1239014,0,18.3309326-8.2070312,18.3309326-18.3309326V72.8878098C512,62.7638969,503.7929688,54.5568657,493.6690674,54.5568657z M347.1229553,272.7172852l-55.4508362,0.0007019v-93.6006012h48.9334106l52.9016418,52.901123v89.0297089h-35.8920288l-0.0003967-37.8391418C357.5445251,277.085144,352.682312,272.7867737,347.1229553,272.7172852z M359.7899475,168.6255798L404,124.4150238l44.2100525,44.2100372L404,212.8356171L359.7899475,168.6255798z M291.6721191,293.7016602l44.9590149-0.0007629l0.0010376,77.6393433h-44.9600525V293.7016602z M146.8852386,338.3607178l-35.6721268-1.0491638L69.245903,175.7377625l31.4755402-2.0983582l28.8523331,122.7540894l29.9016266-126.9508057l35.1475525-1.5737762L146.8852386,338.3607178z M357.6157837,381.8320312l-0.0003967-39.8002014h46.3835754c5.7940674,0,10.4918213-4.6977539,10.4918213-10.4918213v-99.519455l55.9764404-55.9764252c4.5660095-4.9152985,3.6593323-11.0941315,0-14.8381348l-59.0481567-59.0476303c-4.0983582-4.0973358-10.7397766-4.0963135-14.8381348,0l-55.9754028,55.9754105h-48.9334106V80.7869492h193.0485535V427.016449H291.6721191v-34.692627l55.4518433,0.0000305C353.061554,392.2010803,357.5223083,387.8122559,357.6157837,381.8320312z"/>
</svg>