<svg version="1.1" viewBox="0 0 440 512" width="16px" height="16px" xmlns="http://www.w3.org/2000/svg">
    <path fill="#039be5"
          d="M19.4693089,328.2514343l78.7203751,61.223877c-10.2117691,21.8680725,4.3747253,119.5524597,122.4592896,122.4652405c118.0904999,2.9127808,134.1277924-102.0535583,125.3724213-125.3835754l74.3599243-58.3114929l19.4178772-223.3192749c0.5483093-6.2766037-3.7005615-13.4497681-9.4689331-15.9742126L231.1235809,1.8847885c-5.7739563-2.5244451-15.157486-2.5129418-20.9429321,0.0341613L9.5175848,90.3853836c-5.837039,2.5701065-10.0176067,9.7206116-9.4692841,16.0142975L19.4693089,328.2514343z M31.1315346,143.0970306l160.356308,102.0561523l-1.4563904,167.6525116L39.8726273,304.9266357L31.1315346,143.0970306z M249.8134308,246.6038208l158.9056549-97.6727142l-8.7553711,154.5335541L248.3485107,412.8056946L249.8134308,246.6038208z M41.2258644,105.3491287l105.1644287-46.027092l20.7595215,14.2872314l-58.5281601,64.9690552l2.5203552,0.8401184l112.3887863-44.7215652l-38.4010773,47.9778214l74.3774261-28.7866898l-35.9951477,47.9872208l40.0364075,25.5631256l-41.2942505,23.640564L41.2258644,105.3491287z M237.4416351,105.3491287l35.995163-44.3595161l-107.9760437,40.7411842l33.5892029-35.9951324l-29.1344299-19.0313606l50.7221222-23.0913963l179.4117889,81.6985779l-112.1581726,66.6896591l-36.0609894-19.8677826l55.1674957-74.3774033l-69.5655365,27.5649185L237.4416351,105.3491287z"/>
</svg>
