<svg version="1.1" viewBox="0 0 300 300" width="16px" height="16px" xmlns="http://www.w3.org/2000/svg">
    <g transform="translate(0,142.97)">
        <g>
            <g id="icon" transform="matrix(2.2365 0 0 2.2365 -188.25 -113.32)" style="fill:#7c4dff">
                <polygon points="177.3 67.39 174.19 81.38 183.87 81.38 180.3 67.39" style="fill:#7c4dff"/>
                <path transform="translate(-.21)"
                      d="m163.77 0a5.62 5.62 0 0 1 0 .58 12.34 12.34 0 0 1 -12.34 12.34 12.33 12.33 0 0 1 -12.32 -12.34 5.62 5.62 0 0 1 0 -.58h-41.47v107.62h107.62v-107.62zm-14.77 96.1-5.25-25.93h-.09l-5.66 25.93h-7.22l-8.18-38.1h7.13l4.88 25.94h.09l5.88-25.94h6.67l5.28 26.26h.1l5.56-26.26h7l-9.09 38.1zm39.26 0-2.43-8.48h-12.83l-1.87 8.48h-7.13l9.22-38.1h11.25l11.21 38.1z"
                      style="fill:#7c4dff"/>
            </g>
        </g>
    </g>
</svg>
