<svg version="1.1" viewBox="0 0 108 108" xmlns="http://www.w3.org/2000/svg" width="16px" height="16px">
    <path d="m54 10.994a43.006 43.006 0 0 0 -43.006 43.006v36.951c0 3.3552 2.7004 6.0556 6.0556 6.0556h36.948a43.006 43.006 0 0 0 .0031 0 43.006 43.006 0 0 0 43.006 -43.006 43.006 43.006 0 0 0 -43.006 -43.006zm0 11.349a31.657 31.657 0 0 1 31.657 31.657 31.657 31.657 0 0 1 -31.657 31.657 31.657 31.657 0 0 1 -31.657 -31.657 31.657 31.657 0 0 1 31.657 -31.657z"
          style="fill:#4caf50;paint-order:fill markers stroke;stroke-width:.9126"/>
</svg>
