<svg version="1.1" xmlns="http://www.w3.org/2000/svg" xmlns:xlink="http://www.w3.org/1999/xlink" x="0px" y="0px"
     width="16px" height="16px" viewBox="-48 -48 608 608" preserveAspectRatio="xMidYMid meet">
    <path id="file_type_ai.svg" class="i-color" fill="#26A2C1"
          d="M147.7326508,27.6078434c-13.8280487,0.0294113-27.3641205,7.8998165-34.3252106,19.9064045L5.1395335,236.0935211c-6.8527112,12.0387115-6.8527112,27.7742462,0,39.812973l108.2679062,188.5792542c6.9618149,12.0066833,20.4971619,19.8792114,34.3252106,19.9064026h216.5350189c13.8280029-0.0294189,27.3633423-7.8997192,34.3251953-19.9064026l108.2678833-188.5792542c6.8526917-12.0387268,6.8519592-27.7742615,0-39.812973L398.592865,47.5142479c-6.961853-12.006588-20.4971924-19.8792133-34.3251953-19.9064045H147.7326508z M187.9545746,137.9290009c1.6532745,0.034317,3.2569427,0.9923401,4.0825806,2.4312897l63.9605103,114.2015381l63.8088531-114.2015381c0.8518066-1.4825745,2.5306091-2.4458771,4.233551-2.4312897h37.3490295c3.3072815,0.0294037,5.7840271,4.2062683,4.2342224,7.1420441l-61.8452148,110.9289856l61.8452148,110.7770386c1.6965332,2.9526367-0.8411865,7.3231506-4.2342224,7.2939453h-37.3490295c-1.7326965-0.0147095-3.4214172-1.0446777-4.233551-2.5832825l-63.8088531-114.2364502l-63.9605103,114.2364502c-0.7880402,1.4950867-2.400238,2.5152283-4.0825806,2.5832825H150.605545c-3.3930817,0.0293884-5.930069-4.3413086-4.2335358-7.2939453l61.8451385-110.7770386l-61.8451385-110.9289856c-1.4825287-2.6785889,0.3262177-6.5703125,3.3257141-7.1420441H187.9545746z"/>
</svg>
