<?xml version="1.0" encoding="utf-8"?>
<svg xmlns="http://www.w3.org/2000/svg" xmlns:xlink="http://www.w3.org/1999/xlink" version="1.1" x="0px" y="0px"
     width="16px" height="16px" viewBox="0 0 512 512" fill="#64B5F6">
  <path d="M324.4514465,256.1042786c0-52.513092-57.1992188-85.5119629-102.7114868-59.2554169s-45.5122528,92.2542877,0.0000153,118.510849C267.2522278,341.6162415,324.4514465,308.6173706,324.4514465,256.1042786z"/>
  <path d="M505.3610535,232.7905884L401.0550232,51.9815674c-9.0797119-15.6429062-22.8703918-23.5951595-40.9090271-23.6153011l-208.9743652-0.0201416c-18.9817657-0.303894-33.329155,10.8727169-40.0030899,23.1120052L4.003757,237.4613495c-6.6448212,15.3204041-4.1872463,28.1591949,1.328732,40.1641693l103.1987305,178.815979c10.8965225,20.2646484,26.043396,26.7680054,39.6608582,27.1988525l213.5444336,0.0003662c14.7033081,0.5198975,31.8838196-9.5664978,38.9763489-22.9714355l104.7286987-181.4533081C514.2796631,263.8549194,514.1186523,248.1717834,505.3610535,232.7905884z M355.4973145,63.9878883c7.5458984-4.38134,17.0295105,1.1250572,17.0295105,9.8877907s-9.4836121,14.2691956-17.0295105,9.8877945C347.9513855,79.3821411,347.9513855,68.3692245,355.4973145,63.9878883z M145.0332184,63.9865456c7.599762-4.3775558,17.1510773,1.1240807,17.1510773,9.8791237c0,8.7551117-9.5513153,14.2566833-17.1510773,9.8791885C137.4334412,79.3673096,137.4334412,68.3640976,145.0332184,63.9865456z M39.750988,266.0189209c-7.5857964-4.3533936-7.5857964-15.2959442,0-19.6492615c7.5857964-4.3533783,17.1195869,1.1178589,17.1195869,9.8246155C56.870575,264.901001,47.3367844,270.3722229,39.750988,266.0189209z M144.9133453,448.3151245c-7.5439301-4.3970947-7.5439301-15.4494934,0-19.8465881c7.5438538-4.3970947,17.0249786,1.1291504,17.0249786,9.9233093C161.938324,447.1860352,152.4571991,452.7121887,144.9133453,448.3151245z M355.4830322,448.1282349c-7.552887-4.354187-7.552887-15.2986145,0-19.6527405c7.5529175-4.354187,17.0453186,1.118042,17.0453186,9.8263245C372.5283508,447.0101318,363.0359497,452.4823303,355.4830322,448.1282349z M411.6446533,259.1641235c-4.2479248,6.9255371-77.0227661,133.1306152-77.0227661,133.1306152l-152.9899445,0.0050659c-4.8524628,0.1230469-4.5041962-0.4049683-5.5162811-1.9729614L98.6058884,256.0235596l76.8856888-133.0148163c1.2884521-2.2346725,2.7379608-2.9393234,5.1941376-2.9191818l151.053421,0.0200806c3.4873047,0,4.1674194,2.013237,4.5499268,2.6977463l75.395813,130.4378662C413.0136719,255.5001373,412.9130249,257.0904541,411.6446533,259.1641235z M460.6690674,265.9674683c-7.5458679-4.3660278-7.5458679-15.3403778,0-19.7063904c7.545929-4.3660126,17.0295105,1.1211548,17.0295105,9.8531799C477.6985779,264.8463135,468.2149963,270.3334656,460.6690674,265.9674683z"/>
</svg>
