<svg xmlns="http://www.w3.org/2000/svg" viewBox="0 0 491.52 491.52"><circle cx="245.76" cy="245.76" r="245.76" fill="#334d5c"/><path d="M223.7 161.027l-12.737-19.943a13.36 13.36 0 0 0-11.26-6.17h-70.34c-5.451 0-9.869 4.419-9.869 9.869v201.954c0 5.451 4.419 9.869 9.869 9.869h232.792c5.451 0 9.869-4.419 9.869-9.869V177.065c0-5.451-4.419-9.869-9.869-9.869H234.96a13.36 13.36 0 0 1-11.26-6.169z" fill="#f6c358"/><path fill="#ebf0f3" d="M133.99 179.052h223.514v109.066H133.99z"/><path fill="#fff" d="M133.99 187.305h223.514v109.066H133.99z"/><path d="M376.647 203.603H114.873c-6.13 0-10.533 4.949-9.842 11l13.453 133.156c.56 4.903 5.429 8.847 10.879 8.847h232.792c5.451 0 10.319-3.943 10.879-8.847l13.453-133.156c.693-6.051-3.711-11-9.84-11z" fill="#fcd462"/></svg>