<svg xmlns="http://www.w3.org/2000/svg" viewBox="0 0 51 51"><path fill="#694f87" d="M25.5 29L9.7 19.973.044 25.456 25.5 40l25.456-14.544-9.656-5.483z"/><path fill="#556080" d="M25.5 40L9.7 30.973.044 36.456 25.5 51l25.456-14.544-9.656-5.483z"/><g fill="#bf4d90"><circle cx="40.044" cy="21" r="1"/><circle cx="43.044" cy="24" r="1"/><circle cx="10.044" cy="21" r="1"/><circle cx="37.044" cy="24" r="1"/><circle cx="7.044" cy="24" r="1"/><circle cx="13.044" cy="24" r="1"/><circle cx="10.044" cy="27" r="1"/><circle cx="16.044" cy="27" r="1"/><circle cx="16.044" cy="33" r="1"/><circle cx="13.044" cy="30" r="1"/><circle cx="19.044" cy="30" r="1"/><circle cx="22.044" cy="33" r="1"/><circle cx="28.044" cy="33" r="1"/><circle cx="25.044" cy="30" r="1"/><circle cx="31.044" cy="30" r="1"/><circle cx="25.044" cy="36" r="1"/><circle cx="34.044" cy="27" r="1"/><circle cx="40.044" cy="27" r="1"/><circle cx="34.044" cy="33" r="1"/><circle cx="37.044" cy="30" r="1"/><circle cx="46.044" cy="27" r="1"/></g><path fill="#bf4d90" d="M50.956 14.456L25.5 29 .044 14.456 25.5 0z"/></svg>