<svg xmlns="http://www.w3.org/2000/svg" width="16" height="16" viewBox="0 0 16 16">
  <g fill="none" fill-rule="evenodd">
    <g transform="translate(3 1)">
      <path fill="#77BBE2" d="M4.63368796,13.8346403 C2.32733203,13.6868682 0.714461538,12.1493805 0.714461538,10.2905 C0.714461538,10.2905 0.861384615,9.14934615 0.924076923,7.91203846 L0.914461538,7.91203846 C0.936,7.62242308 0.952153846,7.29973077 0.952153846,6.92319231 C0.952153846,5.38434615 0.714461538,3.5555 0.714461538,3.5555 C0.714461538,1.59973077 2.49984615,0.000115384615 4.99984615,0.000115384615 C7.49984615,0.000115384615 9.28561538,1.59973077 9.28561538,3.5555 C9.28561538,3.5555 9.13146853,4.90790166 9.07144493,6.104203 L6.3678664,6.104203 C6.02359566,6.11039673 5.70831169,6.30235898 5.53933326,6.60865961 L3.32851107,10.522488 C3.15748164,10.8263412 3.15748164,11.2000946 3.32851107,11.5039478 L4.63368796,13.8346403 Z"/>
      <path fill="#77BBE2" d="M10 2.17942308C10 2.67519231 9.62692308 3.07673077 9.16653846 3.07673077 8.70653846 3.07673077 8.33346154 2.67519231 8.33346154 2.17942308 8.33346154 1.68365385 8.70653846 1.28211538 9.16653846 1.28211538 9.62692308 1.28211538 10 1.68365385 10 2.17942308M0 2.17942308C0 2.67519231.373076923 3.07673077.833461538 3.07673077 1.29346154 3.07673077 1.66653846 2.67519231 1.66653846 2.17942308 1.66653846 1.68365385 1.29346154 1.28211538.833461538 1.28211538.373076923 1.28211538 0 1.68365385 0 2.17942308"/>
      <path fill="#FFF" d="M4.74346154,4.07788462 C4.74346154,4.91403846 4.05461538,5.59173077 3.205,5.59173077 C2.35538462,5.59173077 1.66653846,4.91403846 1.66653846,4.07788462 C1.66653846,3.24173077 2.35538462,2.56403846 3.205,2.56403846 C4.05461538,2.56403846 4.74346154,3.24173077 4.74346154,4.07788462"/>
      <path fill="#FFF" d="M4.74346154,4.07788462 C4.74346154,4.91403846 4.05461538,5.59173077 3.205,5.59173077 C2.35538462,5.59173077 1.66653846,4.91403846 1.66653846,4.07788462 C1.66653846,3.24173077 2.35538462,2.56403846 3.205,2.56403846 C4.05461538,2.56403846 4.74346154,3.24173077 4.74346154,4.07788462"/>
      <path fill="#000" d="M3.99338462,4.07338462 C3.99338462,4.48184615 3.68569231,4.81338462 3.30607692,4.81338462 C2.92684615,4.81338462 2.61915385,4.48184615 2.61915385,4.07338462 C2.61915385,3.66492308 2.92684615,3.33338462 3.30607692,3.33338462 C3.68569231,3.33338462 3.99338462,3.66492308 3.99338462,4.07338462"/>
      <path fill="#FFF" d="M8.13738462,4.07788462 C8.13738462,4.91403846 7.44853846,5.59173077 6.59892308,5.59173077 C5.74892308,5.59173077 5.06046154,4.91403846 5.06046154,4.07788462 C5.06046154,3.24173077 5.74892308,2.56403846 6.59892308,2.56403846 C7.44853846,2.56403846 8.13738462,3.24173077 8.13738462,4.07788462"/>
      <path fill="#000" d="M7.38696154,4.07338462 C7.38696154,4.48184615 7.07926923,4.81338462 6.70003846,4.81338462 C6.32042308,4.81338462 6.01273077,4.48184615 6.01273077,4.07338462 C6.01273077,3.66492308 6.32042308,3.33338462 6.70003846,3.33338462 C7.07926923,3.33338462 7.38696154,3.66492308 7.38696154,4.07338462"/>
      <polygon fill="#FFF" points="4.523 6.923 5.476 6.923 5.476 6.154 4.523 6.154"/>
      <path fill="#B7937F" d="M5.95253846,5.8975 C5.95253846,6.18057692 5.526,6.41019231 4.99984615,6.41019231 C4.47407692,6.41019231 4.04753846,6.18057692 4.04753846,5.8975 C4.04753846,5.61442308 4.47407692,5.38480769 4.99984615,5.38480769 C5.526,5.38480769 5.95253846,5.61442308 5.95253846,5.8975"/>
      <path fill="#000" d="M5.47626923,5.6325 C5.47626923,5.92057692 5.25973077,5.8975 4.99203846,5.8975 C4.72473077,5.8975 4.50780769,5.92057692 4.50780769,5.6325 C4.50780769,5.34442308 4.72473077,5.11134615 4.99203846,5.11134615 C5.25973077,5.11134615 5.47626923,5.34442308 5.47626923,5.6325"/>
      <path fill="#B7937F" fill-rule="nonzero" d="M1.19065385,1.27107692 C1.19065385,1.62492308 0.924115385,1.91223077 0.595269231,1.91223077 C0.266807692,1.91223077 -0.000115384615,1.62492308 -0.000115384615,1.27107692 C-0.000115384615,0.917230769 0.266807692,0.629923077 0.595269231,0.629923077 C0.924115385,0.629923077 1.19065385,0.917230769 1.19065385,1.27107692 M9.00015385,7.205 C9.00015385,7.55923077 8.73361538,7.84615385 8.40476923,7.84615385 C8.07630769,7.84615385 7.80938462,7.55923077 7.80938462,7.205 C7.80938462,6.85115385 8.07630769,6.56423077 8.40476923,6.56423077 C8.73361538,6.56423077 9.00015385,6.85115385 9.00015385,7.205 M2.1905,7.205 C2.1905,7.55923077 1.92396154,7.84615385 1.59511538,7.84615385 C1.26665385,7.84615385 0.999730769,7.55923077 0.999730769,7.205 C0.999730769,6.85115385 1.26665385,6.56423077 1.59511538,6.56423077 C1.92396154,6.56423077 2.1905,6.85115385 2.1905,7.205" transform="translate(0 6)"/>
    </g>
    <g transform="translate(7.2 7.97)">
      <path fill="#4285F4" d="M8.65120216,3.56527759 L6.85214612,0.436425 C6.71448486,0.192300207 6.45788847,0.0392792395 6.17767112,0.0342025862 L2.578875,0.0342025862 C2.29861825,0.0391410829 2.04195844,0.192199875 1.9044,0.436425 L0.104659914,3.55706897 C-0.0345681572,3.79934265 -0.0345681572,4.09735045 0.104659914,4.33962414 L1.90371595,7.48626207 C2.0398644,7.73385737 2.2958414,7.89196081 2.57819095,7.90284957 L6.17698707,7.90284957 C6.45932164,7.89315827 6.71575828,7.73571085 6.85214612,7.48831422 L8.65120216,4.35946164 C8.79139778,4.11329495 8.79139778,3.81144428 8.65120216,3.56527759 Z"/>
      <path fill="#000" d="M6.92739181,3.83068966 L6.88019224,3.81632457 L4.49285172,1.4283 L4.00307069,2.14450216 L4.41350172,2.55493319 L3.36895474,2.93526595 L2.95852371,3.97365647 L2.5576694,3.57280216 L1.83873103,4.20760216 L5.53261034,7.90148147 L6.17698707,7.90148147 C6.45932164,7.89179016 6.71575828,7.73434275 6.85214612,7.48694612 L8.2140931,5.1167069 L6.92739181,3.83068966 Z" opacity=".07"/>
      <g fill="#FFF" transform="translate(1.779 1.368)">
        <path fill-rule="nonzero" d="M2.59939655,1.02607759 C1.73047648,1.02607759 1.02607759,1.73047648 1.02607759,2.59939655 C1.02607759,3.46831662 1.73047648,4.17271552 2.59939655,4.17271552 C3.46831662,4.17271552 4.17271552,3.46831662 4.17271552,2.59939655 C4.17271552,2.18212642 4.0069556,1.78194658 3.71190106,1.48689204 C3.41684652,1.1918375 3.01666669,1.02607759 2.59939655,1.02607759 M2.59939655,3.79853922 C1.93890717,3.79891513 1.4030641,3.26398809 1.40230994,2.60349903 C1.40155578,1.94300998 1.93617587,1.40686066 2.59666439,1.40572825 C3.25715291,1.40459583 3.79360831,1.93890879 3.79511897,2.59939655 C3.79530046,2.91664036 3.66940304,3.2209528 3.44514192,3.44534222 C3.22088079,3.66973164 2.91664041,3.79580307 2.59939655,3.79580302"/>
        <path d="M5.07155948 2.41265043L4.41418578 2.20743491C4.44218979 2.33621395 4.45640694 2.46760797 4.45659698 2.59939655 4.45657643 2.69212246 4.44971731 2.78472058 4.43607543 2.8764375L5.07224353 2.8764375C5.12607904 2.86815373 5.16682889 2.82341438 5.17006293 2.76904138L5.17006293 2.5207306C5.16682889 2.4663576 5.12607904 2.42161825 5.07224353 2.41333448M2.59939655.742196121C2.72881964.742311601 2.85788246.755836835 2.98451767.782555172L2.74851983.127917672C2.74018043.0738433639 2.69507516.0330202388 2.64043966.0300982759L2.54193621.0300982759C2.48719277.0327601167 2.44194733.073710106 2.43385603.127917672L2.22864052.779818966C2.35023463.755249857 2.47397697.742875622 2.59802845.742880172M.742196121 2.59939655C.742064157 2.46717508.75605252 2.33531756.783923276 2.20606681L.126549569 2.41128233C.0724752605 2.41962172.0316521354 2.46472699.0287301724 2.5193625L.0287301724 2.76767328C.0319642096 2.82204628.0727140656 2.86678563.126549569 2.8750694L.762717672 2.8750694C.748978068 2.78336338.742118408 2.69075797.742196121 2.59802845"/>
        <path fill-rule="nonzero" d="M3.16237112,2.08498966 L3.00982759,2.23411293 C2.78458837,2.03627315 2.44434836,2.04764237 2.23281857,2.2600769 C2.02128878,2.47251144 2.01137182,2.81279687 2.21017112,3.03718966 L2.06104784,3.18631293 C2.2577803,3.38304539 2.5445241,3.45987816 2.81326564,3.38786909 C3.08200717,3.31586001 3.2919182,3.10594898 3.36392728,2.83720745 C3.43593635,2.56846591 3.35910358,2.28172211 3.16237112,2.08498966 M2.85454784,2.85454784 C2.75130497,2.9579857 2.59590188,2.98901162 2.46085476,2.93314788 C2.32580764,2.87728415 2.23773538,2.74554196 2.23773538,2.59939655 C2.23773538,2.45325114 2.32580764,2.32150895 2.46085476,2.26564522 C2.59590188,2.20978149 2.75130497,2.2408074 2.85454784,2.34424526 C2.92281121,2.41159928 2.96123854,2.50349842 2.96123854,2.59939655 C2.96123854,2.69529468 2.92281121,2.78719382 2.85454784,2.85454784"/>
      </g>
    </g>
  </g>
</svg>
