<svg xmlns:xlink="http://www.w3.org/1999/xlink" version="1.1"
     xmlns="http://www.w3.org/2000/svg" fill="#ab7967"
     width="16px" height="16px" viewBox="0 0 512 512">
    <path d="M128.464 166.858c-11.63 0-21.059 10.206-21.059 22.796s9.428 22.796 21.059 22.796c11.631 0 21.059-10.206 21.059-22.796s-9.429-22.796-21.059-22.796zM138.017 200.727c-2.757 0-4.994-2.625-4.994-5.862s2.236-5.862 4.994-5.862c2.758 0 4.994 2.625 4.994 5.862s-2.236 5.862-4.994 5.862zM304.449 161.229c-11.391 0-20.625 10.206-20.625 22.796s9.234 22.796 20.625 22.796c11.391 0 20.625-10.206 20.625-22.796s-9.234-22.796-20.625-22.796zM314.001 195.097c-2.638 0-4.776-2.625-4.776-5.862s2.139-5.862 4.776-5.862 4.776 2.625 4.776 5.862c0 3.238-2.139 5.862-4.776 5.862zM470.699 105.501c-15.197-4.125-31.697-1.085-47.546 9.552-14.112-11.941-30.395-21.059-48.632-28.007-32.349-11.941-70.017-16.5-121.036-16.5-54.493 4.342-94.983 12.809-128.418 29.092-13.46 6.513-25.401 14.329-35.822 23.448-16.066-9.987-32.783-12.375-48.197-7.599-14.329 4.342-26.704 14.546-34.086 27.789s-9.118 28.441-4.125 41.467c4.994 13.026 16.5 23.231 33.651 29.526-5.428 21.928-8.25 45.158-8.684 70.776-1.57 57.604 7.998 135.389 8.853 156.405h455.512c0.115-19.254 4.075-91.488-4.752-171.385-2.388-23.013-6.079-44.29-11.289-64.263 17.586-6.731 29.092-17.803 33.651-32.131 4.342-13.244 2.171-28.224-5.211-41.467-7.599-13.026-19.757-22.796-33.868-26.704zM92.208 202.464c-4.559-23.013 0.434-42.987 13.46-58.185 11.724-13.678 29.526-22.362 48.849-24.967 19.322-2.388 38.862 1.519 53.625 11.507 16.5 11.072 26.487 28.658 27.79 51.237 4.776 80.981-123.316 100.303-143.724 20.408zM245.75 317.382c-0.217 3.908-0.434 5.428-0.651 7.599-0.434 8.033-0.403 10.918 0.248 16.998-10.546 11.166-18.61 12.283-23 4.817-5.21-9.118-6.404-21.69-4.915-32.733l28.287-8.933c0 0 0.465 7.259 0.031 12.252zM282.557 332.959c0 4.125-0.217 7.816-0.868 11.289-1.519 2.606-5.466 7.548-12.784 7.556s-10.401-4.245-12.789-9.673c-0.651-5.862 0.043-23.788 0.478-27.695 0.434-4.993 0.478-7.683 0.478-10.505 0 0 22.92 5.73 24.353 7.64s1.135 17.914 1.135 21.387zM303.497 301.212c-4.125 4.559-8.25 6.079-13.243 5.862-3.908-0.217-6.513-1.303-15.197-4.776-8.684-3.691-13.461-4.993-19.106-5.211-5.428-0.651-11.334 0.74-22.796 4.776-17.061 6.008-24.75 5.428-29.96-4.125-7.227-13.048 2.442-30.356 16.812-34.093-0.727-1.408-1.253-2.8-1.427-4.653-0.609-13.802 10.315-24.608 27.845-27.343 16.178-2.524 35.571 2.892 39.647 17.886 1.296 4.882 0.286 9.467-2.862 13.418 8.495 4.155 15.904 9.541 20.504 15.245 6.513 7.816 6.731 15.632-0.217 23.013zM399.541 219.196c-11.072 13.46-28.007 22.579-46.895 25.835-41.467 6.947-79.026-14.546-86.191-56.665v-0.217c-5.211-85.323 125.053-108.118 144.375-24.967 5.211 21.71 0.868 41.033-11.289 56.013zM280.539 251.023c1.003 3.787-0.099 7.078-3.368 10.059-8.736 7.967-30.468 10.959-43.869 6.040-3.754-1.377-8.346-3.99-9.012-8.627-0.314-8.481 5.565-18.46 23.019-21.184 18.379-2.865 30.834 4.923 33.23 13.712z"></path>
</svg>