<?xml version="1.0" encoding="UTF-8"?><!DOCTYPE svg PUBLIC "-//W3C//DTD SVG 1.1//EN"
        "http://www.w3.org/Graphics/SVG/1.1/DTD/svg11.dtd">
<svg xmlns:xlink="http://www.w3.org/1999/xlink" xmlns="http://www.w3.org/2000/svg"
     version="1.1" width="16px" height="16px" fill="#64B5F6"
     viewBox="0 0 24 24">
    <path d="M13,18H14A1,1 0 0,1 15,19H22V21H15A1,1 0 0,1 14,22H10A1,1 0 0,1 9,21H2V19H9A1,1 0 0,1 10,18H11V16H4A1,1 0 0,1 3,15V11A1,1 0 0,1 4,10H20A1,1 0 0,1 21,11V15A1,1 0 0,1 20,16H13V18M4,2H20A1,1 0 0,1 21,3V7A1,1 0 0,1 20,8H4A1,1 0 0,1 3,7V3A1,1 0 0,1 4,2M9,6H10V4H9V6M9,14H10V12H9V14M5,4V6H7V4H5M5,12V14H7V12H5Z"/>
</svg>