<svg xmlns="http://www.w3.org/2000/svg" width="16px" height="16px" viewBox="0 0 16 16">
    <title>monoRemote(Gray)</title>
    <g>
        <rect width="16" height="16" opacity="0"/>
        <g>
            <rect x="1" y="1" width="14" height="14" fill="#323232"/>
            <path d="M6,10.533s4.847,2.054,5.208,2.177c.221.075.268.063.3.024a5.019,5.019,0,0,0,.589-1.381c-1.43-.781-2.674-1.915-2.674-2.97a.408.408,0,0,1,.12-.18c.375.507,2.96,2.4,3.054,1.838a4.905,4.905,0,0,0-.244-3.136c-.409-.085-2.227-.821-2.371-1.474a.635.635,0,0,1,.065-.392,10.772,10.772,0,0,0,2.967.809c.348-.011.325-.147.353-.416a6.038,6.038,0,0,0-.537-2.34,1.746,1.746,0,0,0-.574-.634c-.947-.7-4.234-1.748-6.233-.6a7.923,7.923,0,0,0,1.944.871A.4.4,0,0,1,7.9,2.9c-.917.254-3.3-.659-3.553-.533A.992.992,0,0,0,3.771,3C3.51,4.166,5.522,5.008,6.522,5.62c0,.024-.017.117-.047.141a9.292,9.292,0,0,1-2.517-.386A16.693,16.693,0,0,1,1,6.375V15H2.048C3.208,13.948,6,10.533,6,10.533Z"
                  fill="#ebebeb"/>
        </g>
    </g>
</svg>
