<svg version="1.1" xmlns="http://www.w3.org/2000/svg" viewBox="-108 -48 608 608" width="16px" height="16px">
    <path class="i-color" fill="#82AAFF"
          d="M236.2612457,502.2596741C236.6685791,507.7453308,241.2379303,512,246.7514343,512h63.9774475c6.7553101-0.1248169,10.3252258-5.1048889,10.5117493-11.0423279c-2.7295227-46.7346802-21.9910889-94.4091187-66.5043945-150.9375916c-2.807663-3.5048828-1.6321106-7.8583069,0.5183411-10.0549927c65.8276062-64.4341736,123.4204712-127.1692505,132.1941528-206.2883911c0.7394104-7.1416092-6.3196411-13.980545-14.2203369-10.863533c-22.7296448,8.6913834-45.8110046,15.2939987-66.877655,20.1996536c-4.2978516,1.0027313-7.7688599,4.1929779-9.2066345,8.0280304c-15.3495178,42.043808-54.542511,82.0790863-95.6638336,124.0118561c-4.9648895,4.7658386-10.1095734,4.9152527-15.4512787,0c-41.1151428-41.9358215-80.3080902-81.8291931-95.6637878-123.8760834c-1.4408493-3.8288879-4.9118423-7.0191345-9.2004547-8.0249481c-21.0789871-4.9087677-44.2189522-11.7150116-66.9177628-20.4032898c-9.3730793-3.0111847-14.8934011,4.9326401-14.1863298,10.7308197C12.0348148,280.158905,227.2366943,380.4321899,236.2612457,502.2596741z M76.771225,512h63.8694611c5.4949799,0,10.1229706-4.2978821,10.5271454-9.7804871c1.3914948-18.7187195,7.2196808-37.4837036,17.8301392-57.2020264c3.6746368-6.8216858,0.8207092-13.2298889-1.2989044-15.9696655c-10.5240784-13.6927795-23.4176636-28.2925415-42.5991974-48.3070679c-5.0887756-5.032196-13.12397-3.8704834-16.1486053,1.7401123c-26.9102631,40.9485168-40.8097,79.6015015-42.7318649,118.4428101C66.1063156,507.0841675,70.5260544,511.7893982,76.771225,512z M229.5815735,154.41008c4.9488831,0,9.6786652,4.0541229,9.6786652,9.7311096c-3.5388794,16.1301117-23.2078705,44.2837524-38.1223145,58.5102539c-3.4737244,3.4844513-10.5475464,4.1492462-14.7695312,0c-15.4697571-14.5170288-36.717041-45.4406738-38.1254272-58.5102539c0-5.6769867,4.7359924-9.7311096,9.6848755-9.7311096C180.7078705,156.0443573,206.0250397,155.9743195,229.5815735,154.41008z M66.6504974,93.3292084c-22.3284264-12.8850098-22.3284302-45.2724266-0.0000076-58.1574402s50.3905029,3.3087006,50.3905029,29.0787201S88.97892,106.2142181,66.6504974,93.3292084z M176.91716,62.6795235c-22.3284149-12.885006-22.3284302-45.2724304,0-58.1574364s50.3905029,3.3086972,50.3905029,29.0787182S199.2455902,75.5645294,176.91716,62.6795235z M287.196167,93.3292084c-22.3284302-12.8850098-22.3284302-45.2724266,0-58.1574402s50.3905029,3.3087006,50.3905029,29.0787201S309.5245972,106.2142181,287.196167,93.3292084z"/>
</svg>
