<svg xmlns="http://www.w3.org/2000/svg" viewBox="0 0 512 512"><path d="M35.31 317.794a8.829 8.829 0 0 1 8.828-8.828h8.828l29.497-29.497c-18.685-29.841-29.497-65.113-29.497-102.916 0-42.941 13.963-82.604 37.559-114.759H26.483C11.857 61.794 0 73.65 0 88.276v273.655l35.31-35.31v-8.827zm450.207-256H403.82c23.596 32.154 37.559 71.818 37.559 114.759 0 11.103-.946 21.983-2.734 32.576L512 282.483V88.276c0-14.626-11.857-26.482-26.483-26.482z" fill="#b9ebff"/><path d="M233.931 313.38l13.241-13.241c-10.422 0-20.54-1.297-30.208-3.725l16.967 16.966zM82.463 279.469l33.811-33.811c6.194-6.194 14.116-9.597 22.215-10.226-9.504-17.504-14.902-37.561-14.902-58.88 0-52.098 32.281-96.578 77.897-114.759H90.525c-23.596 32.154-37.559 71.818-37.559 114.759 0 37.803 10.812 73.076 29.497 102.917zm288.296-102.917c0 .573-.014 1.141-.022 1.711 13.507-7.821 31.085-5.958 42.645 5.602l25.262 25.262a195.373 195.373 0 0 0 2.734-32.576c0-42.941-13.963-82.604-37.559-114.759H292.862c45.615 18.182 77.897 62.662 77.897 114.76z" fill="#d2f5f0"/><path d="M123.586 176.552c0 21.319 5.398 41.376 14.901 58.88 9.931-.772 20.127 2.631 27.722 10.226l50.754 50.754a123.797 123.797 0 0 0 30.209 3.726l116.274-116.274a35.34 35.34 0 0 1 7.292-5.602c.008-.57.022-1.139.022-1.711 0-52.098-32.281-96.578-77.897-114.759h-91.38c-45.615 18.182-77.897 62.662-77.897 114.76zm123.586-70.62c39.002 0 70.621 31.618 70.621 70.621s-31.618 70.621-70.621 70.621-70.621-31.618-70.621-70.621 31.619-70.621 70.621-70.621z" fill="#fcffdc"/><path d="M247.172 247.173c39.002 0 70.621-31.618 70.621-70.621s-31.618-70.621-70.621-70.621-70.621 31.618-70.621 70.621 31.619 70.621 70.621 70.621zm0-105.931c19.501 0 35.31 15.809 35.31 35.31s-15.809 35.31-35.31 35.31-35.31-15.809-35.31-35.31 15.809-35.31 35.31-35.31z" fill="#fff5a5"/><circle cx="247.172" cy="176.552" r="35.31" fill="#ffdc69"/><path d="M413.382 183.865c-11.56-11.56-29.138-13.423-42.645-5.602a35.333 35.333 0 0 0-7.292 5.602L247.172 300.138l-13.241 13.241 136.828 136.828h114.759c14.626 0 26.483-11.857 26.483-26.483V282.483l-73.355-73.355-25.264-25.263z" fill="#b4ebbe"/><path d="M233.931 313.38l-16.967-16.967-50.754-50.754c-7.596-7.596-17.791-10.998-27.722-10.226-8.098.63-16.021 4.032-22.215 10.226l-33.81 33.811-29.497 29.496H185.38a8.829 8.829 0 0 1 8.828 8.828v17.655a8.829 8.829 0 0 1-8.828 8.828H44.138a8.829 8.829 0 0 1-8.828-8.828v-8.828L0 361.932v61.793c0 2.285.289 4.503.834 6.618a26.328 26.328 0 0 0 3.688 8.189 26.631 26.631 0 0 0 9.337 8.479 26.219 26.219 0 0 0 6.005 2.362c2.115.545 4.333.834 6.618.834h344.275L233.931 313.38zm-110.345 92.69a8.829 8.829 0 0 1-8.828 8.828h-70.62a8.829 8.829 0 0 1 0-17.656h70.621a8.827 8.827 0 0 1 8.827 8.828zm61.793-26.483H44.138a8.829 8.829 0 0 1 0-17.656h141.241a8.829 8.829 0 0 1 0 17.656z" fill="#a0d778"/><path d="M35.31 317.794v17.656a8.829 8.829 0 0 0 8.828 8.828h141.241a8.829 8.829 0 0 0 8.828-8.828v-17.655a8.829 8.829 0 0 0-8.828-8.828H44.138a8.827 8.827 0 0 0-8.828 8.827z" fill="#fff5a5"/><path d="M185.379 361.932H44.138a8.829 8.829 0 0 0 0 17.656h141.241a8.829 8.829 0 0 0 0-17.656zm-70.62 35.31H44.138a8.829 8.829 0 0 0 0 17.656h70.621a8.829 8.829 0 0 0 0-17.656z" fill="#73b96e"/></svg>