<svg xmlns="http://www.w3.org/2000/svg" viewBox="0 0 511.999 511.999"><g fill="#cdd4d5"><path d="M370.885 327.27L186.862 143.248a7.998 7.998 0 0 0-11.312 0l-30.169 30.167a7.996 7.996 0 0 0 0 11.312l184.023 184.024a7.996 7.996 0 0 0 11.312 0l30.167-30.169a7.996 7.996 0 0 0 .002-11.312z"/><path d="M214.012 73.862L144.626 4.476a8 8 0 0 0-11.313 0l-30.166 30.167a7.998 7.998 0 0 0 0 11.312l51.662 51.662-55.056 55.056-51.663-51.66a7.998 7.998 0 0 0-11.312 0L6.61 131.18a7.998 7.998 0 0 0 0 11.312l69.386 69.386a7.998 7.998 0 0 0 6.381 2.31l66.37-6.034a8.007 8.007 0 0 0 4.932-2.31l54.302-54.302a7.996 7.996 0 0 0 2.31-4.932l6.034-66.37a8.001 8.001 0 0 0-2.313-6.378z"/></g><path d="M167.172 76.537a7.972 7.972 0 0 1-5.656-2.343l-21.332-21.332a7.998 7.998 0 0 1 0-11.312 7.998 7.998 0 0 1 11.312 0l21.332 21.332a7.998 7.998 0 0 1-5.656 13.655z" fill="#fff"/><path d="M509.657 369.506l-69.386-69.386a7.999 7.999 0 0 0-6.38-2.31l-66.37 6.034a8.007 8.007 0 0 0-4.932 2.31l-54.302 54.302a7.996 7.996 0 0 0-2.31 4.932l-6.034 66.37a7.994 7.994 0 0 0 2.31 6.38l69.386 69.386a7.976 7.976 0 0 0 5.656 2.343 7.972 7.972 0 0 0 5.656-2.343l30.167-30.167a7.998 7.998 0 0 0 0-11.312l-51.662-51.662 55.056-55.056 51.662 51.662a7.998 7.998 0 0 0 11.312 0l30.167-30.167a8 8 0 0 0 .004-11.316z" fill="#cdd4d5"/><path d="M160.98 157.816l-15.6 15.599a7.996 7.996 0 0 0 0 11.312l184.024 184.024a7.996 7.996 0 0 0 11.312 0l15.599-15.6L160.98 157.816z" fill="#687f82"/><path d="M127.796 124.631l-28.044 28.044-51.662-51.662a7.998 7.998 0 0 0-11.312 0L6.61 131.18a7.998 7.998 0 0 0 0 11.312l69.386 69.386a7.998 7.998 0 0 0 6.381 2.31l66.37-6.034a8.007 8.007 0 0 0 4.932-2.31l27.666-27.666-53.549-53.547zm180.491 235.824a7.996 7.996 0 0 0-2.31 4.932l-6.034 66.37a7.994 7.994 0 0 0 2.31 6.38l69.386 69.386a7.976 7.976 0 0 0 5.656 2.343 7.972 7.972 0 0 0 5.656-2.343l30.167-30.167a7.998 7.998 0 0 0 0-11.312l-51.662-51.663 28.044-28.044-53.547-53.547-27.666 27.665z" fill="#9baaab"/><g fill="#cdd4d5"><path d="M363.602 145.459l-24.134-24.135a7.998 7.998 0 0 0-11.312 0l-159.89 159.889a8 8 0 0 0 0 11.313L192.4 316.66a7.976 7.976 0 0 0 5.656 2.343 7.97 7.97 0 0 0 5.656-2.343l159.889-159.889a7.997 7.997 0 0 0 .001-11.312z"/><path d="M463.155 45.905L439.021 21.77a7.995 7.995 0 0 0-8.967-1.625l-66.37 30.169a7.988 7.988 0 0 0-2.346 1.625l-51.283 51.285a7.998 7.998 0 0 0 0 11.312l60.335 60.335a7.968 7.968 0 0 0 5.656 2.343 7.972 7.972 0 0 0 5.656-2.343l51.285-51.285a7.982 7.982 0 0 0 1.625-2.346l30.167-66.37a7.99 7.99 0 0 0-1.624-8.965z"/></g><path d="M200.696 362.666L122.26 284.23a7.998 7.998 0 0 0-11.312 0l-93.52 93.52a8 8 0 0 0 0 11.313l78.436 78.436a7.976 7.976 0 0 0 5.656 2.343 7.972 7.972 0 0 0 5.656-2.343l93.52-93.52a8 8 0 0 0 0-11.313z" fill="#fd6a33"/><path d="M122.26 284.23a7.998 7.998 0 0 0-11.312 0l-93.52 93.52a8 8 0 0 0 0 11.313l38.888 38.889 104.833-104.833-38.889-38.889z" fill="#ff8c29"/><path d="M62.297 433.936l-11.313-11.313 104.831-104.831 11.313 11.313zm24.14 18.101l-11.313-11.313L176.938 338.91l11.313 11.313z" fill="#365558"/><path d="M44.202 409.808L32.89 398.495l101.814-101.814 11.313 11.313zm116.945-86.694L56.316 427.944l-5.324-5.324 104.83-104.83zm190.059-190.052L180.004 304.263l12.396 12.396a7.976 7.976 0 0 0 5.656 2.343 7.97 7.97 0 0 0 5.656-2.343l159.89-159.889a7.998 7.998 0 0 0 0-11.312l-12.396-12.396z" fill="#687f82"/><path d="M450.759 33.508L339.893 144.375l30.497 30.497a7.968 7.968 0 0 0 5.656 2.343 7.972 7.972 0 0 0 5.656-2.343l51.285-51.285a7.982 7.982 0 0 0 1.625-2.346l30.167-66.37a8 8 0 0 0-1.625-8.967l-12.395-12.396z" fill="#9baaab"/><path d="M74.371 484.926c1.327 0 2.663-.33 3.882-1.007l27.15-15.084-89.314-89.313-15.082 27.151a8 8 0 0 0 1.336 9.541l66.37 66.369a7.99 7.99 0 0 0 5.658 2.343z" fill="#ff8c29"/><path d="M16.091 379.522L1.007 406.673a8 8 0 0 0 1.336 9.541l32.855 32.855 25.22-25.22-44.327-44.327z" fill="#ffd1a9"/><path d="M164.495 266.13a8.004 8.004 0 0 0-8.808-1.696l-42.235 18.101 88.94 88.94 18.101-42.235a8.001 8.001 0 0 0-1.696-8.808l-54.302-54.302z" fill="#ff8c29"/><path d="M164.495 266.13a8.004 8.004 0 0 0-8.808-1.696l-42.235 18.101 44.141 44.141 33.723-33.723-26.821-26.823z" fill="#ffd1a9"/><path d="M353.575 117.36a7.972 7.972 0 0 1-5.656-2.343 7.998 7.998 0 0 1 0-11.312l25.598-25.598a7.998 7.998 0 0 1 11.312 0 7.998 7.998 0 0 1 0 11.312l-25.598 25.598a7.976 7.976 0 0 1-5.656 2.343z" fill="#fff"/></svg>