<?xml version="1.0" encoding="iso-8859-1"?>
<!-- Generator: Adobe Illustrator 16.0.0, SVG Export Plug-In . SVG Version: 6.00 Build 0)  -->
<!DOCTYPE svg PUBLIC "-//W3C//DTD SVG 1.1//EN" "http://www.w3.org/Graphics/SVG/1.1/DTD/svg11.dtd">
<svg version="1.1" id="Capa_1" xmlns="http://www.w3.org/2000/svg"
     x="0px" y="0px"
     width="16px" height="16px" viewBox="0 0 531.921 531.921"
     xml:space="preserve" fill="#F06292">
<g>
	<path d="M13.01,253.731L158.187,6.44c2.32-3.972,6.797-6.44,11.694-6.44c4.885,0,9.363,2.468,11.683,6.434l98.629,167.989
		l-13.645,7.105L188.42,43.737c-2.825-4.8-8.26-7.439-13.781-6.659c-5.509,0.769-10.025,4.788-11.423,10.181L109.24,265.813
		c-1.052,3.623-0.567,7.524,1.339,10.775c1.912,3.263,5.071,5.598,8.745,6.466c17.389,4.067,35.334,6.136,53.347,6.136l0,0
		c1.848,0,3.674-0.035,5.485-0.071l0.083,17.579c-3.877,0.142-7.788,0.236-11.76,0.236h-0.023
		c-52.278,0-102.188-12.282-148.325-36.517c-3.147-1.655-5.382-4.339-6.301-7.589C10.953,259.754,11.381,256.521,13.01,253.731z
		 M200.567,251.409c0.012-2.506,1.431-4.803,3.662-5.926l152.438-79.467c1.75-0.877,3.783-0.943,5.586-0.186l154.218,74.688
		c0.13,0.062,0.236,0.153,0.372,0.225c0.148,0.074,0.319,0.109,0.455,0.201c0.154,0.083,0.272,0.21,0.414,0.319
		c0.225,0.151,0.426,0.31,0.627,0.497c0.248,0.225,0.461,0.461,0.674,0.721c0.165,0.198,0.319,0.399,0.461,0.63
		c0.189,0.283,0.331,0.594,0.461,0.896c0.106,0.236,0.213,0.461,0.283,0.694c0.106,0.357,0.154,0.709,0.213,1.079
		c0.024,0.189,0.095,0.37,0.106,0.556c0,0.05-0.023,0.098-0.012,0.142c0,0.059,0.012,0.118,0.012,0.174v197.443
		c0,2.441-1.336,4.688-3.487,5.863l-149.654,81.161c-0.976,0.532-2.069,0.804-3.15,0.804c-1.183,0-2.364-0.319-3.417-0.945
		c-0.603-0.367-1.123-0.84-1.572-1.359h-0.018c-1.094,0-2.175-0.272-3.15-0.793L204.51,449.449c-2.143-1.141-3.488-3.398-3.5-5.828
		l-0.89-189.768c0-0.816,0.186-1.599,0.473-2.344C200.594,251.473,200.567,251.444,200.567,251.409z M370.895,514.107
		l136.332-73.985V257.81l-136.332,76.195V514.107z M364.162,322.515l134.346-75.126l-138.59-68.092l-138.022,72.206L364.162,322.515
		z M121.558,468.262c3.559,1.963,7.256,3.807,11.065,5.532l-6.218,1.797c-2.329,0.674-4.256,2.211-5.423,4.339
		s-1.439,4.581-0.769,6.916c1.351,4.651,6.585,7.542,11.239,6.188l30.142-8.73c2.332-0.674,4.268-2.211,5.435-4.338
		c1.159-2.129,1.431-4.581,0.757-6.904l-8.722-30.156c-1.348-4.658-6.584-7.543-11.239-6.195c-2.329,0.674-4.256,2.223-5.423,4.345
		c-1.167,2.134-1.439,4.581-0.769,6.91l3.298,11.396c-5.095-2.074-9.998-4.403-14.611-6.939
		C58.732,412.985,64.735,328.16,64.809,327.302c0.295-3.558-1.537-6.975-4.667-8.7c-1.126-0.627-2.355-0.993-3.632-1.1
		c-4.962-0.413-9.375,3.304-9.788,8.287C46.633,326.759,39.848,423.246,121.558,468.262z"/>
</g>
</svg>
