<svg version="1.1" xmlns="http://www.w3.org/2000/svg" xmlns:xlink="http://www.w3.org/1999/xlink" x="0px" y="0px"
     width="16px" height="16px" viewBox="-48 -48 608 608">
    <path class="i-color" fill="#497CE3"
          d="M502.3232117,96.9997559l-23.34375,234.3022156L251.5939026,512L25.0729313,333.8957214L0,100.4580917L252.4584808,230.111084L502.3232117,96.9997559z M190.2084503,73.9845505c0-21.2984428-59.2934418-34.6822357-106.4720383-24.0330162s-47.1785736,37.4168129,0.0000153,48.0660286S190.2084503,95.2829895,190.2084503,73.9845505z M453.4569397,74.7453842c0-23.632515-59.293457-38.4830322-106.4720459-26.6667709s-47.1785583,41.5172882,0.0000305,53.3335419S453.4569397,98.3778992,453.4569397,74.7453842z M330.9627075,140.5594788c0-26.8433838-66.6078186-43.711586-119.606308-30.2898941s-52.9984589,47.1581039,0.0000153,60.5797806C264.3549194,184.2710571,330.9627075,167.4028625,330.9627075,140.5594788z M317.9027405,26.9332638c0-20.656374-54.9568787-33.6367035-98.6849365-23.3085136s-43.7280426,36.2888412,0.0000153,46.6170273S317.9027405,47.5896378,317.9027405,26.9332638z"/>
</svg>
