<svg version="1.1" xmlns="http://www.w3.org/2000/svg" xmlns:xlink="http://www.w3.org/1999/xlink" x="0px" y="0px"
     width="16px" height="16px" viewBox="0 0 1000 1000" fill="#4DB6AC">
    <g>
        <g id="_x33_e91140ac1bfb9903b91c1b0ca08f2d2">
            <path d="M990,388.8l-338.6-49.7l-1.7-3.5c5.3-23.3,8.6-47.2,9.4-70.8c1.5-42.2-0.6-84.8-25.8-110.9c-9.4-9.8-26.4-21.4-53.4-21.4c-8.5,0-17.7,1.2-27.7,3.5L500,29L364.8,306c-7.4,9.7-16,21.4-25.1,34.4L10,388.8l245,241.4L197.2,971l205.1-109c7.1,3.9,13.8,5.5,21.3,5.5c6.6,0,28.1-3,97.4-22.9c9.8-2.8,18.9-5.6,27.9-8.5L802.8,971L745,630.2L990,388.8z M509.7,805.6L509.7,805.6c-40.7,11.7-79.4,21.3-86.1,21.3c-11.8-0.2-86.8-105.5-79.4-111.5c2-1.6,36.2-13.4,75.8-26.2c159.4-51.3,209.9-92.1,209.8-169.5l-0.1-53.5l-0.1,0.1v-0.1l-24.4,39.4c-47.5,76.5-111,117.6-179,117.6c-3.8,0-7.6-0.1-11.4-0.4c-11.5-0.8-23.1-2.7-34.7-5.8c-49.9-13.4-78.3-53.2-78.3-109.6c0-72.2,187.2-313.7,256.7-331.1c3.5-0.9,6.8-1.5,10-2c0.7-0.1,1.3-0.2,2-0.3c3.3-0.5,6.5-0.7,9.4-0.7c30.9,0,40.9,25.9,38.6,90.3c-0.1,2.6-0.3,5.1-0.4,7.7l-0.1-0.2c-7.3,125-84.4,234.9-155.4,234.9c-10.9,0-21.7-2.6-32-8.1c-22.6-12.1-25.9-23.6-20.6-70.9c6-53.5,51.7-137.6,74.8-137.6c19.9,0.1,23.4,48.3,5.9,80c-20.7,37.3-23.5,85.8-5.8,96.8c2.5,1.6,5.2,2.3,8,2.3c0,0,0,0,0,0c0,0,0,0,0.1,0c37.6,0,97.4-134.2,97.4-227.4c0-29.1-8.4-43.6-24.5-43.6c0,0,0,0,0,0c0,0,0,0-0.1,0c-19.5,0-50.2,21.2-91.2,63.3C372.7,365.6,332.7,472.7,369.4,542.4c19.2,36.4,34.6,46.6,77.3,48c2.9,0.1,5.9,0.1,9,0.2c0.1,0,0.2,0,0.3,0c57,0,124.7-68.4,147.2-148.9c10.8-38.4,23.8-60.9,31.9-61c4.7,0.1,7.8,7.7,7.8,24.4c0,13.3,11.9,58.8,26.4,101C732,688.2,698.3,751.4,509.7,805.6z"/>
        </g>
    </g>
</svg>