<svg version="1.1" xmlns="http://www.w3.org/2000/svg" xmlns:xlink="http://www.w3.org/1999/xlink" x="0px" y="0px"
     width="16px" height="16px" viewBox="0 0 512 512">
    <path fill="#26A2C1"
          d="M256.1332703,91.1320801l58.7727661,97.7242279c-10.7150879,0.7224274-21.2452393,6.4132233-29.1922913,17.8500671c-6.8828735-7.0974274-14.9291077-14.1357727-29.1452942-14.6971436c-17.2826233-2.9707336-26.4981384,4.6971283-38.1289978,18.0317688c-3.4550476-11.5791016-16.8452606-14.317276-28.4935303-8.8661957C189.9459229,201.1748047,256.1332703,91.1320724,256.1332703,91.1320801z M111.1422729,164.6900482c-1.5969009,45.5962524-33.9519043,86.2027893-57.1423607,71.3610535c-17.5228195-14.262558,4.733902-50.3523254,18.7498512-63.0833282c-1.0397644,9.7303009,7.8096466,15.8075867,0.7375717,24.4408722c-14.1664391,17.2937927-8.5921173,29.7687683-2.4844513,31.6985779c16.3032379,5.1512604,31.9096603-39.0134888,31.9096603-69.9879608c0-19.8626556-11.6234283-19.4946899-34.5105743,4.3153992c-31.2479973,32.5079956-48.117569,63.9839783-36.8785667,85.5626526c6.2623901,12.0235901,15.4164696,20.6724243,30.4733429,18.8700562c29.4044151-3.5198364,47.1510353-39.8836365,49.0678902-63.2010193c4.6894073-0.1173706,3.4490509,0.2823792,4.6971588-0.6669159c0,4.1136932,5.6436234,24.0036163,10.0930786,37.0732269c5.8230286,22.3125305,30.6520233,67.0800476-43.5166931,84.5033875c-14.0294724,3.5352173-19.5434151,4.7114868-33.3847961,10.1608276c-6.7858582-14.0549011-8.380394-18.5910645-22.1659565-32.1693726c18.7037334-6.5298462,18.8370609-5.8851624,30.900362-10.0823364c46.6450348-16.229187,60.6693649-30.1010742,59.0445175-49.9017487c0,0,0.5690613-10.2046967-5.9005661-18.71315c-3.2653961,11.3920593-9.3166885,20.5177765-9.3166885,20.5177765c-13.8704834,21.6181488-41.1822433,35.0030365-65.4497375,26.4808807c-13.2712135-4.660553-18.9827557-14.8210754-18.9827557-32.2870636c0-22.3293915,50.9097137-86.9508972,75.8921967-97.9203796C110.6231079,136.4102783,111.3813095,150.9729004,111.1422729,164.6900482z M317.8563232,206.039444c8.2565918,0.1539154,17.2742615,4.2129364,23.3693848,10.7884979c18.8843384,20.3728943,16.8242798,45.048584,5.2018433,60.5725708c-13.8266602,18.4680176-48.7096863,10.2755737-56.9482727-15.5354614c-3.8278198-11.9922791,3.0090942-41.7014923,15.100769-51.6278992C308.2304688,207.240448,312.9023743,205.9470978,317.8563232,206.039444z M250.6985321,208.1186829c1.2204895,0.0293732,2.4672546,0.2133331,3.7266846,0.5492401c15.9768524,0.9655151,19.3717499,9.9237061,22.2823944,17.8108368c7.3348694,19.8755035,5.4992371,38.4988098-9.5884094,53.7463684c-22.5994568,22.8388672-48.9333801,12.7472534-48.8350067-18.0462341C218.7507324,240.2804718,232.3912506,207.6776123,250.6985321,208.1186829z M310.0924072,209.3348389c-12.1838989,9.1147003-13.7623596,32.5121002-2.5620728,41.1924744c4.4031982,4.1108551,6.8501282,6.9740601,19.4874268,8.1207886c8.6780701,0.7874756,22.3751221-8.0141449,23.0588074-16.7515869c0.3092041-3.9514771-0.4020386-10.5726776-9.9378052-21.3023987c-7.9871521-8.9872742-18.3881836-11.0771942-21.0013428-9.5331116c-8.409668,4.969162,0.6749268,8.92099,3.9595947,12.2008209c5.1633606,5.155777,6.4013062,7.410675,3.9984131,8.9446411c-4.7791138,3.0509033-10.0913696,2.6150665-11.8399658,1.8046265C311.9310303,232.4703217,300.7778625,226.194046,310.0924072,209.3348389z M429.5789795,209.4133148c5.3076782,8.2693634,6.8398132,10.0577087,12.771637,30.6785736c7.6603394,26.6299744,17.3856812,36.9797058,25.9702454,32.130127c23.5287781-13.2918396,4.6745911-46.9477386-3.6102295-62.7694855c5.3089905-0.0750732,4.257843,0.2204437,9.0838013,0.1569214c3.8216553,14.9742279,2.7528687,12.3111572,12.9656982,57.6302338c12.2202759,54.2266846,14.0470276,68.6645203-16.8088684,93.01651c-14.1792908,11.1905518-35.0654907,11.7801819-52.988678,10.7885132l-20.2250061-2.9815674c13.9367371-9.1410522,17.3216248-17.7023621,17.2358704-35.5039673c40.6273804,17.0333252,62.2765198,4.2016296,70.9233093-16.7123718c4.1636353-10.0706482,2.7194824-23.3592529-1.2810669-46.7632751c0.2507324,19.0710754-0.1618652,22.585907-2.6785278,32.0124207c-5.0487366,18.9105225-17.4026794,24.1918335-25.8150024,10.7885132c-3.2370911-5.1576233-10.9750671-22.2867737-13.3539124-40.7216797c-2.3788147-18.434967-4.2020264-44.3711853-15.9160156-55.1979218C427.1333618,213.4155731,428.4589539,210.5451508,429.5789795,209.4133148z M389.9442444,209.7271576c8.2002258,2.1791077,18.1767883,6.5062408,23.5435486,16.544342c7.4129028,13.8653717,12.3222961,21.2454071,11.9182434,46.0045013c-0.4312744,26.4321899-10.8224182,33.5229492-17.6824646,34.5084534c-8.8609619,1.2729797-24.2223511,1.0905457-33.3460083-50.8040314c-3.0223694-17.19104-8.5409851-33.5497131-14.3244324-38.9170837c2.8720703-3.4669647,3.0988159-3.0329285,5.2406311-6.473114c2.9131165,3.1853485,5.4285583,8.5700989,9.4719543,24.7154846c6.4338989,25.6904144,12.3089294,30.9933929,23.6799011,32.443985c17.7644043,2.2662048,24.7497253-24.8176727,10.131897-44.2524872c-3.2084961-4.2658386-11.598175-9.7555237-16.0079041-7.4884186c0.2551575,7.4911041,3.6066589,5.1382599,3.6440125,10.096756c-0.8370667,5.8949738-1.690155,6.9496613-3.5909729,10.1809387c-4.5141907-1.7740784-6.7059021-2.4754333-10.6465454-9.2584991C376.9953308,217.1843567,380.2319946,207.9443512,389.9442444,209.7271576z M243.7886505,212.1594696c-8.359024,5.8881073-18.8642731,25.420929-9.6660461,42.9186249c4.5423126,6.5016479,9.4407501,11.8265686,20.3026123,9.5331116c7.7613068-1.6387634,21.3229218-10.8048096,23.2140656-23.8131714c1.6210022-11.1501007-14.5029297-32.6764832-23.4858398-27.6577911c-10.3989716,5.809845-4.0565491,9.9781952,2.367981,16.2415924c5.874115,5.7267914,1.65625,9.1792755-2.4456177,10.8669739c-8.2109375,3.3783417-12.8112335,0.0898743-14.8678894-6.4338684C237.1513062,227.2911682,238.9265442,221.7344055,243.7886505,212.1594696z M152.6403656,214.1994781c1.7855377,5.4682922,3.2150116,12.7511597,6.9487,19.811615c0.8787231,0.7302704,4.1802521,0.0385284,8.5402985-4.9823303c2.7459869-3.1622162,5.8659668-7.5617523,11.3352966-14.7115936c3.3297119,3.0309296,3.6199188,5.2854614,4.5419006,6.9438782c2.2966309,4.131073,7.1411896,3.8047333,8.6567535,3.3738556c5.3490448-5.294754,6.1983337-8.7295532,9.7437134-9.1800385c0.3293152,6.8472595,0.6609344,11.1113586-8.190918,21.4985504c-5.1851654,6.0845032-13.1373444,6.229599-15.9160156,5.4530945c-3.8294983-1.0701752-6.3116608-3.4304504-12.3506775-6.5081787c-8.2073517,1.2588806-6.0324402,10.0089111-4.574646,17.3751526c3.8432159,19.4197845,15.9317627,27.1616364,26.4749298,21.4593048c3.6683502-1.9840393,2.8291779-1.9721069,9.8989716-4.864624c-1.1838379,12.324707-1.8929138,14.7121277,0.3105469,28.4816589c-17.1976318,9.5717773-31.1942902,7.9170837-35.015213-16.0846863c-2.8998108-20.1132812-8.3034973-44.5231476-13.1986542-49.4701996c-4.6222687-4.6710205-6.521698-6.1984711-6.521698-6.1984711L152.6403656,214.1994781z M0.0019402,244.485733c-0.1460577,17.2158051,9.2824488,32.2263641,25.5044022,41.0355682c-3.3635445,1.7215271-10.196764,4.4081726-12.228158,8.1992493c-9.2996683,17.3554993,4.4006281,21.3637085,13.2762785,35.1901245c10.0092049,18.0758972,12.1635399,30.0357971,35.791626,19.8900757c8.0980721-3.4772339,17.8670006-4.7260437,24.1069221-6.6692505c-22.0156631,34.7512817-27.4806709,44.3058472-66.0320282,104.1384583c154.1943054-60.1881714,158.3356934-61.6773987,234.5865021-91.8199768c109.6228943,42.5376587,115.912384,46.0365295,236.2945557,91.9180298c-16.8152466-26.2468872-28.3047791-42.6983643-40.5276184-63.4364014c4.8141479-0.3890686,15.3634949-1.449707,24.7292786-7.4023743c6.7593384-4.2961121,14.6980286-9.1382141,21.854187-18.2546387c14.0777283-17.934082,17.5301819-40.5791016,12.3834229-68.8502808c-2.4473267-13.4432983-6.1367798-23.8121948-6.7546082-26.9908752c-2.4474182-12.5919189-11.6070251-49.9801941-11.6070251-49.9801941c-1.1228943-13.1532898-7.7359619-19.9176025-28.02771-19.2623749c-7.587677,1.242981-12.3608398,3.8352966-15.9160156,14.1623535c-11.3427734-20.9121246-27.0137939-14.7597504-33.6565552-4.4723206c-8.7612305-8.9495697-29.1743774-11.961731-39.4406738-5.4138641c-7.56604-3.541153-16.3594971-3.5553436-24.0680847,5.6492462c-5.5832214-4.6593933-7.2997131-5.9741669-19.5262146-10.8669586L255.7450562,65.6319809L176.863739,197.3301849c-4.9046173,1.8379517-5.4496765,1.3216248-10.8306427,6.5907898c-13.0181885-14.9254608-28.5131836-1.3147125-32.6860352,7.0223389c-1.8137817-18.0326233-4.8101501-18.0410919-8.8508835-22.0870209c2.3341904-15.7737885,10.0370255-41.4792786-7.6862793-59.9056091c-34.2755661-23.1207275-73.9338837,33.4012146-96.0395432,63.0048676C6.3565531,213.0177765-0.1289307,228.532074,0.0019402,244.485733z M363.4692688,281.990509c3.3277283,13.6668701,8.0206909,20.3648376,8.0206909,20.3648376c6.4219666,11.0480347,14.4498901,17.3192444,26.715332,20.4793701c2.6999512,4.3272095,3.6516724,5.1804199,4.7200928,7.5076904c1.1688232,14.5386963,0.3262939,16.344574-10.9666443,24.6176147c-6.6289978,6.4908447-6.9116516,15.7868347-0.0735168,24.4408569c7.3517761,6.9689331,15.0775757,9.4831238,43.7107849,2.0400085c5.5349426,9.5123901,13.2722168,20.7540283,24.6504211,38.6817017c-38.3241882-14.4417114-91.1748657-35.0600586-204.4236908-79.1287842c0,0-132.5204468,51.4500427-203.5696716,79.1680298c29.7156601-46.8740234,32.1673279-50.8225708,53.2992401-83.6403503c7.1534119-2.7861938,4.7427292-1.6428528,11.1023788-4.9038391c14.5959015-7.771637,26.306839-19.360321,32.6860657-36.406311c11.6956329,26.3737793,24.7594604,29.404541,52.0181732,20.8316345c5.6242065-2.5897217,12.0835419-6.3688049,13.4703827-16.4769897c14.6055145,13.1521301,45.5253754,15.5838623,68.0894623-12.122345C302.374176,310.2113342,346.5465698,312.3782654,363.4692688,281.990509z M432.0245667,309.4521484c0,0,1.299408,4.1055908,2.0574646,5.3746338c-3.2290649,0.107605-6.793396,0.0391541-6.793396,0.0391541C428.9057007,313.5363159,430.2078552,311.9135437,432.0245667,309.4521484z"/>
</svg>