<svg version="1.1" xmlns="http://www.w3.org/2000/svg" xmlns:xlink="http://www.w3.org/1999/xlink" x="0px" y="0px"
     viewBox="-78 -48 608 608" width="16px" height="16px">
    <path class="i-color" fill="#D52A29"
          d="M242.3771973,187.7129517L178.7664642,0h270.246582l-63.8298035,188.2586975c-2.7666931,0.6633148-5.4637146,1.4998779-8.0830383,2.5057831L314.045166,62.1327477L250.8069458,190.00354C248.0740662,189.0613403,245.2614441,188.2865448,242.3771973,187.7129517z M34.5503006,494.9925232c85.0008163,59.7053528,179.2832031-55.823822,307.7098389-70.3771973c73.7493591-4.3694763,123.8783569-49.5187988,95.3154907-119.4093323c-53.1042786,32.7087402-102.7355652-10.1530151-102.3883362-53.1634369h-40.353241c-1.3252869,38.3990021-30.2075806,68.6092072-74.9790649,64.1187897c-35.0441284,52.4248352-75.6598053,81.8801575-121.7457352,96.8512268c-31.1488266-14.3746948-60.4627075-49.3892822-47.1717567-96.1579895c-5.8899345-0.6573792-11.5409737-2.1054382-16.8552513-4.2308044C-8.7602959,392.6226501-14.0536633,455.8467102,34.5503006,494.9925232z M97.8312988,252.0487061c0-30.3845367-33.1189346-49.4779663-59.4710083-34.2857056s-26.3520622,53.3791504,0.0000076,68.5714111C64.7123642,301.5266418,97.8312988,282.4332275,97.8312988,252.0487061z M269.238678,251.6722412c0-30.3845367-33.1189423-49.4779663-59.4710083-34.2857056s-26.352066,53.3791504,0.0000153,68.5713806C236.119751,301.150177,269.238678,282.0567627,269.238678,251.6722412z M440.0026855,251.6722412c0-30.3845367-33.118927-49.4779663-59.4710083-34.2857056s-26.3520508,53.3791504,0,68.5713806C406.8837585,301.150177,440.0026855,282.0567627,440.0026855,251.6722412z"/>
</svg>
