<?xml version="1.0" encoding="UTF-8"?><!DOCTYPE svg PUBLIC "-//W3C//DTD SVG 1.1//EN"
        "http://www.w3.org/Graphics/SVG/1.1/DTD/svg11.dtd">
<svg version="1.1" xmlns="http://www.w3.org/2000/svg"
     xmlns:xlink="http://www.w3.org/1999/xlink" x="0px" y="0px"
     width="16px" height="16px" viewBox="0 0 378 512">
    <path fill="#C792EA"
          d="M121.6244507,395.9629517c0,0-19.5661392,11.3712463,13.9104004,15.2346802c40.5661316,4.6202087,61.317215,3.9630127,106.0255737-4.5007019c0,0,11.749649,7.3684387,28.1791992,13.7610168C169.5092163,463.4138184,42.9018402,417.9686279,121.6244507,395.9629517z M109.3670044,339.9032288c0,0-21.9459534,16.2503662,11.5704117,19.7154846c43.3342819,4.460907,77.5675583,4.8392639,136.7937317-6.5718079c0,0,8.184906,8.3043823,21.0697021,12.8449402C157.6201935,401.3200073,22.6387177,368.6799011,109.3670044,339.9032288z M212.6244659,244.8207397c24.6886749,28.4428711-6.4921875,54.0184937-6.4921875,54.0184937s62.7112274-32.3613281,33.9146271-72.907547c-26.9046783-37.7979889-47.5163422-56.5775299,64.1451111-121.3399353C304.1920166,104.5917511,128.9046173,148.3703003,212.6244659,244.8207397z M345.1763611,437.4152832c0,0,14.4779358,11.9388733-15.9516602,21.1593323c-57.8520508,17.5248718-240.7879944,22.8221741-291.6101685,0.696991c-18.2617283-7.9459229,15.9914551-18.9786377,26.7652855-21.2887573c11.2318649-2.4295654,17.6642914-1.9914551,17.6642914-1.9914551c-20.3129272-14.318634-131.3171844,28.0995483-56.3783722,40.2474976C230.0298309,509.3768616,398.1891174,461.3327637,345.1763611,437.4152832z M131.0241852,281.8420715c0,0-93.071106,22.0953064-32.9687042,30.1209106c25.3712692,3.4053955,75.9544678,2.6287231,123.0924377-1.3143616c38.5149231-3.2460938,77.1891785-10.1564941,77.1891785-10.1564941s-13.5817871,5.815094-23.3997192,12.5263062c-94.4949951,24.8534851-277.0326538,13.2830811-224.4779053-12.1279907C94.9089661,279.4025269,131.0241852,281.8420715,131.0241852,281.8420715z M297.9587097,375.1322327c96.0682678-49.9061279,51.6387024-97.8805237,20.6515198-91.4281616c-7.6073914,1.5732727-10.9928894,2.9473877-10.9928894,2.9473877s2.8278809-4.421051,8.204834-6.3328552c61.3172302-21.5675659,108.4950256,63.5874634-19.7951355,97.3228455C296.0270386,377.641449,297.5206604,376.3071899,297.9587097,375.1322327z M240.0170288,0c0,0,53.2019958,53.211937-50.4537506,135.0412292c-83.1237335,65.6386719-18.9587402,103.0782318-0.0398254,145.8349609c-48.512085-43.7723846-84.1194763-82.3072205-60.2418213-118.1735077C164.3513184,110.0483475,261.4850464,84.5376816,240.0170288,0z M140.4637146,510.3925171c92.2048035,5.8947144,233.7880249-3.2659912,237.133667-46.8989868c0,0-6.4523315,16.5490417-76.1934509,29.672821c-78.7026825,14.8164673-175.7666931,13.0839233-233.3200073,3.5846252C68.0839157,496.7509766,79.8634338,506.5091553,140.4637146,510.3925171z"/>
</svg>