<?xml version="1.0" encoding="iso-8859-1"?>
<!-- Generator: Adobe Illustrator 17.1.0, SVG Export Plug-In . SVG Version: 6.00 Build 0)  -->
<!DOCTYPE svg PUBLIC "-//W3C//DTD SVG 1.1//EN" "http://www.w3.org/Graphics/SVG/1.1/DTD/svg11.dtd">
<svg xmlns:xlink="http://www.w3.org/1999/xlink" version="1.1" id="Capa_1" xmlns="http://www.w3.org/2000/svg" x="0px" y="0px"
	 viewBox="0 0 289.047 289.047" fill="#FFDA44" xml:space="preserve" width="16px" height="16px">
<path d="M245.639,111.523c2.882,0,5.476-1,7.303-3h21.105c8.284,0,15-6.716,15-15s-6.716-15-15-15h-21.105c-1.827-2-4.421-3-7.303-3
	H231.19v-15h14.448c2.882,0,5.476-1,7.303-3h21.105c8.284,0,15-6.716,15-15s-6.716-15-15-15h-21.105c-1.827-2-4.421-3-7.303-3
	h-14.415c-0.768-10-9.399-19-19.924-19H77.749c-10.525,0-19.157,9-19.925,19H43.408c-2.882,0-5.476,1-7.303,3H15
	c-8.284,0-15,6.716-15,15s6.716,15,15,15h21.105c1.827,2,4.421,3,7.303,3H57.19v15H43.408c-2.882,0-5.476,1-7.303,3H15
	c-8.284,0-15,6.716-15,15s6.716,15,15,15h21.105c1.827,2,4.421,3,7.303,3H57.19v15H43.408c-2.882,0-5.476,1-7.303,3H15
	c-8.284,0-15,6.716-15,15c0,8.284,6.716,15,15,15h21.105c1.827,2,4.421,3,7.303,3H57.19v15H43.408c-2.882,0-5.476,1-7.303,3H15
	c-8.284,0-15,6.716-15,15c0,8.284,6.716,15,15,15h21.105c1.827,2,4.421,3,7.303,3H57.19v15H43.408c-2.882,0-5.476,1-7.303,3H15
	c-8.284,0-15,6.716-15,15c0,8.284,6.716,15,15,15h21.105c1.827,2,4.421,3,7.303,3h14.416c0.767,10,9.399,19,19.925,19h133.55
	c10.525,0,19.157-9,19.924-19h14.415c2.882,0,5.476-1,7.303-3h21.105c8.284,0,15-6.716,15-15c0-8.284-6.716-15-15-15h-21.105
	c-1.827-2-4.421-3-7.303-3H231.19v-15h14.448c2.882,0,5.476-1,7.303-3h21.105c8.284,0,15-6.716,15-15c0-8.284-6.716-15-15-15
	h-21.105c-1.827-2-4.421-3-7.303-3H231.19v-15h14.448c2.882,0,5.476-1,7.303-3h21.105c8.284,0,15-6.716,15-15
	c0-8.284-6.716-15-15-15h-21.105c-1.827-2-4.421-3-7.303-3H231.19v-15H245.639z M187.19,244.523h-86v-200h86V244.523z"/>
</svg>
