<?xml version="1.0" encoding="UTF-8"?><!DOCTYPE svg PUBLIC "-//W3C//DTD SVG 1.1//EN"
        "http://www.w3.org/Graphics/SVG/1.1/DTD/svg11.dtd">
<svg xmlns="http://www.w3.org/2000/svg"
     version="1.1" width="16px" height="16px" fill="#9FA8DA"
     viewBox="0 0 24 24">
    <path d="M15,5H17V3H15M19,21H21V19H19M19,13H21V11H19M19,5H21V3H19M19,17H21V15H19M15,21H17V19H15M19,9H21V7H19M3,21H5V3H3M7,5H9V3H7M7,21H9V19H7M11,5H13V3H11M11,21H13V19H11V21Z"/>
    <path d="M11,5H13V3H11M15,5H17V3H15M15,21H17V19H15M19,21H21V3H19M3,9H5V7H3M3,17H5V15H3M3,13H5V11H3M11,21H13V19H11M3,21H5V19H3M7,5H9V3H7M3,5H5V3H3M7,21H9V19H7V21Z"/>
    <path d="M5,15H3V17H5M3,21H21V19H3M5,11H3V13H5M19,9H21V7H19M19,5H21V3H19M5,7H3V9H5M19,17H21V15H19M19,13H21V11H19M17,3H15V5H17M13,3H11V5H13M5,3H3V5H5M9,3H7V5H9"/>
</svg>
