<svg clip-rule="evenodd" fill-rule="evenodd" stroke-linejoin="round"
     stroke-miterlimit="1.4142" version="1.1" viewBox="0 0 24 24"
     width="16px" height="16px"
     xml:space="preserve" xmlns="http://www.w3.org/2000/svg">
    <path d="m10 4h-6c-1.11 0-2 .89-2 2v12c0 1.097.903 2 2 2h16c1.097 0 2-.903 2-2v-10c0-1.11-.9-2-2-2h-8l-2-2z" fill="#00acc1" fill-rule="nonzero" style="fill:#C2185B"/>
    <path d="m17.293 17.786a2.3076 2.3076 0 0 1 -2.3076 -2.3076 2.3076 2.3076 0 0 1 2.3076 -2.3076 2.3076 2.3076 0 0 1 2.3076 2.3076 2.3076 2.3076 0 0 1 -2.3076 2.3076m4.8988-1.6681c.02637-.21098.04615-.42197.04615-.63954 0-.21758-.01978-.43515-.04615-.65932l1.3912-1.0747c.12527-.0989.15824-.27692.07912-.42197l-1.3186-2.2813c-.07912-.14505-.25714-.20439-.40219-.14505l-1.6417.65932c-.34285-.25714-.69888-.4813-1.1143-.64614l-.24395-1.7472c-.02637-.15824-.16483-.27692-.32966-.27692h-2.6373c-.16483 0-.30329.11868-.32966.27692l-.24395 1.7472c-.41537.16483-.77141.389-1.1143.64614l-1.6417-.65932c-.14505-.05934-.32307 0-.40219.14505l-1.3186 2.2813c-.08571.14505-.04615.32307.07912.42197l1.3912 1.0747c-.02637.22417-.04615.44174-.04615.65932s.01978.42856.04615.63954l-1.3912 1.0945c-.12527.0989-.16483.27692-.07912.42197l1.3186 2.2813c.07912.14505.25714.1978.40219.14505l1.6417-.66592c.34285.26373.69888.4879 1.1143.65273l.24395 1.7472c.02637.15824.16483.27692.32966.27692h2.6373c.16483 0 .30329-.11868.32966-.27692l.24395-1.7472c.41537-.17142.77141-.389 1.1143-.65273l1.6417.66592c.14505.05275.32307 0 .40219-.14505l1.3186-2.2813c.07912-.14505.04615-.32307-.07912-.42197z" fill="#80deea" stroke-width=".65932" style="fill:#F48FB1"/></svg>
