<?xml version="1.0" encoding="UTF-8"?><!DOCTYPE svg PUBLIC "-//W3C//DTD SVG 1.1//EN"
        "http://www.w3.org/Graphics/SVG/1.1/DTD/svg11.dtd">
<svg version="1.1" id="Layer_1" xmlns="http://www.w3.org/2000/svg" xmlns:xlink="http://www.w3.org/1999/xlink" x="0px"
     y="0px"
     viewBox="0 0 512.002 512.002" width="16px" height="16px" xml:space="preserve" fill="#32C7BA">
<g>
<g>
<g>
<path d="M481.683,30.32c-40.425-40.425-105.965-40.425-146.39,0l-79.29,79.29l146.388,146.388l79.292-79.292
C522.108,136.285,522.108,70.741,481.683,30.32z"/>
    <path d="M176.709,30.32c-40.425-40.425-105.965-40.425-146.39,0c-40.425,40.425-40.425,105.965,0,146.39L109.611,256
l-79.292,79.292c-40.425,40.425-40.425,105.965,0,146.39s105.965,40.425,146.39,0l79.292-79.292L109.616,256l146.387-146.39
l-0.002,0.002L176.709,30.32z"/>
    <rect x="402.39" y="255.999" width="0.002" height="0.002"/>
    <path d="M402.391,256.002L256.004,402.387l79.294,79.294c40.421,40.425,105.965,40.425,146.388,0
c40.42-40.421,40.42-105.962-0.003-146.387L402.391,256.002z"/>
</g>
</g>
</g>
    <g>
<g>
<circle cx="256.004" cy="195.623" r="25.876"/>
</g>
</g>
    <g>
<g>
<circle cx="316.386" cy="256.005" r="25.878"/>
</g>
</g>
    <g>
<g>
<circle cx="195.622" cy="256.005" r="25.878"/>
</g>
</g>
    <g>
<g>
<circle cx="256.004" cy="316.387" r="25.876"/>
</g>
</g>
</svg>
