<?xml version="1.0" encoding="UTF-8" standalone="no"?>
<svg xmlns="http://www.w3.org/2000/svg" xmlns:xlink="http://www.w3.org/1999/xlink" style="isolation:isolate"
     viewBox="0 0 768 768" width="1024" height="1024">
    <g>
        <circle vector-effect="non-scaling-stroke" cx="384" cy="384" r="192" fill="#002B36" />
        <defs>
            <filter id="Yb6dtizG9r6phDDsjrWTYYTBMxa1Fqdy" x="-200%" y="-200%" width="400%" height="400%"
                    filterUnits="objectBoundingBox" color-interpolation-filters="sRGB">
                <feOffset xmlns="http://www.w3.org/2000/svg" in="SourceGraphic" dx="2" dy="2" />
                <feGaussianBlur xmlns="http://www.w3.org/2000/svg" stdDeviation="0" result="pf_100_offsetBlur" />
                <feComposite xmlns="http://www.w3.org/2000/svg" in="SourceGraphic" in2="pf_100_offsetBlur"
                             result="pf_100_inverse" operator="out" />
                <feFlood xmlns="http://www.w3.org/2000/svg" flood-color="#000000" flood-opacity="0.5"
                         result="pf_100_color" />
                <feComposite xmlns="http://www.w3.org/2000/svg" in="pf_100_color" in2="pf_100_inverse" operator="in"
                             result="pf_100_shadow" />
                <feComposite xmlns="http://www.w3.org/2000/svg" in="pf_100_shadow" in2="SourceGraphic"
                             operator="over" />
            </filter>
        </defs>
        <g filter="url(#Yb6dtizG9r6phDDsjrWTYYTBMxa1Fqdy)">
            <path d=" M 248.917 461.144 L 299.083 304.856 C 299.589 303.28 301.344 302 303 302 L 356 302 C 357.656 302 359.409 303.281 359.913 304.858 L 382 374 L 405.051 304.846 C 405.575 303.275 407.344 302 409 302 L 462 302 C 463.656 302 465.418 303.278 465.933 304.851 L 517.067 461.149 C 517.582 462.722 516.656 464 515 464 L 450 464 C 448.344 464 446.575 462.725 446.051 461.154 L 429 410 L 412.901 461.138 C 412.404 462.718 410.656 464 409 464 L 354 464 C 352.344 464 350.596 462.718 350.099 461.138 L 334 410 L 318.852 461.124 C 318.382 462.711 316.656 464 315 464 L 251 464 C 249.344 464 248.411 462.72 248.917 461.144 Z "
                  fill="#00252E" />
        </g>
    </g>
</svg>