<?xml version="1.0" encoding="iso-8859-1"?>
<!-- Generator: Adobe Illustrator 19.0.0, SVG Export Plug-In . SVG Version: 6.00 Build 0)  -->
<svg version="1.1" id="Layer_1" xmlns="http://www.w3.org/2000/svg" xmlns:xlink="http://www.w3.org/1999/xlink" x="0px" y="0px"
	 viewBox="0 0 512 512" style="enable-background:new 0 0 512 512;" xml:space="preserve">
<g>
	<path style="fill:#B9EBFF;" d="M35.31,317.794c0-4.875,3.953-8.828,8.828-8.828h8.828l29.497-29.497
		c-18.685-29.841-29.497-65.113-29.497-102.916c0-42.941,13.963-82.604,37.559-114.759H26.483C11.857,61.794,0,73.65,0,88.276
		v273.655l35.31-35.31V317.794z"/>
	<path style="fill:#B9EBFF;" d="M485.517,61.794H403.82c23.596,32.154,37.559,71.818,37.559,114.759
		c0,11.103-0.946,21.983-2.734,32.576L512,282.483V88.276C512,73.65,500.143,61.794,485.517,61.794z"/>
</g>
<g>
	<path style="fill:#D2F5F0;" d="M233.931,313.38l13.241-13.241c-10.422,0-20.54-1.297-30.208-3.725L233.931,313.38z"/>
	<path style="fill:#D2F5F0;" d="M82.463,279.469l33.811-33.811c6.194-6.194,14.116-9.597,22.215-10.226
		c-9.504-17.504-14.902-37.561-14.902-58.88c0-52.098,32.281-96.578,77.897-114.759H90.525
		c-23.596,32.154-37.559,71.818-37.559,114.759C52.966,214.355,63.778,249.628,82.463,279.469z"/>
	<path style="fill:#D2F5F0;" d="M370.759,176.552c0,0.573-0.014,1.141-0.022,1.711c13.507-7.821,31.085-5.958,42.645,5.602
		l25.262,25.262c1.79-10.593,2.734-21.473,2.734-32.576c0-42.941-13.963-82.604-37.559-114.759H292.862
		C338.477,79.974,370.759,124.454,370.759,176.552z"/>
</g>
<path style="fill:#FCFFDC;" d="M123.586,176.552c0,21.319,5.398,41.376,14.901,58.88c9.931-0.772,20.127,2.631,27.722,10.226
	l50.754,50.754c9.67,2.43,19.787,3.726,30.209,3.726l116.274-116.274c2.23-2.23,4.686-4.093,7.292-5.602
	c0.008-0.57,0.022-1.139,0.022-1.711c0-52.098-32.281-96.578-77.897-114.759h-91.38C155.868,79.974,123.586,124.454,123.586,176.552
	z M247.172,105.932c39.002,0,70.621,31.618,70.621,70.621s-31.618,70.621-70.621,70.621s-70.621-31.618-70.621-70.621
	S208.17,105.932,247.172,105.932z"/>
<path style="fill:#FFF5A5;" d="M247.172,247.173c39.002,0,70.621-31.618,70.621-70.621s-31.618-70.621-70.621-70.621
	s-70.621,31.618-70.621,70.621S208.17,247.173,247.172,247.173z M247.172,141.242c19.501,0,35.31,15.809,35.31,35.31
	s-15.809,35.31-35.31,35.31s-35.31-15.809-35.31-35.31S227.671,141.242,247.172,141.242z"/>
<circle style="fill:#FFDC69;" cx="247.172" cy="176.552" r="35.31"/>
<path style="fill:#B4EBBE;" d="M413.382,183.865c-11.56-11.56-29.138-13.423-42.645-5.602c-2.605,1.508-5.062,3.372-7.292,5.602
	L247.172,300.138l-13.241,13.241l136.828,136.828h114.759c14.626,0,26.483-11.857,26.483-26.483V282.483l-73.355-73.355
	L413.382,183.865z"/>
<path style="fill:#A0D778;" d="M233.931,313.38l-16.967-16.967l-50.754-50.754c-7.596-7.596-17.791-10.998-27.722-10.226
	c-8.098,0.63-16.021,4.032-22.215,10.226L82.463,279.47l-29.497,29.496h132.414c4.875,0,8.828,3.953,8.828,8.828v17.655
	c0,4.875-3.953,8.828-8.828,8.828H44.138c-4.875,0-8.828-3.953-8.828-8.828v-8.828L0,361.932v61.793
	c0,2.285,0.289,4.503,0.834,6.618c0.544,2.115,1.343,4.128,2.362,6.005c0.407,0.75,0.851,1.479,1.326,2.184
	c1.903,2.817,4.335,5.249,7.153,7.153c0.704,0.476,1.433,0.919,2.184,1.326c1.876,1.02,3.89,1.819,6.005,2.362
	c2.115,0.545,4.333,0.834,6.618,0.834h191.684h152.591L233.931,313.38z M123.586,406.07c0,4.875-3.953,8.828-8.828,8.828H44.138
	c-4.875,0-8.828-3.953-8.828-8.828l0,0c0-4.875,3.953-8.828,8.828-8.828h70.621C119.634,397.242,123.586,401.194,123.586,406.07
	L123.586,406.07z M185.379,379.587H44.138c-4.875,0-8.828-3.953-8.828-8.828s3.953-8.828,8.828-8.828h141.241
	c4.875,0,8.828,3.953,8.828,8.828S190.254,379.587,185.379,379.587z"/>
<path style="fill:#FFF5A5;" d="M35.31,317.794v8.828v8.828c0,4.875,3.953,8.828,8.828,8.828h141.241
	c4.875,0,8.828-3.953,8.828-8.828v-17.655c0-4.875-3.953-8.828-8.828-8.828H52.966h-8.828
	C39.263,308.966,35.31,312.919,35.31,317.794z"/>
<g>
	<path style="fill:#73B96E;" d="M185.379,361.932H44.138c-4.875,0-8.828,3.953-8.828,8.828s3.953,8.828,8.828,8.828h141.241
		c4.875,0,8.828-3.953,8.828-8.828S190.254,361.932,185.379,361.932z"/>
	<path style="fill:#73B96E;" d="M114.759,397.242H44.138c-4.875,0-8.828,3.953-8.828,8.828l0,0c0,4.875,3.953,8.828,8.828,8.828
		h70.621c4.875,0,8.828-3.953,8.828-8.828l0,0C123.586,401.194,119.634,397.242,114.759,397.242z"/>
</g>
<g>
</g>
<g>
</g>
<g>
</g>
<g>
</g>
<g>
</g>
<g>
</g>
<g>
</g>
<g>
</g>
<g>
</g>
<g>
</g>
<g>
</g>
<g>
</g>
<g>
</g>
<g>
</g>
<g>
</g>
</svg>
