<?xml version="1.0" encoding="iso-8859-1"?>
<!-- Generator: Adobe Illustrator 19.0.0, SVG Export Plug-In . SVG Version: 6.00 Build 0)  -->
<svg version="1.1" id="Layer_1" xmlns="http://www.w3.org/2000/svg" xmlns:xlink="http://www.w3.org/1999/xlink" x="0px" y="0px"
	 viewBox="0 0 508 508" style="enable-background:new 0 0 508 508;" xml:space="preserve">
<circle style="fill:#90DFAA;" cx="254" cy="254" r="254"/>
<g>
	<rect x="296.4" y="114.8" style="fill:#324A5E;" width="31.6" height="94.8"/>
	<rect x="180" y="114.8" style="fill:#324A5E;" width="31.6" height="94.8"/>
</g>
<g>
	<path style="fill:#FFFFFF;" d="M328,118V88.8c0-8.8-7.2-15.6-15.6-15.6c-8.8,0-15.6,7.2-15.6,15.6V118H328z"/>
	<path style="fill:#FFFFFF;" d="M211.6,118V88.8c0-8.8-7.2-15.6-15.6-15.6c-8.8,0-15.6,7.2-15.6,15.6V118H211.6z"/>
</g>
<rect x="148.8" y="209.2" style="fill:#E6E9EE;" width="210.8" height="160.8"/>
<polygon style="fill:#CED5E0;" points="359.2,370 148.8,370 228.8,432.8 278.8,432.8 "/>
<path style="fill:#FFFFFF;" d="M360,222.8H148c-7.6,0-13.6-6-13.6-13.6l0,0c0-7.6,6-13.6,13.6-13.6h212c7.6,0,13.6,6,13.6,13.6l0,0
	C373.6,216.8,367.6,222.8,360,222.8z"/>
<path style="fill:#324A5E;" d="M279.2,432.8v74c-8,0.8-16.4,1.2-24.8,1.2s-16.8-0.4-25.2-1.2v-73.6h50V432.8z"/>
<g>
	<path style="fill:#CED5E0;" d="M322.4,250.8H185.6c-3.2,0-5.6-2.4-5.6-5.6l0,0c0-3.2,2.4-5.6,5.6-5.6h137.2c3.2,0,5.6,2.4,5.6,5.6
		l0,0C328,248.4,325.6,250.8,322.4,250.8z"/>
	<path style="fill:#CED5E0;" d="M322.4,270H185.6c-3.2,0-5.6-2.4-5.6-5.6l0,0c0-3.2,2.4-5.6,5.6-5.6h137.2c3.2,0,5.6,2.4,5.6,5.6
		l0,0C328,267.6,325.6,270,322.4,270z"/>
	<path style="fill:#CED5E0;" d="M322.4,289.2H185.6c-3.2,0-5.6-2.4-5.6-5.6l0,0c0-3.2,2.4-5.6,5.6-5.6h137.2c3.2,0,5.6,2.4,5.6,5.6
		l0,0C328,286.4,325.6,289.2,322.4,289.2z"/>
</g>
<circle style="fill:#324A5E;" cx="254" cy="326.8" r="22.8"/>
<g>
</g>
<g>
</g>
<g>
</g>
<g>
</g>
<g>
</g>
<g>
</g>
<g>
</g>
<g>
</g>
<g>
</g>
<g>
</g>
<g>
</g>
<g>
</g>
<g>
</g>
<g>
</g>
<g>
</g>
</svg>
