<?xml version="1.0" encoding="UTF-8" standalone="no"?>
<svg xmlns:svg="http://www.w3.org/2000/svg" xmlns="http://www.w3.org/2000/svg" version="1.1"
     viewBox="0 0 677.61096 179.54858" class="ts_full">
    <g transform="matrix(0.65068572,0,0,0.65068572,11.104727,118.00494)" class="icon">
        <path d="m 101.39622,391.43518 191.99569,0 c 5.04555,0 9.10749,46.87698 9.10749,105.10533 0,58.22836 -4.06194,105.10533 -9.10749,105.10533 l -191.99569,0 c -5.045545,0 -9.107486,-46.87697 -9.107486,-105.10533 0,-58.22835 4.061941,-105.10533 9.107486,-105.10533 z"
              class="rectangle"/>
        <path d="m 165.8125,358.21875 -5.1875,99.21875 -100.875,0 0,7.625 100.46875,0 -3.28125,62.59375 -97.1875,0 0,7.59375 96.78125,0 -5,95.5 7.625,0.40625 5.03125,-95.90625 62.5625,0 -5,95.5 7.59375,0.40625 5.03125,-95.90625 98.28125,0 0,-7.59375 -97.875,0 3.28125,-62.59375 94.59375,0 0,-7.625 -94.1875,0 5.15625,-98.84375 -7.59375,-0.375 -5.1875,99.21875 -62.5625,0 5.15625,-98.84375 -7.625,-0.375 z m 2.0625,106.84375 62.5625,0 -3.28125,62.59375 -62.5625,0 3.28125,-62.59375 z"
              class="lines"/>
    </g>
    <text x="235.15662" y="477.12143" class="gridster">
        <tspan x="235.15662" y="477.12143" id="tspan3853">Gridster</tspan>
    </text>
    <text x="304.80173" y="512.31683" class="slogan">
        <tspan x="304.80173" y="512.31683">the material experience for jekyll</tspan>
    </text>
</svg>