<?xml version="1.0" encoding="iso-8859-1"?>
<!-- Generator: Adobe Illustrator 19.0.0, SVG Export Plug-In . SVG Version: 6.00 Build 0)  -->
<svg version="1.1" id="Capa_1" xmlns="http://www.w3.org/2000/svg" xmlns:xlink="http://www.w3.org/1999/xlink" x="0px" y="0px"
	 viewBox="0 0 491.52 491.52" style="enable-background:new 0 0 491.52 491.52;" xml:space="preserve">
<circle style="fill:#334D5C;" cx="245.76" cy="245.76" r="245.76"/>
<path style="fill:#F6C358;" d="M223.7,161.027l-12.737-19.943c-2.455-3.844-6.7-6.17-11.26-6.17h-70.34
	c-5.451,0-9.869,4.419-9.869,9.869v201.954c0,5.451,4.419,9.869,9.869,9.869h232.792c5.451,0,9.869-4.419,9.869-9.869V177.065
	c0-5.451-4.419-9.869-9.869-9.869H234.96C230.399,167.196,226.154,164.87,223.7,161.027z"/>
<rect x="133.99" y="179.052" style="fill:#EBF0F3;" width="223.514" height="109.066"/>
<rect x="133.99" y="187.305" style="fill:#FFFFFF;" width="223.514" height="109.066"/>
<path style="fill:#FCD462;" d="M376.647,203.603H114.873c-6.13,0-10.533,4.949-9.842,11l13.453,133.156
	c0.56,4.903,5.429,8.847,10.879,8.847h232.792c5.451,0,10.319-3.943,10.879-8.847l13.453-133.156
	C387.18,208.552,382.776,203.603,376.647,203.603z"/>
<g>
</g>
<g>
</g>
<g>
</g>
<g>
</g>
<g>
</g>
<g>
</g>
<g>
</g>
<g>
</g>
<g>
</g>
<g>
</g>
<g>
</g>
<g>
</g>
<g>
</g>
<g>
</g>
<g>
</g>
</svg>
