<svg xmlns:xlink="http://www.w3.org/1999/xlink" version="1.1" xmlns="http://www.w3.org/2000/svg" x="0px" y="0px"
     width="16px" height="16px" viewBox="0 0 512 512" fill="#EA7130">
    <path class="i-color" mask="url(#mask)"
          d="M33.9144897,413.6118164h149.5499878v27.5949097H27.4943848c-26.3479614,0-34.1365356-13.1942139-21.729248-34.3093262l132.1444092-219.1445923V61.9752808h-26.0749512c-19.5040283,0-19.5040283-27.5949097,0.0004883-27.5949097h189.9300537c19.5045166,0,19.5045166,27.5949097,0,27.5949097h-26.0755005v132.828064h-27.9630127V61.9752808h-81.8540649v132.828064L33.9144897,413.6118164z M169.5146484,244.4245605L84.690979,386.5740051l70.6011353,0.0004578l104.3745422-112.9078064l-15.5819397-29.2420959H169.5146484z M315.5102844,254.2075195l-106.009491,113.2981567l106.009491,110.2862549l33.5378418-33.5378418l-80.6507874-76.7484131l80.6507874-79.7603149L315.5102844,254.2075195z M372.4526672,287.7453613l80.6507874,79.7603149l-80.6507874,76.7484131l33.5378418,33.5378418L512,367.5056763L405.990509,254.2075195L372.4526672,287.7453613z"/>
    <mask id="mask">
        <rect width="512" height="512" fill="#ffffff"></rect>
        <circle cx="360px" cy="360px" r="160" fill="#000000"></circle>
    </mask>
    <g transform="scale(10) translate(20 20)" fill="#EA7130">
        <path d="M14.861 0h5.232v24.22c-2.684 0.509-4.655 0.713-6.795 0.713-6.388 0-9.717-2.888-9.717-8.427 0-5.335 3.533-8.8 9.004-8.8 0.849 0 1.495 0.068 2.276 0.272v-7.979zM14.861 12.191c-0.496-0.173-1.067-0.273-1.662-0.273-0.037 0-0.074 0-0.111 0.001l0.005-0c-2.651 0-4.179 1.631-4.179 4.485 0 2.787 1.461 4.315 4.145 4.315 0.577 0 1.053-0.033 1.8-0.136v-8.393z"></path>
        <path d="M28.419 8.080v12.129c0 4.179-0.305 6.184-1.223 7.916-0.849 1.665-1.971 2.719-4.281 3.873l-4.859-2.311c2.311-1.087 3.432-2.039 4.145-3.5 0.748-1.495 0.985-3.228 0.985-7.78v-10.329h5.232zM23.187 0.028h5.232v5.368h-5.232v-5.368z"></path>
    </g>
</svg>