<svg xmlns:xlink="http://www.w3.org/1999/xlink" version="1.1" xmlns="http://www.w3.org/2000/svg" x="0px" y="0px"
     width="16px" height="16px" viewBox="0 0 512 512">
    <path fill="#8D6E63"
          d="M379.7495117,166.1924744c-3.1607361,3.1608276-87.2758484-9.272583-127.3963165-7.1119995c-54.7930298,2.9476013-81.7649841,21.9161377-91.0375519,16.0138855c-5.7773438-3.6819,3.1898804-36.3613739,16.6201172-45.8744507c6.6272125-10.4147568,56.1091614,4.8306885,111.4201965,8.5679016C328.5517273,140.4361725,364.6363525,157.8645477,379.7495117,166.1924744z M410.52771,192.5258179c116.3347778,24.5021057,128.8062134,110.4890442,56.9944763,160.1111755c-153.6337585,90.9993896-413.8161316,97.7894592-461.3693237,3.9245911c0,0-41.224987-79.9393921,89.7438202-127.6487427c31.3568115-45.3318481,27.7929535-99.4953766,52.991806-127.474762c13.5389099-11.6297607,30.6198578-16.6546478,70.2431641-11.2430344c30.9068146,3.3706741,121.3773041,19.6697159,143.2998199,27.5357208C415.0415039,135.6213531,411.9523621,165.4830322,410.52771,192.5258179z M392.1617432,241.2817535c1.1505737-9.4956512,1.3828735-52.8739929,2.1076965-67.6165924c0.9068298-18.3719025-10.3106079-30.3733673-37.5083923-40.1331329c-20.1434937-7.2276382-109.2842102-23.3584366-139.4493713-26.6481628c-25.6000214-3.1826019-47.0286865-2.9097366-56.9988098,6.8552933c-12.0686798,12.5134811-19.647995,48.1673965-29.1170044,82.0981064c-5.4315948,19.4633331-20.8212051,38.0213928-24.7289505,52.0770111c12.7636032,12.508667,40.5095749,24.4460144,99.2385941,24.4460144c19.7014771,0,84.5359497,0,125.5892029,0C364.9212341,273.1268311,389.7670593,259.7904358,392.1617432,241.2817535z M95.2101517,307.3105469c-3.9414062-6.8551025-12.2125473-33.4860535-7.7332077-53.3059845c-52.6702805,22.989975-77.7552032,60.3209076-61.0719681,93.6606293c46.8868408,76.4603882,210.8476868,61.9109497,313.2528992,36.241333c155.0076904-30.8493042,209.8478088-134.9336395,70.9909668-171.8919373c0.56427,16.9777069-3.1305237,81.2781982-3.1305237,81.2781982C408.7679749,354.1764221,135.1268768,358.3733521,95.2101517,307.3105469z"/>
</svg>