<svg clip-rule="evenodd" fill-rule="evenodd" stroke-linejoin="round"
     stroke-miterlimit="1.4142" version="1.1" width="16px" height="16px"
     viewBox="0 0 24 24" xml:space="preserve" xmlns="http://www.w3.org/2000/svg">
    <path d="m10 4h-6c-1.11 0-2 .89-2 2v12c0 1.097.903 2 2 2h16c1.097 0 2-.903 2-2v-10c0-1.11-.9-2-2-2h-8l-2-2z"
          fill="#ec407a"/>
    <g transform="matrix(1.417 0 0 1.417 -1.6462 -2.1101)" fill="#f8bbd0">
        <path d="m16.648 10.292a3.4358 3.4358 0 0 1 0 4.859c-.94056.94056-2.2872 1.2182-3.4707.84685-.67678.21171-1.4056.21171-2.0824 0-1.1835.37136-2.5301.09371-3.4707-.84685a3.4358 3.4358 0 0 1 4e-7 -4.859c.94056-.94056 2.2872-1.2182 3.4707-.84685.67678-.21171 1.4056-.21171 2.0824 0 1.1835-.37136 2.5301-.093713 3.4707.84685m-6.9414 4.859a3.4358 3.4358 0 0 1 1.1e-6 -4.859c-.51019.07289-.99609.30195-1.3883.69414a2.4541 2.4541 0 0 0 -3e-7 3.4707c.39219.39219.87808.62125 1.3883.69414m2.0824 0a3.4358 3.4358 0 0 1 0 -4.859c-.51019.07289-.99609.30195-1.3883.69414a2.4541 2.4541 0 0 0 0 3.4707c.39219.39219.87808.62125 1.3883.69414m4.1648-4.1648c-.39219-.39219-.87808-.62125-1.3883-.69414a3.4358 3.4358 0 0 1 1e-6 4.859c.51019-.07289.99609-.30195 1.3883-.69414a2.4541 2.4541 0 0 0 0 -3.4707m-3.4707 0a2.4541 2.4541 0 0 0 -1e-6 3.4707c.20824.20824.44078.37137.69414.4859.25336-.11453.4859-.27765.69414-.4859a2.4541 2.4541 0 0 0 0 -3.4707c-.20824-.20824-.44078-.37136-.69414-.4859-.25336.11453-.4859.27766-.69414.4859z"
              fill="#f8bbd0"/></g>
</svg>