<svg xmlns="http://www.w3.org/2000/svg" clip-rule="evenodd" fill-rule="evenodd" stroke-linejoin="round"
     stroke-miterlimit="1.414" viewBox="0 0 24 24" width="16px" height="16px">
    <path fill="#795548"
          d="M10 4H4c-1.11 0-2 .89-2 2v12c0 1.097.903 2 2 2h16c1.097 0 2-.903 2-2V8a2 2 0 0 0-2-2h-8l-2-2z"
          fill-rule="nonzero"/>
    <path fill="#D7CCC8"
          d="M18.046 11.194a4.929 4.929 0 0 0-4.929 4.928h-1.642l2.13 2.13.038.077 2.213-2.207h-1.643a3.83 3.83 0 0 1 3.833-3.833 3.83 3.83 0 0 1 3.833 3.833 3.83 3.83 0 0 1-3.833 3.834 3.802 3.802 0 0 1-2.705-1.128l-.778.777a4.904 4.904 0 0 0 3.483 1.446 4.929 4.929 0 0 0 0-9.857zm-.548 2.738v2.738l2.344 1.39.394-.662-1.916-1.139v-2.327z"/>
</svg>