<?xml version="1.0" encoding="UTF-8" standalone="no"?>
<svg xmlns="http://www.w3.org/2000/svg" style="isolation:isolate"
     viewBox="0 0 16 16" width="16pt" height="16pt">
    <path d=" M 6.667 2.667 L 2.667 2.667 C 1.927 2.667 1.333 3.26 1.333 4 L 1.333 12 C 1.333 12.731 1.935 13.333 2.667 13.333 L 13.333 13.333 C 14.065 13.333 14.667 12.731 14.667 12 L 14.667 5.333 C 14.667 4.593 14.067 4 13.333 4 L 8 4 L 6.667 2.667 Z "
          fill="rgb(19,23,46)"/>
    <path d=" M 15.344 9.334 L 15.344 13.111 L 14.604 12.208 L 14.192 11.223 L 14.192 11.223 L 14.584 10.223 L 15.344 9.334 Z "
          fill="rgb(171,43,74)"/>
    <path d=" M 8.432 9.334 L 8.432 13.111 L 9.086 12.235 L 9.584 11.223 L 9.584 11.223 L 9.078 10.262 L 8.432 9.334 Z "
          fill="rgb(232,122,104)"/>
    <path d=" M 14.192 11.223 L 12.013 11.353 L 9.584 11.223 L 10.598 9.334 L 11.888 7.445 L 13.291 9.519 L 14.192 11.223 Z "
          fill="rgb(215,77,78)"/>
    <path d=" M 15.344 9.334 L 14.192 11.223 L 11.888 7.445 L 15.344 9.334 Z " fill="rgb(189,50,70)"/>
    <path d=" M 11.888 7.445 L 9.584 11.223 L 8.431 9.334 L 11.888 7.445 Z " fill="rgb(241,145,117)"/>
    <path d=" M 14.192 11.223 L 13.405 12.854 L 11.888 15 L 10.327 12.782 L 9.584 11.223 L 14.192 11.223 Z "
          fill="rgb(207,57,66)"/>
    <path d=" M 11.888 15 L 8.431 13.111 L 9.584 11.223 L 11.888 15 Z " fill="rgb(224,98,91)"/>
    <path d=" M 11.888 15 L 15.344 13.111 L 14.192 11.223 L 11.888 15 Z " fill="rgb(154,36,79)"/>
</svg>