<svg clip-rule="evenodd" fill-rule="evenodd" stroke-linejoin="round"
     stroke-miterlimit="1.4142" version="1.1" viewBox="0 0 24 24"
     width="16px" height="16px"
     xml:space="preserve" xmlns="http://www.w3.org/2000/svg">
    <path d="m10 4h-6c-1.11 0-2 .89-2 2v12c0 1.097.903 2 2 2h16c1.097 0 2-.903 2-2v-10c0-1.11-.9-2-2-2h-8l-2-2z"
          fill="#D32F2F" fill-rule="nonzero"/>
    <path d="m19.262 15.092h-3.0629v-1.5314h3.0629m0 4.5943h-3.0629v-1.5314h3.0629m4.5943-4.5943h-2.1517c-.34457-.59726-.81931-1.1103-1.3936-1.5008l1.2481-1.2481-1.0797-1.0797-1.6616 1.6616c-.35223-.084234-.70446-.13017-1.0873-.13017-.38286 0-.73508.045939-1.0797.13017l-1.6693-1.6616-1.0797 1.0797 1.2405 1.2481c-.56663.39051-1.0414.90354-1.3859 1.5008h-2.1517v1.5314h1.6003c-.03829.25268-.06892.50537-.06892.76571v.76571h-1.5314v1.5314h1.5314v.76571c0 .26034.03062.51303.06892.76571h-1.6003v1.5314h2.1517c.79634 1.3706 2.2742 2.2971 3.9741 2.2971s3.1777-.92651 3.9741-2.2971h2.1517v-1.5314h-1.6003c.03829-.25268.06891-.50537.06891-.76571v-.76571h1.5314v-1.5314h-1.5314v-.76571c0-.26034-.03063-.51303-.06891-.76571h1.6003z"
          fill="#F48FB1"/></svg>
