<svg xmlns="http://www.w3.org/2000/svg" clip-rule="evenodd" fill-rule="evenodd" stroke-linejoin="round"
     stroke-miterlimit="1.414" viewBox="0 0 24 24" width="16px" height="16px">
    <path d="M10 4H4c-1.11 0-2 .89-2 2v12c0 1.097.903 2 2 2h16c1.097 0 2-.903 2-2V8a2 2 0 0 0-2-2h-8l-2-2z"
          fill="#00796B"/>
    <path fill="#e0f2f1" transform="scale(0.65) translate(14 12)"
          d="M17.8,20C17.4,21.2 16.3,22 15,22H5C3.3,22 2,20.7 2,19V18H5L14.2,18C14.6,19.2 15.7,20 17,20H17.8M19,2C20.7,2 22,3.3 22,5V6H20V5C20,4.4 19.6,4 19,4C18.4,4 18,4.4 18,5V18H17C16.4,18 16,17.6 16,17V16H5V5C5,3.3 6.3,2 8,2H19M8,6V8H15V6H8M8,10V12H14V10H8Z"/>
</svg>