<svg style="enable-background:new 0 0 24 24" version="1.1" viewBox="0 0 24 24" xml:space="preserve"
     xmlns="http://www.w3.org/2000/svg" width="16px" height="16px">
    <path class="st0" d="m10 4h-6c-1.1 0-2 .9-2 2v12c0 1.1.9 2 2 2h16c1.1 0 2-.9 2-2v-10c0-1.1-.9-2-2-2h-8l-2-2z"
          style="fill:#ef5350"/>
    <path d="m17.79 15.89h-1.18v-3.54h1.18m0 5.9h-1.18v-1.18h1.18m-.59-7.67a5.9 5.9 0 0 0-5.9 5.9 5.9 5.9 0 0 0 5.9 5.9 5.9 5.9 0 0 0 5.9-5.9 5.9 5.9 0 0 0-5.9-5.9z"
          style="fill:#ffcdd2;stroke-width:.59"/>
</svg>
