<svg clip-rule="evenodd" fill-rule="evenodd" stroke-linejoin="round"
     stroke-miterlimit="1.4142" version="1.1" viewBox="0 0 24 24"
     width="16px" height="16px"
     xml:space="preserve" xmlns="http://www.w3.org/2000/svg">
    <path d="m10 4h-6c-1.11 0-2 .89-2 2v12c0 1.097.903 2 2 2h16c1.097 0 2-.903 2-2v-10c0-1.11-.9-2-2-2h-8l-2-2z"
          fill="#039be5" fill-rule="nonzero" style="fill:#ff8a65"/>
    <path d="m20.62 15.706h-6.0845v-1.2169h6.0845m-3.0422-5.4761a6.0845 6.0845 0 0 0 -6.0845 6.0845 6.0845 6.0845 0 0 0 6.0845 6.0845 6.0845 6.0845 0 0 0 6.0845 -6.0845 6.0845 6.0845 0 0 0 -6.0845 -6.0845z"
          style="clip-rule:evenodd;fill-opacity:.94902;fill-rule:evenodd;fill:#fbe9e7;stroke-linejoin:round;stroke-miterlimit:1.4142;stroke-width:.60845"/>
</svg>