<svg clip-rule="evenodd" fill-rule="evenodd" stroke-linejoin="round" stroke-miterlimit="1.4142" version="1.1"
     viewBox="0 0 24 24" xml:space="preserve" xmlns="http://www.w3.org/2000/svg">
    <path d="m10 4h-6c-1.11 0-2 .89-2 2v12c0 1.097.903 2 2 2h16c1.097 0 2-.903 2-2v-10c0-1.11-.9-2-2-2h-8l-2-2z"
          fill="#ec407a" fill-rule="nonzero"/>
    <g transform="matrix(.038304 0 0 .038304 9.4797 7.6537)" fill="#f8bbd0" stroke="#f8bbd0" stroke-miterlimit="1.4142"
       stroke-width="9.6811">
        <g><rect transform="matrix(-.866 -.5 .5 -.866 163.32 363.31)" x="122" y="-.4" width="16.6" height="320.3"/></g>
        <g><rect x="39.8" y="272.2" width="320.3" height="16.6"/></g>
        <g><rect transform="matrix(-.866 -.5 .5 -.866 83.069 663.34)" x="37.9" y="312.2" width="185" height="16.6"/></g>
        <g><rect transform="matrix(-.866 -.5 .5 -.866 463.34 283.07)" x="177.1" y="71.1" width="185" height="16.6"/></g>
        <g><rect transform="matrix(-.5 -.866 .866 -.5 126.79 232.12)" x="122.1" y="-13" width="16.6" height="185"/></g>
        <g><rect transform="matrix(-.5 -.866 .866 -.5 266.08 473.38)" x="109.6" y="151.6" width="320.3" height="16.6"/></g>
        <g><rect x="52.5" y="107.5" width="16.6" height="185"/></g>
        <g><rect x="330.9" y="107.5" width="16.6" height="185"/></g>
        <g><rect transform="matrix(-.5 -.866 .866 -.5 126.8 714.29)" x="262.4" y="240.1" width="14.5" height="160.9"/></g>
        <path d="m369.5 297.9c-9.6 16.7-31 22.4-47.7 12.8s-22.4-31-12.8-47.7 31-22.4 47.7-12.8c16.8 9.7 22.5 31 12.8 47.7"/>
        <path d="m90.9 137c-9.6 16.7-31 22.4-47.7 12.8s-22.4-31-12.8-47.7 31-22.4 47.7-12.8c16.7 9.7 22.4 31 12.8 47.7"/>
        <path d="m30.5 297.9c-9.6-16.7-3.9-38 12.8-47.7 16.7-9.6 38-3.9 47.7 12.8 9.6 16.7 3.9 38-12.8 47.7-16.8 9.6-38.1 3.9-47.7-12.8"/>
        <path d="m309.1 137c-9.6-16.7-3.9-38 12.8-47.7 16.7-9.6 38-3.9 47.7 12.8 9.6 16.7 3.9 38-12.8 47.7-16.7 9.6-38.1 3.9-47.7-12.8"/>
        <path d="m200 395.8c-19.3 0-34.9-15.6-34.9-34.9s15.6-34.9 34.9-34.9 34.9 15.6 34.9 34.9c0 19.2-15.6 34.9-34.9 34.9"/>
        <path d="m200 74c-19.3 0-34.9-15.6-34.9-34.9s15.6-34.9 34.9-34.9 34.9 15.6 34.9 34.9-15.6 34.9-34.9 34.9"/>
    </g>
</svg>
