<svg clip-rule="evenodd" fill-rule="evenodd" stroke-linejoin="round"
     stroke-miterlimit="1.4142" version="1.1" width="16px" height="16px"
     viewBox="0 0 24 24" xml:space="preserve" xmlns="http://www.w3.org/2000/svg">
    <path d="m10 4h-6c-1.11 0-2 .89-2 2v12c0 1.097.903 2 2 2h16c1.097 0 2-.903 2-2v-10c0-1.11-.9-2-2-2h-8l-2-2z"
          fill="#e57373" fill-rule="nonzero" style="fill:#fbc02d"/>
    <path d="m11.81 9.3058h1.2739v1.2739h-1.2739v3.1847a1.2739 1.2739 0 0 1-1.2739 1.2739 1.2739 1.2739 0 0 1 1.2739 1.2739v3.1847h1.2739v1.2739h-1.2739c-.68153-.17198-1.2739-.57325-1.2739-1.2739v-2.5478a1.2739 1.2739 0 0 0-1.2739-1.2739h-.63694v-1.2739h.63694a1.2739 1.2739 0 0 0 1.2739-1.2739v-2.5478a1.2739 1.2739 0 0 1 1.2739-1.2739m8.9172 0a1.2739 1.2739 0 0 1 1.2739 1.2739v2.5478a1.2739 1.2739 0 0 0 1.2739 1.2739h.63694v1.2739h-.63694a1.2739 1.2739 0 0 0-1.2739 1.2739v2.5478a1.2739 1.2739 0 0 1-1.2739 1.2739h-1.2739v-1.2739h1.2739v-3.1847a1.2739 1.2739 0 0 1 1.2739-1.2739 1.2739 1.2739 0 0 1-1.2739-1.2739v-3.1847h-1.2739v-1.2739h1.2739m-4.4586 7.6433a.63694.63694 0 0 1 .63694.63694.63694.63694 0 0 1-.63694.63694.63694.63694 0 0 1-.63694-.63694.63694.63694 0 0 1 .63694-.63694m-2.5478 0a.63694.63694 0 0 1 .63694.63694.63694.63694 0 0 1-.63694.63694.63694.63694 0 0 1-.63694-.63694.63694.63694 0 0 1 .63694-.63694m5.0955 0a.63694.63694 0 0 1 .63694.63694.63694.63694 0 0 1-.63694.63694.63694.63694 0 0 1-.63694-.63694.63694.63694 0 0 1 .63694-.63694z"
          style="fill:#fff9c4;stroke-width:.63694"/>
</svg>
