<svg clip-rule="evenodd" fill-rule="evenodd" stroke-linejoin="round" stroke-miterlimit="1.414" version="1.1"
     width="16px" height="16px"
     viewBox="0 0 24 24" xmlns="http://www.w3.org/2000/svg">
    <path d="M10 4H4c-1.11 0-2 .89-2 2v12c0 1.097.903 2 2 2h16c1.097 0 2-.903 2-2V8a2 2 0 0 0-2-2h-8l-2-2z"
          fill="#4DD0E1" fill-rule="nonzero" style="fill:#8d6e63"/>
    <path fill="#BCAAA4" transform="scale(0.75) translate(10 10)"
          d="M12,3C9.31,3 7.41,4.22 7.41,4.22L6,9H18L16.59,4.22C16.59,4.22 14.69,3 12,3M12,11C9.27,11 5.39,11.54 5.13,11.59C4.09,11.87 3.25,12.15 2.59,12.41C1.58,12.75 1,13 1,13H23C23,13 22.42,12.75 21.41,12.41C20.75,12.15 19.89,11.87 18.84,11.59C18.84,11.59 14.82,11 12,11M7.5,14A3.5,3.5 0 0,0 4,17.5A3.5,3.5 0 0,0 7.5,21A3.5,3.5 0 0,0 11,17.5C11,17.34 11,17.18 10.97,17.03C11.29,16.96 11.63,16.9 12,16.91C12.37,16.91 12.71,16.96 13.03,17.03C13,17.18 13,17.34 13,17.5A3.5,3.5 0 0,0 16.5,21A3.5,3.5 0 0,0 20,17.5A3.5,3.5 0 0,0 16.5,14C15.03,14 13.77,14.9 13.25,16.19C12.93,16.09 12.55,16 12,16C11.45,16 11.07,16.09 10.75,16.19C10.23,14.9 8.97,14 7.5,14M7.5,15A2.5,2.5 0 0,1 10,17.5A2.5,2.5 0 0,1 7.5,20A2.5,2.5 0 0,1 5,17.5A2.5,2.5 0 0,1 7.5,15M16.5,15A2.5,2.5 0 0,1 19,17.5A2.5,2.5 0 0,1 16.5,20A2.5,2.5 0 0,1 14,17.5A2.5,2.5 0 0,1 16.5,15Z"/>
</svg>