<svg viewBox="0 0 24 24" xmlns="http://www.w3.org/2000/svg" xml:space="preserve" fill-rule="evenodd" clip-rule="evenodd"
     stroke-linejoin="round" stroke-miterlimit="1.4142">
    <path d="M10 4H4c-1.1 0-2 .9-2 2v12c0 1.1.9 2 2 2h16c1.1 0 2-.9 2-2V8c0-1.1-.9-2-2-2h-8l-2-2z" fill="#00ad9f"
          fill-rule="nonzero"/>
    <path d="M20.135 12.958l-.005-.002c-.003-.001-.006-.002-.008-.005a.039.039 0 0 1-.011-.034l.283-1.725 1.323 1.324-1.376.585a.027.027 0 0 1-.012.003h-.006l-.007-.007a.63.63 0 0 0-.181-.139zm1.92-.105l1.415 1.415c.294.295.441.441.495.612.008.025.015.05.02.076l-3.383-1.432-.005-.003c-.014-.005-.029-.011-.029-.025 0-.014.016-.021.029-.026l.005-.002 1.453-.615zm1.872 2.557c-.073.137-.215.28-.456.521l-1.596 1.595-2.064-.429-.011-.003c-.018-.002-.037-.006-.037-.022a.627.627 0 0 0-.239-.436c-.009-.008-.007-.021-.004-.033l.001-.005.388-2.383.001-.008c.002-.019.006-.04.022-.04a.631.631 0 0 0 .424-.243c.003-.003.005-.007.01-.009.011-.006.025 0 .037.005l3.524 1.49zm-2.419 2.483l-2.624 2.624.449-2.76.001-.004.002-.01c.004-.009.013-.013.023-.016l.004-.002a.686.686 0 0 0 .254-.189c.008-.01.019-.02.033-.022a.017.017 0 0 1 .01 0l1.848.38v-.001zm-3.179 3.18l-.296.295-3.27-4.725-.003-.005c-.005-.007-.011-.014-.01-.022a.035.035 0 0 1 .008-.016l.004-.004a.67.67 0 0 0 .027-.045l.008-.013.001-.001a.056.056 0 0 1 .018-.022c.008-.004.019-.002.027 0l3.622.747c.011.001.02.005.028.012.005.005.006.01.007.015a.64.64 0 0 0 .375.429c.011.006.006.017.002.029a.052.052 0 0 0-.006.016l-.542 3.31zm-.618.617c-.218.216-.346.33-.492.376a.734.734 0 0 1-.44 0c-.17-.054-.317-.201-.611-.495l-3.284-3.284.858-1.33c.004-.006.008-.012.014-.017.01-.007.023-.004.034 0a.891.891 0 0 0 .598-.03c.01-.004.019-.006.027 0a.106.106 0 0 1 .01.012l3.286 4.768zm-5.143-3.719l-.754-.753 1.488-.635a.027.027 0 0 1 .012-.003c.012 0 .02.013.026.024a.812.812 0 0 0 .048.067l.004.006c.005.006.002.013-.003.018l-.821 1.276zm-1.087-1.087l-.953-.953c-.162-.162-.28-.279-.362-.381l2.898.601.011.002c.018.003.038.006.038.023 0 .018-.022.027-.04.034l-.009.003-1.583.671zM10 15.06a.689.689 0 0 1 .033-.18c.054-.171.201-.317.495-.612l1.219-1.219c.562.815 1.125 1.629 1.69 2.442.009.013.02.027.009.038a1 1 0 0 0-.144.193.068.068 0 0 1-.018.023c-.005.003-.01.001-.016 0h-.001L10 15.06zm2.074-2.338l1.64-1.639c.154.067.715.304 1.216.516l.835.354c.011.005.021.009.026.02a.054.054 0 0 1 0 .022.732.732 0 0 0 .19.667c.011.011 0 .027-.009.04l-.005.008-1.665 2.579a.055.055 0 0 1-.016.018c-.009.006-.021.003-.031.001a.836.836 0 0 0-.198-.027c-.06 0-.125.011-.191.023-.008.001-.014.002-.02-.002a.1.1 0 0 1-.017-.019l-1.755-2.561zm1.971-1.97l2.123-2.123c.294-.294.441-.441.611-.495a.734.734 0 0 1 .44 0c.17.054.318.201.611.495l.461.46-1.51 2.338a.065.065 0 0 1-.015.018c-.009.006-.022.003-.033 0a.763.763 0 0 0-.701.135c-.01.01-.025.004-.037-.001-.197-.086-1.731-.734-1.95-.827zm4.566-1.343l1.394 1.394-.336 2.081v.005c0 .005-.001.01-.003.014-.003.008-.011.009-.018.011a.682.682 0 0 0-.207.106c-.004.004-.008.008-.015.009a.088.088 0 0 1-.016-.002l-2.124-.903-.004-.002c-.013-.005-.03-.012-.03-.026a.8.8 0 0 0-.113-.334c-.01-.017-.021-.034-.013-.051l1.485-2.302zm-1.436 3.143l1.992.843c.011.005.023.01.028.021a.074.074 0 0 1 0 .021.477.477 0 0 0-.011.096v.056c0 .014-.015.02-.028.025l-.004.002c-.315.134-4.429 1.888-4.435 1.888-.006 0-.013 0-.019-.006-.011-.011 0-.026.01-.04l.005-.007 1.637-2.534.002-.005c.01-.015.021-.032.038-.032l.017.002a.741.741 0 0 0 .72-.317.064.064 0 0 1 .013-.015c.009-.007.024-.003.035.002zm-2.28 3.353l4.484-1.912s.006 0 .012.006c.025.025.046.041.066.057l.01.006c.009.005.018.011.019.02l-.001.009-.384 2.36-.002.009c-.002.019-.005.039-.022.039a.629.629 0 0 0-.501.31l-.002.003c-.005.008-.01.016-.018.02-.008.004-.018.003-.026.001l-3.576-.738c-.003-.001-.055-.189-.059-.19z"
          fill="#b3e6e2" fill-rule="nonzero"/>
</svg>