<svg xmlns="http://www.w3.org/2000/svg" clip-rule="evenodd" fill-rule="evenodd" stroke-linejoin="round"
     stroke-miterlimit="1.414" viewBox="0 0 24 24" width="16px" height="16px">
    <path fill="#5C6BC0"
          d="M10 4H4c-1.11 0-2 .89-2 2v12c0 1.097.903 2 2 2h16c1.097 0 2-.903 2-2V8a2 2 0 0 0-2-2h-8l-2-2z"
          fill-rule="nonzero"/>
    <path fill="#C5CAE9"
          d="M22.857 12.037l-.888-1.073a.964.964 0 0 0-.742-.345h-7.666c-.3 0-.562.134-.735.351l-.888 1.067a1.268 1.268 0 0 0-.294.818v7.986c0 .703.569 1.278 1.278 1.278h8.944c.703 0 1.278-.575 1.278-1.278v-7.986c0-.313-.109-.594-.287-.818zm-5.463 2.734l3.514 3.514h-2.236v1.278h-2.556v-1.278H13.88zM13 11.896l.523-.638h7.667l.594.638z"/>
</svg>