<svg xmlns="http://www.w3.org/2000/svg" clip-rule="evenodd" fill-rule="evenodd" stroke-linejoin="round"
     stroke-miterlimit="1.414" viewBox="0 0 24 24" width="16px" height="16px">
    <path fill="#D81B60"
          d="M10 4H4c-1.11 0-2 .89-2 2v12c0 1.097.903 2 2 2h16c1.097 0 2-.903 2-2V8a2 2 0 0 0-2-2h-8l-2-2z"
          fill-rule="nonzero"/>
    <path fill="#F8BBD0"
          d="M22.5 13.667v-1.223h-1.2v-1.222c0-.672-.54-1.222-1.2-1.222h-8.4c-.66 0-1.2.55-1.2 1.222v8.556c0 .672.54 1.222 1.2 1.222h8.4c.66 0 1.2-.55 1.2-1.222v-1.222h1.2v-1.223h-1.2v-1.222h1.2V14.89h-1.2v-1.222zm-2.4 6.11h-8.4v-8.555h8.4zm-7.2-3.666h3v2.445h-3zm3.6-3.667h2.4v1.834h-2.4zm-3.6 0h3V15.5h-3zm3.6 2.445h2.4v3.667h-2.4z"/>
</svg>