<svg xmlns="http://www.w3.org/2000/svg" clip-rule="evenodd" fill-rule="evenodd" stroke-linejoin="round"
     stroke-miterlimit="1.414" viewBox="0 0 24 24" width="16px" height="16px">
    <path d="M10 4H4c-1.11 0-2 .89-2 2v12c0 1.097.903 2 2 2h16c1.097 0 2-.903 2-2V8a2 2 0 0 0-2-2h-8l-2-2z"
          fill="#009688" fill-rule="nonzero"/>
    <path d="M12.375 11.124V9.549h1.05v1.575H15v1.05h-1.575v1.575h-1.05v-1.575H10.8v-1.05zm1.575 3.15v-1.575h1.575v-1.575H19.2l.96 1.05h1.665c.578 0 1.05.473 1.05 1.05v6.3c0 .578-.472 1.05-1.05 1.05h-8.4c-.578 0-1.05-.473-1.05-1.05v-5.25zm3.675 4.725a2.626 2.626 0 0 0 0-5.25 2.626 2.626 0 0 0 0 5.25zm-1.68-2.625c0 .93.75 1.68 1.68 1.68.93 0 1.68-.75 1.68-1.68 0-.93-.75-1.68-1.68-1.68-.93 0-1.68.75-1.68 1.68z"
          fill-rule="nonzero" fill="#b2dfdb"/>
</svg>