<?xml version="1.0" encoding="UTF-8"?>
<svg clip-rule="evenodd" fill-rule="evenodd" stroke-linejoin="round"
     stroke-miterlimit="1.4142" version="1.1" viewBox="0 0 24 24" width="16px" height="16px"
     xml:space="preserve" xmlns="http://www.w3.org/2000/svg">
    <path d="m10 4h-6c-1.11 0-2 0.89-2 2v12c0 1.097 0.903 2 2 2h16c1.097 0 2-0.903 2-2v-10c0-1.11-0.9-2-2-2h-8l-2-2z" fill="#009688" fill-rule="nonzero"/>
    <g transform="matrix(.69572 0 0 .69572 8.4585 6.3619)">
        <path d="m1.821 4.1505 10.21 17.618 10.208-17.533v-0.084456h-7.6921l-2.4337 4.1783-2.4225-4.1783z" fill="#41b883"/>
        <path d="m5.9368 4.1493 6.1521 10.617 6.1809-10.617h-3.7228l-2.4337 4.1783-2.4226-4.1783z" fill="#35495e"/>
    </g>
</svg>
