<svg xmlns:xlink="http://www.w3.org/1999/xlink" version="1.1" xmlns="http://www.w3.org/2000/svg" x="0px" y="0px"
     width="16px" height="16px" viewBox="0 0 512 512" fill="#66BB6A">
    <path class="st0"
          d="M179.6874084,322.4043274l32.8043671,16.0899963c-9.5886536-58.3200378,21.7545013-67.1561279,55.4317169-60.8208008c17.887085,3.3648987,29.2591858,12.7539978,60.3431702,48.8974609c2.8146362,1.9815369,41.0537415,19.4927979,41.5279846,19.0175171c-15.6589966-28.487854-27.0828247-43.7585144-16.6037292-67.4519348c13.2634583-22.970108,64.5977783,14.0242615,140.0383606-20.9898376c9.9712524-4.8750305,12.091095-6.7569275,14.2477722-12.5858154c2.056488-5.5579681,3.0320129-10.876236,1.9836426-10.876236c-0.3708191,0-3.872467,1.5058594-7.7853699,3.3548584c-39.3575745,20.7944183-65.0322876,2.7887726-102.080658-13.4193115l-8.4035339-20.128418C469.6117249,254.416214,490.6182861,232.5343628,512,218.4412079c-9.9197693-34.6304474-14.5045471-52.6360931-34.2763367-62.0276184c-35.97052-15.6215363-66.5162659-20.4647827-99.4615173-25.4902039l-0.3413086,16.9232941c-100.276062-31.6655579-197.0246124-28.2227097-261.0669861,8.9656982C11.2514172,210.7189941-9.7208939,276.5243835,3.5539412,325.6612854c23.0917892,71.6005859,122.7020645,79.29776,145.9144135,22.3501587c11.2598419-26.224823,1.2685852-70.2338562-39.8215179-80.1955872c-41.6944504-8.5934448-62.5237923,21.4961548-56.0533714,46.3044128c9.4864273,36.3719177,61.8571739,29.7265625,55.5627174,8.7605286c-6.5194092-17.8314819-18.9149551-0.5662537-28.4740601-9.5726929c-11.195816-9.7514954,2.933609-30.3829346,29.4555664-18.35495c19.6901474,10.9217834,26.7518845,47.7171326-5.2685852,59.8730469c-33.8416595,8.4897461-69.6852188-11.6321411-71.4576111-52.7648926C31.5160713,235.8270569,152.2205658,211.8195343,179.6874084,322.4043274z M457.21521,192.4854126c-6.1104126-2.3525696-6.1104126-8.2659607,0-10.6185303c6.1104431-2.3525848,13.7899475,0.6041107,13.7899475,5.3092651S463.3256531,194.8379974,457.21521,192.4854126z M447.1469727,209.8940277c-14.1188354-8.168045-14.1188354-28.6990356,0-36.8670807s31.8631897,2.0974426,31.8631897,18.433548S461.2658081,218.0620728,447.1469727,209.8940277z M442.4826965,218.0407715c-20.199646-11.6604614-20.199646-40.9699249,0-52.6304016s45.5863037,2.9942474,45.5863037,26.3152008S462.6823425,229.7012482,442.4826965,218.0407715z"/>
</svg>