<?xml version="1.0" encoding="iso-8859-1"?>
<!-- Generator: Adobe Illustrator 19.0.0, SVG Export Plug-In . SVG Version: 6.00 Build 0)  -->
<svg version="1.1" id="Capa_1" xmlns="http://www.w3.org/2000/svg" xmlns:xlink="http://www.w3.org/1999/xlink" x="0px"
     y="0px" width="64px" height="64px"
     viewBox="0 0 53 53" style="enable-background:new 0 0 53 53;" xml:space="preserve">
<path style="fill:#424A60;" d="M50.455,8L50.455,8C49.724,3.538,39.281,0,26.5,0S3.276,3.538,2.545,8l0,0H2.5v0.5V20v0.5V21v11v0.5
V33v12h0.045c0.731,4.461,11.175,8,23.955,8s23.224-3.539,23.955-8H50.5V33v-0.5V32V21v-0.5V20V8.5V8H50.455z"/>
    <g>
<path style="fill:#424A60;" d="M26.5,41c-13.255,0-24-3.806-24-8.5V45h0.045c0.731,4.461,11.175,8,23.955,8s23.224-3.539,23.955-8
H50.5V32.5C50.5,37.194,39.755,41,26.5,41z"/>
        <path style="fill:#424A60;" d="M2.5,32v0.5c0-0.168,0.018-0.334,0.045-0.5H2.5z"/>
        <path style="fill:#424A60;" d="M50.455,32c0.027,0.166,0.045,0.332,0.045,0.5V32H50.455z"/>
</g>
    <g>
<path style="fill:#556080;" d="M26.5,29c-13.255,0-24-3.806-24-8.5V33h0.045c0.731,4.461,11.175,8,23.955,8s23.224-3.539,23.955-8
H50.5V20.5C50.5,25.194,39.755,29,26.5,29z"/>
        <path style="fill:#556080;" d="M2.5,20v0.5c0-0.168,0.018-0.334,0.045-0.5H2.5z"/>
        <path style="fill:#556080;" d="M50.455,20c0.027,0.166,0.045,0.332,0.045,0.5V20H50.455z"/>
</g>
    <ellipse style="fill:#7FABDA;" cx="26.5" cy="8.5" rx="24" ry="8.5"/>
    <g>
<path style="fill:#7383BF;" d="M26.5,17c-13.255,0-24-3.806-24-8.5V21h0.045c0.731,4.461,11.175,8,23.955,8s23.224-3.539,23.955-8
H50.5V8.5C50.5,13.194,39.755,17,26.5,17z"/>
        <path style="fill:#7383BF;" d="M2.5,8v0.5c0-0.168,0.018-0.334,0.045-0.5H2.5z"/>
        <path style="fill:#7383BF;" d="M50.455,8C50.482,8.166,50.5,8.332,50.5,8.5V8H50.455z"/>
</g>
    <g>
</g>
    <g>
</g>
    <g>
</g>
    <g>
</g>
    <g>
</g>
    <g>
</g>
    <g>
</g>
    <g>
</g>
    <g>
</g>
    <g>
</g>
    <g>
</g>
    <g>
</g>
    <g>
</g>
    <g>
</g>
    <g>
</g>
</svg>
