<?xml version="1.0" encoding="iso-8859-1"?>
<!-- Generator: Adobe Illustrator 19.0.0, SVG Export Plug-In . SVG Version: 6.00 Build 0)  -->
<svg version="1.1" id="Layer_1" xmlns="http://www.w3.org/2000/svg" xmlns:xlink="http://www.w3.org/1999/xlink" x="0px"
     y="0px"
     viewBox="0 0 512 512" style="enable-background:new 0 0 512 512;" width="64px" height="64px" xml:space="preserve">
<path style="fill:#D2DCF0;" d="M485.517,61.793H26.483C11.857,61.793,0,73.65,0,88.276v335.448
c0,14.626,11.857,26.483,26.483,26.483h459.034c14.626,0,26.483-11.857,26.483-26.483V88.276
C512,73.65,500.143,61.793,485.517,61.793z M441.379,79.448h8.828c4.875,0,8.828,3.953,8.828,8.828c0,4.875-3.953,8.828-8.828,8.828
h-8.828c-4.875,0-8.828-3.953-8.828-8.828C432.552,83.401,436.504,79.448,441.379,79.448z M194.207,79.448h211.862
c4.875,0,8.828,3.953,8.828,8.828c0,4.875-3.953,8.828-8.828,8.828H194.207c-4.875,0-8.828-3.953-8.828-8.828
C185.379,83.401,189.332,79.448,194.207,79.448z M150.069,79.448h8.828c4.875,0,8.828,3.953,8.828,8.828
c0,4.875-3.953,8.828-8.828,8.828h-8.828c-4.875,0-8.828-3.953-8.828-8.828C141.241,83.401,145.194,79.448,150.069,79.448z
 M114.759,79.448h8.828c4.875,0,8.828,3.953,8.828,8.828c0,4.875-3.953,8.828-8.828,8.828h-8.828c-4.875,0-8.828-3.953-8.828-8.828
C105.931,83.401,109.884,79.448,114.759,79.448z M79.448,79.448c4.875,0,8.828,3.953,8.828,8.828c0,4.875-3.953,8.828-8.828,8.828
c-4.875,0-8.828-3.953-8.828-8.828C70.621,83.401,74.573,79.448,79.448,79.448z M52.966,79.448c4.875,0,8.828,3.953,8.828,8.828
c0,4.875-3.953,8.828-8.828,8.828s-8.828-3.953-8.828-8.828C44.138,83.401,48.09,79.448,52.966,79.448z M26.483,79.448
c4.875,0,8.828,3.953,8.828,8.828c0,4.875-3.953,8.828-8.828,8.828s-8.828-3.953-8.828-8.828
C17.655,83.401,21.608,79.448,26.483,79.448z M494.345,167.724v256c0,4.875-3.953,8.828-8.828,8.828H256H26.483
c-4.875,0-8.828-3.953-8.828-8.828v-256v-44.138c0-4.875,3.953-8.828,8.828-8.828H256h229.517c4.875,0,8.828,3.953,8.828,8.828
V167.724z M485.517,97.103h-8.828c-4.875,0-8.828-3.953-8.828-8.828c0-4.875,3.953-8.828,8.828-8.828h8.828
c4.875,0,8.828,3.953,8.828,8.828C494.345,93.151,490.392,97.103,485.517,97.103z"/>
    <path style="fill:#FFFFFF;" d="M256,432.552h229.517c4.875,0,8.828-3.953,8.828-8.828v-256H256V432.552z M388.414,211.862v-8.828
c0-4.875,3.953-8.828,8.828-8.828h61.793c4.875,0,8.828,3.953,8.828,8.828v8.828v70.621c0,4.875-3.953,8.828-8.828,8.828h-61.793
c-4.875,0-8.828-3.953-8.828-8.828V211.862z M282.483,211.862v-8.828c0-4.875,3.953-8.828,8.828-8.828h61.793
c4.875,0,8.828,3.953,8.828,8.828v8.828v70.621c0,4.875-3.953,8.828-8.828,8.828H291.31c-4.875,0-8.828-3.953-8.828-8.828V211.862z
 M291.31,317.793h8.828h158.897c4.875,0,8.828,3.953,8.828,8.828v70.621c0,4.875-3.953,8.828-8.828,8.828H300.138h-8.828
c-4.875,0-8.828-3.953-8.828-8.828v-70.621C282.483,321.746,286.435,317.793,291.31,317.793z"/>
    <circle style="fill:#FF6469;" cx="26.483" cy="88.276" r="8.828"/>
    <circle style="fill:#FFE169;" cx="52.966" cy="88.276" r="8.828"/>
    <circle style="fill:#87E1AA;" cx="79.448" cy="88.276" r="8.828"/>
    <g>
<path style="fill:#E4EAF6;" d="M114.759,97.103h8.828c4.875,0,8.828-3.953,8.828-8.828c0-4.875-3.953-8.828-8.828-8.828h-8.828
c-4.875,0-8.828,3.953-8.828,8.828C105.931,93.151,109.884,97.103,114.759,97.103z"/>
        <path style="fill:#E4EAF6;" d="M150.069,97.103h8.828c4.875,0,8.828-3.953,8.828-8.828c0-4.875-3.953-8.828-8.828-8.828h-8.828
c-4.875,0-8.828,3.953-8.828,8.828C141.241,93.151,145.194,97.103,150.069,97.103z"/>
        <path style="fill:#E4EAF6;" d="M441.379,97.103h8.828c4.875,0,8.828-3.953,8.828-8.828c0-4.875-3.953-8.828-8.828-8.828h-8.828
c-4.875,0-8.828,3.953-8.828,8.828C432.552,93.151,436.504,97.103,441.379,97.103z"/>
        <path style="fill:#E4EAF6;" d="M485.517,79.448h-8.828c-4.875,0-8.828,3.953-8.828,8.828c0,4.875,3.953,8.828,8.828,8.828h8.828
c4.875,0,8.828-3.953,8.828-8.828C494.345,83.401,490.392,79.448,485.517,79.448z"/>
        <path style="fill:#E4EAF6;" d="M194.207,97.103h211.862c4.875,0,8.828-3.953,8.828-8.828c0-4.875-3.953-8.828-8.828-8.828H194.207
c-4.875,0-8.828,3.953-8.828,8.828C185.379,93.151,189.332,97.103,194.207,97.103z"/>
</g>
    <path style="fill:#FF6469;" d="M485.517,114.759H256v52.966h238.345v-44.138C494.345,118.711,490.392,114.759,485.517,114.759z
 M317.793,150.069h-35.31c-4.875,0-8.828-3.953-8.828-8.828s3.953-8.828,8.828-8.828h35.31c4.875,0,8.828,3.953,8.828,8.828
S322.668,150.069,317.793,150.069z M388.414,150.069h-35.31c-4.875,0-8.828-3.953-8.828-8.828s3.953-8.828,8.828-8.828h35.31
c4.875,0,8.828,3.953,8.828,8.828S393.289,150.069,388.414,150.069z M459.034,150.069h-35.31c-4.875,0-8.828-3.953-8.828-8.828
s3.953-8.828,8.828-8.828h35.31c4.875,0,8.828,3.953,8.828,8.828S463.91,150.069,459.034,150.069z"/>
    <g>
<path style="fill:#D2555F;" d="M317.793,132.414h-35.31c-4.875,0-8.828,3.953-8.828,8.828s3.953,8.828,8.828,8.828h35.31
c4.875,0,8.828-3.953,8.828-8.828S322.668,132.414,317.793,132.414z"/>
        <path style="fill:#D2555F;" d="M388.414,132.414h-35.31c-4.875,0-8.828,3.953-8.828,8.828s3.953,8.828,8.828,8.828h35.31
c4.875,0,8.828-3.953,8.828-8.828S393.289,132.414,388.414,132.414z"/>
        <path style="fill:#D2555F;" d="M459.034,132.414h-35.31c-4.875,0-8.828,3.953-8.828,8.828s3.953,8.828,8.828,8.828h35.31
c4.875,0,8.828-3.953,8.828-8.828S463.91,132.414,459.034,132.414z"/>
</g>
    <g>
<path style="fill:#DEE3ED;" d="M291.31,291.31h61.793c4.875,0,8.828-3.953,8.828-8.828v-70.621c0,4.875-3.953,8.828-8.828,8.828
H291.31c-4.875,0-8.828-3.953-8.828-8.828v70.621C282.483,287.358,286.435,291.31,291.31,291.31z"/>
        <path style="fill:#DEE3ED;" d="M397.241,291.31h61.793c4.875,0,8.828-3.953,8.828-8.828v-70.621c0,4.875-3.953,8.828-8.828,8.828
h-61.793c-4.875,0-8.828-3.953-8.828-8.828v70.621C388.414,287.358,392.366,291.31,397.241,291.31z"/>
</g>
    <path style="fill:#FF969B;" d="M291.31,220.69h61.793c4.875,0,8.828-3.953,8.828-8.828v-8.828c0-4.875-3.953-8.828-8.828-8.828
H291.31c-4.875,0-8.828,3.953-8.828,8.828v8.828C282.483,216.737,286.435,220.69,291.31,220.69z"/>
    <path style="fill:#A0DCF0;" d="M397.241,220.69h61.793c4.875,0,8.828-3.953,8.828-8.828v-8.828c0-4.875-3.953-8.828-8.828-8.828
h-61.793c-4.875,0-8.828,3.953-8.828,8.828v8.828C388.414,216.737,392.366,220.69,397.241,220.69z"/>
    <path style="fill:#DEE3ED;" d="M308.966,326.621v70.621c0,4.875-3.953,8.828-8.828,8.828h158.897c4.875,0,8.828-3.953,8.828-8.828
v-70.621c0-4.875-3.953-8.828-8.828-8.828H300.138C305.013,317.793,308.966,321.746,308.966,326.621z"/>
    <path style="fill:#91E6BE;" d="M291.31,406.069h8.828c4.875,0,8.828-3.953,8.828-8.828v-70.621c0-4.875-3.953-8.828-8.828-8.828
h-8.828c-4.875,0-8.828,3.953-8.828,8.828v70.621C282.483,402.116,286.435,406.069,291.31,406.069z"/>
    <path style="fill:#464655;" d="M256,114.759H26.483c-4.875,0-8.828,3.953-8.828,8.828v44.138v256c0,4.875,3.953,8.828,8.828,8.828
H256V167.724V114.759z M88.276,141.241h141.241c4.875,0,8.828,3.953,8.828,8.828c0,4.875-3.953,8.828-8.828,8.828H88.276
c-4.875,0-8.828-3.953-8.828-8.828C79.448,145.194,83.401,141.241,88.276,141.241z M44.138,141.241h8.828
c4.875,0,8.828,3.953,8.828,8.828c0,4.875-3.953,8.828-8.828,8.828h-8.828c-4.875,0-8.828-3.953-8.828-8.828
C35.31,145.194,39.263,141.241,44.138,141.241z M132.414,194.207h-26.483c-4.875,0-8.828-3.953-8.828-8.828
c0-4.875,3.953-8.828,8.828-8.828h26.483c4.875,0,8.828,3.953,8.828,8.828C141.241,190.254,137.289,194.207,132.414,194.207z
 M141.241,220.69c0,4.875-3.953,8.828-8.828,8.828h-26.483c-4.875,0-8.828-3.953-8.828-8.828s3.953-8.828,8.828-8.828h26.483
C137.289,211.862,141.241,215.815,141.241,220.69z M44.138,282.483h8.828c4.875,0,8.828,3.953,8.828,8.828s-3.953,8.828-8.828,8.828
h-8.828c-4.875,0-8.828-3.953-8.828-8.828S39.263,282.483,44.138,282.483z M35.31,256c0-4.875,3.953-8.828,8.828-8.828h8.828
c4.875,0,8.828,3.953,8.828,8.828s-3.953,8.828-8.828,8.828h-8.828C39.263,264.828,35.31,260.875,35.31,256z M61.793,317.793h8.828
c4.875,0,8.828,3.953,8.828,8.828s-3.953,8.828-8.828,8.828h-8.828c-4.875,0-8.828-3.953-8.828-8.828S56.918,317.793,61.793,317.793
z M70.621,229.517h-8.828c-4.875,0-8.828-3.953-8.828-8.828s3.953-8.828,8.828-8.828h8.828c4.875,0,8.828,3.953,8.828,8.828
S75.496,229.517,70.621,229.517z M70.621,194.207h-8.828c-4.875,0-8.828-3.953-8.828-8.828c0-4.875,3.953-8.828,8.828-8.828h8.828
c4.875,0,8.828,3.953,8.828,8.828C79.448,190.254,75.496,194.207,70.621,194.207z M52.966,406.069h-8.828
c-4.875,0-8.828-3.953-8.828-8.828c0-4.875,3.953-8.828,8.828-8.828h8.828c4.875,0,8.828,3.953,8.828,8.828
C61.793,402.116,57.841,406.069,52.966,406.069z M70.621,370.759h-8.828c-4.875,0-8.828-3.953-8.828-8.828s3.953-8.828,8.828-8.828
h8.828c4.875,0,8.828,3.953,8.828,8.828S75.496,370.759,70.621,370.759z M229.517,406.069H88.276c-4.875,0-8.828-3.953-8.828-8.828
c0-4.875,3.953-8.828,8.828-8.828h141.241c4.875,0,8.828,3.953,8.828,8.828C238.345,402.116,234.392,406.069,229.517,406.069z
 M105.931,353.103h26.483c4.875,0,8.828,3.953,8.828,8.828s-3.953,8.828-8.828,8.828h-26.483c-4.875,0-8.828-3.953-8.828-8.828
S101.056,353.103,105.931,353.103z M97.103,326.621c0-4.875,3.953-8.828,8.828-8.828h26.483c4.875,0,8.828,3.953,8.828,8.828
s-3.953,8.828-8.828,8.828h-26.483C101.056,335.448,97.103,331.496,97.103,326.621z M229.517,370.759h-61.793
c-4.875,0-8.828-3.953-8.828-8.828s3.953-8.828,8.828-8.828h61.793c4.875,0,8.828,3.953,8.828,8.828
S234.392,370.759,229.517,370.759z M229.517,335.448h-61.793c-4.875,0-8.828-3.953-8.828-8.828s3.953-8.828,8.828-8.828h61.793
c4.875,0,8.828,3.953,8.828,8.828S234.392,335.448,229.517,335.448z M229.517,300.138H88.276c-4.875,0-8.828-3.953-8.828-8.828
s3.953-8.828,8.828-8.828h141.241c4.875,0,8.828,3.953,8.828,8.828S234.392,300.138,229.517,300.138z M229.517,264.828H88.276
c-4.875,0-8.828-3.953-8.828-8.828s3.953-8.828,8.828-8.828h141.241c4.875,0,8.828,3.953,8.828,8.828
S234.392,264.828,229.517,264.828z M229.517,229.517h-61.793c-4.875,0-8.828-3.953-8.828-8.828s3.953-8.828,8.828-8.828h61.793
c4.875,0,8.828,3.953,8.828,8.828S234.392,229.517,229.517,229.517z M229.517,194.207h-61.793c-4.875,0-8.828-3.953-8.828-8.828
c0-4.875,3.953-8.828,8.828-8.828h61.793c4.875,0,8.828,3.953,8.828,8.828C238.345,190.254,234.392,194.207,229.517,194.207z"/>
    <path style="fill:#FFE169;" d="M88.276,158.897h141.241c4.875,0,8.828-3.953,8.828-8.828c0-4.875-3.953-8.828-8.828-8.828H88.276
c-4.875,0-8.828,3.953-8.828,8.828C79.448,154.944,83.401,158.897,88.276,158.897z"/>
    <g>
<path style="fill:#91E6BE;" d="M132.414,176.552h-26.483c-4.875,0-8.828,3.953-8.828,8.828c0,4.875,3.953,8.828,8.828,8.828h26.483
c4.875,0,8.828-3.953,8.828-8.828C141.241,180.504,137.289,176.552,132.414,176.552z"/>
        <path style="fill:#91E6BE;" d="M132.414,211.862h-26.483c-4.875,0-8.828,3.953-8.828,8.828s3.953,8.828,8.828,8.828h26.483
c4.875,0,8.828-3.953,8.828-8.828S137.289,211.862,132.414,211.862z"/>
</g>
    <path style="fill:#FFE169;" d="M229.517,247.172H88.276c-4.875,0-8.828,3.953-8.828,8.828s3.953,8.828,8.828,8.828h141.241
c4.875,0,8.828-3.953,8.828-8.828S234.392,247.172,229.517,247.172z"/>
    <g>
<path style="fill:#FFFFFF;" d="M229.517,282.483H88.276c-4.875,0-8.828,3.953-8.828,8.828s3.953,8.828,8.828,8.828h141.241
c4.875,0,8.828-3.953,8.828-8.828S234.392,282.483,229.517,282.483z"/>
        <path style="fill:#FFFFFF;" d="M229.517,176.552h-61.793c-4.875,0-8.828,3.953-8.828,8.828c0,4.875,3.953,8.828,8.828,8.828h61.793
c4.875,0,8.828-3.953,8.828-8.828C238.345,180.504,234.392,176.552,229.517,176.552z"/>
        <path style="fill:#FFFFFF;" d="M229.517,211.862h-61.793c-4.875,0-8.828,3.953-8.828,8.828s3.953,8.828,8.828,8.828h61.793
c4.875,0,8.828-3.953,8.828-8.828S234.392,211.862,229.517,211.862z"/>
        <path style="fill:#FFFFFF;" d="M229.517,317.793h-61.793c-4.875,0-8.828,3.953-8.828,8.828s3.953,8.828,8.828,8.828h61.793
c4.875,0,8.828-3.953,8.828-8.828S234.392,317.793,229.517,317.793z"/>
        <path style="fill:#FFFFFF;" d="M229.517,353.103h-61.793c-4.875,0-8.828,3.953-8.828,8.828s3.953,8.828,8.828,8.828h61.793
c4.875,0,8.828-3.953,8.828-8.828S234.392,353.103,229.517,353.103z"/>
</g>
    <g>
<path style="fill:#91E6BE;" d="M105.931,335.448h26.483c4.875,0,8.828-3.953,8.828-8.828s-3.953-8.828-8.828-8.828h-26.483
c-4.875,0-8.828,3.953-8.828,8.828S101.056,335.448,105.931,335.448z"/>
        <path style="fill:#91E6BE;" d="M105.931,370.759h26.483c4.875,0,8.828-3.953,8.828-8.828s-3.953-8.828-8.828-8.828h-26.483
c-4.875,0-8.828,3.953-8.828,8.828S101.056,370.759,105.931,370.759z"/>
</g>
    <path style="fill:#FFE169;" d="M229.517,388.414H88.276c-4.875,0-8.828,3.953-8.828,8.828c0,4.875,3.953,8.828,8.828,8.828h141.241
c4.875,0,8.828-3.953,8.828-8.828C238.345,392.366,234.392,388.414,229.517,388.414z"/>
    <g>
<path style="fill:#FF6469;" d="M44.138,158.897h8.828c4.875,0,8.828-3.953,8.828-8.828c0-4.875-3.953-8.828-8.828-8.828h-8.828
c-4.875,0-8.828,3.953-8.828,8.828C35.31,154.944,39.263,158.897,44.138,158.897z"/>
        <path style="fill:#FF6469;" d="M70.621,176.552h-8.828c-4.875,0-8.828,3.953-8.828,8.828c0,4.875,3.953,8.828,8.828,8.828h8.828
c4.875,0,8.828-3.953,8.828-8.828C79.448,180.504,75.496,176.552,70.621,176.552z"/>
        <path style="fill:#FF6469;" d="M70.621,211.862h-8.828c-4.875,0-8.828,3.953-8.828,8.828s3.953,8.828,8.828,8.828h8.828
c4.875,0,8.828-3.953,8.828-8.828S75.496,211.862,70.621,211.862z"/>
        <path style="fill:#FF6469;" d="M44.138,264.828h8.828c4.875,0,8.828-3.953,8.828-8.828s-3.953-8.828-8.828-8.828h-8.828
c-4.875,0-8.828,3.953-8.828,8.828S39.263,264.828,44.138,264.828z"/>
        <path style="fill:#FF6469;" d="M44.138,300.138h8.828c4.875,0,8.828-3.953,8.828-8.828s-3.953-8.828-8.828-8.828h-8.828
c-4.875,0-8.828,3.953-8.828,8.828S39.263,300.138,44.138,300.138z"/>
        <path style="fill:#FF6469;" d="M61.793,335.448h8.828c4.875,0,8.828-3.953,8.828-8.828s-3.953-8.828-8.828-8.828h-8.828
c-4.875,0-8.828,3.953-8.828,8.828S56.918,335.448,61.793,335.448z"/>
        <path style="fill:#FF6469;" d="M70.621,353.103h-8.828c-4.875,0-8.828,3.953-8.828,8.828s3.953,8.828,8.828,8.828h8.828
c4.875,0,8.828-3.953,8.828-8.828S75.496,353.103,70.621,353.103z"/>
        <path style="fill:#FF6469;" d="M52.966,388.414h-8.828c-4.875,0-8.828,3.953-8.828,8.828c0,4.875,3.953,8.828,8.828,8.828h8.828
c4.875,0,8.828-3.953,8.828-8.828C61.793,392.366,57.841,388.414,52.966,388.414z"/>
</g>
    <g>
</g>
    <g>
</g>
    <g>
</g>
    <g>
</g>
    <g>
</g>
    <g>
</g>
    <g>
</g>
    <g>
</g>
    <g>
</g>
    <g>
</g>
    <g>
</g>
    <g>
</g>
    <g>
</g>
    <g>
</g>
    <g>
</g>
</svg>
