<?xml version="1.0" encoding="iso-8859-1"?>
<!-- Generator: Adobe Illustrator 19.0.0, SVG Export Plug-In . SVG Version: 6.00 Build 0)  -->
<svg version="1.1" id="Capa_1" xmlns="http://www.w3.org/2000/svg" xmlns:xlink="http://www.w3.org/1999/xlink" x="0px" y="0px"
	 viewBox="0 0 51 51" style="enable-background:new 0 0 51 51;" xml:space="preserve">
<polygon style="fill:#694F87;" points="25.5,29 9.7,19.973 0.044,25.456 25.5,40 50.956,25.456 41.3,19.973 "/>
<g>
	<polygon style="fill:#556080;" points="25.5,40 9.7,30.973 0.044,36.456 25.5,51 50.956,36.456 41.3,30.973 	"/>
</g>
<g>
	<circle style="fill:#BF4D90;" cx="40.044" cy="21" r="1"/>
	<circle style="fill:#BF4D90;" cx="43.044" cy="24" r="1"/>
	<circle style="fill:#BF4D90;" cx="10.044" cy="21" r="1"/>
	<circle style="fill:#BF4D90;" cx="37.044" cy="24" r="1"/>
	<circle style="fill:#BF4D90;" cx="7.044" cy="24" r="1"/>
	<circle style="fill:#BF4D90;" cx="13.044" cy="24" r="1"/>
	<circle style="fill:#BF4D90;" cx="10.044" cy="27" r="1"/>
	<circle style="fill:#BF4D90;" cx="16.044" cy="27" r="1"/>
	<circle style="fill:#BF4D90;" cx="16.044" cy="33" r="1"/>
	<circle style="fill:#BF4D90;" cx="13.044" cy="30" r="1"/>
	<circle style="fill:#BF4D90;" cx="19.044" cy="30" r="1"/>
	<circle style="fill:#BF4D90;" cx="22.044" cy="33" r="1"/>
	<circle style="fill:#BF4D90;" cx="28.044" cy="33" r="1"/>
	<circle style="fill:#BF4D90;" cx="25.044" cy="30" r="1"/>
	<circle style="fill:#BF4D90;" cx="31.044" cy="30" r="1"/>
	<circle style="fill:#BF4D90;" cx="25.044" cy="36" r="1"/>
	<circle style="fill:#BF4D90;" cx="34.044" cy="27" r="1"/>
	<circle style="fill:#BF4D90;" cx="40.044" cy="27" r="1"/>
	<circle style="fill:#BF4D90;" cx="34.044" cy="33" r="1"/>
	<circle style="fill:#BF4D90;" cx="37.044" cy="30" r="1"/>
	<circle style="fill:#BF4D90;" cx="46.044" cy="27" r="1"/>
</g>
<polygon style="fill:#BF4D90;" points="50.956,14.456 25.5,29 0.044,14.456 25.5,0 "/>
<g>
</g>
<g>
</g>
<g>
</g>
<g>
</g>
<g>
</g>
<g>
</g>
<g>
</g>
<g>
</g>
<g>
</g>
<g>
</g>
<g>
</g>
<g>
</g>
<g>
</g>
<g>
</g>
<g>
</g>
</svg>
