<?xml version="1.0" encoding="UTF-8"?><!DOCTYPE svg PUBLIC "-//W3C//DTD SVG 1.1//EN"
        "http://www.w3.org/Graphics/SVG/1.1/DTD/svg11.dtd">
<svg xmlns="http://www.w3.org/2000/svg" version="1.1" width="16px" height="16px"
     viewBox="0 0 24 24" fill="#E57373">
    <path d="M8,2H16A2,2 0 0,1 18,4V20A2,2 0 0,1 16,22H8A2,2 0 0,1 6,20V4A2,2 0 0,1 8,2M8,10V14H16V10H8M8,16V20H16V16H8M8,4V8H16V4H8Z"/>
    <circle fill="#00FF00" stroke="#000000" r="3" cx="20" cy="20"></circle>
    <path fill="#FDD835" stroke="#000000" transform="scale(0.5) translate(24)"
          d="M7,9A2,2 0 0,1 5,7A2,2 0 0,1 7,5A2,2 0 0,1 9,7A2,2 0 0,1 7,9M20,3H4A1,1 0 0,0 3,4V10A1,1 0 0,0 4,11H20A1,1 0 0,0 21,10V4A1,1 0 0,0 20,3M7,19A2,2 0 0,1 5,17A2,2 0 0,1 7,15A2,2 0 0,1 9,17A2,2 0 0,1 7,19M20,13H4A1,1 0 0,0 3,14V20A1,1 0 0,0 4,21H20A1,1 0 0,0 21,20V14A1,1 0 0,0 20,13Z"/>
</svg>
