<?xml version="1.0" encoding="UTF-8"?><!DOCTYPE svg PUBLIC "-//W3C//DTD SVG 1.1//EN"
        "http://www.w3.org/Graphics/SVG/1.1/DTD/svg11.dtd">
<svg xmlns:xlink="http://www.w3.org/1999/xlink" xmlns="http://www.w3.org/2000/svg"
     version="1.1" width="16px" height="16px" fill="#81D4FA"
     viewBox="0 0 24 24">
    <path fill="#FDD835"
          d="M7,14A2,2 0 0,1 5,12A2,2 0 0,1 7,10A2,2 0 0,1 9,12A2,2 0 0,1 7,14M12.65,10C11.83,7.67 9.61,6 7,6A6,6 0 0,0 1,12A6,6 0 0,0 7,18C9.61,18 11.83,16.33 12.65,14H17V18H21V14H23V10H12.65Z"/>
    <circle fill="#00FF00" stroke="#000000" r="3" cx="20" cy="20"></circle>
    <path fill="#FDD835" stroke="#000000" transform="scale(0.5) translate(24)"
          d="M7,9A2,2 0 0,1 5,7A2,2 0 0,1 7,5A2,2 0 0,1 9,7A2,2 0 0,1 7,9M20,3H4A1,1 0 0,0 3,4V10A1,1 0 0,0 4,11H20A1,1 0 0,0 21,10V4A1,1 0 0,0 20,3M7,19A2,2 0 0,1 5,17A2,2 0 0,1 7,15A2,2 0 0,1 9,17A2,2 0 0,1 7,19M20,13H4A1,1 0 0,0 3,14V20A1,1 0 0,0 4,21H20A1,1 0 0,0 21,20V14A1,1 0 0,0 20,13Z"/>
</svg>