<svg id="Layer_1" data-name="Layer 1" xmlns="http://www.w3.org/2000/svg" viewBox="0 0 16 16">
    <title>dbms</title>
    <g>
        <path d="M7.96871,8.38112a18.64014,18.64014,0,0,1-2.31148-.16479,17.59981,17.59981,0,0,1-3.98866-.94545,0.95854,0.95854,0,0,1-.66693-0.97422,0.84229,0.84229,0,0,1,.97413-0.96079C2.42691,5.47024,2.87091,5.64043,3.32547,5.759a19.79576,19.79576,0,0,0,3.1209.556,20.69546,20.69546,0,0,0,3.77851-.019,16.15175,16.15175,0,0,0,3.19821-.57389c0.18666-.05525.369-0.13222,0.555-0.191a0.79054,0.79054,0,0,1,.98968.68573,1.02809,1.02809,0,0,1-.55514,1.20246,12.8554,12.8554,0,0,1-3.044.73348A28.55617,28.55617,0,0,1,7.96871,8.38112Z"
              fill="#40b6e0" opacity="0.7" style="isolation: isolate"/>
        <path d="M14.99707,3.02973a0.98112,0.98112,0,0,0-.70557-0.94141,18.36232,18.36232,0,0,0-4.02344-.93652,18.43027,18.43027,0,0,0-2.44824-.15039,25.96854,25.96854,0,0,0-3.11963.21484,12.9478,12.9478,0,0,0-3.12354.74463,0.9798,0.9798,0,0,0-.5647.89453,1.28894,1.28894,0,0,0-.01.186,0.98068,0.98068,0,0,0,.70557.94141,18.36023,18.36023,0,0,0,4.02319.93652,18.4314,18.4314,0,0,0,2.44849.15039,25.87249,25.87249,0,0,0,3.11963-.21533,12.92577,12.92577,0,0,0,3.12329-.74463,0.979,0.979,0,0,0,.56494-0.89209A1.32018,1.32018,0,0,0,14.99707,3.02973Z"
              fill="#40b6e0" opacity="0.7" style="isolation: isolate"/>
        <path d="M8.04744,14.99989a19.80158,19.80158,0,0,1-3.92667-.41782,17.82563,17.82563,0,0,1-2.48143-.69642A0.97534,0.97534,0,0,1,1.005,13.01791a1.042,1.042,0,0,1,.43735-0.992A0.73072,0.73072,0,0,1,2.128,11.99449a16.88085,16.88085,0,0,0,3.41864.84255,18.43824,18.43824,0,0,0,3.90507.14366,16.35391,16.35391,0,0,0,4.16693-.70325,2.47147,2.47147,0,0,1,.49536-0.15656,0.83563,0.83563,0,0,1,.87009.78641,1.02811,1.02811,0,0,1-.58241,1.14083,11.37563,11.37563,0,0,1-2.014.55565A25.24654,25.24654,0,0,1,8.04744,14.99989Z"
              fill="#40b6e0" opacity="0.7" style="isolation: isolate"/>
        <path d="M8.04744,11.691a19.80158,19.80158,0,0,1-3.92667-.41782,17.82563,17.82563,0,0,1-2.48143-.69642A0.97534,0.97534,0,0,1,1.005,9.709a1.042,1.042,0,0,1,.43735-0.992A0.73072,0.73072,0,0,1,2.128,8.6856a16.88084,16.88084,0,0,0,3.41864.84255,18.43824,18.43824,0,0,0,3.90507.14366,16.35391,16.35391,0,0,0,4.16693-.70325A2.47147,2.47147,0,0,1,14.11394,8.812a0.83563,0.83563,0,0,1,.87009.78641,1.02811,1.02811,0,0,1-.58241,1.14083,11.37563,11.37563,0,0,1-2.014.55565A25.24654,25.24654,0,0,1,8.04744,11.691Z"
              fill="#40b6e0" opacity="0.7" style="isolation: isolate"/>
    </g>
</svg>
