<svg id="Layer_1" data-name="Layer 1" xmlns="http://www.w3.org/2000/svg" viewBox="0 0 32 32">
    <title>dbms@2x</title>
    <g>
        <path d="M15.93742,16.76224a37.28027,37.28027,0,0,1-4.623-.32957,35.19961,35.19961,0,0,1-7.97733-1.89089,1.91709,1.91709,0,0,1-1.33386-1.94844c-0.00265-1.29089.9271-2.22569,1.94826-1.92157,0.90229,0.26872,1.79029.60909,2.69942,0.8463a39.59152,39.59152,0,0,0,6.24181,1.112,41.39092,41.39092,0,0,0,7.557-.038,32.3035,32.3035,0,0,0,6.39641-1.14778c0.37332-.11051.738-0.26445,1.1101-0.382a1.58109,1.58109,0,0,1,1.97936,1.37147,2.05618,2.05618,0,0,1-1.11029,2.40491,25.7108,25.7108,0,0,1-6.08808,1.467A57.11234,57.11234,0,0,1,15.93742,16.76224Z"
              fill="#40b6e0" opacity="0.7" style="isolation: isolate"/>
        <path d="M29.99414,6.05947A1.96224,1.96224,0,0,0,28.583,4.17666a36.72463,36.72463,0,0,0-8.04687-1.873,36.86054,36.86054,0,0,0-4.89648-.30078,51.93708,51.93708,0,0,0-6.23926.42969A25.89561,25.89561,0,0,0,3.15332,3.92177,1.95959,1.95959,0,0,0,2.02393,5.71084a2.57787,2.57787,0,0,0-.02.37207A1.96136,1.96136,0,0,0,3.415,7.96572a36.72046,36.72046,0,0,0,8.04639,1.873,36.86281,36.86281,0,0,0,4.897.30078,51.745,51.745,0,0,0,6.23926-.43066,25.85153,25.85153,0,0,0,6.24658-1.48926,1.9579,1.9579,0,0,0,1.12988-1.78418A2.64037,2.64037,0,0,0,29.99414,6.05947Z"
              fill="#40b6e0" opacity="0.7" style="isolation: isolate"/>
        <path d="M16.09489,29.99978a39.60316,39.60316,0,0,1-7.85333-.83564A35.65127,35.65127,0,0,1,3.2787,27.77129a1.95068,1.95068,0,0,1-1.26863-1.73548,2.08407,2.08407,0,0,1,.87469-1.9841A1.46144,1.46144,0,0,1,4.25591,23.989a33.76169,33.76169,0,0,0,6.83728,1.68509,36.87648,36.87648,0,0,0,7.81013.28732,32.70782,32.70782,0,0,0,8.33385-1.40649,4.94294,4.94294,0,0,1,.99071-0.31312,1.67125,1.67125,0,0,1,1.74018,1.57283,2.05622,2.05622,0,0,1-1.16481,2.28166,22.75125,22.75125,0,0,1-4.02793,1.11131A50.49308,50.49308,0,0,1,16.09489,29.99978Z"
              fill="#40b6e0" opacity="0.7" style="isolation: isolate"/>
        <path d="M16.09489,23.382a39.60316,39.60316,0,0,1-7.85333-.83564A35.65127,35.65127,0,0,1,3.2787,21.15351,1.95068,1.95068,0,0,1,2.01007,19.418a2.08407,2.08407,0,0,1,.87469-1.9841,1.46144,1.46144,0,0,1,1.37115-.06273,33.76169,33.76169,0,0,0,6.83728,1.68509,36.87648,36.87648,0,0,0,7.81013.28732,32.70782,32.70782,0,0,0,8.33385-1.40649,4.94294,4.94294,0,0,1,.99071-0.31312,1.67125,1.67125,0,0,1,1.74018,1.57283,2.05622,2.05622,0,0,1-1.16481,2.28166,22.75125,22.75125,0,0,1-4.02793,1.11131A50.49308,50.49308,0,0,1,16.09489,23.382Z"
              fill="#40b6e0" opacity="0.7" style="isolation: isolate"/>
    </g>
</svg>
