<svg id="Layer_1" data-name="Layer 1" xmlns="http://www.w3.org/2000/svg" viewBox="0 0 16 16">
    <defs>
        <style>
            .cls-1{fill:#9aa7b0;opacity:0.8;isolation:isolate;}.cls-2{fill:#f4af3d;}.cls-2,.cls-3{opacity:0.7;}.cls-3{fill:#231f20;}
        </style>
    </defs>
    <title>sql</title>
    <polygon class="cls-1" points="7 1 3 5 7 5 7 1"/>
    <polygon class="cls-1" points="8 1 8 5 8 6 7 6 3 6 3 8 13 8 13 1 8 1"/>
    <rect class="cls-2" x="1" y="9" width="15" height="7"/>
    <path class="cls-3"
          d="M4.257,12.11133c-1.05054-.22217-1.2995-.38916-1.2995-.76416V11.333c0-.31934.32638-.57617.88694-.57617a.0165.0165,0,0,0,.012-.00391l.00793.001H5.35408V10H3.95664l-.00082.00684C3.923,10.00586,3.89344,10,3.85979,10,2.77806,10,2,10.57666,2,11.40967v.01416c0,.89551.65413,1.20117,1.81356,1.45117,1.01115.208,1.22892.396,1.22892.74316v.01367c0,.36133-.37371.61084-.96464.61084-.01614,0-.02982-.00342-.04569-.00391v.00684h-1.558v.75391L4.033,14.998,4.05431,15C5.19841,15,6,14.4585,6,13.54883v-.01465C6,12.72949,5.40825,12.36133,4.257,12.11133Z"/>
    <path class="cls-3" d="M12,10h.87879v4.19972h1.81686L15.507,15H12Z"/>
    <path class="cls-3"
          d="M10.77771,15l-.514-.51155a2.09986,2.09986,0,0,1-1.303.4499,2.30686,2.30686,0,0,1-2.23248-2.45557v-.01333A2.32859,2.32859,0,0,1,8.9731,10a2.30718,2.30718,0,0,1,2.23248,2.45557v.01389a2.66277,2.66277,0,0,1-.43434,1.46634l.48963.46379ZM9.71328,13.94246l-.74017-.70262.48316-.61375.75263.76427a1.96017,1.96017,0,0,0,.20771-.90758v-.01333a1.56692,1.56692,0,0,0-1.45594-1.69851,1.54512,1.54512,0,0,0-1.44349,1.68463v.01389A1.56054,1.56054,0,0,0,8.9731,14.16074,1.33521,1.33521,0,0,0,9.71328,13.94246Z"/>
    <polygon class="cls-3" points="11 16 12 16 11 15 10 15 11 16"/>
</svg>