<svg id="Layer_1" data-name="Layer 1" xmlns="http://www.w3.org/2000/svg" viewBox="0 0 32 32">
    <defs>
        <style>
            .cls-1{fill:#9aa7b0;opacity:0.8;isolation:isolate;}.cls-2{fill:#f4af3d;}.cls-2,.cls-3{opacity:0.7;}.cls-3{fill:#231f20;}
        </style>
    </defs>
    <title>sql@2x</title>
    <polygon class="cls-1" points="14 2 6 10 14 10 14 2"/>
    <polygon class="cls-1" points="16 2 16 10 16 12 14 12 6 12 6 16 26 16 26 2 16 2"/>
    <rect class="cls-2" x="2" y="18" width="30" height="14"/>
    <path class="cls-3"
          d="M8.51406,24.22266c-2.10109-.44434-2.599-.77832-2.599-1.52832V22.666c0-.63867.65276-1.15234,1.77389-1.15234a.033.033,0,0,0,.02407-.00781l.01587.002h2.97928V20H7.91328l-.00164.01367C7.846,20.01172,7.78688,20,7.71958,20,5.55612,20,4,21.15332,4,22.81934v.02832C4,24.63867,5.30826,25.25,7.62711,25.75c2.0223.416,2.45783.792,2.45783,1.48633v.02734c0,.72266-.74742,1.22168-1.92928,1.22168-.03228,0-.05964-.00684-.09138-.00781v.01367H4.94823V29.999l3.11771-.00293L8.10861,30C10.39683,30,12,28.917,12,27.09766v-.0293C12,25.459,10.8165,24.72266,8.51406,24.22266Z"/>
    <path class="cls-3" d="M24,20h1.75759v8.39944H29.3913L30,30H24Z"/>
    <path class="cls-3"
          d="M21.55543,30l-1.02807-1.02311a4.19971,4.19971,0,0,1-2.606.8998,4.61372,4.61372,0,0,1-4.465-4.91113V24.9389A4.65718,4.65718,0,0,1,17.94621,20a4.61437,4.61437,0,0,1,4.465,4.91113v.02777a5.32553,5.32553,0,0,1-.86868,2.93268l.97926.92757Zm-2.12887-2.11509-1.48035-1.40524.96631-1.2275,1.50525,1.52855a3.92035,3.92035,0,0,0,.41541-1.81515V24.9389a3.13385,3.13385,0,0,0-2.91188-3.397,3.09023,3.09023,0,0,0-2.887,3.36925v.02777a3.12107,3.12107,0,0,0,2.91188,3.38258A2.67042,2.67042,0,0,0,19.42656,27.88491Z"/>
</svg>