<svg clip-rule="evenodd" fill-rule="evenodd" stroke-linejoin="round" stroke-miterlimit="1.4142"
     version="1.1" viewBox="0 0 24 24" width="16px" height="16px"
     xml:space="preserve" xmlns="http://www.w3.org/2000/svg">
<path fill="#795548"
      d="M20,18H4V8H20M20,6H12L10,4H4C2.89,4 2,4.89 2,6V18A2,2 0 0,0 4,20H20A2,2 0 0,0 22,18V8C22,6.89 21.1,6 20,6Z"/>
    <path d="m17.338 9.322a6.1865 6.1865 0 0 1 6.1865 6.1865 6.1865 6.1865 0 0 1 -6.1865 6.1865 6.1865 6.1865 0 0 1 -6.1865 -6.1865 6.1865 6.1865 0 0 1 6.1865 -6.1865m0 5.2585a.92797 .92797 0 0 0 -.92797 .92797 .92797 .92797 0 0 0 .92797 .92798 .92797 .92797 0 0 0 .92798 -.92798 .92797 .92797 0 0 0 -.92798 -.92797m-3.4026 0a.92797 .92797 0 0 0 -.92798 .92797 .92797 .92797 0 0 0 .92798 .92798 .92797 .92797 0 0 0 .92798 -.92798 .92797 .92797 0 0 0 -.92798 -.92797m6.8052 0a.92797 .92797 0 0 0 -.92798 .92797 .92797 .92797 0 0 0 .92798 .92798 .92797 .92797 0 0 0 .92798 -.92798 .92797 .92797 0 0 0 -.92798 -.92797z"
          style="fill:#BCAAA4;stroke-width:.61865"/>
</svg>
