<?xml version="1.0" encoding="UTF-8"?>
<svg clip-rule="evenodd" fill-rule="evenodd" stroke-linejoin="round" stroke-miterlimit="1.4142"
     version="1.1" viewBox="0 0 24 24" width="16px" height="16px"
     xml:space="preserve" xmlns="http://www.w3.org/2000/svg">
    <path d="m10 4h-6c-1.11 0-2 0.89-2 2v12c0 1.097 0.903 2 2 2h16c1.097 0 2-0.903 2-2v-10c0-1.11-0.9-2-2-2h-8l-2-2z"
          fill="#795774" fill-rule="nonzero"/>
    <path id="file_type_shell.svg" class="i-color" fill="#CE93D8"
          d="M13.992,2H2a0.961,0.961,0,0,0-1,.916v9.165a0.961,0.961,0,0,0,1,.917h12a0.961,0.961,0,0,0,1-.917V2.912A0.961,0.961,0,0,0,13.992,2ZM3,8.411L5,6.578,3,4.745l1-.916,3,2.75L4,9.327Zm8,0.917h-4V8.411h4V9.327Z"
          transform="translate(8 9)"/>
</svg>
