<?xml version="1.0" encoding="UTF-8"?><!DOCTYPE svg PUBLIC "-//W3C//DTD SVG 1.1//EN"
        "http://www.w3.org/Graphics/SVG/1.1/DTD/svg11.dtd">
<svg xmlns:xlink="http://www.w3.org/1999/xlink" xmlns="http://www.w3.org/2000/svg"
     version="1.1" width="16px" height="16px" fill="#4DD0E1"
     viewBox="0 0 24 24">
    <path d="M4,1C2.89,1 2,1.89 2,3V7C2,8.11 2.89,9 4,9H1V11H13V9H10C11.11,9 12,8.11 12,7V3C12,1.89 11.11,1 10,1H4M4,3H10V7H4V3M3,13V18L3,20H10V18H5V13H3M14,13C12.89,13 12,13.89 12,15V19C12,20.11 12.89,21 14,21H11V23H23V21H20C21.11,21 22,20.11 22,19V15C22,13.89 21.11,13 20,13H14M14,15H20V19H14V15Z"/>
    <path d="m19.262 15.092h-3.0629v-1.5314h3.0629m0 4.5943h-3.0629v-1.5314h3.0629m4.5943-4.5943h-2.1517c-.34457-.59726-.81931-1.1103-1.3936-1.5008l1.2481-1.2481-1.0797-1.0797-1.6616 1.6616c-.35223-.084234-.70446-.13017-1.0873-.13017-.38286 0-.73508.045939-1.0797.13017l-1.6693-1.6616-1.0797 1.0797 1.2405 1.2481c-.56663.39051-1.0414.90354-1.3859 1.5008h-2.1517v1.5314h1.6003c-.03829.25268-.06892.50537-.06892.76571v.76571h-1.5314v1.5314h1.5314v.76571c0 .26034.03062.51303.06892.76571h-1.6003v1.5314h2.1517c.79634 1.3706 2.2742 2.2971 3.9741 2.2971s3.1777-.92651 3.9741-2.2971h2.1517v-1.5314h-1.6003c.03829-.25268.06891-.50537.06891-.76571v-.76571h1.5314v-1.5314h-1.5314v-.76571c0-.26034-.03063-.51303-.06891-.76571h1.6003z"
          fill="#F48FB1"/>
</svg>