<?xml version="1.0" encoding="UTF-8"?><!DOCTYPE svg PUBLIC "-//W3C//DTD SVG 1.1//EN"
        "http://www.w3.org/Graphics/SVG/1.1/DTD/svg11.dtd">
<svg xmlns:xlink="http://www.w3.org/1999/xlink" xmlns="http://www.w3.org/2000/svg"
     version="1.1" width="16px" height="16px" fill="#90A4AE"
     viewBox="0 0 24 24">
    <path d="M12,2A10,10 0 0,0 2,12A10,10 0 0,0 12,22A10,10 0 0,0 22,12A10,10 0 0,0 12,2M12,4C16.41,4 20,7.59 20,12C20,16.41 16.41,20 12,20C7.59,20 4,16.41 4,12C4,7.59 7.59,4 12,4M9,9V15H15V9"/>
</svg>