<?xml version="1.0" encoding="UTF-8"?>
<svg clip-rule="evenodd" fill-rule="evenodd" stroke-linejoin="round" stroke-miterlimit="1.4142" version="1.1" viewBox="0 0 24 24" xml:space="preserve" xmlns="http://www.w3.org/2000/svg"><path d="m10 4h-6c-1.11 0-2 0.89-2 2v12c0 1.097 0.903 2 2 2h16c1.097 0 2-0.903 2-2v-10c0-1.11-0.9-2-2-2h-8l-2-2z" fill="#ef5350" fill-rule="nonzero"/><path d="m19.946 13.159v-1.3288h-2.6576v3.6542c-0.27905-0.20597-0.6179-0.3322-0.99661-0.3322a1.661 1.661 0 0 0 -1.661 1.661 1.661 1.661 0 0 0 1.661 1.661 1.661 1.661 0 0 0 1.661 -1.661v-3.6542h1.9932m-2.6576-4.6508a6.6441 6.6441 0 0 1 6.6441 6.6441 6.6441 6.6441 0 0 1 -6.6441 6.6441 6.6441 6.6441 0 0 1 -6.6441 -6.6441 6.6441 6.6441 0 0 1 6.6441 -6.6441z" fill="#ffcdd2" stroke-width=".66441"/></svg>
