<?xml version="1.0" encoding="UTF-8"?>
<svg clip-rule="evenodd" fill-rule="evenodd" stroke-linejoin="round"
     stroke-miterlimit="1.4142" version="1.1" viewBox="0 0 24 24"
     width="16px" height="16px"
     xml:space="preserve" xmlns="http://www.w3.org/2000/svg">

    <path d="m10 4h-6c-1.11 0-2 .89-2 2v12c0 1.097.903 2 2 2h16c1.097 0 2-.903 2-2v-10c0-1.11-.9-2-2-2h-8l-2-2z" fill="#e57373" fill-rule="nonzero" style="fill:#009688"/>
    <path d="m16.364 17.621a2.0802 2.0802 0 0 1 -2.0802 -2.0802c0-.77662.42298-1.4562 1.0401-1.8098l6.733-3.897-3.8346 6.6429c-.3467.67954-1.047 1.1441-1.8583 1.1441m0-9.0143c1.2551 0 2.4269.34671 3.4463.9153l-1.4562.83903c-.60327-.23576-1.2967-.36751-1.9901-.36751a5.5473 5.5473 0 0 0 -5.5473 5.5473c0 1.5324.61713 2.9193 1.6226 3.9178h.007c.27043.27043.27043.70728 0 .97771s-.71421.27043-.98464.007c-1.2551-1.2551-2.0317-2.9886-2.0317-4.9024a6.9341 6.9341 0 0 1 6.9341 -6.9341m6.9341 6.9341c0 1.9138-.77662 3.6473-2.0317 4.9024-.27043.2635-.70728.2635-.97771-.007-.27043-.27043-.27043-.70728 0-.97771 1.0054-1.0054 1.6226-2.3853 1.6226-3.9178 0-.69341-.13175-1.3868-.37444-2.0109l.83903-1.4562c.57553 1.0401.92224 2.205.92224 3.4671z" style="fill:#B2DFDB;stroke-width:.69341"/>
</svg>
