<svg clip-rule="evenodd" fill-rule="evenodd" stroke-linejoin="round" stroke-miterlimit="1.4142"
     version="1.1" viewBox="0 0 24 24" width="16px" height="16px"
     xml:space="preserve" xmlns="http://www.w3.org/2000/svg">
    <path d="m10 4h-6c-1.11 0-2 .89-2 2v12c0 1.097.903 2 2 2h16c1.097 0 2-.903 2-2v-10c0-1.11-.9-2-2-2h-8l-2-2z" fill="#546e7a" fill-rule="nonzero"/>
    <g transform="matrix(.049538 0 0 .049538 9.9949 7.3777)" fill="#FAFAFA" stroke-width="4.0451">
        <circle cx="150" cy="150" r="30.221"/>
        <path d="m148.1 23.078c-59.135 0-108.82 40.456-122.92 95.193-.12135.48136-.21331.9872-.21331 1.509 0 3.3372 2.7067 6.0439 6.0439 6.0439h51.172c2.4392 0 4.5204-1.4483 5.4751-3.5316 0 0 .07843-.14441.1027-.21317 10.55-22.766 33.591-38.562 60.328-38.562 36.717 0 66.483 29.762 66.483 66.483s-29.758 66.483-66.475 66.483c-26.738 0-49.775-15.801-60.328-38.562-.02831-.0728-.1027-.21318-.1027-.21318a6.0231 6.0231 0 0 0 -5.4751 -3.5316h-51.18c-3.3412-.00024-6.0439 2.7065-6.0439 6.0437 0 .52182.08792 1.0276.21331 1.509 14.097 54.738 63.782 95.193 122.92 95.193 70.097 0 126.92-56.829 126.92-126.92 0-70.093-56.825-126.92-126.92-126.92z"/>
    </g>
</svg>
