<?xml version="1.0" encoding="UTF-8"?>
<svg id="svg6" clip-rule="evenodd" fill-rule="evenodd" stroke-linejoin="round" stroke-miterlimit="1.4142" version="1.1" viewBox="0 0 24 24" xml:space="preserve" xmlns="http://www.w3.org/2000/svg" xmlns:xlink="http://www.w3.org/1999/xlink"><defs id="defs10"><path id="SVGID_2_" d="m8.7 24c-1.1 0-2.1-.9-2.1-2s.9-2 2.1-2 2.1.9 2.1 2-1 2-2.1 2zm25.8-10.9c-.2-1.6-1.2-2.9-2.5-3.9l-.5-.4-.4.5c-.8.9-1.1 2.5-1 3.7.1.9.4 1.8.9 2.5-.4.2-.9.4-1.3.6-.9.3-1.8.4-2.7.4h-25.9l-.1.6c-.2 1.9.1 3.9.9 5.7l.4.7v.1c2.4 4 6.7 5.8 11.4 5.8 9 0 16.4-3.9 19.9-12.3 2.3.1 4.6-.5 5.7-2.7l.3-.5-.5-.3c-1.3-.8-3.1-.9-4.6-.5zm-12.9-1.6h-3.9v3.9h3.9zm0-4.9h-3.9v3.9h3.9zm0-5h-3.9v3.9h3.9zm4.8 9.9h-3.9v3.9h3.9zm-14.5 0h-3.9v3.9h3.9zm4.9 0h-3.9v3.9h3.9zm-9.7 0h-3.9v3.9h3.9zm9.7-4.9h-3.9v3.9h3.9zm-4.9 0h-3.9v3.9h3.9z"/></defs><path id="path2" d="m10 4h-6c-1.11 0-2 .89-2 2v12c0 1.097.903 2 2 2h16c1.097 0 2-.903 2-2v-10c0-1.11-.9-2-2-2h-8l-2-2z" fill="#e57373" fill-rule="nonzero" style="fill:#039be5"/><style id="style2" type="text/css">
	.st0{fill:#FFFFFF;}
	.st1{clip-path:url(#SVGID_4_);}
</style><g id="g34" transform="matrix(.39491 0 0 .39491 8.3185 9.6261)" style="fill:#b3e5fc"><g id="g32" style="fill:#b3e5fc"><g id="g30" style="fill:#b3e5fc"><title id="title4">Group 3</title><desc id="desc6">Created with Sketch.</desc><g id="g28" style="fill:#b3e5fc"><g id="g26" style="fill:#b3e5fc"><g id="g9" style="fill:#b3e5fc"><path id="SVGID_1_" class="st0" d="m8.7 24c-1.1 0-2.1-.9-2.1-2s.9-2 2.1-2 2.1.9 2.1 2-1 2-2.1 2zm25.8-10.9c-.2-1.6-1.2-2.9-2.5-3.9l-.5-.4-.4.5c-.8.9-1.1 2.5-1 3.7.1.9.4 1.8.9 2.5-.4.2-.9.4-1.3.6-.9.3-1.8.4-2.7.4h-25.9l-.1.6c-.2 1.9.1 3.9.9 5.7l.4.7v.1c2.4 4 6.7 5.8 11.4 5.8 9 0 16.4-3.9 19.9-12.3 2.3.1 4.6-.5 5.7-2.7l.3-.5-.5-.3c-1.3-.8-3.1-.9-4.6-.5zm-12.9-1.6h-3.9v3.9h3.9zm0-4.9h-3.9v3.9h3.9zm0-5h-3.9v3.9h3.9zm4.8 9.9h-3.9v3.9h3.9zm-14.5 0h-3.9v3.9h3.9zm4.9 0h-3.9v3.9h3.9zm-9.7 0h-3.9v3.9h3.9zm9.7-4.9h-3.9v3.9h3.9zm-4.9 0h-3.9v3.9h3.9z" style="fill:#b3e5fc"/></g><g id="g24" style="fill:#b3e5fc"><clipPath id="SVGID_4_"><use id="use14" width="100%" height="100%" xlink:href="#SVGID_2_"/></clipPath><g id="g22" class="st1" clip-path="url(#SVGID_4_)" style="fill:#b3e5fc"><g id="g20" style="fill:#b3e5fc"><g id="g18" style="fill:#b3e5fc"><rect id="SVGID_3_" class="st0" x="-48.8" y="-21" width="1274.8" height="151.4" style="fill:#b3e5fc"/></g></g></g></g></g></g></g></g></g></svg>
