<?xml version="1.0" encoding="UTF-8"?>
<svg clip-rule="evenodd" fill-rule="evenodd" stroke-linejoin="round" stroke-miterlimit="1.4142" version="1.1" viewBox="0 0 24 24" xml:space="preserve" xmlns="http://www.w3.org/2000/svg"><path d="m10 4h-6c-1.11 0-2 0.89-2 2v12c0 1.097 0.903 2 2 2h16c1.097 0 2-0.903 2-2v-10c0-1.11-0.9-2-2-2h-8l-2-2z" fill="#546e7a" fill-rule="nonzero"/><path d="m16.698 7.8247a6.7966 6.7966 0 0 0 -6.7966 6.7966c0 3.0041 1.9506 5.5528 4.6489 6.4568 0.33983 0.05437 0.44858-0.15632 0.44858-0.33983v-1.1486c-1.8827 0.4078-2.2837-0.91074-2.2837-0.91074-0.31264-0.78841-0.75442-0.9991-0.75442-0.9991-0.61849-0.42139 0.04758-0.4078 0.04758-0.4078 0.67966 0.04758 1.0399 0.70005 1.0399 0.70005 0.5913 1.0331 1.5904 0.72724 1.9778 0.56412 0.06117-0.44178 0.23788-0.74083 0.42819-0.91075-1.5088-0.16992-3.0925-0.75442-3.0925-3.3439 0-0.75442 0.25827-1.3593 0.70005-1.8419-0.06797-0.16992-0.30585-0.87676 0.06797-1.7943 0 0 0.57092-0.18351 1.8691 0.69326 0.53693-0.14953 1.1214-0.22429 1.6992-0.22429s1.1622 0.07476 1.6992 0.22429c1.2982-0.87676 1.8691-0.69326 1.8691-0.69326 0.37381 0.91754 0.13593 1.6244 0.06797 1.7943 0.44178 0.48256 0.70005 1.0875 0.70005 1.8419 0 2.5963-1.5904 3.1672-3.1061 3.3371 0.24468 0.2107 0.46897 0.62529 0.46897 1.2574v1.8623c0 0.18351 0.10875 0.401 0.45537 0.33983 2.6983-0.91075 4.6421-3.4527 4.6421-6.4568a6.7966 6.7966 0 0 0 -6.7966 -6.7966z" fill="#eceff1" stroke-width=".67966"/></svg>
