<?xml version="1.0" encoding="UTF-8"?>
<svg clip-rule="evenodd" fill-rule="evenodd" stroke-linejoin="round" stroke-miterlimit="1.4142" version="1.1" viewBox="0 0 24 24" xml:space="preserve" xmlns="http://www.w3.org/2000/svg"><path d="m10 4h-6c-1.11 0-2 .89-2 2v12c0 1.097.903 2 2 2h16c1.097 0 2-.903 2-2v-10c0-1.11-.9-2-2-2h-8l-2-2z" fill="#e57373" fill-rule="nonzero" style="fill:#0097a7"/><path d="m23.441 10.229c-.52206-.9391-1.4555-1.2196-2.1147-1.233-.80892-.016105-1.4736.43181-1.3478.72605.02685.063076.17849.39255.27177.52877.13488.19661.37578.04563.46066.000695.25231-.1342.52172-.17782.82771-.14192.29223.03388.68109.21406.94145.71464.61332 1.1787-1.28 3.6041-3.6497 1.9245-2.3694-1.6796-4.6737-1.123-5.7171-.78443-1.0434.3382-1.5232.67874-1.1106 1.4659.56031 1.0696.37443.74148.91763 1.6272.86294 1.4058 2.7515-.64754 2.7515-.64754-1.4068 2.0741-2.613 1.5729-3.0757.84784-.41704-.65324-.74082-1.4068-.74082-1.4068-3.5638 1.2568-2.5996 6.8052-2.5996 6.8052h1.7698c.45126-2.0429 2.0644-1.9675 2.3409 0h1.3504c1.1944-3.9893 4.2211 0 4.2211 0h1.7604c-.4932-2.721.9901-3.5762 1.9248-5.1713.93474-1.5954 1.8205-3.5467.81764-5.2558zm-4.5405 5.2541c-.93071-.30398-.59755-1.23-.59755-1.23s.81261.26271 1.9121.62137c-.06341.2872-.6103.83811-1.3145.60829z" style="fill:#b2ebf2;stroke-width:.33551"/></svg>
