<svg clip-rule="evenodd" fill-rule="evenodd" stroke-linejoin="round"
     stroke-miterlimit="1.4142" version="1.1" viewBox="0 0 24 24"
          width="16px" height="16px"
     xml:space="preserve" xmlns="http://www.w3.org/2000/svg">
    <path d="m10 4h-6c-1.11 0-2 .89-2 2v12c0 1.097.903 2 2 2h16c1.097 0 2-.903 2-2v-10c0-1.11-.9-2-2-2h-8l-2-2z" fill="#e57373" fill-rule="nonzero" style="fill:#0277bd"/>
    <g transform="matrix(.052005 0 0 .052002 16.891 -16.072)" style="fill:#b3e5fc">
        <g transform="translate(-40.058,5e-6)" style="fill:#b3e5fc">
            <path transform="translate(-56.769)" d="m72.489 479.59v.026c-2.4065-.0133-4.585-.0221-6.3269-.0177-7.537-.0658-13.846 4.0527-19.333 8.3466-5.9882 4.7034-11.114 10.842-12.72 19.065-.91522 4.8224-.72156 9.0372-.72156 13.248v33.184c0 11.717-4.3603 20.424-10.274 26.123-3.3311 3.2996-10.442 6.3131-18.529 9.0366v14.99c7.1674 1.976 14.067 4.6508 17.894 8.0478 6.3357 5.5351 10.902 13.499 10.902 23.904v38.754c0 12.875 3.0716 22.682 12.007 29.409 8.9364 6.7231 19.351 10.067 31.244 10.392l7.9592-.0531v-19.324c-6.2085-1.8172-9.6574-3.9248-12.144-6.3097-4.4749-4.0527-7.0091-10.635-7.0091-19.777v-31.292c-.17153-10.643-1.8874-18.968-5.7636-24.992-3.8761-6.0104-11.44-11.281-22.695-15.822 12.421-5.6889 20.755-13.108 25.005-22.259 2.5039-5.4426 3.4539-12.782 3.4539-22.012v-28.692c0-9.4776 2.1995-16.117 6.0104-19.909 2.0678-2.059 5.7459-3.7533 10.855-5.1256l8.0782.0564v-18.998h-17.894v.001z" style="fill:#b3e5fc"/>
            <path transform="translate(-56.769)" d="m160.1 479.59v.026c2.4065-.0133 4.585-.0221 6.3269-.0177 7.5372-.0658 13.846 4.0527 19.333 8.3466 5.9883 4.7034 11.114 10.842 12.72 19.065.91522 4.8224.72155 9.0372.72155 13.248v33.184c0 11.717 4.3603 20.424 10.274 26.123 3.3311 3.2996 10.442 6.3131 18.529 9.0366v14.99c-7.1674 1.976-14.067 4.6508-17.894 8.0478-6.3358 5.5351-10.902 13.499-10.902 23.904v38.754c0 12.875-3.0716 22.682-12.008 29.409-8.9366 6.7231-19.351 10.067-31.244 10.392l-7.9592-.0531v-19.324c6.2085-1.8172 9.6574-3.9248 12.144-6.3097 4.4749-4.0527 7.0092-10.635 7.0092-19.777v-31.292c.17154-10.643 1.8875-18.968 5.7637-24.992 3.8762-6.0104 11.44-11.282 22.695-15.822-12.421-5.6889-20.755-13.108-25.005-22.259-2.5039-5.4426-3.454-12.782-3.454-22.012v-28.692c0-9.4776-2.1996-16.117-6.0104-19.909-2.0678-2.059-5.7459-3.7533-10.855-5.1256l-8.0782.0564v-18.998h17.894v.001z" style="fill:#b3e5fc"/>
        </g>
    </g>
</svg>
