<?xml version="1.0" encoding="UTF-8"?>
<svg clip-rule="evenodd" fill-rule="evenodd" stroke-linejoin="round" stroke-miterlimit="1.4142" version="1.1" viewBox="0 0 24 24" xml:space="preserve" xmlns="http://www.w3.org/2000/svg"><path d="m10 4h-6c-1.11 0-2 0.89-2 2v12c0 1.097 0.903 2 2 2h16c1.097 0 2-0.903 2-2v-10c0-1.11-0.9-2-2-2h-8l-2-2z" fill="#afb42b" fill-rule="nonzero"/><path d="m19.04 18.616h-4.7062v-1.3446h4.7062m2.0169-1.3446h-6.7232v-1.3446h6.7232m0-1.3446h-6.7232v-1.3446h6.7232m1.3446-2.6893h-9.4124c-0.74627 0-1.3446 0.59836-1.3446 1.3446v9.4124a1.3446 1.3446 0 0 0 1.3446 1.3446h9.4124a1.3446 1.3446 0 0 0 1.3446 -1.3446v-9.4124c0-0.74627-0.60508-1.3446-1.3446-1.3446z" fill="#f0f4c3" stroke-width=".67232"/></svg>
