<svg clip-rule="evenodd" fill-rule="evenodd" stroke-linejoin="round" stroke-miterlimit="1.4142" version="1.1" viewBox="0 0 24 24" xml:space="preserve" xmlns="http://www.w3.org/2000/svg"><path d="m10 4h-6c-1.11 0-2 .89-2 2v12c0 1.097.903 2 2 2h16c1.097 0 2-.903 2-2v-10c0-1.11-.9-2-2-2h-8l-2-2z" fill="#039be5" fill-rule="nonzero" style="fill:#ff7043"/><path d="m17.338 9.322a6.1865 6.1865 0 0 1 6.1865 6.1865 6.1865 6.1865 0 0 1 -6.1865 6.1865 6.1865 6.1865 0 0 1 -6.1865 -6.1865 6.1865 6.1865 0 0 1 6.1865 -6.1865m0 5.2585a.92797 .92797 0 0 0 -.92797 .92797 .92797 .92797 0 0 0 .92797 .92798 .92797 .92797 0 0 0 .92798 -.92798 .92797 .92797 0 0 0 -.92798 -.92797m-3.4026 0a.92797 .92797 0 0 0 -.92798 .92797 .92797 .92797 0 0 0 .92798 .92798 .92797 .92797 0 0 0 .92798 -.92798 .92797 .92797 0 0 0 -.92798 -.92797m6.8052 0a.92797 .92797 0 0 0 -.92798 .92797 .92797 .92797 0 0 0 .92798 .92798 .92797 .92797 0 0 0 .92798 -.92798 .92797 .92797 0 0 0 -.92798 -.92797z" style="fill:#ffccbc;stroke-width:.61865"/></svg>
