<?xml version="1.0" encoding="UTF-8"?>
<svg clip-rule="evenodd" fill-rule="evenodd" stroke-linejoin="round" stroke-miterlimit="1.4142" version="1.1" viewBox="0 0 24 24" xml:space="preserve" xmlns="http://www.w3.org/2000/svg"><path d="m10 4h-6c-1.11 0-2 0.89-2 2v12c0 1.097 0.903 2 2 2h16c1.097 0 2-0.903 2-2v-10c0-1.11-0.9-2-2-2h-8l-2-2z" fill="#afb42b" fill-rule="nonzero"/><path d="m20.593 15.61h-2.5625v2.5625h-1.2812v-2.5625h-2.5625v-1.2812h2.5625v-2.5625h1.2812v2.5625h2.5625m-3.2031-5.7656a6.4062 6.4062 0 0 0 -6.4062 6.4062 6.4062 6.4062 0 0 0 6.4062 6.4062 6.4062 6.4062 0 0 0 6.4062 -6.4062 6.4062 6.4062 0 0 0 -6.4062 -6.4062z" fill="#f0f4c3" stroke-width=".64062"/></svg>
