<?xml version="1.0" encoding="UTF-8"?>
<svg clip-rule="evenodd" fill-rule="evenodd" stroke-linejoin="round" stroke-miterlimit="1.4142" version="1.1" viewBox="0 0 24 24" xml:space="preserve" xmlns="http://www.w3.org/2000/svg"><path d="m10 4h-6c-1.11 0-2 0.89-2 2v12c0 1.097 0.903 2 2 2h16c1.097 0 2-0.903 2-2v-10c0-1.11-0.9-2-2-2h-8l-2-2z" fill="#4caf50" fill-rule="nonzero"/><g fill="#c8e6c9"><g transform="matrix(.70678 0 0 .70678 2.0647 -.2245)"><path d="m19.146 30.989c-0.07 0-0.139-9e-3 -0.207-0.025-0.519-0.152-0.837-0.684-0.726-1.213l2.709-14.431c0.049-0.279 0.209-0.525 0.444-0.683 0.206-0.136 0.46-0.18 0.7-0.122 0.519 0.152 0.837 0.684 0.727 1.213l-2.716 14.432c-0.048 0.278-0.208 0.524-0.442 0.681-0.145 0.096-0.315 0.147-0.489 0.148z" fill="#c8e6c9" fill-rule="nonzero"/></g><g transform="matrix(.70678 0 0 .70678 2.0647 -.2245)"><path d="m24.578 28.944h-0.068c-0.266-0.024-0.51-0.161-0.668-0.377-0.317-0.432-0.274-1.036 0.1-1.419l4.658-4.553-4.638-4.239c-0.385-0.372-0.445-0.975-0.141-1.416 0.152-0.222 0.394-0.368 0.661-0.4 0.259-0.028 0.518 0.059 0.709 0.237l5.47 5c0.386 0.372 0.448 0.974 0.144 1.416-0.042 0.059-0.089 0.114-0.142 0.163l-5.447 5.324c-0.17 0.168-0.399 0.263-0.638 0.264z" fill="#c8e6c9" fill-rule="nonzero"/></g><g transform="matrix(.70678 0 0 .70678 2.0647 -.2245)"><path d="m16.423 28.947c-0.24-2e-3 -0.469-0.098-0.639-0.267l-5.452-5.327c-0.05-0.046-0.094-0.097-0.132-0.153-0.306-0.44-0.246-1.043 0.141-1.414l5.471-5c0.187-0.178 0.443-0.265 0.7-0.238 0.269 0.031 0.511 0.177 0.665 0.4 0.305 0.441 0.246 1.044-0.14 1.417l-4.637 4.235 4.659 4.551c0.377 0.382 0.42 0.988 0.1 1.419-0.158 0.216-0.402 0.354-0.669 0.377z" fill="#c8e6c9" fill-rule="nonzero"/></g></g></svg>
