<svg clip-rule="evenodd" fill-rule="evenodd" stroke-linejoin="round" stroke-miterlimit="1.4142" version="1.1" viewBox="0 0 24 24" xml:space="preserve" xmlns="http://www.w3.org/2000/svg"><path d="m10 4h-6c-1.11 0-2 .89-2 2v12c0 1.097.903 2 2 2h16c1.097 0 2-.903 2-2v-10c0-1.11-.9-2-2-2h-8l-2-2z" fill="#ffca28" fill-rule="nonzero" style="fill:#0288d1"/><g transform="matrix(.62325 0 0 .62325 3.8992 1.5796)" style="fill:#90caf9"><g transform="matrix(1.5015 0 0 1.5015 -410.35 -353.44)" style="clip-rule:evenodd;fill-rule:evenodd;fill:#90caf9;stroke-linejoin:round;stroke-miterlimit:1.414"><path d="m290.43 246.08c-.134-.00042-.25707.003-.34903.0117-.71892.0625-1.3904.3765-1.85.86507-.23027.24478-.43883.59574-.54073.90994-.11231.34626-.1115.33961-.11092.88208.00057.69296.0358.86458.27157 1.3254.23705.46345.59825.84201 1.1194 1.1732.22838.14514.81324.43678 1.2908.64365 1.0396.45034 1.3685.65813 1.5211.96108l.063.12506v.26199c0 .25274-.001.26573-.0524.36994-.11727.24115-.39407.43858-.74856.53399-.13402.036-.19544.0411-.49501.0412-.29321 0-.3644-.006-.49878-.0395-.23464-.0593-.43231-.14146-.58687-.24381-.18921-.1253-.56128-.50093-.71263-.71945-.0668-.0965-.13387-.17553-.14891-.17553-.0249 0-1.3077.73339-1.5316.8756-.0755.048-.0946.0698-.0946.10825 0 .0797.29972.53272.53451.80791.47831.56068 1.4376 1.0551 2.2873 1.1788.33587.0489.8938.0647 1.2836.036.25539-.0187.51354-.0672.79097-.14854 1.0036-.29438 1.6884-.91981 1.9421-1.7739.10347-.34843.14535-.77698.11115-1.1385-.0701-.74181-.29812-1.2662-.74819-1.7204-.41796-.42178-.99175-.76163-2.1242-1.2582-.98185-.43052-1.2381-.59773-1.3796-.90016-.12217-.26107-.0989-.62036.0548-.84364.17981-.26136.54693-.39047.95627-.33626.38065.0503.62685.20116.86801.53165.12523.17164.21217.26103.25387.26103.0411 0 .21819-.10929.76787-.4742.55956-.37146.73551-.49748.74756-.53548.0187-.0589-.069-.19671-.32552-.51143-.51511-.63179-1.1207-.9672-1.8982-1.0513-.19093-.0207-.44471-.0322-.66806-.0329zm-6.1855.1072c-.46158-.00028-.98882-2e-5-1.5747.00057-3.0381.003-3.7433.008-3.7623.0276-.0185.0185-.0233.20475-.0233.90007v.87668l1.3816.005 1.3816.005.00029 3.9107c.00012 2.1509.005 3.9289.0117 3.9512l.0104.0406h1.0041c.89895 0 1.0052-.002 1.0149-.0284.006-.0157.0104-1.7937.0104-3.9512v-3.9227l1.3816-.005 1.3816-.005v-.88723c0-.76903-.003-.8895-.027-.90436-.0127-.008-.80648-.0128-2.1912-.0135z" style="fill:#90caf9;stroke-width:.018001"/></g></g></svg>
