<svg style="clip-rule:evenodd;fill-rule:evenodd;stroke-linejoin:round;stroke-miterlimit:1.4142" version="1.1" viewBox="0 0 24 24" xml:space="preserve" xmlns="http://www.w3.org/2000/svg"><path d="m10 4h-6c-1.11 0-2 .89-2 2v12c0 1.097.903 2 2 2h16c1.097 0 2-.903 2-2v-10c0-1.11-.9-2-2-2h-8l-2-2z" style="fill-rule:nonzero;fill:#ff7043"/><g transform="matrix(.65434 0 0 .65434 3.2169 2.9566)" style="fill:#ffccbc"><path d="m14.167 28.901l-1.685-18.901h18.516l-1.687 18.898-7.582 2.102-7.562-2.099zm6.823-4.89l-6-3.607v-1.307l6-3.608v2.023l-3.828 2.238 3.828 2.239v2.022zm1.5-.002v-2.021l3.855-2.238-3.855-2.237v-2.022l6 3.591v1.336l-6 3.591z" style="fill:#ffccbc"/></g></svg>
