<svg clip-rule="evenodd" fill-rule="evenodd" stroke-linejoin="round" stroke-miterlimit="1.4142" version="1.1" viewBox="0 0 24 24" xml:space="preserve" xmlns="http://www.w3.org/2000/svg"><path d="m10 4h-6c-1.11 0-2 .89-2 2v12c0 1.097.903 2 2 2h16c1.097 0 2-.903 2-2v-10c0-1.11-.9-2-2-2h-8l-2-2z" fill="#e57373" fill-rule="nonzero" style="fill:#21759b"/><path d="m16.361 8.2952c-2.2333 0-4.191 1.1467-5.3375 2.8813l.40937.0079c.67 0 1.7053-.08083 1.7053-.08083.34245-.02233.38677.48204.04433.52671l-.73791.07562 2.3311 6.8994 1.3976-4.1902-.99605-2.7092-.67794-.07562c-.335-.02233-.29812-.54904.04432-.52671l1.6818.08083c.67 0 1.7053-.08083 1.7053-.08083.34244-.02233.389.48204.03911.52671l-.73009.07562 2.3076 6.8472.63883-2.1277c.268-.88589.48499-1.5191.48499-2.0625 0-.79656-.28365-1.3409-.52932-1.7653-.32011-.52111-.62579-.96552-.62579-1.4941 0-.58811.44894-1.1316 1.0743-1.1316h.08083c-1.1316-1.0349-2.65-1.6767-4.3101-1.6767zm5.6061 3.3219.04433.6623c0 .64767-.12803 1.3759-.49281 2.2841l-1.9504 5.6347c1.8983-1.1018 3.1785-3.1624 3.1785-5.5148 0-1.1167-.28086-2.1507-.77964-3.0664zm-11.444.46152c-.34989.804-.55018 1.6818-.55018 2.6049 0 2.5311 1.467 4.7121 3.6035 5.7469zm5.9502 3.1629-1.9139 5.5696c.57322.17121 1.1764.25814 1.8018.25814.74445 0 1.4599-.12421 2.1225-.36244l-.04694-.09126z" style="fill:#e1f5fe;stroke-width:.74445"/></svg>
